<?xml version="1.0" encoding="UTF-8" standalone="no"?>
<!DOCTYPE svg PUBLIC "-//W3C//DTD SVG 1.1//EN" "http://www.w3.org/Graphics/SVG/1.1/DTD/svg11.dtd">
<svg width="100%" height="100%" viewBox="0 0 300 200" version="1.1" xmlns="http://www.w3.org/2000/svg" xmlns:xlink="http://www.w3.org/1999/xlink" xml:space="preserve" xmlns:serif="http://www.serif.com/" style="fill-rule:evenodd;clip-rule:evenodd;stroke-linejoin:round;stroke-miterlimit:2;">
    <g transform="matrix(0.915047,0,0,1,16.0646,0)">
        <g transform="matrix(1.14294,0,0,1,81.669,15.8572)">
            <path d="M186.801,42.034C186.801,21.277 165.737,4.426 139.791,4.426C113.846,4.426 92.781,21.277 92.781,42.034C92.781,54.3 100.259,65.796 112.816,72.834L106.884,98.446L127.611,78.358C131.583,79.21 135.678,79.642 139.791,79.642C165.737,79.642 186.801,62.79 186.801,42.034Z" style="fill:white;"/>
        </g>
        <g transform="matrix(1.09284,0,0,1,-30.2017,8.25787)">
            <g transform="matrix(13,0,0,13,213.265,46.0209)">
                <path d="M0.044,-0L0.044,-0.712L0.142,-0.712L0.296,-0.283L0.298,-0.283L0.298,-0.712L0.4,-0.712L0.4,-0L0.304,-0L0.148,-0.428L0.146,-0.428L0.146,-0L0.044,-0Z" style="fill-rule:nonzero;"/>
            </g>
            <g transform="matrix(13,0,0,13,219.037,46.0209)">
                <path d="M0.033,-0.337C0.033,-0.358 0.034,-0.377 0.037,-0.394C0.04,-0.411 0.045,-0.427 0.052,-0.44C0.064,-0.462 0.081,-0.48 0.104,-0.493C0.126,-0.506 0.153,-0.513 0.185,-0.513C0.217,-0.513 0.244,-0.506 0.267,-0.493C0.289,-0.48 0.306,-0.462 0.318,-0.44C0.325,-0.427 0.33,-0.411 0.333,-0.394C0.336,-0.377 0.337,-0.358 0.337,-0.337L0.337,-0.17C0.337,-0.149 0.336,-0.13 0.333,-0.113C0.33,-0.096 0.325,-0.08 0.318,-0.067C0.306,-0.045 0.289,-0.027 0.267,-0.014C0.244,-0.001 0.217,0.006 0.185,0.006C0.153,0.006 0.126,-0.001 0.104,-0.014C0.081,-0.027 0.064,-0.045 0.052,-0.067C0.045,-0.08 0.04,-0.096 0.037,-0.113C0.034,-0.13 0.033,-0.149 0.033,-0.17L0.033,-0.337ZM0.135,-0.154C0.135,-0.135 0.139,-0.12 0.149,-0.111C0.158,-0.101 0.17,-0.096 0.185,-0.096C0.2,-0.096 0.213,-0.101 0.222,-0.111C0.231,-0.12 0.235,-0.135 0.235,-0.154L0.235,-0.353C0.235,-0.372 0.231,-0.387 0.222,-0.397C0.213,-0.406 0.2,-0.411 0.185,-0.411C0.17,-0.411 0.158,-0.406 0.149,-0.397C0.139,-0.387 0.135,-0.372 0.135,-0.353L0.135,-0.154Z" style="fill-rule:nonzero;"/>
            </g>
            <g transform="matrix(13,0,0,13,223.847,46.0209)">
                <rect x="0.042" y="-0.102" width="0.102" height="0.102" style="fill-rule:nonzero;"/>
            </g>
            <g transform="matrix(13,0,0,13,226.265,46.0209)">
                <path d="M0.155,-0L0.155,-0.604L0.053,-0.529L0.053,-0.637L0.155,-0.712L0.257,-0.712L0.257,-0L0.155,-0Z" style="fill-rule:nonzero;"/>
            </g>
            <g transform="matrix(13,0,0,13,233.519,46.0209)">
                <path d="M0.372,-0.203L0.372,-0.159C0.372,-0.137 0.368,-0.116 0.36,-0.097C0.351,-0.077 0.34,-0.059 0.325,-0.044C0.31,-0.029 0.293,-0.017 0.274,-0.008C0.254,0.002 0.233,0.006 0.21,0.006C0.191,0.006 0.171,0.003 0.151,-0.002C0.131,-0.007 0.113,-0.017 0.097,-0.03C0.081,-0.043 0.068,-0.061 0.058,-0.082C0.047,-0.102 0.042,-0.129 0.042,-0.162L0.042,-0.554C0.042,-0.577 0.046,-0.599 0.054,-0.619C0.062,-0.639 0.073,-0.656 0.088,-0.671C0.103,-0.686 0.12,-0.697 0.141,-0.706C0.161,-0.714 0.183,-0.718 0.208,-0.718C0.256,-0.718 0.295,-0.702 0.325,-0.671C0.34,-0.656 0.351,-0.638 0.36,-0.617C0.368,-0.596 0.372,-0.573 0.372,-0.548L0.372,-0.508L0.27,-0.508L0.27,-0.542C0.27,-0.562 0.264,-0.579 0.253,-0.594C0.242,-0.609 0.226,-0.616 0.207,-0.616C0.182,-0.616 0.165,-0.608 0.157,-0.593C0.148,-0.577 0.144,-0.557 0.144,-0.533L0.144,-0.169C0.144,-0.148 0.149,-0.131 0.158,-0.117C0.167,-0.103 0.183,-0.096 0.206,-0.096C0.213,-0.096 0.22,-0.097 0.228,-0.1C0.235,-0.102 0.242,-0.106 0.249,-0.111C0.255,-0.116 0.26,-0.124 0.264,-0.133C0.268,-0.142 0.27,-0.154 0.27,-0.168L0.27,-0.203L0.372,-0.203Z" style="fill-rule:nonzero;"/>
            </g>
            <g transform="matrix(13,0,0,13,238.81,46.0209)">
                <path d="M0.042,-0L0.042,-0.507L0.144,-0.507L0.144,-0.453C0.165,-0.472 0.185,-0.486 0.205,-0.497C0.225,-0.508 0.25,-0.513 0.279,-0.513L0.279,-0.405C0.269,-0.409 0.259,-0.411 0.248,-0.411C0.237,-0.411 0.226,-0.409 0.214,-0.406C0.201,-0.402 0.19,-0.396 0.18,-0.387C0.169,-0.378 0.161,-0.367 0.154,-0.353C0.147,-0.339 0.144,-0.322 0.144,-0.301L0.144,-0L0.042,-0Z" style="fill-rule:nonzero;"/>
            </g>
            <g transform="matrix(13,0,0,13,242.658,46.0209)">
                <path d="M-0.001,-0.507L0.107,-0.507L0.177,-0.191L0.179,-0.191L0.248,-0.507L0.353,-0.507L0.207,0.088C0.202,0.111 0.194,0.129 0.185,0.144C0.175,0.159 0.164,0.171 0.151,0.18C0.138,0.189 0.125,0.196 0.111,0.2C0.096,0.203 0.081,0.205 0.066,0.205L0.038,0.205L0.038,0.109L0.061,0.109C0.071,0.109 0.08,0.108 0.087,0.105C0.094,0.102 0.101,0.096 0.107,0.087C0.112,0.078 0.117,0.065 0.122,0.048C0.127,0.031 0.132,0.007 0.138,-0.023L-0.001,-0.507Z" style="fill-rule:nonzero;"/>
            </g>
            <g transform="matrix(13,0,0,13,247.234,46.0209)">
                <path d="M0.042,0.205L0.042,-0.507L0.144,-0.507L0.144,-0.461C0.157,-0.476 0.17,-0.488 0.183,-0.498C0.196,-0.508 0.216,-0.513 0.241,-0.513C0.283,-0.513 0.313,-0.497 0.33,-0.465C0.336,-0.454 0.34,-0.44 0.343,-0.423C0.346,-0.406 0.347,-0.384 0.347,-0.356L0.347,-0.163C0.347,-0.126 0.346,-0.099 0.344,-0.082C0.34,-0.049 0.325,-0.024 0.298,-0.007C0.285,0.002 0.265,0.006 0.24,0.006C0.22,0.006 0.202,0.002 0.187,-0.008C0.171,-0.017 0.157,-0.029 0.146,-0.046L0.144,-0.046L0.144,0.205L0.042,0.205ZM0.245,-0.342C0.245,-0.363 0.241,-0.379 0.233,-0.392C0.225,-0.405 0.212,-0.411 0.195,-0.411C0.18,-0.411 0.167,-0.405 0.158,-0.394C0.149,-0.382 0.144,-0.367 0.144,-0.348L0.144,-0.151C0.144,-0.135 0.149,-0.122 0.159,-0.112C0.168,-0.101 0.18,-0.096 0.195,-0.096C0.214,-0.096 0.228,-0.102 0.235,-0.114C0.242,-0.126 0.245,-0.14 0.245,-0.156L0.245,-0.342Z" style="fill-rule:nonzero;"/>
            </g>
            <g transform="matrix(13,0,0,13,252.291,46.0209)">
                <path d="M0.042,-0.507L0.042,-0.661L0.144,-0.661L0.144,-0.507L0.207,-0.507L0.207,-0.427L0.144,-0.427L0.144,-0.146C0.144,-0.134 0.145,-0.125 0.148,-0.118C0.15,-0.111 0.154,-0.106 0.159,-0.103C0.164,-0.1 0.171,-0.098 0.179,-0.097C0.186,-0.096 0.196,-0.096 0.207,-0.096L0.207,-0L0.165,-0C0.142,-0 0.122,-0.004 0.107,-0.011C0.091,-0.018 0.078,-0.028 0.069,-0.039C0.06,-0.05 0.053,-0.063 0.049,-0.078C0.044,-0.092 0.042,-0.106 0.042,-0.119L0.042,-0.427L-0.009,-0.427L-0.009,-0.507L0.042,-0.507Z" style="fill-rule:nonzero;"/>
            </g>
            <g transform="matrix(13,0,0,13,254.943,46.0209)">
                <path d="M0.033,-0.337C0.033,-0.358 0.034,-0.377 0.037,-0.394C0.04,-0.411 0.045,-0.427 0.052,-0.44C0.064,-0.462 0.081,-0.48 0.104,-0.493C0.126,-0.506 0.153,-0.513 0.185,-0.513C0.217,-0.513 0.244,-0.506 0.267,-0.493C0.289,-0.48 0.306,-0.462 0.318,-0.44C0.325,-0.427 0.33,-0.411 0.333,-0.394C0.336,-0.377 0.337,-0.358 0.337,-0.337L0.337,-0.17C0.337,-0.149 0.336,-0.13 0.333,-0.113C0.33,-0.096 0.325,-0.08 0.318,-0.067C0.306,-0.045 0.289,-0.027 0.267,-0.014C0.244,-0.001 0.217,0.006 0.185,0.006C0.153,0.006 0.126,-0.001 0.104,-0.014C0.081,-0.027 0.064,-0.045 0.052,-0.067C0.045,-0.08 0.04,-0.096 0.037,-0.113C0.034,-0.13 0.033,-0.149 0.033,-0.17L0.033,-0.337ZM0.135,-0.154C0.135,-0.135 0.139,-0.12 0.149,-0.111C0.158,-0.101 0.17,-0.096 0.185,-0.096C0.2,-0.096 0.213,-0.101 0.222,-0.111C0.231,-0.12 0.235,-0.135 0.235,-0.154L0.235,-0.353C0.235,-0.372 0.231,-0.387 0.222,-0.397C0.213,-0.406 0.2,-0.411 0.185,-0.411C0.17,-0.411 0.158,-0.406 0.149,-0.397C0.139,-0.387 0.135,-0.372 0.135,-0.353L0.135,-0.154Z" style="fill-rule:nonzero;"/>
            </g>
            <g transform="matrix(13,0,0,13,262.171,46.0209)">
                <path d="M0.048,-0L0.048,-0.712L0.146,-0.712L0.277,-0.335L0.279,-0.335L0.409,-0.712L0.508,-0.712L0.508,-0L0.406,-0L0.406,-0.433L0.404,-0.433L0.303,-0.127L0.252,-0.127L0.152,-0.433L0.15,-0.433L0.15,-0L0.048,-0Z" style="fill-rule:nonzero;"/>
            </g>
            <g transform="matrix(13,0,0,13,269.399,46.0209)">
                <path d="M0.337,-0.215L0.135,-0.215L0.135,-0.146C0.135,-0.13 0.139,-0.118 0.149,-0.109C0.158,-0.1 0.17,-0.096 0.185,-0.096C0.204,-0.096 0.217,-0.102 0.224,-0.113C0.23,-0.124 0.234,-0.136 0.235,-0.147L0.337,-0.147C0.337,-0.102 0.323,-0.066 0.296,-0.039C0.283,-0.025 0.267,-0.014 0.248,-0.006C0.229,0.002 0.208,0.006 0.185,0.006C0.153,0.006 0.126,-0.001 0.104,-0.014C0.081,-0.027 0.064,-0.045 0.052,-0.067C0.045,-0.08 0.04,-0.096 0.037,-0.113C0.034,-0.13 0.033,-0.149 0.033,-0.17L0.033,-0.337C0.033,-0.358 0.034,-0.377 0.037,-0.394C0.04,-0.411 0.045,-0.427 0.052,-0.44C0.064,-0.462 0.081,-0.48 0.104,-0.493C0.126,-0.506 0.153,-0.513 0.185,-0.513C0.208,-0.513 0.23,-0.509 0.249,-0.501C0.268,-0.493 0.284,-0.482 0.297,-0.468C0.324,-0.438 0.337,-0.4 0.337,-0.355L0.337,-0.215ZM0.135,-0.295L0.235,-0.295L0.235,-0.353C0.235,-0.372 0.231,-0.387 0.222,-0.397C0.213,-0.406 0.2,-0.411 0.185,-0.411C0.17,-0.411 0.158,-0.406 0.149,-0.397C0.139,-0.387 0.135,-0.372 0.135,-0.353L0.135,-0.295Z" style="fill-rule:nonzero;"/>
            </g>
            <g transform="matrix(13,0,0,13,274.209,46.0209)">
                <path d="M0.144,-0.165C0.144,-0.144 0.148,-0.128 0.156,-0.115C0.164,-0.102 0.177,-0.096 0.194,-0.096C0.209,-0.096 0.222,-0.102 0.231,-0.114C0.24,-0.125 0.245,-0.14 0.245,-0.159L0.245,-0.356C0.245,-0.372 0.24,-0.385 0.231,-0.396C0.221,-0.406 0.209,-0.411 0.194,-0.411C0.175,-0.411 0.162,-0.405 0.155,-0.393C0.148,-0.381 0.144,-0.367 0.144,-0.351L0.144,-0.165ZM0.245,-0L0.245,-0.046C0.238,-0.039 0.232,-0.032 0.226,-0.026C0.22,-0.019 0.213,-0.014 0.206,-0.009C0.199,-0.004 0.19,-0.001 0.181,0.002C0.172,0.005 0.161,0.006 0.148,0.006C0.105,0.006 0.076,-0.01 0.059,-0.042C0.053,-0.053 0.049,-0.067 0.046,-0.084C0.043,-0.101 0.042,-0.123 0.042,-0.151L0.042,-0.344C0.042,-0.381 0.043,-0.408 0.045,-0.425C0.049,-0.458 0.065,-0.483 0.092,-0.5C0.105,-0.509 0.124,-0.513 0.149,-0.513C0.169,-0.513 0.187,-0.509 0.203,-0.5C0.218,-0.491 0.232,-0.478 0.243,-0.461L0.245,-0.461L0.245,-0.712L0.347,-0.712L0.347,-0L0.245,-0Z" style="fill-rule:nonzero;"/>
            </g>
            <g transform="matrix(13,0,0,13,279.266,46.0209)">
                <path d="M0.042,-0L0.042,-0.507L0.144,-0.507L0.144,-0L0.042,-0ZM0.042,-0.61L0.042,-0.712L0.144,-0.712L0.144,-0.61L0.042,-0.61Z" style="fill-rule:nonzero;"/>
            </g>
            <g transform="matrix(13,0,0,13,281.684,46.0209)">
                <path d="M0.235,-0L0.235,-0.052L0.233,-0.052C0.22,-0.033 0.206,-0.019 0.193,-0.009C0.179,0.001 0.16,0.006 0.135,0.006C0.123,0.006 0.111,0.004 0.099,0.001C0.086,-0.003 0.074,-0.01 0.063,-0.02C0.052,-0.029 0.043,-0.043 0.036,-0.061C0.029,-0.078 0.025,-0.101 0.025,-0.129C0.025,-0.158 0.027,-0.183 0.032,-0.205C0.037,-0.226 0.045,-0.244 0.058,-0.259C0.07,-0.273 0.086,-0.284 0.107,-0.291C0.128,-0.298 0.154,-0.301 0.186,-0.301L0.197,-0.301C0.201,-0.301 0.205,-0.301 0.208,-0.3C0.211,-0.299 0.215,-0.299 0.22,-0.299C0.225,-0.299 0.23,-0.299 0.235,-0.298L0.235,-0.351C0.235,-0.368 0.231,-0.383 0.224,-0.394C0.217,-0.405 0.203,-0.411 0.184,-0.411C0.171,-0.411 0.159,-0.407 0.148,-0.398C0.136,-0.389 0.129,-0.377 0.126,-0.36L0.027,-0.36C0.03,-0.405 0.045,-0.442 0.073,-0.47C0.086,-0.483 0.102,-0.494 0.121,-0.502C0.14,-0.509 0.161,-0.513 0.184,-0.513C0.205,-0.513 0.225,-0.51 0.244,-0.503C0.263,-0.496 0.279,-0.486 0.293,-0.473C0.306,-0.46 0.317,-0.443 0.325,-0.423C0.333,-0.403 0.337,-0.38 0.337,-0.353L0.337,-0L0.235,-0ZM0.235,-0.218C0.224,-0.22 0.214,-0.221 0.207,-0.221C0.185,-0.221 0.166,-0.216 0.151,-0.206C0.135,-0.195 0.127,-0.176 0.127,-0.149C0.127,-0.13 0.132,-0.114 0.141,-0.102C0.15,-0.09 0.163,-0.084 0.18,-0.084C0.197,-0.084 0.211,-0.09 0.221,-0.101C0.23,-0.112 0.235,-0.128 0.235,-0.149L0.235,-0.218Z" style="fill-rule:nonzero;"/>
            </g>
            <g transform="matrix(13,0,0,13,213.265,61.6209)">
                <path d="M0.042,-0L0.042,-0.507L0.144,-0.507L0.144,-0L0.042,-0ZM0.042,-0.61L0.042,-0.712L0.144,-0.712L0.144,-0.61L0.042,-0.61Z" style="fill-rule:nonzero;"/>
            </g>
            <g transform="matrix(13,0,0,13,215.683,61.6209)">
                <path d="M0.042,-0L0.042,-0.507L0.144,-0.507L0.144,-0.458L0.146,-0.458C0.157,-0.474 0.169,-0.487 0.185,-0.498C0.2,-0.508 0.219,-0.513 0.242,-0.513C0.255,-0.513 0.267,-0.511 0.28,-0.507C0.293,-0.502 0.304,-0.495 0.314,-0.485C0.324,-0.475 0.332,-0.462 0.338,-0.447C0.344,-0.431 0.347,-0.412 0.347,-0.389L0.347,-0L0.245,-0L0.245,-0.351C0.245,-0.37 0.241,-0.384 0.232,-0.395C0.223,-0.406 0.211,-0.411 0.195,-0.411C0.176,-0.411 0.162,-0.405 0.155,-0.393C0.148,-0.381 0.144,-0.364 0.144,-0.341L0.144,-0L0.042,-0Z" style="fill-rule:nonzero;"/>
            </g>
            <g transform="matrix(13,0,0,13,223.158,61.6209)">
                <path d="M0.285,-0.712L0.285,-0.168C0.285,-0.119 0.27,-0.079 0.239,-0.046C0.224,-0.03 0.206,-0.017 0.185,-0.008C0.164,0.001 0.139,0.006 0.111,0.006C0.078,0.006 0.051,-0.001 0.03,-0.016C0.008,-0.03 -0.009,-0.044 -0.022,-0.058L0.058,-0.122C0.065,-0.115 0.074,-0.109 0.084,-0.104C0.093,-0.098 0.103,-0.096 0.114,-0.096C0.12,-0.096 0.127,-0.097 0.135,-0.1C0.143,-0.102 0.151,-0.106 0.158,-0.113C0.165,-0.119 0.171,-0.128 0.176,-0.139C0.181,-0.15 0.183,-0.164 0.183,-0.182L0.183,-0.712L0.285,-0.712Z" style="fill-rule:nonzero;"/>
            </g>
            <g transform="matrix(13,0,0,13,227.409,61.6209)">
                <path d="M0.235,-0L0.235,-0.052L0.233,-0.052C0.22,-0.033 0.206,-0.019 0.193,-0.009C0.179,0.001 0.16,0.006 0.135,0.006C0.123,0.006 0.111,0.004 0.099,0.001C0.086,-0.003 0.074,-0.01 0.063,-0.02C0.052,-0.029 0.043,-0.043 0.036,-0.061C0.029,-0.078 0.025,-0.101 0.025,-0.129C0.025,-0.158 0.027,-0.183 0.032,-0.205C0.037,-0.226 0.045,-0.244 0.058,-0.259C0.07,-0.273 0.086,-0.284 0.107,-0.291C0.128,-0.298 0.154,-0.301 0.186,-0.301L0.197,-0.301C0.201,-0.301 0.205,-0.301 0.208,-0.3C0.211,-0.299 0.215,-0.299 0.22,-0.299C0.225,-0.299 0.23,-0.299 0.235,-0.298L0.235,-0.351C0.235,-0.368 0.231,-0.383 0.224,-0.394C0.217,-0.405 0.203,-0.411 0.184,-0.411C0.171,-0.411 0.159,-0.407 0.148,-0.398C0.136,-0.389 0.129,-0.377 0.126,-0.36L0.027,-0.36C0.03,-0.405 0.045,-0.442 0.073,-0.47C0.086,-0.483 0.102,-0.494 0.121,-0.502C0.14,-0.509 0.161,-0.513 0.184,-0.513C0.205,-0.513 0.225,-0.51 0.244,-0.503C0.263,-0.496 0.279,-0.486 0.293,-0.473C0.306,-0.46 0.317,-0.443 0.325,-0.423C0.333,-0.403 0.337,-0.38 0.337,-0.353L0.337,-0L0.235,-0ZM0.235,-0.218C0.224,-0.22 0.214,-0.221 0.207,-0.221C0.185,-0.221 0.166,-0.216 0.151,-0.206C0.135,-0.195 0.127,-0.176 0.127,-0.149C0.127,-0.13 0.132,-0.114 0.141,-0.102C0.15,-0.09 0.163,-0.084 0.18,-0.084C0.197,-0.084 0.211,-0.09 0.221,-0.101C0.23,-0.112 0.235,-0.128 0.235,-0.149L0.235,-0.218Z" style="fill-rule:nonzero;"/>
            </g>
            <g transform="matrix(13,0,0,13,232.219,61.6209)">
                <path d="M0.042,0.205L0.042,-0.507L0.144,-0.507L0.144,-0.461C0.157,-0.476 0.17,-0.488 0.183,-0.498C0.196,-0.508 0.216,-0.513 0.241,-0.513C0.283,-0.513 0.313,-0.497 0.33,-0.465C0.336,-0.454 0.34,-0.44 0.343,-0.423C0.346,-0.406 0.347,-0.384 0.347,-0.356L0.347,-0.163C0.347,-0.126 0.346,-0.099 0.344,-0.082C0.34,-0.049 0.325,-0.024 0.298,-0.007C0.285,0.002 0.265,0.006 0.24,0.006C0.22,0.006 0.202,0.002 0.187,-0.008C0.171,-0.017 0.157,-0.029 0.146,-0.046L0.144,-0.046L0.144,0.205L0.042,0.205ZM0.245,-0.342C0.245,-0.363 0.241,-0.379 0.233,-0.392C0.225,-0.405 0.212,-0.411 0.195,-0.411C0.18,-0.411 0.167,-0.405 0.158,-0.394C0.149,-0.382 0.144,-0.367 0.144,-0.348L0.144,-0.151C0.144,-0.135 0.149,-0.122 0.159,-0.112C0.168,-0.101 0.18,-0.096 0.195,-0.096C0.214,-0.096 0.228,-0.102 0.235,-0.114C0.242,-0.126 0.245,-0.14 0.245,-0.156L0.245,-0.342Z" style="fill-rule:nonzero;"/>
            </g>
            <g transform="matrix(13,0,0,13,237.276,61.6209)">
                <path d="M0.235,-0L0.235,-0.052L0.233,-0.052C0.22,-0.033 0.206,-0.019 0.193,-0.009C0.179,0.001 0.16,0.006 0.135,0.006C0.123,0.006 0.111,0.004 0.099,0.001C0.086,-0.003 0.074,-0.01 0.063,-0.02C0.052,-0.029 0.043,-0.043 0.036,-0.061C0.029,-0.078 0.025,-0.101 0.025,-0.129C0.025,-0.158 0.027,-0.183 0.032,-0.205C0.037,-0.226 0.045,-0.244 0.058,-0.259C0.07,-0.273 0.086,-0.284 0.107,-0.291C0.128,-0.298 0.154,-0.301 0.186,-0.301L0.197,-0.301C0.201,-0.301 0.205,-0.301 0.208,-0.3C0.211,-0.299 0.215,-0.299 0.22,-0.299C0.225,-0.299 0.23,-0.299 0.235,-0.298L0.235,-0.351C0.235,-0.368 0.231,-0.383 0.224,-0.394C0.217,-0.405 0.203,-0.411 0.184,-0.411C0.171,-0.411 0.159,-0.407 0.148,-0.398C0.136,-0.389 0.129,-0.377 0.126,-0.36L0.027,-0.36C0.03,-0.405 0.045,-0.442 0.073,-0.47C0.086,-0.483 0.102,-0.494 0.121,-0.502C0.14,-0.509 0.161,-0.513 0.184,-0.513C0.205,-0.513 0.225,-0.51 0.244,-0.503C0.263,-0.496 0.279,-0.486 0.293,-0.473C0.306,-0.46 0.317,-0.443 0.325,-0.423C0.333,-0.403 0.337,-0.38 0.337,-0.353L0.337,-0L0.235,-0ZM0.235,-0.218C0.224,-0.22 0.214,-0.221 0.207,-0.221C0.185,-0.221 0.166,-0.216 0.151,-0.206C0.135,-0.195 0.127,-0.176 0.127,-0.149C0.127,-0.13 0.132,-0.114 0.141,-0.102C0.15,-0.09 0.163,-0.084 0.18,-0.084C0.197,-0.084 0.211,-0.09 0.221,-0.101C0.23,-0.112 0.235,-0.128 0.235,-0.149L0.235,-0.218Z" style="fill-rule:nonzero;"/>
            </g>
            <g transform="matrix(13,0,0,13,242.086,61.6209)">
                <path d="M0.042,-0L0.042,-0.507L0.144,-0.507L0.144,-0.458L0.146,-0.458C0.157,-0.474 0.169,-0.487 0.185,-0.498C0.2,-0.508 0.219,-0.513 0.242,-0.513C0.255,-0.513 0.267,-0.511 0.28,-0.507C0.293,-0.502 0.304,-0.495 0.314,-0.485C0.324,-0.475 0.332,-0.462 0.338,-0.447C0.344,-0.431 0.347,-0.412 0.347,-0.389L0.347,-0L0.245,-0L0.245,-0.351C0.245,-0.37 0.241,-0.384 0.232,-0.395C0.223,-0.406 0.211,-0.411 0.195,-0.411C0.176,-0.411 0.162,-0.405 0.155,-0.393C0.148,-0.381 0.144,-0.364 0.144,-0.341L0.144,-0L0.042,-0Z" style="fill-rule:nonzero;"/>
            </g>
        </g>
    </g>
    <g transform="matrix(1.02339,0,0,1.02339,1.83124,115.341)">
        <path d="M38.838,45.114L27.672,49.913L27.672,49.433C25.519,49.978 23.134,50.292 20.875,50.393C10.374,50.292 2.039,44.859 1.942,38.394L1.942,35.994C5.391,40.952 12.412,44.274 20.875,44.154C23.738,44.274 26.667,43.826 29.128,43.194L30.099,40.794C27.18,41.655 23.994,42.254 20.875,42.234C10.374,42.254 2.039,36.821 1.942,30.236L1.942,28.316C5.391,32.899 12.397,36.222 20.875,35.995C24.689,36.222 28.419,35.429 31.555,34.075L32.041,31.675C28.977,33.273 25.006,34.201 20.875,34.075C10.374,34.201 2.039,28.768 1.942,22.077L1.942,20.157C5.391,24.847 12.412,28.169 20.875,28.316C25.685,28.169 30.245,26.912 33.983,24.956L34.469,22.076C31.076,24.562 26.123,26.164 20.875,26.396C10.374,26.164 2.04,20.73 1.942,13.918C2.039,7.439 10.374,2.006 20.875,1.92C27.135,2.006 32.949,4.176 36.411,7.679L36.748,8.234L39.196,8.244L38.838,7.679C35.395,3.053 28.509,0 20.875,0C9.256,0 0,6.331 0,13.918L0,38.874C0.408,46.28 9.453,52.312 20.875,52.312C28.419,52.312 35.199,49.379 38.838,45.114Z" style="fill:white;fill-rule:nonzero;"/>
    </g>
    <g transform="matrix(1.02339,0,0,1.02339,1.83124,115.341)">
        <path d="M34.296,62L38.216,45.531L26.947,50.375L33.807,21.797L20.577,21.797L24.007,7.75L66.143,7.75L62.713,21.797L48.995,21.797L46.055,29.547L61.243,23.25L34.296,62ZM41.156,42.14L39.196,51.828L55.364,27.61L42.135,33.423L48.015,19.86L61.243,19.86L63.693,9.688L25.477,9.688L23.027,19.86L36.256,19.86L29.886,46.985L41.156,42.142L41.156,42.14ZM95.171,17.027C95.055,18.633 94.462,19.897 93.392,20.821C92.322,21.744 90.912,22.205 89.162,22.205C87.249,22.205 85.742,21.561 84.646,20.272C83.549,18.984 83,17.215 83,14.966L83,14.053C83,12.618 83.253,11.353 83.759,10.259C84.265,9.166 84.988,8.326 85.927,7.742C86.867,7.157 87.959,6.865 89.204,6.865C90.926,6.865 92.314,7.327 93.367,8.25C94.419,9.172 95.027,10.468 95.192,12.136L92.116,12.136C92.041,11.172 91.772,10.473 91.311,10.039C90.849,9.605 90.147,9.388 89.204,9.388C88.178,9.388 87.411,9.755 86.902,10.49C86.392,11.225 86.131,12.365 86.117,13.91L86.117,15.038C86.117,16.651 86.362,17.83 86.85,18.575C87.34,19.32 88.11,19.693 89.163,19.693C90.113,19.693 90.822,19.476 91.29,19.042C91.759,18.608 92.027,17.936 92.095,17.027L95.171,17.027ZM111.055,14.874C111.055,16.344 110.795,17.632 110.275,18.739C109.756,19.847 109.013,20.701 108.045,21.303C107.078,21.904 105.969,22.205 104.718,22.205C103.481,22.205 102.377,21.908 101.406,21.313C100.436,20.718 99.683,19.869 99.15,18.765C98.617,17.661 98.347,16.391 98.34,14.955L98.34,14.217C98.34,12.747 98.605,11.454 99.135,10.337C99.665,9.219 100.413,8.361 101.381,7.762C102.348,7.164 103.454,6.865 104.698,6.865C105.942,6.865 107.048,7.165 108.015,7.762C108.982,8.361 109.731,9.219 110.26,10.336C110.79,11.454 111.055,12.744 111.055,14.207L111.055,14.874ZM107.938,14.197C107.938,12.631 107.658,11.442 107.098,10.628C106.537,9.815 105.737,9.408 104.698,9.408C103.665,9.408 102.869,9.81 102.308,10.613C101.748,11.416 101.464,12.593 101.458,14.146L101.458,14.874C101.458,16.398 101.738,17.581 102.298,18.421C102.858,19.262 103.665,19.683 104.718,19.683C105.75,19.683 106.543,19.278 107.098,18.468C107.651,17.658 107.931,16.477 107.938,14.925L107.938,14.197ZM118.16,22L115.084,22L115.084,7.07L118.16,7.07L118.16,22ZM134.752,22L131.675,22L125.687,12.177L125.687,22L122.611,22L122.611,7.07L125.687,7.07L131.686,16.914L131.686,7.07L134.752,7.07L134.752,22ZM149.98,9.562L145.407,9.562L145.407,22L142.331,22L142.331,9.562L137.819,9.562L137.819,7.07L149.98,7.07L149.98,9.562ZM162.316,15.53L156.41,15.53L156.41,19.529L163.341,19.529L163.341,22L153.333,22L153.333,7.07L163.321,7.07L163.321,9.562L156.41,9.562L156.41,13.12L162.316,13.12L162.316,15.53ZM169.822,19.529L176.354,19.529L176.354,22L166.746,22L166.746,7.07L169.822,7.07L169.822,19.53L169.822,19.529ZM188.7,15.529L182.794,15.529L182.794,19.529L189.725,19.529L189.725,22L179.718,22L179.718,7.07L189.705,7.07L189.705,9.562L182.794,9.562L182.794,13.12L188.7,13.12L188.7,15.53L188.7,15.529ZM204.943,20.113C204.389,20.776 203.606,21.291 202.594,21.656C201.583,22.022 200.462,22.206 199.231,22.206C197.939,22.206 196.806,21.923 195.832,21.359C194.858,20.795 194.106,19.977 193.576,18.903C193.046,17.83 192.775,16.569 192.761,15.12L192.761,14.104C192.761,12.614 193.012,11.324 193.515,10.234C194.017,9.144 194.742,8.309 195.688,7.732C196.635,7.154 197.744,6.865 199.016,6.865C200.786,6.865 202.171,7.287 203.169,8.132C204.167,8.976 204.758,10.205 204.943,11.818L201.948,11.818C201.812,10.963 201.509,10.338 201.041,9.941C200.573,9.545 199.928,9.347 199.108,9.347C198.062,9.347 197.266,9.74 196.718,10.526C196.172,11.312 195.895,12.481 195.888,14.033L195.888,14.986C195.888,16.552 196.186,17.734 196.78,18.534C197.375,19.334 198.247,19.734 199.395,19.734C200.55,19.734 201.375,19.488 201.866,18.996L201.866,16.422L199.067,16.422L199.067,14.156L204.943,14.156L204.943,20.113ZM214.561,16.535L212.111,16.535L212.111,22L209.034,22L209.034,7.07L214.582,7.07C216.345,7.07 217.706,7.463 218.662,8.25C219.62,9.036 220.098,10.146 220.098,11.582C220.098,12.601 219.878,13.45 219.437,14.13C218.996,14.81 218.327,15.352 217.432,15.755L220.662,21.856L220.662,22L217.36,22L214.561,16.535ZM212.11,14.043L214.591,14.043C215.364,14.043 215.962,13.846 216.386,13.453C216.81,13.06 217.022,12.519 217.022,11.828C217.022,11.124 216.822,10.57 216.422,10.167C216.022,9.764 215.409,9.562 214.582,9.562L212.11,9.562L212.11,14.043ZM232.465,18.923L227.071,18.923L226.046,22L222.775,22L228.333,7.07L231.183,7.07L236.771,22L233.501,22L232.465,18.924L232.465,18.923ZM227.902,16.433L231.634,16.433L229.758,10.843L227.902,16.433ZM242.842,16.74L242.842,22L239.766,22L239.766,7.07L245.59,7.07C246.711,7.07 247.697,7.275 248.548,7.686C249.4,8.096 250.054,8.678 250.512,9.434C250.97,10.189 251.199,11.049 251.199,12.013C251.199,13.476 250.699,14.629 249.697,15.473C248.695,16.318 247.309,16.74 245.539,16.74L242.842,16.74ZM242.842,14.248L245.59,14.248C246.404,14.248 247.024,14.057 247.451,13.674C247.879,13.291 248.092,12.744 248.092,12.034C248.092,11.302 247.877,10.71 247.446,10.259C247.016,9.809 246.421,9.576 245.662,9.562L242.842,9.562L242.842,14.248ZM267.062,22L263.986,22L263.986,15.602L257.988,15.602L257.988,22L254.911,22L254.911,7.07L257.988,7.07L257.988,13.12L263.986,13.12L263.986,7.07L267.062,7.07L267.062,22Z" style="fill:rgb(250,191,44);fill-rule:nonzero;"/>
    </g>
    <g transform="matrix(1.02339,0,0,1.02339,1.83124,115.341)">
        <path d="M83.18,35.235L93.74,35.235L93.74,44.895L83,44.895L83,43.455L92.18,43.455L92.18,36.675L83.18,36.675L83.18,35.235ZM107.525,33.21L108.68,34.23C107.54,35.475 106.16,36.675 104.57,37.815L104.57,45.765L103.01,45.765L103.01,38.88C101.392,39.91 99.691,40.803 97.925,41.55L97.115,40.245C98.945,39.465 100.85,38.43 102.8,37.11C104.735,35.79 106.31,34.485 107.525,33.21ZM113.27,33.99C114.695,34.71 116.255,35.7 117.965,36.945L116.99,38.13C115.31,36.93 113.81,36 112.505,35.31L113.27,33.99ZM123.35,36.165L124.79,36.735C123.755,39.09 122.39,41.025 120.68,42.555C118.835,44.16 116.615,45.285 114.005,45.915L113.285,44.535C115.539,44.016 117.637,42.966 119.405,41.475C121.115,40.005 122.42,38.235 123.35,36.165ZM128.45,34.185L138.035,34.185L138.035,35.625L128.45,35.625L128.45,34.185ZM127.13,37.725L139.73,37.725L139.73,39.15L134.36,39.15C134.27,40.68 133.94,41.91 133.4,42.87C132.725,44.025 131.54,45.075 129.845,46.005L128.825,44.85C130.28,44.07 131.3,43.245 131.87,42.36C132.395,41.535 132.71,40.47 132.8,39.15L127.13,39.15L127.13,37.725ZM144.89,33.645L146.48,33.645L146.48,43.98C147.8,43.53 149.165,42.81 150.56,41.82C151.94,40.83 153.065,39.765 153.905,38.655L155.135,39.555C153.931,41.072 152.499,42.392 150.89,43.47C149.274,44.504 147.508,45.283 145.655,45.78L144.89,45.135L144.89,33.645ZM169.295,32.235C169.985,32.88 170.54,33.555 170.945,34.245L170.12,34.845C169.683,34.106 169.148,33.43 168.53,32.835L169.295,32.235ZM167.075,32.28C167.735,32.88 168.29,33.57 168.71,34.32L167.9,34.89C167.456,34.147 166.917,33.466 166.295,32.865L167.075,32.28ZM162.125,33.135L163.565,33.6C163.383,34.102 163.183,34.597 162.965,35.085L167.78,35.085L168.695,35.565C168.245,38.085 167.315,40.2 165.905,41.94C164.465,43.65 162.575,44.97 160.22,45.9L159.395,44.58C161.33,43.86 162.92,42.87 164.15,41.61C165.53,40.23 166.445,38.535 166.925,36.54L162.17,36.54C161.975,36.855 161.765,37.155 161.555,37.455C160.76,38.535 159.755,39.54 158.525,40.485L157.445,39.465C158.57,38.58 159.53,37.62 160.325,36.57C161.099,35.525 161.706,34.366 162.125,33.135ZM174.455,34.095L182.825,34.095L182.825,35.535L174.455,35.535L174.455,34.095ZM173.195,37.275L183.5,37.275L184.325,37.905C183.65,40.05 182.75,41.715 181.625,42.9C180.305,44.25 178.46,45.225 176.105,45.825L175.325,44.46C177.275,43.98 178.835,43.245 179.99,42.27C181.04,41.37 181.865,40.185 182.435,38.715L173.195,38.715L173.195,37.275ZM187.385,34.74L197.99,34.74L198.785,35.355C198.185,37.815 197.165,39.93 195.725,41.7C194.255,43.5 192.365,44.91 190.04,45.93L189.035,44.73C190.955,43.86 192.575,42.78 193.865,41.475C195.305,39.99 196.34,38.22 196.97,36.18L187.385,36.18L187.385,34.74ZM213.44,32.43C214.145,33.075 214.7,33.75 215.105,34.44L214.28,35.04C213.84,34.299 213.305,33.618 212.69,33.015L213.44,32.43ZM211.955,33.435C212.615,34.05 213.17,34.725 213.59,35.475L212.78,36.06C212.344,35.312 211.804,34.63 211.175,34.035L211.955,33.435ZM204.32,33.705C206.15,34.2 207.725,34.86 209.045,35.685L208.19,36.9C207.02,36.18 205.52,35.565 203.66,35.085L204.32,33.705ZM213.245,36.525L214.7,37.08C213.778,39.182 212.394,41.048 210.65,42.54C208.73,44.19 206.51,45.3 203.99,45.9L203.27,44.475C205.541,43.957 207.662,42.92 209.465,41.445C211.175,40.035 212.435,38.4 213.245,36.525ZM203,37.05C204.56,37.41 206.135,38.04 207.71,38.925L206.9,40.23C205.595,39.48 204.08,38.865 202.355,38.415L203,37.05ZM227.54,38.1L228.5,38.82C227.585,40.53 226.55,41.85 225.395,42.78L224.33,41.76C225.14,41.07 225.815,40.38 226.325,39.69L223.025,40.275L224.03,45.42L222.545,45.675L221.525,40.53L218.825,41.01L218.54,39.63L221.255,39.165L220.73,36.51L222.23,36.225L222.755,38.91L227.54,38.1ZM243.89,32.715C244.34,32.715 244.715,32.865 245.03,33.195C245.345,33.495 245.51,33.87 245.51,34.335C245.51,34.785 245.345,35.16 245.03,35.475C244.715,35.775 244.34,35.94 243.89,35.94C243.44,35.94 243.05,35.775 242.75,35.475C242.42,35.16 242.27,34.785 242.27,34.335C242.27,33.87 242.42,33.495 242.75,33.195C243.05,32.865 243.44,32.715 243.89,32.715ZM240.68,34.425C241.64,35.835 242.57,37.515 243.44,39.435C244.34,41.43 245.015,43.32 245.45,45.12L243.875,45.42C243.455,43.71 242.825,41.88 241.97,39.96C241.13,38.07 240.245,36.465 239.315,35.115L240.68,34.425ZM235.22,34.77L236.81,34.965C236.615,36.975 236.21,38.865 235.58,40.605C234.951,42.358 234.061,44.007 232.94,45.495L231.47,44.76C232.57,43.375 233.446,41.826 234.065,40.17C234.695,38.49 235.07,36.69 235.22,34.77ZM243.89,33.555C243.68,33.555 243.5,33.63 243.35,33.78C243.193,33.921 243.106,34.124 243.11,34.335C243.11,34.545 243.185,34.725 243.35,34.875C243.5,35.025 243.68,35.1 243.89,35.1C244.1,35.1 244.28,35.025 244.43,34.875C244.58,34.725 244.67,34.545 244.67,34.335C244.67,34.125 244.58,33.93 244.43,33.78C244.289,33.634 244.093,33.552 243.89,33.555ZM248.27,33.99C249.695,34.71 251.255,35.7 252.965,36.945L251.99,38.13C250.31,36.93 248.81,36 247.505,35.31L248.27,33.99ZM258.35,36.165L259.79,36.735C258.755,39.09 257.39,41.025 255.68,42.555C253.835,44.16 251.615,45.285 249.005,45.915L248.285,44.535C250.539,44.016 252.637,42.966 254.405,41.475C256.115,40.005 257.42,38.235 258.35,36.165Z" style="fill:white;fill-rule:nonzero;"/>
    </g>
</svg>
