<svg id="Logo" xmlns="http://www.w3.org/2000/svg" width="4526" height="1170" viewBox="0 0 4526 1170">
  <defs>
    <style>
      .cls-1, .cls-2 {
        fill: #fff;
        fill-rule: evenodd;
      }
      .cls-1 {
        opacity: 0.75;
      }
      #D,#E,#Line,#dot{
        fill: #66DBD6;
      }
    </style>
  </defs>
  <path id="a_web3.0_fund_path" data-name="a web3.0 fund path" class="cls-1" d="M1671.82,1880.9l-66.44-173.07h-37.4l-65.74,173.07h33.91l16.73-45.54h67.83l16.96,45.54h34.15Zm-85.26-138.69,24.63,65.74h-49.02Zm430.49,138.69h33.22l50.64-173.07h-32.52l-35.08,133.11h-0.23l-40.65-133.11h-30.67l-39.96,132.88h-0.46l-36.24-132.88h-33.22l51.57,173.07h34.15l39.49-128.7h0.24Zm173.09,0h104.3v-29.51h-71.78v-44.6h65.74v-27.41h-65.74v-42.05h71.78v-29.5h-104.3V1880.9Zm297.36-89.21c14.87-5.81,26.02-18.12,26.02-38.1,0-25.79-20.21-45.76-58.77-45.76h-60.87V1880.9h63.65c41.12,0,60.87-22.31,60.87-48.32C2518.4,1813.06,2507.71,1798.43,2487.5,1791.69Zm-61.33-55.99h28.58c17.65,0,27.64,8.83,27.64,22.3,0,12.78-9.99,22.77-28.57,22.77h-27.65V1735.7Zm29.27,117.09h-29.27V1804.7h30.2c17.89,0,29.97,9.06,29.97,23.93C2486.34,1842.57,2475.65,1852.79,2455.44,1852.79Zm155.89-133.58v30.66c9.3-9.75,23.7-16.72,40.66-16.72,19.51,0,29.97,10.22,29.97,23,0,13.7-10.92,23.92-34.62,23.92h-17.65v25.33h21.83c22.77,0,34.85,10.22,34.85,24.62,0,14.87-13.71,25.32-33.92,25.32a60.628,60.628,0,0,1-45.07-19.98v32.76c13.48,10.92,30.44,16.49,49.72,16.49,40.42,0,62.26-24.85,62.26-51.11,0-22.06-14.17-36.47-29.97-42.51v-0.69c15.1-7.44,24.39-21.61,24.39-39.03,0-25.09-20.21-47.39-56.45-47.39C2638.28,1703.88,2622.02,1710.15,2611.33,1719.21Zm215.13,163.08a18.815,18.815,0,1,0,0-37.63A18.815,18.815,0,0,0,2826.46,1882.29Zm172.15-178.41c-38.1,0-68.76,34.61-68.76,90.6,0,55.75,30.66,90.37,68.76,90.37,38.33,0,69.23-34.62,69.23-90.37C3067.84,1738.49,3036.94,1703.88,2998.61,1703.88Zm0,30.2c20.45,0,37.17,22.07,37.17,60.4,0,37.86-16.72,59.93-37.17,59.93-20.21,0-36.24-21.83-36.24-59.93C2962.37,1756.15,2978.4,1734.08,2998.61,1734.08Zm292.03,146.82h32.52v-66.21h65.98v-28.34h-65.98v-48.79h69.93v-29.73H3290.64V1880.9Zm266.47,3.95c43.44,0,70.62-29.51,70.62-71.32v-105.7h-32.52v105.93c0,25.79-14.87,40.89-38.1,40.89-22.77,0-36.71-15.1-36.71-40.66V1707.83h-32.52v105.7C3487.88,1855.34,3514.13,1884.85,3557.11,1884.85Zm319.9-177.02h-31.36v118.94h-0.24l-82-118.94h-31.83V1880.9h31.36V1759.63h0.24l83.16,121.27h30.67V1707.83Zm154.03,0h-48.09V1880.9h48.09c55.52,0,93.62-34.39,93.62-86.66C4124.66,1742.21,4087.26,1707.83,4031.04,1707.83Zm-15.56,29.73h17.19c34.61,0,58.77,20.44,58.77,56.92,0,36-24.16,56.45-59.01,56.45h-16.95V1737.56Z" transform="translate(-217.517 -715.232)"/>
  <path id="capital" class="cls-2" d="M1840.82,1480.15q50.61-23,81.9-59.81l-68.09-74.54q-16.56,19.32-44.17,34.96-27.615,15.66-71.78,15.65-62.6,0-101.23-39.57-38.64-39.555-38.64-104.91,0-60.735,30.36-98t87.43-37.27q47.835,0,74.99,28.53,27.135,28.53,27.15,70.86v11.04h93.86V1024.64h-86.5v54.29q-17.49-29.43-52.91-49.23-35.445-19.785-85.12-19.78-65.355,0-112.73,30.82-47.4,30.855-73.62,85.58-26.22,54.765-26.22,126.54,0,76.38,30.36,132.51,30.375,56.145,87.42,86.96t136.2,30.83Q1790.215,1503.16,1840.82,1480.15Zm466.56-1.84q42.315-24.84,63.5-68.1v78.22h171.16v-98.46h-57.98V1123.1h57.98v-98.46H2364.43v76.38q-19.32-41.415-60.27-66.26t-97.09-24.84q-65.34,0-115.02,31.28-49.7,31.3-77.3,86.5-27.615,55.215-27.61,127.91,0,74.535,27.61,130.22t77.3,86.5q49.695,30.81,115.02,30.83Q2265.045,1503.16,2307.38,1478.31Zm-161.5-120.55q-35.445-37.71-35.43-101.23,0-63.495,34.97-101.22t94.78-37.73q59.805,0,94.33,37.73,34.5,37.74,34.5,101.22,0,63.51-34.5,101.23-34.515,37.74-94.33,37.73Q2181.31,1395.49,2145.88,1357.76Zm630.48,223.99,1.25-158.65q18.39,33.12,58.43,56.59t99.84,23.47q66.255,0,115.49-31.29,49.215-31.275,76.38-87.42,27.135-56.115,27.15-129.76,0-72.675-28.07-127.9t-77.76-86.05q-49.7-30.81-115.03-30.82-57.06,0-100.3,23.92-43.275,23.94-62.58,64.42v-73.62H2600v98.46h57.98l-0.82,458.65h119.2Zm31.15-223.99q-34.5-37.71-34.51-101.23,0-63.495,34.51-101.22t94.32-37.73q59.82,0,94.79,37.73t34.97,101.22q0,63.51-34.97,101.23-34.98,37.74-94.79,37.73T2807.51,1357.76Zm576.06-442.626q19.785-21.164,19.79-52.455,0-31.273-19.79-52.449t-59.35-21.172q-39.585,0-59.36,21.172-19.8,21.173-19.78,52.449,0,31.3,19.78,52.455,19.785,21.173,59.36,21.166Q3363.775,936.3,3383.57,915.134Zm71.32,573.3v-98.46h-57.97V1024.64H3219.31v98.46h57.98v266.87h-57.98v98.46h235.58Zm339.56-100.76a104.187,104.187,0,0,1-32.21,5.06q-71.775,0-71.78-82.82V1123.1H3819.3v-98.46H3689.54V884.767l-118.71,28.524V1024.64h-77.3v98.46h77.3v195.09q0,89.265,44.18,133.89,44.16,44.64,126.07,44.64,38.64,0,69.01-10.59t46.93-24.38l-36.8-86.51Q3810.08,1382.62,3794.45,1387.67Zm420.54,90.64q42.315-24.84,63.5-68.1v78.22h171.16v-98.46h-57.97V1123.1h57.97v-98.46h-177.6v76.38q-19.335-41.415-60.28-66.26t-97.08-24.84q-65.355,0-115.03,31.28-49.695,31.3-77.3,86.5-27.6,55.215-27.61,127.91,0,74.535,27.61,130.22t77.3,86.5q49.7,30.81,115.03,30.83Q4172.665,1503.16,4214.99,1478.31Zm-161.5-120.55q-35.43-37.71-35.42-101.23,0-63.495,34.96-101.22t94.79-37.73q59.805,0,94.32,37.73,34.5,37.74,34.51,101.22,0,63.51-34.51,101.23-34.515,37.74-94.32,37.73Q4088.915,1395.49,4053.49,1357.76Zm689.7,130.67v-98.46h-57.05V761.457H4506.69V859.92h59.82v530.05h-57.97v98.46h234.65Z" transform="translate(-217.517 -715.232)"/>
  <path id="dot" data-name="." class="cls-2" d="M1411.07,1480.61q20.235-21.615,20.25-53.83,0-31.275-20.25-53.37t-57.05-22.09q-36.825,0-57.06,22.09t-20.24,53.37q0,32.205,20.24,53.83t57.06,21.63Q1390.815,1502.24,1411.07,1480.61Z" transform="translate(-217.517 -715.232)"/>
  <path id="E" class="cls-2" d="M1124.56,1482.91q50.6-20.235,81.9-54.3l-65.34-75.45q-18.42,21.18-48.77,34.51-30.375,13.35-70.86,13.34-65.351,0-103.064-32.21-37.745-32.19-44.171-84.66l159.975,13.37c28.98-9.25,130.48-33.95,146.71-45.85,30.78-12.24,27.51-48.87,27.51-55.01-4.51-47.04-19.79-85.51-59.05-126s-93.26-60.73-161.958-60.73q-71.778,0-125.611,29.9Q808,1069.745,778.55,1124.48q-29.461,54.765-29.447,131.13,0,72.705,31.288,128.84t89.723,87.42q58.425,31.26,140.336,31.29Q1073.945,1503.16,1124.56,1482.91Zm-61.66-349.22q25.755,28.08,30.37,73.16s-160.944,53.98-224.08,53.98c0.782-24.98,5.065-53.98,5.065-53.98q5.522-45.09,36.808-73.16t78.22-28.07Q1037.113,1105.62,1062.9,1133.69Z" transform="translate(-217.517 -715.232)"/>
  <path id="D" class="cls-2" d="M713.316,1059.11l1.448-343.5-194,50.085,0.332,86.026h73.221V1088.17c-13.5-26.99-33.089-47.54-60.38-63.5s-59.671-23.92-97.082-23.92q-65.352,0-114.569,31.28-49.238,31.305-76.839,86.5-27.607,55.215-27.608,127.91,0,74.55,27.608,130.22,27.609,55.695,76.839,86.5t114.569,30.83q59.805,0,101.684-24.85,41.862-24.84,63.035-67.18s-23.093-53.25-34.964-40.27c-36.374,14.02-55.838,24.63-95.708,24.63q-58.9,0-94.323-37.73t-35.429-101.23q0-63.48,34.969-101.22t94.783-37.73q59.805,0,94.323,37.73c19.024,18.73,28.585,41.83,28.892,68.84,0.146,10.3.2,45.56,0.2,45.56S707.448,1273.04,713.316,1059.11Z" transform="translate(-217.517 -715.232)"/>
  <path id="Line" class="cls-2" d="M477.972,1387.67l620.448-218.53s109.77,6.98,108.48,12.24,12.29,67.57-42.79,82.52c-75.16,28.33-595.265,208.89-643.345,226.16-87.394,21.78-146.7-9.17-146.7-9.17Z" transform="translate(-217.517 -715.232)"/>
</svg>
