<?xml version="1.0" encoding="iso-8859-1"?>
<!-- Uploaded to: SVG Repo, www.svgrepo.com, Generator: SVG Repo Mixer Tools -->
<!DOCTYPE svg PUBLIC "-//W3C//DTD SVG 1.1//EN" "http://www.w3.org/Graphics/SVG/1.1/DTD/svg11.dtd">
<svg fill="#000000" height="800px" width="800px" version="1.1" id="Capa_1" xmlns="http://www.w3.org/2000/svg" xmlns:xlink="http://www.w3.org/1999/xlink" 
	 viewBox="0 0 465 465" xml:space="preserve">
<g>
	<path d="M300.867,395.979H189.566c-4.142,0-7.5,3.358-7.5,7.5s3.358,7.5,7.5,7.5h111.301c4.142,0,7.5-3.358,7.5-7.5
		S305.009,395.979,300.867,395.979z"/>
	<path d="M300.867,365.979H189.566c-4.142,0-7.5,3.358-7.5,7.5s3.358,7.5,7.5,7.5h111.301c4.142,0,7.5-3.358,7.5-7.5
		S305.009,365.979,300.867,365.979z"/>
	<path d="M300.867,335.979H189.566c-4.142,0-7.5,3.358-7.5,7.5s3.358,7.5,7.5,7.5h111.301c4.142,0,7.5-3.358,7.5-7.5
		S305.009,335.979,300.867,335.979z"/>
	<path d="M300.867,255.26H189.566c-4.142,0-7.5,3.358-7.5,7.5v37.72c0,4.142,3.358,7.5,7.5,7.5h20c4.142,0,7.5-3.358,7.5-7.5
		s-3.358-7.5-7.5-7.5h-12.5v-22.72h96.301v22.72h-53.801c-4.142,0-7.5,3.358-7.5,7.5s3.358,7.5,7.5,7.5h61.301
		c4.142,0,7.5-3.358,7.5-7.5v-37.72C308.367,258.618,305.009,255.26,300.867,255.26z"/>
	<path d="M380.857,255.26c-22.667,0-41.107,18.441-41.107,41.107s18.441,41.107,41.107,41.107s41.107-18.441,41.107-41.107
		S403.523,255.26,380.857,255.26z M380.857,322.475c-14.396,0-26.107-11.712-26.107-26.107s11.712-26.107,26.107-26.107
		s26.107,11.712,26.107,26.107S395.252,322.475,380.857,322.475z"/>
	<path d="M439.5,208.728H425v-93.119c0-4.142-3.358-7.5-7.5-7.5h-24.58v-93.12c0-4.142-3.358-7.5-7.5-7.5H216.313
		c-4.142,0-7.5,3.358-7.5,7.5v93.12h-24.58c-4.142,0-7.5,3.358-7.5,7.5v93.119h-26.246c-0.772-42.195-2.084-72.22-2.103-72.639
		c-0.002-0.042-0.004-0.084-0.007-0.127c-0.475-7.755-5.823-15.108-12.921-18.282c-3.269-3.166-11.304-5.129-39.938-5.129
		c-28.634,0-36.669,1.963-39.938,5.129c-7.097,3.174-12.445,10.527-12.921,18.282c-0.002,0.042-0.005,0.085-0.007,0.127
		c-0.018,0.419-1.331,30.442-2.103,72.639H25.5c-14.061,0-25.5,11.439-25.5,25.5v197.784c0,14.061,11.439,25.5,25.5,25.5h414
		c14.061,0,25.5-11.439,25.5-25.5V234.228C465,220.167,453.561,208.728,439.5,208.728z M410,123.108v85.619h-17.08v-85.619H410z
		 M223.813,22.488H377.92v186.239H223.813V22.488z M191.733,123.108h17.08v85.619h-17.08V123.108z M57.635,136.831
		c0.171-2.275,2.553-5.14,4.754-5.701c1.303-0.332,2.471-1.002,3.403-1.917c2.48-0.566,9.847-1.662,29.727-1.662
		s27.247,1.096,29.727,1.662c0.932,0.916,2.101,1.585,3.403,1.917c2.201,0.561,4.583,3.426,4.753,5.702
		c0.108,2.492,2.595,60.495,2.635,128.195c-0.04,67.708-2.526,125.712-2.635,128.204c-0.17,2.275-2.553,5.141-4.754,5.702
		c-1.303,0.332-2.471,1.002-3.403,1.917c-2.48,0.566-9.847,1.662-29.727,1.662s-27.247-1.096-29.727-1.662
		c-0.932-0.916-2.1-1.585-3.403-1.917c-2.201-0.561-4.583-3.426-4.754-5.701C57.526,390.74,55.04,332.754,55,265.035
		C55.04,197.327,57.526,139.323,57.635,136.831z M450,432.012c0,5.79-4.71,10.5-10.5,10.5h-414c-5.79,0-10.5-4.71-10.5-10.5V234.228
		c0-5.79,4.71-10.5,10.5-10.5h14.808c-0.182,13.049-0.3,26.96-0.308,41.308c0.041,69.212,2.627,128.349,2.653,128.938
		c0.002,0.042,0.004,0.085,0.007,0.127c0.476,7.755,5.824,15.107,12.921,18.282c3.269,3.166,11.304,5.129,39.938,5.129
		c28.636,0,36.67-1.963,39.938-5.129c7.097-3.175,12.445-10.527,12.92-18.282c0.003-0.042,0.005-0.084,0.007-0.127
		c0.026-0.589,2.612-59.727,2.653-128.947c-0.008-14.344-0.127-28.252-0.308-41.299H439.5c5.79,0,10.5,4.71,10.5,10.5V432.012z"/>
	<path d="M262.174,173.418h38.692c4.142,0,7.5-3.358,7.5-7.5s-3.358-7.5-7.5-7.5h-38.692c-4.142,0-7.5,3.358-7.5,7.5
		S258.032,173.418,262.174,173.418z"/>
	<path d="M262.174,123.108h77.384c4.142,0,7.5-3.358,7.5-7.5s-3.358-7.5-7.5-7.5h-77.384c-4.142,0-7.5,3.358-7.5,7.5
		S258.032,123.108,262.174,123.108z"/>
	<path d="M262.174,72.799h77.384c4.142,0,7.5-3.358,7.5-7.5s-3.358-7.5-7.5-7.5h-77.384c-4.142,0-7.5,3.358-7.5,7.5
		S258.032,72.799,262.174,72.799z"/>
</g>
</svg>