<?xml version="1.0" encoding="UTF-8" standalone="no"?>
<!DOCTYPE svg PUBLIC "-//W3C//DTD SVG 1.1//EN" "http://www.w3.org/Graphics/SVG/1.1/DTD/svg11.dtd">
<svg width="100%" height="100%" viewBox="0 0 307 277" version="1.1" xmlns="http://www.w3.org/2000/svg" xmlns:xlink="http://www.w3.org/1999/xlink" xml:space="preserve" xmlns:serif="http://www.serif.com/" style="fill-rule:evenodd;clip-rule:evenodd;stroke-miterlimit:10;">
    <g id="レイヤー-1" serif:id="レイヤー 1" transform="matrix(1,0,0,1,-414.863,-160.098)">
        <g transform="matrix(1,0,0,1,640.34,423.444)">
            <path d="M0,-248.435L-142.458,-248.435L-213.687,-124.218L-142.458,0L0,0L71.229,-124.218L0,-248.435Z" style="fill:none;fill-rule:nonzero;stroke:rgb(0,255,255);stroke-width:4px;"/>
        </g>
        <g transform="matrix(1,0,0,1,640.34,424.444)">
            <path d="M0,-248.435L-142.458,-248.435L-213.687,-124.218L-142.458,0L0,0L71.229,-124.218L0,-248.435Z" style="fill:none;fill-rule:nonzero;stroke:white;stroke-width:2px;"/>
        </g>
        <g transform="matrix(1,0,0,1,600.927,388.832)">
            <path d="M0,34.402L38.889,34.402L58.615,0" style="fill:none;fill-rule:nonzero;stroke:rgb(0,255,255);stroke-width:9px;"/>
        </g>
        <g transform="matrix(1,0,0,1,600.927,388.832)">
            <path d="M0,34.402L38.889,34.402L58.615,0" style="fill:none;fill-rule:nonzero;stroke:white;stroke-width:6px;"/>
        </g>
        <g transform="matrix(1,0,0,1,659.785,176.01)">
            <path d="M0,33.678L-19.444,0L-59.1,0.117" style="fill:none;fill-rule:nonzero;stroke:rgb(0,255,255);stroke-width:9px;"/>
        </g>
        <g transform="matrix(1,0,0,1,659.785,176.01)">
            <path d="M0,33.678L-19.444,0L-59.1,0.117" style="fill:none;fill-rule:nonzero;stroke:white;stroke-width:6px;"/>
        </g>
        <g transform="matrix(1,0,0,1,446.006,266.245)">
            <path d="M0,67.963L-19.444,34.285L0.485,0" style="fill:none;fill-rule:nonzero;stroke:rgb(0,255,255);stroke-width:9px;"/>
        </g>
        <g transform="matrix(1,0,0,1,446.006,266.245)">
            <path d="M0,67.963L-19.444,34.285L0.485,0" style="fill:none;fill-rule:nonzero;stroke:white;stroke-width:6px;"/>
        </g>
    </g>
</svg>
