<?xml version="1.0" encoding="UTF-8" standalone="no"?><!DOCTYPE svg PUBLIC "-//W3C//DTD SVG 1.1//EN" "http://www.w3.org/Graphics/SVG/1.1/DTD/svg11.dtd"><svg width="100%" height="100%" viewBox="0 0 1842 396" version="1.1" xmlns="http://www.w3.org/2000/svg" xmlns:xlink="http://www.w3.org/1999/xlink" xml:space="preserve" xmlns:serif="http://www.serif.com/" style="fill-rule:evenodd;clip-rule:evenodd;stroke-linejoin:round;stroke-miterlimit:2;"><g><path d="M182.355,91.539c-0.621,4.048 -1.062,8.441 -1.323,13.18c-0.261,4.738 -0.324,9.2 -0.188,13.383c0.136,7.194 0.282,15.085 0.437,23.674c0.155,8.589 0.354,17.683 0.596,27.282c0.242,9.598 0.475,19.403 0.698,29.414c0.223,10.011 0.422,20.032 0.596,30.062c0.174,10.03 0.339,19.873 0.494,29.529c0.155,9.656 0.301,18.908 0.437,27.757c0.136,8.389 -2.223,14.899 -7.077,19.532c-4.855,4.633 -12.262,6.949 -22.221,6.949c-7.847,0 -15.497,-0.14 -22.95,-0.421c-7.452,-0.28 -14.917,-0.662 -22.394,-1.147l-2.968,-34.014c5.942,0.95 12.125,1.687 18.548,2.209c6.424,0.523 11.861,0.784 16.311,0.784c3.231,0 5.543,-0.871 6.937,-2.613c1.393,-1.742 2.09,-4.472 2.09,-8.19c0,-6.037 -0.01,-12.909 -0.031,-20.616c-0.02,-7.707 -0.074,-15.989 -0.161,-24.844c-0.087,-8.856 -0.184,-17.926 -0.29,-27.21c-0.106,-9.284 -0.27,-18.55 -0.492,-27.798c-0.221,-9.247 -0.444,-18.151 -0.667,-26.71c-0.223,-8.559 -0.558,-16.435 -1.005,-23.629c-0.31,-5.713 -0.673,-10.716 -1.09,-15.008c-0.416,-4.293 -0.935,-8.144 -1.555,-11.555l37.268,0Zm-149.166,43.535c3.735,0.485 8.379,0.916 13.933,1.295c5.554,0.378 10.548,0.567 14.982,0.567l151.586,0c4.244,0 9.059,-0.233 14.445,-0.698c5.387,-0.465 9.6,-0.921 12.641,-1.368l-0,34.537c-4.129,-0.174 -8.504,-0.315 -13.123,-0.421c-4.619,-0.106 -8.681,-0.159 -12.187,-0.159l-152.546,-0c-4.687,-0 -9.662,0.078 -14.925,0.233c-5.262,0.155 -10.198,0.407 -14.806,0.755l0,-34.741Zm-13.934,124.367c13.663,-6.426 26.654,-13.663 38.972,-21.71c12.318,-8.048 23.644,-16.405 33.977,-25.071c10.334,-8.666 19.429,-17.329 27.286,-25.987c7.856,-8.658 14.155,-16.809 18.897,-24.452l16.964,0.147l0.261,27.902c-5.207,7.937 -11.89,16.273 -20.048,25.009c-8.159,8.736 -17.226,17.447 -27.2,26.132c-9.974,8.686 -20.533,16.902 -31.677,24.648c-11.143,7.747 -22.305,14.599 -33.487,20.557l-23.945,-27.175Z" style="fill:#7adbe8;fill-rule:nonzero;"/><path d="M497.225,127.043c-1.2,2.442 -2.271,5.356 -3.211,8.742c-0.94,3.386 -1.789,6.501 -2.546,9.345c-1.491,6.367 -3.345,13.531 -5.56,21.494c-2.216,7.963 -4.911,16.226 -8.084,24.789c-3.174,8.563 -6.885,17.031 -11.134,25.403c-4.249,8.373 -9.084,16.219 -14.506,23.538c-7.878,10.337 -17.01,20.061 -27.398,29.169c-10.388,9.109 -22.043,17.288 -34.965,24.538c-12.922,7.25 -27.163,13.401 -42.721,18.452l-28.457,-31.278c17.363,-4.121 32.355,-9.249 44.976,-15.384c12.622,-6.135 23.611,-13.117 32.969,-20.945c9.358,-7.828 17.511,-16.145 24.46,-24.95c5.803,-7.314 10.764,-15.258 14.884,-23.833c4.12,-8.576 7.514,-17.18 10.182,-25.812c2.669,-8.632 4.545,-16.682 5.629,-24.148l-121.697,0c-5.985,0 -11.802,0.111 -17.452,0.333c-5.649,0.222 -10.197,0.488 -13.642,0.798l-0,-36.921c2.672,0.311 5.869,0.63 9.59,0.96c3.721,0.329 7.548,0.605 11.481,0.829c3.933,0.223 7.293,0.334 10.08,0.334l120.925,0c2.616,0 5.815,-0.111 9.597,-0.334c3.782,-0.224 7.389,-0.782 10.821,-1.674l25.779,16.555Z" style="fill:#7adbe8;fill-rule:nonzero;"/><path d="M548.811,226.529c11.4,-2.553 22.979,-5.952 34.737,-10.199c11.759,-4.246 22.786,-8.822 33.083,-13.728c10.297,-4.906 18.901,-9.42 25.812,-13.541c8.554,-5.149 16.966,-10.982 25.233,-17.497c8.268,-6.514 15.868,-13.107 22.799,-19.777c6.931,-6.67 12.642,-12.841 17.133,-18.513l25.898,25.37c-5.112,5.635 -11.817,11.908 -20.116,18.82c-8.299,6.912 -17.252,13.791 -26.857,20.635c-9.606,6.844 -19.17,13.102 -28.694,18.774c-5.868,3.544 -12.647,7.194 -20.335,10.951c-7.688,3.756 -15.747,7.438 -24.178,11.048c-8.431,3.609 -16.87,6.995 -25.317,10.158c-8.448,3.163 -16.345,5.905 -23.691,8.227l-15.507,-30.728Zm90.578,-17.009l35.557,-6.773l-0,92.966c-0,3.043 0.043,6.453 0.13,10.231c0.088,3.778 0.277,7.295 0.568,10.55c0.291,3.255 0.66,5.746 1.106,7.472l-38.758,-0c0.311,-1.726 0.543,-4.217 0.698,-7.472c0.156,-3.255 0.311,-6.772 0.466,-10.55c0.155,-3.778 0.233,-7.188 0.233,-10.231l-0,-86.193Z" style="fill:#7adbe8;fill-rule:nonzero;"/><path d="M1000.15,123.81c-1.064,1.511 -2.566,3.914 -4.505,7.21c-1.94,3.296 -3.492,6.331 -4.657,9.105c-3.582,8.204 -8.039,17.381 -13.371,27.532c-5.332,10.151 -11.342,20.337 -18.03,30.558c-6.687,10.221 -13.786,19.687 -21.296,28.4c-9.717,11.133 -20.455,22.028 -32.215,32.685c-11.76,10.658 -24.14,20.482 -37.139,29.474c-13,8.992 -26.283,16.691 -39.849,23.098l-27.061,-28.196c14.111,-5.34 27.796,-12.113 41.055,-20.32c13.26,-8.206 25.561,-17.099 36.903,-26.679c11.342,-9.579 21.075,-18.886 29.2,-27.92c5.825,-6.56 11.315,-13.601 16.47,-21.125c5.155,-7.523 9.734,-15.011 13.737,-22.465c4.002,-7.454 6.952,-14.257 8.849,-20.408l-88.679,-0c-3.565,-0 -7.386,0.121 -11.462,0.363c-4.076,0.242 -7.862,0.509 -11.358,0.8c-3.497,0.292 -6.196,0.505 -8.099,0.641l0,-37.239c2.447,0.27 5.613,0.559 9.497,0.87c3.884,0.31 7.796,0.562 11.736,0.755c3.94,0.193 7.169,0.29 9.686,0.29l92.158,-0c5.775,-0 11.082,-0.325 15.921,-0.974c4.838,-0.649 8.565,-1.42 11.18,-2.313l21.329,15.858Zm-58.462,81.158c6.81,5.457 14.029,11.757 21.655,18.899c7.627,7.143 15.182,14.551 22.664,22.225c7.482,7.674 14.417,15.045 20.804,22.111c6.387,7.066 11.729,13.201 16.027,18.405l-29.768,25.93c-6.369,-9.026 -13.68,-18.314 -21.935,-27.865c-8.254,-9.551 -16.962,-19.087 -26.125,-28.609c-9.164,-9.521 -18.468,-18.492 -27.913,-26.914l24.591,-24.182Z" style="fill:#7adbe8;fill-rule:nonzero;"/><path d="M1057.52,91.862l116.005,-0l0,28.367l-116.005,0l0,-28.367Zm137.391,75.667l102.707,-0l0,30.204l-102.707,0l0,-30.204Zm48.202,21.071l31.017,0l-0,135.945l-31.017,0l-0,-135.945Zm-60.597,-86.29l37.586,8.811c-0.212,2.479 -2.519,4.078 -6.92,4.797l-0,59.339c-0,10.627 -0.547,22.338 -1.642,35.135c-1.094,12.797 -3.248,25.948 -6.463,39.452c-3.214,13.505 -7.982,26.622 -14.304,39.35c-6.321,12.729 -14.709,24.32 -25.164,34.772c-1.298,-2.289 -3.315,-4.836 -6.051,-7.639c-2.735,-2.804 -5.65,-5.461 -8.743,-7.972c-3.094,-2.511 -5.872,-4.349 -8.335,-5.514c9.191,-9.287 16.444,-19.32 21.757,-30.1c5.313,-10.78 9.286,-21.846 11.92,-33.198c2.633,-11.351 4.351,-22.538 5.154,-33.558c0.803,-11.021 1.205,-21.398 1.205,-31.132l-0,-72.543Zm-116.671,37.647l29.793,0l-0,66.873c-0,8.789 -0.296,18.339 -0.886,28.651c-0.591,10.312 -1.738,20.812 -3.442,31.501c-1.704,10.689 -4.105,20.999 -7.202,30.931c-3.098,9.932 -7.239,18.897 -12.424,26.894c-1.573,-1.881 -3.907,-4.044 -7,-6.488c-3.094,-2.444 -6.246,-4.82 -9.456,-7.128c-3.21,-2.309 -5.911,-4.045 -8.102,-5.21c5.765,-9.445 9.958,-19.964 12.579,-31.558c2.621,-11.594 4.3,-23.276 5.036,-35.045c0.736,-11.769 1.104,-22.687 1.104,-32.752l0,-66.669Zm202.585,-58.396l27.437,23.541c-9.197,4.511 -19.255,8.721 -30.172,12.633c-10.918,3.911 -22.052,7.444 -33.404,10.599c-11.351,3.154 -22.397,5.97 -33.138,8.447c-0.852,-3.59 -2.33,-7.863 -4.436,-12.818c-2.105,-4.955 -4.185,-9.043 -6.24,-12.263c9.752,-2.477 19.571,-5.317 29.457,-8.521c9.886,-3.203 19.21,-6.659 27.974,-10.366c8.763,-3.707 16.27,-7.458 22.522,-11.252Zm-185.302,58.396l85.004,0l0,89.177l-85.004,0l-0,-27.959l54.746,0l0,-33.201l-54.746,-0l-0,-28.017Z" style="fill:#7adbe8;fill-rule:nonzero;"/><path d="M1319.28,115.248l233.075,0l0,30.058l-233.075,-0l-0,-30.058Zm85.179,84.674l137.065,-0l-0,28.975l-137.065,0l0,-28.975Zm-10.043,88.817l157.094,0l0,29.037l-157.094,0l-0,-29.037Zm63.377,-132.242l31.626,-0l-0,147.691l-31.626,0l0,-147.691Zm-56.077,-77.721l32.707,7.799c-6.429,20.988 -14.527,41.685 -24.295,62.091c-9.767,20.406 -21.538,39.398 -35.314,56.976c-13.775,17.578 -29.987,32.736 -48.634,45.474c-1.026,-2.97 -2.456,-6.297 -4.289,-9.982c-1.833,-3.686 -3.71,-7.347 -5.63,-10.985c-1.921,-3.638 -3.685,-6.719 -5.294,-9.242c11.846,-7.662 22.578,-16.882 32.197,-27.661c9.619,-10.778 18.203,-22.511 25.75,-35.198c7.548,-12.686 14.046,-25.766 19.494,-39.238c5.448,-13.471 9.884,-26.816 13.308,-40.034Zm-52.232,109.497l31.626,0l-0,135.578l-31.626,0l0,-135.578Z" style="fill:#7adbe8;fill-rule:nonzero;"/><path d="M1727.62,78.923l29.384,0l0,184.462l-29.384,-0l0,-184.462Zm-77.434,105.231l135.467,-57.678l11.346,26.767l-135.116,58.551l-11.697,-27.64Zm25.885,-79.88l29.849,-0l-0,169.346c-0,5.036 0.406,8.817 1.219,11.343c0.812,2.525 2.558,4.209 5.236,5.05c2.678,0.841 6.678,1.262 11.999,1.262l50.795,-0c4.76,-0 8.354,-0.87 10.782,-2.609c2.428,-1.74 4.242,-4.969 5.443,-9.689c1.2,-4.72 2.129,-11.547 2.788,-20.483c3.394,2.365 7.758,4.634 13.092,6.806c5.333,2.172 10.104,3.685 14.312,4.54c-1.238,12.352 -3.346,22.109 -6.322,29.272c-2.977,7.162 -7.419,12.307 -13.327,15.435c-5.907,3.127 -13.955,4.691 -24.143,4.691l-55.988,-0c-11.815,-0 -21.06,-1.309 -27.734,-3.926c-6.674,-2.617 -11.343,-7.25 -14.006,-13.898c-2.664,-6.648 -3.995,-15.951 -3.995,-27.908l-0,-169.232Zm103.499,25.66l-2.001,0l5.492,-3.919l5.642,-3.867l21.851,7.913l-1.131,5.148c0,12.425 -0.043,23.742 -0.13,33.949c-0.087,10.207 -0.194,19.183 -0.321,26.93c-0.126,7.746 -0.305,14.216 -0.537,19.41c-0.231,5.193 -0.491,9.144 -0.78,11.852c-0.367,6.026 -1.687,10.745 -3.96,14.155c-2.273,3.411 -5.442,5.95 -9.509,7.619c-3.813,1.804 -8.261,2.877 -13.344,3.217c-5.084,0.34 -9.718,0.51 -13.904,0.51c-0.444,-3.976 -1.258,-8.53 -2.442,-13.661c-1.184,-5.131 -2.599,-9.324 -4.246,-12.579c2.24,0.174 4.615,0.271 7.124,0.29c2.51,0.019 4.346,0.028 5.508,0.028c1.622,0 2.897,-0.353 3.824,-1.059c0.927,-0.706 1.553,-2.21 1.88,-4.51c0.25,-1.273 0.448,-4.07 0.594,-8.39c0.146,-4.319 0.237,-10.212 0.275,-17.678c0.039,-7.466 0.067,-16.629 0.086,-27.488c0.019,-10.859 0.029,-23.482 0.029,-37.87Zm-204.48,9.627l86.425,0l0,29.589l-86.425,-0l0,-29.589Zm30.528,-57.008l29.241,0l-0,173.266l-29.241,0l-0,-173.266Zm-34.018,173.491c7.202,-2.613 15.575,-5.817 25.119,-9.611c9.544,-3.794 19.679,-7.918 30.405,-12.371c10.725,-4.453 21.393,-8.906 32.003,-13.359l7.071,27.698c-13.838,6.914 -27.963,13.783 -42.375,20.608c-14.413,6.825 -27.649,12.977 -39.71,18.456l-12.513,-31.421Z" style="fill:#7adbe8;fill-rule:nonzero;"/></g></svg>