<?xml version="1.0" encoding="utf-8"?>
<!-- Generator: Adobe Illustrator 26.5.0, SVG Export Plug-In . SVG Version: 6.00 Build 0)  -->
<svg version="1.1" id="レイヤー_1" xmlns="http://www.w3.org/2000/svg" xmlns:xlink="http://www.w3.org/1999/xlink" x="0px"
	 y="0px" viewBox="0 0 515.9 177.7" style="enable-background:new 0 0 515.9 177.7;" xml:space="preserve">
<style type="text/css">
	.st0{fill:#fff;}
	.st1{fill:#E50012;}
</style>
<g>
	<g>
		<g>
			<g>
				<path class="st0" d="M196.8,53.2c3.3-4.5,5-10.4,5-17.6c0-5.2-1.8-11.3-4-14.8c-2.1-3.5-4.3-6.3-7.9-8.5
					c-3.6-2.2-7.4-3.8-11.6-4.5c-4.1-0.6-9.9-1-9.9-1c-2.6-0.1-7-0.3-9.7-0.3h-30.9c-2.7,0-4.9,2.2-4.9,4.8V106
					c0,2.7,2.2,4.8,4.9,4.8h15.3c2.7,0,4.8-2.2,4.8-4.8V75.3c0-2.7,2.2-4.8,4.9-4.8h0.5c2.7,0,5.9,1.9,7.2,4.2l17.7,31.7
					c1.3,2.3,4.6,4.2,7.2,4.2l20.2,0c2.7,0,3.7-1.8,2.3-4.1l-22.9-37.9c-1.4-2.3-0.6-5.3,1.6-6.7C186.7,61.9,193.4,57.7,196.8,53.2z
					 M174.5,45.1c-0.8,1.6-2,3.1-3.7,4.5c-1.8,1.4-4,2.3-6.7,2.7c-2.6,0.4-5,0.4-5,0.4c-2.7,0.1-2.2,0.1-4.8,0.1h-1.5
					c-2.7,0-4.9-2.2-4.9-4.8V29.8c0-2.7,2.2-4.8,4.9-4.8h2.9c2.7,0,2.2,0,4.9,0.1c0,0,0.7,0,2.9,0.2c2.2,0.1,4.1,0.6,5.8,1.3
					c2.4,1,4.1,2.4,5.1,4.1c1,1.7,1.5,5.6,1.5,8C175.7,41.3,175.3,43.5,174.5,45.1z"/>
			</g>
			<path class="st0" d="M259.8,6.5c-2.4,0-9.8,0-12.2,0h-1.2c-2.4,0-4.9,2.1-5.7,4.6l-27.9,95c-0.8,2.5,0.6,4.6,3,4.6h16.9
				c2.4,0,4.9-2.1,5.7-4.6l3.6-12.2c0.8-2.5,3.3-4.6,5.7-4.6h27.8c2.4,0,5,2.1,5.7,4.6l3.6,12.2c0.7,2.5,3.3,4.6,5.7,4.6h17
				c2.4,0,3.7-2.1,3-4.6l-27.9-95c-0.8-2.5-3.3-4.6-5.7-4.6H259.8z M253.3,70.3c-2.4,0-3.7-2.1-3-4.6l9.9-33.7c0.8-2.5,2-2.5,2.7,0
				l9.9,33.7c0.7,2.5-0.6,4.6-3,4.6H253.3z"/>
			<path class="st0" d="M445.3,6.5c-2.4,0-9.8,0-12.1,0h-1.2c-2.4,0-5,2.1-5.7,4.6l-28,95c-0.7,2.5,0.6,4.6,3,4.6h17
				c2.4,0,4.9-2.1,5.7-4.6l3.6-12.2c0.7-2.5,3.3-4.6,5.7-4.6H461c2.4,0,4.9,2.1,5.7,4.6l3.6,12.2c0.8,2.5,3.3,4.6,5.7,4.6h17
				c2.4,0,3.7-2.1,3-4.6l-27.9-95c-0.8-2.5-3.3-4.6-5.7-4.6H445.3z M438.8,70.3c-2.4,0-3.7-2.1-3-4.6l9.9-33.7c0.8-2.5,2-2.5,2.7,0
				l9.9,33.7c0.8,2.5-0.6,4.6-3,4.6H438.8z"/>
			<path class="st0" d="M345.7,10.8c0-2.7-2.2-4.8-4.8-4.8h-15.3c-2.7,0-4.9,2.2-4.9,4.8v95c0,2.7,2.2,4.9,4.9,4.9l57.6,0
				c2.7,0,4.8-2.2,4.8-4.8v-9.2c0-2.7-2.2-4.8-4.8-4.8h-32.6c-2.7,0-4.9-2.2-4.9-4.8V10.8z"/>
			<path class="st0" d="M96.3,6.7H81c-2.7,0-4.9,2.2-4.9,4.8v58.5c0,2.7-0.3,7-0.6,9.7c0,0-0.8,6.4-3.2,9.8
				c-0.2,0.3-0.4,0.5-0.6,0.7c-2.9,3.2-5.1,4.8-11.4,4.8c-6.4,0-8.6-1.7-11.4-5c-0.2-0.2-0.4-0.5-0.6-0.8c-2.4-3.5-3.1-9.6-3.1-9.6
				c-0.3-2.7-0.6-7-0.6-9.7V11.6c0-2.7-2.2-4.8-4.9-4.8H24.7c-2.7,0-4.8,2.2-4.8,4.8v64.7c0,12,3.6,21.2,10.9,27.6
				c7.3,6.4,15.6,9.6,29.7,9.6c14.2,0,22.5-3.2,29.8-9.6c7.3-6.4,10.9-15.6,10.9-27.7V11.6C101.2,8.9,99,6.7,96.3,6.7z"/>
		</g>
	</g>
</g>
<g>
	<path class="st0" d="M-401.3,409.8h-22c-3.1,0.1-3.6,0.5-3.7,2.9v2.6c0,1.9,0.6,2.2,4.4,2.2h12.7c4.9,0,5.8,0.1,7.4,1.1
		c2.1,1.3,2.9,2.9,2.9,6.4v8.9c0,3.6-1.5,6.5-3.9,7.7c-2,1-4.2,1.3-9.7,1.3h-22.9V435h21c5.4,0,6-0.3,6.1-2.4v-4
		c0-2.6-1.1-3.1-6.5-3.1h-11.9c-6.1,0-8.9-2.2-8.9-7.1v-7.2c0.1-6.4,2.7-9,9-9.2h25.9V409.8z"/>
	<path class="st0" d="M-371.1,411.6c3.3,0,6,0.9,7.7,2.5c1.9,1.8,2.3,3.2,2.3,8.5v11.6c0.1,5.8-3.3,8.8-10,8.7h-13.5
		c-6.3-0.1-9.1-2.9-9.3-9.3v-11c0-8,2.7-10.9,9.9-10.9H-371.1z M-369.7,423.4c0.1-3.1-1-4.2-4.6-4.3h-6c-3.8,0-4.6,0.8-4.7,4.3v8
		c0.2,3.3,0.8,3.8,4.1,3.9h6.9c3.4,0.1,4.1-0.6,4.3-3.8V423.4z"/>
	<path class="st0" d="M-347.2,411.6V431c0,3.7,0.5,4.3,3.6,4.4h7.2c2.4,0,3-0.9,3-4.4v-19.3h8.7v22.2c0.1,6.2-2.7,9-9.2,9h-12.4
		c-6.4,0.1-9.3-2.6-9.2-8.8v-22.5H-347.2z"/>
	<path class="st0" d="M-312.5,411.8v-8.7h8.9v8.7h8.3v7.5h-8.3v12.9c0,3.1,0.2,3.2,3.3,3.3h4.6v7.4h-7.3c-7.5,0.1-9.5-1.6-9.6-8.6
		v-15h-7.2v-7.5H-312.5z"/>
	<path class="st0" d="M-289.6,401.9h8.6v9.7h13.4c6.8,0.2,8.9,2.8,8.8,10.9v20.4h-8.6v-18.5c0-4.6-0.5-5.3-4-5.3h-9.5v23.8h-8.6
		V401.9z"/>
	<path class="st0" d="M-245.1,430.8v2c0.2,2.2,1,2.6,4.8,2.6h17.9v7.5h-19.4c-7.8,0.2-11.6-3.1-11.6-10.1v-11.3
		c0-6.5,2.7-9.8,8.1-9.9h13.6c6.5,0.2,8.6,2.3,8.8,8.8v10.3H-245.1z M-231.8,424v-1.9c0-2.4-0.7-3-3.3-3h-6.5c-3,0-3.5,0.5-3.6,3.3
		v1.6H-231.8z"/>
	<path class="st0" d="M-208.5,442.9c-5.1,0-7.9-2.1-8.4-6.2v-7.3c0-2.6,1.4-4.9,3.8-6.1c0.9-0.5,2.1-0.6,4.7-0.6h13
		c-0.2-3.3-0.4-3.5-4.1-3.5h-16.9v-7.5h18.9c8.4-0.1,11.1,2.5,11,10.8v20.4H-208.5z M-194.9,429.3h-10.7c-2.5,0-3.1,0.4-3.1,2v2.2
		c0,1.4,0.6,1.7,3.1,1.8h10.7V429.3z"/>
	<path class="st0" d="M-166.3,435.4c2.6,0,3.1,0,3.7-0.1c1.1-0.2,1.6-0.8,1.6-1.9c0-1.6-1-2.4-3.3-2.4h-7.1c-5.7,0.2-8.8-2-9-6.5
		v-6.3c0.1-4.8,2.8-6.5,9.7-6.5h17.3v7.5H-169c-2.7,0-3.3,0.4-3.3,2.6c0,1.5,0.4,1.7,2.7,1.7h9.3c5.7-0.1,8,1.5,8.3,5.9v5.8
		c-0.1,5.5-2.7,7.7-9.5,7.7h-19v-7.5H-166.3z"/>
	<path class="st0" d="M-139.6,411.8v-8.7h8.9v8.7h8.3v7.5h-8.3v12.9c0,3.1,0.2,3.2,3.3,3.3h4.6v7.4h-7.3c-7.5,0.1-9.5-1.6-9.6-8.6
		v-15h-7.2v-7.5H-139.6z"/>
	<path class="st1" d="M-77.8,402h12.3l13.6,40.9h-9.5l-3.1-9.5h-14.7l-2.9,9.5h-9.5L-77.8,402z M-66.6,425.5l-5.4-16.7l-5.1,16.7
		H-66.6z"/>
	<path class="st1" d="M-33.5,435.4c2.6,0,3.1,0,3.7-0.1c1.1-0.2,1.6-0.8,1.6-1.9c0-1.6-1-2.4-3.3-2.4h-7.1c-5.7,0.2-8.8-2-9-6.5
		v-6.3c0.1-4.8,2.8-6.5,9.7-6.5h17.3v7.5h-15.6c-2.7,0-3.3,0.4-3.3,2.6c0,1.5,0.4,1.7,2.7,1.7h9.3c5.7-0.1,8,1.5,8.3,5.9v5.8
		c-0.1,5.5-2.7,7.7-9.5,7.7h-19v-7.5H-33.5z"/>
	<path class="st1" d="M-3.4,403.1v6.2h-8.8v-6.2H-3.4z M-12.1,411.6h8.8v31.2h-8.8V411.6z"/>
	<path class="st1" d="M11.9,442.9c-5.1,0-7.9-2.1-8.4-6.2v-7.3c0-2.6,1.4-4.9,3.8-6.1c0.9-0.5,2.1-0.6,4.7-0.6h13
		c-0.2-3.3-0.4-3.5-4.1-3.5H4v-7.5h18.9c8.4-0.1,11.1,2.5,11,10.8v20.4H11.9z M25.5,429.3H14.8c-2.5,0-3.1,0.4-3.1,2v2.2
		c0,1.4,0.6,1.7,3.1,1.8h10.7V429.3z"/>
</g>
<g>
	<path class="st0" d="M33.7,155.1c0.4,3.5,2.6,4.5,6.2,4.5c1.7,0,3.7-0.3,4.7-0.8c1-0.4,1.4-1.3,1.4-2.4c0-1.7-0.9-3-8.5-5.1
		c-9.5-2.7-16.1-5.4-16.1-14.5c0-8.9,7-14.9,18.2-14.9c3.9,0,8.5,0.9,11.7,3.1c5.6,3.8,6.2,9.3,6.5,11.4h-13
		c-0.3-2.9-2.4-3.6-5.3-3.6c-1.8,0-4.9,0.3-4.9,2.7c0,1.3,0.9,1.9,1.6,2.2c1.6,0.8,9.9,3.4,11.8,4c4.4,1.5,11.2,3.9,11.2,12.9
		c0,6.6-4.4,15.8-19.3,15.8c-2.7,0-12.1-0.4-16.4-7.4c-2.2-3.4-2.5-6.5-2.7-8H33.7z"/>
	<path class="st0" d="M80.5,134.4c9.4,0,18.3,5.3,18.3,18c0,12.7-8.9,18-18.3,18c-9.1,0-18.3-5.2-18.3-18
		C62.2,139.6,71.3,134.4,80.5,134.4z M80.5,143.1c-5.6,0-6.5,5.8-6.5,9.8c0,1.9,0.3,9,6.5,9c5.9,0,6.5-6.8,6.5-9.4
		S86.4,143.1,80.5,143.1z"/>
	<path class="st0" d="M124.8,169.2v-4.1c-1.3,1.6-4.3,5.3-10.8,5.3c-2.4,0-7.7-0.7-10.5-5.3c-1.5-2.6-1.8-5.6-1.8-7.7v-21.7H113
		v18.7c0,5.6,3,6.3,5.5,6.3c2.8,0,6.3-1.5,6.3-6.5v-18.6h11.3v33.5H124.8z"/>
	<path class="st0" d="M155.7,142.6v14.7c0,3,1.5,3.9,3.8,3.9h2.7v8.8c-1.2,0.1-6.7,0.4-8,0.4c-8.4,0-10.1-4.2-10.1-8.9v-19h-5.2v-7
		h5.2v-9.6h11.6v9.6h6.5v7H155.7z"/>
	<path class="st0" d="M176.4,123.3v16.5c1.3-1.6,4.3-5.3,10.8-5.3c2.4,0,7.7,0.7,10.5,5.4c1.5,2.6,1.8,5.6,1.8,7.7v21.7h-11.3v-18.7
		c0-5.6-3-6.3-5.5-6.3c-2.8,0-6.3,1.5-6.3,6.5v18.6h-11.3v-46H176.4z"/>
	<path class="st0" d="M214,155c0,1.3,0.1,3,1.3,4.7c1.3,1.9,3.4,2.7,5.8,2.7c3.8,0,4.8-1.9,5.7-3.4h11.4c-0.8,2-1.5,3.6-3.3,5.7
		c-2.6,2.8-7.1,5.7-13.9,5.7c-9.7,0-18.5-6-18.5-17.8c0-10.7,7.2-18.2,18.1-18.2c3.8,0,10.9,1.1,14.7,7.1c3,4.8,3.4,10.3,3.7,13.5
		H214z M227.5,147.8c-0.3-1.2-0.7-2.3-1.7-3.4c-1.2-1.2-3.2-2-5-2c-1.7,0-3.8,0.7-4.9,2c-1,1.1-1.4,2.2-1.8,3.4H227.5z"/>
	<path class="st0" d="M266,169.2c-0.7-1.2-0.9-2.2-0.9-3.7c-2,2.3-5.3,4.9-12.3,4.9c-4.8,0-11.9-1.5-11.9-10.7
		c0-8.5,6.7-9.5,19-11.2c2.6-0.4,5.2-0.7,5.2-3c0-3-3.4-3-4.8-3c-6.3,0-6.8,1.4-6.6,3.3h-11.1c0.4-3.5,1.2-11.4,17.7-11.4
		c7.8,0,16.2,2.1,16.2,11.2v19.7c0,1,0.2,2.4,1.5,3.1v0.8H266z M265.1,154.4c-1.6,0.8-2,0.8-5.8,1.5c-3.8,0.7-6.6,1.2-6.6,3.8
		c0,2.3,3,2.4,4.4,2.4c3.6,0,7.9-1.7,7.9-6.2V154.4z"/>
	<path class="st0" d="M300,144.9c-0.1-1-0.2-2.7-4.1-2.7c-1.3,0-3.9,0.3-3.9,2.2c0,1.5,1.3,2,3.9,2.6c10.7,2.7,16.7,4.2,16.7,11.8
		c0,3.9-2,7-5.1,9c-2.7,1.7-7.5,2.6-11.6,2.6c-1.1,0-8.9,0-13.1-4.3c-2.6-2.5-2.9-5.7-3.1-7.5h11.8c0.1,0.8,0.1,1.9,0.7,2.7
		c0.7,0.8,1.9,1.5,4.3,1.5c1.5,0,4.3-0.2,4.3-2.5c0-1.9-1.6-2.3-3.9-2.9c-10.7-2.8-16.1-4.2-16.1-11.7c0-9.9,9.8-11.3,15.2-11.3
		c4.2,0,8.5,1.1,11,2.6c3.9,2.5,4.4,5.8,4.6,7.8H300z"/>
	<path class="st0" d="M331.4,142.6v14.7c0,3,1.5,3.9,3.8,3.9h2.7v8.8c-1.2,0.1-6.7,0.4-8,0.4c-8.4,0-10.1-4.2-10.1-8.9v-19h-5.2v-7
		h5.2v-9.6h11.6v9.6h6.5v7H331.4z"/>
	<path class="st1" d="M372.3,163.1l-1.7,6.1H358l15.7-46h13.2l15.7,46h-12.6l-1.8-6.1H372.3z M385.7,154.2l-5.4-18.7l-5.4,18.7
		H385.7z"/>
	<path class="st1" d="M424.7,144.9c-0.1-1-0.2-2.7-4.1-2.7c-1.3,0-3.9,0.3-3.9,2.2c0,1.5,1.3,2,3.9,2.6c10.7,2.7,16.7,4.2,16.7,11.8
		c0,3.9-2,7-5.1,9c-2.7,1.7-7.5,2.6-11.6,2.6c-1.1,0-8.9,0-13.1-4.3c-2.6-2.5-2.9-5.7-3.1-7.5h11.8c0.1,0.8,0.1,1.9,0.7,2.7
		c0.7,0.8,1.9,1.5,4.3,1.5c1.5,0,4.3-0.2,4.3-2.5c0-1.9-1.6-2.3-3.9-2.9c-10.7-2.8-16.1-4.2-16.1-11.7c0-9.9,9.8-11.3,15.2-11.3
		c4.2,0,8.5,1.1,11,2.6c3.9,2.5,4.4,5.8,4.6,7.8H424.7z"/>
	<path class="st1" d="M453.1,132.6h-11.6v-9.3h11.6V132.6z M453.1,169.2h-11.6v-33.5h11.6V169.2z"/>
	<path class="st1" d="M482.2,169.2c-0.7-1.2-0.9-2.2-0.9-3.7c-2,2.3-5.3,4.9-12.3,4.9c-4.8,0-11.9-1.5-11.9-10.7
		c0-8.5,6.7-9.5,19-11.2c2.6-0.4,5.2-0.7,5.2-3c0-3-3.4-3-4.8-3c-6.3,0-6.8,1.4-6.6,3.3h-11.1c0.4-3.5,1.2-11.4,17.7-11.4
		c7.8,0,16.2,2.1,16.2,11.2v19.7c0,1,0.2,2.4,1.5,3.1v0.8H482.2z M481.3,154.4c-1.6,0.8-2,0.8-5.8,1.5c-3.8,0.7-6.6,1.2-6.6,3.8
		c0,2.3,3,2.4,4.4,2.4c3.6,0,7.9-1.7,7.9-6.2V154.4z"/>
</g>
</svg>
