<?xml version="1.0" encoding="UTF-8" standalone="no"?>
<!DOCTYPE svg PUBLIC "-//W3C//DTD SVG 1.1//EN" "http://www.w3.org/Graphics/SVG/1.1/DTD/svg11.dtd">
<svg width="100%" height="100%" viewBox="0 0 300 200" version="1.1" xmlns="http://www.w3.org/2000/svg" xmlns:xlink="http://www.w3.org/1999/xlink" xml:space="preserve" xmlns:serif="http://www.serif.com/" style="fill-rule:evenodd;clip-rule:evenodd;stroke-linejoin:round;stroke-miterlimit:2;">
    <g transform="matrix(0.788533,0,0,0.81325,0.78851,36.3697)">
        <g transform="matrix(0.589385,0,0,0.589385,-8,96.2642)">
            <path d="M492.4,151.5C491.2,150.1 489.1,148.8 486.1,147.7C485.6,147.5 484.9,147.3 484,146.9C481.2,145.9 479.8,144.9 479.8,143.8C479.8,143.1 480.1,142.6 480.6,142.2C481.1,141.8 481.8,141.6 482.8,141.6C483.7,141.6 484.3,141.9 484.8,142.4C485.3,142.9 485.4,143.4 485.4,143.4L485.4,143.5C485.5,144.2 485.7,144.6 486.8,144.5L492.1,144.5C493.2,144.5 493.4,144.1 493.5,143.5L493.5,142.8C493.2,140.5 492.2,139.1 490.5,137.7C488.5,136 485.8,135.2 482.5,135.2C479.1,135.2 476.5,136.1 474.6,137.9C472.7,139.7 471.7,142.1 471.7,145.1C471.7,146.6 472,147.9 472.6,149.1C473.2,150.3 474,151.2 475,151.9C476.2,152.7 477.9,153.5 480,154.3C480.4,154.5 480.7,154.6 480.9,154.6C481,154.7 481.2,154.7 481.4,154.8C484.1,155.9 485.5,157 485.5,158.1C485.5,158.8 485.2,159.3 484.7,159.8C484.2,160.2 483.5,160.4 482.6,160.4C481.6,160.4 480.9,160.1 480.3,159.6C479.8,159.1 479.7,158.6 479.7,158.6L479.7,158C479.7,157.4 479.3,157.1 478.7,157.1L472.3,157.1C471.7,157.1 471.3,157.4 471.3,158L471.3,158.4C471.4,159.1 471.6,159.8 471.8,160.5C472.3,162.1 473.1,163.5 474.3,164.5C476.3,166.2 479.1,167 482.7,167C486.3,167 489.1,166.1 491.2,164.3C493.2,162.5 494.3,160 494.3,156.9C494.2,154.7 493.6,152.9 492.4,151.5Z" style="fill:rgb(229,0,18);fill-rule:nonzero;"/>
        </g>
        <g transform="matrix(0.589385,0,0,0.589385,-8,96.2642)">
            <g>
                <g>
                    <path d="M196.8,57.9C200.1,53.4 201.8,47.5 201.8,40.3C201.8,35.1 200,29 197.8,25.5C195.7,22 193.5,19.2 189.9,17C186.3,14.8 182.5,13.2 178.3,12.5C174.2,11.9 168.4,11.5 168.4,11.5C165.8,11.4 161.4,11.2 158.7,11.2L127.8,11.2C125.1,11.2 122.9,13.4 122.9,16L122.9,110.6C122.9,113.3 125.1,115.4 127.8,115.4L143.1,115.4C145.8,115.4 147.9,113.2 147.9,110.6L147.9,80.1C147.9,77.4 150.1,75.3 152.8,75.3L153.3,75.3C156,75.3 159.2,77.2 160.5,79.5L178.2,111.2C179.5,113.5 182.8,115.4 185.4,115.4L205.6,115.4C208.3,115.4 209.3,113.6 207.9,111.3L185,73.4C183.6,71.1 184.4,68.1 186.6,66.7C186.7,66.6 193.4,62.4 196.8,57.9ZM174.5,49.8C173.7,51.4 172.5,52.9 170.8,54.3C169,55.7 166.8,56.6 164.1,57C161.5,57.4 159.1,57.4 159.1,57.4C156.4,57.5 156.9,57.5 154.3,57.5L152.8,57.5C150.1,57.5 147.9,55.3 147.9,52.7L147.9,34.5C147.9,31.8 150.1,29.7 152.8,29.7L155.7,29.7C158.4,29.7 157.9,29.7 160.6,29.8C160.6,29.8 161.3,29.8 163.5,30C165.7,30.1 167.6,30.6 169.3,31.3C171.7,32.3 173.4,33.7 174.4,35.4C175.4,37.1 175.9,41 175.9,43.4C175.7,46 175.3,48.2 174.5,49.8Z" style="fill:white;fill-rule:nonzero;"/>
                </g>
                <path d="M276.9,11.2L246.4,11.2C244,11.2 241.5,13.3 240.7,15.8L212.8,110.8C212,113.3 213.4,115.4 215.8,115.4L232.7,115.4C235.1,115.4 237.6,113.3 238.4,110.8L242,98.6C242.8,96.1 245.3,94 247.7,94L275.5,94C277.9,94 280.5,96.1 281.2,98.6L284.8,110.8C285.5,113.3 288.1,115.4 290.5,115.4L307.5,115.4C309.9,115.4 311.2,113.3 310.5,110.8L282.6,15.8C281.8,13.3 279.3,11.2 276.9,11.2ZM253.3,75C250.9,75 249.6,72.9 250.3,70.4L260.2,36.7C261,34.2 262.2,34.2 262.9,36.7L272.8,70.4C273.5,72.9 272.2,75 269.8,75L253.3,75Z" style="fill:white;fill-rule:nonzero;"/>
                <path d="M462.4,11.2L432,11.2C429.6,11.2 427,13.3 426.3,15.8L398.3,110.8C397.6,113.3 398.9,115.4 401.3,115.4L418.3,115.4C420.7,115.4 423.2,113.3 424,110.8L427.6,98.6C428.3,96.1 430.9,94 433.3,94L461,94C463.4,94 465.9,96.1 466.7,98.6L470.3,110.8C471.1,113.3 473.6,115.4 476,115.4L493,115.4C495.4,115.4 496.7,113.3 496,110.8L468.1,15.8C467.3,13.3 464.8,11.2 462.4,11.2ZM438.8,75C436.4,75 435.1,72.9 435.8,70.4L445.7,36.7C446.5,34.2 447.7,34.2 448.4,36.7L458.3,70.4C459.1,72.9 457.7,75 455.3,75L438.8,75Z" style="fill:white;fill-rule:nonzero;"/>
                <path d="M345.7,15.6C345.7,12.9 343.5,10.8 340.9,10.8L325.6,10.8C322.9,10.8 320.7,13 320.7,15.6L320.7,110.6C320.7,113.3 322.9,115.5 325.6,115.5L383.2,115.5C385.9,115.5 388,113.3 388,110.7L388,101.5C388,98.8 385.8,96.7 383.2,96.7L350.6,96.7C347.9,96.7 345.7,94.5 345.7,91.9L345.7,15.6Z" style="fill:white;fill-rule:nonzero;"/>
                <path d="M96.3,11.4L81,11.4C78.3,11.4 76.1,13.6 76.1,16.2L76.1,74.7C76.1,77.4 75.8,81.7 75.5,84.4C75.5,84.4 74.7,90.8 72.3,94.2C72.1,94.5 71.9,94.7 71.7,94.9C68.8,98.1 66.6,99.7 60.3,99.7C53.9,99.7 51.7,98 48.9,94.7C48.7,94.5 48.5,94.2 48.3,93.9C45.9,90.4 45.2,84.3 45.2,84.3C44.9,81.6 44.6,77.3 44.6,74.6L44.6,16.3C44.6,13.6 42.4,11.5 39.7,11.5L24.7,11.5C22,11.5 19.9,13.7 19.9,16.3L19.9,81C19.9,93 23.5,102.2 30.8,108.6C38.1,115 46.4,118.2 60.5,118.2C74.7,118.2 83,115 90.3,108.6C97.6,102.2 101.2,93 101.2,80.9L101.2,16.3C101.2,13.6 99,11.4 96.3,11.4Z" style="fill:white;fill-rule:nonzero;"/>
            </g>
            <g>
                <g>
                    <path d="M129,135.4C127,135.4 125.2,135.8 123.6,136.6C122,137.4 120.6,138.5 119.5,139.9C118.6,138.4 117.4,137.3 116,136.5C114.6,135.7 113.1,135.4 111.3,135.4C109.5,135.4 107.9,135.8 106.4,136.7C104.9,137.5 103.2,139.6 103.2,139.6C102.8,140.1 102.4,140 102.4,139.3L102.4,137.1C102.4,136.4 101.9,135.9 101.2,135.9L94.2,135.9C93.5,135.9 93,136.4 93,137.1L93,165.1C93,165.8 93.5,166.3 94.2,166.3L101.7,166.3C102.4,166.3 102.9,165.8 102.9,165.1L102.9,149.4C102.9,147.4 103.2,146 103.9,145.1C104.6,144.2 105.6,143.7 107,143.7C108.3,143.7 109.3,144.1 109.9,144.9C110.5,145.7 110.7,147.3 110.7,147.3C110.8,148 110.8,149.1 110.8,149.7L110.8,165.1C110.8,165.8 111.3,166.3 112,166.3L119.2,166.3C119.9,166.3 120.4,165.8 120.4,165.1L120.4,149.4C120.4,147.4 120.7,146 121.4,145.1C122.1,144.2 123.1,143.7 124.5,143.7C125.8,143.7 126.8,144.1 127.4,144.9C128,145.7 128.2,147.3 128.2,147.3C128.3,148 128.3,149.1 128.3,149.7L128.3,165.1C128.3,165.8 128.8,166.3 129.5,166.3L137,166.3C137.7,166.3 138.2,165.8 138.2,165.1L138.2,145.6C138.2,142.3 137.4,139.8 135.8,138.1C134.2,136.3 131.9,135.4 129,135.4Z" style="fill:white;fill-rule:nonzero;"/>
                    <path d="M182.2,135.4C180.2,135.4 178.4,135.8 176.8,136.6C175.1,137.4 173.8,138.5 172.7,139.9C171.8,138.4 170.6,137.3 169.2,136.5C167.8,135.7 166.3,135.4 164.5,135.4C162.7,135.4 161.1,135.8 159.6,136.7C158.1,137.5 156.4,139.6 156.4,139.6C156,140.1 155.6,140 155.6,139.3L155.6,137.1C155.6,136.4 155.1,135.9 154.4,135.9L147.4,135.9C146.7,135.9 146.2,136.4 146.2,137.1L146.2,165.1C146.2,165.8 146.8,166.3 147.4,166.3L154.9,166.3C155.6,166.3 156.1,165.8 156.1,165.1L156.1,149.4C156.1,147.4 156.4,146 157.1,145.1C157.8,144.2 158.8,143.7 160.2,143.7C161.5,143.7 162.5,144.1 163.1,144.9C163.7,145.7 163.9,147.3 163.9,147.3C164,148 164,149.1 164,149.7L164,165.1C164,165.8 164.6,166.3 165.2,166.3L172.4,166.3C173.1,166.3 173.6,165.8 173.6,165.1L173.6,149.4C173.6,147.4 173.9,146 174.6,145.1C175.3,144.2 176.3,143.7 177.7,143.7C179,143.7 180,144.1 180.6,144.9C181.2,145.7 181.4,147.3 181.4,147.3C181.5,148 181.5,149.1 181.5,149.7L181.5,165.1C181.5,165.8 182,166.3 182.7,166.3L190.2,166.3C190.9,166.3 191.4,165.8 191.4,165.1L191.4,145.6C191.4,142.3 190.6,139.8 189,138.1C187.4,136.3 185.2,135.4 182.2,135.4Z" style="fill:white;fill-rule:nonzero;"/>
                    <path d="M225.5,135.9L218,135.9C217.3,135.9 216.8,136.4 216.8,137.1L216.8,154.1C216.8,155.7 216.5,156.9 215.8,157.7C215.2,158.5 214.2,158.9 212.9,158.9C211.7,158.9 210.7,158.5 210.1,157.7C209.5,156.9 209.3,155.3 209.3,155.3C209.2,154.6 209.2,153.5 209.2,152.9L209.2,137.1C209.2,136.4 208.7,135.9 208,135.9L200.5,135.9C199.8,135.9 199.3,136.4 199.3,137.1L199.3,155.1C199.3,158.9 200.5,161.8 202.9,163.9C205.3,166 208.7,167 213,167C217.4,167 220.8,165.9 223.2,163.9C225.6,161.8 226.6,156.3 226.6,156.3C226.7,155.6 226.8,154.6 226.8,153.9L226.8,137.1C226.7,136.4 226.2,135.9 225.5,135.9Z" style="fill:white;fill-rule:nonzero;"/>
                    <path d="M253.5,135.4C251.5,135.4 249.8,135.8 248.3,136.6C246.8,137.4 245,139.6 245,139.6C244.6,140.1 244.2,140 244.2,139.3L244.2,137.1C244.2,136.4 243.7,135.9 243,135.9L236,135.9C235.3,135.9 234.8,136.4 234.8,137.1L234.8,165.1C234.8,165.8 235.3,166.3 236,166.3L243.5,166.3C244.2,166.3 244.7,165.8 244.7,165.1L244.7,149.4C244.7,147.6 245,146.1 245.8,145.2C246.5,144.3 247.5,143.8 248.8,143.8C250.1,143.8 251.1,144.2 251.7,145C252.3,145.8 252.5,147.4 252.5,147.4C252.6,148.1 252.6,149.2 252.6,149.8L252.6,165.2C252.6,165.9 253.2,166.4 253.8,166.4L261.3,166.4C262,166.4 262.5,165.9 262.5,165.2L262.5,145.7C262.5,142.5 261.7,140 260.1,138.2C258.6,136.3 256.4,135.4 253.5,135.4Z" style="fill:white;fill-rule:nonzero;"/>
                    <path d="M279.3,135.9L271.8,135.9C271.1,135.9 270.6,136.4 270.6,137.1L270.6,165.1C270.6,165.8 271.2,166.3 271.8,166.3L279.3,166.3C280,166.3 280.5,165.8 280.5,165.1L280.5,137.1C280.5,136.4 279.9,135.9 279.3,135.9Z" style="fill:white;fill-rule:nonzero;"/>
                    <path d="M275.5,122.6C274,122.6 272.7,123.1 271.7,124.2C270.6,125.2 270.1,126.5 270.1,128C270.1,129.4 270.6,130.7 271.7,131.8C272.8,132.9 274,133.4 275.5,133.4C277,133.4 278.2,132.9 279.3,131.8C280.4,130.8 280.9,129.5 280.9,128C280.9,126.5 280.4,125.2 279.3,124.2C278.2,123.2 277,122.6 275.5,122.6Z" style="fill:white;fill-rule:nonzero;"/>
                    <path d="M373.6,135.9L372.2,135.9C371.5,135.9 371,135.4 371,134.7L371,129.4C371,128.7 370.5,128.2 369.8,128.2L362.3,128.2C361.6,128.2 361.1,128.7 361.1,129.4L361.1,134.7C361.1,135.4 360.6,135.9 359.9,135.9L359,135.9C358.3,135.9 357.8,136.4 357.8,137.1L357.8,142.6C357.8,143.3 358.3,143.8 359,143.8L359.9,143.8C360.6,143.8 361.1,144.3 361.1,145L361.1,159.7C361.1,162.2 360.5,164.6 362.5,165.7C363.9,166.5 365.2,166.3 365.2,166.3C365.8,166.4 371.2,166.3 371.9,166.3L373.6,166.3C374.3,166.3 374.8,165.8 374.8,165.1L374.8,159.1C374.8,158.4 374.2,157.9 373.6,157.9L372.9,157.9C372.3,157.9 371.8,157.7 371.5,157.4C371.2,157.1 371.2,157 371.2,157C371.1,156.3 371.1,155.2 371.1,154.6L371.1,145C371.1,144.3 371.6,143.8 372.3,143.8L373.7,143.8C374.4,143.8 374.9,143.3 374.9,142.6L374.9,137.1C374.8,136.4 374.2,135.9 373.6,135.9Z" style="fill:white;fill-rule:nonzero;"/>
                    <path d="M387.2,122.6C385.7,122.6 384.5,123.1 383.4,124.2C382.3,125.2 381.8,126.5 381.8,128C381.8,129.4 382.3,130.7 383.4,131.8C384.5,132.9 385.7,133.4 387.2,133.4C388.7,133.4 389.9,132.9 391,131.8C392.1,130.8 392.6,129.5 392.6,128C392.6,126.5 392.1,125.2 391.1,124.2C389.9,123.2 388.7,122.6 387.2,122.6Z" style="fill:white;fill-rule:nonzero;"/>
                    <path d="M391,135.9L383.5,135.9C382.8,135.9 382.3,136.4 382.3,137.1L382.3,165.1C382.3,165.8 382.9,166.3 383.5,166.3L391,166.3C391.7,166.3 392.2,165.8 392.2,165.1L392.2,137.1C392.2,136.4 391.6,135.9 391,135.9Z" style="fill:white;fill-rule:nonzero;"/>
                    <path d="M455.3,135.4C453.3,135.4 451.6,135.8 450.1,136.6C448.6,137.4 446.8,139.6 446.8,139.6C446.4,140.1 446,140 446,139.3L446,137.1C446,136.4 445.5,135.9 444.8,135.9L437.8,135.9C437.1,135.9 436.6,136.4 436.6,137.1L436.6,165.1C436.6,165.8 437.2,166.3 437.8,166.3L445.3,166.3C445.9,166.3 446.5,165.8 446.5,165.1L446.5,149.4C446.5,147.6 446.8,146.1 447.6,145.2C448.3,144.3 449.3,143.8 450.7,143.8C452,143.8 453,144.2 453.6,145C454.2,145.8 454.4,147.4 454.4,147.4C454.5,148.1 454.5,149.2 454.5,149.8L454.5,165.2C454.5,165.9 455.1,166.4 455.7,166.4L463.2,166.4C463.9,166.4 464.4,165.9 464.4,165.2L464.4,145.7C464.4,142.5 463.6,140 462,138.2C460.4,136.3 458.2,135.4 455.3,135.4Z" style="fill:white;fill-rule:nonzero;"/>
                </g>
                <path d="M45.3,156.7C44.9,156.4 44.3,156.5 43.9,156.8C43.9,156.8 43.7,157 43.4,157.2C43.2,157.4 42.9,157.6 42.6,157.7L42.5,157.7C42.4,157.8 42.3,157.8 42.1,157.9L42,157.9C41.6,158.1 41.2,158.3 40.7,158.4L40.6,158.4C40.1,158.5 39.7,158.6 39.2,158.6C37.2,158.6 35.5,157.9 34.2,156.5C32.9,155.1 32.2,153.3 32.2,151.1C32.2,148.9 32.9,147.1 34.2,145.7C35.5,144.3 37.2,143.6 39.2,143.6C39.7,143.6 40.1,143.7 40.6,143.8L40.7,143.8C41.1,143.9 41.6,144.1 42,144.3L42.1,144.3C42.3,144.4 42.4,144.4 42.5,144.5L42.6,144.5C42.6,144.5 42.7,144.5 42.7,144.6C42.7,144.6 42.8,144.7 42.9,144.7C43.4,145 43.8,145.2 44.1,145.6C44.5,145.8 45.1,145.8 45.5,145.4L46.8,144L50,140.5C50.3,140.1 50.2,139.5 49.8,139.1C49.7,139 49.6,138.9 49.5,138.8C49.3,138.7 49.1,138.5 48.8,138.4C47.7,137.6 46.5,136.9 45.2,136.4C43.2,135.7 41,135.3 38.6,135.3C33.7,135.3 29.8,136.8 26.8,139.7C23.8,142.6 22.3,146.5 22.3,151.2C22.3,155.9 23.8,159.8 26.8,162.7C29.8,165.6 33.7,167.1 38.6,167.1C41.1,167.1 43.4,166.7 45.5,165.8C47,165.2 48.9,163.8 49.7,163.1C50,162.7 50,162 49.7,161.6L45.3,156.7Z" style="fill:white;fill-rule:nonzero;"/>
                <path d="M309.8,156.7C309.4,156.4 308.8,156.5 308.4,156.8C308.4,156.8 308.2,157 307.9,157.2C307.7,157.4 307.4,157.6 307.1,157.7L307,157.7C306.9,157.8 306.8,157.8 306.6,157.9L306.5,157.9C306.1,158.1 305.7,158.3 305.2,158.4L305.1,158.4C304.6,158.5 304.2,158.6 303.7,158.6C301.7,158.6 300,157.9 298.7,156.5C297.4,155.1 296.7,153.3 296.7,151.1C296.7,148.9 297.3,147.1 298.7,145.7C300,144.3 301.7,143.6 303.7,143.6C304.2,143.6 304.6,143.7 305.1,143.8L305.2,143.8C305.7,143.9 306.1,144.1 306.5,144.3L306.6,144.3C306.7,144.4 306.8,144.4 307,144.5L307.1,144.5C307.1,144.5 307.2,144.5 307.2,144.6C307.3,144.6 307.3,144.7 307.3,144.7C307.9,145 308.2,145.2 308.5,145.6C308.9,145.8 309.5,145.8 309.9,145.4L311.2,144L314.4,140.5C314.7,140.1 314.6,139.5 314.2,139.1C314.1,139 314,138.9 313.9,138.8C313.7,138.7 313.5,138.5 313.2,138.4C312.1,137.6 310.9,136.9 309.5,136.4C307.5,135.7 305.4,135.3 302.9,135.3C298,135.3 294.1,136.8 291.1,139.7C288.1,142.6 286.6,146.5 286.6,151.2C286.6,155.9 288.1,159.8 291.1,162.7C294.1,165.6 298.1,167.1 302.9,167.1C305.4,167.1 307.7,166.7 309.8,165.8C311.3,165.2 313.2,163.8 314.1,163.1C314.4,162.7 314.4,162 314,161.6L309.8,156.7Z" style="fill:white;fill-rule:nonzero;"/>
                <path d="M414.4,135.2C409.7,135.2 405.8,136.7 402.9,139.6C400,142.5 398.5,146.4 398.5,151.1C398.5,155.8 400,159.7 402.9,162.6C405.8,165.5 409.7,167 414.4,167C419.1,167 422.9,165.5 425.9,162.6C428.9,159.6 430.3,155.8 430.3,151.1C430.3,146.4 428.8,142.5 425.9,139.6C422.9,136.7 419.1,135.2 414.4,135.2ZM418.6,156.6C417.5,158 416.1,158.7 414.3,158.7C412.6,158.7 411.1,158 410,156.6C408.9,155.2 408.4,153.4 408.4,151.1C408.4,148.8 408.9,147 410,145.6C411.1,144.2 412.5,143.5 414.2,143.5C416,143.5 417.4,144.2 418.5,145.6C419.6,147 420.1,148.8 420.1,151.1C420.2,153.4 419.7,155.2 418.6,156.6Z" style="fill:white;fill-rule:nonzero;"/>
                <path d="M350.4,135.9L343.3,135.9C342.6,135.9 342.1,136.4 342.1,137.1L342.1,139.9C341.3,138.4 340.1,137.3 338.7,136.5C337.2,135.7 335.5,135.4 333.5,135.4C331.5,135.4 329.6,135.8 327.9,136.6C326.1,137.4 324.5,138.5 323.2,140.1C321.9,141.5 321,143.1 320.3,144.9C319.7,146.7 319.4,148.8 319.4,151.1C319.4,153.3 319.7,155.4 320.4,157.3C321.1,159.2 322.1,160.9 323.4,162.3C324.8,163.8 326.4,164.9 328.1,165.6C329.9,166.4 331.8,166.8 333.8,166.8C335.8,166.8 337.5,166.4 338.9,165.6C340.3,164.8 341.2,163.2 341.2,163.2C341.5,162.6 341.8,162.7 341.8,163.4L341.8,165.1C341.8,165.8 342.4,166.3 343,166.3L350.4,166.3C351.1,166.3 351.6,165.8 351.6,165.1L351.6,137.1C351.6,136.4 351,135.9 350.4,135.9ZM340.2,156.9C339,158.4 337.5,159.2 335.6,159.2C333.8,159.2 332.2,158.4 331,156.9C329.8,155.4 329.2,153.4 329.2,151C329.2,148.6 329.8,146.7 331,145.1C332.2,143.6 333.8,142.8 335.6,142.8C337.4,142.8 338.9,143.6 340.2,145.1C341.4,146.6 342.1,148.6 342.1,150.9C342,153.4 341.4,155.4 340.2,156.9Z" style="fill:white;fill-rule:nonzero;"/>
                <path d="M70.7,135.2C65.9,135.2 62.1,136.7 59.2,139.6C56.3,142.5 54.8,146.4 54.8,151.1C54.8,155.8 56.3,159.7 59.2,162.6C62.1,165.5 66,167 70.7,167C75.4,167 79.2,165.5 82.2,162.6C85.1,159.6 86.6,155.8 86.6,151.1C86.6,146.4 85.1,142.5 82.2,139.6C79.3,136.7 75.4,135.2 70.7,135.2ZM74.9,156.6C73.8,158 72.4,158.7 70.6,158.7C68.8,158.7 67.4,158 66.3,156.6C65.2,155.2 64.7,153.4 64.7,151.1C64.7,148.8 65.3,147 66.3,145.6C67.4,144.2 68.8,143.5 70.6,143.5C72.4,143.5 73.8,144.2 74.9,145.6C76,147 76.5,148.8 76.5,151.1C76.6,153.4 76,155.2 74.9,156.6Z" style="fill:white;fill-rule:nonzero;"/>
            </g>
        </g>
    </g>
    <g>
        <g transform="matrix(1.22276,0,0,1,70.2607,15.8572)">
            <path d="M186.801,42.034C186.801,21.277 165.737,4.426 139.791,4.426C113.846,4.426 92.781,21.277 92.781,42.034C92.781,54.3 100.259,65.796 112.816,72.834L106.884,98.446L127.611,78.358C131.583,79.21 135.678,79.642 139.791,79.642C165.737,79.642 186.801,62.79 186.801,42.034Z" style="fill:white;"/>
        </g>
        <g transform="matrix(1,0,0,1,-18.4475,6.73181)">
            <g transform="matrix(13,0,0,13,213.265,46.0209)">
                <path d="M0.048,-0L0.048,-0.712L0.15,-0.712L0.15,-0.102L0.352,-0.102L0.352,-0L0.048,-0Z" style="fill-rule:nonzero;"/>
            </g>
            <g transform="matrix(13,0,0,13,218.075,46.0209)">
                <path d="M0.337,-0.215L0.135,-0.215L0.135,-0.146C0.135,-0.13 0.139,-0.118 0.149,-0.109C0.158,-0.1 0.17,-0.096 0.185,-0.096C0.204,-0.096 0.217,-0.102 0.224,-0.113C0.23,-0.124 0.234,-0.136 0.235,-0.147L0.337,-0.147C0.337,-0.102 0.323,-0.066 0.296,-0.039C0.283,-0.025 0.267,-0.014 0.248,-0.006C0.229,0.002 0.208,0.006 0.185,0.006C0.153,0.006 0.126,-0.001 0.104,-0.014C0.081,-0.027 0.064,-0.045 0.052,-0.067C0.045,-0.08 0.04,-0.096 0.037,-0.113C0.034,-0.13 0.033,-0.149 0.033,-0.17L0.033,-0.337C0.033,-0.358 0.034,-0.377 0.037,-0.394C0.04,-0.411 0.045,-0.427 0.052,-0.44C0.064,-0.462 0.081,-0.48 0.104,-0.493C0.126,-0.506 0.153,-0.513 0.185,-0.513C0.208,-0.513 0.23,-0.509 0.249,-0.501C0.268,-0.493 0.284,-0.482 0.297,-0.468C0.324,-0.438 0.337,-0.4 0.337,-0.355L0.337,-0.215ZM0.135,-0.295L0.235,-0.295L0.235,-0.353C0.235,-0.372 0.231,-0.387 0.222,-0.397C0.213,-0.406 0.2,-0.411 0.185,-0.411C0.17,-0.411 0.158,-0.406 0.149,-0.397C0.139,-0.387 0.135,-0.372 0.135,-0.353L0.135,-0.295Z" style="fill-rule:nonzero;"/>
            </g>
            <g transform="matrix(13,0,0,13,222.885,46.0209)">
                <path d="M0.235,-0L0.235,-0.052L0.233,-0.052C0.22,-0.033 0.206,-0.019 0.193,-0.009C0.179,0.001 0.16,0.006 0.135,0.006C0.123,0.006 0.111,0.004 0.099,0.001C0.086,-0.003 0.074,-0.01 0.063,-0.02C0.052,-0.029 0.043,-0.043 0.036,-0.061C0.029,-0.078 0.025,-0.101 0.025,-0.129C0.025,-0.158 0.027,-0.183 0.032,-0.205C0.037,-0.226 0.045,-0.244 0.058,-0.259C0.07,-0.273 0.086,-0.284 0.107,-0.291C0.128,-0.298 0.154,-0.301 0.186,-0.301L0.197,-0.301C0.201,-0.301 0.205,-0.301 0.208,-0.3C0.211,-0.299 0.215,-0.299 0.22,-0.299C0.225,-0.299 0.23,-0.299 0.235,-0.298L0.235,-0.351C0.235,-0.368 0.231,-0.383 0.224,-0.394C0.217,-0.405 0.203,-0.411 0.184,-0.411C0.171,-0.411 0.159,-0.407 0.148,-0.398C0.136,-0.389 0.129,-0.377 0.126,-0.36L0.027,-0.36C0.03,-0.405 0.045,-0.442 0.073,-0.47C0.086,-0.483 0.102,-0.494 0.121,-0.502C0.14,-0.509 0.161,-0.513 0.184,-0.513C0.205,-0.513 0.225,-0.51 0.244,-0.503C0.263,-0.496 0.279,-0.486 0.293,-0.473C0.306,-0.46 0.317,-0.443 0.325,-0.423C0.333,-0.403 0.337,-0.38 0.337,-0.353L0.337,-0L0.235,-0ZM0.235,-0.218C0.224,-0.22 0.214,-0.221 0.207,-0.221C0.185,-0.221 0.166,-0.216 0.151,-0.206C0.135,-0.195 0.127,-0.176 0.127,-0.149C0.127,-0.13 0.132,-0.114 0.141,-0.102C0.15,-0.09 0.163,-0.084 0.18,-0.084C0.197,-0.084 0.211,-0.09 0.221,-0.101C0.23,-0.112 0.235,-0.128 0.235,-0.149L0.235,-0.218Z" style="fill-rule:nonzero;"/>
            </g>
            <g transform="matrix(13,0,0,13,227.695,46.0209)">
                <path d="M0.144,-0.165C0.144,-0.144 0.148,-0.128 0.156,-0.115C0.164,-0.102 0.177,-0.096 0.194,-0.096C0.209,-0.096 0.222,-0.102 0.231,-0.114C0.24,-0.125 0.245,-0.14 0.245,-0.159L0.245,-0.356C0.245,-0.372 0.24,-0.385 0.231,-0.396C0.221,-0.406 0.209,-0.411 0.194,-0.411C0.175,-0.411 0.162,-0.405 0.155,-0.393C0.148,-0.381 0.144,-0.367 0.144,-0.351L0.144,-0.165ZM0.245,-0L0.245,-0.046C0.238,-0.039 0.232,-0.032 0.226,-0.026C0.22,-0.019 0.213,-0.014 0.206,-0.009C0.199,-0.004 0.19,-0.001 0.181,0.002C0.172,0.005 0.161,0.006 0.148,0.006C0.105,0.006 0.076,-0.01 0.059,-0.042C0.053,-0.053 0.049,-0.067 0.046,-0.084C0.043,-0.101 0.042,-0.123 0.042,-0.151L0.042,-0.344C0.042,-0.381 0.043,-0.408 0.045,-0.425C0.049,-0.458 0.065,-0.483 0.092,-0.5C0.105,-0.509 0.124,-0.513 0.149,-0.513C0.169,-0.513 0.187,-0.509 0.203,-0.5C0.218,-0.491 0.232,-0.478 0.243,-0.461L0.245,-0.461L0.245,-0.712L0.347,-0.712L0.347,-0L0.245,-0Z" style="fill-rule:nonzero;"/>
            </g>
            <g transform="matrix(13,0,0,13,232.752,46.0209)">
                <path d="M0.042,-0L0.042,-0.507L0.144,-0.507L0.144,-0L0.042,-0ZM0.042,-0.61L0.042,-0.712L0.144,-0.712L0.144,-0.61L0.042,-0.61Z" style="fill-rule:nonzero;"/>
            </g>
            <g transform="matrix(13,0,0,13,235.17,46.0209)">
                <path d="M0.042,-0L0.042,-0.507L0.144,-0.507L0.144,-0.458L0.146,-0.458C0.157,-0.474 0.169,-0.487 0.185,-0.498C0.2,-0.508 0.219,-0.513 0.242,-0.513C0.255,-0.513 0.267,-0.511 0.28,-0.507C0.293,-0.502 0.304,-0.495 0.314,-0.485C0.324,-0.475 0.332,-0.462 0.338,-0.447C0.344,-0.431 0.347,-0.412 0.347,-0.389L0.347,-0L0.245,-0L0.245,-0.351C0.245,-0.37 0.241,-0.384 0.232,-0.395C0.223,-0.406 0.211,-0.411 0.195,-0.411C0.176,-0.411 0.162,-0.405 0.155,-0.393C0.148,-0.381 0.144,-0.364 0.144,-0.341L0.144,-0L0.042,-0Z" style="fill-rule:nonzero;"/>
            </g>
            <g transform="matrix(13,0,0,13,240.227,46.0209)">
                <path d="M0.144,0.059C0.145,0.071 0.15,0.082 0.159,0.093C0.168,0.104 0.181,0.109 0.198,0.109C0.215,0.109 0.227,0.104 0.234,0.094C0.241,0.083 0.245,0.07 0.245,0.054L0.245,-0.046L0.243,-0.046C0.232,-0.029 0.218,-0.017 0.203,-0.008C0.187,0.002 0.169,0.006 0.148,0.006C0.105,0.006 0.076,-0.01 0.059,-0.042C0.053,-0.053 0.049,-0.067 0.046,-0.084C0.043,-0.101 0.042,-0.123 0.042,-0.151L0.042,-0.344C0.042,-0.381 0.043,-0.408 0.045,-0.425C0.049,-0.458 0.065,-0.483 0.092,-0.5C0.105,-0.509 0.124,-0.513 0.149,-0.513C0.162,-0.513 0.173,-0.512 0.182,-0.509C0.191,-0.506 0.199,-0.503 0.206,-0.498C0.213,-0.493 0.22,-0.488 0.226,-0.482C0.232,-0.475 0.238,-0.468 0.245,-0.461L0.245,-0.507L0.347,-0.507L0.347,0.062C0.347,0.079 0.344,0.097 0.339,0.115C0.333,0.132 0.324,0.148 0.311,0.162C0.298,0.177 0.282,0.189 0.263,0.198C0.244,0.206 0.221,0.211 0.194,0.211C0.179,0.211 0.163,0.209 0.146,0.204C0.129,0.199 0.114,0.19 0.1,0.178C0.085,0.167 0.073,0.152 0.063,0.133C0.052,0.114 0.045,0.089 0.042,0.059L0.144,0.059ZM0.144,-0.156C0.144,-0.14 0.148,-0.126 0.155,-0.114C0.162,-0.102 0.175,-0.096 0.194,-0.096C0.209,-0.096 0.221,-0.101 0.231,-0.112C0.24,-0.122 0.245,-0.135 0.245,-0.151L0.245,-0.348C0.245,-0.367 0.24,-0.382 0.231,-0.394C0.222,-0.405 0.209,-0.411 0.194,-0.411C0.177,-0.411 0.164,-0.405 0.156,-0.392C0.148,-0.379 0.144,-0.363 0.144,-0.342L0.144,-0.156Z" style="fill-rule:nonzero;"/>
            </g>
            <g transform="matrix(13,0,0,13,247.702,46.0209)">
                <path d="M0.048,-0L0.048,-0.712L0.146,-0.712L0.277,-0.335L0.279,-0.335L0.409,-0.712L0.508,-0.712L0.508,-0L0.406,-0L0.406,-0.433L0.404,-0.433L0.303,-0.127L0.252,-0.127L0.152,-0.433L0.15,-0.433L0.15,-0L0.048,-0Z" style="fill-rule:nonzero;"/>
            </g>
            <g transform="matrix(13,0,0,13,254.93,46.0209)">
                <path d="M0.235,-0L0.235,-0.052L0.233,-0.052C0.22,-0.033 0.206,-0.019 0.193,-0.009C0.179,0.001 0.16,0.006 0.135,0.006C0.123,0.006 0.111,0.004 0.099,0.001C0.086,-0.003 0.074,-0.01 0.063,-0.02C0.052,-0.029 0.043,-0.043 0.036,-0.061C0.029,-0.078 0.025,-0.101 0.025,-0.129C0.025,-0.158 0.027,-0.183 0.032,-0.205C0.037,-0.226 0.045,-0.244 0.058,-0.259C0.07,-0.273 0.086,-0.284 0.107,-0.291C0.128,-0.298 0.154,-0.301 0.186,-0.301L0.197,-0.301C0.201,-0.301 0.205,-0.301 0.208,-0.3C0.211,-0.299 0.215,-0.299 0.22,-0.299C0.225,-0.299 0.23,-0.299 0.235,-0.298L0.235,-0.351C0.235,-0.368 0.231,-0.383 0.224,-0.394C0.217,-0.405 0.203,-0.411 0.184,-0.411C0.171,-0.411 0.159,-0.407 0.148,-0.398C0.136,-0.389 0.129,-0.377 0.126,-0.36L0.027,-0.36C0.03,-0.405 0.045,-0.442 0.073,-0.47C0.086,-0.483 0.102,-0.494 0.121,-0.502C0.14,-0.509 0.161,-0.513 0.184,-0.513C0.205,-0.513 0.225,-0.51 0.244,-0.503C0.263,-0.496 0.279,-0.486 0.293,-0.473C0.306,-0.46 0.317,-0.443 0.325,-0.423C0.333,-0.403 0.337,-0.38 0.337,-0.353L0.337,-0L0.235,-0ZM0.235,-0.218C0.224,-0.22 0.214,-0.221 0.207,-0.221C0.185,-0.221 0.166,-0.216 0.151,-0.206C0.135,-0.195 0.127,-0.176 0.127,-0.149C0.127,-0.13 0.132,-0.114 0.141,-0.102C0.15,-0.09 0.163,-0.084 0.18,-0.084C0.197,-0.084 0.211,-0.09 0.221,-0.101C0.23,-0.112 0.235,-0.128 0.235,-0.149L0.235,-0.218Z" style="fill-rule:nonzero;"/>
            </g>
            <g transform="matrix(13,0,0,13,259.74,46.0209)">
                <path d="M0.042,-0L0.042,-0.507L0.144,-0.507L0.144,-0.453C0.165,-0.472 0.185,-0.486 0.205,-0.497C0.225,-0.508 0.25,-0.513 0.279,-0.513L0.279,-0.405C0.269,-0.409 0.259,-0.411 0.248,-0.411C0.237,-0.411 0.226,-0.409 0.214,-0.406C0.201,-0.402 0.19,-0.396 0.18,-0.387C0.169,-0.378 0.161,-0.367 0.154,-0.353C0.147,-0.339 0.144,-0.322 0.144,-0.301L0.144,-0L0.042,-0Z" style="fill-rule:nonzero;"/>
            </g>
            <g transform="matrix(13,0,0,13,263.354,46.0209)">
                <path d="M0.042,-0L0.042,-0.712L0.144,-0.712L0.144,-0.286L0.146,-0.286L0.269,-0.507L0.371,-0.507L0.25,-0.301L0.396,-0L0.285,-0L0.193,-0.219L0.144,-0.142L0.144,-0L0.042,-0Z" style="fill-rule:nonzero;"/>
            </g>
            <g transform="matrix(13,0,0,13,268.255,46.0209)">
                <path d="M0.337,-0.215L0.135,-0.215L0.135,-0.146C0.135,-0.13 0.139,-0.118 0.149,-0.109C0.158,-0.1 0.17,-0.096 0.185,-0.096C0.204,-0.096 0.217,-0.102 0.224,-0.113C0.23,-0.124 0.234,-0.136 0.235,-0.147L0.337,-0.147C0.337,-0.102 0.323,-0.066 0.296,-0.039C0.283,-0.025 0.267,-0.014 0.248,-0.006C0.229,0.002 0.208,0.006 0.185,0.006C0.153,0.006 0.126,-0.001 0.104,-0.014C0.081,-0.027 0.064,-0.045 0.052,-0.067C0.045,-0.08 0.04,-0.096 0.037,-0.113C0.034,-0.13 0.033,-0.149 0.033,-0.17L0.033,-0.337C0.033,-0.358 0.034,-0.377 0.037,-0.394C0.04,-0.411 0.045,-0.427 0.052,-0.44C0.064,-0.462 0.081,-0.48 0.104,-0.493C0.126,-0.506 0.153,-0.513 0.185,-0.513C0.208,-0.513 0.23,-0.509 0.249,-0.501C0.268,-0.493 0.284,-0.482 0.297,-0.468C0.324,-0.438 0.337,-0.4 0.337,-0.355L0.337,-0.215ZM0.135,-0.295L0.235,-0.295L0.235,-0.353C0.235,-0.372 0.231,-0.387 0.222,-0.397C0.213,-0.406 0.2,-0.411 0.185,-0.411C0.17,-0.411 0.158,-0.406 0.149,-0.397C0.139,-0.387 0.135,-0.372 0.135,-0.353L0.135,-0.295Z" style="fill-rule:nonzero;"/>
            </g>
            <g transform="matrix(13,0,0,13,273.065,46.0209)">
                <path d="M0.042,-0.507L0.042,-0.661L0.144,-0.661L0.144,-0.507L0.207,-0.507L0.207,-0.427L0.144,-0.427L0.144,-0.146C0.144,-0.134 0.145,-0.125 0.148,-0.118C0.15,-0.111 0.154,-0.106 0.159,-0.103C0.164,-0.1 0.171,-0.098 0.179,-0.097C0.186,-0.096 0.196,-0.096 0.207,-0.096L0.207,-0L0.165,-0C0.142,-0 0.122,-0.004 0.107,-0.011C0.091,-0.018 0.078,-0.028 0.069,-0.039C0.06,-0.05 0.053,-0.063 0.049,-0.078C0.044,-0.092 0.042,-0.106 0.042,-0.119L0.042,-0.427L-0.009,-0.427L-0.009,-0.507L0.042,-0.507Z" style="fill-rule:nonzero;"/>
            </g>
            <g transform="matrix(13,0,0,13,275.717,46.0209)">
                <path d="M0.042,-0L0.042,-0.507L0.144,-0.507L0.144,-0L0.042,-0ZM0.042,-0.61L0.042,-0.712L0.144,-0.712L0.144,-0.61L0.042,-0.61Z" style="fill-rule:nonzero;"/>
            </g>
            <g transform="matrix(13,0,0,13,278.135,46.0209)">
                <path d="M0.042,-0L0.042,-0.507L0.144,-0.507L0.144,-0.458L0.146,-0.458C0.157,-0.474 0.169,-0.487 0.185,-0.498C0.2,-0.508 0.219,-0.513 0.242,-0.513C0.255,-0.513 0.267,-0.511 0.28,-0.507C0.293,-0.502 0.304,-0.495 0.314,-0.485C0.324,-0.475 0.332,-0.462 0.338,-0.447C0.344,-0.431 0.347,-0.412 0.347,-0.389L0.347,-0L0.245,-0L0.245,-0.351C0.245,-0.37 0.241,-0.384 0.232,-0.395C0.223,-0.406 0.211,-0.411 0.195,-0.411C0.176,-0.411 0.162,-0.405 0.155,-0.393C0.148,-0.381 0.144,-0.364 0.144,-0.341L0.144,-0L0.042,-0Z" style="fill-rule:nonzero;"/>
            </g>
            <g transform="matrix(13,0,0,13,283.192,46.0209)">
                <path d="M0.144,0.059C0.145,0.071 0.15,0.082 0.159,0.093C0.168,0.104 0.181,0.109 0.198,0.109C0.215,0.109 0.227,0.104 0.234,0.094C0.241,0.083 0.245,0.07 0.245,0.054L0.245,-0.046L0.243,-0.046C0.232,-0.029 0.218,-0.017 0.203,-0.008C0.187,0.002 0.169,0.006 0.148,0.006C0.105,0.006 0.076,-0.01 0.059,-0.042C0.053,-0.053 0.049,-0.067 0.046,-0.084C0.043,-0.101 0.042,-0.123 0.042,-0.151L0.042,-0.344C0.042,-0.381 0.043,-0.408 0.045,-0.425C0.049,-0.458 0.065,-0.483 0.092,-0.5C0.105,-0.509 0.124,-0.513 0.149,-0.513C0.162,-0.513 0.173,-0.512 0.182,-0.509C0.191,-0.506 0.199,-0.503 0.206,-0.498C0.213,-0.493 0.22,-0.488 0.226,-0.482C0.232,-0.475 0.238,-0.468 0.245,-0.461L0.245,-0.507L0.347,-0.507L0.347,0.062C0.347,0.079 0.344,0.097 0.339,0.115C0.333,0.132 0.324,0.148 0.311,0.162C0.298,0.177 0.282,0.189 0.263,0.198C0.244,0.206 0.221,0.211 0.194,0.211C0.179,0.211 0.163,0.209 0.146,0.204C0.129,0.199 0.114,0.19 0.1,0.178C0.085,0.167 0.073,0.152 0.063,0.133C0.052,0.114 0.045,0.089 0.042,0.059L0.144,0.059ZM0.144,-0.156C0.144,-0.14 0.148,-0.126 0.155,-0.114C0.162,-0.102 0.175,-0.096 0.194,-0.096C0.209,-0.096 0.221,-0.101 0.231,-0.112C0.24,-0.122 0.245,-0.135 0.245,-0.151L0.245,-0.348C0.245,-0.367 0.24,-0.382 0.231,-0.394C0.222,-0.405 0.209,-0.411 0.194,-0.411C0.177,-0.411 0.164,-0.405 0.156,-0.392C0.148,-0.379 0.144,-0.363 0.144,-0.342L0.144,-0.156Z" style="fill-rule:nonzero;"/>
            </g>
            <g transform="matrix(13,0,0,13,290.667,46.0209)">
                <path d="M0.353,-0L0.319,-0.054C0.299,-0.034 0.278,-0.019 0.257,-0.009C0.236,0.001 0.211,0.006 0.183,0.006C0.163,0.006 0.144,0.002 0.126,-0.006C0.108,-0.014 0.092,-0.025 0.079,-0.04C0.066,-0.054 0.055,-0.071 0.048,-0.092C0.04,-0.112 0.036,-0.134 0.036,-0.159C0.036,-0.198 0.045,-0.233 0.064,-0.262C0.083,-0.291 0.106,-0.319 0.134,-0.344C0.116,-0.369 0.101,-0.396 0.09,-0.423C0.078,-0.45 0.072,-0.478 0.072,-0.508C0.072,-0.527 0.075,-0.545 0.081,-0.562C0.087,-0.579 0.096,-0.593 0.107,-0.606C0.118,-0.618 0.133,-0.628 0.15,-0.635C0.167,-0.642 0.188,-0.646 0.211,-0.646C0.233,-0.646 0.252,-0.643 0.269,-0.636C0.286,-0.628 0.3,-0.619 0.311,-0.608C0.334,-0.583 0.346,-0.553 0.346,-0.517C0.346,-0.483 0.336,-0.451 0.315,-0.421C0.294,-0.391 0.27,-0.363 0.242,-0.338C0.249,-0.329 0.256,-0.318 0.263,-0.306C0.27,-0.294 0.277,-0.281 0.286,-0.268C0.303,-0.239 0.319,-0.213 0.336,-0.189L0.391,-0.264L0.454,-0.22L0.378,-0.122L0.455,-0L0.353,-0ZM0.126,-0.164C0.126,-0.139 0.133,-0.118 0.148,-0.101C0.162,-0.083 0.18,-0.074 0.202,-0.074C0.217,-0.074 0.232,-0.079 0.246,-0.089C0.26,-0.098 0.271,-0.108 0.278,-0.117L0.18,-0.273C0.165,-0.258 0.152,-0.241 0.142,-0.224C0.131,-0.206 0.126,-0.186 0.126,-0.164ZM0.162,-0.506C0.162,-0.491 0.166,-0.474 0.173,-0.457C0.18,-0.439 0.19,-0.421 0.201,-0.403C0.207,-0.409 0.214,-0.416 0.221,-0.424C0.228,-0.431 0.235,-0.44 0.241,-0.449C0.247,-0.458 0.252,-0.468 0.256,-0.48C0.26,-0.491 0.262,-0.502 0.262,-0.515C0.262,-0.528 0.258,-0.539 0.249,-0.55C0.24,-0.561 0.228,-0.566 0.213,-0.566C0.198,-0.566 0.185,-0.56 0.176,-0.548C0.167,-0.535 0.162,-0.521 0.162,-0.506Z" style="fill-rule:nonzero;"/>
            </g>
            <g transform="matrix(13,0,0,13,213.265,61.6209)">
                <path d="M0.048,-0L0.048,-0.712L0.146,-0.712L0.277,-0.335L0.279,-0.335L0.409,-0.712L0.508,-0.712L0.508,-0L0.406,-0L0.406,-0.433L0.404,-0.433L0.303,-0.127L0.252,-0.127L0.152,-0.433L0.15,-0.433L0.15,-0L0.048,-0Z" style="fill-rule:nonzero;"/>
            </g>
            <g transform="matrix(13,0,0,13,220.493,61.6209)">
                <path d="M0.337,-0.215L0.135,-0.215L0.135,-0.146C0.135,-0.13 0.139,-0.118 0.149,-0.109C0.158,-0.1 0.17,-0.096 0.185,-0.096C0.204,-0.096 0.217,-0.102 0.224,-0.113C0.23,-0.124 0.234,-0.136 0.235,-0.147L0.337,-0.147C0.337,-0.102 0.323,-0.066 0.296,-0.039C0.283,-0.025 0.267,-0.014 0.248,-0.006C0.229,0.002 0.208,0.006 0.185,0.006C0.153,0.006 0.126,-0.001 0.104,-0.014C0.081,-0.027 0.064,-0.045 0.052,-0.067C0.045,-0.08 0.04,-0.096 0.037,-0.113C0.034,-0.13 0.033,-0.149 0.033,-0.17L0.033,-0.337C0.033,-0.358 0.034,-0.377 0.037,-0.394C0.04,-0.411 0.045,-0.427 0.052,-0.44C0.064,-0.462 0.081,-0.48 0.104,-0.493C0.126,-0.506 0.153,-0.513 0.185,-0.513C0.208,-0.513 0.23,-0.509 0.249,-0.501C0.268,-0.493 0.284,-0.482 0.297,-0.468C0.324,-0.438 0.337,-0.4 0.337,-0.355L0.337,-0.215ZM0.135,-0.295L0.235,-0.295L0.235,-0.353C0.235,-0.372 0.231,-0.387 0.222,-0.397C0.213,-0.406 0.2,-0.411 0.185,-0.411C0.17,-0.411 0.158,-0.406 0.149,-0.397C0.139,-0.387 0.135,-0.372 0.135,-0.353L0.135,-0.295Z" style="fill-rule:nonzero;"/>
            </g>
            <g transform="matrix(13,0,0,13,225.303,61.6209)">
                <path d="M0.144,-0.165C0.144,-0.144 0.148,-0.128 0.156,-0.115C0.164,-0.102 0.177,-0.096 0.194,-0.096C0.209,-0.096 0.222,-0.102 0.231,-0.114C0.24,-0.125 0.245,-0.14 0.245,-0.159L0.245,-0.356C0.245,-0.372 0.24,-0.385 0.231,-0.396C0.221,-0.406 0.209,-0.411 0.194,-0.411C0.175,-0.411 0.162,-0.405 0.155,-0.393C0.148,-0.381 0.144,-0.367 0.144,-0.351L0.144,-0.165ZM0.245,-0L0.245,-0.046C0.238,-0.039 0.232,-0.032 0.226,-0.026C0.22,-0.019 0.213,-0.014 0.206,-0.009C0.199,-0.004 0.19,-0.001 0.181,0.002C0.172,0.005 0.161,0.006 0.148,0.006C0.105,0.006 0.076,-0.01 0.059,-0.042C0.053,-0.053 0.049,-0.067 0.046,-0.084C0.043,-0.101 0.042,-0.123 0.042,-0.151L0.042,-0.344C0.042,-0.381 0.043,-0.408 0.045,-0.425C0.049,-0.458 0.065,-0.483 0.092,-0.5C0.105,-0.509 0.124,-0.513 0.149,-0.513C0.169,-0.513 0.187,-0.509 0.203,-0.5C0.218,-0.491 0.232,-0.478 0.243,-0.461L0.245,-0.461L0.245,-0.712L0.347,-0.712L0.347,-0L0.245,-0Z" style="fill-rule:nonzero;"/>
            </g>
            <g transform="matrix(13,0,0,13,230.36,61.6209)">
                <path d="M0.042,-0L0.042,-0.507L0.144,-0.507L0.144,-0L0.042,-0ZM0.042,-0.61L0.042,-0.712L0.144,-0.712L0.144,-0.61L0.042,-0.61Z" style="fill-rule:nonzero;"/>
            </g>
            <g transform="matrix(13,0,0,13,232.778,61.6209)">
                <path d="M0.235,-0L0.235,-0.052L0.233,-0.052C0.22,-0.033 0.206,-0.019 0.193,-0.009C0.179,0.001 0.16,0.006 0.135,0.006C0.123,0.006 0.111,0.004 0.099,0.001C0.086,-0.003 0.074,-0.01 0.063,-0.02C0.052,-0.029 0.043,-0.043 0.036,-0.061C0.029,-0.078 0.025,-0.101 0.025,-0.129C0.025,-0.158 0.027,-0.183 0.032,-0.205C0.037,-0.226 0.045,-0.244 0.058,-0.259C0.07,-0.273 0.086,-0.284 0.107,-0.291C0.128,-0.298 0.154,-0.301 0.186,-0.301L0.197,-0.301C0.201,-0.301 0.205,-0.301 0.208,-0.3C0.211,-0.299 0.215,-0.299 0.22,-0.299C0.225,-0.299 0.23,-0.299 0.235,-0.298L0.235,-0.351C0.235,-0.368 0.231,-0.383 0.224,-0.394C0.217,-0.405 0.203,-0.411 0.184,-0.411C0.171,-0.411 0.159,-0.407 0.148,-0.398C0.136,-0.389 0.129,-0.377 0.126,-0.36L0.027,-0.36C0.03,-0.405 0.045,-0.442 0.073,-0.47C0.086,-0.483 0.102,-0.494 0.121,-0.502C0.14,-0.509 0.161,-0.513 0.184,-0.513C0.205,-0.513 0.225,-0.51 0.244,-0.503C0.263,-0.496 0.279,-0.486 0.293,-0.473C0.306,-0.46 0.317,-0.443 0.325,-0.423C0.333,-0.403 0.337,-0.38 0.337,-0.353L0.337,-0L0.235,-0ZM0.235,-0.218C0.224,-0.22 0.214,-0.221 0.207,-0.221C0.185,-0.221 0.166,-0.216 0.151,-0.206C0.135,-0.195 0.127,-0.176 0.127,-0.149C0.127,-0.13 0.132,-0.114 0.141,-0.102C0.15,-0.09 0.163,-0.084 0.18,-0.084C0.197,-0.084 0.211,-0.09 0.221,-0.101C0.23,-0.112 0.235,-0.128 0.235,-0.149L0.235,-0.218Z" style="fill-rule:nonzero;"/>
            </g>
            <g transform="matrix(13,0,0,13,240.006,61.6209)">
                <path d="M0.378,-0.507L0.276,-0.507L0.276,-0.53C0.276,-0.553 0.271,-0.574 0.26,-0.591C0.249,-0.608 0.23,-0.616 0.204,-0.616C0.19,-0.616 0.179,-0.613 0.17,-0.608C0.161,-0.603 0.154,-0.596 0.149,-0.588C0.144,-0.579 0.14,-0.57 0.138,-0.559C0.136,-0.548 0.135,-0.536 0.135,-0.524C0.135,-0.51 0.136,-0.498 0.137,-0.489C0.138,-0.48 0.14,-0.471 0.144,-0.464C0.148,-0.457 0.154,-0.45 0.162,-0.445C0.169,-0.44 0.18,-0.434 0.193,-0.429L0.271,-0.398C0.294,-0.389 0.312,-0.379 0.326,-0.368C0.34,-0.356 0.351,-0.342 0.359,-0.327C0.366,-0.311 0.371,-0.293 0.374,-0.273C0.377,-0.252 0.378,-0.229 0.378,-0.203C0.378,-0.173 0.375,-0.145 0.369,-0.12C0.363,-0.094 0.353,-0.072 0.34,-0.054C0.326,-0.035 0.308,-0.021 0.285,-0.01C0.262,0.001 0.235,0.006 0.202,0.006C0.177,0.006 0.154,0.002 0.133,-0.007C0.112,-0.016 0.093,-0.028 0.078,-0.043C0.063,-0.058 0.05,-0.076 0.042,-0.097C0.033,-0.117 0.028,-0.139 0.028,-0.163L0.028,-0.201L0.13,-0.201L0.13,-0.169C0.13,-0.15 0.135,-0.134 0.147,-0.119C0.158,-0.103 0.176,-0.096 0.202,-0.096C0.219,-0.096 0.233,-0.098 0.243,-0.104C0.252,-0.109 0.26,-0.116 0.265,-0.125C0.27,-0.134 0.274,-0.146 0.275,-0.159C0.276,-0.171 0.276,-0.186 0.276,-0.202C0.276,-0.221 0.275,-0.236 0.274,-0.248C0.273,-0.26 0.27,-0.27 0.266,-0.277C0.261,-0.284 0.255,-0.29 0.248,-0.295C0.24,-0.3 0.23,-0.305 0.217,-0.31L0.144,-0.34C0.1,-0.358 0.07,-0.382 0.056,-0.412C0.041,-0.441 0.033,-0.478 0.033,-0.523C0.033,-0.55 0.037,-0.575 0.044,-0.599C0.051,-0.623 0.062,-0.644 0.077,-0.661C0.091,-0.678 0.109,-0.692 0.131,-0.703C0.152,-0.713 0.178,-0.718 0.208,-0.718C0.233,-0.718 0.257,-0.713 0.278,-0.704C0.299,-0.695 0.317,-0.682 0.332,-0.667C0.363,-0.635 0.378,-0.598 0.378,-0.557L0.378,-0.507Z" style="fill-rule:nonzero;"/>
            </g>
            <g transform="matrix(13,0,0,13,245.284,61.6209)">
                <path d="M0.033,-0.337C0.033,-0.358 0.034,-0.377 0.037,-0.394C0.04,-0.411 0.045,-0.427 0.052,-0.44C0.064,-0.462 0.081,-0.48 0.104,-0.493C0.126,-0.506 0.153,-0.513 0.185,-0.513C0.217,-0.513 0.244,-0.506 0.267,-0.493C0.289,-0.48 0.306,-0.462 0.318,-0.44C0.325,-0.427 0.33,-0.411 0.333,-0.394C0.336,-0.377 0.337,-0.358 0.337,-0.337L0.337,-0.17C0.337,-0.149 0.336,-0.13 0.333,-0.113C0.33,-0.096 0.325,-0.08 0.318,-0.067C0.306,-0.045 0.289,-0.027 0.267,-0.014C0.244,-0.001 0.217,0.006 0.185,0.006C0.153,0.006 0.126,-0.001 0.104,-0.014C0.081,-0.027 0.064,-0.045 0.052,-0.067C0.045,-0.08 0.04,-0.096 0.037,-0.113C0.034,-0.13 0.033,-0.149 0.033,-0.17L0.033,-0.337ZM0.135,-0.154C0.135,-0.135 0.139,-0.12 0.149,-0.111C0.158,-0.101 0.17,-0.096 0.185,-0.096C0.2,-0.096 0.213,-0.101 0.222,-0.111C0.231,-0.12 0.235,-0.135 0.235,-0.154L0.235,-0.353C0.235,-0.372 0.231,-0.387 0.222,-0.397C0.213,-0.406 0.2,-0.411 0.185,-0.411C0.17,-0.411 0.158,-0.406 0.149,-0.397C0.139,-0.387 0.135,-0.372 0.135,-0.353L0.135,-0.154Z" style="fill-rule:nonzero;"/>
            </g>
            <g transform="matrix(13,0,0,13,250.094,61.6209)">
                <path d="M0.036,-0.712L0.138,-0.712L0.138,-0.143C0.138,-0.124 0.141,-0.111 0.149,-0.104C0.156,-0.096 0.169,-0.092 0.188,-0.09L0.188,0.006C0.165,0.006 0.144,0.004 0.125,0.001C0.106,-0.003 0.09,-0.01 0.077,-0.021C0.064,-0.031 0.054,-0.045 0.047,-0.064C0.04,-0.082 0.036,-0.106 0.036,-0.136L0.036,-0.712Z" style="fill-rule:nonzero;"/>
            </g>
            <g transform="matrix(13,0,0,13,252.512,61.6209)">
                <path d="M0.347,-0.507L0.347,-0L0.245,-0L0.245,-0.049L0.243,-0.049C0.232,-0.033 0.22,-0.02 0.205,-0.01C0.19,0.001 0.17,0.006 0.147,0.006C0.134,0.006 0.122,0.004 0.109,-0.001C0.096,-0.005 0.085,-0.012 0.075,-0.022C0.065,-0.032 0.057,-0.045 0.051,-0.061C0.045,-0.076 0.042,-0.095 0.042,-0.118L0.042,-0.507L0.144,-0.507L0.144,-0.156C0.144,-0.137 0.148,-0.123 0.157,-0.112C0.166,-0.101 0.178,-0.096 0.194,-0.096C0.213,-0.096 0.227,-0.102 0.234,-0.114C0.241,-0.126 0.245,-0.143 0.245,-0.166L0.245,-0.507L0.347,-0.507Z" style="fill-rule:nonzero;"/>
            </g>
            <g transform="matrix(13,0,0,13,257.569,61.6209)">
                <path d="M0.042,-0.507L0.042,-0.661L0.144,-0.661L0.144,-0.507L0.207,-0.507L0.207,-0.427L0.144,-0.427L0.144,-0.146C0.144,-0.134 0.145,-0.125 0.148,-0.118C0.15,-0.111 0.154,-0.106 0.159,-0.103C0.164,-0.1 0.171,-0.098 0.179,-0.097C0.186,-0.096 0.196,-0.096 0.207,-0.096L0.207,-0L0.165,-0C0.142,-0 0.122,-0.004 0.107,-0.011C0.091,-0.018 0.078,-0.028 0.069,-0.039C0.06,-0.05 0.053,-0.063 0.049,-0.078C0.044,-0.092 0.042,-0.106 0.042,-0.119L0.042,-0.427L-0.009,-0.427L-0.009,-0.507L0.042,-0.507Z" style="fill-rule:nonzero;"/>
            </g>
            <g transform="matrix(13,0,0,13,260.221,61.6209)">
                <path d="M0.042,-0L0.042,-0.507L0.144,-0.507L0.144,-0L0.042,-0ZM0.042,-0.61L0.042,-0.712L0.144,-0.712L0.144,-0.61L0.042,-0.61Z" style="fill-rule:nonzero;"/>
            </g>
            <g transform="matrix(13,0,0,13,262.639,61.6209)">
                <path d="M0.033,-0.337C0.033,-0.358 0.034,-0.377 0.037,-0.394C0.04,-0.411 0.045,-0.427 0.052,-0.44C0.064,-0.462 0.081,-0.48 0.104,-0.493C0.126,-0.506 0.153,-0.513 0.185,-0.513C0.217,-0.513 0.244,-0.506 0.267,-0.493C0.289,-0.48 0.306,-0.462 0.318,-0.44C0.325,-0.427 0.33,-0.411 0.333,-0.394C0.336,-0.377 0.337,-0.358 0.337,-0.337L0.337,-0.17C0.337,-0.149 0.336,-0.13 0.333,-0.113C0.33,-0.096 0.325,-0.08 0.318,-0.067C0.306,-0.045 0.289,-0.027 0.267,-0.014C0.244,-0.001 0.217,0.006 0.185,0.006C0.153,0.006 0.126,-0.001 0.104,-0.014C0.081,-0.027 0.064,-0.045 0.052,-0.067C0.045,-0.08 0.04,-0.096 0.037,-0.113C0.034,-0.13 0.033,-0.149 0.033,-0.17L0.033,-0.337ZM0.135,-0.154C0.135,-0.135 0.139,-0.12 0.149,-0.111C0.158,-0.101 0.17,-0.096 0.185,-0.096C0.2,-0.096 0.213,-0.101 0.222,-0.111C0.231,-0.12 0.235,-0.135 0.235,-0.154L0.235,-0.353C0.235,-0.372 0.231,-0.387 0.222,-0.397C0.213,-0.406 0.2,-0.411 0.185,-0.411C0.17,-0.411 0.158,-0.406 0.149,-0.397C0.139,-0.387 0.135,-0.372 0.135,-0.353L0.135,-0.154Z" style="fill-rule:nonzero;"/>
            </g>
            <g transform="matrix(13,0,0,13,267.449,61.6209)">
                <path d="M0.042,-0L0.042,-0.507L0.144,-0.507L0.144,-0.458L0.146,-0.458C0.157,-0.474 0.169,-0.487 0.185,-0.498C0.2,-0.508 0.219,-0.513 0.242,-0.513C0.255,-0.513 0.267,-0.511 0.28,-0.507C0.293,-0.502 0.304,-0.495 0.314,-0.485C0.324,-0.475 0.332,-0.462 0.338,-0.447C0.344,-0.431 0.347,-0.412 0.347,-0.389L0.347,-0L0.245,-0L0.245,-0.351C0.245,-0.37 0.241,-0.384 0.232,-0.395C0.223,-0.406 0.211,-0.411 0.195,-0.411C0.176,-0.411 0.162,-0.405 0.155,-0.393C0.148,-0.381 0.144,-0.364 0.144,-0.341L0.144,-0L0.042,-0Z" style="fill-rule:nonzero;"/>
            </g>
            <g transform="matrix(13,0,0,13,272.506,61.6209)">
                <path d="M0.227,-0.365C0.226,-0.382 0.221,-0.395 0.211,-0.404C0.2,-0.413 0.188,-0.417 0.175,-0.417C0.159,-0.417 0.147,-0.412 0.138,-0.402C0.129,-0.391 0.125,-0.379 0.125,-0.366C0.125,-0.357 0.127,-0.347 0.132,-0.339C0.137,-0.33 0.149,-0.321 0.168,-0.314L0.228,-0.29C0.266,-0.275 0.292,-0.255 0.307,-0.23C0.321,-0.205 0.328,-0.177 0.328,-0.147C0.328,-0.126 0.324,-0.106 0.317,-0.088C0.309,-0.069 0.298,-0.053 0.285,-0.039C0.272,-0.025 0.256,-0.014 0.237,-0.006C0.218,0.002 0.198,0.006 0.176,0.006C0.135,0.006 0.1,-0.007 0.072,-0.033C0.058,-0.046 0.047,-0.062 0.038,-0.081C0.029,-0.099 0.025,-0.122 0.024,-0.147L0.12,-0.147C0.122,-0.133 0.127,-0.12 0.135,-0.108C0.142,-0.096 0.156,-0.09 0.175,-0.09C0.19,-0.09 0.203,-0.095 0.215,-0.105C0.226,-0.114 0.232,-0.128 0.232,-0.145C0.232,-0.159 0.228,-0.171 0.221,-0.181C0.214,-0.191 0.2,-0.2 0.181,-0.207L0.132,-0.225C0.1,-0.237 0.075,-0.255 0.057,-0.279C0.038,-0.302 0.029,-0.331 0.029,-0.365C0.029,-0.386 0.033,-0.406 0.041,-0.425C0.049,-0.443 0.06,-0.459 0.074,-0.472C0.087,-0.485 0.103,-0.496 0.121,-0.503C0.139,-0.51 0.158,-0.513 0.179,-0.513C0.2,-0.513 0.219,-0.509 0.237,-0.502C0.254,-0.495 0.269,-0.484 0.282,-0.471C0.295,-0.458 0.305,-0.442 0.312,-0.424C0.319,-0.405 0.323,-0.386 0.323,-0.365L0.227,-0.365Z" style="fill-rule:nonzero;"/>
            </g>
            <g transform="matrix(13,0,0,13,279.5,61.6209)">
                <path d="M0.254,-0.249L0.204,-0.507L0.202,-0.507L0.152,-0.249L0.254,-0.249ZM0.002,-0L0.161,-0.712L0.246,-0.712L0.405,-0L0.303,-0L0.273,-0.153L0.134,-0.153L0.104,-0L0.002,-0Z" style="fill-rule:nonzero;"/>
            </g>
            <g transform="matrix(13,0,0,13,284.791,61.6209)">
                <path d="M0.144,0.059C0.145,0.071 0.15,0.082 0.159,0.093C0.168,0.104 0.181,0.109 0.198,0.109C0.215,0.109 0.227,0.104 0.234,0.094C0.241,0.083 0.245,0.07 0.245,0.054L0.245,-0.046L0.243,-0.046C0.232,-0.029 0.218,-0.017 0.203,-0.008C0.187,0.002 0.169,0.006 0.148,0.006C0.105,0.006 0.076,-0.01 0.059,-0.042C0.053,-0.053 0.049,-0.067 0.046,-0.084C0.043,-0.101 0.042,-0.123 0.042,-0.151L0.042,-0.344C0.042,-0.381 0.043,-0.408 0.045,-0.425C0.049,-0.458 0.065,-0.483 0.092,-0.5C0.105,-0.509 0.124,-0.513 0.149,-0.513C0.162,-0.513 0.173,-0.512 0.182,-0.509C0.191,-0.506 0.199,-0.503 0.206,-0.498C0.213,-0.493 0.22,-0.488 0.226,-0.482C0.232,-0.475 0.238,-0.468 0.245,-0.461L0.245,-0.507L0.347,-0.507L0.347,0.062C0.347,0.079 0.344,0.097 0.339,0.115C0.333,0.132 0.324,0.148 0.311,0.162C0.298,0.177 0.282,0.189 0.263,0.198C0.244,0.206 0.221,0.211 0.194,0.211C0.179,0.211 0.163,0.209 0.146,0.204C0.129,0.199 0.114,0.19 0.1,0.178C0.085,0.167 0.073,0.152 0.063,0.133C0.052,0.114 0.045,0.089 0.042,0.059L0.144,0.059ZM0.144,-0.156C0.144,-0.14 0.148,-0.126 0.155,-0.114C0.162,-0.102 0.175,-0.096 0.194,-0.096C0.209,-0.096 0.221,-0.101 0.231,-0.112C0.24,-0.122 0.245,-0.135 0.245,-0.151L0.245,-0.348C0.245,-0.367 0.24,-0.382 0.231,-0.394C0.222,-0.405 0.209,-0.411 0.194,-0.411C0.177,-0.411 0.164,-0.405 0.156,-0.392C0.148,-0.379 0.144,-0.363 0.144,-0.342L0.144,-0.156Z" style="fill-rule:nonzero;"/>
            </g>
            <g transform="matrix(13,0,0,13,289.848,61.6209)">
                <path d="M0.337,-0.215L0.135,-0.215L0.135,-0.146C0.135,-0.13 0.139,-0.118 0.149,-0.109C0.158,-0.1 0.17,-0.096 0.185,-0.096C0.204,-0.096 0.217,-0.102 0.224,-0.113C0.23,-0.124 0.234,-0.136 0.235,-0.147L0.337,-0.147C0.337,-0.102 0.323,-0.066 0.296,-0.039C0.283,-0.025 0.267,-0.014 0.248,-0.006C0.229,0.002 0.208,0.006 0.185,0.006C0.153,0.006 0.126,-0.001 0.104,-0.014C0.081,-0.027 0.064,-0.045 0.052,-0.067C0.045,-0.08 0.04,-0.096 0.037,-0.113C0.034,-0.13 0.033,-0.149 0.033,-0.17L0.033,-0.337C0.033,-0.358 0.034,-0.377 0.037,-0.394C0.04,-0.411 0.045,-0.427 0.052,-0.44C0.064,-0.462 0.081,-0.48 0.104,-0.493C0.126,-0.506 0.153,-0.513 0.185,-0.513C0.208,-0.513 0.23,-0.509 0.249,-0.501C0.268,-0.493 0.284,-0.482 0.297,-0.468C0.324,-0.438 0.337,-0.4 0.337,-0.355L0.337,-0.215ZM0.135,-0.295L0.235,-0.295L0.235,-0.353C0.235,-0.372 0.231,-0.387 0.222,-0.397C0.213,-0.406 0.2,-0.411 0.185,-0.411C0.17,-0.411 0.158,-0.406 0.149,-0.397C0.139,-0.387 0.135,-0.372 0.135,-0.353L0.135,-0.295Z" style="fill-rule:nonzero;"/>
            </g>
            <g transform="matrix(13,0,0,13,294.658,61.6209)">
                <path d="M0.042,-0L0.042,-0.507L0.144,-0.507L0.144,-0.458L0.146,-0.458C0.157,-0.474 0.169,-0.487 0.185,-0.498C0.2,-0.508 0.219,-0.513 0.242,-0.513C0.255,-0.513 0.267,-0.511 0.28,-0.507C0.293,-0.502 0.304,-0.495 0.314,-0.485C0.324,-0.475 0.332,-0.462 0.338,-0.447C0.344,-0.431 0.347,-0.412 0.347,-0.389L0.347,-0L0.245,-0L0.245,-0.351C0.245,-0.37 0.241,-0.384 0.232,-0.395C0.223,-0.406 0.211,-0.411 0.195,-0.411C0.176,-0.411 0.162,-0.405 0.155,-0.393C0.148,-0.381 0.144,-0.364 0.144,-0.341L0.144,-0L0.042,-0Z" style="fill-rule:nonzero;"/>
            </g>
            <g transform="matrix(13,0,0,13,299.715,61.6209)">
                <path d="M0.15,-0.146C0.15,-0.13 0.155,-0.118 0.164,-0.109C0.172,-0.1 0.185,-0.096 0.2,-0.096C0.219,-0.096 0.232,-0.102 0.239,-0.113C0.245,-0.124 0.249,-0.136 0.25,-0.147L0.352,-0.147C0.352,-0.102 0.338,-0.066 0.311,-0.039C0.298,-0.025 0.282,-0.014 0.263,-0.006C0.244,0.002 0.223,0.006 0.2,0.006C0.168,0.006 0.141,-0.001 0.119,-0.014C0.096,-0.027 0.079,-0.045 0.067,-0.067C0.06,-0.08 0.055,-0.096 0.052,-0.113C0.049,-0.13 0.048,-0.149 0.048,-0.17L0.048,-0.337C0.048,-0.358 0.049,-0.377 0.052,-0.394C0.055,-0.411 0.06,-0.427 0.067,-0.44C0.079,-0.462 0.096,-0.48 0.119,-0.493C0.141,-0.506 0.168,-0.513 0.2,-0.513C0.223,-0.513 0.245,-0.509 0.264,-0.501C0.282,-0.493 0.299,-0.482 0.312,-0.468C0.339,-0.438 0.352,-0.399 0.352,-0.351L0.25,-0.351C0.25,-0.372 0.246,-0.387 0.237,-0.397C0.228,-0.406 0.215,-0.411 0.2,-0.411C0.185,-0.411 0.172,-0.406 0.164,-0.397C0.155,-0.387 0.15,-0.372 0.15,-0.353L0.15,-0.146Z" style="fill-rule:nonzero;"/>
            </g>
            <g transform="matrix(13,0,0,13,304.291,61.6209)">
                <path d="M-0.001,-0.507L0.107,-0.507L0.177,-0.191L0.179,-0.191L0.248,-0.507L0.353,-0.507L0.207,0.088C0.202,0.111 0.194,0.129 0.185,0.144C0.175,0.159 0.164,0.171 0.151,0.18C0.138,0.189 0.125,0.196 0.111,0.2C0.096,0.203 0.081,0.205 0.066,0.205L0.038,0.205L0.038,0.109L0.061,0.109C0.071,0.109 0.08,0.108 0.087,0.105C0.094,0.102 0.101,0.096 0.107,0.087C0.112,0.078 0.117,0.065 0.122,0.048C0.127,0.031 0.132,0.007 0.138,-0.023L-0.001,-0.507Z" style="fill-rule:nonzero;"/>
            </g>
        </g>
    </g>
</svg>
