<?xml version="1.0" encoding="utf-8"?>
<!-- Generator: Adobe Illustrator 26.5.0, SVG Export Plug-In . SVG Version: 6.00 Build 0)  -->
<svg version="1.1" id="レイヤー_1" xmlns="http://www.w3.org/2000/svg" xmlns:xlink="http://www.w3.org/1999/xlink" x="0px"
	 y="0px" viewBox="0 0 515.9 177.7" style="enable-background:new 0 0 515.9 177.7;" xml:space="preserve">
<style type="text/css">
	.st0{fill:#E50012;}
	.st1{fill:#FFFFFF;}
</style>
<g>
	<g>
		<path class="st0" d="M492.4,151.5c-1.2-1.4-3.3-2.7-6.3-3.8c-0.5-0.2-1.2-0.4-2.1-0.8c-2.8-1-4.2-2-4.2-3.1c0-0.7,0.3-1.2,0.8-1.6
			c0.5-0.4,1.2-0.6,2.2-0.6c0.9,0,1.5,0.3,2,0.8c0.5,0.5,0.6,1,0.6,1c0,0.1,0,0.1,0,0.1c0.1,0.7,0.3,1.1,1.4,1h5.3
			c1.1,0,1.3-0.4,1.4-1c0-0.1,0-0.6,0-0.7c-0.3-2.3-1.3-3.7-3-5.1c-2-1.7-4.7-2.5-8-2.5c-3.4,0-6,0.9-7.9,2.7
			c-1.9,1.8-2.9,4.2-2.9,7.2c0,1.5,0.3,2.8,0.9,4c0.6,1.2,1.4,2.1,2.4,2.8c1.2,0.8,2.9,1.6,5,2.4c0.4,0.2,0.7,0.3,0.9,0.3
			c0.1,0.1,0.3,0.1,0.5,0.2c2.7,1.1,4.1,2.2,4.1,3.3c0,0.7-0.3,1.2-0.8,1.7c-0.5,0.4-1.2,0.6-2.1,0.6c-1,0-1.7-0.3-2.3-0.8
			c-0.5-0.5-0.6-1-0.6-1c0-0.1,0-0.1,0-0.2c0-0.2,0-0.3,0-0.4c0-0.6-0.4-0.9-1-0.9h-6.4c-0.6,0-1,0.3-1,0.9c0,0.2,0,0.2,0,0.4
			c0.1,0.7,0.3,1.4,0.5,2.1c0.5,1.6,1.3,3,2.5,4c2,1.7,4.8,2.5,8.4,2.5c3.6,0,6.4-0.9,8.5-2.7c2-1.8,3.1-4.3,3.1-7.4
			C494.2,154.7,493.6,152.9,492.4,151.5z"/>
	</g>
	<g>
		<g>
			<g>
				<path class="st1" d="M196.8,57.9c3.3-4.5,5-10.4,5-17.6c0-5.2-1.8-11.3-4-14.8c-2.1-3.5-4.3-6.3-7.9-8.5
					c-3.6-2.2-7.4-3.8-11.6-4.5c-4.1-0.6-9.9-1-9.9-1c-2.6-0.1-7-0.3-9.7-0.3h-30.9c-2.7,0-4.9,2.2-4.9,4.8v94.6
					c0,2.7,2.2,4.8,4.9,4.8h15.3c2.7,0,4.8-2.2,4.8-4.8V80.1c0-2.7,2.2-4.8,4.9-4.8h0.5c2.7,0,5.9,1.9,7.2,4.2l17.7,31.7
					c1.3,2.3,4.6,4.2,7.2,4.2l20.2,0c2.7,0,3.7-1.8,2.3-4.1l-22.9-37.9c-1.4-2.3-0.6-5.3,1.6-6.7C186.7,66.6,193.4,62.4,196.8,57.9z
					 M174.5,49.8c-0.8,1.6-2,3.1-3.7,4.5c-1.8,1.4-4,2.3-6.7,2.7c-2.6,0.4-5,0.4-5,0.4c-2.7,0.1-2.2,0.1-4.8,0.1h-1.5
					c-2.7,0-4.9-2.2-4.9-4.8V34.5c0-2.7,2.2-4.8,4.9-4.8h2.9c2.7,0,2.2,0,4.9,0.1c0,0,0.7,0,2.9,0.2c2.2,0.1,4.1,0.6,5.8,1.3
					c2.4,1,4.1,2.4,5.1,4.1c1,1.7,1.5,5.6,1.5,8C175.7,46,175.3,48.2,174.5,49.8z"/>
			</g>
			<path class="st1" d="M259.8,11.2c-2.4,0-9.8,0-12.2,0h-1.2c-2.4,0-4.9,2.1-5.7,4.6l-27.9,95c-0.8,2.5,0.6,4.6,3,4.6h16.9
				c2.4,0,4.9-2.1,5.7-4.6l3.6-12.2c0.8-2.5,3.3-4.6,5.7-4.6h27.8c2.4,0,5,2.1,5.7,4.6l3.6,12.2c0.7,2.5,3.3,4.6,5.7,4.6h17
				c2.4,0,3.7-2.1,3-4.6l-27.9-95c-0.8-2.5-3.3-4.6-5.7-4.6H259.8z M253.3,75c-2.4,0-3.7-2.1-3-4.6l9.9-33.7c0.8-2.5,2-2.5,2.7,0
				l9.9,33.7c0.7,2.5-0.6,4.6-3,4.6H253.3z"/>
			<path class="st1" d="M445.3,11.2c-2.4,0-9.8,0-12.1,0h-1.2c-2.4,0-5,2.1-5.7,4.6l-28,95c-0.7,2.5,0.6,4.6,3,4.6h17
				c2.4,0,4.9-2.1,5.7-4.6l3.6-12.2c0.7-2.5,3.3-4.6,5.7-4.6H461c2.4,0,4.9,2.1,5.7,4.6l3.6,12.2c0.8,2.5,3.3,4.6,5.7,4.6h17
				c2.4,0,3.7-2.1,3-4.6l-27.9-95c-0.8-2.5-3.3-4.6-5.7-4.6H445.3z M438.8,75c-2.4,0-3.7-2.1-3-4.6l9.9-33.7c0.8-2.5,2-2.5,2.7,0
				l9.9,33.7c0.8,2.5-0.6,4.6-3,4.6H438.8z"/>
			<path class="st1" d="M345.7,15.6c0-2.7-2.2-4.8-4.8-4.8h-15.3c-2.7,0-4.9,2.2-4.9,4.8v95c0,2.7,2.2,4.9,4.9,4.9l57.6,0
				c2.7,0,4.8-2.2,4.8-4.8v-9.2c0-2.7-2.2-4.8-4.8-4.8h-32.6c-2.7,0-4.9-2.2-4.9-4.8V15.6z"/>
			<path class="st1" d="M96.3,11.4H81c-2.7,0-4.9,2.2-4.9,4.8v58.5c0,2.7-0.3,7-0.6,9.7c0,0-0.8,6.4-3.2,9.8
				c-0.2,0.3-0.4,0.5-0.6,0.7c-2.9,3.2-5.1,4.8-11.4,4.8c-6.4,0-8.6-1.7-11.4-5c-0.2-0.2-0.4-0.5-0.6-0.8c-2.4-3.5-3.1-9.6-3.1-9.6
				c-0.3-2.7-0.6-7-0.6-9.7V16.3c0-2.7-2.2-4.8-4.9-4.8H24.7c-2.7,0-4.8,2.2-4.8,4.8V81c0,12,3.6,21.2,10.9,27.6
				c7.3,6.4,15.6,9.6,29.7,9.6c14.2,0,22.5-3.2,29.8-9.6c7.3-6.4,10.9-15.6,10.9-27.7V16.3C101.2,13.6,99,11.4,96.3,11.4z"/>
		</g>
		<g>
			<g>
				<path class="st1" d="M129,135.4c-2,0-3.8,0.4-5.4,1.2c-1.6,0.8-3,1.9-4.1,3.3c-0.9-1.5-2.1-2.6-3.5-3.4
					c-1.4-0.8-2.9-1.1-4.7-1.1c-1.8,0-3.4,0.4-4.9,1.3c-1.5,0.8-3.2,2.9-3.2,2.9c-0.4,0.5-0.8,0.4-0.8-0.3v-2.2
					c0-0.7-0.5-1.2-1.2-1.2h-7c-0.7,0-1.2,0.5-1.2,1.2v28c0,0.7,0.5,1.2,1.2,1.2h7.5c0.7,0,1.2-0.5,1.2-1.2v-15.7c0-2,0.3-3.4,1-4.3
					c0.7-0.9,1.7-1.4,3.1-1.4c1.3,0,2.3,0.4,2.9,1.2c0.6,0.8,0.8,2.4,0.8,2.4c0.1,0.7,0.1,1.8,0.1,2.4v15.4c0,0.7,0.5,1.2,1.2,1.2
					h7.2c0.7,0,1.2-0.5,1.2-1.2v-15.7c0-2,0.3-3.4,1-4.3c0.7-0.9,1.7-1.4,3.1-1.4c1.3,0,2.3,0.4,2.9,1.2c0.6,0.8,0.8,2.4,0.8,2.4
					c0.1,0.7,0.1,1.8,0.1,2.4v15.4c0,0.7,0.5,1.2,1.2,1.2h7.5c0.7,0,1.2-0.5,1.2-1.2v-19.5c0-3.3-0.8-5.8-2.4-7.5
					C134.2,136.3,131.9,135.4,129,135.4z"/>
				<path class="st1" d="M182.2,135.4c-2,0-3.8,0.4-5.4,1.2c-1.7,0.8-3,1.9-4.1,3.3c-0.9-1.5-2.1-2.6-3.5-3.4
					c-1.4-0.8-2.9-1.1-4.7-1.1c-1.8,0-3.4,0.4-4.9,1.3c-1.5,0.8-3.2,2.9-3.2,2.9c-0.4,0.5-0.8,0.4-0.8-0.3v-2.2
					c0-0.7-0.5-1.2-1.2-1.2h-7c-0.7,0-1.2,0.5-1.2,1.2v28c0,0.7,0.6,1.2,1.2,1.2h7.5c0.7,0,1.2-0.5,1.2-1.2v-15.7c0-2,0.3-3.4,1-4.3
					c0.7-0.9,1.7-1.4,3.1-1.4c1.3,0,2.3,0.4,2.9,1.2c0.6,0.8,0.8,2.4,0.8,2.4c0.1,0.7,0.1,1.8,0.1,2.4v15.4c0,0.7,0.6,1.2,1.2,1.2
					h7.2c0.7,0,1.2-0.5,1.2-1.2v-15.7c0-2,0.3-3.4,1-4.3c0.7-0.9,1.7-1.4,3.1-1.4c1.3,0,2.3,0.4,2.9,1.2c0.6,0.8,0.8,2.4,0.8,2.4
					c0.1,0.7,0.1,1.8,0.1,2.4v15.4c0,0.7,0.5,1.2,1.2,1.2h7.5c0.7,0,1.2-0.5,1.2-1.2v-19.5c0-3.3-0.8-5.8-2.4-7.5
					C187.4,136.3,185.2,135.4,182.2,135.4z"/>
				<path class="st1" d="M225.5,135.9H218c-0.7,0-1.2,0.5-1.2,1.2v17c0,1.6-0.3,2.8-1,3.6c-0.6,0.8-1.6,1.2-2.9,1.2
					c-1.2,0-2.2-0.4-2.8-1.2c-0.6-0.8-0.8-2.4-0.8-2.4c-0.1-0.7-0.1-1.8-0.1-2.4v-15.8c0-0.7-0.5-1.2-1.2-1.2h-7.5
					c-0.7,0-1.2,0.5-1.2,1.2v18c0,3.8,1.2,6.7,3.6,8.8c2.4,2.1,5.8,3.1,10.1,3.1c4.4,0,7.8-1.1,10.2-3.1c2.4-2.1,3.4-7.6,3.4-7.6
					c0.1-0.7,0.2-1.7,0.2-2.4v-16.8C226.7,136.4,226.2,135.9,225.5,135.9z"/>
				<path class="st1" d="M253.5,135.4c-2,0-3.7,0.4-5.2,1.2c-1.5,0.8-3.3,3-3.3,3c-0.4,0.5-0.8,0.4-0.8-0.3v-2.2
					c0-0.7-0.5-1.2-1.2-1.2h-7c-0.7,0-1.2,0.5-1.2,1.2v28c0,0.7,0.5,1.2,1.2,1.2h7.5c0.7,0,1.2-0.5,1.2-1.2v-15.7
					c0-1.8,0.3-3.3,1.1-4.2c0.7-0.9,1.7-1.4,3-1.4c1.3,0,2.3,0.4,2.9,1.2c0.6,0.8,0.8,2.4,0.8,2.4c0.1,0.7,0.1,1.8,0.1,2.4v15.4
					c0,0.7,0.6,1.2,1.2,1.2h7.5c0.7,0,1.2-0.5,1.2-1.2v-19.5c0-3.2-0.8-5.7-2.4-7.5C258.6,136.3,256.4,135.4,253.5,135.4z"/>
				<path class="st1" d="M279.3,135.9h-7.5c-0.7,0-1.2,0.5-1.2,1.2v28c0,0.7,0.6,1.2,1.2,1.2h7.5c0.7,0,1.2-0.5,1.2-1.2v-28
					C280.5,136.4,279.9,135.9,279.3,135.9z"/>
				<path class="st1" d="M275.5,122.6c-1.5,0-2.8,0.5-3.8,1.6c-1.1,1-1.6,2.3-1.6,3.8c0,1.4,0.5,2.7,1.6,3.8
					c1.1,1.1,2.3,1.6,3.8,1.6c1.5,0,2.7-0.5,3.8-1.6c1.1-1,1.6-2.3,1.6-3.8c0-1.5-0.5-2.8-1.6-3.8
					C278.2,123.2,277,122.6,275.5,122.6z"/>
				<path class="st1" d="M373.6,135.9h-1.4c-0.7,0-1.2-0.5-1.2-1.2v-5.3c0-0.7-0.5-1.2-1.2-1.2h-7.5c-0.7,0-1.2,0.5-1.2,1.2v5.3
					c0,0.7-0.5,1.2-1.2,1.2H359c-0.7,0-1.2,0.5-1.2,1.2v5.5c0,0.7,0.5,1.2,1.2,1.2h0.9c0.7,0,1.2,0.5,1.2,1.2v14.7
					c0,2.5-0.6,4.9,1.4,6c1.4,0.8,2.7,0.6,2.7,0.6c0.6,0.1,6,0,6.7,0l1.7,0c0.7,0,1.2-0.5,1.2-1.2v-6c0-0.7-0.6-1.2-1.2-1.2h-0.7
					c-0.6,0-1.1-0.2-1.4-0.5c-0.3-0.3-0.3-0.4-0.3-0.4c-0.1-0.7-0.1-1.8-0.1-2.4V145c0-0.7,0.5-1.2,1.2-1.2h1.4
					c0.7,0,1.2-0.5,1.2-1.2v-5.5C374.8,136.4,374.2,135.9,373.6,135.9z"/>
				<path class="st1" d="M387.2,122.6c-1.5,0-2.7,0.5-3.8,1.6c-1.1,1-1.6,2.3-1.6,3.8c0,1.4,0.5,2.7,1.6,3.8
					c1.1,1.1,2.3,1.6,3.8,1.6c1.5,0,2.7-0.5,3.8-1.6c1.1-1,1.6-2.3,1.6-3.8c0-1.5-0.5-2.8-1.5-3.8
					C389.9,123.2,388.7,122.6,387.2,122.6z"/>
				<path class="st1" d="M391,135.9h-7.5c-0.7,0-1.2,0.5-1.2,1.2v28c0,0.7,0.6,1.2,1.2,1.2h7.5c0.7,0,1.2-0.5,1.2-1.2v-28
					C392.2,136.4,391.6,135.9,391,135.9z"/>
				<path class="st1" d="M455.3,135.4c-2,0-3.7,0.4-5.2,1.2c-1.5,0.8-3.3,3-3.3,3c-0.4,0.5-0.8,0.4-0.8-0.3v-2.2
					c0-0.7-0.5-1.2-1.2-1.2h-7c-0.7,0-1.2,0.5-1.2,1.2v28c0,0.7,0.6,1.2,1.2,1.2h7.5c0.6,0,1.2-0.5,1.2-1.2v-15.7
					c0-1.8,0.3-3.3,1.1-4.2c0.7-0.9,1.7-1.4,3.1-1.4c1.3,0,2.3,0.4,2.9,1.2c0.6,0.8,0.8,2.4,0.8,2.4c0.1,0.7,0.1,1.8,0.1,2.4v15.4
					c0,0.7,0.6,1.2,1.2,1.2h7.5c0.7,0,1.2-0.5,1.2-1.2v-19.5c0-3.2-0.8-5.7-2.4-7.5C460.4,136.3,458.2,135.4,455.3,135.4z"/>
			</g>
			<path class="st1" d="M45.3,156.7c-0.4-0.3-1-0.2-1.4,0.1c0,0-0.2,0.2-0.5,0.4c-0.2,0.2-0.5,0.4-0.8,0.5c0,0,0,0,0,0
				c0,0,0,0-0.1,0c-0.1,0.1-0.2,0.1-0.4,0.2c0,0-0.1,0-0.1,0c-0.4,0.2-0.8,0.4-1.3,0.5c0,0-0.1,0-0.1,0c-0.5,0.1-0.9,0.2-1.4,0.2
				l0,0l0,0c-2,0-3.7-0.7-5-2.1c-1.3-1.4-2-3.2-2-5.4c0,0,0,0,0,0v0c0-2.2,0.7-4,2-5.4c1.3-1.4,3-2.1,5-2.1l0,0l0,0
				c0.5,0,0.9,0.1,1.4,0.2c0,0,0.1,0,0.1,0c0.4,0.1,0.9,0.3,1.3,0.5c0,0,0.1,0,0.1,0c0.2,0.1,0.3,0.1,0.4,0.2c0,0,0,0,0.1,0
				c0,0,0.1,0,0.1,0.1c0,0,0.1,0.1,0.2,0.1c0.5,0.3,0.9,0.5,1.2,0.9c0.4,0.2,1,0.2,1.4-0.2l1.3-1.4l3.2-3.5c0.3-0.4,0.2-1-0.2-1.4
				c-0.1-0.1-0.2-0.2-0.3-0.3c-0.2-0.1-0.4-0.3-0.7-0.4c-1.1-0.8-2.3-1.5-3.6-2c-2-0.7-4.2-1.1-6.6-1.1l0,0c-4.9,0-8.8,1.5-11.8,4.4
				c-3,2.9-4.5,6.8-4.5,11.5c0,4.7,1.5,8.6,4.5,11.5c3,2.9,6.9,4.4,11.8,4.4c2.5,0,4.8-0.4,6.9-1.3c1.5-0.6,3.4-2,4.2-2.7l0,0
				c0.3-0.4,0.3-1.1,0-1.5L45.3,156.7z"/>
			<path class="st1" d="M309.8,156.7c-0.4-0.3-1-0.2-1.4,0.1c0,0-0.2,0.2-0.5,0.4c-0.2,0.2-0.5,0.4-0.8,0.5c0,0,0,0,0,0
				c0,0,0,0-0.1,0c-0.1,0.1-0.2,0.1-0.4,0.2c0,0-0.1,0-0.1,0c-0.4,0.2-0.8,0.4-1.3,0.5c0,0-0.1,0-0.1,0c-0.5,0.1-0.9,0.2-1.4,0.2
				l0,0l0,0c-2,0-3.7-0.7-5-2.1c-1.3-1.4-2-3.2-2-5.4c0,0,0,0,0,0v0c0-2.2,0.6-4,2-5.4c1.3-1.4,3-2.1,5-2.1l0,0l0,0
				c0.5,0,0.9,0.1,1.4,0.2c0,0,0.1,0,0.1,0c0.5,0.1,0.9,0.3,1.3,0.5c0,0,0.1,0,0.1,0c0.1,0.1,0.2,0.1,0.4,0.2c0,0,0,0,0.1,0
				c0,0,0.1,0,0.1,0.1c0.1,0,0.1,0.1,0.1,0.1c0.6,0.3,0.9,0.5,1.2,0.9c0.4,0.2,1,0.2,1.4-0.2l1.3-1.4l3.2-3.5c0.3-0.4,0.2-1-0.2-1.4
				c-0.1-0.1-0.2-0.2-0.3-0.3c-0.2-0.1-0.4-0.3-0.7-0.4c-1.1-0.8-2.3-1.5-3.7-2c-2-0.7-4.1-1.1-6.6-1.1h0c-4.9,0-8.8,1.5-11.8,4.4
				c-3,2.9-4.5,6.8-4.5,11.5c0,4.7,1.5,8.6,4.5,11.5c3,2.9,7,4.4,11.8,4.4c2.5,0,4.8-0.4,6.9-1.3c1.5-0.6,3.4-2,4.3-2.7l0,0
				c0.3-0.4,0.3-1.1-0.1-1.5L309.8,156.7z"/>
			<path class="st1" d="M414.4,135.2c-4.7,0-8.6,1.5-11.5,4.4c-2.9,2.9-4.4,6.8-4.4,11.5c0,4.7,1.5,8.6,4.4,11.5
				c2.9,2.9,6.8,4.4,11.5,4.4c4.7,0,8.5-1.5,11.5-4.4c3-3,4.4-6.8,4.4-11.5c0-4.7-1.5-8.6-4.4-11.5
				C422.9,136.7,419.1,135.2,414.4,135.2z M418.6,156.6c-1.1,1.4-2.5,2.1-4.3,2.1c-1.7,0-3.2-0.7-4.3-2.1c-1.1-1.4-1.6-3.2-1.6-5.5
				c0-2.3,0.5-4.1,1.6-5.5c1.1-1.4,2.5-2.1,4.2-2.1c1.8,0,3.2,0.7,4.3,2.1c1.1,1.4,1.6,3.2,1.6,5.5
				C420.2,153.4,419.7,155.2,418.6,156.6z"/>
			<path class="st1" d="M350.4,135.9h-7.1c-0.7,0-1.2,0.5-1.2,1.2v2.8c-0.8-1.5-2-2.6-3.4-3.4c-1.5-0.8-3.2-1.1-5.2-1.1
				c-2,0-3.9,0.4-5.6,1.2c-1.8,0.8-3.4,1.9-4.7,3.5c-1.3,1.4-2.2,3-2.9,4.8c-0.6,1.8-0.9,3.9-0.9,6.2c0,2.2,0.3,4.3,1,6.2
				c0.7,1.9,1.7,3.6,3,5c1.4,1.5,3,2.6,4.7,3.3c1.8,0.8,3.7,1.2,5.7,1.2c2,0,3.7-0.4,5.1-1.2c1.4-0.8,2.3-2.4,2.3-2.4
				c0.3-0.6,0.6-0.5,0.6,0.2v1.7c0,0.7,0.6,1.2,1.2,1.2h7.4c0.7,0,1.2-0.5,1.2-1.2v-28C351.6,136.4,351,135.9,350.4,135.9z
				 M340.2,156.9c-1.2,1.5-2.7,2.3-4.6,2.3c-1.8,0-3.4-0.8-4.6-2.3c-1.2-1.5-1.8-3.5-1.8-5.9c0-2.4,0.6-4.3,1.8-5.9
				c1.2-1.5,2.8-2.3,4.6-2.3c1.8,0,3.3,0.8,4.6,2.3c1.2,1.5,1.9,3.5,1.9,5.8C342,153.4,341.4,155.4,340.2,156.9z"/>
			<path class="st1" d="M70.7,135.2c-4.8,0-8.6,1.5-11.5,4.4c-2.9,2.9-4.4,6.8-4.4,11.5c0,4.7,1.5,8.6,4.4,11.5
				c2.9,2.9,6.8,4.4,11.5,4.4c4.7,0,8.5-1.5,11.5-4.4c2.9-3,4.4-6.8,4.4-11.5c0-4.7-1.5-8.6-4.4-11.5
				C79.3,136.7,75.4,135.2,70.7,135.2z M74.9,156.6c-1.1,1.4-2.5,2.1-4.3,2.1c-1.8,0-3.2-0.7-4.3-2.1c-1.1-1.4-1.6-3.2-1.6-5.5
				c0-2.3,0.6-4.1,1.6-5.5c1.1-1.4,2.5-2.1,4.3-2.1c1.8,0,3.2,0.7,4.3,2.1c1.1,1.4,1.6,3.2,1.6,5.5C76.6,153.4,76,155.2,74.9,156.6z
				"/>
		</g>
	</g>
</g>
</svg>
