<?xml version="1.0" encoding="UTF-8" standalone="no"?>
<!DOCTYPE svg PUBLIC "-//W3C//DTD SVG 1.1//EN" "http://www.w3.org/Graphics/SVG/1.1/DTD/svg11.dtd">
<svg width="100%" height="100%" viewBox="0 0 1250 834" version="1.1" xmlns="http://www.w3.org/2000/svg" xmlns:xlink="http://www.w3.org/1999/xlink" xml:space="preserve" xmlns:serif="http://www.serif.com/" style="fill-rule:evenodd;clip-rule:evenodd;stroke-linejoin:round;stroke-miterlimit:2;">
    <g>
        <g transform="matrix(0.628418,0,0,0.628418,322.338,507.497)">
            <path d="M521.66,145.35C531.29,132.21 536.15,115.16 536.18,94.27C536.21,79.07 530.98,61.35 524.76,51.27C518.55,41.16 512.32,32.96 501.8,26.62C491.37,20.27 480.2,15.46 468.26,13.52C456.33,11.62 439.52,10.62 439.52,10.62C431.8,10.18 419.15,9.79 411.42,9.77L321.61,9.61C313.85,9.6 307.51,15.92 307.5,23.65L307.02,298.51C307.01,306.24 313.33,312.59 321.08,312.6L365.47,312.67C373.21,312.68 379.56,306.37 379.57,298.63L379.73,209.51C379.74,201.76 386.07,195.44 393.82,195.46L395.38,195.46C403.14,195.48 412.57,201.03 416.32,207.8L467.69,299.99C471.47,306.75 480.89,312.31 488.65,312.34L547.27,312.51C555,312.57 558.06,307.16 554.07,300.52L487.65,190.21C483.66,183.57 485.78,174.78 492.35,170.72C492.35,170.72 512.02,158.49 521.67,145.35M457.22,121.85C454.95,126.57 451.29,130.91 446.33,134.8C441.11,138.84 434.67,141.4 426.97,142.56C419.27,143.67 412.4,143.83 412.4,143.83C404.67,144.05 406.09,144.21 398.32,144.2L393.91,144.2C386.17,144.18 379.86,137.85 379.87,130.1L379.96,77.14C379.97,69.37 386.3,63.09 394.05,63.1L402.35,63.1C410.11,63.13 408.71,63.2 416.44,63.33C416.44,63.33 418.41,63.34 424.86,63.83C431.31,64.25 436.93,65.5 441.77,67.53C448.71,70.46 453.61,74.44 456.45,79.5C459.31,84.57 460.71,95.71 460.7,102.79C460.69,110.79 459.51,117.1 457.21,121.85" style="fill:white;fill-rule:nonzero;"/>
        </g>
        <g transform="matrix(0.628418,0,0,0.628418,322.338,507.497)">
            <path d="M704.94,10.14C698.02,10.13 676.58,10.09 669.64,10.08L666.15,10.08C659.21,10.06 651.77,16.05 649.6,23.41L567.92,299.18C565.75,306.52 569.62,312.53 576.58,312.54L625.83,312.63C632.76,312.63 640.21,306.65 642.38,299.31L652.86,263.9C655.06,256.55 662.52,250.55 669.44,250.56L750.11,250.7C757.05,250.7 764.5,256.73 766.63,264.1L776.98,299.55C779.14,306.9 786.56,312.91 793.49,312.92L842.79,313.01C849.71,313.01 853.63,307.03 851.46,299.68L770.78,23.62C768.6,16.25 761.2,10.24 754.24,10.23L704.94,10.14ZM685.8,195.38C678.86,195.37 674.97,189.34 677.14,182L706.15,84.11C708.32,76.75 711.84,76.76 714.03,84.12L742.66,182.11C744.81,189.46 740.88,195.47 733.96,195.46L685.8,195.38Z" style="fill:white;fill-rule:nonzero;"/>
        </g>
        <g transform="matrix(0.628418,0,0,0.628418,322.338,507.497)">
            <path d="M1243.78,11.08C1236.85,11.07 1215.42,11.03 1208.48,11.02L1205,11.02C1198.04,11 1190.61,16.99 1188.44,24.35L1106.75,300.12C1104.6,307.46 1108.47,313.47 1115.4,313.48L1164.66,313.57C1171.61,313.57 1179.05,307.59 1181.24,300.25L1191.72,264.84C1193.89,257.49 1201.35,251.49 1208.28,251.5L1288.95,251.64C1295.9,251.64 1303.31,257.67 1305.47,265.04L1315.82,300.49C1317.98,307.84 1325.42,313.85 1332.34,313.86L1381.63,313.95C1388.57,313.95 1392.48,307.97 1390.32,300.62L1309.6,24.56C1307.46,17.19 1300.04,11.18 1293.07,11.17L1243.8,11.08L1243.78,11.08ZM1224.61,196.32C1217.66,196.31 1213.8,190.28 1215.97,182.94L1244.96,85.05C1247.12,77.69 1250.66,77.7 1252.82,85.06L1281.48,183.05C1283.64,190.4 1279.71,196.41 1272.79,196.4L1224.61,196.32Z" style="fill:white;fill-rule:nonzero;"/>
        </g>
        <g transform="matrix(0.628418,0,0,0.628418,322.338,507.497)">
            <path d="M954.55,23.17C954.56,15.44 948.24,9.09 940.5,9.08L896.14,9C888.37,8.99 882.02,15.31 882.01,23.04L881.53,299.13C881.53,306.87 887.85,313.25 895.62,313.27L1062.89,313.69C1070.64,313.7 1076.98,307.38 1077,299.63L1077.05,272.81C1077.06,265.07 1070.74,258.74 1062.99,258.73L968.24,258.56C960.5,258.55 954.18,252.19 954.19,244.46L954.58,23.16L954.55,23.17Z" style="fill:white;fill-rule:nonzero;"/>
        </g>
        <g transform="matrix(0.628418,0,0,0.628418,322.338,507.497)">
            <path d="M230.17,9.98L185.79,9.9C178.03,9.89 171.69,16.21 171.67,23.94L171.37,193.82C171.36,201.59 170.61,214.2 169.65,221.89C169.65,221.89 167.39,240.35 160.28,250.33C159.73,251.08 159.19,251.79 158.62,252.42C150.14,261.68 143.81,266.27 125.56,266.24C107.02,266.21 100.66,261.4 92.43,251.75C91.85,251.05 91.31,250.34 90.79,249.58C83.88,239.35 81.79,221.75 81.79,221.75C80.87,214.05 80.14,201.44 80.16,193.67L80.45,23.79C80.46,16.05 74.15,9.71 66.39,9.7L22,9.62C14.26,9.61 7.9,15.93 7.89,23.66L7.56,211.57C7.5,246.39 17.99,273.15 39.09,291.78C60.15,310.45 84.26,319.81 125.46,319.88C166.63,319.95 190.8,310.68 212.01,292.08C233.19,273.52 243.83,246.75 243.89,211.79L244.22,24.07C244.23,16.33 237.91,9.99 230.16,9.98" style="fill:white;fill-rule:nonzero;"/>
        </g>
        <g transform="matrix(0.628418,0,0,0.628418,322.338,507.497)">
            <path d="M28.72,508.92C19.79,508.92 14.66,504.5 14.66,496.79L14.66,349.02C14.66,341.3 19.79,336.88 28.72,336.88C37.65,336.88 42.77,341.3 42.77,349.02L42.77,496.79C42.77,504.5 37.65,508.92 28.72,508.92" style="fill:white;fill-rule:nonzero;"/>
        </g>
        <g transform="matrix(0.628418,0,0,0.628418,322.338,507.497)">
            <path d="M28.72,338.18C34.74,338.18 41.47,340.34 41.47,349.01L41.47,496.78C41.47,505.44 34.74,507.61 28.72,507.61C22.7,507.61 15.97,505.45 15.97,496.78L15.97,349.01C15.97,340.34 22.71,338.18 28.72,338.18M28.72,335.58C19.1,335.58 13.36,340.6 13.36,349.02L13.36,496.79C13.36,505.2 19.1,510.22 28.72,510.22C38.34,510.22 44.08,505.2 44.08,496.79L44.08,349.02C44.08,340.61 38.34,335.58 28.72,335.58" style="fill:white;fill-rule:nonzero;"/>
        </g>
        <g transform="matrix(0.628418,0,0,0.628418,322.338,507.497)">
            <path d="M28.72,514.69C16.48,514.69 8.89,507.83 8.89,496.78L8.89,349.01C8.89,337.96 16.49,331.1 28.72,331.1C40.95,331.1 48.55,337.96 48.55,349.01L48.55,496.78C48.55,507.83 40.95,514.69 28.72,514.69M28.72,345.26C23.04,345.26 23.04,347.25 23.04,349.01L23.04,496.78C23.04,498.54 23.04,500.53 28.72,500.53C34.4,500.53 34.39,498.54 34.39,496.78L34.39,349.01C34.39,347.25 34.39,345.26 28.72,345.26" style="fill:white;fill-rule:nonzero;"/>
        </g>
        <g transform="matrix(0.628418,0,0,0.628418,322.338,507.497)">
            <path d="M28.72,332.41C40.15,332.41 47.25,338.77 47.25,349.02L47.25,496.79C47.25,507.03 40.15,513.39 28.72,513.39C17.29,513.39 10.19,507.03 10.19,496.79L10.19,349.02C10.19,338.78 17.29,332.41 28.72,332.41M28.72,501.84C35.7,501.84 35.7,498.68 35.7,496.79L35.7,349.02C35.7,347.13 35.7,343.96 28.72,343.96C21.74,343.96 21.74,347.13 21.74,349.02L21.74,496.79C21.74,498.68 21.74,501.84 28.72,501.84M28.72,329.8C15.88,329.8 7.58,337.34 7.58,349.01L7.58,496.78C7.58,508.45 15.88,515.99 28.72,515.99C41.56,515.99 49.86,508.45 49.86,496.78L49.86,349.01C49.86,337.34 41.56,329.8 28.72,329.8M28.72,499.23C24.35,499.23 24.35,498.26 24.35,496.79L24.35,349.02C24.35,347.54 24.35,346.57 28.72,346.57C33.09,346.57 33.09,347.54 33.09,349.02L33.09,496.79C33.09,498.26 33.09,499.23 28.72,499.23" style="fill:white;fill-rule:nonzero;"/>
        </g>
        <g transform="matrix(0.628418,0,0,0.628418,322.338,507.497)">
            <path d="M164.16,508.92C157.71,508.92 150.82,505.74 150.82,496.79L150.82,441.68C150.82,421.82 149.23,408.81 128.06,408.81C112.74,408.81 105.28,417.12 105.28,434.22L105.28,496.79C105.28,505.74 98.39,508.92 91.95,508.92C85.51,508.92 78.62,505.74 78.62,496.79L78.62,396.19C78.62,387.24 85.51,384.06 91.95,384.06C98.85,384.06 103.61,387.41 105.01,393.24C105.17,393.72 105.38,393.92 105.42,393.93C105.63,393.93 105.98,393.77 106.15,393.66C113.91,387.23 123.55,384.06 135.51,384.06C161.79,384.06 177.48,402.18 177.48,432.53L177.48,496.78C177.48,505.73 170.59,508.91 164.15,508.91" style="fill:white;fill-rule:nonzero;"/>
        </g>
        <g transform="matrix(0.628418,0,0,0.628418,322.338,507.497)">
            <path d="M135.52,385.36C164.4,385.36 176.19,406.54 176.19,432.53L176.19,496.79C176.19,504.73 170.17,507.62 164.15,507.62C158.13,507.62 152.12,504.73 152.12,496.79L152.12,441.68C152.12,424.11 151.64,407.51 128.05,407.51C116.74,407.51 103.98,411.84 103.98,434.22L103.98,496.79C103.98,504.73 97.96,507.62 91.95,507.62C85.94,507.62 79.91,504.73 79.91,496.79L79.91,396.19C79.91,388.25 85.93,385.36 91.95,385.36C97.24,385.36 102.29,387.52 103.74,393.54C103.98,394.26 104.46,395.23 105.43,395.23C106.15,395.23 106.87,394.75 106.87,394.75C113.85,388.97 123,385.37 135.51,385.37M135.52,382.75C123.66,382.75 114.01,385.8 106.05,392.06C104.36,386.2 99.24,382.75 91.96,382.75C83.06,382.75 77.32,388.03 77.32,396.18L77.32,496.78C77.32,504.94 83.06,510.22 91.96,510.22C100.86,510.22 106.6,504.94 106.6,496.78L106.6,434.21C106.6,417.76 113.42,410.1 128.07,410.1C148.08,410.1 149.53,422.03 149.53,441.67L149.53,496.78C149.53,504.94 155.27,510.22 164.17,510.22C173.07,510.22 178.81,504.94 178.81,496.78L178.81,432.52C178.81,401.35 162.63,382.75 135.53,382.75" style="fill:white;fill-rule:nonzero;"/>
        </g>
        <g transform="matrix(0.628418,0,0,0.628418,322.338,507.497)">
            <path d="M164.16,514.69C152.73,514.69 145.05,507.49 145.05,496.78L145.05,441.67C145.05,420.68 142.82,414.57 128.06,414.57C119.24,414.57 111.07,416.95 111.07,434.21L111.07,496.78C111.07,507.49 103.39,514.69 91.96,514.69C80.53,514.69 72.84,507.49 72.84,496.78L72.84,396.18C72.84,385.47 80.52,378.28 91.96,378.28C98.78,378.28 104.32,380.82 107.72,385.47C115.56,380.7 124.91,378.28 135.52,378.28C165.42,378.28 183.27,398.56 183.27,432.53L183.27,496.79C183.27,507.5 175.59,514.7 164.16,514.7M128.06,400.42C159.2,400.42 159.2,426.24 159.2,441.67L159.2,496.78C159.2,498.18 159.2,500.53 164.15,500.53C169.1,500.53 169.1,498.18 169.1,496.78L169.1,432.52C169.1,417.55 164.73,392.43 135.51,392.43C125.58,392.43 117.69,394.97 111.38,400.19L110.85,400.58C110.06,401.11 108.04,402.29 105.42,402.29C102.41,402.29 98.61,400.57 97.01,395.75L96.86,395.24C96.63,394.29 96.18,392.43 91.93,392.43C86.97,392.43 86.97,394.77 86.97,396.18L86.97,496.78C86.97,498.18 86.97,500.53 91.93,500.53C96.89,500.53 96.88,498.18 96.88,496.78L96.88,434.21C96.88,412.41 107.94,400.41 128.03,400.41" style="fill:white;fill-rule:nonzero;"/>
        </g>
        <g transform="matrix(0.628418,0,0,0.628418,322.338,507.497)">
            <path d="M135.51,379.58C164.59,379.58 181.96,399.38 181.96,432.53L181.96,496.79C181.96,506.73 174.8,513.4 164.15,513.4C153.5,513.4 146.34,506.73 146.34,496.79L146.34,441.68C146.34,421.5 144.69,413.28 128.05,413.28C119.01,413.28 109.76,415.77 109.76,434.22L109.76,496.79C109.76,506.73 102.6,513.4 91.95,513.4C81.3,513.4 74.14,506.73 74.14,496.79L74.14,396.19C74.14,386.26 81.3,379.58 91.95,379.58C98.88,379.58 104.32,382.37 107.34,387.25C115.19,382.16 124.65,379.58 135.51,379.58M105.43,401C102.87,401 99.64,399.52 98.26,395.36L98.13,394.89C97.88,393.86 97.22,391.14 91.95,391.14C85.7,391.14 85.7,394.81 85.7,396.19L85.7,496.79C85.7,498.17 85.7,501.84 91.95,501.84C98.2,501.84 98.2,498.17 98.2,496.79L98.2,434.22C98.2,413.27 108.8,401.73 128.05,401.73C157.89,401.73 157.89,425.77 157.89,441.68L157.89,496.79C157.89,498.17 157.89,501.84 164.14,501.84C170.39,501.84 170.4,498.17 170.4,496.79L170.4,432.53C170.4,417.07 165.86,391.14 135.5,391.14C125.26,391.14 117.1,393.77 110.54,399.2L110.08,399.55C109.42,399.99 107.66,401.01 105.42,401.01M135.51,376.97C125.1,376.97 115.87,379.26 108.03,383.77C104.35,379.37 98.74,376.97 91.95,376.97C79.93,376.97 71.54,384.87 71.54,396.18L71.54,496.78C71.54,508.09 79.93,515.99 91.95,515.99C103.97,515.99 112.37,508.09 112.37,496.78L112.37,434.21C112.37,417.29 120.47,415.87 128.05,415.87C141.89,415.87 143.73,421.06 143.73,441.66L143.73,496.77C143.73,508.08 152.13,515.98 164.14,515.98C176.15,515.98 184.56,508.08 184.56,496.77L184.56,432.51C184.56,397.73 166.22,376.96 135.5,376.96M105.43,403.61C108.38,403.61 110.69,402.28 111.54,401.71L112.11,401.28C118.28,396.18 125.9,393.74 135.51,393.74C150.24,393.74 167.8,400.47 167.8,432.53L167.8,496.79C167.8,498.05 167.8,499.23 164.15,499.23C160.5,499.23 160.5,498.04 160.5,496.79L160.5,441.68C160.5,425.76 160.5,399.12 128.05,399.12C107.43,399.12 95.6,411.91 95.6,434.22L95.6,496.79C95.6,498.05 95.6,499.23 91.95,499.23C88.3,499.23 88.3,498.04 88.3,496.79L88.3,396.19C88.3,394.93 88.3,393.75 91.95,393.75C95.17,393.75 95.43,394.81 95.59,395.51L95.75,396.08C97.6,401.67 101.95,403.62 105.42,403.62" style="fill:white;fill-rule:nonzero;"/>
        </g>
        <g transform="matrix(0.628418,0,0,0.628418,322.338,507.497)">
            <path d="M259.11,508.92C236.05,508.92 224.36,496.01 224.36,470.56L224.36,410.63C224.36,409.9 224.22,409.77 223.49,409.77L214.83,409.77C207.12,409.77 202.7,405.35 202.7,397.64C202.7,389.93 207.12,385.51 214.83,385.51L223.49,385.51C224.1,385.51 224.23,385.4 224.23,385.4C224.23,385.4 224.35,385.25 224.35,384.65L224.35,361.07C224.35,352.12 231.24,348.94 237.68,348.94C244.12,348.94 251.01,352.12 251.01,361.07L251.01,384.65C251.01,385.23 251.08,385.42 251.1,385.46C251.12,385.5 251.35,385.52 251.87,385.52L263.18,385.52C270.85,385.52 275.07,389.83 275.07,397.65C275.07,405.47 270.85,409.78 263.18,409.78L251.87,409.78C251.27,409.78 251.12,409.9 251.12,409.9C251.12,409.9 251.01,410.04 251.01,410.64L251.01,471.53C251.01,479.34 255.31,483.47 263.43,483.47C270.19,483.47 275.09,488.67 275.09,495.84C275.09,498.91 273.94,508.93 259.1,508.93" style="fill:white;fill-rule:nonzero;"/>
        </g>
        <g transform="matrix(0.628418,0,0,0.628418,322.338,507.497)">
            <path d="M237.69,350.22C243.71,350.22 249.73,353.11 249.73,361.05L249.73,384.63C249.73,386.32 250.21,386.8 251.89,386.8L263.2,386.8C271.14,386.8 273.79,391.61 273.79,397.63C273.79,403.65 271.14,408.46 263.2,408.46L251.89,408.46C250.2,408.46 249.73,409.18 249.73,410.63L249.73,471.52C249.73,479.7 254.3,484.76 263.45,484.76C269.47,484.76 273.8,489.33 273.8,495.83C273.8,501.12 270.67,507.62 259.12,507.62C234.81,507.62 225.67,493.18 225.67,470.56L225.67,410.63C225.67,409.18 224.95,408.46 223.51,408.46L214.84,408.46C206.9,408.46 204.01,403.64 204.01,397.63C204.01,391.62 206.9,386.8 214.84,386.8L223.51,386.8C224.95,386.8 225.67,386.32 225.67,384.63L225.67,361.05C225.67,353.11 231.69,350.22 237.7,350.22M237.69,347.61C228.8,347.61 223.05,352.89 223.05,361.05L223.05,384.2L214.82,384.2C206.41,384.2 201.38,389.22 201.38,397.63C201.38,406.04 206.4,411.07 214.82,411.07L223.04,411.07L223.04,470.56C223.04,496.88 235.18,510.22 259.11,510.22C271.86,510.22 276.4,502.78 276.4,495.83C276.4,487.9 270.95,482.15 263.45,482.15C255.95,482.15 252.34,478.57 252.34,471.52L252.34,411.07L263.21,411.07C271.59,411.07 276.4,406.17 276.4,397.63C276.4,389.09 271.59,384.2 263.21,384.2L252.34,384.2L252.34,361.05C252.34,352.89 246.59,347.61 237.7,347.61" style="fill:white;fill-rule:nonzero;"/>
        </g>
        <g transform="matrix(0.628418,0,0,0.628418,322.338,507.497)">
            <path d="M259.11,514.7C240.62,514.7 218.57,507.04 218.57,470.56L218.57,415.55L214.82,415.55C203.94,415.55 196.91,408.52 196.91,397.64C196.91,386.76 203.77,379.73 214.82,379.73L218.57,379.73L218.57,361.06C218.57,350.34 226.25,343.15 237.69,343.15C249.13,343.15 256.8,350.35 256.8,361.06L256.8,379.73L263.2,379.73C274.1,379.73 280.87,386.59 280.87,397.64C280.87,408.69 273.94,415.55 263.2,415.55L256.8,415.55L256.8,471.52C256.8,476.07 258.54,477.68 263.44,477.68C273.38,477.68 280.87,485.48 280.87,495.83C280.87,504.53 275.17,514.7 259.11,514.7M214.83,393.88C211.71,393.88 211.08,394.51 211.08,397.63C211.08,400.75 211.71,401.38 214.83,401.38L223.49,401.38C228.85,401.38 232.73,405.27 232.73,410.63L232.73,470.56C232.73,491.58 240.62,500.54 259.11,500.54C266.71,500.54 266.71,497.24 266.71,495.83C266.71,494.63 266.39,491.83 263.44,491.83C250.61,491.83 242.65,484.05 242.65,471.52L242.65,410.63C242.65,405.18 246.45,401.38 251.89,401.38L263.2,401.38C265.87,401.38 266.71,401.21 266.71,397.63C266.71,394.05 265.86,393.88 263.2,393.88L251.89,393.88C246.27,393.88 242.65,390.25 242.65,384.63L242.65,361.05C242.65,359.65 242.65,357.3 237.7,357.3C232.75,357.3 232.74,359.65 232.74,361.05L232.74,384.63C232.74,390.08 228.94,393.88 223.5,393.88L214.83,393.88Z" style="fill:white;fill-rule:nonzero;"/>
        </g>
        <g transform="matrix(0.628418,0,0,0.628418,322.338,507.497)">
            <path d="M237.69,344.44C248.34,344.44 255.5,351.11 255.5,361.05L255.5,381.02L263.2,381.02C273.3,381.02 279.57,387.38 279.57,397.63C279.57,407.88 273.3,414.24 263.2,414.24L255.5,414.24L255.5,471.52C255.5,476.82 257.8,478.98 263.44,478.98C272.64,478.98 279.57,486.23 279.57,495.83C279.57,503.93 274.21,513.4 259.11,513.4C241.21,513.4 219.88,505.96 219.88,470.56L219.88,414.24L214.83,414.24C204.59,414.24 198.22,407.88 198.22,397.63C198.22,387.38 204.59,381.02 214.83,381.02L219.88,381.02L219.88,361.05C219.88,351.11 227.04,344.44 237.69,344.44M214.83,402.68L223.49,402.68C228.09,402.68 231.44,406.02 231.44,410.62L231.44,470.55C231.44,492.19 239.97,501.83 259.11,501.83C268.02,501.83 268.02,497.31 268.02,495.82C268.02,493.26 266.82,490.53 263.44,490.53C251.42,490.53 243.95,483.24 243.95,471.51L243.95,410.62C243.95,405.87 247.14,402.68 251.89,402.68L263.2,402.68C266.53,402.68 268.02,401.95 268.02,397.63C268.02,393.31 266.54,392.58 263.2,392.58L251.89,392.58C247,392.58 243.95,389.53 243.95,384.63L243.95,361.05C243.95,359.67 243.95,356 237.7,356C231.45,356 231.45,359.67 231.45,361.05L231.45,384.63C231.45,389.38 228.25,392.58 223.5,392.58L214.84,392.58C211.01,392.58 209.78,393.81 209.78,397.63C209.78,401.45 211.01,402.68 214.84,402.68M237.69,341.84C225.67,341.84 217.27,349.74 217.27,361.05L217.27,378.42L214.83,378.42C203.16,378.42 195.61,385.96 195.61,397.63C195.61,409.3 203.16,416.84 214.83,416.84L217.27,416.84L217.27,470.55C217.27,487.52 222.71,515.99 259.11,515.99C275.04,515.99 282.17,505.86 282.17,495.82C282.17,484.73 274.11,476.36 263.43,476.36C258.9,476.36 258.09,475.09 258.09,471.51L258.09,416.84L263.19,416.84C274.72,416.84 282.16,409.3 282.16,397.63C282.16,385.96 274.71,378.42 263.19,378.42L258.09,378.42L258.09,361.05C258.09,349.74 249.69,341.84 237.68,341.84M214.83,400.08C212.45,400.08 212.38,400.01 212.38,397.63C212.38,395.25 212.45,395.19 214.83,395.19L223.49,395.19C229.7,395.19 234.04,390.85 234.04,384.64L234.04,361.06C234.04,359.8 234.04,358.61 237.69,358.61C241.34,358.61 241.34,359.8 241.34,361.06L241.34,384.64C241.34,390.95 245.58,395.19 251.89,395.19L263.2,395.19C264.71,395.19 265.05,395.37 265.1,395.41C265.1,395.41 265.41,395.81 265.41,397.63C265.41,399.45 265.09,399.86 265.09,399.87C265.05,399.9 264.71,400.08 263.2,400.08L251.89,400.08C245.68,400.08 241.34,404.42 241.34,410.63L241.34,471.52C241.34,484.65 250.02,493.14 263.44,493.14C263.93,493.14 265.41,493.14 265.41,495.83C265.41,497.02 265.41,499.24 259.11,499.24C241.54,499.24 234.04,490.66 234.04,470.56L234.04,410.63C234.04,404.62 229.5,400.08 223.49,400.08L214.83,400.08Z" style="fill:white;fill-rule:nonzero;"/>
        </g>
        <g transform="matrix(0.628418,0,0,0.628418,322.338,507.497)">
            <path d="M352.66,508.92C316.15,508.92 300.58,490.25 300.58,446.49C300.58,415.62 306.62,384.06 351.46,384.06C384.42,384.06 401.14,403.04 401.14,440.47C401.14,451.09 395.58,457.17 385.87,457.17L329.07,457.17C328.4,457.17 328.23,457.3 328.23,457.3C328.72,476.28 336.29,483.93 354.34,483.93C360.85,483.93 368.82,481.82 374.64,478.56C376.17,477.72 377.46,476.93 378.59,476.23C381.54,474.41 383.66,473.11 386.59,473.11C393.95,473.11 399.44,480.53 399.44,487.16C399.44,489.69 397.84,492.94 395.63,494.88C383.93,503.95 368.7,508.92 352.65,508.92M351.45,408.32C335.99,408.32 329.75,415.24 328.44,433.82C328.44,434.4 328.57,434.57 328.57,434.57L374.07,434.59C374.41,434.59 374.53,434.53 374.53,434.53C373.45,415.9 366.79,408.31 351.45,408.31" style="fill:white;fill-rule:nonzero;"/>
        </g>
        <g transform="matrix(0.628418,0,0,0.628418,322.338,507.497)">
            <path d="M351.45,385.36C390.44,385.36 399.82,412.31 399.82,440.47C399.82,447.93 396.69,455.87 385.86,455.87L329.06,455.87C327.62,455.87 326.9,456.35 326.9,457.56C327.38,475.13 333.64,485.24 354.34,485.24C361.08,485.24 369.26,483.07 375.28,479.7C380.58,476.81 382.98,474.41 386.59,474.41C393.09,474.41 398.14,481.15 398.14,487.16C398.14,489.33 396.7,492.22 394.78,493.9C382.98,503.04 367.82,507.62 352.66,507.62C313.92,507.62 301.88,486.2 301.88,446.49C301.88,410.63 311.51,385.36 351.46,385.36M328.83,435.9L374.07,435.9C375.27,435.9 375.76,435.42 375.76,434.45C374.79,416.64 368.54,407.01 351.45,407.01C334.36,407.01 328.34,416.64 327.14,433.73C327.14,435.17 327.62,435.89 328.83,435.89M351.45,382.75C305.2,382.75 299.26,416.81 299.26,446.48C299.26,491.15 315.22,510.22 352.65,510.22C368.98,510.22 384.51,505.16 396.37,495.96C399,493.66 400.74,490.09 400.74,487.16C400.74,479.91 394.69,471.8 386.59,471.8C383.29,471.8 380.92,473.27 377.91,475.12C376.79,475.81 375.53,476.59 374.02,477.41C368.35,480.59 360.63,482.63 354.33,482.63C337.28,482.63 330.25,475.84 329.53,458.48L385.86,458.48C396.23,458.48 402.42,451.75 402.42,440.47C402.42,402.17 385.27,382.75 351.44,382.75M329.78,433.29C331.1,415.87 336.81,409.62 351.45,409.62C366.09,409.62 371.88,416.5 373.07,433.29L329.78,433.29Z" style="fill:white;fill-rule:nonzero;"/>
        </g>
        <g transform="matrix(0.628418,0,0,0.628418,322.338,507.497)">
            <path d="M352.66,514.69C301.37,514.69 294.8,478.24 294.8,446.48C294.8,414.72 301.24,378.27 351.46,378.27C376.76,378.27 406.91,389.06 406.91,440.46C406.91,454.33 398.85,462.95 385.87,462.95L334.38,462.95C335.82,474.28 341.03,478.15 354.35,478.15C359.86,478.15 366.88,476.29 371.83,473.52C373.32,472.71 374.51,471.97 375.57,471.31C378.77,469.34 382.05,467.33 386.6,467.33C397.58,467.33 405.23,477.78 405.23,487.16C405.23,491.35 402.9,496.2 399.44,499.22C386.48,509.3 369.98,514.69 352.66,514.69M351.45,392.43C320.87,392.43 308.95,407.59 308.95,446.48C308.95,485.37 320.79,500.53 352.65,500.53C366.76,500.53 380.11,496.23 390.26,488.43C390.64,488.06 391.02,487.21 391.07,486.97C391.06,484.71 388.85,481.49 386.58,481.49C386.02,481.49 384.55,482.4 382.99,483.36C381.74,484.13 380.33,485 378.66,485.92C371.62,489.86 362.28,492.32 354.33,492.32C320.76,492.32 320.05,466.3 319.82,457.76C319.82,455.28 320.73,452.96 322.35,451.34C324.01,449.68 326.33,448.8 329.06,448.8L385.86,448.8C388.27,448.8 392.74,448.8 392.74,440.47C392.74,407.7 379.62,392.44 351.44,392.44M328.83,442.98C324.47,442.98 320.07,439.81 320.07,433.73L320.09,433.27C321.1,418.94 325.44,399.94 351.46,399.94C381.01,399.94 382.38,425.63 382.83,434.08C382.83,436.64 381.96,438.91 380.36,440.51C378.77,442.11 376.54,442.98 374.08,442.98L328.83,442.98ZM368.11,428.82C366.21,416.55 360.52,414.1 351.45,414.1C340.66,414.1 336.44,417.72 334.78,428.82L368.11,428.82Z" style="fill:white;fill-rule:nonzero;"/>
        </g>
        <g transform="matrix(0.628418,0,0,0.628418,322.338,507.497)">
            <path d="M351.45,379.58C376.15,379.58 405.6,390.15 405.6,440.47C405.6,453.53 398.04,461.65 385.86,461.65L332.91,461.65C334.17,474.83 339.98,479.46 354.33,479.46C360.04,479.46 367.32,477.53 372.45,474.66C373.95,473.84 375.17,473.09 376.24,472.43C379.4,470.48 382.39,468.63 386.58,468.63C396.79,468.63 403.91,478.4 403.91,487.16C403.91,490.99 401.76,495.45 398.57,498.24L398.31,498.46C385.9,508.09 369.68,513.39 352.65,513.39C302.53,513.39 296.09,477.63 296.09,446.48C296.09,415.33 302.38,379.57 351.45,379.57M352.65,501.84C367.05,501.84 380.68,497.45 391.06,489.46C391.8,488.75 392.33,487.54 392.37,487.12C392.37,484.09 389.65,480.19 386.59,480.19C385.71,480.19 384.58,480.86 382.32,482.26C381.08,483.02 379.7,483.88 378.05,484.78C371.2,488.62 362.09,491.02 354.35,491.02C325.4,491.02 321.53,472.02 321.14,457.73C321.14,453.98 323.63,450.11 329.08,450.11L385.88,450.11C388.32,450.11 394.06,450.11 394.06,440.49C394.06,406.83 380.53,391.16 351.46,391.16C319.94,391.16 307.66,406.68 307.66,446.51C307.66,486.34 319.86,501.86 352.66,501.86M351.45,401.24C379.74,401.24 381.09,426.01 381.52,434.14C381.52,438.63 378.39,441.67 374.07,441.67L328.83,441.67C325.24,441.67 321.37,439.18 321.37,433.73L321.39,433.33C322.44,418.39 326.81,401.24 351.46,401.24M333.29,430.12L369.6,430.12C367.84,415.8 361.49,412.8 351.45,412.8C339.69,412.8 334.9,417.11 333.29,430.12M351.45,376.97C299.5,376.97 293.49,416.64 293.49,446.48C293.49,459.54 294.51,478.56 303.36,492.98C312.73,508.25 329.32,515.99 352.66,515.99C370.27,515.99 387.05,510.49 399.92,500.51L400.25,500.24C404.09,496.88 406.54,491.76 406.54,487.15C406.54,477.15 398.36,466.01 386.6,466.01C381.67,466.01 378.23,468.13 374.9,470.19C373.84,470.84 372.67,471.57 371.21,472.36C366.42,475.05 359.65,476.85 354.34,476.85C342.34,476.85 337.48,473.72 335.88,464.25L385.87,464.25C399.44,464.25 408.21,454.91 408.21,440.46C408.21,387.98 377.34,376.96 351.45,376.96M352.65,499.23C321.35,499.23 310.26,485.43 310.26,446.48C310.26,407.53 321.42,393.74 351.45,393.74C379.11,393.74 391.44,408.15 391.44,440.47C391.44,447.49 388.35,447.49 385.87,447.49L329.07,447.49C325.99,447.49 323.35,448.51 321.44,450.42C319.58,452.28 318.52,454.94 318.53,457.72C318.77,466.65 319.51,493.62 354.35,493.62C362.52,493.62 372.08,491.1 379.33,487.05C381,486.14 382.43,485.26 383.7,484.47C384.79,483.8 386.28,482.88 386.72,482.78C387.9,482.78 389.59,485 389.76,486.82C389.66,487.04 389.49,487.33 389.34,487.51C379.44,495.07 366.42,499.23 352.66,499.23M351.45,398.63C324.35,398.63 319.82,418.33 318.79,433.14L318.77,433.61C318.77,440.65 323.83,444.27 328.83,444.27L374.07,444.27C376.88,444.27 379.44,443.26 381.28,441.42C383.13,439.57 384.14,436.98 384.13,434.13C382.86,410.53 371.87,398.63 351.45,398.63M336.32,427.51C338.02,418.31 341.89,415.4 351.45,415.4C359.8,415.4 364.62,417.36 366.56,427.51L336.31,427.51L336.32,427.51Z" style="fill:white;fill-rule:nonzero;"/>
        </g>
        <g transform="matrix(0.628418,0,0,0.628418,322.338,507.497)">
            <path d="M450.48,508.92C444.03,508.92 437.14,505.74 437.14,496.79L437.14,396.19C437.14,387.24 444.03,384.06 450.48,384.06C456.93,384.06 462.07,387.39 463.54,392.98C463.68,393.39 463.78,393.62 463.83,393.74C463.85,393.65 464.06,393.53 464.48,393.11C472.04,386.99 480.02,384.07 488.98,384.07C497.36,384.07 505.92,385.77 505.92,398.37C505.92,409.97 498.28,411.22 494.99,411.22C491.91,411.22 490.45,411.16 489.08,411.09C487.89,411.03 486.76,410.98 484.65,410.98C474.34,410.98 463.8,414.23 463.8,438.32L463.8,496.8C463.8,505.75 456.91,508.93 450.47,508.93" style="fill:white;fill-rule:nonzero;"/>
        </g>
        <g transform="matrix(0.628418,0,0,0.628418,322.338,507.497)">
            <path d="M488.98,385.36C498.85,385.36 504.63,388.01 504.63,398.36C504.63,406.78 500.3,409.91 495,409.91C489.22,409.91 489.22,409.67 484.65,409.67C472.61,409.67 462.5,414.73 462.5,438.31L462.5,496.79C462.5,504.73 456.48,507.62 450.47,507.62C444.46,507.62 438.43,504.73 438.43,496.79L438.43,396.19C438.43,388.25 444.45,385.36 450.47,385.36C456,385.36 460.82,387.76 462.27,393.3C462.75,394.74 462.99,394.98 463.71,394.98C464.19,394.98 464.67,394.74 465.4,394.02C471.66,388.96 479.12,385.36 488.98,385.36M488.98,382.75C479.98,382.75 471.94,385.6 464.43,391.45C462.55,386.03 457.39,382.75 450.47,382.75C441.58,382.75 435.83,388.03 435.83,396.18L435.83,496.78C435.83,504.94 441.57,510.22 450.47,510.22C459.37,510.22 465.11,504.94 465.11,496.78L465.11,438.3C465.11,415.36 474.99,412.27 484.65,412.27C486.74,412.27 487.85,412.32 489.02,412.38C490.4,412.44 491.87,412.51 494.99,412.51C502.65,412.51 507.22,407.22 507.22,398.36C507.22,384.53 497.46,382.76 488.97,382.76" style="fill:white;fill-rule:nonzero;"/>
        </g>
        <g transform="matrix(0.628418,0,0,0.628418,322.338,507.497)">
            <path d="M450.48,514.69C439.05,514.69 431.37,507.49 431.37,496.78L431.37,396.18C431.37,385.47 439.05,378.28 450.48,378.28C456.86,378.28 462.39,380.71 465.86,384.99C473,380.47 480.58,378.28 488.98,378.28C504.06,378.28 511.7,385.04 511.7,398.35C511.7,411.66 502.7,416.98 494.99,416.98C491.77,416.98 490.25,416.91 488.82,416.84C487.69,416.78 486.63,416.73 484.64,416.73C476.7,416.73 469.57,418.38 469.57,438.29L469.57,496.77C469.57,507.48 461.89,514.68 450.46,514.68M450.48,392.43C445.53,392.43 445.53,394.78 445.53,396.18L445.53,496.78C445.53,498.19 445.53,500.53 450.48,500.53C455.43,500.53 455.43,498.19 455.43,496.78L455.43,438.3C455.43,414.6 465.26,402.58 484.65,402.58C486.96,402.58 488.18,402.64 489.48,402.7C490.78,402.76 492.13,402.82 494.99,402.82C496.3,402.82 497.54,402.82 497.54,398.35C497.54,393.88 497.54,392.43 488.97,392.43C481.98,392.43 475.96,394.63 470.04,399.36C467.74,401.58 465.31,402.06 463.7,402.06C460.97,402.06 457.34,400.93 455.54,395.54L455.41,395.09C455.24,394.44 454.72,392.44 450.47,392.44" style="fill:white;fill-rule:nonzero;"/>
        </g>
        <g transform="matrix(0.628418,0,0,0.628418,322.338,507.497)">
            <path d="M488.98,379.58C494.28,379.58 510.4,379.58 510.4,398.35C510.4,411.13 502.45,415.68 495,415.68C491.81,415.68 490.3,415.61 488.88,415.54C487.75,415.49 486.68,415.44 484.65,415.44C476.37,415.44 468.29,417.2 468.29,438.3L468.29,496.78C468.29,506.72 461.13,513.39 450.48,513.39C439.83,513.39 432.67,506.72 432.67,496.78L432.67,396.18C432.67,386.25 439.83,379.57 450.48,379.57C457.05,379.57 462.44,382.22 465.55,386.73C472.76,381.92 480.47,379.57 488.99,379.57M463.71,400.76C460.36,400.76 458.03,398.87 456.79,395.13L456.68,394.76C456.06,392.36 453.96,391.14 450.47,391.14C444.22,391.14 444.22,394.81 444.22,396.19L444.22,496.79C444.22,498.17 444.22,501.84 450.47,501.84C456.72,501.84 456.73,498.17 456.73,496.79L456.73,438.31C456.73,415.47 466.12,403.89 484.65,403.89C486.94,403.89 488.14,403.95 489.42,404.01C490.72,404.07 492.09,404.13 495,404.13C496.53,404.13 498.85,404.13 498.85,398.35C498.85,393.48 498.43,391.14 488.98,391.14C481.68,391.14 475.4,393.43 469.23,398.35C468.4,399.15 466.5,400.76 463.71,400.76M488.98,376.98C480.69,376.98 473.19,379.05 466.11,383.3C462.38,379.26 456.81,376.98 450.47,376.98C438.45,376.98 430.06,384.88 430.06,396.19L430.06,496.79C430.06,508.1 438.46,516 450.47,516C462.48,516 470.89,508.1 470.89,496.79L470.89,438.31C470.89,418.05 478.52,418.05 484.65,418.05C486.62,418.05 487.66,418.1 488.76,418.15C490.26,418.22 491.8,418.29 495,418.29C503.31,418.29 513.01,413.07 513.01,398.35C513.01,383.63 504.93,376.98 488.98,376.98M470.95,400.31C476.6,395.82 482.34,393.74 488.98,393.74C496.24,393.74 496.24,394.44 496.24,398.35C496.24,400.91 495.72,401.5 495.72,401.5C495.65,401.52 495.24,401.52 495,401.52C492.15,401.52 490.81,401.46 489.54,401.4C488.24,401.34 487,401.28 484.65,401.28C470.73,401.28 454.13,407.7 454.13,438.31L454.13,496.79C454.13,498.05 454.13,499.23 450.48,499.23C446.83,499.23 446.83,498.04 446.83,496.79L446.83,396.19C446.83,394.93 446.83,393.75 450.48,393.75C453.73,393.75 454.04,394.92 454.17,395.42L454.3,395.87C455.93,400.73 459.26,403.37 463.72,403.37C465.55,403.37 468.29,402.84 470.96,400.32" style="fill:white;fill-rule:nonzero;"/>
        </g>
        <g transform="matrix(0.628418,0,0,0.628418,322.338,507.497)">
            <path d="M616.15,508.92C609.71,508.92 602.82,505.74 602.82,496.79L602.82,441.68C602.82,421.82 601.23,408.81 580.06,408.81C564.74,408.81 557.28,417.12 557.28,434.22L557.28,496.79C557.28,505.74 550.39,508.92 543.95,508.92C537.51,508.92 530.62,505.74 530.62,496.79L530.62,396.19C530.62,387.24 537.51,384.06 543.95,384.06C550.85,384.06 555.61,387.41 557.01,393.24C557.2,393.81 557.42,393.93 557.42,393.93C557.63,393.93 557.98,393.77 558.15,393.66C565.91,387.23 575.55,384.06 587.51,384.06C613.79,384.06 629.48,402.18 629.48,432.53L629.48,496.78C629.48,505.73 622.59,508.91 616.14,508.91" style="fill:white;fill-rule:nonzero;"/>
        </g>
        <g transform="matrix(0.628418,0,0,0.628418,322.338,507.497)">
            <path d="M587.51,385.36C616.39,385.36 628.18,406.54 628.18,432.53L628.18,496.79C628.18,504.73 622.16,507.62 616.14,507.62C610.12,507.62 604.11,504.73 604.11,496.79L604.11,441.68C604.11,424.11 603.63,407.51 580.04,407.51C568.73,407.51 555.97,411.84 555.97,434.22L555.97,496.79C555.97,504.73 549.95,507.62 543.94,507.62C537.93,507.62 531.9,504.73 531.9,496.79L531.9,396.19C531.9,388.25 537.92,385.36 543.94,385.36C549.23,385.36 554.28,387.52 555.73,393.54C555.97,394.26 556.45,395.23 557.42,395.23C558.14,395.23 558.86,394.75 558.86,394.75C565.84,388.97 574.99,385.37 587.5,385.37M587.51,382.75C575.65,382.75 566,385.8 558.04,392.06C556.34,386.2 551.22,382.75 543.95,382.75C535.06,382.75 529.31,388.03 529.31,396.18L529.31,496.78C529.31,504.94 535.06,510.22 543.95,510.22C552.84,510.22 558.59,504.94 558.59,496.78L558.59,434.21C558.59,417.76 565.41,410.1 580.06,410.1C600.07,410.1 601.52,422.03 601.52,441.67L601.52,496.78C601.52,504.94 607.26,510.22 616.16,510.22C625.06,510.22 630.8,504.94 630.8,496.78L630.8,432.52C630.8,401.35 614.62,382.75 587.52,382.75" style="fill:white;fill-rule:nonzero;"/>
        </g>
        <g transform="matrix(0.628418,0,0,0.628418,322.338,507.497)">
            <path d="M616.15,514.69C604.72,514.69 597.04,507.49 597.04,496.78L597.04,441.67C597.04,420.68 594.81,414.57 580.05,414.57C571.23,414.57 563.06,416.95 563.06,434.21L563.06,496.78C563.06,507.49 555.38,514.69 543.95,514.69C532.52,514.69 524.83,507.49 524.83,496.78L524.83,396.18C524.83,385.47 532.51,378.28 543.95,378.28C550.77,378.28 556.31,380.82 559.71,385.47C567.55,380.7 576.9,378.28 587.51,378.28C617.41,378.28 635.26,398.56 635.26,432.53L635.26,496.79C635.26,507.5 627.58,514.7 616.14,514.7M580.06,400.42C611.2,400.42 611.2,426.24 611.2,441.67L611.2,496.78C611.2,498.18 611.2,500.53 616.15,500.53C621.1,500.53 621.11,498.18 621.11,496.78L621.11,432.52C621.11,417.55 616.74,392.43 587.52,392.43C577.59,392.43 569.7,394.97 563.39,400.19L562.87,400.58C562.07,401.12 560.05,402.3 557.43,402.3C554.42,402.3 550.63,400.59 549.03,395.76L548.88,395.24C548.65,394.3 548.19,392.44 543.96,392.44C539,392.44 539,394.78 539,396.19L539,496.79C539,498.19 539,500.54 543.96,500.54C548.92,500.54 548.91,498.19 548.91,496.79L548.91,434.22C548.91,412.42 559.97,400.42 580.06,400.42" style="fill:white;fill-rule:nonzero;"/>
        </g>
        <g transform="matrix(0.628418,0,0,0.628418,322.338,507.497)">
            <path d="M587.51,379.58C616.59,379.58 633.96,399.38 633.96,432.53L633.96,496.79C633.96,506.73 626.8,513.4 616.15,513.4C605.5,513.4 598.34,506.73 598.34,496.79L598.34,441.68C598.34,421.5 596.69,413.28 580.05,413.28C571.01,413.28 561.76,415.77 561.76,434.22L561.76,496.79C561.76,506.73 554.6,513.4 543.95,513.4C533.3,513.4 526.14,506.73 526.14,496.79L526.14,396.19C526.14,386.26 533.3,379.58 543.95,379.58C550.88,379.58 556.32,382.37 559.33,387.25C567.18,382.16 576.64,379.58 587.51,379.58M557.43,401C554.87,401 551.64,399.52 550.26,395.36L550.13,394.89C549.88,393.86 549.22,391.14 543.95,391.14C537.7,391.14 537.7,394.81 537.7,396.19L537.7,496.79C537.7,498.17 537.7,501.84 543.95,501.84C550.2,501.84 550.2,498.17 550.2,496.79L550.2,434.22C550.2,413.27 560.8,401.73 580.05,401.73C609.89,401.73 609.89,425.77 609.89,441.68L609.89,496.79C609.89,498.17 609.89,501.84 616.14,501.84C622.39,501.84 622.39,498.17 622.39,496.79L622.39,432.53C622.39,417.07 617.86,391.14 587.5,391.14C577.26,391.14 569.1,393.77 562.54,399.2L562.07,399.55C561.41,399.99 559.65,401.01 557.41,401.01M587.51,376.97C577.1,376.97 567.87,379.26 560.03,383.77C556.35,379.37 550.74,376.97 543.95,376.97C531.93,376.97 523.53,384.87 523.53,396.18L523.53,496.78C523.53,508.09 531.93,515.99 543.95,515.99C555.97,515.99 564.36,508.09 564.36,496.78L564.36,434.21C564.36,417.29 572.46,415.87 580.05,415.87C593.89,415.87 595.73,421.06 595.73,441.66L595.73,496.77C595.73,508.08 604.13,515.98 616.15,515.98C628.17,515.98 636.57,508.08 636.57,496.77L636.57,432.51C636.57,397.73 618.23,376.96 587.51,376.96M557.43,403.61C560.38,403.61 562.68,402.28 563.54,401.71L564.11,401.29C570.28,396.19 577.9,393.75 587.51,393.75C602.24,393.75 619.8,400.48 619.8,432.54L619.8,496.8C619.8,498.06 619.8,499.24 616.15,499.24C612.5,499.24 612.5,498.05 612.5,496.8L612.5,441.69C612.5,425.77 612.5,399.13 580.05,399.13C559.43,399.13 547.6,411.92 547.6,434.23L547.6,496.8C547.6,498.06 547.6,499.24 543.95,499.24C540.3,499.24 540.3,498.05 540.3,496.8L540.3,396.2C540.3,394.94 540.3,393.76 543.95,393.76C547.17,393.76 547.43,394.82 547.59,395.52L547.75,396.09C549.6,401.68 553.95,403.63 557.42,403.63" style="fill:white;fill-rule:nonzero;"/>
        </g>
        <g transform="matrix(0.628418,0,0,0.628418,322.338,507.497)">
            <path d="M753.43,508.92C743.72,508.92 737.3,504.86 733.24,496.14C732.94,495.53 732.77,495.18 732.69,495.09L732.45,495.79C725.09,504.36 713.35,508.92 698.57,508.92C661.63,508.92 658.76,481.22 658.76,472.73C658.76,447.32 676.27,433.88 709.4,433.88L728.65,433.88C729.25,433.88 729.39,433.77 729.39,433.77C729.39,433.77 729.51,433.61 729.51,433.01L729.51,428.68C729.51,414.89 723.6,409.52 708.44,409.52C696,409.52 690.43,412.82 683.93,417.47C682.19,418.71 680.04,419.4 677.87,419.4C671.51,419.4 664.78,412.3 664.78,405.59C664.78,401.84 666.59,398.59 670.33,395.66C680.01,387.86 692.64,384.07 708.91,384.07C748.54,384.07 756.66,404.41 756.66,434.95L756.66,479.24C756.66,483.12 757.4,483.71 759.93,483.71C766.07,483.71 769.9,488.26 769.9,495.6C769.9,504.95 764.97,508.93 753.43,508.93M710.83,456.45C698.01,456.45 686.14,458.13 686.14,470.31C686.14,479.96 692.4,484.65 705.29,484.65C722.32,484.65 729.98,473.17 729.98,465.01L729.98,457.31C729.98,456.71 729.86,456.56 729.86,456.56C729.86,456.56 729.72,456.45 729.11,456.45L710.82,456.45L710.83,456.45Z" style="fill:white;fill-rule:nonzero;"/>
        </g>
        <g transform="matrix(0.628418,0,0,0.628418,322.338,507.497)">
            <path d="M708.9,385.36C747.41,385.36 755.35,405.09 755.35,434.94L755.35,479.22C755.35,483.07 756.07,485 759.92,485C765.7,485 768.58,489.33 768.58,495.59C768.58,503.29 765.22,507.63 753.42,507.63C743.07,507.63 737.77,502.82 734.4,495.59C733.92,494.63 733.68,493.91 732.96,493.91C732.24,493.91 731.99,494.39 731.52,494.87C724.06,503.54 712.5,507.63 698.55,507.63C669.19,507.63 660.04,489.34 660.04,472.74C660.04,442.41 685.31,435.19 709.38,435.19L728.63,435.19C730.07,435.19 730.8,434.71 730.8,433.03L730.8,428.7C730.8,414.01 724.06,408.24 708.42,408.24C695.67,408.24 689.89,411.61 683.15,416.42C681.46,417.62 679.53,418.11 677.85,418.11C672.07,418.11 666.06,411.37 666.06,405.6C666.06,402.23 667.75,399.34 671.12,396.69C682.19,387.78 695.91,385.38 708.9,385.38M705.29,485.96C723.58,485.96 731.28,473.2 731.28,465.02L731.28,457.32C731.28,455.63 730.56,455.15 729.12,455.15L710.83,455.15C697.35,455.15 684.84,457.08 684.84,470.32C684.84,480.19 690.86,485.96 705.29,485.96M708.9,382.75C692.32,382.75 679.42,386.64 669.48,394.63C665.44,397.81 663.46,401.39 663.46,405.57C663.46,412.92 670.86,420.69 677.86,420.69C680.3,420.69 682.71,419.92 684.67,418.52C691.18,413.87 696.35,410.82 708.42,410.82C722.84,410.82 728.2,415.66 728.2,428.67L728.2,432.56L709.39,432.56C675.41,432.56 657.45,446.44 657.45,472.71C657.45,481.51 660.41,510.21 698.56,510.21C713.1,510.21 724.8,505.87 732.53,497.64C736.83,506.19 743.5,510.21 753.44,510.21C765.56,510.21 771.2,505.56 771.2,495.57C771.2,487.43 766.88,482.38 759.93,482.38C758.19,482.38 757.96,482.38 757.96,479.21L757.96,434.93C757.96,407.83 752.02,382.75 708.91,382.75M705.29,483.35C689.29,483.35 687.44,475.91 687.44,470.31C687.44,461.27 694,457.75 710.83,457.75L728.68,457.75L728.68,465.02C728.68,471 722.96,483.35 705.29,483.35" style="fill:white;fill-rule:nonzero;"/>
        </g>
        <g transform="matrix(0.628418,0,0,0.628418,322.338,507.497)">
            <path d="M753.43,514.7C743.86,514.7 736.69,511.39 731.57,504.59C723.22,511.21 711.85,514.7 698.56,514.7C664.95,514.7 652.97,493.02 652.97,472.72C652.97,443.94 673.01,428.09 709.39,428.09L723.72,428.09C723.63,419.08 721.32,415.3 708.42,415.3C697.43,415.3 693.22,417.91 687.26,422.16C684.55,424.1 681.21,425.17 677.85,425.17C668.33,425.17 658.98,415.46 658.98,405.58C658.98,400.02 661.59,395.15 666.74,391.1C677.46,382.48 691.26,378.28 708.89,378.28C756.06,378.28 762.42,406.92 762.42,434.94L762.42,478.1C770.39,479.28 775.66,486.15 775.66,495.59C775.66,504.31 771.8,514.7 753.42,514.7M732.97,486.82C735.28,486.82 738.48,487.74 740.6,492.12L740.82,492.57C743.53,498.38 746.95,500.53 753.43,500.53C761.51,500.53 761.51,499.08 761.51,495.58C761.51,492.08 760.55,492.07 759.93,492.07C755.57,492.07 748.28,490.4 748.28,479.22L748.28,434.94C748.28,399.21 734.45,392.44 708.91,392.44C694.62,392.44 683.72,395.63 675.57,402.19C673.16,404.09 673.16,405.17 673.16,405.58C673.16,407.71 676.29,411.01 677.87,411.01C678.03,411.01 678.58,410.99 679.05,410.64C686.34,405.45 693.57,401.14 708.44,401.14C727.98,401.14 737.9,410.4 737.9,428.68L737.9,433.01C737.9,438.45 734.1,442.25 728.65,442.25L709.4,442.25C680.96,442.25 667.14,452.22 667.14,472.72C667.14,483.11 671.23,500.54 698.57,500.54C707.12,500.54 718.85,498.75 726.18,490.25L726.5,489.9C727.17,489.15 729.24,486.83 732.98,486.83M705.29,493.04C681.33,493.04 677.75,478.8 677.75,470.32C677.75,448.08 702.64,448.08 710.82,448.08L729.11,448.08C734.56,448.08 738.36,451.88 738.36,457.33L738.36,465.03C738.36,476.67 728.1,493.05 705.29,493.05M710.83,462.23C691.92,462.23 691.92,466.9 691.92,470.31C691.92,473.51 691.92,478.88 705.3,478.88C719.59,478.88 724.21,469.54 724.21,465.02L724.21,462.23L710.83,462.23Z" style="fill:white;fill-rule:nonzero;"/>
        </g>
        <g transform="matrix(0.628418,0,0,0.628418,322.338,507.497)">
            <path d="M708.9,379.58C754.92,379.58 761.12,407.56 761.12,434.93L761.12,479.26C769.09,479.84 774.36,486.25 774.36,495.58C774.36,507.4 767.32,513.39 753.42,513.39C743.82,513.39 736.7,509.88 731.81,502.7C723.6,509.71 712.23,513.39 698.55,513.39C665.9,513.39 654.26,492.38 654.26,472.72C654.26,444.78 673.84,429.39 709.38,429.39L725.02,429.39L725.02,428.67C725.02,418.72 722.54,413.99 708.42,413.99C697.26,413.99 692.7,416.67 686.51,421.09C684.02,422.87 680.94,423.86 677.86,423.86C669,423.86 660.29,414.8 660.29,405.57C660.29,400.43 662.73,395.91 667.56,392.12C678.03,383.69 691.58,379.57 708.91,379.57M677.85,412.31C678.18,412.31 679.02,412.25 679.78,411.7C686.88,406.64 693.92,402.44 708.41,402.44C727.36,402.44 736.57,411.02 736.57,428.68L736.57,433.01C736.57,437.76 733.38,440.96 728.62,440.96L709.37,440.96C680.06,440.96 665.81,451.35 665.81,472.73C665.81,483.6 670.06,501.85 698.54,501.85C707.36,501.85 719.49,499.98 727.13,491.1L727.42,490.79C728.05,490.08 729.79,488.13 732.95,488.13C735.77,488.13 737.94,489.67 739.41,492.7L739.64,493.15C742.56,499.41 746.42,501.85 753.42,501.85C762.8,501.85 762.8,499.36 762.8,495.6C762.8,490.78 760.86,490.78 759.91,490.78C755.19,490.78 749.56,488.78 749.56,479.23L749.56,434.94C749.56,398.31 734.65,391.14 708.89,391.14C694.29,391.14 683.12,394.42 674.73,401.17C671.83,403.45 671.83,404.94 671.83,405.57C671.83,408.28 675.43,412.31 677.85,412.31M729.12,449.37C733.87,449.37 737.07,452.57 737.07,457.32L737.07,465.02C737.07,476.11 727.21,491.73 705.3,491.73C683.39,491.73 679.07,478.31 679.07,470.31C679.07,449.37 702.15,449.37 710.84,449.37L729.13,449.37M705.29,480.18C720.57,480.18 725.51,469.97 725.51,465.02L725.51,460.93L710.83,460.93C692.16,460.93 690.61,465.37 690.61,470.31C690.61,473.76 690.61,480.18 705.29,480.18M708.9,376.97C690.95,376.97 676.89,381.26 665.91,390.09C660.46,394.38 657.67,399.59 657.67,405.57C657.67,416.31 667.47,426.47 677.84,426.47C681.47,426.47 685.08,425.31 688.01,423.22C693.75,419.12 697.81,416.6 708.4,416.6C720.08,416.6 722.12,419.73 722.37,426.79L709.36,426.79C672.14,426.79 651.64,443.1 651.64,472.72C651.64,493.64 663.96,516 698.53,516C711.59,516 722.85,512.7 731.32,506.4C736.61,512.77 744.03,516 753.41,516C772.87,516 776.95,504.9 776.95,495.59C776.95,486.28 771.72,478.72 763.71,477.01L763.71,434.94C763.71,422.77 762.65,407.29 754.39,395.51C745.65,383.05 730.76,376.99 708.89,376.99M677.87,409.7C676.8,409.55 674.44,406.91 674.44,405.57C674.44,404.82 675.63,403.77 676.34,403.22C684.28,396.84 694.91,393.74 708.89,393.74C733.58,393.74 746.95,400.3 746.95,434.93L746.95,479.22C746.95,488.21 751.67,493.37 759.9,493.37L759.92,493.37C760.02,493.65 760.18,494.3 760.18,495.58C760.18,498.6 760.18,499.23 753.41,499.23C747.45,499.23 744.47,497.35 741.99,492.04L741.75,491.54C739.34,486.56 735.63,485.51 732.95,485.51C731.61,485.51 730.35,485.77 729.17,486.28C736.29,480.22 739.64,471.84 739.64,465.01L739.64,457.31C739.64,451.1 735.31,446.76 729.09,446.76L710.8,446.76C702.29,446.76 676.43,446.76 676.43,470.3C676.43,477.52 679.24,494.33 705.27,494.33C713.63,494.33 720.37,492.2 725.59,488.91C725.55,488.95 725.51,488.99 725.48,489.03L725.22,489.31C718.16,497.51 706.82,499.22 698.54,499.22C673.64,499.22 668.42,484.8 668.42,472.71C668.42,452.81 681.43,443.55 709.38,443.55L728.63,443.55C734.84,443.55 739.18,439.21 739.18,433L739.18,428.67C739.18,409.53 728.83,399.83 708.41,399.83C693.18,399.83 685.46,404.44 678.27,409.58C678.15,409.66 677.97,409.69 677.87,409.7M705.29,477.57C693.22,477.57 693.22,473.37 693.22,470.31C693.22,467.25 693.22,463.53 710.83,463.53L722.9,463.53L722.9,465.01C722.9,469.1 718.6,477.56 705.29,477.56" style="fill:white;fill-rule:nonzero;"/>
        </g>
        <g transform="matrix(0.628418,0,0,0.628418,322.338,507.497)">
            <path d="M842.87,508.92C819.81,508.92 808.12,496.01 808.12,470.56L808.12,410.63C808.12,409.9 807.98,409.77 807.25,409.77L798.59,409.77C790.88,409.77 786.46,405.35 786.46,397.64C786.46,389.93 790.88,385.51 798.59,385.51L807.25,385.51C807.86,385.51 807.99,385.4 807.99,385.4C807.99,385.4 808.11,385.25 808.11,384.65L808.11,361.07C808.11,352.12 815,348.94 821.44,348.94C827.88,348.94 834.77,352.12 834.77,361.07L834.77,384.65C834.77,385.23 834.84,385.42 834.86,385.46C834.88,385.5 835.11,385.52 835.63,385.52L846.94,385.52C854.61,385.52 858.83,389.83 858.83,397.65C858.83,405.47 854.61,409.78 846.94,409.78L835.63,409.78C835.03,409.78 834.88,409.9 834.88,409.9C834.88,409.9 834.77,410.04 834.77,410.64L834.77,471.53C834.77,479.34 839.07,483.47 847.19,483.47C853.95,483.47 858.85,488.67 858.85,495.84C858.85,498.91 857.7,508.93 842.86,508.93" style="fill:white;fill-rule:nonzero;"/>
        </g>
        <g transform="matrix(0.628418,0,0,0.628418,322.338,507.497)">
            <path d="M821.45,350.22C827.47,350.22 833.49,353.11 833.49,361.05L833.49,384.63C833.49,386.32 833.97,386.8 835.65,386.8L846.96,386.8C854.9,386.8 857.55,391.61 857.55,397.63C857.55,403.65 854.9,408.46 846.96,408.46L835.65,408.46C833.96,408.46 833.49,409.18 833.49,410.63L833.49,471.52C833.49,479.7 838.06,484.76 847.21,484.76C853.23,484.76 857.56,489.33 857.56,495.83C857.56,501.12 854.43,507.62 842.88,507.62C818.57,507.62 809.43,493.18 809.43,470.56L809.43,410.63C809.43,409.18 808.7,408.46 807.26,408.46L798.6,408.46C790.66,408.46 787.77,403.64 787.77,397.63C787.77,391.62 790.66,386.8 798.6,386.8L807.26,386.8C808.7,386.8 809.43,386.32 809.43,384.63L809.43,361.05C809.43,353.11 815.45,350.22 821.46,350.22M821.45,347.61C812.56,347.61 806.81,352.89 806.81,361.05L806.81,384.2L798.58,384.2C790.17,384.2 785.14,389.22 785.14,397.63C785.14,406.04 790.16,411.07 798.58,411.07L806.8,411.07L806.8,470.56C806.8,496.88 818.94,510.22 842.87,510.22C855.62,510.22 860.16,502.78 860.16,495.83C860.16,487.9 854.71,482.15 847.21,482.15C839.71,482.15 836.1,478.57 836.1,471.52L836.1,411.07L846.97,411.07C855.35,411.07 860.16,406.17 860.16,397.63C860.16,389.09 855.35,384.2 846.97,384.2L836.1,384.2L836.1,361.05C836.1,352.89 830.35,347.61 821.46,347.61" style="fill:white;fill-rule:nonzero;"/>
        </g>
        <g transform="matrix(0.628418,0,0,0.628418,322.338,507.497)">
            <path d="M842.88,514.7C824.39,514.7 802.34,507.04 802.34,470.56L802.34,415.55L798.59,415.55C787.71,415.55 780.68,408.52 780.68,397.64C780.68,386.76 787.54,379.73 798.59,379.73L802.34,379.73L802.34,361.06C802.34,350.34 810.02,343.15 821.46,343.15C832.9,343.15 840.57,350.35 840.57,361.06L840.57,379.73L846.97,379.73C857.87,379.73 864.64,386.59 864.64,397.64C864.64,408.69 857.71,415.55 846.97,415.55L840.57,415.55L840.57,471.52C840.57,476.07 842.31,477.68 847.21,477.68C857.15,477.68 864.64,485.48 864.64,495.83C864.64,504.53 858.94,514.7 842.88,514.7M798.59,393.88C795.47,393.88 794.84,394.51 794.84,397.63C794.84,400.75 795.47,401.38 798.59,401.38L807.25,401.38C812.61,401.38 816.49,405.27 816.49,410.63L816.49,470.56C816.49,491.58 824.38,500.54 842.87,500.54C850.47,500.54 850.47,497.24 850.47,495.83C850.47,494.63 850.15,491.83 847.2,491.83C834.37,491.83 826.41,484.05 826.41,471.52L826.41,410.63C826.41,405.18 830.21,401.38 835.65,401.38L846.96,401.38C849.63,401.38 850.47,401.21 850.47,397.63C850.47,394.05 849.62,393.88 846.96,393.88L835.65,393.88C830.03,393.88 826.41,390.25 826.41,384.63L826.41,361.05C826.41,359.65 826.41,357.3 821.46,357.3C816.51,357.3 816.5,359.65 816.5,361.05L816.5,384.63C816.5,390.08 812.7,393.88 807.26,393.88L798.59,393.88Z" style="fill:white;fill-rule:nonzero;"/>
        </g>
        <g transform="matrix(0.628418,0,0,0.628418,322.338,507.497)">
            <path d="M821.46,344.44C832.11,344.44 839.27,351.11 839.27,361.05L839.27,381.02L846.97,381.02C857.07,381.02 863.34,387.38 863.34,397.63C863.34,407.88 857.07,414.24 846.97,414.24L839.27,414.24L839.27,471.52C839.27,476.82 841.57,478.98 847.21,478.98C856.41,478.98 863.34,486.23 863.34,495.83C863.34,503.93 857.98,513.4 842.88,513.4C824.98,513.4 803.65,505.96 803.65,470.56L803.65,414.24L798.6,414.24C788.36,414.24 781.99,407.88 781.99,397.63C781.99,387.38 788.36,381.02 798.6,381.02L803.65,381.02L803.65,361.05C803.65,351.11 810.81,344.44 821.46,344.44M798.59,402.68L807.25,402.68C811.85,402.68 815.2,406.02 815.2,410.62L815.2,470.55C815.2,492.19 823.73,501.83 842.87,501.83C851.78,501.83 851.78,497.31 851.78,495.82C851.78,493.26 850.58,490.53 847.2,490.53C835.18,490.53 827.71,483.24 827.71,471.51L827.71,410.62C827.71,405.87 830.9,402.68 835.65,402.68L846.96,402.68C850.29,402.68 851.78,401.95 851.78,397.63C851.78,393.31 850.3,392.58 846.96,392.58L835.65,392.58C830.76,392.58 827.71,389.53 827.71,384.63L827.71,361.05C827.71,359.67 827.71,356 821.46,356C815.21,356 815.21,359.67 815.21,361.05L815.21,384.63C815.21,389.38 812.01,392.58 807.26,392.58L798.6,392.58C794.77,392.58 793.54,393.81 793.54,397.63C793.54,401.45 794.77,402.68 798.6,402.68M821.46,341.84C809.44,341.84 801.04,349.74 801.04,361.05L801.04,378.42L798.6,378.42C786.93,378.42 779.38,385.96 779.38,397.63C779.38,409.3 786.93,416.84 798.6,416.84L801.04,416.84L801.04,470.55C801.04,487.52 806.48,515.99 842.88,515.99C858.81,515.99 865.94,505.86 865.94,495.82C865.94,484.73 857.88,476.36 847.2,476.36C842.67,476.36 841.86,475.09 841.86,471.51L841.86,416.84L846.96,416.84C858.49,416.84 865.93,409.3 865.93,397.63C865.93,385.96 858.48,378.42 846.96,378.42L841.86,378.42L841.86,361.05C841.86,349.74 833.46,341.84 821.45,341.84M798.59,400.08C796.21,400.08 796.14,400.01 796.14,397.63C796.14,395.25 796.21,395.19 798.59,395.19L807.25,395.19C813.46,395.19 817.8,390.85 817.8,384.64L817.8,361.06C817.8,359.8 817.8,358.61 821.45,358.61C825.1,358.61 825.1,359.8 825.1,361.06L825.1,384.64C825.1,390.95 829.34,395.19 835.65,395.19L846.96,395.19C848.47,395.19 848.81,395.37 848.86,395.41C848.86,395.41 849.17,395.81 849.17,397.63C849.17,399.45 848.85,399.86 848.85,399.87C848.81,399.9 848.47,400.08 846.96,400.08L835.65,400.08C829.44,400.08 825.1,404.42 825.1,410.63L825.1,471.52C825.1,484.65 833.78,493.14 847.2,493.14C847.69,493.14 849.17,493.14 849.17,495.83C849.17,497.02 849.17,499.24 842.87,499.24C825.3,499.24 817.8,490.66 817.8,470.56L817.8,410.63C817.8,404.62 813.26,400.08 807.25,400.08L798.59,400.08Z" style="fill:white;fill-rule:nonzero;"/>
        </g>
        <g transform="matrix(0.628418,0,0,0.628418,322.338,507.497)">
            <path d="M909.8,508.91C903.35,508.91 896.46,505.73 896.46,496.78L896.46,407.25C896.46,398.3 903.35,395.12 909.8,395.12C916.25,395.12 923.13,398.3 923.13,407.25L923.13,496.78C923.13,505.72 916.24,508.91 909.8,508.91M909.8,368.85C900.54,368.85 893.82,362.13 893.82,352.87C893.82,343.61 900.39,336.89 909.8,336.89C919.21,336.89 925.78,343.61 925.78,352.87C925.78,362.13 918.91,368.85 909.8,368.85" style="fill:white;fill-rule:nonzero;"/>
        </g>
        <g transform="matrix(0.628418,0,0,0.628418,322.338,507.497)">
            <path d="M909.79,338.18C918.21,338.18 924.47,344.2 924.47,352.86C924.47,361.52 918.21,367.54 909.79,367.54C901.37,367.54 895.11,361.28 895.11,352.86C895.11,344.44 901.13,338.18 909.79,338.18M909.79,396.43C915.81,396.43 921.83,399.32 921.83,407.26L921.83,496.79C921.83,504.73 915.81,507.62 909.79,507.62C903.77,507.62 897.76,504.73 897.76,496.79L897.76,407.26C897.76,399.32 903.78,396.43 909.79,396.43M909.79,335.58C899.62,335.58 892.51,342.69 892.51,352.87C892.51,363.05 899.78,370.16 909.79,370.16C919.8,370.16 927.08,362.73 927.08,352.87C927.08,343.01 919.81,335.58 909.79,335.58M909.79,393.82C900.9,393.82 895.15,399.1 895.15,407.25L895.15,496.78C895.15,504.94 900.89,510.21 909.79,510.21C918.69,510.21 924.43,504.94 924.43,496.78L924.43,407.25C924.43,399.09 918.68,393.82 909.79,393.82" style="fill:white;fill-rule:nonzero;"/>
        </g>
        <g transform="matrix(0.628418,0,0,0.628418,322.338,507.497)">
            <path d="M909.8,514.69C898.37,514.69 890.69,507.49 890.69,496.78L890.69,407.25C890.69,396.53 898.37,389.34 909.8,389.34C921.23,389.34 928.91,396.53 928.91,407.25L928.91,496.78C928.91,507.49 921.23,514.69 909.8,514.69M909.8,403.5C904.85,403.5 904.85,405.85 904.85,407.25L904.85,496.78C904.85,498.18 904.85,500.53 909.8,500.53C914.75,500.53 914.75,498.18 914.75,496.78L914.75,407.25C914.75,405.84 914.75,403.5 909.8,403.5M909.8,374.63C897.39,374.63 888.04,365.27 888.04,352.87C888.04,340.47 897.19,331.11 909.8,331.11C922.41,331.11 931.56,340.46 931.56,352.87C931.56,365.28 922.21,374.63 909.8,374.63M909.8,345.26C905.04,345.26 902.2,348.1 902.2,352.86C902.2,357.62 905.18,360.47 909.8,360.47C914.42,360.47 917.4,357.41 917.4,352.86C917.4,348.31 914.42,345.26 909.8,345.26" style="fill:white;fill-rule:nonzero;"/>
        </g>
        <g transform="matrix(0.628418,0,0,0.628418,322.338,507.497)">
            <path d="M909.79,332.41C921.46,332.41 930.25,341.21 930.25,352.87C930.25,364.53 921.45,373.33 909.79,373.33C898.13,373.33 889.33,364.53 889.33,352.87C889.33,341.21 897.94,332.41 909.79,332.41M909.79,361.77C915.03,361.77 918.7,358.11 918.7,352.87C918.7,347.63 915.12,343.96 909.79,343.96C904.46,343.96 900.89,347.37 900.89,352.87C900.89,358.37 904.47,361.77 909.79,361.77M909.79,390.65C920.44,390.65 927.6,397.32 927.6,407.25L927.6,496.78C927.6,506.71 920.44,513.38 909.79,513.38C899.14,513.38 891.98,506.71 891.98,496.78L891.98,407.25C891.98,397.32 899.14,390.65 909.79,390.65M909.79,501.84C916.04,501.84 916.04,498.17 916.04,496.79L916.04,407.26C916.04,405.88 916.04,402.21 909.79,402.21C903.54,402.21 903.54,405.88 903.54,407.26L903.54,496.79C903.54,498.17 903.54,501.84 909.79,501.84M909.79,329.8C896.43,329.8 886.73,339.5 886.73,352.86C886.73,366.22 896.65,375.92 909.79,375.92C922.93,375.92 932.86,366 932.86,352.86C932.86,339.72 922.94,329.8 909.79,329.8M909.79,359.17C905.91,359.17 903.49,356.75 903.49,352.87C903.49,348.99 905.73,346.57 909.79,346.57C913.85,346.57 916.09,348.99 916.09,352.87C916.09,356.75 913.62,359.17 909.79,359.17M909.79,388.04C897.77,388.04 889.38,395.94 889.38,407.25L889.38,496.78C889.38,508.09 897.77,515.99 909.79,515.99C921.81,515.99 930.21,508.09 930.21,496.78L930.21,407.25C930.21,395.94 921.81,388.04 909.79,388.04M909.79,499.23C906.14,499.23 906.14,498.04 906.14,496.79L906.14,407.26C906.14,406.01 906.14,404.82 909.79,404.82C913.44,404.82 913.44,406.01 913.44,407.26L913.44,496.79C913.44,498.05 913.44,499.23 909.79,499.23" style="fill:white;fill-rule:nonzero;"/>
        </g>
        <g transform="matrix(0.628418,0,0,0.628418,322.338,507.497)">
            <path d="M1009.8,508.92C964.97,508.92 957.62,477.36 957.62,446.49C957.62,415.62 963.66,384.06 1008.5,384.06C1053.34,384.06 1059.38,415.62 1059.38,446.49C1059.38,477.36 1054.64,508.92 1009.8,508.92M1008.5,409.52C986.59,409.52 985.01,423.49 985.01,446.49C985.01,469.49 986.59,483.46 1008.5,483.46C1030.41,483.46 1031.98,469.49 1031.98,446.49C1031.98,423.49 1030.4,409.52 1008.5,409.52" style="fill:white;fill-rule:nonzero;"/>
        </g>
        <g transform="matrix(0.628418,0,0,0.628418,322.338,507.497)">
            <path d="M1008.5,385.36C1049.65,385.36 1058.08,412.07 1058.08,446.49C1058.08,480.91 1050.96,507.62 1009.8,507.62C968.64,507.62 958.92,480.91 958.92,446.49C958.92,412.07 967.34,385.36 1008.5,385.36M1008.5,484.75C1032.08,484.75 1033.29,468.39 1033.29,446.48C1033.29,424.57 1032.09,408.21 1008.5,408.21C984.91,408.21 983.71,424.57 983.71,446.48C983.71,468.39 984.91,484.75 1008.5,484.75M1008.5,382.75C962.52,382.75 956.32,414.97 956.32,446.49C956.32,478.01 963.82,510.22 1009.8,510.22C1055.78,510.22 1060.68,478 1060.68,446.49C1060.68,414.98 1054.48,382.75 1008.5,382.75M1008.5,482.15C988.5,482.15 986.32,470.73 986.32,446.49C986.32,422.25 988.51,410.83 1008.5,410.83C1028.49,410.83 1030.68,422.25 1030.68,446.49C1030.68,470.73 1028.49,482.15 1008.5,482.15" style="fill:white;fill-rule:nonzero;"/>
        </g>
        <g transform="matrix(0.628418,0,0,0.628418,322.338,507.497)">
            <path d="M1009.8,514.7C959.58,514.7 951.84,478.25 951.84,446.49C951.84,414.73 958.28,378.28 1008.5,378.28C1058.72,378.28 1065.15,414.73 1065.15,446.49C1065.15,478.25 1060.01,514.7 1009.8,514.7M1008.5,392.43C977.92,392.43 966,407.59 966,446.48C966,485.37 979.22,500.53 1009.8,500.53C1040.38,500.53 1050.99,485.37 1050.99,446.48C1050.99,407.59 1039.07,392.43 1008.5,392.43M1009.8,491.83C977.93,491.83 976.63,464.55 976.63,446.49C976.63,428.43 976.63,401.15 1008.5,401.15C1040.37,401.15 1040.37,428.43 1040.37,446.49C1040.37,464.55 1041.67,491.83 1009.81,491.83M1008.5,415.3C993.94,415.3 990.79,420.84 990.79,446.49C990.79,472.14 993.94,477.68 1008.5,477.68C1023.06,477.68 1026.21,472.14 1026.21,446.49C1026.21,420.84 1023.06,415.3 1008.5,415.3" style="fill:white;fill-rule:nonzero;"/>
        </g>
        <g transform="matrix(0.628418,0,0,0.628418,322.338,507.497)">
            <path d="M1008.5,379.58C1057.56,379.58 1063.85,415.33 1063.85,446.49C1063.85,477.65 1058.86,513.4 1009.8,513.4C960.74,513.4 953.14,477.64 953.14,446.49C953.14,415.34 959.43,379.58 1008.5,379.58M1009.8,501.84C1041.32,501.84 1052.29,486.32 1052.29,446.49C1052.29,406.66 1040.01,391.14 1008.49,391.14C976.97,391.14 964.69,406.66 964.69,446.49C964.69,486.32 978.27,501.84 1009.79,501.84M1008.5,402.44C1039.06,402.44 1039.06,427.89 1039.06,446.48C1039.06,465.07 1040.36,490.52 1009.8,490.52C979.24,490.52 977.93,465.06 977.93,446.48C977.93,427.9 977.93,402.44 1008.49,402.44M1008.5,478.97C1024.89,478.97 1027.51,471.25 1027.51,446.48C1027.51,421.71 1024.89,413.99 1008.5,413.99C992.11,413.99 989.49,421.71 989.49,446.48C989.49,471.25 992.11,478.97 1008.5,478.97M1008.5,376.97C956.55,376.97 950.54,416.64 950.54,446.48C950.54,459.53 951.54,478.55 960.19,492.95C969.37,508.24 986.93,515.99 1009.8,515.99C1061.75,515.99 1066.46,476.32 1066.46,446.48C1066.46,433.43 1065.46,414.41 1056.81,400.01C1047.63,384.73 1031.38,376.97 1008.5,376.97M1009.8,499.23C979.77,499.23 967.31,484.93 967.31,446.48C967.31,408.03 978.47,393.74 1008.5,393.74C1038.53,393.74 1049.69,408.03 1049.69,446.48C1049.69,484.93 1039.83,499.23 1009.8,499.23M1008.5,399.84C975.33,399.84 975.33,427.91 975.33,446.49C975.33,465.07 976.63,493.14 1009.8,493.14C1042.97,493.14 1041.67,465.07 1041.67,446.49C1041.67,427.91 1041.67,399.84 1008.5,399.84M1008.5,476.37C994.7,476.37 992.09,471.62 992.09,446.49C992.09,421.36 994.7,416.61 1008.5,416.61C1022.3,416.61 1024.9,421.36 1024.9,446.49C1024.9,471.62 1022.29,476.37 1008.5,476.37" style="fill:white;fill-rule:nonzero;"/>
        </g>
        <g transform="matrix(0.628418,0,0,0.628418,322.338,507.497)">
            <path d="M1177.14,508.92C1170.7,508.92 1163.81,505.74 1163.81,496.79L1163.81,441.68C1163.81,421.82 1162.22,408.81 1141.04,408.81C1125.72,408.81 1118.27,417.12 1118.27,434.22L1118.27,496.79C1118.27,505.74 1111.38,508.92 1104.94,508.92C1098.5,508.92 1092.9,505.74 1092.9,496.79L1091.6,396.19C1091.6,387.24 1098.49,384.06 1104.94,384.06C1111.84,384.06 1116.6,387.41 1118,393.24C1118.19,393.81 1118.41,393.93 1118.41,393.93C1118.62,393.93 1118.97,393.77 1119.14,393.66C1126.9,387.23 1136.54,384.06 1148.5,384.06C1174.78,384.06 1190.47,402.18 1190.47,432.53L1190.47,496.78C1190.47,505.73 1183.58,508.91 1177.14,508.91" style="fill:white;fill-rule:nonzero;"/>
        </g>
        <g transform="matrix(0.628418,0,0,0.628418,322.338,507.497)">
            <path d="M1148.51,385.36C1177.39,385.36 1189.18,406.54 1189.18,432.53L1189.18,496.79C1189.18,504.73 1183.16,507.62 1177.14,507.62C1171.12,507.62 1165.11,504.73 1165.11,496.79L1165.11,441.68C1165.11,424.11 1164.63,407.51 1141.04,407.51C1129.73,407.51 1116.97,411.84 1116.97,434.22L1116.97,496.79C1116.97,504.73 1110.95,507.62 1104.94,507.62C1098.93,507.62 1094.21,504.73 1094.21,496.79L1092.91,396.19C1092.91,388.25 1098.93,385.36 1104.95,385.36C1110.24,385.36 1115.29,387.52 1116.74,393.54C1116.98,394.26 1117.46,395.23 1118.43,395.23C1119.15,395.23 1119.87,394.75 1119.87,394.75C1126.85,388.97 1136,385.37 1148.51,385.37M1148.51,382.75C1136.65,382.75 1127,385.8 1119.04,392.06C1117.34,386.21 1112.23,382.75 1104.95,382.75C1096.05,382.75 1090.31,388.03 1090.31,396.18L1091.62,496.78C1091.62,504.94 1096.06,510.22 1104.96,510.22C1113.86,510.22 1119.6,504.94 1119.6,496.78L1119.6,434.21C1119.6,417.76 1126.42,410.1 1141.07,410.1C1161.08,410.1 1162.53,422.03 1162.53,441.67L1162.53,496.78C1162.53,504.94 1168.27,510.22 1177.17,510.22C1186.07,510.22 1191.81,504.94 1191.81,496.78L1191.81,432.52C1191.81,401.35 1175.63,382.75 1148.53,382.75" style="fill:white;fill-rule:nonzero;"/>
        </g>
        <g transform="matrix(0.628418,0,0,0.628418,322.338,507.497)">
            <path d="M1177.14,514.69C1165.71,514.69 1158.03,507.49 1158.03,496.78L1158.03,441.67C1158.03,420.68 1155.8,414.57 1141.05,414.57C1132.23,414.57 1124.06,416.95 1124.06,434.21L1124.06,496.78C1124.06,507.49 1116.38,514.69 1104.95,514.69C1093.52,514.69 1087.14,507.49 1087.14,496.78L1085.83,396.18C1085.83,385.47 1093.51,378.28 1104.95,378.28C1111.77,378.28 1117.31,380.82 1120.7,385.47C1128.55,380.7 1137.89,378.28 1148.5,378.28C1178.4,378.28 1196.26,398.56 1196.26,432.53L1196.26,496.79C1196.26,507.5 1188.58,514.7 1177.14,514.7M1141.05,400.42C1172.19,400.42 1172.19,426.24 1172.19,441.67L1172.19,496.78C1172.19,498.18 1172.19,500.53 1177.14,500.53C1182.09,500.53 1182.1,498.18 1182.1,496.78L1182.1,432.52C1182.1,417.55 1177.73,392.43 1148.5,392.43C1138.57,392.43 1130.68,394.97 1124.37,400.19L1123.85,400.58C1123.05,401.12 1121.03,402.3 1118.41,402.3C1115.4,402.3 1111.61,400.59 1110.01,395.76L1109.86,395.24C1109.63,394.3 1109.17,392.44 1104.94,392.44C1099.98,392.44 1099.98,394.78 1099.98,396.19L1101.29,496.79C1101.29,498.19 1099.98,500.54 1104.94,500.54C1109.9,500.54 1109.89,498.19 1109.89,496.79L1109.89,434.22C1109.89,412.42 1120.95,400.42 1141.03,400.42" style="fill:white;fill-rule:nonzero;"/>
        </g>
        <g transform="matrix(0.628418,0,0,0.628418,322.338,507.497)">
            <path d="M1148.5,379.58C1177.58,379.58 1194.95,399.38 1194.95,432.53L1194.95,496.79C1194.95,506.73 1187.79,513.4 1177.14,513.4C1166.49,513.4 1159.33,506.73 1159.33,496.79L1159.33,441.68C1159.33,421.5 1157.68,413.28 1141.04,413.28C1132,413.28 1122.75,415.77 1122.75,434.22L1122.75,496.79C1122.75,506.73 1115.59,513.4 1104.94,513.4C1094.29,513.4 1088.43,506.73 1088.43,496.79L1087.12,396.19C1087.12,386.26 1094.28,379.58 1104.93,379.58C1111.86,379.58 1117.3,382.37 1120.32,387.25C1128.17,382.16 1137.63,379.58 1148.5,379.58M1118.42,401C1115.86,401 1112.63,399.52 1111.25,395.36L1111.12,394.89C1110.87,393.86 1110.21,391.14 1104.94,391.14C1098.69,391.14 1098.69,394.81 1098.69,396.19L1100,496.79C1100,498.17 1098.69,501.84 1104.95,501.84C1111.21,501.84 1111.2,498.17 1111.2,496.79L1111.2,434.22C1111.2,413.27 1121.8,401.73 1141.05,401.73C1170.89,401.73 1170.89,425.77 1170.89,441.68L1170.89,496.79C1170.89,498.17 1170.89,501.84 1177.14,501.84C1183.39,501.84 1183.4,498.17 1183.4,496.79L1183.4,432.53C1183.4,417.07 1178.86,391.14 1148.5,391.14C1138.26,391.14 1130.1,393.77 1123.54,399.2L1123.08,399.55C1122.42,399.99 1120.66,401.01 1118.42,401.01M1148.5,376.97C1138.09,376.97 1128.86,379.26 1121.02,383.77C1117.34,379.37 1111.73,376.97 1104.94,376.97C1092.92,376.97 1084.53,384.87 1084.53,396.18L1085.83,496.78C1085.83,508.09 1092.92,515.99 1104.94,515.99C1116.96,515.99 1125.36,508.09 1125.36,496.78L1125.36,434.21C1125.36,417.29 1133.46,415.87 1141.04,415.87C1154.88,415.87 1156.72,421.06 1156.72,441.66L1156.72,496.77C1156.72,508.08 1165.12,515.98 1177.13,515.98C1189.14,515.98 1197.55,508.08 1197.55,496.77L1197.55,432.51C1197.55,397.73 1179.21,376.96 1148.49,376.96M1118.42,403.61C1121.37,403.61 1123.68,402.28 1124.53,401.71L1125.1,401.28C1131.27,396.18 1138.89,393.74 1148.5,393.74C1163.23,393.74 1180.79,400.47 1180.79,432.53L1180.79,496.79C1180.79,498.05 1180.79,499.23 1177.14,499.23C1173.49,499.23 1173.49,498.04 1173.49,496.79L1173.49,441.68C1173.49,425.76 1173.49,399.12 1141.04,399.12C1120.42,399.12 1108.59,411.91 1108.59,434.22L1108.59,496.79C1108.59,498.05 1108.59,499.23 1104.94,499.23C1101.29,499.23 1102.59,498.04 1102.59,496.79L1101.29,396.19C1101.29,394.93 1101.29,393.75 1104.94,393.75C1108.16,393.75 1108.42,394.81 1108.58,395.51L1108.74,396.08C1110.59,401.67 1114.94,403.62 1118.41,403.62" style="fill:white;fill-rule:nonzero;"/>
        </g>
        <g transform="matrix(0.628418,0,0,0.628418,322.338,507.497)">
            <path d="M1314.55,508.92C1304.84,508.92 1298.42,504.86 1294.35,496.14C1294.05,495.53 1293.88,495.18 1293.8,495.09L1293.57,495.78C1286.2,504.35 1274.45,508.91 1259.68,508.91C1222.74,508.91 1219.87,481.21 1219.87,472.72C1219.87,447.31 1237.38,433.87 1270.51,433.87L1289.76,433.87C1290.58,433.87 1290.62,433.87 1290.62,433L1290.62,428.67C1290.62,414.88 1284.71,409.51 1269.54,409.51C1257.1,409.51 1251.53,412.81 1245.03,417.46C1243.28,418.7 1241.13,419.39 1238.97,419.39C1232.61,419.39 1225.88,412.29 1225.88,405.58C1225.88,401.83 1227.69,398.58 1231.43,395.65C1241.11,387.85 1253.74,384.06 1270.02,384.06C1309.65,384.06 1317.77,404.4 1317.77,434.94L1317.77,479.23C1317.77,483.11 1318.51,483.7 1321.04,483.7C1327.18,483.7 1331.01,488.25 1331.01,495.59C1331.01,504.94 1326.08,508.92 1314.55,508.92M1271.94,456.45C1259.12,456.45 1247.25,458.13 1247.25,470.31C1247.25,479.96 1253.51,484.65 1266.4,484.65C1283.43,484.65 1291.09,473.17 1291.09,465.01L1291.09,457.31C1291.09,456.71 1290.97,456.56 1290.97,456.55C1290.97,456.55 1290.83,456.44 1290.22,456.44L1271.93,456.44L1271.94,456.45Z" style="fill:white;fill-rule:nonzero;"/>
        </g>
        <g transform="matrix(0.628418,0,0,0.628418,322.338,507.497)">
            <path d="M1270.02,385.36C1308.53,385.36 1316.47,405.09 1316.47,434.94L1316.47,479.22C1316.47,483.07 1317.19,485 1321.04,485C1326.82,485 1329.7,489.33 1329.7,495.59C1329.7,503.29 1326.33,507.63 1314.54,507.63C1304.19,507.63 1298.89,502.82 1295.53,495.59C1295.04,494.63 1294.8,493.91 1294.08,493.91C1293.36,493.91 1293.12,494.39 1292.64,494.87C1285.18,503.54 1273.62,507.63 1259.67,507.63C1230.31,507.63 1221.16,489.34 1221.16,472.74C1221.16,442.41 1246.43,435.19 1270.5,435.19L1289.76,435.19C1291.2,435.19 1291.92,434.71 1291.92,433.03L1291.92,428.7C1291.92,414.01 1285.18,408.24 1269.54,408.24C1256.78,408.24 1251,411.61 1244.27,416.42C1242.58,417.62 1240.65,418.11 1238.97,418.11C1233.19,418.11 1227.18,411.37 1227.18,405.6C1227.18,402.23 1228.87,399.34 1232.24,396.69C1243.31,387.78 1257.03,385.38 1270.02,385.38M1266.41,485.96C1284.7,485.96 1292.4,473.2 1292.4,465.02L1292.4,457.32C1292.4,455.63 1291.68,455.15 1290.24,455.15L1271.95,455.15C1258.47,455.15 1245.96,457.08 1245.96,470.32C1245.96,480.19 1251.98,485.96 1266.41,485.96M1270.02,382.75C1253.44,382.75 1240.54,386.64 1230.6,394.63C1226.56,397.81 1224.58,401.39 1224.58,405.57C1224.58,412.92 1231.98,420.69 1238.98,420.69C1241.42,420.69 1243.83,419.92 1245.79,418.52C1252.3,413.87 1257.47,410.82 1269.55,410.82C1283.96,410.82 1289.32,415.66 1289.32,428.67L1289.32,432.56L1270.51,432.56C1236.53,432.56 1218.57,446.44 1218.57,472.71C1218.57,481.51 1221.53,510.21 1259.68,510.21C1274.22,510.21 1285.92,505.87 1293.65,497.64C1297.94,506.19 1304.62,510.21 1314.55,510.21C1326.67,510.21 1332.32,505.56 1332.32,495.57C1332.32,487.43 1328,482.38 1321.05,482.38C1319.3,482.38 1319.08,482.38 1319.08,479.21L1319.08,434.93C1319.08,407.83 1313.14,382.75 1270.03,382.75M1266.41,483.35C1250.41,483.35 1248.56,475.91 1248.56,470.31C1248.56,461.27 1255.12,457.75 1271.95,457.75L1289.8,457.75L1289.8,465.02C1289.8,471 1284.08,483.35 1266.41,483.35" style="fill:white;fill-rule:nonzero;"/>
        </g>
        <g transform="matrix(0.628418,0,0,0.628418,322.338,507.497)">
            <path d="M1314.55,514.7C1304.97,514.7 1297.81,511.39 1292.69,504.59C1284.34,511.21 1272.97,514.7 1259.68,514.7C1226.07,514.7 1214.09,493.02 1214.09,472.72C1214.09,443.94 1234.13,428.09 1270.51,428.09L1284.84,428.09C1284.75,419.08 1282.44,415.3 1269.54,415.3C1258.55,415.3 1254.34,417.91 1248.38,422.16C1245.67,424.1 1242.33,425.17 1238.97,425.17C1229.45,425.17 1220.1,415.46 1220.1,405.58C1220.1,400.02 1222.71,395.15 1227.86,391.1C1238.58,382.48 1252.38,378.28 1270.02,378.28C1317.19,378.28 1323.54,406.92 1323.54,434.94L1323.54,478.1C1331.51,479.28 1336.78,486.15 1336.78,495.59C1336.78,504.31 1332.93,514.7 1314.55,514.7M1294.08,486.82C1296.39,486.82 1299.59,487.74 1301.71,492.12L1301.93,492.57C1304.64,498.39 1308.06,500.54 1314.54,500.54C1322.61,500.54 1322.61,499.09 1322.61,495.59C1322.61,492.09 1321.65,492.08 1321.03,492.08C1316.67,492.08 1309.38,490.41 1309.38,479.23L1309.38,434.95C1309.38,399.22 1295.55,392.45 1270.01,392.45C1255.72,392.45 1244.81,395.64 1236.66,402.2C1234.25,404.1 1234.25,405.18 1234.25,405.59C1234.25,407.72 1237.38,411.02 1238.96,411.02C1239.12,411.02 1239.67,411 1240.14,410.65C1247.43,405.46 1254.66,401.15 1269.53,401.15C1289.07,401.15 1298.99,410.41 1298.99,428.69L1298.99,433.02C1298.99,438.46 1295.19,442.26 1289.74,442.26L1270.49,442.26C1242.05,442.26 1228.23,452.23 1228.23,472.73C1228.23,483.12 1232.32,500.55 1259.66,500.55C1268.21,500.55 1279.94,498.76 1287.26,490.26L1287.58,489.91C1288.26,489.15 1290.34,486.84 1294.06,486.84M1266.41,493.04C1242.45,493.04 1238.88,478.8 1238.88,470.32C1238.88,448.08 1263.77,448.08 1271.94,448.08L1290.23,448.08C1295.68,448.08 1299.48,451.88 1299.48,457.33L1299.48,465.03C1299.48,476.67 1289.22,493.05 1266.41,493.05M1271.94,462.23C1253.03,462.23 1253.03,466.9 1253.03,470.31C1253.03,473.51 1253.03,478.88 1266.41,478.88C1280.7,478.88 1285.32,469.54 1285.32,465.02L1285.32,462.23L1271.94,462.23Z" style="fill:white;fill-rule:nonzero;"/>
        </g>
        <g transform="matrix(0.628418,0,0,0.628418,322.338,507.497)">
            <path d="M1270.02,379.58C1316.04,379.58 1322.24,407.56 1322.24,434.93L1322.24,479.26C1330.21,479.84 1335.48,486.25 1335.48,495.58C1335.48,507.4 1328.44,513.39 1314.54,513.39C1304.94,513.39 1297.82,509.88 1292.93,502.7C1284.72,509.71 1273.35,513.39 1259.67,513.39C1227.02,513.39 1215.39,492.38 1215.39,472.72C1215.39,444.78 1234.96,429.39 1270.5,429.39L1286.14,429.39L1286.14,428.67C1286.14,418.72 1283.66,413.99 1269.54,413.99C1258.38,413.99 1253.81,416.67 1247.62,421.09C1245.13,422.87 1242.05,423.86 1238.97,423.86C1230.11,423.86 1221.4,414.8 1221.4,405.57C1221.4,400.43 1223.85,395.91 1228.67,392.12C1239.14,383.69 1252.69,379.57 1270.02,379.57M1238.97,412.31C1239.3,412.31 1240.14,412.25 1240.91,411.7C1248,406.64 1255.05,402.44 1269.54,402.44C1288.49,402.44 1297.7,411.02 1297.7,428.68L1297.7,433.01C1297.7,437.76 1294.51,440.96 1289.76,440.96L1270.5,440.96C1241.19,440.96 1226.94,451.35 1226.94,472.73C1226.94,483.6 1231.19,501.85 1259.67,501.85C1268.49,501.85 1280.62,499.98 1288.26,491.1L1288.55,490.79C1289.18,490.08 1290.93,488.13 1294.08,488.13C1296.9,488.13 1299.07,489.67 1300.54,492.7L1300.77,493.15C1303.69,499.41 1307.55,501.85 1314.55,501.85C1323.93,501.85 1323.93,499.36 1323.93,495.6C1323.93,490.78 1321.98,490.78 1321.04,490.78C1316.32,490.78 1310.69,488.78 1310.69,479.23L1310.69,434.94C1310.69,398.31 1295.78,391.14 1270.02,391.14C1255.42,391.14 1244.25,394.42 1235.86,401.17C1232.96,403.45 1232.96,404.94 1232.96,405.57C1232.96,408.28 1236.55,412.31 1238.97,412.31M1290.23,449.37C1294.98,449.37 1298.18,452.57 1298.18,457.32L1298.18,465.02C1298.18,476.11 1288.32,491.73 1266.41,491.73C1244.5,491.73 1240.18,478.31 1240.18,470.31C1240.18,449.37 1263.26,449.37 1271.95,449.37L1290.24,449.37M1266.41,480.18C1281.69,480.18 1286.63,469.97 1286.63,465.02L1286.63,460.93L1271.95,460.93C1253.28,460.93 1251.74,465.37 1251.74,470.31C1251.74,473.76 1251.74,480.18 1266.41,480.18M1270.02,376.97C1252.07,376.97 1238.01,381.26 1227.03,390.09C1221.58,394.38 1218.79,399.59 1218.79,405.57C1218.79,416.31 1228.59,426.47 1238.96,426.47C1242.59,426.47 1246.2,425.31 1249.13,423.22C1254.87,419.12 1258.93,416.6 1269.53,416.6C1281.21,416.6 1283.25,419.73 1283.5,426.79L1270.49,426.79C1233.27,426.79 1212.77,443.1 1212.77,472.72C1212.77,493.64 1225.09,516 1259.66,516C1272.72,516 1283.98,512.7 1292.45,506.4C1297.74,512.77 1305.16,516 1314.54,516C1334,516 1338.08,504.9 1338.08,495.59C1338.08,486.28 1332.85,478.72 1324.84,477.01L1324.84,434.94C1324.84,422.77 1323.78,407.29 1315.52,395.51C1306.78,383.05 1291.89,376.99 1270.02,376.99M1238.99,409.7C1237.92,409.55 1235.57,406.91 1235.57,405.57C1235.57,404.82 1236.76,403.77 1237.47,403.22C1245.4,396.84 1256.04,393.74 1270.02,393.74C1294.71,393.74 1308.08,400.3 1308.08,434.93L1308.08,479.22C1308.08,488.21 1312.8,493.37 1321.04,493.37L1321.05,493.37C1321.16,493.65 1321.32,494.3 1321.32,495.58C1321.32,498.6 1321.32,499.23 1314.54,499.23C1308.58,499.23 1305.6,497.35 1303.12,492.04L1302.88,491.54C1300.47,486.56 1296.76,485.51 1294.08,485.51C1292.74,485.51 1291.48,485.77 1290.3,486.28C1297.42,480.22 1300.77,471.84 1300.77,465.01L1300.77,457.31C1300.77,451.1 1296.44,446.76 1290.22,446.76L1271.93,446.76C1263.42,446.76 1237.56,446.76 1237.56,470.3C1237.56,477.52 1240.37,494.33 1266.4,494.33C1274.76,494.33 1281.5,492.2 1286.72,488.91C1286.68,488.95 1286.64,488.99 1286.61,489.03L1286.35,489.31C1279.29,497.51 1267.95,499.22 1259.67,499.22C1234.77,499.22 1229.55,484.8 1229.55,472.71C1229.55,452.81 1242.56,443.55 1270.51,443.55L1289.77,443.55C1295.98,443.55 1300.32,439.21 1300.32,433L1300.32,428.67C1300.32,409.53 1289.97,399.83 1269.56,399.83C1254.32,399.83 1246.61,404.44 1239.41,409.58C1239.29,409.67 1239.1,409.69 1239.01,409.7M1266.41,477.57C1254.34,477.57 1254.34,473.37 1254.34,470.31C1254.34,467.25 1254.34,463.53 1271.95,463.53L1284.02,463.53L1284.02,465.01C1284.02,469.1 1279.72,477.56 1266.41,477.56" style="fill:white;fill-rule:nonzero;"/>
        </g>
        <g transform="matrix(0.628418,0,0,0.628418,322.338,507.497)">
            <path d="M1387.11,508.92C1366.8,508.92 1356.93,498.18 1356.93,476.09L1356.93,349.02C1356.93,340.07 1363.82,336.88 1370.26,336.88C1376.7,336.88 1383.6,340.07 1383.6,349.02L1383.6,475.37C1383.6,481.11 1386.08,483.46 1392.17,483.46C1398.95,483.46 1403.34,488.13 1403.34,495.35C1403.34,501.54 1400.53,508.92 1387.12,508.92" style="fill:white;fill-rule:nonzero;"/>
        </g>
        <g transform="matrix(0.628418,0,0,0.628418,322.338,507.497)">
            <path d="M1370.26,338.18C1376.28,338.18 1382.29,341.07 1382.29,349.01L1382.29,475.36C1382.29,481.61 1385.18,484.74 1392.16,484.74C1398.18,484.74 1402.03,488.83 1402.03,495.33C1402.03,501.83 1399.14,507.6 1387.11,507.6C1365.69,507.6 1358.23,495.33 1358.23,476.07L1358.23,349C1358.23,341.06 1364.25,338.17 1370.27,338.17M1370.26,335.58C1361.37,335.58 1355.62,340.86 1355.62,349.02L1355.62,476.09C1355.62,498.74 1366.22,510.22 1387.11,510.22C1402.36,510.22 1404.63,500.9 1404.63,495.34C1404.63,487.44 1399.62,482.14 1392.16,482.14C1386.8,482.14 1384.89,480.37 1384.89,475.36L1384.89,349.01C1384.89,340.85 1379.15,335.57 1370.25,335.57" style="fill:white;fill-rule:nonzero;"/>
        </g>
        <g transform="matrix(0.628418,0,0,0.628418,322.338,507.497)">
            <path d="M1387.11,514.69C1370.7,514.69 1351.15,507.99 1351.15,476.09L1351.15,349.01C1351.15,338.3 1358.83,331.1 1370.26,331.1C1381.69,331.1 1389.37,338.3 1389.37,349.01L1389.37,475.36C1389.37,476.9 1390.3,477.67 1392.16,477.67C1402.14,477.67 1409.1,484.94 1409.1,495.34C1409.1,499.88 1407.51,514.69 1387.11,514.69M1370.26,345.26C1365.31,345.26 1365.31,347.61 1365.31,349.01L1365.31,476.09C1365.31,493.68 1371.43,500.53 1387.12,500.53C1394.96,500.53 1394.96,497.89 1394.96,495.34C1394.96,491.83 1393.28,491.83 1392.17,491.83C1381.55,491.83 1375.22,485.68 1375.22,475.36L1375.22,349.01C1375.22,347.61 1375.22,345.26 1370.27,345.26" style="fill:white;fill-rule:nonzero;"/>
        </g>
        <g transform="matrix(0.628418,0,0,0.628418,322.338,507.497)">
            <path d="M1370.26,332.41C1380.91,332.41 1388.07,339.09 1388.07,349.02L1388.07,475.37C1388.07,478.14 1388.07,478.98 1392.16,478.98C1401.37,478.98 1407.8,485.71 1407.8,495.35C1407.8,500.78 1405.78,513.4 1387.1,513.4C1371.29,513.4 1352.44,506.93 1352.44,476.1L1352.44,349.03C1352.44,339.1 1359.6,332.42 1370.25,332.42M1387.11,501.84C1396.25,501.84 1396.25,498.09 1396.25,495.35C1396.25,490.54 1393.28,490.54 1392.16,490.54C1382.22,490.54 1376.51,485.01 1376.51,475.37L1376.51,349.02C1376.51,347.64 1376.51,343.96 1370.26,343.96C1364.01,343.96 1364.01,347.63 1364.01,349.02L1364.01,476.09C1364.01,494.38 1370.7,501.84 1387.11,501.84M1370.26,329.8C1358.24,329.8 1349.84,337.7 1349.84,349.01L1349.84,476.08C1349.84,490.98 1354.68,515.99 1387.1,515.99C1408.72,515.99 1410.4,500.18 1410.4,495.34C1410.4,484.34 1402.73,476.37 1392.15,476.37C1391.44,476.37 1390.97,476.34 1390.67,476.31L1390.67,349.02C1390.67,337.71 1382.28,329.81 1370.26,329.81M1387.11,499.23C1372.17,499.23 1366.61,492.96 1366.61,476.09L1366.61,349.02C1366.61,347.76 1366.61,346.57 1370.26,346.57C1373.91,346.57 1373.91,347.76 1373.91,349.02L1373.91,475.37C1373.91,486.5 1380.73,493.14 1392.16,493.14C1393.14,493.14 1393.64,493.14 1393.64,495.35C1393.64,497.69 1393.64,499.24 1387.11,499.24" style="fill:white;fill-rule:nonzero;"/>
        </g>
    </g>
    <g>
        <g>
            <path d="M3.567,218.399C3.567,115.397 122.088,31.777 268.078,31.777C414.063,31.777 532.59,115.397 532.59,218.399C532.59,279.266 490.514,336.313 419.859,371.238L453.237,498.332L336.612,398.649C314.263,402.877 291.221,405.021 268.078,405.021C122.088,405.021 3.567,321.396 3.567,218.399Z" style="fill:white;"/>
        </g>
        <g>
            <g>
                <path d="M69.005,131.181L76.338,131.181L76.338,171.181L88.405,171.181L88.405,177.848L69.005,177.848L69.005,131.181Z" style="fill-rule:nonzero;"/>
            </g>
            <g>
                <path d="M91.938,131.181L111.938,131.181L111.938,137.848L99.271,137.848L99.271,150.181L109.338,150.181L109.338,156.848L99.271,156.848L99.271,171.181L111.938,171.181L111.938,177.848L91.938,177.848L91.938,131.181Z" style="fill-rule:nonzero;"/>
            </g>
            <g>
                <path d="M121.805,131.181L131.738,131.181L139.338,177.848L132.005,177.848L130.671,168.581L130.671,168.715L122.338,168.715L121.005,177.848L114.205,177.848L121.805,131.181ZM129.805,162.381L126.538,139.315L126.405,139.315L123.205,162.381L129.805,162.381Z" style="fill-rule:nonzero;"/>
            </g>
            <g>
                <path d="M142.871,131.181L154.071,131.181C157.738,131.181 160.471,132.181 162.271,134.115C164.071,136.048 165.005,138.915 165.005,142.715L165.005,166.315C165.005,170.115 164.071,172.981 162.271,174.915C160.471,176.848 157.738,177.848 154.071,177.848L142.871,177.848L142.871,131.181ZM153.938,171.181C155.138,171.181 156.071,170.848 156.738,170.115C157.338,169.381 157.671,168.248 157.671,166.648L157.671,142.381C157.671,140.781 157.338,139.648 156.738,138.915C156.071,138.181 155.138,137.848 153.938,137.848L150.205,137.848L150.205,171.181L153.938,171.181Z" style="fill-rule:nonzero;"/>
            </g>
            <g>
                <rect x="169.938" y="131.181" width="7.333" height="46.667"/>
            </g>
            <g>
                <path d="M182.738,131.181L191.938,131.181L199.071,159.115L199.205,159.115L199.205,131.181L205.738,131.181L205.738,177.848L198.205,177.848L189.405,143.781L189.271,143.781L189.271,177.848L182.738,177.848L182.738,131.181Z" style="fill-rule:nonzero;"/>
            </g>
            <g>
                <path d="M221.605,178.515C218.071,178.515 215.338,177.515 213.471,175.448C211.605,173.448 210.671,170.581 210.671,166.781L210.671,142.248C210.671,138.448 211.605,135.581 213.471,133.515C215.338,131.515 218.071,130.515 221.605,130.515C225.138,130.515 227.871,131.515 229.738,133.515C231.605,135.581 232.538,138.448 232.538,142.248L232.538,146.248L225.605,146.248L225.605,141.781C225.605,138.715 224.338,137.181 221.805,137.181C219.271,137.181 218.005,138.715 218.005,141.781L218.005,167.315C218.005,170.315 219.271,171.848 221.805,171.848C224.338,171.848 225.605,170.315 225.605,167.315L225.605,158.181L221.938,158.181L221.938,151.515L232.538,151.515L232.538,166.781C232.538,170.581 231.605,173.448 229.738,175.448C227.871,177.515 225.138,178.515 221.605,178.515Z" style="fill-rule:nonzero;"/>
            </g>
            <g>
                <path d="M247.938,131.181L258.405,131.181L263.071,164.581L263.205,164.581L267.871,131.181L278.338,131.181L278.338,177.848L271.405,177.848L271.405,142.515L271.271,142.515L265.938,177.848L259.805,177.848L254.471,142.515L254.338,142.515L254.338,177.848L247.938,177.848L247.938,131.181Z" style="fill-rule:nonzero;"/>
            </g>
            <g>
                <path d="M289.471,131.181L299.405,131.181L307.005,177.848L299.671,177.848L298.338,168.581L298.338,168.715L290.005,168.715L288.671,177.848L281.871,177.848L289.471,131.181ZM297.471,162.381L294.205,139.315L294.071,139.315L290.871,162.381L297.471,162.381Z" style="fill-rule:nonzero;"/>
            </g>
            <g>
                <path d="M310.538,131.181L321.405,131.181C325.205,131.181 327.938,132.048 329.671,133.781C331.405,135.581 332.271,138.248 332.271,141.915L332.271,144.781C332.271,149.648 330.671,152.715 327.471,153.981L327.471,154.115C329.271,154.648 330.538,155.715 331.271,157.381C332.005,159.048 332.338,161.248 332.338,163.981L332.338,172.181C332.338,173.515 332.405,174.581 332.471,175.381C332.538,176.248 332.805,177.048 333.138,177.848L325.671,177.848C325.405,177.115 325.205,176.381 325.138,175.715C325.071,175.048 325.005,173.848 325.005,172.115L325.005,163.581C325.005,161.448 324.671,159.981 324.005,159.115C323.271,158.248 322.071,157.848 320.405,157.848L317.871,157.848L317.871,177.848L310.538,177.848L310.538,131.181ZM320.538,151.181C322.005,151.181 323.138,150.781 323.871,150.048C324.605,149.315 324.938,148.048 324.938,146.248L324.938,142.648C324.938,140.981 324.671,139.715 324.071,138.981C323.471,138.248 322.471,137.848 321.205,137.848L317.871,137.848L317.871,151.181L320.538,151.181Z" style="fill-rule:nonzero;"/>
            </g>
            <g>
                <path d="M337.405,131.181L344.738,131.181L344.738,150.848L354.071,131.181L361.405,131.181L352.671,148.315L361.538,177.848L353.871,177.848L347.671,157.048L344.738,162.981L344.738,177.848L337.405,177.848L337.405,131.181Z" style="fill-rule:nonzero;"/>
            </g>
            <g>
                <path d="M365.005,131.181L385.005,131.181L385.005,137.848L372.338,137.848L372.338,150.181L382.405,150.181L382.405,156.848L372.338,156.848L372.338,171.181L385.005,171.181L385.005,177.848L365.005,177.848L365.005,131.181Z" style="fill-rule:nonzero;"/>
            </g>
            <g>
                <path d="M394.938,137.848L387.271,137.848L387.271,131.181L409.938,131.181L409.938,137.848L402.271,137.848L402.271,177.848L394.938,177.848L394.938,137.848Z" style="fill-rule:nonzero;"/>
            </g>
            <g>
                <rect x="413.471" y="131.181" width="7.333" height="46.667"/>
            </g>
            <g>
                <path d="M426.271,131.181L435.471,131.181L442.605,159.115L442.738,159.115L442.738,131.181L449.271,131.181L449.271,177.848L441.738,177.848L432.938,143.781L432.805,143.781L432.805,177.848L426.271,177.848L426.271,131.181Z" style="fill-rule:nonzero;"/>
            </g>
            <g>
                <path d="M465.138,178.515C461.604,178.515 458.871,177.515 457.004,175.448C455.138,173.448 454.204,170.581 454.204,166.781L454.204,142.248C454.204,138.448 455.138,135.581 457.004,133.515C458.871,131.515 461.604,130.515 465.138,130.515C468.671,130.515 471.404,131.515 473.271,133.515C475.138,135.581 476.071,138.448 476.071,142.248L476.071,146.248L469.138,146.248L469.138,141.781C469.138,138.715 467.871,137.181 465.338,137.181C462.804,137.181 461.538,138.715 461.538,141.781L461.538,167.315C461.538,170.315 462.804,171.848 465.338,171.848C467.871,171.848 469.138,170.315 469.138,167.315L469.138,158.181L465.471,158.181L465.471,151.515L476.071,151.515L476.071,166.781C476.071,170.581 475.137,173.448 473.271,175.448C471.404,177.515 468.671,178.515 465.137,178.515L465.138,178.515Z" style="fill-rule:nonzero;"/>
            </g>
            <g>
                <path d="M76.671,245.181C74.005,245.181 72.005,244.248 70.605,242.448C69.205,240.648 68.538,237.981 68.538,234.515L68.538,229.648C68.538,227.181 68.938,225.181 69.805,223.515C70.671,221.848 72.005,220.648 73.938,219.915L73.938,219.781C72.205,219.048 70.938,217.915 70.138,216.315C69.271,214.781 68.871,212.715 68.871,210.248L68.871,209.381C68.871,205.581 69.805,202.715 71.605,200.781C73.405,198.848 76.138,197.848 79.805,197.848L88.205,197.848L88.205,204.515L79.938,204.515C78.738,204.515 77.805,204.848 77.205,205.581C76.538,206.315 76.205,207.448 76.205,209.048L76.205,211.915C76.205,213.715 76.605,214.981 77.338,215.715C78.071,216.448 79.138,216.848 80.605,216.848L83.471,216.848L83.471,211.648L90.671,211.648L90.671,216.848L92.738,216.848L92.738,223.515L90.671,223.515L90.671,238.848C90.671,240.181 90.738,241.248 90.805,242.048C90.871,242.915 91.138,243.715 91.471,244.515L84.138,244.515C83.805,243.515 83.538,242.315 83.471,240.848L83.338,240.848C82.538,242.315 81.605,243.381 80.605,244.115C79.538,244.848 78.205,245.181 76.671,245.181ZM79.405,238.515C81.738,238.515 83.071,237.115 83.471,234.315L83.471,223.515L80.671,223.515C79.005,223.515 77.738,223.981 77.005,224.848C76.271,225.781 75.871,227.315 75.871,229.448L75.871,234.181C75.871,235.715 76.205,236.848 76.805,237.515C77.405,238.181 78.271,238.515 79.405,238.515Z" style="fill-rule:nonzero;"/>
            </g>
            <g>
                <path d="M107.471,197.848L117.938,197.848L122.605,231.248L122.738,231.248L127.405,197.848L137.871,197.848L137.871,244.515L130.938,244.515L130.938,209.181L130.805,209.181L125.471,244.515L119.338,244.515L114.005,209.181L113.871,209.181L113.871,244.515L107.471,244.515L107.471,197.848Z" style="fill-rule:nonzero;"/>
            </g>
            <g>
                <path d="M143.338,197.848L163.338,197.848L163.338,204.515L150.671,204.515L150.671,216.848L160.738,216.848L160.738,223.515L150.671,223.515L150.671,237.848L163.338,237.848L163.338,244.515L143.338,244.515L143.338,197.848Z" style="fill-rule:nonzero;"/>
            </g>
            <g>
                <path d="M167.538,197.848L178.738,197.848C182.405,197.848 185.138,198.848 186.938,200.781C188.738,202.715 189.671,205.581 189.671,209.381L189.671,232.981C189.671,236.781 188.738,239.648 186.938,241.581C185.138,243.515 182.405,244.515 178.738,244.515L167.538,244.515L167.538,197.848ZM178.605,237.848C179.805,237.848 180.738,237.515 181.405,236.781C182.005,236.048 182.338,234.915 182.338,233.315L182.338,209.048C182.338,207.448 182.005,206.315 181.405,205.581C180.738,204.848 179.805,204.515 178.605,204.515L174.871,204.515L174.871,237.848L178.605,237.848Z" style="fill-rule:nonzero;"/>
            </g>
            <g>
                <rect x="194.605" y="197.848" width="7.333" height="46.667"/>
            </g>
            <g>
                <path d="M213.071,197.848L223.005,197.848L230.605,244.515L223.271,244.515L221.938,235.248L221.938,235.381L213.605,235.381L212.271,244.515L205.471,244.515L213.071,197.848ZM221.071,229.048L217.805,205.981L217.671,205.981L214.471,229.048L221.071,229.048Z" style="fill-rule:nonzero;"/>
            </g>
            <g>
                <path d="M254.338,245.181C250.805,245.181 248.071,244.181 246.271,242.115C244.471,240.115 243.538,237.248 243.538,233.448L243.538,230.781L250.471,230.781L250.471,233.981C250.471,236.981 251.738,238.515 254.271,238.515C255.538,238.515 256.471,238.181 257.138,237.381C257.738,236.715 258.071,235.515 258.071,233.848C258.071,231.915 257.605,230.181 256.738,228.648C255.871,227.181 254.205,225.381 251.805,223.315C248.805,220.648 246.671,218.248 245.471,216.048C244.271,213.915 243.671,211.515 243.671,208.781C243.671,205.115 244.605,202.248 246.471,200.181C248.338,198.181 251.071,197.181 254.605,197.181C258.138,197.181 260.805,198.181 262.605,200.181C264.405,202.248 265.271,205.115 265.271,208.915L265.271,210.848L258.338,210.848L258.338,208.448C258.338,206.848 258.005,205.648 257.405,204.915C256.805,204.248 255.871,203.848 254.671,203.848C252.205,203.848 251.005,205.315 251.005,208.315C251.005,209.981 251.471,211.581 252.405,213.048C253.271,214.515 254.938,216.315 257.338,218.381C260.405,221.048 262.538,223.448 263.671,225.648C264.805,227.848 265.405,230.381 265.405,233.315C265.405,237.115 264.471,240.048 262.605,242.115C260.671,244.181 257.938,245.181 254.338,245.181Z" style="fill-rule:nonzero;"/>
            </g>
            <g>
                <path d="M280.205,245.181C276.605,245.181 273.871,244.181 271.938,242.115C270.005,240.048 269.071,237.181 269.071,233.448L269.071,208.915C269.071,205.181 270.005,202.315 271.938,200.248C273.871,198.181 276.605,197.181 280.205,197.181C283.805,197.181 286.538,198.181 288.471,200.248C290.405,202.315 291.338,205.181 291.338,208.915L291.338,233.448C291.338,237.181 290.405,240.048 288.471,242.115C286.538,244.181 283.805,245.181 280.205,245.181ZM280.205,238.515C282.738,238.515 284.005,236.981 284.005,233.915L284.005,208.448C284.005,205.381 282.738,203.848 280.205,203.848C277.671,203.848 276.405,205.381 276.405,208.448L276.405,233.915C276.405,236.981 277.671,238.515 280.205,238.515Z" style="fill-rule:nonzero;"/>
            </g>
            <g>
                <path d="M296.271,197.848L303.605,197.848L303.605,237.848L315.671,237.848L315.671,244.515L296.271,244.515L296.271,197.848Z" style="fill-rule:nonzero;"/>
            </g>
            <g>
                <path d="M329.871,245.181C326.338,245.181 323.605,244.181 321.738,242.115C319.871,240.115 318.938,237.248 318.938,233.448L318.938,197.848L326.271,197.848L326.271,233.981C326.271,235.581 326.605,236.715 327.271,237.448C327.871,238.181 328.805,238.515 330.005,238.515C331.205,238.515 332.138,238.181 332.805,237.448C333.405,236.715 333.738,235.581 333.738,233.981L333.738,197.848L340.805,197.848L340.805,233.448C340.805,237.248 339.871,240.115 338.005,242.115C336.138,244.181 333.405,245.181 329.871,245.181Z" style="fill-rule:nonzero;"/>
            </g>
            <g>
                <path d="M351.738,204.515L344.071,204.515L344.071,197.848L366.738,197.848L366.738,204.515L359.071,204.515L359.071,244.515L351.738,244.515L351.738,204.515Z" style="fill-rule:nonzero;"/>
            </g>
            <g>
                <rect x="370.271" y="197.848" width="7.333" height="46.667"/>
            </g>
            <g>
                <path d="M393.671,245.181C390.071,245.181 387.338,244.181 385.405,242.115C383.471,240.048 382.538,237.181 382.538,233.448L382.538,208.915C382.538,205.181 383.471,202.315 385.405,200.248C387.338,198.181 390.071,197.181 393.671,197.181C397.271,197.181 400.005,198.181 401.938,200.248C403.871,202.315 404.805,205.181 404.805,208.915L404.805,233.448C404.805,237.181 403.871,240.048 401.938,242.115C400.005,244.181 397.271,245.181 393.671,245.181ZM393.671,238.515C396.205,238.515 397.471,236.981 397.471,233.915L397.471,208.448C397.471,205.381 396.205,203.848 393.671,203.848C391.138,203.848 389.871,205.381 389.871,208.448L389.871,233.915C389.871,236.981 391.138,238.515 393.671,238.515Z" style="fill-rule:nonzero;"/>
            </g>
            <g>
                <path d="M409.738,197.848L418.938,197.848L426.071,225.781L426.205,225.781L426.205,197.848L432.738,197.848L432.738,244.515L425.205,244.515L416.405,210.448L416.271,210.448L416.271,244.515L409.738,244.515L409.738,197.848Z" style="fill-rule:nonzero;"/>
            </g>
            <g>
                <path d="M447.738,245.181C444.205,245.181 441.471,244.181 439.671,242.115C437.871,240.115 436.938,237.248 436.938,233.448L436.938,230.781L443.871,230.781L443.871,233.981C443.871,236.981 445.138,238.515 447.671,238.515C448.938,238.515 449.871,238.181 450.538,237.381C451.138,236.715 451.471,235.515 451.471,233.848C451.471,231.915 451.005,230.181 450.138,228.648C449.271,227.181 447.605,225.381 445.205,223.315C442.205,220.648 440.071,218.248 438.871,216.048C437.671,213.915 437.071,211.515 437.071,208.781C437.071,205.115 438.005,202.248 439.871,200.181C441.738,198.181 444.471,197.181 448.005,197.181C451.538,197.181 454.205,198.181 456.005,200.181C457.805,202.248 458.671,205.115 458.671,208.915L458.671,210.848L451.738,210.848L451.738,208.448C451.738,206.848 451.405,205.648 450.805,204.915C450.205,204.248 449.271,203.848 448.071,203.848C445.605,203.848 444.405,205.315 444.405,208.315C444.405,209.981 444.871,211.581 445.805,213.048C446.671,214.515 448.338,216.315 450.738,218.381C453.805,221.048 455.938,223.448 457.071,225.648C458.205,227.848 458.805,230.381 458.805,233.315C458.805,237.115 457.871,240.048 456.005,242.115C454.071,244.181 451.338,245.181 447.738,245.181Z" style="fill-rule:nonzero;"/>
            </g>
            <g>
                <path d="M74.671,264.516L84.605,264.516L92.205,311.183L84.871,311.183L83.538,301.916L83.538,302.05L75.205,302.05L73.871,311.183L67.071,311.183L74.671,264.516ZM82.671,295.716L79.405,272.65L79.271,272.65L76.071,295.716L82.671,295.716Z" style="fill-rule:nonzero;"/>
            </g>
            <g>
                <path d="M106.005,311.85C102.471,311.85 99.738,310.85 97.871,308.783C96.005,306.783 95.071,303.916 95.071,300.116L95.071,275.583C95.071,271.783 96.005,268.916 97.871,266.85C99.738,264.85 102.471,263.85 106.005,263.85C109.538,263.85 112.271,264.85 114.138,266.85C116.005,268.916 116.938,271.783 116.938,275.583L116.938,279.583L110.005,279.583L110.005,275.116C110.005,272.05 108.738,270.516 106.205,270.516C103.671,270.516 102.405,272.05 102.405,275.116L102.405,300.65C102.405,303.65 103.671,305.183 106.205,305.183C108.738,305.183 110.005,303.65 110.005,300.65L110.005,291.516L106.338,291.516L106.338,284.85L116.938,284.85L116.938,300.116C116.938,303.916 116.005,306.783 114.138,308.783C112.271,310.85 109.538,311.85 106.005,311.85Z" style="fill-rule:nonzero;"/>
            </g>
            <g>
                <path d="M121.671,264.516L141.671,264.516L141.671,271.183L129.005,271.183L129.005,283.516L139.071,283.516L139.071,290.183L129.005,290.183L129.005,304.516L141.671,304.516L141.671,311.183L121.671,311.183L121.671,264.516Z" style="fill-rule:nonzero;"/>
            </g>
            <g>
                <path d="M145.871,264.516L155.071,264.516L162.205,292.45L162.338,292.45L162.338,264.516L168.871,264.516L168.871,311.183L161.338,311.183L152.538,277.116L152.405,277.116L152.405,311.183L145.871,311.183L145.871,264.516Z" style="fill-rule:nonzero;"/>
            </g>
            <g>
                <path d="M184.671,311.85C181.138,311.85 178.471,310.85 176.671,308.85C174.805,306.85 173.871,304.05 173.871,300.383L173.871,275.316C173.871,271.65 174.805,268.85 176.671,266.85C178.471,264.85 181.138,263.85 184.671,263.85C188.205,263.85 190.871,264.85 192.738,266.85C194.538,268.85 195.471,271.65 195.471,275.316L195.471,280.25L188.538,280.25L188.538,274.85C188.538,271.983 187.338,270.516 184.871,270.516C182.405,270.516 181.205,271.983 181.205,274.85L181.205,300.916C181.205,303.783 182.405,305.183 184.871,305.183C187.338,305.183 188.538,303.783 188.538,300.916L188.538,293.783L195.471,293.783L195.471,300.383C195.471,304.05 194.538,306.85 192.738,308.85C190.871,310.85 188.205,311.85 184.671,311.85Z" style="fill-rule:nonzero;"/>
            </g>
            <g>
                <path d="M206.005,291.316L197.138,264.516L204.938,264.516L209.938,281.65L210.071,281.65L215.071,264.516L222.205,264.516L213.338,291.316L213.338,311.183L206.005,311.183L206.005,291.316Z" style="fill-rule:nonzero;"/>
            </g>
        </g>
    </g>
</svg>
