<svg xmlns="http://www.w3.org/2000/svg" viewBox="0 0 280.13 88.47"><defs><style>.cls-1{fill:#fff;}</style></defs><g id="レイヤー_2" data-name="レイヤー 2"><g id="レイヤー_1-2" data-name="レイヤー 1"><path class="cls-1" d="M103.52,27.59q2.91-4,2.91-10.29a18.28,18.28,0,0,0-2.32-8.66,13.48,13.48,0,0,0-4.63-5,18.87,18.87,0,0,0-6.76-2.63C90.31.68,86.93.49,86.93.49,85.37.4,82.82.33,81.26.33H63.18a2.84,2.84,0,0,0-2.84,2.83V58.52a2.84,2.84,0,0,0,2.84,2.83h8.94A2.83,2.83,0,0,0,75,58.52v-18a2.84,2.84,0,0,1,2.84-2.83h.31a5.35,5.35,0,0,1,4.22,2.47L92.71,58.76a5.35,5.35,0,0,0,4.21,2.48l11.81,0c1.56,0,2.18-1.09,1.37-2.42L96.68,36.64a2.91,2.91,0,0,1,.94-3.93A25.13,25.13,0,0,0,103.52,27.59Zm-13-4.71a7.51,7.51,0,0,1-2.19,2.62,8.36,8.36,0,0,1-3.89,1.57c-1.55.22-2.94.26-2.94.26-1.56,0-1.27.08-2.83.08h-.89A2.85,2.85,0,0,1,75,24.57V13.91a2.85,2.85,0,0,1,2.84-2.84h1.67c1.56,0,1.28,0,2.84,0,0,0,.4,0,1.7.09a10.76,10.76,0,0,1,3.41.75,5.85,5.85,0,0,1,3,2.4A11.89,11.89,0,0,1,91.23,19,8.9,8.9,0,0,1,90.53,22.88Z"/><path class="cls-1" d="M140.39.3h-7.82A3.82,3.82,0,0,0,129.24,3L112.89,58.56c-.44,1.48.35,2.69,1.75,2.69h9.92a3.81,3.81,0,0,0,3.33-2.69l2.1-7.13a3.82,3.82,0,0,1,3.33-2.7h16.25a3.82,3.82,0,0,1,3.33,2.7l2.1,7.13a3.8,3.8,0,0,0,3.33,2.69h9.92c1.4,0,2.18-1.21,1.75-2.69L153.65,3A3.82,3.82,0,0,0,150.32.3Zm-3.8,37.31c-1.39,0-2.18-1.21-1.74-2.69l5.8-19.72c.44-1.48,1.15-1.48,1.59,0L148,34.92c.44,1.48-.35,2.69-1.74,2.69Z"/><path class="cls-1" d="M248.92.3H241.1A3.8,3.8,0,0,0,237.77,3L221.42,58.56c-.44,1.48.35,2.69,1.74,2.69h9.93a3.82,3.82,0,0,0,3.33-2.69l2.1-7.13a3.81,3.81,0,0,1,3.33-2.7H258.1a3.83,3.83,0,0,1,3.33,2.7l2.1,7.13a3.8,3.8,0,0,0,3.33,2.69h9.92c1.4,0,2.18-1.21,1.75-2.69L262.17,3A3.8,3.8,0,0,0,258.84.3Zm-3.8,37.31c-1.4,0-2.18-1.21-1.75-2.69l5.81-19.72c.43-1.48,1.15-1.48,1.58,0l5.81,19.72c.43,1.48-.35,2.69-1.75,2.69Z"/><path class="cls-1" d="M190.66,2.83A2.84,2.84,0,0,0,187.83,0h-8.94a2.85,2.85,0,0,0-2.84,2.83V58.45a2.85,2.85,0,0,0,2.84,2.83l33.7,0a2.84,2.84,0,0,0,2.83-2.83v-5.4a2.85,2.85,0,0,0-2.83-2.84H193.5a2.84,2.84,0,0,1-2.84-2.83Z"/><path class="cls-1" d="M44.76.43H35.82A2.83,2.83,0,0,0,33,3.26V37.49c0,1.55-.16,4.1-.34,5.64,0,0-.45,3.72-1.88,5.74a4.78,4.78,0,0,1-.34.42c-1.7,1.86-3,2.79-6.65,2.79s-5-1-6.68-2.91c-.11-.13-.22-.28-.33-.43A15.49,15.49,0,0,1,15,43.13a56,56,0,0,1-.34-5.64V3.26A2.83,2.83,0,0,0,11.78.43H2.83A2.84,2.84,0,0,0,0,3.26V41.11Q0,51.64,6.38,57.26c4.24,3.75,9.1,5.63,17.4,5.63S36.94,61,41.2,57.26s6.4-9.14,6.4-16.18V3.26A2.84,2.84,0,0,0,44.76.43Z"/><path class="cls-1" d="M7,70.46a12.32,12.32,0,0,0,0,18H3.91a13.36,13.36,0,0,1,0-18Z"/><path class="cls-1" d="M18.56,72.89V70.5h2.55v2.39h3.61v2.7H21.11v1.8H25v2.72H21.85a11,11,0,0,0,3.48,4.07l-1.06,3.21A11.88,11.88,0,0,1,21.11,83v5.49H18.56V82.54a15.54,15.54,0,0,1-3.37,4.89l-1.57-2.68a12.28,12.28,0,0,0,4-4.64H14.49a6.8,6.8,0,0,0,.8,1l-1.53,2.17a9.39,9.39,0,0,1-1-2.66v7.9H10.28V81.29A13.34,13.34,0,0,1,8.6,85.2l-.84-3.74a13.93,13.93,0,0,0,2.32-5.21h-2V73.63h2.18V70.5h2.46v3.13h1.7v1.16a12.62,12.62,0,0,0,1.14-4l2.39.25c-.07.47-.16,1-.34,1.8Zm-2.8,4.5-1.47-1.14H12.74v.84A14.62,14.62,0,0,0,14.44,80V77.39Zm2.8,0v-1.8H16.87a10.47,10.47,0,0,1-.9,1.8Z"/><path class="cls-1" d="M26.12,88.47a12.32,12.32,0,0,0,0-18h3.12a13.33,13.33,0,0,1,0,18Z"/><path class="cls-1" d="M46.91,70.24v2.82h6.48V74.4c0,2.2-.52,7.44-4,10.34-1.34,1.12-4,2.8-9.08,3.2l-1-3c3.54-.18,7.28-1.06,9.26-3.92A11.63,11.63,0,0,0,50,76H40.53v4.24H37.41v-7.2h6.28V70.24Z"/><path class="cls-1" d="M72.63,75.76c-.64,6.7-3.38,11.3-13.46,12.06l-1-3c8-.3,9.88-3.06,10.6-6.12H56.09V75.76Zm-1.32-4.9v3H57.57v-3Z"/><path class="cls-1" d="M91.51,75.76c-.64,6.7-3.38,11.3-13.46,12.06l-1-3c8-.3,9.88-3.06,10.6-6.12H75V75.76Zm-1.32-4.9v3H76.45v-3Z"/><path class="cls-1" d="M109.59,71.8V86.54H94.45V83.4h11.76V74.92H94.64V71.8Z"/><path class="cls-1" d="M128.33,88.1a49.76,49.76,0,0,0-15.1-2.54l.62-3.08a62.79,62.79,0,0,1,15.52,2.28Zm-1.9-6.84a50.64,50.64,0,0,0-12-2.12l.58-2.88a51,51,0,0,1,12.12,1.94Zm1.5-5.74a56,56,0,0,0-13.48-2.2L115,70.4a65.06,65.06,0,0,1,13.52,1.86Z"/><path class="cls-1" d="M143.63,74.88a90.22,90.22,0,0,1-.62,9.26h3.18V87H131.57V84.14h8.3a50.14,50.14,0,0,0,.48-6.38h-7.26V74.88Z"/><path class="cls-1" d="M165.85,82.74v3.14H148.57V82.74Zm-1.54-10.38v3.1H150.09v-3.1Z"/><path class="cls-1" d="M185.85,73.58v3h-4.58c-.54,4.64-1.34,9.46-10,11.4l-1.54-2.82c7.36-1.38,7.76-5.1,8.14-8.58h-4.3a13.43,13.43,0,0,1-3.32,4l-2.38-2.18A12.06,12.06,0,0,0,172.55,70l3.38.32a22.41,22.41,0,0,1-.92,3.24Z"/><path class="cls-1" d="M205.71,77.4v3.34H188.07V77.4Z"/><path class="cls-1" d="M213.89,80.44A26.89,26.89,0,0,0,208,78.1l1.12-2.68a24.15,24.15,0,0,1,6,2.16Zm-4.84,3.8c6.44-.56,10.78-1.88,13.44-10.84l3,1.44c-3.16,9.44-8,11.94-15.56,12.84Zm6.6-8.62a26.4,26.4,0,0,0-6.12-2.2l1.14-2.66a26.08,26.08,0,0,1,6.24,2Z"/><path class="cls-1" d="M239.61,74.34v13H227.37V84.58h9.2V82.06h-8.7V79.42h8.7V77h-9v-2.7Z"/><path class="cls-1" d="M249,77a26.37,26.37,0,0,0-6.3-3.1l1.44-2.72a26.39,26.39,0,0,1,6.56,2.88Zm-6,7.14c7.78-.62,11.88-3.58,14.16-11.64l3,1.5C257,84.48,250.85,86.64,244,87.62Z"/><path class="cls-1" d="M276.73,87.9A50.48,50.48,0,0,0,271,82.06a21.21,21.21,0,0,1-7.7,5.78l-1.86-2.74A17.91,17.91,0,0,0,268,80.9a15.86,15.86,0,0,0,4.1-6.56h-9.48v-3h11.94a20.21,20.21,0,0,1,.36,2.46l.7-.1a18.65,18.65,0,0,1-2.76,5.94,57,57,0,0,1,6.5,5.64Zm-1.2-14.78a20.25,20.25,0,0,0-.64-3.18l1.78-.2a23.79,23.79,0,0,1,.7,3.06Zm2.82-.34a20.17,20.17,0,0,0-.66-3.08l1.76-.22a21.45,21.45,0,0,1,.68,3Z"/></g></g></svg>