<?xml version="1.0" encoding="UTF-8" standalone="no"?>
<!DOCTYPE svg PUBLIC "-//W3C//DTD SVG 1.1//EN" "http://www.w3.org/Graphics/SVG/1.1/DTD/svg11.dtd">
<svg width="100%" height="100%" viewBox="0 0 300 200" version="1.1" xmlns="http://www.w3.org/2000/svg" xmlns:xlink="http://www.w3.org/1999/xlink" xml:space="preserve" xmlns:serif="http://www.serif.com/" style="fill-rule:evenodd;clip-rule:evenodd;stroke-linejoin:round;stroke-miterlimit:2;">
    <g transform="matrix(0.788533,0,0,0.81325,74.0398,39.8727)">
        <g transform="matrix(0.589385,0,0,0.589385,-8,96.2642)">
            <path d="M492.4,151.5C491.2,150.1 489.1,148.8 486.1,147.7C485.6,147.5 484.9,147.3 484,146.9C481.2,145.9 479.8,144.9 479.8,143.8C479.8,143.1 480.1,142.6 480.6,142.2C481.1,141.8 481.8,141.6 482.8,141.6C483.7,141.6 484.3,141.9 484.8,142.4C485.3,142.9 485.4,143.4 485.4,143.4L485.4,143.5C485.5,144.2 485.7,144.6 486.8,144.5L492.1,144.5C493.2,144.5 493.4,144.1 493.5,143.5L493.5,142.8C493.2,140.5 492.2,139.1 490.5,137.7C488.5,136 485.8,135.2 482.5,135.2C479.1,135.2 476.5,136.1 474.6,137.9C472.7,139.7 471.7,142.1 471.7,145.1C471.7,146.6 472,147.9 472.6,149.1C473.2,150.3 474,151.2 475,151.9C476.2,152.7 477.9,153.5 480,154.3C480.4,154.5 480.7,154.6 480.9,154.6C481,154.7 481.2,154.7 481.4,154.8C484.1,155.9 485.5,157 485.5,158.1C485.5,158.8 485.2,159.3 484.7,159.8C484.2,160.2 483.5,160.4 482.6,160.4C481.6,160.4 480.9,160.1 480.3,159.6C479.8,159.1 479.7,158.6 479.7,158.6L479.7,158C479.7,157.4 479.3,157.1 478.7,157.1L472.3,157.1C471.7,157.1 471.3,157.4 471.3,158L471.3,158.4C471.4,159.1 471.6,159.8 471.8,160.5C472.3,162.1 473.1,163.5 474.3,164.5C476.3,166.2 479.1,167 482.7,167C486.3,167 489.1,166.1 491.2,164.3C493.2,162.5 494.3,160 494.3,156.9C494.2,154.7 493.6,152.9 492.4,151.5Z" style="fill:rgb(229,0,18);fill-rule:nonzero;"/>
        </g>
        <g transform="matrix(0.589385,0,0,0.589385,-8,96.2642)">
            <g>
                <g>
                    <path d="M196.8,57.9C200.1,53.4 201.8,47.5 201.8,40.3C201.8,35.1 200,29 197.8,25.5C195.7,22 193.5,19.2 189.9,17C186.3,14.8 182.5,13.2 178.3,12.5C174.2,11.9 168.4,11.5 168.4,11.5C165.8,11.4 161.4,11.2 158.7,11.2L127.8,11.2C125.1,11.2 122.9,13.4 122.9,16L122.9,110.6C122.9,113.3 125.1,115.4 127.8,115.4L143.1,115.4C145.8,115.4 147.9,113.2 147.9,110.6L147.9,80.1C147.9,77.4 150.1,75.3 152.8,75.3L153.3,75.3C156,75.3 159.2,77.2 160.5,79.5L178.2,111.2C179.5,113.5 182.8,115.4 185.4,115.4L205.6,115.4C208.3,115.4 209.3,113.6 207.9,111.3L185,73.4C183.6,71.1 184.4,68.1 186.6,66.7C186.7,66.6 193.4,62.4 196.8,57.9ZM174.5,49.8C173.7,51.4 172.5,52.9 170.8,54.3C169,55.7 166.8,56.6 164.1,57C161.5,57.4 159.1,57.4 159.1,57.4C156.4,57.5 156.9,57.5 154.3,57.5L152.8,57.5C150.1,57.5 147.9,55.3 147.9,52.7L147.9,34.5C147.9,31.8 150.1,29.7 152.8,29.7L155.7,29.7C158.4,29.7 157.9,29.7 160.6,29.8C160.6,29.8 161.3,29.8 163.5,30C165.7,30.1 167.6,30.6 169.3,31.3C171.7,32.3 173.4,33.7 174.4,35.4C175.4,37.1 175.9,41 175.9,43.4C175.7,46 175.3,48.2 174.5,49.8Z" style="fill:white;fill-rule:nonzero;"/>
                </g>
                <path d="M276.9,11.2L246.4,11.2C244,11.2 241.5,13.3 240.7,15.8L212.8,110.8C212,113.3 213.4,115.4 215.8,115.4L232.7,115.4C235.1,115.4 237.6,113.3 238.4,110.8L242,98.6C242.8,96.1 245.3,94 247.7,94L275.5,94C277.9,94 280.5,96.1 281.2,98.6L284.8,110.8C285.5,113.3 288.1,115.4 290.5,115.4L307.5,115.4C309.9,115.4 311.2,113.3 310.5,110.8L282.6,15.8C281.8,13.3 279.3,11.2 276.9,11.2ZM253.3,75C250.9,75 249.6,72.9 250.3,70.4L260.2,36.7C261,34.2 262.2,34.2 262.9,36.7L272.8,70.4C273.5,72.9 272.2,75 269.8,75L253.3,75Z" style="fill:white;fill-rule:nonzero;"/>
                <path d="M462.4,11.2L432,11.2C429.6,11.2 427,13.3 426.3,15.8L398.3,110.8C397.6,113.3 398.9,115.4 401.3,115.4L418.3,115.4C420.7,115.4 423.2,113.3 424,110.8L427.6,98.6C428.3,96.1 430.9,94 433.3,94L461,94C463.4,94 465.9,96.1 466.7,98.6L470.3,110.8C471.1,113.3 473.6,115.4 476,115.4L493,115.4C495.4,115.4 496.7,113.3 496,110.8L468.1,15.8C467.3,13.3 464.8,11.2 462.4,11.2ZM438.8,75C436.4,75 435.1,72.9 435.8,70.4L445.7,36.7C446.5,34.2 447.7,34.2 448.4,36.7L458.3,70.4C459.1,72.9 457.7,75 455.3,75L438.8,75Z" style="fill:white;fill-rule:nonzero;"/>
                <path d="M345.7,15.6C345.7,12.9 343.5,10.8 340.9,10.8L325.6,10.8C322.9,10.8 320.7,13 320.7,15.6L320.7,110.6C320.7,113.3 322.9,115.5 325.6,115.5L383.2,115.5C385.9,115.5 388,113.3 388,110.7L388,101.5C388,98.8 385.8,96.7 383.2,96.7L350.6,96.7C347.9,96.7 345.7,94.5 345.7,91.9L345.7,15.6Z" style="fill:white;fill-rule:nonzero;"/>
                <path d="M96.3,11.4L81,11.4C78.3,11.4 76.1,13.6 76.1,16.2L76.1,74.7C76.1,77.4 75.8,81.7 75.5,84.4C75.5,84.4 74.7,90.8 72.3,94.2C72.1,94.5 71.9,94.7 71.7,94.9C68.8,98.1 66.6,99.7 60.3,99.7C53.9,99.7 51.7,98 48.9,94.7C48.7,94.5 48.5,94.2 48.3,93.9C45.9,90.4 45.2,84.3 45.2,84.3C44.9,81.6 44.6,77.3 44.6,74.6L44.6,16.3C44.6,13.6 42.4,11.5 39.7,11.5L24.7,11.5C22,11.5 19.9,13.7 19.9,16.3L19.9,81C19.9,93 23.5,102.2 30.8,108.6C38.1,115 46.4,118.2 60.5,118.2C74.7,118.2 83,115 90.3,108.6C97.6,102.2 101.2,93 101.2,80.9L101.2,16.3C101.2,13.6 99,11.4 96.3,11.4Z" style="fill:white;fill-rule:nonzero;"/>
            </g>
            <g>
                <g>
                    <path d="M129,135.4C127,135.4 125.2,135.8 123.6,136.6C122,137.4 120.6,138.5 119.5,139.9C118.6,138.4 117.4,137.3 116,136.5C114.6,135.7 113.1,135.4 111.3,135.4C109.5,135.4 107.9,135.8 106.4,136.7C104.9,137.5 103.2,139.6 103.2,139.6C102.8,140.1 102.4,140 102.4,139.3L102.4,137.1C102.4,136.4 101.9,135.9 101.2,135.9L94.2,135.9C93.5,135.9 93,136.4 93,137.1L93,165.1C93,165.8 93.5,166.3 94.2,166.3L101.7,166.3C102.4,166.3 102.9,165.8 102.9,165.1L102.9,149.4C102.9,147.4 103.2,146 103.9,145.1C104.6,144.2 105.6,143.7 107,143.7C108.3,143.7 109.3,144.1 109.9,144.9C110.5,145.7 110.7,147.3 110.7,147.3C110.8,148 110.8,149.1 110.8,149.7L110.8,165.1C110.8,165.8 111.3,166.3 112,166.3L119.2,166.3C119.9,166.3 120.4,165.8 120.4,165.1L120.4,149.4C120.4,147.4 120.7,146 121.4,145.1C122.1,144.2 123.1,143.7 124.5,143.7C125.8,143.7 126.8,144.1 127.4,144.9C128,145.7 128.2,147.3 128.2,147.3C128.3,148 128.3,149.1 128.3,149.7L128.3,165.1C128.3,165.8 128.8,166.3 129.5,166.3L137,166.3C137.7,166.3 138.2,165.8 138.2,165.1L138.2,145.6C138.2,142.3 137.4,139.8 135.8,138.1C134.2,136.3 131.9,135.4 129,135.4Z" style="fill:white;fill-rule:nonzero;"/>
                    <path d="M182.2,135.4C180.2,135.4 178.4,135.8 176.8,136.6C175.1,137.4 173.8,138.5 172.7,139.9C171.8,138.4 170.6,137.3 169.2,136.5C167.8,135.7 166.3,135.4 164.5,135.4C162.7,135.4 161.1,135.8 159.6,136.7C158.1,137.5 156.4,139.6 156.4,139.6C156,140.1 155.6,140 155.6,139.3L155.6,137.1C155.6,136.4 155.1,135.9 154.4,135.9L147.4,135.9C146.7,135.9 146.2,136.4 146.2,137.1L146.2,165.1C146.2,165.8 146.8,166.3 147.4,166.3L154.9,166.3C155.6,166.3 156.1,165.8 156.1,165.1L156.1,149.4C156.1,147.4 156.4,146 157.1,145.1C157.8,144.2 158.8,143.7 160.2,143.7C161.5,143.7 162.5,144.1 163.1,144.9C163.7,145.7 163.9,147.3 163.9,147.3C164,148 164,149.1 164,149.7L164,165.1C164,165.8 164.6,166.3 165.2,166.3L172.4,166.3C173.1,166.3 173.6,165.8 173.6,165.1L173.6,149.4C173.6,147.4 173.9,146 174.6,145.1C175.3,144.2 176.3,143.7 177.7,143.7C179,143.7 180,144.1 180.6,144.9C181.2,145.7 181.4,147.3 181.4,147.3C181.5,148 181.5,149.1 181.5,149.7L181.5,165.1C181.5,165.8 182,166.3 182.7,166.3L190.2,166.3C190.9,166.3 191.4,165.8 191.4,165.1L191.4,145.6C191.4,142.3 190.6,139.8 189,138.1C187.4,136.3 185.2,135.4 182.2,135.4Z" style="fill:white;fill-rule:nonzero;"/>
                    <path d="M225.5,135.9L218,135.9C217.3,135.9 216.8,136.4 216.8,137.1L216.8,154.1C216.8,155.7 216.5,156.9 215.8,157.7C215.2,158.5 214.2,158.9 212.9,158.9C211.7,158.9 210.7,158.5 210.1,157.7C209.5,156.9 209.3,155.3 209.3,155.3C209.2,154.6 209.2,153.5 209.2,152.9L209.2,137.1C209.2,136.4 208.7,135.9 208,135.9L200.5,135.9C199.8,135.9 199.3,136.4 199.3,137.1L199.3,155.1C199.3,158.9 200.5,161.8 202.9,163.9C205.3,166 208.7,167 213,167C217.4,167 220.8,165.9 223.2,163.9C225.6,161.8 226.6,156.3 226.6,156.3C226.7,155.6 226.8,154.6 226.8,153.9L226.8,137.1C226.7,136.4 226.2,135.9 225.5,135.9Z" style="fill:white;fill-rule:nonzero;"/>
                    <path d="M253.5,135.4C251.5,135.4 249.8,135.8 248.3,136.6C246.8,137.4 245,139.6 245,139.6C244.6,140.1 244.2,140 244.2,139.3L244.2,137.1C244.2,136.4 243.7,135.9 243,135.9L236,135.9C235.3,135.9 234.8,136.4 234.8,137.1L234.8,165.1C234.8,165.8 235.3,166.3 236,166.3L243.5,166.3C244.2,166.3 244.7,165.8 244.7,165.1L244.7,149.4C244.7,147.6 245,146.1 245.8,145.2C246.5,144.3 247.5,143.8 248.8,143.8C250.1,143.8 251.1,144.2 251.7,145C252.3,145.8 252.5,147.4 252.5,147.4C252.6,148.1 252.6,149.2 252.6,149.8L252.6,165.2C252.6,165.9 253.2,166.4 253.8,166.4L261.3,166.4C262,166.4 262.5,165.9 262.5,165.2L262.5,145.7C262.5,142.5 261.7,140 260.1,138.2C258.6,136.3 256.4,135.4 253.5,135.4Z" style="fill:white;fill-rule:nonzero;"/>
                    <path d="M279.3,135.9L271.8,135.9C271.1,135.9 270.6,136.4 270.6,137.1L270.6,165.1C270.6,165.8 271.2,166.3 271.8,166.3L279.3,166.3C280,166.3 280.5,165.8 280.5,165.1L280.5,137.1C280.5,136.4 279.9,135.9 279.3,135.9Z" style="fill:white;fill-rule:nonzero;"/>
                    <path d="M275.5,122.6C274,122.6 272.7,123.1 271.7,124.2C270.6,125.2 270.1,126.5 270.1,128C270.1,129.4 270.6,130.7 271.7,131.8C272.8,132.9 274,133.4 275.5,133.4C277,133.4 278.2,132.9 279.3,131.8C280.4,130.8 280.9,129.5 280.9,128C280.9,126.5 280.4,125.2 279.3,124.2C278.2,123.2 277,122.6 275.5,122.6Z" style="fill:white;fill-rule:nonzero;"/>
                    <path d="M373.6,135.9L372.2,135.9C371.5,135.9 371,135.4 371,134.7L371,129.4C371,128.7 370.5,128.2 369.8,128.2L362.3,128.2C361.6,128.2 361.1,128.7 361.1,129.4L361.1,134.7C361.1,135.4 360.6,135.9 359.9,135.9L359,135.9C358.3,135.9 357.8,136.4 357.8,137.1L357.8,142.6C357.8,143.3 358.3,143.8 359,143.8L359.9,143.8C360.6,143.8 361.1,144.3 361.1,145L361.1,159.7C361.1,162.2 360.5,164.6 362.5,165.7C363.9,166.5 365.2,166.3 365.2,166.3C365.8,166.4 371.2,166.3 371.9,166.3L373.6,166.3C374.3,166.3 374.8,165.8 374.8,165.1L374.8,159.1C374.8,158.4 374.2,157.9 373.6,157.9L372.9,157.9C372.3,157.9 371.8,157.7 371.5,157.4C371.2,157.1 371.2,157 371.2,157C371.1,156.3 371.1,155.2 371.1,154.6L371.1,145C371.1,144.3 371.6,143.8 372.3,143.8L373.7,143.8C374.4,143.8 374.9,143.3 374.9,142.6L374.9,137.1C374.8,136.4 374.2,135.9 373.6,135.9Z" style="fill:white;fill-rule:nonzero;"/>
                    <path d="M387.2,122.6C385.7,122.6 384.5,123.1 383.4,124.2C382.3,125.2 381.8,126.5 381.8,128C381.8,129.4 382.3,130.7 383.4,131.8C384.5,132.9 385.7,133.4 387.2,133.4C388.7,133.4 389.9,132.9 391,131.8C392.1,130.8 392.6,129.5 392.6,128C392.6,126.5 392.1,125.2 391.1,124.2C389.9,123.2 388.7,122.6 387.2,122.6Z" style="fill:white;fill-rule:nonzero;"/>
                    <path d="M391,135.9L383.5,135.9C382.8,135.9 382.3,136.4 382.3,137.1L382.3,165.1C382.3,165.8 382.9,166.3 383.5,166.3L391,166.3C391.7,166.3 392.2,165.8 392.2,165.1L392.2,137.1C392.2,136.4 391.6,135.9 391,135.9Z" style="fill:white;fill-rule:nonzero;"/>
                    <path d="M455.3,135.4C453.3,135.4 451.6,135.8 450.1,136.6C448.6,137.4 446.8,139.6 446.8,139.6C446.4,140.1 446,140 446,139.3L446,137.1C446,136.4 445.5,135.9 444.8,135.9L437.8,135.9C437.1,135.9 436.6,136.4 436.6,137.1L436.6,165.1C436.6,165.8 437.2,166.3 437.8,166.3L445.3,166.3C445.9,166.3 446.5,165.8 446.5,165.1L446.5,149.4C446.5,147.6 446.8,146.1 447.6,145.2C448.3,144.3 449.3,143.8 450.7,143.8C452,143.8 453,144.2 453.6,145C454.2,145.8 454.4,147.4 454.4,147.4C454.5,148.1 454.5,149.2 454.5,149.8L454.5,165.2C454.5,165.9 455.1,166.4 455.7,166.4L463.2,166.4C463.9,166.4 464.4,165.9 464.4,165.2L464.4,145.7C464.4,142.5 463.6,140 462,138.2C460.4,136.3 458.2,135.4 455.3,135.4Z" style="fill:white;fill-rule:nonzero;"/>
                </g>
                <path d="M45.3,156.7C44.9,156.4 44.3,156.5 43.9,156.8C43.9,156.8 43.7,157 43.4,157.2C43.2,157.4 42.9,157.6 42.6,157.7L42.5,157.7C42.4,157.8 42.3,157.8 42.1,157.9L42,157.9C41.6,158.1 41.2,158.3 40.7,158.4L40.6,158.4C40.1,158.5 39.7,158.6 39.2,158.6C37.2,158.6 35.5,157.9 34.2,156.5C32.9,155.1 32.2,153.3 32.2,151.1C32.2,148.9 32.9,147.1 34.2,145.7C35.5,144.3 37.2,143.6 39.2,143.6C39.7,143.6 40.1,143.7 40.6,143.8L40.7,143.8C41.1,143.9 41.6,144.1 42,144.3L42.1,144.3C42.3,144.4 42.4,144.4 42.5,144.5L42.6,144.5C42.6,144.5 42.7,144.5 42.7,144.6C42.7,144.6 42.8,144.7 42.9,144.7C43.4,145 43.8,145.2 44.1,145.6C44.5,145.8 45.1,145.8 45.5,145.4L46.8,144L50,140.5C50.3,140.1 50.2,139.5 49.8,139.1C49.7,139 49.6,138.9 49.5,138.8C49.3,138.7 49.1,138.5 48.8,138.4C47.7,137.6 46.5,136.9 45.2,136.4C43.2,135.7 41,135.3 38.6,135.3C33.7,135.3 29.8,136.8 26.8,139.7C23.8,142.6 22.3,146.5 22.3,151.2C22.3,155.9 23.8,159.8 26.8,162.7C29.8,165.6 33.7,167.1 38.6,167.1C41.1,167.1 43.4,166.7 45.5,165.8C47,165.2 48.9,163.8 49.7,163.1C50,162.7 50,162 49.7,161.6L45.3,156.7Z" style="fill:white;fill-rule:nonzero;"/>
                <path d="M309.8,156.7C309.4,156.4 308.8,156.5 308.4,156.8C308.4,156.8 308.2,157 307.9,157.2C307.7,157.4 307.4,157.6 307.1,157.7L307,157.7C306.9,157.8 306.8,157.8 306.6,157.9L306.5,157.9C306.1,158.1 305.7,158.3 305.2,158.4L305.1,158.4C304.6,158.5 304.2,158.6 303.7,158.6C301.7,158.6 300,157.9 298.7,156.5C297.4,155.1 296.7,153.3 296.7,151.1C296.7,148.9 297.3,147.1 298.7,145.7C300,144.3 301.7,143.6 303.7,143.6C304.2,143.6 304.6,143.7 305.1,143.8L305.2,143.8C305.7,143.9 306.1,144.1 306.5,144.3L306.6,144.3C306.7,144.4 306.8,144.4 307,144.5L307.1,144.5C307.1,144.5 307.2,144.5 307.2,144.6C307.3,144.6 307.3,144.7 307.3,144.7C307.9,145 308.2,145.2 308.5,145.6C308.9,145.8 309.5,145.8 309.9,145.4L311.2,144L314.4,140.5C314.7,140.1 314.6,139.5 314.2,139.1C314.1,139 314,138.9 313.9,138.8C313.7,138.7 313.5,138.5 313.2,138.4C312.1,137.6 310.9,136.9 309.5,136.4C307.5,135.7 305.4,135.3 302.9,135.3C298,135.3 294.1,136.8 291.1,139.7C288.1,142.6 286.6,146.5 286.6,151.2C286.6,155.9 288.1,159.8 291.1,162.7C294.1,165.6 298.1,167.1 302.9,167.1C305.4,167.1 307.7,166.7 309.8,165.8C311.3,165.2 313.2,163.8 314.1,163.1C314.4,162.7 314.4,162 314,161.6L309.8,156.7Z" style="fill:white;fill-rule:nonzero;"/>
                <path d="M414.4,135.2C409.7,135.2 405.8,136.7 402.9,139.6C400,142.5 398.5,146.4 398.5,151.1C398.5,155.8 400,159.7 402.9,162.6C405.8,165.5 409.7,167 414.4,167C419.1,167 422.9,165.5 425.9,162.6C428.9,159.6 430.3,155.8 430.3,151.1C430.3,146.4 428.8,142.5 425.9,139.6C422.9,136.7 419.1,135.2 414.4,135.2ZM418.6,156.6C417.5,158 416.1,158.7 414.3,158.7C412.6,158.7 411.1,158 410,156.6C408.9,155.2 408.4,153.4 408.4,151.1C408.4,148.8 408.9,147 410,145.6C411.1,144.2 412.5,143.5 414.2,143.5C416,143.5 417.4,144.2 418.5,145.6C419.6,147 420.1,148.8 420.1,151.1C420.2,153.4 419.7,155.2 418.6,156.6Z" style="fill:white;fill-rule:nonzero;"/>
                <path d="M350.4,135.9L343.3,135.9C342.6,135.9 342.1,136.4 342.1,137.1L342.1,139.9C341.3,138.4 340.1,137.3 338.7,136.5C337.2,135.7 335.5,135.4 333.5,135.4C331.5,135.4 329.6,135.8 327.9,136.6C326.1,137.4 324.5,138.5 323.2,140.1C321.9,141.5 321,143.1 320.3,144.9C319.7,146.7 319.4,148.8 319.4,151.1C319.4,153.3 319.7,155.4 320.4,157.3C321.1,159.2 322.1,160.9 323.4,162.3C324.8,163.8 326.4,164.9 328.1,165.6C329.9,166.4 331.8,166.8 333.8,166.8C335.8,166.8 337.5,166.4 338.9,165.6C340.3,164.8 341.2,163.2 341.2,163.2C341.5,162.6 341.8,162.7 341.8,163.4L341.8,165.1C341.8,165.8 342.4,166.3 343,166.3L350.4,166.3C351.1,166.3 351.6,165.8 351.6,165.1L351.6,137.1C351.6,136.4 351,135.9 350.4,135.9ZM340.2,156.9C339,158.4 337.5,159.2 335.6,159.2C333.8,159.2 332.2,158.4 331,156.9C329.8,155.4 329.2,153.4 329.2,151C329.2,148.6 329.8,146.7 331,145.1C332.2,143.6 333.8,142.8 335.6,142.8C337.4,142.8 338.9,143.6 340.2,145.1C341.4,146.6 342.1,148.6 342.1,150.9C342,153.4 341.4,155.4 340.2,156.9Z" style="fill:white;fill-rule:nonzero;"/>
                <path d="M70.7,135.2C65.9,135.2 62.1,136.7 59.2,139.6C56.3,142.5 54.8,146.4 54.8,151.1C54.8,155.8 56.3,159.7 59.2,162.6C62.1,165.5 66,167 70.7,167C75.4,167 79.2,165.5 82.2,162.6C85.1,159.6 86.6,155.8 86.6,151.1C86.6,146.4 85.1,142.5 82.2,139.6C79.3,136.7 75.4,135.2 70.7,135.2ZM74.9,156.6C73.8,158 72.4,158.7 70.6,158.7C68.8,158.7 67.4,158 66.3,156.6C65.2,155.2 64.7,153.4 64.7,151.1C64.7,148.8 65.3,147 66.3,145.6C67.4,144.2 68.8,143.5 70.6,143.5C72.4,143.5 73.8,144.2 74.9,145.6C76,147 76.5,148.8 76.5,151.1C76.6,153.4 76,155.2 74.9,156.6Z" style="fill:white;fill-rule:nonzero;"/>
            </g>
        </g>
    </g>
    <g transform="matrix(1,0,0,1,-180.988,3.13484)">
        <g transform="matrix(-1.35041,0,0,1.19095,434.102,-0.779468)">
            <path d="M186.801,42.034C186.801,21.277 165.737,4.426 139.791,4.426C113.846,4.426 92.781,21.277 92.781,42.034C92.781,54.3 100.259,65.796 112.816,72.834L106.884,98.446L127.611,78.358C131.583,79.21 135.678,79.642 139.791,79.642C165.737,79.642 186.801,62.79 186.801,42.034Z" style="fill:white;"/>
        </g>
        <g transform="matrix(1,0,0,1,186.578,-29.1029)">
            <g transform="matrix(16,0,0,16,10.3151,68.6516)">
                <path d="M0.041,-0.7L0.151,-0.7L0.151,-0.1L0.332,-0.1L0.332,-0L0.041,-0L0.041,-0.7Z" style="fill-rule:nonzero;"/>
            </g>
            <g transform="matrix(16,0,0,16,15.8191,68.6516)">
                <path d="M0.041,-0.7L0.341,-0.7L0.341,-0.6L0.151,-0.6L0.151,-0.415L0.302,-0.415L0.302,-0.315L0.151,-0.315L0.151,-0.1L0.341,-0.1L0.341,-0L0.041,-0L0.041,-0.7Z" style="fill-rule:nonzero;"/>
            </g>
            <g transform="matrix(16,0,0,16,21.6271,68.6516)">
                <path d="M0.126,-0.7L0.275,-0.7L0.389,-0L0.279,-0L0.259,-0.139L0.259,-0.137L0.134,-0.137L0.114,-0L0.012,-0L0.126,-0.7ZM0.246,-0.232L0.197,-0.578L0.195,-0.578L0.147,-0.232L0.246,-0.232Z" style="fill-rule:nonzero;"/>
            </g>
            <g transform="matrix(16,0,0,16,28.0431,68.6516)">
                <path d="M0.041,-0.7L0.209,-0.7C0.264,-0.7 0.305,-0.685 0.332,-0.656C0.359,-0.627 0.373,-0.584 0.373,-0.527L0.373,-0.173C0.373,-0.116 0.359,-0.073 0.332,-0.044C0.305,-0.015 0.264,-0 0.209,-0L0.041,-0L0.041,-0.7ZM0.207,-0.1C0.225,-0.1 0.239,-0.105 0.249,-0.116C0.258,-0.127 0.263,-0.144 0.263,-0.168L0.263,-0.532C0.263,-0.556 0.258,-0.573 0.249,-0.584C0.239,-0.595 0.225,-0.6 0.207,-0.6L0.151,-0.6L0.151,-0.1L0.207,-0.1Z" style="fill-rule:nonzero;"/>
            </g>
            <g transform="matrix(16,0,0,16,34.5391,68.6516)">
                <rect x="0.041" y="-0.7" width="0.11" height="0.7" style="fill-rule:nonzero;"/>
            </g>
            <g transform="matrix(16,0,0,16,37.6111,68.6516)">
                <path d="M0.041,-0.7L0.179,-0.7L0.286,-0.281L0.288,-0.281L0.288,-0.7L0.386,-0.7L0.386,-0L0.273,-0L0.141,-0.511L0.139,-0.511L0.139,-0L0.041,-0L0.041,-0.7Z" style="fill-rule:nonzero;"/>
            </g>
            <g transform="matrix(16,0,0,16,44.4431,68.6516)">
                <path d="M0.197,0.01C0.144,0.01 0.103,-0.005 0.075,-0.036C0.047,-0.066 0.033,-0.109 0.033,-0.166L0.033,-0.534C0.033,-0.591 0.047,-0.634 0.075,-0.665C0.103,-0.695 0.144,-0.71 0.197,-0.71C0.25,-0.71 0.291,-0.695 0.319,-0.665C0.347,-0.634 0.361,-0.591 0.361,-0.534L0.361,-0.474L0.257,-0.474L0.257,-0.541C0.257,-0.587 0.238,-0.61 0.2,-0.61C0.162,-0.61 0.143,-0.587 0.143,-0.541L0.143,-0.158C0.143,-0.113 0.162,-0.09 0.2,-0.09C0.238,-0.09 0.257,-0.113 0.257,-0.158L0.257,-0.295L0.202,-0.295L0.202,-0.395L0.361,-0.395L0.361,-0.166C0.361,-0.109 0.347,-0.066 0.319,-0.036C0.291,-0.005 0.25,0.01 0.197,0.01Z" style="fill-rule:nonzero;"/>
            </g>
            <g transform="matrix(16,0,0,16,53.2591,68.6516)">
                <path d="M0.041,-0.7L0.198,-0.7L0.268,-0.199L0.27,-0.199L0.34,-0.7L0.497,-0.7L0.497,-0L0.393,-0L0.393,-0.53L0.391,-0.53L0.311,-0L0.219,-0L0.139,-0.53L0.137,-0.53L0.137,-0L0.041,-0L0.041,-0.7Z" style="fill-rule:nonzero;"/>
            </g>
            <g transform="matrix(16,0,0,16,61.8671,68.6516)">
                <path d="M0.126,-0.7L0.275,-0.7L0.389,-0L0.279,-0L0.259,-0.139L0.259,-0.137L0.134,-0.137L0.114,-0L0.012,-0L0.126,-0.7ZM0.246,-0.232L0.197,-0.578L0.195,-0.578L0.147,-0.232L0.246,-0.232Z" style="fill-rule:nonzero;"/>
            </g>
            <g transform="matrix(16,0,0,16,68.2831,68.6516)">
                <path d="M0.041,-0.7L0.204,-0.7C0.261,-0.7 0.302,-0.687 0.328,-0.661C0.354,-0.634 0.367,-0.594 0.367,-0.539L0.367,-0.496C0.367,-0.423 0.343,-0.377 0.295,-0.358L0.295,-0.356C0.322,-0.348 0.341,-0.332 0.352,-0.307C0.363,-0.282 0.368,-0.249 0.368,-0.208L0.368,-0.085C0.368,-0.065 0.369,-0.049 0.37,-0.037C0.371,-0.024 0.375,-0.012 0.38,-0L0.268,-0C0.264,-0.011 0.261,-0.022 0.26,-0.032C0.259,-0.042 0.258,-0.06 0.258,-0.086L0.258,-0.214C0.258,-0.246 0.253,-0.268 0.243,-0.281C0.232,-0.294 0.214,-0.3 0.189,-0.3L0.151,-0.3L0.151,-0L0.041,-0L0.041,-0.7ZM0.191,-0.4C0.213,-0.4 0.23,-0.406 0.241,-0.417C0.252,-0.428 0.257,-0.447 0.257,-0.474L0.257,-0.528C0.257,-0.553 0.253,-0.572 0.244,-0.583C0.235,-0.594 0.22,-0.6 0.201,-0.6L0.151,-0.6L0.151,-0.4L0.191,-0.4Z" style="fill-rule:nonzero;"/>
            </g>
            <g transform="matrix(16,0,0,16,74.7311,68.6516)">
                <path d="M0.041,-0.7L0.151,-0.7L0.151,-0.405L0.291,-0.7L0.401,-0.7L0.27,-0.443L0.403,-0L0.288,-0L0.195,-0.312L0.151,-0.223L0.151,-0L0.041,-0L0.041,-0.7Z" style="fill-rule:nonzero;"/>
            </g>
            <g transform="matrix(16,0,0,16,81.3551,68.6516)">
                <path d="M0.041,-0.7L0.341,-0.7L0.341,-0.6L0.151,-0.6L0.151,-0.415L0.302,-0.415L0.302,-0.315L0.151,-0.315L0.151,-0.1L0.341,-0.1L0.341,-0L0.041,-0L0.041,-0.7Z" style="fill-rule:nonzero;"/>
            </g>
            <g transform="matrix(16,0,0,16,87.1631,68.6516)">
                <path d="M0.127,-0.6L0.012,-0.6L0.012,-0.7L0.352,-0.7L0.352,-0.6L0.237,-0.6L0.237,-0L0.127,-0L0.127,-0.6Z" style="fill-rule:nonzero;"/>
            </g>
            <g transform="matrix(16,0,0,16,92.9871,68.6516)">
                <rect x="0.041" y="-0.7" width="0.11" height="0.7" style="fill-rule:nonzero;"/>
            </g>
            <g transform="matrix(16,0,0,16,96.0591,68.6516)">
                <path d="M0.041,-0.7L0.179,-0.7L0.286,-0.281L0.288,-0.281L0.288,-0.7L0.386,-0.7L0.386,-0L0.273,-0L0.141,-0.511L0.139,-0.511L0.139,-0L0.041,-0L0.041,-0.7Z" style="fill-rule:nonzero;"/>
            </g>
            <g transform="matrix(16,0,0,16,102.891,68.6516)">
                <path d="M0.197,0.01C0.144,0.01 0.103,-0.005 0.075,-0.036C0.047,-0.066 0.033,-0.109 0.033,-0.166L0.033,-0.534C0.033,-0.591 0.047,-0.634 0.075,-0.665C0.103,-0.695 0.144,-0.71 0.197,-0.71C0.25,-0.71 0.291,-0.695 0.319,-0.665C0.347,-0.634 0.361,-0.591 0.361,-0.534L0.361,-0.474L0.257,-0.474L0.257,-0.541C0.257,-0.587 0.238,-0.61 0.2,-0.61C0.162,-0.61 0.143,-0.587 0.143,-0.541L0.143,-0.158C0.143,-0.113 0.162,-0.09 0.2,-0.09C0.238,-0.09 0.257,-0.113 0.257,-0.158L0.257,-0.295L0.202,-0.295L0.202,-0.395L0.361,-0.395L0.361,-0.166C0.361,-0.109 0.347,-0.066 0.319,-0.036C0.291,-0.005 0.25,0.01 0.197,0.01Z" style="fill-rule:nonzero;"/>
            </g>
            <g transform="matrix(16,0,0,16,10.3151,84.6516)">
                <path d="M0.156,0.01C0.116,0.01 0.086,-0.004 0.065,-0.031C0.044,-0.058 0.034,-0.098 0.034,-0.15L0.034,-0.223C0.034,-0.26 0.04,-0.29 0.053,-0.315C0.066,-0.34 0.086,-0.358 0.115,-0.369L0.115,-0.371C0.089,-0.382 0.07,-0.399 0.058,-0.423C0.045,-0.446 0.039,-0.477 0.039,-0.514L0.039,-0.527C0.039,-0.584 0.053,-0.627 0.08,-0.656C0.107,-0.685 0.148,-0.7 0.203,-0.7L0.329,-0.7L0.329,-0.6L0.205,-0.6C0.187,-0.6 0.173,-0.595 0.164,-0.584C0.154,-0.573 0.149,-0.556 0.149,-0.532L0.149,-0.489C0.149,-0.462 0.155,-0.443 0.166,-0.432C0.177,-0.421 0.193,-0.415 0.215,-0.415L0.258,-0.415L0.258,-0.493L0.366,-0.493L0.366,-0.415L0.397,-0.415L0.397,-0.315L0.366,-0.315L0.366,-0.085C0.366,-0.065 0.367,-0.049 0.368,-0.037C0.369,-0.024 0.373,-0.012 0.378,-0L0.268,-0C0.263,-0.015 0.259,-0.033 0.258,-0.055L0.256,-0.055C0.244,-0.033 0.23,-0.017 0.215,-0.006C0.199,0.005 0.179,0.01 0.156,0.01ZM0.197,-0.09C0.232,-0.09 0.252,-0.111 0.258,-0.153L0.258,-0.315L0.216,-0.315C0.191,-0.315 0.172,-0.308 0.161,-0.295C0.15,-0.281 0.144,-0.258 0.144,-0.226L0.144,-0.155C0.144,-0.132 0.149,-0.115 0.158,-0.105C0.167,-0.095 0.18,-0.09 0.197,-0.09Z" style="fill-rule:nonzero;"/>
            </g>
            <g transform="matrix(16,0,0,16,19.5471,84.6516)">
                <path d="M0.041,-0.7L0.198,-0.7L0.268,-0.199L0.27,-0.199L0.34,-0.7L0.497,-0.7L0.497,-0L0.393,-0L0.393,-0.53L0.391,-0.53L0.311,-0L0.219,-0L0.139,-0.53L0.137,-0.53L0.137,-0L0.041,-0L0.041,-0.7Z" style="fill-rule:nonzero;"/>
            </g>
            <g transform="matrix(16,0,0,16,28.1551,84.6516)">
                <path d="M0.041,-0.7L0.341,-0.7L0.341,-0.6L0.151,-0.6L0.151,-0.415L0.302,-0.415L0.302,-0.315L0.151,-0.315L0.151,-0.1L0.341,-0.1L0.341,-0L0.041,-0L0.041,-0.7Z" style="fill-rule:nonzero;"/>
            </g>
            <g transform="matrix(16,0,0,16,33.9631,84.6516)">
                <path d="M0.041,-0.7L0.209,-0.7C0.264,-0.7 0.305,-0.685 0.332,-0.656C0.359,-0.627 0.373,-0.584 0.373,-0.527L0.373,-0.173C0.373,-0.116 0.359,-0.073 0.332,-0.044C0.305,-0.015 0.264,-0 0.209,-0L0.041,-0L0.041,-0.7ZM0.207,-0.1C0.225,-0.1 0.239,-0.105 0.249,-0.116C0.258,-0.127 0.263,-0.144 0.263,-0.168L0.263,-0.532C0.263,-0.556 0.258,-0.573 0.249,-0.584C0.239,-0.595 0.225,-0.6 0.207,-0.6L0.151,-0.6L0.151,-0.1L0.207,-0.1Z" style="fill-rule:nonzero;"/>
            </g>
            <g transform="matrix(16,0,0,16,40.4591,84.6516)">
                <rect x="0.041" y="-0.7" width="0.11" height="0.7" style="fill-rule:nonzero;"/>
            </g>
            <g transform="matrix(16,0,0,16,43.5311,84.6516)">
                <path d="M0.126,-0.7L0.275,-0.7L0.389,-0L0.279,-0L0.259,-0.139L0.259,-0.137L0.134,-0.137L0.114,-0L0.012,-0L0.126,-0.7ZM0.246,-0.232L0.197,-0.578L0.195,-0.578L0.147,-0.232L0.246,-0.232Z" style="fill-rule:nonzero;"/>
            </g>
            <g transform="matrix(16,0,0,16,52.5071,84.6516)">
                <path d="M0.184,0.01C0.131,0.01 0.09,-0.005 0.063,-0.036C0.036,-0.066 0.022,-0.109 0.022,-0.166L0.022,-0.206L0.126,-0.206L0.126,-0.158C0.126,-0.113 0.145,-0.09 0.183,-0.09C0.202,-0.09 0.216,-0.095 0.226,-0.107C0.235,-0.117 0.24,-0.135 0.24,-0.16C0.24,-0.189 0.233,-0.215 0.22,-0.238C0.207,-0.26 0.182,-0.287 0.146,-0.318C0.101,-0.358 0.069,-0.394 0.051,-0.427C0.033,-0.459 0.024,-0.495 0.024,-0.536C0.024,-0.591 0.038,-0.634 0.066,-0.665C0.094,-0.695 0.135,-0.71 0.188,-0.71C0.241,-0.71 0.281,-0.695 0.308,-0.665C0.335,-0.634 0.348,-0.591 0.348,-0.534L0.348,-0.505L0.244,-0.505L0.244,-0.541C0.244,-0.565 0.239,-0.583 0.23,-0.594C0.221,-0.604 0.207,-0.61 0.189,-0.61C0.152,-0.61 0.134,-0.588 0.134,-0.543C0.134,-0.518 0.141,-0.494 0.155,-0.472C0.168,-0.45 0.193,-0.423 0.229,-0.392C0.275,-0.352 0.307,-0.316 0.324,-0.283C0.341,-0.25 0.35,-0.212 0.35,-0.168C0.35,-0.111 0.336,-0.067 0.308,-0.036C0.279,-0.005 0.238,0.01 0.184,0.01Z" style="fill-rule:nonzero;"/>
            </g>
            <g transform="matrix(16,0,0,16,58.4591,84.6516)">
                <path d="M0.2,0.01C0.146,0.01 0.105,-0.005 0.076,-0.036C0.047,-0.067 0.033,-0.11 0.033,-0.166L0.033,-0.534C0.033,-0.59 0.047,-0.633 0.076,-0.664C0.105,-0.695 0.146,-0.71 0.2,-0.71C0.254,-0.71 0.295,-0.695 0.324,-0.664C0.353,-0.633 0.367,-0.59 0.367,-0.534L0.367,-0.166C0.367,-0.11 0.353,-0.067 0.324,-0.036C0.295,-0.005 0.254,0.01 0.2,0.01ZM0.2,-0.09C0.238,-0.09 0.257,-0.113 0.257,-0.159L0.257,-0.541C0.257,-0.587 0.238,-0.61 0.2,-0.61C0.162,-0.61 0.143,-0.587 0.143,-0.541L0.143,-0.159C0.143,-0.113 0.162,-0.09 0.2,-0.09Z" style="fill-rule:nonzero;"/>
            </g>
            <g transform="matrix(16,0,0,16,64.8591,84.6516)">
                <path d="M0.041,-0.7L0.151,-0.7L0.151,-0.1L0.332,-0.1L0.332,-0L0.041,-0L0.041,-0.7Z" style="fill-rule:nonzero;"/>
            </g>
            <g transform="matrix(16,0,0,16,70.3631,84.6516)">
                <path d="M0.201,0.01C0.148,0.01 0.107,-0.005 0.079,-0.036C0.051,-0.066 0.037,-0.109 0.037,-0.166L0.037,-0.7L0.147,-0.7L0.147,-0.158C0.147,-0.134 0.152,-0.117 0.162,-0.106C0.171,-0.095 0.185,-0.09 0.203,-0.09C0.221,-0.09 0.235,-0.095 0.245,-0.106C0.254,-0.117 0.259,-0.134 0.259,-0.158L0.259,-0.7L0.365,-0.7L0.365,-0.166C0.365,-0.109 0.351,-0.066 0.323,-0.036C0.295,-0.005 0.254,0.01 0.201,0.01Z" style="fill-rule:nonzero;"/>
            </g>
            <g transform="matrix(16,0,0,16,76.7951,84.6516)">
                <path d="M0.127,-0.6L0.012,-0.6L0.012,-0.7L0.352,-0.7L0.352,-0.6L0.237,-0.6L0.237,-0L0.127,-0L0.127,-0.6Z" style="fill-rule:nonzero;"/>
            </g>
            <g transform="matrix(16,0,0,16,82.6191,84.6516)">
                <rect x="0.041" y="-0.7" width="0.11" height="0.7" style="fill-rule:nonzero;"/>
            </g>
            <g transform="matrix(16,0,0,16,85.6911,84.6516)">
                <path d="M0.2,0.01C0.146,0.01 0.105,-0.005 0.076,-0.036C0.047,-0.067 0.033,-0.11 0.033,-0.166L0.033,-0.534C0.033,-0.59 0.047,-0.633 0.076,-0.664C0.105,-0.695 0.146,-0.71 0.2,-0.71C0.254,-0.71 0.295,-0.695 0.324,-0.664C0.353,-0.633 0.367,-0.59 0.367,-0.534L0.367,-0.166C0.367,-0.11 0.353,-0.067 0.324,-0.036C0.295,-0.005 0.254,0.01 0.2,0.01ZM0.2,-0.09C0.238,-0.09 0.257,-0.113 0.257,-0.159L0.257,-0.541C0.257,-0.587 0.238,-0.61 0.2,-0.61C0.162,-0.61 0.143,-0.587 0.143,-0.541L0.143,-0.159C0.143,-0.113 0.162,-0.09 0.2,-0.09Z" style="fill-rule:nonzero;"/>
            </g>
            <g transform="matrix(16,0,0,16,92.0911,84.6516)">
                <path d="M0.041,-0.7L0.179,-0.7L0.286,-0.281L0.288,-0.281L0.288,-0.7L0.386,-0.7L0.386,-0L0.273,-0L0.141,-0.511L0.139,-0.511L0.139,-0L0.041,-0L0.041,-0.7Z" style="fill-rule:nonzero;"/>
            </g>
            <g transform="matrix(16,0,0,16,98.9231,84.6516)">
                <path d="M0.184,0.01C0.131,0.01 0.09,-0.005 0.063,-0.036C0.036,-0.066 0.022,-0.109 0.022,-0.166L0.022,-0.206L0.126,-0.206L0.126,-0.158C0.126,-0.113 0.145,-0.09 0.183,-0.09C0.202,-0.09 0.216,-0.095 0.226,-0.107C0.235,-0.117 0.24,-0.135 0.24,-0.16C0.24,-0.189 0.233,-0.215 0.22,-0.238C0.207,-0.26 0.182,-0.287 0.146,-0.318C0.101,-0.358 0.069,-0.394 0.051,-0.427C0.033,-0.459 0.024,-0.495 0.024,-0.536C0.024,-0.591 0.038,-0.634 0.066,-0.665C0.094,-0.695 0.135,-0.71 0.188,-0.71C0.241,-0.71 0.281,-0.695 0.308,-0.665C0.335,-0.634 0.348,-0.591 0.348,-0.534L0.348,-0.505L0.244,-0.505L0.244,-0.541C0.244,-0.565 0.239,-0.583 0.23,-0.594C0.221,-0.604 0.207,-0.61 0.189,-0.61C0.152,-0.61 0.134,-0.588 0.134,-0.543C0.134,-0.518 0.141,-0.494 0.155,-0.472C0.168,-0.45 0.193,-0.423 0.229,-0.392C0.275,-0.352 0.307,-0.316 0.324,-0.283C0.341,-0.25 0.35,-0.212 0.35,-0.168C0.35,-0.111 0.336,-0.067 0.308,-0.036C0.279,-0.005 0.238,0.01 0.184,0.01Z" style="fill-rule:nonzero;"/>
            </g>
            <g transform="matrix(16,0,0,16,10.3151,100.652)">
                <path d="M0.126,-0.7L0.275,-0.7L0.389,-0L0.279,-0L0.259,-0.139L0.259,-0.137L0.134,-0.137L0.114,-0L0.012,-0L0.126,-0.7ZM0.246,-0.232L0.197,-0.578L0.195,-0.578L0.147,-0.232L0.246,-0.232Z" style="fill-rule:nonzero;"/>
            </g>
            <g transform="matrix(16,0,0,16,16.6991,100.652)">
                <path d="M0.197,0.01C0.144,0.01 0.103,-0.005 0.075,-0.036C0.047,-0.066 0.033,-0.109 0.033,-0.166L0.033,-0.534C0.033,-0.591 0.047,-0.634 0.075,-0.665C0.103,-0.695 0.144,-0.71 0.197,-0.71C0.25,-0.71 0.291,-0.695 0.319,-0.665C0.347,-0.634 0.361,-0.591 0.361,-0.534L0.361,-0.474L0.257,-0.474L0.257,-0.541C0.257,-0.587 0.238,-0.61 0.2,-0.61C0.162,-0.61 0.143,-0.587 0.143,-0.541L0.143,-0.158C0.143,-0.113 0.162,-0.09 0.2,-0.09C0.238,-0.09 0.257,-0.113 0.257,-0.158L0.257,-0.295L0.202,-0.295L0.202,-0.395L0.361,-0.395L0.361,-0.166C0.361,-0.109 0.347,-0.066 0.319,-0.036C0.291,-0.005 0.25,0.01 0.197,0.01Z" style="fill-rule:nonzero;"/>
            </g>
            <g transform="matrix(16,0,0,16,22.9551,100.652)">
                <path d="M0.041,-0.7L0.341,-0.7L0.341,-0.6L0.151,-0.6L0.151,-0.415L0.302,-0.415L0.302,-0.315L0.151,-0.315L0.151,-0.1L0.341,-0.1L0.341,-0L0.041,-0L0.041,-0.7Z" style="fill-rule:nonzero;"/>
            </g>
            <g transform="matrix(16,0,0,16,28.7631,100.652)">
                <path d="M0.041,-0.7L0.179,-0.7L0.286,-0.281L0.288,-0.281L0.288,-0.7L0.386,-0.7L0.386,-0L0.273,-0L0.141,-0.511L0.139,-0.511L0.139,-0L0.041,-0L0.041,-0.7Z" style="fill-rule:nonzero;"/>
            </g>
            <g transform="matrix(16,0,0,16,35.5951,100.652)">
                <path d="M0.196,0.01C0.143,0.01 0.103,-0.005 0.076,-0.035C0.048,-0.065 0.034,-0.107 0.034,-0.162L0.034,-0.538C0.034,-0.593 0.048,-0.635 0.076,-0.665C0.103,-0.695 0.143,-0.71 0.196,-0.71C0.249,-0.71 0.289,-0.695 0.317,-0.665C0.344,-0.635 0.358,-0.593 0.358,-0.538L0.358,-0.464L0.254,-0.464L0.254,-0.545C0.254,-0.588 0.236,-0.61 0.199,-0.61C0.162,-0.61 0.144,-0.588 0.144,-0.545L0.144,-0.154C0.144,-0.111 0.162,-0.09 0.199,-0.09C0.236,-0.09 0.254,-0.111 0.254,-0.154L0.254,-0.261L0.358,-0.261L0.358,-0.162C0.358,-0.107 0.344,-0.065 0.317,-0.035C0.289,-0.005 0.249,0.01 0.196,0.01Z" style="fill-rule:nonzero;"/>
            </g>
            <g transform="matrix(16,0,0,16,41.5791,100.652)">
                <path d="M0.142,-0.298L0.009,-0.7L0.126,-0.7L0.201,-0.443L0.203,-0.443L0.278,-0.7L0.385,-0.7L0.252,-0.298L0.252,-0L0.142,-0L0.142,-0.298Z" style="fill-rule:nonzero;"/>
            </g>
        </g>
    </g>
</svg>
