<?xml version="1.0" encoding="UTF-8" standalone="no"?><!DOCTYPE svg PUBLIC "-//W3C//DTD SVG 1.1//EN" "http://www.w3.org/Graphics/SVG/1.1/DTD/svg11.dtd"><svg width="100%" height="100%" viewBox="0 0 1250 834" version="1.1" xmlns="http://www.w3.org/2000/svg" xmlns:xlink="http://www.w3.org/1999/xlink" xml:space="preserve" xmlns:serif="http://www.serif.com/" style="fill-rule:evenodd;clip-rule:evenodd;stroke-linejoin:round;stroke-miterlimit:2;"><g><g><g><g><path d="M663.309,607.967c6.391,-8.987 9.683,-20.771 9.683,-35.15c-0,-10.385 -3.486,-22.568 -7.746,-29.558c-4.067,-6.99 -8.327,-12.582 -15.298,-16.976c-6.971,-4.394 -14.33,-7.589 -22.463,-8.987c-7.94,-1.198 -19.171,-1.997 -19.171,-1.997c-5.035,-0.2 -13.555,-0.599 -18.784,-0.599l-59.836,-0c-5.229,-0 -9.489,4.393 -9.489,9.586l0,188.931c0,5.392 4.26,9.586 9.489,9.586l29.628,0c5.228,0 9.295,-4.393 9.295,-9.586l-0,-60.913c-0,-5.393 4.26,-9.587 9.488,-9.587l0.968,0c5.229,0 11.426,3.795 13.943,8.388l34.275,63.31c2.518,4.594 8.908,8.388 13.943,8.388l39.116,0c5.229,0 7.165,-3.595 4.454,-8.188l-44.345,-75.692c-2.711,-4.594 -1.162,-10.585 3.098,-13.381c0.194,-0.2 13.168,-8.588 19.752,-17.575Zm-43.183,-16.177c-1.549,3.195 -3.873,6.191 -7.165,8.987c-3.485,2.796 -7.745,4.594 -12.974,5.392c-5.035,0.799 -9.682,0.799 -9.682,0.799c-5.228,0.2 -4.26,0.2 -9.295,0.2l-2.905,-0c-5.228,-0 -9.488,-4.394 -9.488,-9.586l-0,-36.349c-0,-5.392 4.26,-9.586 9.488,-9.586l5.616,0c5.228,0 4.26,0 9.489,0.2c-0,-0 1.355,-0 5.615,0.399c4.261,0.2 7.94,1.198 11.232,2.596c4.647,1.998 7.939,4.794 9.876,8.189c1.936,3.395 2.904,11.184 2.904,15.977c-0.387,5.193 -1.161,9.586 -2.711,12.782Z" style="fill:#fff;fill-rule:nonzero;"/></g><path d="M818.419,514.7l-59.061,-0c-4.648,-0 -9.489,4.194 -11.038,9.187l-54.027,189.729c-1.55,4.993 1.162,9.187 5.809,9.187l32.726,0c4.648,0 9.489,-4.194 11.038,-9.187l6.971,-24.365c1.549,-4.993 6.39,-9.187 11.038,-9.187l53.833,0c4.648,0 9.683,4.194 11.038,9.187l6.971,24.365c1.356,4.993 6.391,9.187 11.038,9.187l32.92,0c4.648,0 7.165,-4.194 5.809,-9.187l-54.027,-189.729c-1.549,-4.993 -6.39,-9.187 -11.038,-9.187Zm-45.7,127.418c-4.647,0 -7.165,-4.194 -5.809,-9.187l19.171,-67.304c1.549,-4.993 3.873,-4.993 5.228,0l19.171,67.304c1.356,4.993 -1.162,9.187 -5.809,9.187l-31.952,0Z" style="fill:#fff;fill-rule:nonzero;"/><path d="M1177.63,514.7l-58.868,-0c-4.648,-0 -9.682,4.194 -11.038,9.187l-54.221,189.729c-1.355,4.993 1.162,9.187 5.81,9.187l32.919,0c4.648,0 9.489,-4.194 11.038,-9.187l6.971,-24.365c1.356,-4.993 6.391,-9.187 11.038,-9.187l53.64,0c4.648,0 9.489,4.194 11.038,9.187l6.971,24.365c1.549,4.993 6.39,9.187 11.038,9.187l32.92,0c4.647,0 7.165,-4.194 5.809,-9.187l-54.027,-189.729c-1.549,-4.993 -6.39,-9.187 -11.038,-9.187Zm-45.7,127.418c-4.648,0 -7.165,-4.194 -5.81,-9.187l19.171,-67.304c1.549,-4.993 3.873,-4.993 5.229,0l19.171,67.304c1.549,4.993 -1.162,9.187 -5.81,9.187l-31.951,0Z" style="fill:#fff;fill-rule:nonzero;"/><path d="M951.648,523.487c-0,-5.392 -4.261,-9.586 -9.295,-9.586l-29.628,-0c-5.229,-0 -9.489,4.394 -9.489,9.586l0,189.73c0,5.392 4.26,9.786 9.489,9.786l111.54,-0c5.228,-0 9.295,-4.394 9.295,-9.586l-0,-18.374c-0,-5.393 -4.26,-9.587 -9.295,-9.587l-63.129,0c-5.228,0 -9.488,-4.393 -9.488,-9.586l-0,-152.383Z" style="fill:#fff;fill-rule:nonzero;"/><path d="M468.695,515.099l-29.627,0c-5.229,0 -9.489,4.394 -9.489,9.586l0,116.834c0,5.392 -0.581,13.98 -1.162,19.372c0,0 -1.549,12.782 -6.196,19.573c-0.388,0.599 -0.775,0.998 -1.162,1.398c-5.616,6.39 -9.876,9.586 -22.076,9.586c-12.393,-0 -16.653,-3.395 -22.076,-9.986c-0.387,-0.399 -0.774,-0.998 -1.161,-1.598c-4.648,-6.99 -6.003,-19.172 -6.003,-19.172c-0.581,-5.393 -1.162,-13.98 -1.162,-19.373l-0,-116.434c-0,-5.392 -4.261,-9.586 -9.489,-9.586l-29.047,-0c-5.228,-0 -9.295,4.394 -9.295,9.586l0,129.216c0,23.966 6.971,42.34 21.108,55.122c14.136,12.781 30.208,19.172 57.512,19.172c27.498,0 43.571,-6.391 57.707,-19.172c14.136,-12.782 21.107,-31.156 21.107,-55.322l0,-129.016c0,-5.392 -4.26,-9.786 -9.489,-9.786Z" style="fill:#fff;fill-rule:nonzero;"/></g></g><g><path d="M328.492,747.087l0,-16.927l21.382,0l0,16.927l-21.382,0Zm0,78.516l0,-69.141l21.382,0l0,69.141l-21.382,-0Z" style="fill:#fff;fill-rule:nonzero;"/><path d="M445.293,825.603l-21.382,-0l0,-35.287c0,-7.465 -0.456,-12.294 -1.369,-14.485c-0.913,-2.192 -2.397,-3.896 -4.452,-5.111c-2.054,-1.215 -4.527,-1.823 -7.418,-1.823c-3.704,0 -7.026,0.868 -9.969,2.604c-2.942,1.736 -4.958,4.037 -6.049,6.901c-1.09,2.865 -1.636,8.16 -1.636,15.886l0,31.315l-21.382,-0l0,-69.141l19.86,0l0,10.156c7.052,-7.812 15.929,-11.718 26.632,-11.718c4.718,-0 9.03,0.727 12.936,2.181c3.906,1.454 6.861,3.309 8.865,5.566c2.004,2.257 3.399,4.818 4.185,7.682c0.786,2.865 1.179,6.966 1.179,12.305l0,42.969Z" style="fill:#fff;fill-rule:nonzero;"/><path d="M504.036,756.462l0,14.583l-14.61,0l0,27.865c0,5.642 0.14,8.93 0.419,9.863c0.279,0.933 0.913,1.704 1.902,2.312c0.989,0.607 2.194,0.911 3.615,0.911c1.978,-0 4.844,-0.586 8.598,-1.758l1.826,14.193c-4.971,1.823 -10.602,2.734 -16.892,2.734c-3.856,0 -7.33,-0.553 -10.425,-1.66c-3.094,-1.107 -5.364,-2.539 -6.81,-4.297c-1.446,-1.758 -2.448,-4.134 -3.006,-7.129c-0.456,-2.126 -0.684,-6.423 -0.684,-12.89l-0,-30.144l-9.816,0l-0,-14.583l9.816,0l-0,-13.737l21.457,-10.677l0,24.414l14.61,0Z" style="fill:#fff;fill-rule:nonzero;"/><path d="M565.67,803.598l21.306,3.059c-2.739,6.684 -7.064,11.773 -12.974,15.267c-5.909,3.494 -13.303,5.241 -22.18,5.241c-14.052,0 -24.451,-3.928 -31.198,-11.784c-5.326,-6.293 -7.99,-14.236 -7.99,-23.828c0,-11.458 3.501,-20.432 10.501,-26.92c7.001,-6.489 15.853,-9.733 26.556,-9.733c12.023,-0 21.509,3.396 28.458,10.188c6.95,6.793 10.273,17.199 9.968,31.218l-53.568,-0c0.152,5.425 1.877,9.646 5.174,12.663c3.297,3.016 7.406,4.524 12.327,4.524c3.348,0 6.163,-0.781 8.446,-2.343c2.283,-1.563 4.008,-4.08 5.174,-7.552Zm1.218,-18.49c-0.152,-5.295 -1.75,-9.321 -4.794,-12.077c-3.044,-2.756 -6.747,-4.134 -11.109,-4.134c-4.667,0 -8.523,1.454 -11.566,4.362c-3.044,2.908 -4.54,6.858 -4.49,11.849l31.959,-0Z" style="fill:#fff;fill-rule:nonzero;"/><path d="M626.011,825.603l-21.382,-0l0,-69.141l19.86,0l0,9.831c3.399,-4.644 6.455,-7.704 9.169,-9.18c2.714,-1.476 5.796,-2.213 9.245,-2.213c4.87,-0 9.563,1.15 14.077,3.45l-6.62,15.951c-3.601,-1.997 -6.949,-2.995 -10.044,-2.995c-2.993,-0 -5.529,0.705 -7.609,2.116c-2.08,1.41 -3.716,3.96 -4.908,7.649c-1.192,3.69 -1.788,11.415 -1.788,23.178l0,21.354Z" style="fill:#fff;fill-rule:nonzero;"/><path d="M739.692,825.603l-21.382,-0l0,-35.287c0,-7.465 -0.456,-12.294 -1.369,-14.485c-0.913,-2.192 -2.397,-3.896 -4.452,-5.111c-2.054,-1.215 -4.527,-1.823 -7.419,-1.823c-3.703,0 -7.025,0.868 -9.968,2.604c-2.942,1.736 -4.958,4.037 -6.049,6.901c-1.091,2.865 -1.636,8.16 -1.636,15.886l0,31.315l-21.382,-0l0,-69.141l19.86,0l0,10.156c7.051,-7.812 15.929,-11.718 26.632,-11.718c4.718,-0 9.03,0.727 12.936,2.181c3.906,1.454 6.861,3.309 8.865,5.566c2.003,2.257 3.398,4.818 4.185,7.682c0.786,2.865 1.179,6.966 1.179,12.305l0,42.969Z" style="fill:#fff;fill-rule:nonzero;"/><path d="M777.358,777.556l-19.404,-2.995c2.181,-6.684 5.935,-11.632 11.262,-14.844c5.326,-3.211 13.24,-4.817 23.74,-4.817c9.537,-0 16.639,0.965 21.306,2.897c4.667,1.931 7.952,4.383 9.854,7.357c1.902,2.973 2.853,8.431 2.853,16.373l-0.228,21.354c0,6.077 0.342,10.558 1.027,13.444c0.685,2.887 1.966,5.979 3.843,9.278l-21.154,-0c-0.558,-1.216 -1.242,-3.017 -2.054,-5.404c-0.355,-1.085 -0.609,-1.801 -0.761,-2.148c-3.652,3.038 -7.558,5.316 -11.718,6.836c-4.16,1.519 -8.598,2.278 -13.316,2.278c-8.32,0 -14.876,-1.931 -19.67,-5.794c-4.794,-3.863 -7.191,-8.746 -7.191,-14.648c0,-3.907 1.091,-7.39 3.272,-10.45c2.182,-3.06 5.238,-5.403 9.169,-7.031c3.932,-1.628 9.601,-3.049 17.007,-4.264c9.993,-1.606 16.918,-3.104 20.773,-4.492l0,-1.823c0,-3.516 -1.015,-6.023 -3.044,-7.52c-2.029,-1.497 -5.859,-2.246 -11.49,-2.246c-3.804,0 -6.772,0.64 -8.902,1.921c-2.131,1.28 -3.856,3.526 -5.174,6.738Zm28.61,14.844c-2.739,0.781 -7.077,1.714 -13.012,2.799c-5.935,1.085 -9.816,2.149 -11.642,3.19c-2.79,1.693 -4.185,3.841 -4.185,6.446c0,2.56 1.116,4.774 3.348,6.64c2.232,1.866 5.073,2.8 8.523,2.8c3.855,-0 7.533,-1.085 11.033,-3.256c2.587,-1.649 4.286,-3.667 5.098,-6.054c0.558,-1.563 0.837,-4.536 0.837,-8.92l0,-3.645Z" style="fill:#fff;fill-rule:nonzero;"/><path d="M885.103,756.462l0,14.583l-14.609,0l-0,27.865c-0,5.642 0.139,8.93 0.418,9.863c0.279,0.933 0.913,1.704 1.903,2.312c0.989,0.607 2.194,0.911 3.614,0.911c1.978,-0 4.844,-0.586 8.598,-1.758l1.827,14.193c-4.972,1.823 -10.603,2.734 -16.893,2.734c-3.855,0 -7.33,-0.553 -10.424,-1.66c-3.095,-1.107 -5.365,-2.539 -6.811,-4.297c-1.445,-1.758 -2.447,-4.134 -3.005,-7.129c-0.457,-2.126 -0.685,-6.423 -0.685,-12.89l-0,-30.144l-9.816,0l0,-14.583l9.816,0l-0,-13.737l21.458,-10.677l-0,24.414l14.609,0Z" style="fill:#fff;fill-rule:nonzero;"/><path d="M899.941,747.087l0,-16.927l21.382,0l0,16.927l-21.382,0Zm0,78.516l0,-69.141l21.382,0l0,69.141l-21.382,-0Z" style="fill:#fff;fill-rule:nonzero;"/><path d="M938.292,790.056c-0,-6.077 1.75,-11.958 5.25,-17.643c3.5,-5.686 8.459,-10.026 14.876,-13.021c6.417,-2.995 13.582,-4.492 21.496,-4.492c12.225,-0 22.244,3.396 30.056,10.188c7.812,6.793 11.718,15.376 11.718,25.749c0,10.46 -3.944,19.13 -11.832,26.009c-7.888,6.88 -17.818,10.319 -29.79,10.319c-7.406,0 -14.47,-1.432 -21.192,-4.297c-6.721,-2.864 -11.832,-7.063 -15.332,-12.597c-3.5,-5.534 -5.25,-12.272 -5.25,-20.215Zm21.914,0.976c-0,6.858 1.902,12.11 5.707,15.756c3.804,3.645 8.497,5.468 14.077,5.468c5.58,0 10.259,-1.823 14.039,-5.468c3.779,-3.646 5.669,-8.941 5.669,-15.886c-0,-6.771 -1.89,-11.979 -5.669,-15.625c-3.78,-3.646 -8.459,-5.469 -14.039,-5.469c-5.58,0 -10.273,1.823 -14.077,5.469c-3.805,3.646 -5.707,8.898 -5.707,15.755Z" style="fill:#fff;fill-rule:nonzero;"/><path d="M1111.93,825.603l-21.382,-0l0,-35.287c0,-7.465 -0.456,-12.294 -1.37,-14.485c-0.913,-2.192 -2.396,-3.896 -4.451,-5.111c-2.054,-1.215 -4.527,-1.823 -7.419,-1.823c-3.703,0 -7.026,0.868 -9.968,2.604c-2.942,1.736 -4.959,4.037 -6.049,6.901c-1.091,2.865 -1.636,8.16 -1.636,15.886l-0,31.315l-21.382,-0l0,-69.141l19.86,0l-0,10.156c7.051,-7.812 15.929,-11.718 26.632,-11.718c4.718,-0 9.03,0.727 12.936,2.181c3.906,1.454 6.861,3.309 8.864,5.566c2.004,2.257 3.399,4.818 4.185,7.682c0.787,2.865 1.18,6.966 1.18,12.305l-0,42.969Z" style="fill:#fff;fill-rule:nonzero;"/><path d="M1149.6,777.556l-19.403,-2.995c2.181,-6.684 5.935,-11.632 11.261,-14.844c5.327,-3.211 13.24,-4.817 23.741,-4.817c9.537,-0 16.639,0.965 21.306,2.897c4.667,1.931 7.951,4.383 9.854,7.357c1.902,2.973 2.853,8.431 2.853,16.373l-0.228,21.354c-0,6.077 0.342,10.558 1.027,13.444c0.685,2.887 1.966,5.979 3.843,9.278l-21.154,-0c-0.558,-1.216 -1.243,-3.017 -2.054,-5.404c-0.355,-1.085 -0.609,-1.801 -0.761,-2.148c-3.653,3.038 -7.559,5.316 -11.718,6.836c-4.16,1.519 -8.599,2.278 -13.316,2.278c-8.32,0 -14.876,-1.931 -19.67,-5.794c-4.794,-3.863 -7.191,-8.746 -7.191,-14.648c0,-3.907 1.091,-7.39 3.272,-10.45c2.181,-3.06 5.238,-5.403 9.169,-7.031c3.932,-1.628 9.6,-3.049 17.007,-4.264c9.993,-1.606 16.917,-3.104 20.773,-4.492l-0,-1.823c-0,-3.516 -1.015,-6.023 -3.044,-7.52c-2.029,-1.497 -5.859,-2.246 -11.49,-2.246c-3.804,0 -6.772,0.64 -8.903,1.921c-2.13,1.28 -3.855,3.526 -5.174,6.738Zm28.611,14.844c-2.74,0.781 -7.077,1.714 -13.012,2.799c-5.935,1.085 -9.816,2.149 -11.642,3.19c-2.79,1.693 -4.185,3.841 -4.185,6.446c-0,2.56 1.116,4.774 3.348,6.64c2.232,1.866 5.073,2.8 8.522,2.8c3.856,-0 7.533,-1.085 11.034,-3.256c2.587,-1.649 4.286,-3.667 5.098,-6.054c0.558,-1.563 0.837,-4.536 0.837,-8.92l-0,-3.645Z" style="fill:#fff;fill-rule:nonzero;"/><rect x="1220.29" y="730.16" width="21.382" height="95.443" style="fill:#fff;fill-rule:nonzero;"/></g></g><g><g><path d="M3.567,218.399c-0,-103.002 118.521,-186.622 264.511,-186.622c145.985,0 264.512,83.62 264.512,186.622c0,60.867 -42.076,117.914 -112.731,152.839l33.378,127.094l-116.625,-99.683c-22.349,4.228 -45.391,6.372 -68.534,6.372c-145.99,-0 -264.511,-83.625 -264.511,-186.622Z" style="fill:#fff;"/></g><g><g><path d="M69.005,131.181l7.333,0l-0,40l12.067,0l-0,6.667l-19.4,0l-0,-46.667Z" style="fill-rule:nonzero;"/></g><g><path d="M91.938,131.181l20,0l-0,6.667l-12.667,0l0,12.333l10.067,0l-0,6.667l-10.067,0l0,14.333l12.667,0l-0,6.667l-20,0l-0,-46.667Z" style="fill-rule:nonzero;"/></g><g><path d="M121.805,131.181l9.933,0l7.6,46.667l-7.333,0l-1.334,-9.267l0,0.134l-8.333,-0l-1.333,9.133l-6.8,0l7.6,-46.667Zm8,31.2l-3.267,-23.066l-0.133,-0l-3.2,23.066l6.6,0Z" style="fill-rule:nonzero;"/></g><g><path d="M142.871,131.181l11.2,0c3.667,0 6.4,1 8.2,2.934c1.8,1.933 2.734,4.8 2.734,8.6l-0,23.6c-0,3.8 -0.934,6.666 -2.734,8.6c-1.8,1.933 -4.533,2.933 -8.2,2.933l-11.2,0l0,-46.667Zm11.067,40c1.2,0 2.133,-0.333 2.8,-1.066c0.6,-0.734 0.933,-1.867 0.933,-3.467l0,-24.267c0,-1.6 -0.333,-2.733 -0.933,-3.466c-0.667,-0.734 -1.6,-1.067 -2.8,-1.067l-3.733,0l-0,33.333l3.733,0Z" style="fill-rule:nonzero;"/></g><g><rect x="169.938" y="131.181" width="7.333" height="46.667"/></g><g><path d="M182.738,131.181l9.2,0l7.133,27.934l0.134,-0l-0,-27.934l6.533,0l-0,46.667l-7.533,0l-8.8,-34.067l-0.134,0l0,34.067l-6.533,0l-0,-46.667Z" style="fill-rule:nonzero;"/></g><g><path d="M221.605,178.515c-3.534,-0 -6.267,-1 -8.134,-3.067c-1.866,-2 -2.8,-4.867 -2.8,-8.667l0,-24.533c0,-3.8 0.934,-6.667 2.8,-8.733c1.867,-2 4.6,-3 8.134,-3c3.533,-0 6.266,1 8.133,3c1.867,2.066 2.8,4.933 2.8,8.733l-0,4l-6.933,0l-0,-4.467c-0,-3.066 -1.267,-4.6 -3.8,-4.6c-2.534,0 -3.8,1.534 -3.8,4.6l-0,25.534c-0,3 1.266,4.533 3.8,4.533c2.533,0 3.8,-1.533 3.8,-4.533l-0,-9.134l-3.667,0l-0,-6.666l10.6,-0l-0,15.266c-0,3.8 -0.933,6.667 -2.8,8.667c-1.867,2.067 -4.6,3.067 -8.133,3.067Z" style="fill-rule:nonzero;"/></g><g><path d="M247.938,131.181l10.467,0l4.666,33.4l0.134,0l4.666,-33.4l10.467,0l-0,46.667l-6.933,0l-0,-35.333l-0.134,-0l-5.333,35.333l-6.133,0l-5.334,-35.333l-0.133,-0l-0,35.333l-6.4,0l-0,-46.667Z" style="fill-rule:nonzero;"/></g><g><path d="M289.471,131.181l9.934,0l7.6,46.667l-7.334,0l-1.333,-9.267l-0,0.134l-8.333,-0l-1.334,9.133l-6.8,0l7.6,-46.667Zm8,31.2l-3.266,-23.066l-0.134,-0l-3.2,23.066l6.6,0Z" style="fill-rule:nonzero;"/></g><g><path d="M310.538,131.181l10.867,0c3.8,0 6.533,0.867 8.266,2.6c1.734,1.8 2.6,4.467 2.6,8.134l0,2.866c0,4.867 -1.6,7.934 -4.8,9.2l0,0.134c1.8,0.533 3.067,1.6 3.8,3.266c0.734,1.667 1.067,3.867 1.067,6.6l-0,8.2c-0,1.334 0.067,2.4 0.133,3.2c0.067,0.867 0.334,1.667 0.667,2.467l-7.467,0c-0.266,-0.733 -0.466,-1.467 -0.533,-2.133c-0.067,-0.667 -0.133,-1.867 -0.133,-3.6l-0,-8.534c-0,-2.133 -0.334,-3.6 -1,-4.466c-0.734,-0.867 -1.934,-1.267 -3.6,-1.267l-2.534,0l0,20l-7.333,0l-0,-46.667Zm10,20c1.467,0 2.6,-0.4 3.333,-1.133c0.734,-0.733 1.067,-2 1.067,-3.8l-0,-3.6c-0,-1.667 -0.267,-2.933 -0.867,-3.667c-0.6,-0.733 -1.6,-1.133 -2.866,-1.133l-3.334,0l0,13.333l2.667,0Z" style="fill-rule:nonzero;"/></g><g><path d="M337.405,131.181l7.333,0l-0,19.667l9.333,-19.667l7.334,0l-8.734,17.134l8.867,29.533l-7.667,0l-6.2,-20.8l-2.933,5.933l-0,14.867l-7.333,0l-0,-46.667Z" style="fill-rule:nonzero;"/></g><g><path d="M365.005,131.181l20,0l-0,6.667l-12.667,0l-0,12.333l10.067,0l-0,6.667l-10.067,0l-0,14.333l12.667,0l-0,6.667l-20,0l-0,-46.667Z" style="fill-rule:nonzero;"/></g><g><path d="M394.938,137.848l-7.667,0l0,-6.667l22.667,0l-0,6.667l-7.667,0l0,40l-7.333,0l-0,-40Z" style="fill-rule:nonzero;"/></g><g><rect x="413.471" y="131.181" width="7.333" height="46.667"/></g><g><path d="M426.271,131.181l9.2,0l7.134,27.934l0.133,-0l-0,-27.934l6.533,0l0,46.667l-7.533,0l-8.8,-34.067l-0.133,0l-0,34.067l-6.534,0l0,-46.667Z" style="fill-rule:nonzero;"/></g><g><path d="M465.138,178.515c-3.534,-0 -6.267,-1 -8.134,-3.067c-1.866,-2 -2.8,-4.867 -2.8,-8.667l0,-24.533c0,-3.8 0.934,-6.667 2.8,-8.733c1.867,-2 4.6,-3 8.134,-3c3.533,-0 6.266,1 8.133,3c1.867,2.066 2.8,4.933 2.8,8.733l-0,4l-6.933,0l-0,-4.467c-0,-3.066 -1.267,-4.6 -3.8,-4.6c-2.534,0 -3.8,1.534 -3.8,4.6l-0,25.534c-0,3 1.266,4.533 3.8,4.533c2.533,0 3.8,-1.533 3.8,-4.533l-0,-9.134l-3.667,0l-0,-6.666l10.6,-0l-0,15.266c-0,3.8 -0.934,6.667 -2.8,8.667c-1.867,2.067 -4.6,3.067 -8.134,3.067Z" style="fill-rule:nonzero;"/></g><g><path d="M76.671,245.181c-2.666,0 -4.666,-0.933 -6.066,-2.733c-1.4,-1.8 -2.067,-4.467 -2.067,-7.933l-0,-4.867c-0,-2.467 0.4,-4.467 1.267,-6.133c0.866,-1.667 2.2,-2.867 4.133,-3.6l-0,-0.134c-1.733,-0.733 -3,-1.866 -3.8,-3.466c-0.867,-1.534 -1.267,-3.6 -1.267,-6.067l0,-0.867c0,-3.8 0.934,-6.666 2.734,-8.6c1.8,-1.933 4.533,-2.933 8.2,-2.933l8.4,0l-0,6.667l-8.267,-0c-1.2,-0 -2.133,0.333 -2.733,1.066c-0.667,0.734 -1,1.867 -1,3.467l-0,2.867c-0,1.8 0.4,3.066 1.133,3.8c0.733,0.733 1.8,1.133 3.267,1.133l2.866,0l0,-5.2l7.2,0l0,5.2l2.067,0l-0,6.667l-2.067,-0l0,15.333c0,1.333 0.067,2.4 0.134,3.2c0.066,0.867 0.333,1.667 0.666,2.467l-7.333,-0c-0.333,-1 -0.6,-2.2 -0.667,-3.667l-0.133,0c-0.8,1.467 -1.733,2.533 -2.733,3.267c-1.067,0.733 -2.4,1.066 -3.934,1.066Zm2.734,-6.666c2.333,-0 3.666,-1.4 4.066,-4.2l0,-10.8l-2.8,-0c-1.666,-0 -2.933,0.466 -3.666,1.333c-0.734,0.933 -1.134,2.467 -1.134,4.6l0,4.733c0,1.534 0.334,2.667 0.934,3.334c0.6,0.666 1.466,1 2.6,1Z" style="fill-rule:nonzero;"/></g><g><path d="M107.471,197.848l10.467,0l4.667,33.4l0.133,0l4.667,-33.4l10.466,0l0,46.667l-6.933,-0l-0,-35.334l-0.133,0l-5.334,35.334l-6.133,-0l-5.333,-35.334l-0.134,0l0,35.334l-6.4,-0l0,-46.667Z" style="fill-rule:nonzero;"/></g><g><path d="M143.338,197.848l20,0l-0,6.667l-12.667,-0l0,12.333l10.067,0l-0,6.667l-10.067,-0l0,14.333l12.667,0l-0,6.667l-20,-0l-0,-46.667Z" style="fill-rule:nonzero;"/></g><g><path d="M167.538,197.848l11.2,0c3.667,0 6.4,1 8.2,2.933c1.8,1.934 2.733,4.8 2.733,8.6l0,23.6c0,3.8 -0.933,6.667 -2.733,8.6c-1.8,1.934 -4.533,2.934 -8.2,2.934l-11.2,-0l-0,-46.667Zm11.067,40c1.2,0 2.133,-0.333 2.8,-1.067c0.6,-0.733 0.933,-1.866 0.933,-3.466l-0,-24.267c-0,-1.6 -0.333,-2.733 -0.933,-3.467c-0.667,-0.733 -1.6,-1.066 -2.8,-1.066l-3.734,-0l0,33.333l3.734,0Z" style="fill-rule:nonzero;"/></g><g><rect x="194.605" y="197.848" width="7.333" height="46.667"/></g><g><path d="M213.071,197.848l9.934,0l7.6,46.667l-7.334,-0l-1.333,-9.267l-0,0.133l-8.333,0l-1.334,9.134l-6.8,-0l7.6,-46.667Zm8,31.2l-3.266,-23.067l-0.134,0l-3.2,23.067l6.6,0Z" style="fill-rule:nonzero;"/></g><g><path d="M254.338,245.181c-3.533,0 -6.267,-1 -8.067,-3.066c-1.8,-2 -2.733,-4.867 -2.733,-8.667l-0,-2.667l6.933,0l0,3.2c0,3 1.267,4.534 3.8,4.534c1.267,-0 2.2,-0.334 2.867,-1.134c0.6,-0.666 0.933,-1.866 0.933,-3.533c0,-1.933 -0.466,-3.667 -1.333,-5.2c-0.867,-1.467 -2.533,-3.267 -4.933,-5.333c-3,-2.667 -5.134,-5.067 -6.334,-7.267c-1.2,-2.133 -1.8,-4.533 -1.8,-7.267c0,-3.666 0.934,-6.533 2.8,-8.6c1.867,-2 4.6,-3 8.134,-3c3.533,0 6.2,1 8,3c1.8,2.067 2.666,4.934 2.666,8.734l0,1.933l-6.933,0l-0,-2.4c-0,-1.6 -0.333,-2.8 -0.933,-3.533c-0.6,-0.667 -1.534,-1.067 -2.734,-1.067c-2.466,0 -3.666,1.467 -3.666,4.467c-0,1.666 0.466,3.266 1.4,4.733c0.866,1.467 2.533,3.267 4.933,5.333c3.067,2.667 5.2,5.067 6.333,7.267c1.134,2.2 1.734,4.733 1.734,7.667c-0,3.8 -0.934,6.733 -2.8,8.8c-1.934,2.066 -4.667,3.066 -8.267,3.066Z" style="fill-rule:nonzero;"/></g><g><path d="M280.205,245.181c-3.6,0 -6.334,-1 -8.267,-3.066c-1.933,-2.067 -2.867,-4.934 -2.867,-8.667l0,-24.533c0,-3.734 0.934,-6.6 2.867,-8.667c1.933,-2.067 4.667,-3.067 8.267,-3.067c3.6,0 6.333,1 8.266,3.067c1.934,2.067 2.867,4.933 2.867,8.667l-0,24.533c-0,3.733 -0.933,6.6 -2.867,8.667c-1.933,2.066 -4.666,3.066 -8.266,3.066Zm-0,-6.666c2.533,-0 3.8,-1.534 3.8,-4.6l-0,-25.467c-0,-3.067 -1.267,-4.6 -3.8,-4.6c-2.534,0 -3.8,1.533 -3.8,4.6l-0,25.467c-0,3.066 1.266,4.6 3.8,4.6Z" style="fill-rule:nonzero;"/></g><g><path d="M296.271,197.848l7.334,0l-0,40l12.066,0l0,6.667l-19.4,-0l0,-46.667Z" style="fill-rule:nonzero;"/></g><g><path d="M329.871,245.181c-3.533,0 -6.266,-1 -8.133,-3.066c-1.867,-2 -2.8,-4.867 -2.8,-8.667l-0,-35.6l7.333,0l0,36.133c0,1.6 0.334,2.734 1,3.467c0.6,0.733 1.534,1.067 2.734,1.067c1.2,-0 2.133,-0.334 2.8,-1.067c0.6,-0.733 0.933,-1.867 0.933,-3.467l-0,-36.133l7.067,0l-0,35.6c-0,3.8 -0.934,6.667 -2.8,8.667c-1.867,2.066 -4.6,3.066 -8.134,3.066Z" style="fill-rule:nonzero;"/></g><g><path d="M351.738,204.515l-7.667,-0l0,-6.667l22.667,0l-0,6.667l-7.667,-0l0,40l-7.333,-0l-0,-40Z" style="fill-rule:nonzero;"/></g><g><rect x="370.271" y="197.848" width="7.333" height="46.667"/></g><g><path d="M393.671,245.181c-3.6,0 -6.333,-1 -8.266,-3.066c-1.934,-2.067 -2.867,-4.934 -2.867,-8.667l-0,-24.533c-0,-3.734 0.933,-6.6 2.867,-8.667c1.933,-2.067 4.666,-3.067 8.266,-3.067c3.6,0 6.334,1 8.267,3.067c1.933,2.067 2.867,4.933 2.867,8.667l-0,24.533c-0,3.733 -0.934,6.6 -2.867,8.667c-1.933,2.066 -4.667,3.066 -8.267,3.066Zm0,-6.666c2.534,-0 3.8,-1.534 3.8,-4.6l0,-25.467c0,-3.067 -1.266,-4.6 -3.8,-4.6c-2.533,0 -3.8,1.533 -3.8,4.6l0,25.467c0,3.066 1.267,4.6 3.8,4.6Z" style="fill-rule:nonzero;"/></g><g><path d="M409.738,197.848l9.2,0l7.133,27.933l0.134,0l-0,-27.933l6.533,0l-0,46.667l-7.533,-0l-8.8,-34.067l-0.134,0l0,34.067l-6.533,-0l-0,-46.667Z" style="fill-rule:nonzero;"/></g><g><path d="M447.738,245.181c-3.533,0 -6.267,-1 -8.067,-3.066c-1.8,-2 -2.733,-4.867 -2.733,-8.667l-0,-2.667l6.933,0l0,3.2c0,3 1.267,4.534 3.8,4.534c1.267,-0 2.2,-0.334 2.867,-1.134c0.6,-0.666 0.933,-1.866 0.933,-3.533c0,-1.933 -0.466,-3.667 -1.333,-5.2c-0.867,-1.467 -2.533,-3.267 -4.933,-5.333c-3,-2.667 -5.134,-5.067 -6.334,-7.267c-1.2,-2.133 -1.8,-4.533 -1.8,-7.267c0,-3.666 0.934,-6.533 2.8,-8.6c1.867,-2 4.6,-3 8.134,-3c3.533,0 6.2,1 8,3c1.8,2.067 2.666,4.934 2.666,8.734l0,1.933l-6.933,0l-0,-2.4c-0,-1.6 -0.333,-2.8 -0.933,-3.533c-0.6,-0.667 -1.534,-1.067 -2.734,-1.067c-2.466,0 -3.666,1.467 -3.666,4.467c-0,1.666 0.466,3.266 1.4,4.733c0.866,1.467 2.533,3.267 4.933,5.333c3.067,2.667 5.2,5.067 6.333,7.267c1.134,2.2 1.734,4.733 1.734,7.667c-0,3.8 -0.934,6.733 -2.8,8.8c-1.934,2.066 -4.667,3.066 -8.267,3.066Z" style="fill-rule:nonzero;"/></g><g><path d="M74.671,264.516l9.934,0l7.6,46.667l-7.334,0l-1.333,-9.267l-0,0.134l-8.333,-0l-1.334,9.133l-6.8,0l7.6,-46.667Zm8,31.2l-3.266,-23.066l-0.134,-0l-3.2,23.066l6.6,0Z" style="fill-rule:nonzero;"/></g><g><path d="M106.005,311.85c-3.534,-0 -6.267,-1 -8.134,-3.067c-1.866,-2 -2.8,-4.867 -2.8,-8.667l0,-24.533c0,-3.8 0.934,-6.667 2.8,-8.733c1.867,-2 4.6,-3 8.134,-3c3.533,-0 6.266,1 8.133,3c1.867,2.066 2.8,4.933 2.8,8.733l-0,4l-6.933,0l-0,-4.467c-0,-3.066 -1.267,-4.6 -3.8,-4.6c-2.534,0 -3.8,1.534 -3.8,4.6l-0,25.534c-0,3 1.266,4.533 3.8,4.533c2.533,0 3.8,-1.533 3.8,-4.533l-0,-9.134l-3.667,0l-0,-6.666l10.6,-0l-0,15.266c-0,3.8 -0.933,6.667 -2.8,8.667c-1.867,2.067 -4.6,3.067 -8.133,3.067Z" style="fill-rule:nonzero;"/></g><g><path d="M121.671,264.516l20,0l0,6.667l-12.666,0l-0,12.333l10.066,0l0,6.667l-10.066,0l-0,14.333l12.666,0l0,6.667l-20,0l0,-46.667Z" style="fill-rule:nonzero;"/></g><g><path d="M145.871,264.516l9.2,0l7.134,27.934l0.133,-0l-0,-27.934l6.533,0l0,46.667l-7.533,0l-8.8,-34.067l-0.133,0l-0,34.067l-6.534,0l0,-46.667Z" style="fill-rule:nonzero;"/></g><g><path d="M184.671,311.85c-3.533,-0 -6.2,-1 -8,-3c-1.866,-2 -2.8,-4.8 -2.8,-8.467l0,-25.067c0,-3.666 0.934,-6.466 2.8,-8.466c1.8,-2 4.467,-3 8,-3c3.534,-0 6.2,1 8.067,3c1.8,2 2.733,4.8 2.733,8.466l0,4.934l-6.933,-0l-0,-5.4c-0,-2.867 -1.2,-4.334 -3.667,-4.334c-2.466,0 -3.666,1.467 -3.666,4.334l-0,26.066c-0,2.867 1.2,4.267 3.666,4.267c2.467,0 3.667,-1.4 3.667,-4.267l-0,-7.133l6.933,0l0,6.6c0,3.667 -0.933,6.467 -2.733,8.467c-1.867,2 -4.533,3 -8.067,3Z" style="fill-rule:nonzero;"/></g><g><path d="M206.005,291.316l-8.867,-26.8l7.8,0l5,17.134l0.133,-0l5,-17.134l7.134,0l-8.867,26.8l-0,19.867l-7.333,0l-0,-19.867Z" style="fill-rule:nonzero;"/></g></g></g></svg>