<svg width="34" height="34" fill="none" xmlns="http://www.w3.org/2000/svg"><path d="M28.85 4.96A16.79 16.79 0 0 0 .18 16.91c0 2.94.83 5.79 2.2 8.36L0 34l8.91-2.3a16.4 16.4 0 0 0 8 2.02A16.9 16.9 0 0 0 28.85 4.96ZM17 30.88c-2.48 0-4.96-.65-7.08-1.93l-.55-.28-5.33 1.38 1.38-5.24-.37-.55a13.9 13.9 0 0 1 4.5-19.2 13.88 13.88 0 0 1 19.21 4.5 13.88 13.88 0 0 1-4.5 19.2A13.4 13.4 0 0 1 17 30.88Zm8.09-10.2-1.01-.46s-1.47-.65-2.4-1.1c-.09 0-.18-.1-.27-.1-.27 0-.46.1-.64.19 0 0-.1.09-1.38 1.56a.5.5 0 0 1-.46.27h-.1a.7.7 0 0 1-.36-.18l-.46-.18a8.93 8.93 0 0 1-2.66-1.75c-.19-.18-.46-.37-.65-.55a10.26 10.26 0 0 1-1.74-2.2l-.1-.2c-.09-.08-.09-.17-.18-.36 0-.18 0-.37.1-.46 0 0 .36-.46.64-.73.18-.19.27-.46.46-.65.18-.27.27-.64.18-.92-.1-.45-1.2-2.94-1.47-3.49a1.06 1.06 0 0 0-.64-.46h-1.01c-.19 0-.37.1-.56.1l-.09.09c-.18.09-.37.27-.55.36-.18.19-.28.37-.46.56a4.69 4.69 0 0 0-.55 4.96l.1.27a15.3 15.3 0 0 0 3.4 4.69l.36.37c.27.27.55.46.73.73a16.42 16.42 0 0 0 6.62 3.5c.28.09.64.09.92.18h.92a3.4 3.4 0 0 0 1.38-.37c.27-.18.46-.18.64-.37l.18-.18c.19-.18.37-.28.56-.46.18-.18.36-.37.45-.55.19-.37.28-.83.37-1.29v-.64s-.09-.1-.27-.18Z" fill="#fff"/></svg>