<?xml version="1.0" encoding="UTF-8" standalone="no"?><!DOCTYPE svg PUBLIC "-//W3C//DTD SVG 1.1//EN" "http://www.w3.org/Graphics/SVG/1.1/DTD/svg11.dtd"><svg width="100%" height="100%" viewBox="0 0 1842 396" version="1.1" xmlns="http://www.w3.org/2000/svg" xmlns:xlink="http://www.w3.org/1999/xlink" xml:space="preserve" xmlns:serif="http://www.serif.com/" style="fill-rule:evenodd;clip-rule:evenodd;stroke-linejoin:round;stroke-miterlimit:2;"><g><path d="M470.652,68.064l35.084,-0l-0,237.232c-0,8.38 -1.162,14.67 -3.484,18.872c-2.322,4.202 -6.255,7.508 -11.799,9.919c-5.543,2.111 -12.378,3.45 -20.504,4.016c-8.127,0.566 -18.356,0.849 -30.689,0.849c-0.787,-3.989 -2.312,-8.614 -4.575,-13.874c-2.263,-5.261 -4.524,-9.683 -6.785,-13.268c4.656,0.191 9.405,0.325 14.247,0.4c4.841,0.075 9.215,0.101 13.121,0.08c3.907,-0.02 6.66,-0.031 8.259,-0.031c2.683,-0.192 4.542,-0.754 5.575,-1.687c1.033,-0.933 1.55,-2.706 1.55,-5.321l-0,-237.187Zm-107.66,18.791l253.054,-0l-0,27.173l-253.054,-0l-0,-27.173Zm62.423,60.689l0,13.634l126.954,-0l0,-13.634l-126.954,0Zm-33.004,-21.792l195.208,0l0,57.285l-195.208,-0l0,-57.285Zm-7.021,70.146l207.148,-0l0,112.296l-35.021,-0l0,-88.932l-172.127,-0l-0,-23.364Zm-28.952,35.551l266.225,0l-0,26.279l-266.225,0l-0,-26.279Zm26.688,39.585l193.151,0l-0,24.995l-193.151,-0l-0,-24.995Z" style="fill:#7adbe8;fill-rule:nonzero;"/><path d="M722.484,80.763l102.399,0l0,30.093l-102.399,0l-0,-30.093Zm29.105,61.184l48.906,-0l0,29.927l-58.219,-0l9.313,-29.927Zm-17.767,79.269l14.725,-25.898c3.912,2.57 7.907,5.47 11.988,8.702c4.08,3.231 7.943,6.404 11.587,9.519c3.645,3.114 6.541,6.012 8.688,8.692l-15.111,28.97c-2.04,-2.914 -4.855,-6.147 -8.446,-9.698c-3.59,-3.552 -7.426,-7.103 -11.506,-10.654c-4.081,-3.55 -8.056,-6.761 -11.925,-9.633Zm89.062,-119.672l30.376,0l0,168.3l-30.376,-0l0,-168.3Zm48.341,-27.95l31.948,-0l-0,225.485c-0,9.086 -0.991,16.12 -2.974,21.102c-1.982,4.982 -5.65,8.828 -11.001,11.538c-5.16,2.71 -11.821,4.498 -19.981,5.362c-8.161,0.864 -17.971,1.296 -29.429,1.296c-0.683,-4.546 -2.032,-10.112 -4.047,-16.696c-2.016,-6.584 -4.154,-12.266 -6.415,-17.045c7.786,0.341 15.05,0.549 21.789,0.624c6.74,0.075 11.335,0.092 13.785,0.05c2.3,-0.192 3.929,-0.719 4.887,-1.582c0.958,-0.862 1.438,-2.466 1.438,-4.811l-0,-225.323Zm-127.408,17.834l32.681,4.573c-2.022,13.189 -4.534,26.791 -7.538,40.807c-3.004,14.015 -6.678,27.786 -11.024,41.312c-4.345,13.526 -9.532,26.318 -15.561,38.375c-6.028,12.057 -13.024,22.812 -20.987,32.267c-1.432,-2.369 -3.353,-5.084 -5.764,-8.147c-2.411,-3.062 -4.896,-6.05 -7.457,-8.964c-2.56,-2.914 -4.898,-5.31 -7.012,-7.187c6.579,-8.071 12.302,-17.43 17.167,-28.076c4.865,-10.647 8.962,-21.991 12.293,-34.033c3.33,-12.042 6.054,-24.132 8.173,-36.27c2.119,-12.138 3.795,-23.69 5.029,-34.657Zm43.745,50.519l6.047,-0l5.538,-1.024l19.753,5.884c-5.044,46.767 -14.912,86.286 -29.604,118.558c-14.692,32.272 -33.134,56.545 -55.326,72.818c-1.428,-2.71 -3.433,-5.794 -6.015,-9.253c-2.581,-3.459 -5.238,-6.768 -7.969,-9.926c-2.731,-3.158 -5.227,-5.601 -7.488,-7.329c20.76,-14.204 37.455,-35.056 50.085,-62.556c12.631,-27.5 20.957,-61.017 24.979,-100.551l0,-6.621Zm-94.161,-73.443l31.818,9.416c-5.366,16.699 -11.83,33.547 -19.39,50.546c-7.56,16.998 -15.809,33.113 -24.745,48.345c-8.937,15.231 -18.303,28.588 -28.099,40.07c-0.832,-2.818 -2.23,-6.592 -4.193,-11.32c-1.963,-4.729 -4.076,-9.506 -6.337,-14.33c-2.261,-4.825 -4.299,-8.721 -6.113,-11.689c7.813,-9.11 15.28,-19.594 22.4,-31.452c7.12,-11.858 13.655,-24.59 19.604,-38.195c5.949,-13.605 10.967,-27.402 15.055,-41.391Zm-22.905,79.049l30.924,-30.924l0.737,0.575l-0,220.723l-31.661,0l-0,-190.374Z" style="fill:#7adbe8;fill-rule:nonzero;"/><path d="M1071.18,295.009l98.95,0l-0,30.381l-98.95,-0l0,-30.381Zm-16.199,-79.319l131.923,0l-0,120.863l-33.292,-0l-0,-90.549l-66.907,-0l0,91.699l-31.724,-0l0,-122.013Zm-10.156,-134.091l131.702,-0l-0,31.661l-131.702,-0l-0,-31.661Zm115.718,-0l32.111,-0c-0,-0 -0.038,1.567 -0.113,4.703c-0.075,3.136 -0.208,5.707 -0.4,7.713c-0.509,19.951 -1.141,36.332 -1.895,49.142c-0.755,12.811 -1.814,22.742 -3.176,29.795c-1.363,7.053 -3.269,12.123 -5.719,15.21c-2.923,3.711 -6.073,6.35 -9.451,7.918c-3.378,1.568 -7.412,2.651 -12.102,3.25c-3.771,0.641 -8.783,0.978 -15.036,1.011c-6.253,0.033 -12.915,0.006 -19.985,-0.081c-0.342,-5.034 -1.415,-10.524 -3.219,-16.469c-1.804,-5.944 -4.041,-11.082 -6.709,-15.412c6.046,0.617 11.741,0.973 17.084,1.069c5.342,0.096 9.346,0.144 12.012,0.144c2.192,-0 3.996,-0.182 5.413,-0.544c1.416,-0.362 2.754,-1.193 4.011,-2.493c1.426,-1.767 2.574,-5.456 3.446,-11.067c0.871,-5.61 1.621,-13.999 2.248,-25.165c0.628,-11.166 1.121,-25.786 1.48,-43.859l0,-4.865Zm-74.485,13l33.872,0c-1.046,12.075 -2.754,23.666 -5.126,34.774c-2.372,11.108 -5.921,21.454 -10.649,31.039c-4.727,9.585 -11.19,18.388 -19.388,26.409c-8.198,8.022 -18.667,15.026 -31.407,21.013c-1.92,-4.097 -4.848,-8.702 -8.785,-13.814c-3.936,-5.112 -7.73,-9.173 -11.381,-12.183c10.752,-4.558 19.459,-9.956 26.122,-16.194c6.664,-6.238 11.756,-13.061 15.276,-20.469c3.521,-7.407 6.099,-15.395 7.736,-23.963c1.636,-8.568 2.88,-17.439 3.73,-26.612Zm-113.67,-26.311l29.801,11.199c-3.854,7.266 -7.869,14.823 -12.043,22.672c-4.175,7.85 -8.285,15.309 -12.331,22.378c-4.046,7.069 -7.911,13.266 -11.595,18.591l-22.986,-9.95c3.537,-5.816 7.103,-12.478 10.7,-19.986c3.597,-7.508 7.051,-15.197 10.361,-23.067c3.311,-7.87 6.009,-15.149 8.093,-21.837Zm32.973,34.092l28.071,12.708c-6.882,10.925 -14.417,22.392 -22.606,34.401c-8.19,12.009 -16.401,23.497 -24.633,34.462c-8.233,10.965 -16.045,20.611 -23.436,28.936l-20.067,-11.136c5.367,-6.516 10.936,-13.879 16.707,-22.088c5.771,-8.209 11.467,-16.774 17.088,-25.697c5.621,-8.923 10.907,-17.835 15.857,-26.736c4.951,-8.9 9.29,-17.184 13.019,-24.85Zm-77.243,34.055l16.45,-23.499c5.112,4.301 10.308,9.107 15.588,14.42c5.28,5.313 10.155,10.578 14.626,15.795c4.472,5.217 7.899,10.008 10.283,14.375l-17.793,26.67c-2.28,-4.558 -5.58,-9.654 -9.901,-15.287c-4.322,-5.633 -9.037,-11.304 -14.146,-17.012c-5.109,-5.708 -10.145,-10.862 -15.107,-15.462Zm68.815,34.509l22.726,-9.38c3.768,6.391 7.382,13.298 10.842,20.72c3.461,7.423 6.489,14.628 9.086,21.614c2.596,6.987 4.437,13.27 5.521,18.85l-24.42,10.916c-0.934,-5.624 -2.626,-12.042 -5.074,-19.252c-2.448,-7.209 -5.279,-14.622 -8.492,-22.238c-3.214,-7.616 -6.61,-14.693 -10.189,-21.23Zm-69.193,23.957c13.228,-0.384 29.03,-0.959 47.406,-1.725c18.376,-0.767 37.032,-1.555 55.968,-2.363l-0.287,27.339c-17.723,1.255 -35.34,2.474 -52.851,3.657c-17.51,1.183 -33.296,2.232 -47.356,3.149l-2.88,-30.057Zm75.352,47.716l24.231,-7.844c3.513,8.2 6.967,17.16 10.364,26.882c3.396,9.721 5.914,18.202 7.555,25.443l-25.479,9.092c-1.342,-7.283 -3.625,-15.935 -6.851,-25.955c-3.225,-10.021 -6.499,-19.227 -9.82,-27.618Zm-62.854,-5.508l28.588,5.085c-1.447,13.717 -3.723,27.284 -6.831,40.704c-3.107,13.42 -6.703,24.73 -10.788,33.93c-1.922,-1.282 -4.483,-2.723 -7.683,-4.324c-3.2,-1.601 -6.486,-3.175 -9.859,-4.721c-3.372,-1.547 -6.263,-2.714 -8.674,-3.502c4.214,-8.562 7.533,-18.864 9.957,-30.906c2.424,-12.042 4.187,-24.131 5.29,-36.266Zm32.307,-26.993l30.089,-0l0,128.225l-30.089,-0l0,-128.225Z" style="fill:#7adbe8;fill-rule:nonzero;"/><path d="M1350.63,102.667c-7.367,12.222 -16.948,24.538 -28.743,36.948c-11.795,12.411 -25.028,24.209 -39.698,35.394c-14.67,11.186 -30.065,21.067 -46.186,29.644c-1.429,-2.86 -3.365,-6.056 -5.809,-9.588c-2.443,-3.533 -5.01,-6.99 -7.699,-10.373c-2.69,-3.382 -5.315,-6.258 -7.875,-8.627c17.016,-8.239 33.068,-18.389 48.154,-30.45c15.086,-12.062 28.489,-24.948 40.209,-38.66c11.721,-13.712 20.89,-26.933 27.508,-39.664l37.205,0c7.433,12.099 15.769,23.53 25.01,34.293c9.24,10.764 19.125,20.6 29.653,29.51c10.528,8.909 21.52,16.806 32.977,23.691c11.457,6.885 23.041,12.625 34.754,17.219c-4.355,4.504 -8.452,9.568 -12.293,15.193c-3.841,5.624 -7.341,11.083 -10.501,16.378c-15.333,-7.879 -30.447,-17.269 -45.341,-28.168c-14.895,-10.9 -28.532,-22.63 -40.911,-35.19c-12.379,-12.56 -22.517,-25.077 -30.414,-37.55Zm31.957,70.707l35.92,0l-0,164.589l-35.92,0l0,-164.589Zm-99.133,1.536l35.533,0l-0,35.655c-0,10.158 -0.634,20.861 -1.9,32.108c-1.267,11.247 -3.955,22.5 -8.064,33.759c-4.109,11.259 -10.336,22.172 -18.683,32.739c-8.346,10.567 -19.601,20.248 -33.763,29.044c-2.028,-2.561 -4.722,-5.409 -8.084,-8.546c-3.361,-3.138 -6.883,-6.173 -10.565,-9.108c-3.683,-2.935 -7.082,-5.267 -10.2,-6.995c12.581,-7.559 22.592,-15.645 30.033,-24.26c7.44,-8.614 12.997,-17.489 16.67,-26.623c3.673,-9.134 6.095,-18.167 7.266,-27.099c1.171,-8.932 1.757,-17.571 1.757,-25.918l-0,-34.756Z" style="fill:#7adbe8;fill-rule:nonzero;"/></g></svg>