<svg xmlns="http://www.w3.org/2000/svg" xmlns:xlink="http://www.w3.org/1999/xlink" viewBox="0 0 1078.36 507"><style>.M{fill:none}.N{stroke:#0ff}.O{stroke:#fff}.P{stroke-width:3}.Q{stroke-linejoin:round}.R{stroke-linecap:round}.S{stroke-miterlimit:10}.T{stroke-width:2}.U{stroke-width:6}</style><defs><path id="C" d="M901.79 97.5H651.02V48.57l15-15h250.77V82.5l-15 15z"/><path id="D" d="M763.79 223.45h3.19l4.01 9.82 1.48 3.82h.14l1.42-3.82 3.99-9.82h3.19v18.35h-2.48v-10.15c0-1.57.2-3.8.34-5.4h-.11l-1.65 4.17-3.96 9.52h-1.77l-3.96-9.52-1.65-4.17h-.11l.31 5.4v10.15h-2.39v-18.35z"/><path id="E" d="M786.66 235.03c0-4.4 3.39-7.15 6.98-7.15 3.93 0 6.15 2.5 6.15 6.37 0 .5-.06.97-.11 1.3h-10.42c.17 2.9 2.19 4.75 5.12 4.75a7.35 7.35 0 0 0 3.87-1.07l.94 1.5c-1.37.78-3.02 1.4-5.12 1.4-4.1 0-7.4-2.62-7.4-7.1zm10.85-1.12c0-2.72-1.42-4.2-3.84-4.2-2.19 0-4.13 1.55-4.44 4.2h8.29z"/><path id="F" d="M803.63 235.03c0-4.4 3.16-7.15 6.69-7.15 1.82 0 2.99.6 4.36 1.6l-.11-2.35v-5.22h2.56v19.9h-2.11l-.23-1.6h-.09c-1.22 1.05-2.85 1.92-4.7 1.92-3.87 0-6.38-2.57-6.38-7.1zm10.93 3.32v-7.12c-1.34-1.02-2.5-1.42-3.79-1.42-2.5 0-4.47 2.1-4.47 5.2 0 3.27 1.54 5.22 4.27 5.22 1.42 0 2.68-.62 3.99-1.88z"/><path id="G" d="M823.11 223.9c0-.88.71-1.47 1.74-1.47s1.74.6 1.74 1.47c0 .92-.71 1.52-1.74 1.52s-1.74-.6-1.74-1.52zm.43 4.32h2.59v13.57h-2.59v-13.57z"/><path id="H" d="M831.54 238.27c0-2.95 2.93-4.42 9.51-5.07 0-1.75-.65-3.42-3.19-3.42-1.79 0-3.42.73-4.64 1.45l-1.02-1.58c1.42-.8 3.62-1.77 6.09-1.77 3.76 0 5.35 2.22 5.35 5.57v8.35h-2.13l-.23-1.62h-.08c-1.48 1.08-3.22 1.95-5.12 1.95-2.59 0-4.53-1.4-4.53-3.85zm9.51.23v-3.8c-5.21.55-6.98 1.67-6.98 3.42 0 1.55 1.2 2.17 2.73 2.17s2.73-.62 4.24-1.8z"/><path id="I" d="M857.23 228.23h2.14l.23 1.55h.09c1.39-1 3.13-1.9 4.93-1.9 3.99 0 6.15 2.75 6.15 6.92 0 4.65-3.16 7.32-6.72 7.32-1.4 0-2.88-.58-4.27-1.58l.06 2.38v4.6h-2.59v-19.29zm10.82 6.6c0-3-1.14-5.02-4.07-5.02-1.31 0-2.65.65-4.16 1.88v7.12c1.39 1.05 2.76 1.42 3.79 1.42 2.56 0 4.44-2.02 4.44-5.4z"/><path id="J" d="M876.03 239.1v-17.2h2.59v17.35c0 .7.34.98.74.98.14 0 .26 0 .54-.05l.37 1.75c-.37.12-.8.2-1.51.2-1.94 0-2.73-1.1-2.73-3.02z"/><path id="K" d="M902.48 228.23h2.14l.23 1.95h.09c1.48-1.27 3.08-2.3 5.18-2.3 3.25 0 4.73 1.85 4.73 5.32v8.6h-2.59v-8.3c0-2.55-.88-3.62-2.93-3.62-1.59 0-2.68.7-4.24 2.07v9.85h-2.59v-13.57z"/><path id="L" d="M965.91 244.4c0-1.15.83-2.25 2.28-3.07v-.1c-.83-.42-1.42-1.15-1.42-2.22s.94-2.02 1.74-2.52v-.1c-1.02-.72-2.02-2.02-2.02-3.65 0-2.97 2.68-4.85 5.81-4.85.85 0 1.62.17 2.16.35h5.38v1.75h-3.16c.74.62 1.25 1.62 1.25 2.8 0 2.9-2.51 4.72-5.64 4.72-.77 0-1.62-.17-2.31-.47-.57.42-1 .87-1 1.62 0 .88.63 1.47 2.71 1.47h3.02c3.59 0 5.41 1 5.41 3.22 0 2.52-3.05 4.7-7.83 4.7-3.79 0-6.38-1.3-6.38-3.65zm11.67-.7c0-1.25-1.11-1.67-3.16-1.67h-2.68c-.57 0-1.31-.07-1.99-.22-1.11.7-1.57 1.5-1.57 2.3 0 1.45 1.68 2.4 4.47 2.4 2.96 0 4.93-1.38 4.93-2.8zm-1.99-10.97c0-1.97-1.48-3.17-3.3-3.17s-3.3 1.17-3.3 3.17 1.51 3.22 3.3 3.22 3.3-1.25 3.3-3.22z"/><path id="M" d="M792.99 271.27c0-2.95 2.93-4.42 9.51-5.07 0-1.75-.65-3.42-3.19-3.42-1.79 0-3.42.73-4.64 1.45l-1.02-1.58c1.42-.8 3.62-1.77 6.09-1.77 3.76 0 5.35 2.22 5.35 5.57v8.35h-2.13l-.23-1.62h-.09c-1.48 1.08-3.22 1.95-5.12 1.95-2.59 0-4.53-1.4-4.53-3.85zm9.51.23v-3.8c-5.21.55-6.98 1.67-6.98 3.42 0 1.55 1.2 2.17 2.73 2.17s2.73-.62 4.24-1.8z"/><path id="N" d="M858.44 273.4h-.11l-.23 1.4h-2.08v-19.9h2.59v5.45l-.09 2.45c1.4-1.08 3.13-1.92 4.84-1.92 4.01 0 6.18 2.75 6.18 6.9 0 4.67-3.16 7.35-6.72 7.35-1.42 0-3.05-.65-4.38-1.72zm8.4-5.57c0-3-1.14-5.02-4.07-5.02-1.31 0-2.68.65-4.16 1.88v7.12c1.37 1.05 2.76 1.42 3.79 1.42 2.56 0 4.44-2.02 4.44-5.4z"/><path id="O" d="M874.56 269.83v-8.6h2.59v8.32c0 2.52.85 3.6 2.9 3.6 1.59 0 2.71-.67 4.19-2.3v-9.62h2.59v13.57h-2.16l-.2-2.12h-.09c-1.45 1.47-2.99 2.45-5.12 2.45-3.25 0-4.7-1.85-4.7-5.3z"/><path id="P" d="m891.62 280.37.51-1.82c.31.1.77.22 1.17.22 1.77 0 2.88-1.25 3.5-2.92l.34-1.02-6.21-13.6h2.71l3.16 7.55 1.48 3.8h.14l1.31-3.8 2.76-7.55h2.53l-5.84 14.7c-1.05 2.67-2.68 4.72-5.75 4.72-.74 0-1.34-.1-1.82-.28z"/><path id="Q" d="M1030.09 293.22H696.33V217.1l15-15h333.76v76.12l-15 15z"/><path id="R" d="M717.93 405.87h7.18c5.61 0 9.37 1.68 9.37 6.48s-3.73 6.81-9.23 6.81h-4.14v8.73h-3.18v-22.02Zm6.9 11.04c4.41 0 6.49-1.41 6.49-4.56s-2.22-4.2-6.63-4.2h-3.59v8.76h3.73Z"/><path id="S" d="M762.43 416.91c0-7.11 4.75-11.43 11.11-11.43 3.04 0 5.43 1.32 6.87 2.73l-1.71 1.8c-1.3-1.23-2.97-2.1-5.13-2.1-4.75 0-7.9 3.42-7.9 8.91s3.01 9.03 7.79 9.03c2.39 0 4.2-.93 5.81-2.46l1.74 1.74c-1.98 2.01-4.44 3.15-7.69 3.15-6.22 0-10.9-4.23-10.9-11.37Z"/><path id="T" d="M801.25 405.87h3.52l8.51 22.02h-3.35l-2.39-6.72h-9.16l-2.43 6.72h-3.21l8.51-22.02zm-2.08 13.08h7.59l-1.2-3.36-2.53-7.44h-.14l-2.5 7.44-1.23 3.36z"/><path id="U" d="M816.56 419.76c0-5.28 3.79-8.58 8.03-8.58 2.19 0 3.59.72 5.23 1.92l-.14-2.82v-6.27h3.08v23.88h-2.53l-.27-1.92h-.1c-1.47 1.26-3.42 2.31-5.64 2.31-4.65 0-7.66-3.09-7.66-8.52zm13.12 3.99v-8.55c-1.61-1.23-3.01-1.71-4.55-1.71-3.01 0-5.37 2.52-5.37 6.24 0 3.93 1.85 6.27 5.13 6.27 1.71 0 3.21-.75 4.79-2.25z"/><path id="V" d="m838.37 426.03 1.54-1.8c1.61 1.14 3.28 1.92 5.5 1.92 2.46 0 3.66-1.14 3.66-2.55 0-1.68-2.19-2.4-4.24-3.09-2.6-.84-5.43-1.95-5.43-4.71 0-2.58 2.39-4.62 6.43-4.62 2.29 0 4.31.84 5.74 1.83l-1.5 1.77c-1.26-.84-2.56-1.44-4.2-1.44-2.36 0-3.45 1.08-3.45 2.34 0 1.56 1.91 2.13 4 2.82 2.7.9 5.67 1.86 5.67 4.95 0 2.64-2.39 4.83-6.77 4.83-2.63 0-5.16-.96-6.94-2.25z"/><path id="W" d="M903.41 449.58h-254v-48.37l15-15h254v48.37l-15 15z"/><path id="X" d="M50.97 255.6h18.02c0-86.11 69.81-155.92 155.92-155.92"/><path id="Y" d="M224.77 429.41c-95.99 0-173.81-77.82-173.81-173.81S128.78 81.8 224.77 81.8"/><path id="Z" d="M224.77 81.8c95.99 0 173.81 77.82 173.81 173.81s-77.82 173.81-173.81 173.81"/><path id="a" d="M380.31 330.81c23.69-49.46 21.9-104.54-.13-150.41"/><path id="b" d="M223.9 36.41c121.06 0 219.19 98.14 219.19 219.19S344.95 474.79 223.9 474.79"/><path id="c" d="M104.08 235.51h7.48l10.23 31.86h-6.67l-2.24-8.17h-10.32l-2.24 8.17h-6.45l10.19-31.86Zm-.13 18.75h7.57l-.95-3.48c-.99-3.31-1.85-6.97-2.75-10.41h-.21c-.82 3.48-1.76 7.1-2.71 10.41l-.95 3.48Z"/><path id="d" d="M125.36 255.33c0-7.83 4.9-12.64 10.11-12.64 2.71 0 4.39 1.03 6.11 2.62l-.21-3.78v-8.47h6.28v34.31h-5.12l-.47-2.49h-.17c-1.76 1.72-4.17 3.1-6.66 3.1-5.98 0-9.85-4.73-9.85-12.64zm16 4.95V249.7c-1.46-1.33-3.01-1.81-4.51-1.81-2.71 0-4.99 2.58-4.99 7.4s1.81 7.48 4.99 7.48c1.68 0 3.1-.69 4.51-2.49z"/><path id="e" d="M153.36 243.29h6.36l3.53 12 1.93 7.31h.21l1.94-7.31 3.53-12h6.06l-8.04 24.08h-7.31l-8.21-24.08z"/><path id="f" d="M181.13 255.33c0-7.78 5.5-12.64 11.22-12.64 6.62 0 10.06 4.86 10.06 11.48 0 1.2-.13 2.37-.3 2.92h-14.83c.52 3.96 3.1 6.02 6.67 6.02 1.98 0 3.7-.6 5.42-1.68l2.15 3.87c-2.37 1.63-5.42 2.67-8.38 2.67-6.75 0-12-4.69-12-12.64Zm15.87-2.45c0-3.22-1.46-5.29-4.56-5.29-2.54 0-4.77 1.81-5.25 5.29h9.8Z"/><path id="g" d="M209.34 243.29h5.16l.47 4.26h.13c1.76-3.14 4.34-4.86 6.84-4.86 1.33 0 2.11.21 2.84.52l-1.08 5.46a8 8 0 0 0-2.54-.39c-1.89 0-4.17 1.25-5.5 4.73v14.36h-6.32v-24.08z"/><path id="h" d="M230.71 258.95v-10.66h-3.4v-4.69l3.74-.3.73-6.49h5.25v6.49h5.93v4.99h-5.93v10.66c0 2.75 1.12 4.04 3.27 4.04.77 0 1.72-.26 2.37-.52l1.03 4.6c-1.29.43-2.97.9-5.07.9-5.72 0-7.91-3.65-7.91-9.03z"/><path id="i" d="M249.07 235.94c0-2.06 1.5-3.44 3.7-3.44s3.65 1.38 3.65 3.44-1.5 3.48-3.65 3.48-3.7-1.38-3.7-3.48Zm.52 7.35h6.32v24.08h-6.32v-24.08Z"/><path id="j" d="m262.1 264.58 2.88-3.96c2.15 1.68 4.21 2.62 6.45 2.62 2.41 0 3.48-1.03 3.48-2.54 0-1.81-2.49-2.62-5.03-3.61-3.05-1.16-6.45-3.01-6.45-7.05 0-4.3 3.48-7.35 8.99-7.35 3.48 0 6.19 1.46 8.17 2.97l-2.84 3.83c-1.72-1.25-3.4-2.06-5.16-2.06-2.19 0-3.22.95-3.22 2.32 0 1.76 2.24 2.41 4.77 3.35 3.18 1.2 6.71 2.79 6.71 7.27 0 4.21-3.31 7.61-9.59 7.61-3.22 0-6.75-1.42-9.16-3.4z"/><path id="k" d="M302.18 243.29h5.16l.47 3.18h.13c2.11-2.06 4.56-3.78 7.83-3.78 5.2 0 7.44 3.61 7.44 9.67v15.01h-6.32v-14.23c0-3.74-1.03-5.03-3.4-5.03-1.98 0-3.23.95-4.99 2.71v16.55h-6.32v-24.08z"/><path id="l" d="M329.87 271.63c0-2.02 1.25-3.74 3.44-4.99v-.21c-1.25-.82-2.19-2.06-2.19-4.04 0-1.81 1.25-3.48 2.71-4.51v-.17a7.87 7.87 0 0 1-3.22-6.32c0-5.63 4.6-8.69 9.72-8.69a11.45 11.45 0 0 1 3.61.6h8.69v4.64h-4.08c.6.82 1.08 2.15 1.08 3.66 0 5.42-4.13 8.17-9.29 8.17-.95 0-2.06-.21-3.1-.56-.65.56-1.03 1.08-1.03 2.06 0 1.29.95 1.98 3.78 1.98h4.08c5.8 0 8.99 1.81 8.99 6.02 0 4.86-5.07 8.56-13.11 8.56-5.68 0-10.06-1.94-10.06-6.19zm17.11-1.29c0-1.72-1.42-2.15-4-2.15h-2.92c-1.46 0-2.49-.13-3.35-.34-1.08.86-1.55 1.81-1.55 2.79 0 2.02 2.24 3.18 5.72 3.18s6.11-1.59 6.11-3.48zm-2.88-18.96c0-2.79-1.63-4.39-3.78-4.39s-3.78 1.59-3.78 4.39 1.68 4.47 3.78 4.47 3.78-1.59 3.78-4.47z"/></defs><g class="M S"><path d="M503.32 423.74h147.7" class="N U"/><path d="M503.32 423.74h147.7" class="O P"/></g><g class="M S"><path d="m405.55 380.45 97.77 43.29" class="N U"/><path d="m405.55 380.45 97.77 43.29" class="O P"/></g><g class="M S"><path d="M445.61 247.66h250.73" class="N U"/><path d="M445.61 247.66h250.73" class="O P"/></g><g class="M S"><path d="m394.39 117.83 109.26-46.56" class="N U"/><path d="m394.39 117.83 109.26-46.56" class="O P"/></g><g class="M S"><path d="M503.32 71.28h147.7" class="N U"/><path d="M503.32 71.28h147.7" class="O P"/></g><path fill="#fff" d="m756.02 72.83 1.87-1.89c1.74 1.65 4.22 2.73 6.76 2.73 3.21 0 5.15-1.44 5.15-3.6s-1.77-2.97-4.08-3.9l-3.55-1.38c-2.28-.87-4.99-2.43-4.99-5.64 0-3.39 3.28-5.85 7.73-5.85 2.91 0 5.49 1.11 7.23 2.73l-1.64 1.77c-1.5-1.26-3.31-2.07-5.59-2.07-2.78 0-4.58 1.26-4.58 3.24 0 2.13 2.14 2.94 4.05 3.66l3.51 1.35c2.84 1.11 5.05 2.61 5.05 5.88 0 3.48-3.21 6.24-8.33 6.24-3.48 0-6.46-1.26-8.6-3.27zm23.1-19.14h14.15v2.37h-11.04v6.9h9.3v2.37h-9.3v8.01h11.41v2.37h-14.52V53.69zm19.61 10.95c0-7.05 4.32-11.34 10.47-11.34s10.47 4.29 10.47 11.34-4.32 11.46-10.47 11.46-10.47-4.41-10.47-11.46zm17.77 0c0-5.52-2.91-8.91-7.29-8.91s-7.29 3.39-7.29 8.91 2.88 9.03 7.29 9.03 7.29-3.54 7.29-9.03z"/><g class="M S"><use xlink:href="#C" class="N U"/><use xlink:href="#C" class="O P"/></g><use xlink:href="#D"/><use xlink:href="#E"/><use xlink:href="#F"/><use xlink:href="#G"/><use xlink:href="#H"/><use xlink:href="#I"/><use xlink:href="#J"/><use xlink:href="#H" x="52.77"/><use xlink:href="#K"/><use xlink:href="#K" x="18.54"/><use xlink:href="#G" x="116.03"/><use xlink:href="#K" x="46.06"/><use xlink:href="#L"/><use xlink:href="#M"/><use xlink:href="#K" x="-91.32" y="33"/><use xlink:href="#F" x="24.96" y="33"/><use xlink:href="#N"/><use xlink:href="#O"/><use xlink:href="#P"/><use xlink:href="#G" x="85.63" y="33"/><use xlink:href="#K" x="15.65" y="33"/><use xlink:href="#L" x="-30.4" y="33"/><g fill="#fff"><use xlink:href="#D"/><use xlink:href="#E"/><use xlink:href="#F"/><use xlink:href="#G"/><use xlink:href="#H"/><use xlink:href="#I"/><use xlink:href="#J"/><use xlink:href="#H" x="52.77"/><use xlink:href="#K"/><use xlink:href="#K" x="18.54"/><use xlink:href="#G" x="116.03"/><use xlink:href="#K" x="46.06"/><use xlink:href="#L"/><use xlink:href="#M"/><use xlink:href="#K" x="-91.32" y="33"/><use xlink:href="#F" x="24.96" y="33"/><use xlink:href="#N"/><use xlink:href="#O"/><use xlink:href="#P"/><use xlink:href="#G" x="85.63" y="33"/><use xlink:href="#K" x="15.65" y="33"/><use xlink:href="#L" x="-30.4" y="33"/></g><g class="M S"><use xlink:href="#Q" class="N U"/><use xlink:href="#Q" class="O P"/></g><use xlink:href="#R"/><use xlink:href="#R" x="22.97"/><use xlink:href="#S"/><use xlink:href="#T"/><use xlink:href="#U"/><use xlink:href="#V"/><g fill="#fff"><use xlink:href="#R"/><use xlink:href="#R" x="22.97"/><use xlink:href="#S"/><use xlink:href="#T"/><use xlink:href="#U"/><use xlink:href="#V"/></g><g class="M S"><use xlink:href="#W" class="N U"/><use xlink:href="#W" class="O P"/></g><use xlink:href="#A" transform="rotate(180 128.22 238.27)"/><g class="M Q R"><path d="M224.91 444.11v-16.49" class="N P"/><path d="M224.91 444.11v-16.49" class="O"/></g><use xlink:href="#A" transform="rotate(-174 129.058 233.229)"/><g class="M Q R"><path d="m205.06 443.12 1.72-16.4" class="N P"/><path d="m205.06 443.12 1.72-16.4" class="O"/></g><use xlink:href="#A" transform="rotate(-168 129.903 228.164)"/><g class="M Q R"><path d="m185.43 440.07 3.43-16.13" class="N P"/><path d="m185.43 440.07 3.43-16.13" class="O"/></g><use xlink:href="#A" transform="rotate(-162 130.756 223.035)"/><g class="M Q R"><path d="m166.22 434.98 5.09-15.69" class="N P"/><path d="m166.22 434.98 5.09-15.69" class="O"/></g><use xlink:href="#A" transform="rotate(-156 131.624 217.828)"/><g class="M Q R"><path d="m147.65 427.9 6.71-15.06" class="N P"/><path d="m147.65 427.9 6.71-15.06" class="O"/></g><use xlink:href="#A" transform="rotate(-150 132.506 212.498)"/><g class="M Q R"><path d="m129.92 418.93 8.25-14.28" class="N P"/><path d="m129.92 418.93 8.25-14.28" class="O"/></g><use xlink:href="#A" transform="rotate(-144 133.421 207.017)"/><g class="M Q R"><path d="m113.23 408.15 9.69-13.34" class="N P"/><path d="m113.23 408.15 9.69-13.34" class="O"/></g><use xlink:href="#A" transform="rotate(-138 134.36 201.352)"/><g class="M Q R"><path d="m97.75 395.69 11.03-12.26" class="N P"/><path d="m97.75 395.69 11.03-12.26" class="O"/></g><use xlink:href="#A" transform="rotate(-132 135.344 195.449)"/><g class="M Q R"><path d="m83.66 381.67 12.26-11.03" class="N P"/><path d="m83.66 381.67 12.26-11.03" class="O"/></g><use xlink:href="#A" transform="rotate(-126 136.372 189.266)"/><g class="M Q R"><path d="m71.11 366.27 13.35-9.7" class="N P"/><path d="m71.11 366.27 13.35-9.7" class="O"/></g><use xlink:href="#A" transform="rotate(-120 137.458 182.739)"/><g class="M Q R"><path d="m60.25 349.63 14.28-8.25" class="N P"/><path d="m60.25 349.63 14.28-8.25" class="O"/></g><use xlink:href="#A" transform="rotate(-114 138.613 175.812)"/><g class="M Q R"><path d="m51.18 331.95 15.07-6.71" class="N P"/><path d="m51.18 331.95 15.07-6.71" class="O"/></g><use xlink:href="#A" transform="rotate(-108 139.846 168.392)"/><g class="M Q R"><path d="m44.01 313.42 15.68-5.1" class="N P"/><path d="m44.01 313.42 15.68-5.1" class="O"/></g><use xlink:href="#A" transform="rotate(-102 141.176 160.383)"/><g class="M Q R"><path d="m38.81 294.24 16.14-3.43" class="N P"/><path d="m38.81 294.24 16.14-3.43" class="O"/></g><use xlink:href="#A" transform="rotate(-96 142.63 151.669)"/><g class="M Q R"><path d="m35.65 274.62 16.41-1.73" class="N P"/><path d="m35.65 274.62 16.41-1.73" class="O"/></g><use xlink:href="#A" transform="rotate(-90 144.22 142.09)"/><g class="M Q R"><path d="M34.56 254.78h16.49" class="N P"/><path d="M34.56 254.78h16.49" class="O"/></g><use xlink:href="#A" transform="rotate(-84 145.99 131.45)"/><g class="M Q R"><path d="m35.55 234.93 16.4 1.72" class="N P"/><path d="m35.55 234.93 16.4 1.72" class="O"/></g><use xlink:href="#A" transform="rotate(-78 147.982 119.496)"/><g class="M Q R"><path d="m38.6 215.29 16.14 3.43" class="N P"/><path d="m38.6 215.29 16.14 3.43" class="O"/></g><use xlink:href="#A" transform="rotate(-72 150.246 105.89)"/><g class="M Q R"><path d="m43.7 196.09 15.68 5.09" class="N P"/><path d="m43.7 196.09 15.68 5.09" class="O"/></g><use xlink:href="#A" transform="rotate(-66 152.865 90.164)"/><g class="M Q R"><path d="m50.77 177.52 15.06 6.7" class="N P"/><path d="m50.77 177.52 15.06 6.7" class="O"/></g><use xlink:href="#A" transform="rotate(-60 155.931 71.679)"/><g class="M Q R"><path d="m59.74 159.79 14.28 8.24" class="N P"/><path d="m59.74 159.79 14.28 8.24" class="O"/></g><use xlink:href="#A" transform="rotate(-54 159.62 49.501)"/><g class="M Q R"><path d="m70.52 143.09 13.34 9.7" class="N P"/><path d="m70.52 143.09 13.34 9.7" class="O"/></g><use xlink:href="#A" transform="rotate(-48 164.152 22.247)"/><g class="M Q R"><path d="m82.98 127.62 12.26 11.03" class="N P"/><path d="m82.98 127.62 12.26 11.03" class="O"/></g><use xlink:href="#A" transform="rotate(-42 169.9 -12.285)"/><g class="M Q R"><path d="m97 113.53 11.03 12.26" class="N P"/><path d="m97 113.53 11.03 12.26" class="O"/></g><use xlink:href="#A" transform="rotate(-36 177.458 -57.74)"/><g class="M Q R"><path d="m112.41 100.98 9.69 13.35" class="N P"/><path d="m112.41 100.98 9.69 13.35" class="O"/></g><use xlink:href="#A" transform="rotate(-30 187.937 -120.682)"/><g class="M Q R"><path d="m129.04 90.12 8.25 14.28" class="N P"/><path d="m129.04 90.12 8.25 14.28" class="O"/></g><use xlink:href="#A" transform="rotate(-24 203.501 -214.233)"/><g class="M Q R"><path d="m146.73 81.05 6.7 15.06" class="N P"/><path d="m146.73 81.05 6.7 15.06" class="O"/></g><use xlink:href="#A" transform="rotate(-18 229.24 -368.978)"/><g class="M Q R"><path d="m165.26 73.88 5.09 15.68" class="N P"/><path d="m165.26 73.88 5.09 15.68" class="O"/></g><use xlink:href="#A" transform="rotate(-12 280.456 -676.832)"/><g class="M Q R"><path d="m184.44 68.68 3.43 16.13" class="N P"/><path d="m184.44 68.68 3.43 16.13" class="O"/></g><use xlink:href="#A" transform="rotate(-6 433.55 -1596.94)"/><g class="M Q R"><path d="m204.06 65.52 1.72 16.4" class="N P"/><path d="m204.06 65.52 1.72 16.4" class="O"/></g><use xlink:href="#A" x="192.36" y="32"/><g class="M Q R"><path d="M223.9 64.43v16.49" class="N P"/><path d="M223.9 64.43v16.49" class="O"/></g><g class="M Q"><use xlink:href="#X" class="N P R"/><use xlink:href="#X" class="O"/></g><g class="M S"><use xlink:href="#Y" stroke-width="9" class="N"/><use xlink:href="#Y" class="O U"/></g><g class="M S"><use xlink:href="#Z" class="N P"/><use xlink:href="#Z" class="O T"/></g><use xlink:href="#B" transform="rotate(36 -228.448 728.242)"/><g class="M"><path d="m389.88 320.15 8.12 2.46" class="N Q R T"/><path d="m389.88 320.15 8.12 2.46" class="O S"/></g><use xlink:href="#B" transform="rotate(32 -261.015 801.654)"/><g class="M"><path d="m393.86 306.43 8.28 1.89" class="N Q R T"/><path d="m393.86 306.43 8.28 1.89" class="O S"/></g><use xlink:href="#B" transform="rotate(28 -302.637 895.42)"/><g class="M"><path d="m396.88 292.47 8.38 1.3" class="N Q R T"/><path d="m396.88 292.47 8.38 1.3" class="O S"/></g><use xlink:href="#B" transform="rotate(24 -357.791 1019.757)"/><g class="M"><path d="m398.91 278.33 8.46.71" class="N Q R T"/><path d="m398.91 278.33 8.46.71" class="O S"/></g><use xlink:href="#B" transform="rotate(20 -434.644 1192.948)"/><g class="M"><path d="m399.95 264.08 8.49.12" class="N Q R T"/><path d="m399.95 264.08 8.49.12" class="O S"/></g><use xlink:href="#B" transform="rotate(16 -549.432 1451.706)"/><g class="M"><path d="m400 249.79 8.47-.47" class="N Q R T"/><path d="m400 249.79 8.47-.47" class="O S"/></g><use xlink:href="#B" transform="rotate(12 -740.191 1881.54)"/><g class="M"><path d="m399.05 235.53 8.42-1.06" class="N Q R T"/><path d="m399.05 235.53 8.42-1.06" class="O S"/></g><use xlink:href="#B" transform="rotate(8 -1120.71 2739.157)"/><g class="M"><path d="m397.11 221.38 8.32-1.65" class="N Q R T"/><path d="m397.11 221.38 8.32-1.65" class="O S"/></g><use xlink:href="#B" transform="rotate(4 -2260.308 5307.875)"/><g class="M"><path d="m394.18 207.39 8.19-2.22" class="N Q R T"/><path d="m394.18 207.39 8.19-2.22" class="O S"/></g><use xlink:href="#B" x="358.36" y="159"/><g class="M"><path d="m390.29 193.65 8.01-2.79" class="N Q R T"/><path d="m390.29 193.65 8.01-2.79" class="O S"/></g><g class="M S"><use xlink:href="#a" stroke-width="9" class="N"/><use xlink:href="#a" class="O U"/></g><g class="M S"><use xlink:href="#b" class="N P"/><use xlink:href="#b" class="O T"/></g><use xlink:href="#c"/><use xlink:href="#d"/><use xlink:href="#e"/><use xlink:href="#f"/><use xlink:href="#g"/><use xlink:href="#h"/><use xlink:href="#i"/><use xlink:href="#j"/><use xlink:href="#i" x="37.8"/><use xlink:href="#k"/><use xlink:href="#l"/><g fill="#fff"><use xlink:href="#c"/><use xlink:href="#d"/><use xlink:href="#e"/><use xlink:href="#f"/><use xlink:href="#g"/><use xlink:href="#h"/><use xlink:href="#i"/><use xlink:href="#j"/><use xlink:href="#i" x="37.8"/><use xlink:href="#k"/><use xlink:href="#l"/></g></svg>