<svg xmlns="http://www.w3.org/2000/svg" xmlns:xlink="http://www.w3.org/1999/xlink" viewBox="0 0 1169 447"><style>.N{fill:none}.O{stroke:#0ff}.P{stroke:#fff}.Q{stroke-miterlimit:10}.R{stroke-width:6}.S{stroke-width:3}.T{fill:#fff}.U{stroke-linecap:round}.V{stroke-linejoin:round}.W{stroke-width:13}.X{stroke-width:8}</style><defs><path id="B" d="M475.06 210.67h11.58c7.18 0 12.67 2.13 12.67 8.65 0 3.21-1.8 6.52-4.77 7.56v.24c3.78.9 6.57 3.54 6.57 8.27 0 7.04-5.86 10.3-13.56 10.3h-12.48v-35.02zm11.06 14.27c4.44 0 6.38-1.8 6.38-4.58 0-3.07-2.08-4.3-6.29-4.3h-4.16v8.88h4.06zm.8 15.36c4.77 0 7.37-1.7 7.37-5.34 0-3.4-2.55-4.87-7.37-4.87h-4.87v10.21h4.87z"/><path id="C" d="M514.42 210.67h8.22l11.25 35.02h-7.33l-2.46-8.98h-11.34l-2.46 8.98h-7.09l11.2-35.02Zm-.14 20.6h8.32l-1.04-3.83c-1.09-3.64-2.03-7.66-3.02-11.44h-.24c-.9 3.83-1.94 7.8-2.98 11.44l-1.04 3.83Z"/><path id="D" d="M536.73 228.34c0-11.53 7.42-18.29 16.26-18.29 4.44 0 7.99 2.13 10.25 4.49l-3.64 4.44c-1.8-1.7-3.83-2.93-6.47-2.93-5.29 0-9.26 4.54-9.26 12.05s3.59 12.19 9.12 12.19c3.02 0 5.34-1.42 7.23-3.45l3.69 4.35c-2.88 3.36-6.62 5.15-11.15 5.15-8.84 0-16.02-6.33-16.02-18Z"/><path id="E" d="M569.99 210.67h6.99v15.22h.14l11.58-15.22h7.7l-10.68 13.8 12.57 21.22h-7.66l-9.07-15.74-4.58 5.91v9.83h-6.99v-35.02Z"/><path id="F" d="M602.88 210.67h21.45v5.86h-14.46v8.08h12.29v5.86h-12.29v9.36h14.98v5.86h-21.97v-35.02Z"/><path id="G" d="M632.42 210.67h7.14l10.16 18.67 3.5 7.56h.24c-.33-3.64-.9-8.27-.9-12.24v-13.99h6.62v35.02h-7.09l-10.11-18.71-3.54-7.51h-.24c.33 3.78.85 8.18.85 12.19v14.04h-6.62v-35.02z"/><path id="H" d="M668.28 210.67h9.59c10.68 0 17.3 5.58 17.3 17.39s-6.62 17.63-16.92 17.63h-9.97v-35.02Zm9.17 29.39c6.52 0 10.59-3.5 10.59-12s-4.06-11.77-10.59-11.77h-2.17v23.77h2.17Z"/><path id="I" d="M449.87 351.55c-30.34-32.73-48.89-76.55-48.89-124.7 0-55.8 24.91-105.79 64.22-139.44"/><path id="J" d="M622.04 406.49a184.51 184.51 0 0 1-37.57 3.85c-33.07 0-64.1-8.75-90.9-24.06"/><path id="K" d="M738.84 127.64c18.42 28.6 29.11 62.66 29.11 99.21 0 44.23-15.65 84.81-41.71 116.49"/><path id="L" d="M536.75 49.63c15.22-4.09 31.21-6.27 47.72-6.27 38 0 73.3 11.55 102.59 31.34"/><path id="M" d="M304.1 102.73H46.05v-49.4l15-15H319.1v49.41l-15 15z"/><path id="N" d="M287.99 251.17h-254V202.8l15-15h254v48.37l-15 15z"/><path id="O" d="M304.1 401.52h-254v-48.37l15-15h254v48.37l-15 15Z"/><path id="P" d="M1104.18 97.09h-254V48.72l15-15h254v48.37l-15 15z"/><path id="Q" d="M953.35 71.36v-9.03h-2.71v-2.07l2.84-.15.37-4.59h2.54v4.59h4.92v2.22h-4.92v9.09c0 2.01.7 3.15 2.81 3.15.64 0 1.47-.21 2.08-.42l.6 2.04c-1.04.3-2.24.6-3.35.6-3.88 0-5.19-2.19-5.19-5.43z"/><path id="R" d="M964.4 79.52c0-1.38.97-2.7 2.68-3.69v-.12c-.97-.51-1.67-1.38-1.67-2.67s1.1-2.43 2.04-3.03v-.12c-1.21-.87-2.38-2.43-2.38-4.38 0-3.57 3.15-5.82 6.83-5.82 1 0 1.91.21 2.54.42h6.32v2.1h-3.71c.87.75 1.47 1.95 1.47 3.36 0 3.48-2.95 5.67-6.63 5.67-.9 0-1.91-.21-2.71-.57-.67.51-1.17 1.05-1.17 1.95 0 1.05.74 1.77 3.18 1.77h3.55c4.22 0 6.36 1.2 6.36 3.87 0 3.03-3.58 5.64-9.2 5.64-4.45 0-7.5-1.56-7.5-4.38zm13.72-.84c0-1.5-1.3-2.01-3.71-2.01h-3.15a11.29 11.29 0 0 1-2.34-.27c-1.3.84-1.84 1.8-1.84 2.76 0 1.74 1.97 2.88 5.25 2.88 3.48 0 5.79-1.65 5.79-3.36zm-2.34-13.17c0-2.37-1.74-3.81-3.88-3.81s-3.88 1.41-3.88 3.81 1.77 3.87 3.88 3.87 3.88-1.5 3.88-3.87z"/><path id="S" d="M1045.29 76.7c-5.35-.66-8.97-4.92-8.97-11.37 0-7.05 4.32-11.34 10.47-11.34s10.47 4.29 10.47 11.34c0 6.33-3.48 10.53-8.67 11.34 1.1 1.95 3.38 2.94 6.02 2.94 1.1 0 1.94-.15 2.58-.33l.6 2.16c-.74.24-2.04.48-3.51.48-4.52 0-7.63-2.19-9-5.22zm8.8-11.37c0-5.52-2.91-8.91-7.29-8.91s-7.29 3.39-7.29 8.91 2.88 9.18 7.29 9.18 7.29-3.57 7.29-9.18z"/><path id="T" d="M1120.29 242.75h-254v-48.37l15-15h254v48.37l-15 15z"/><path id="U" d="M926.76 200.43h3.75l4.72 11.79 1.74 4.59h.17l1.67-4.59 4.68-11.79h3.75v22.02h-2.91v-12.18c0-1.89.23-4.56.4-6.48h-.13l-1.94 5.01-4.65 11.43h-2.08l-4.65-11.43-1.94-5.01h-.13l.37 6.48v12.18h-2.81v-22.02z"/><path id="V" d="M952.63 214.32c0-5.43 3.98-8.58 8.43-8.58s8.43 3.15 8.43 8.58-3.98 8.52-8.43 8.52-8.43-3.12-8.43-8.52Zm13.72 0c0-3.75-2.14-6.3-5.29-6.3s-5.25 2.55-5.25 6.3 2.11 6.24 5.25 6.24 5.29-2.49 5.29-6.24Z"/><path id="W" d="M952.58 373.43h-.13l-.27 1.68h-2.44v-23.88h3.05v6.54l-.1 2.94c1.64-1.29 3.68-2.31 5.69-2.31 4.72 0 7.26 3.3 7.26 8.28 0 5.61-3.71 8.82-7.9 8.82-1.67 0-3.58-.78-5.15-2.07zm9.87-6.69c0-3.6-1.34-6.03-4.79-6.03-1.54 0-3.15.78-4.88 2.25v8.55c1.61 1.26 3.25 1.71 4.45 1.71 3.01 0 5.22-2.43 5.22-6.48z"/></defs><g class="N Q"><path d="M762.47 367.02h87.71" class="O R"/><path d="M762.47 367.02h87.71" class="P S"/></g><g class="N Q"><path d="m734.31 336.09 28.16 30.93" class="O R"/><path d="m734.31 336.09 28.16 30.93" class="P S"/></g><g class="N Q"><path d="M773.03 216.47h93.26" class="O R"/><path d="M773.03 216.47h93.26" class="P S"/></g><g class="N U V"><path d="M319.65 67.24h94.56l36.85 25.51" class="O R"/><path d="M319.65 67.24h94.56l36.85 25.51" class="P S"/></g><g class="N Q"><path d="M406.8 366.64h-87.7" class="O R"/><path d="M406.8 366.64h-87.7" class="P S"/></g><g class="N Q"><path d="m434.97 335.71-28.17 30.93" class="O R"/><path d="m434.97 335.71-28.17 30.93" class="P S"/></g><g class="N Q"><path d="M396.25 216.09h-93.26" class="O R"/><path d="M396.25 216.09h-93.26" class="P S"/></g><g class="N U V"><path d="M846.97 68.96h-94.56 0l-36.85 25.51" class="O R"/><path d="M846.97 68.96h-94.56 0l-36.85 25.51" class="P S"/></g><use xlink:href="#B"/><use xlink:href="#C"/><use xlink:href="#D"/><use xlink:href="#E"/><use xlink:href="#F"/><use xlink:href="#G"/><use xlink:href="#H"/><g class="T"><use xlink:href="#B"/><use xlink:href="#C"/><use xlink:href="#D"/><use xlink:href="#E"/><use xlink:href="#F"/><use xlink:href="#G"/><use xlink:href="#H"/></g><g class="N"><circle cx="584.4" cy="227.28" r="161.87" stroke-width="2" class="O"/><circle cx="584.4" cy="227.28" r="161.87" class="P"/></g><g class="N"><circle cx="584.77" cy="227.25" r="183.49" stroke-width="4" class="O"/><circle cx="584.77" cy="227.25" r="183.49" class="P"/></g><g class="N U V"><use xlink:href="#I" class="O W"/><use xlink:href="#I" class="P X"/></g><g class="N U V"><use xlink:href="#J" class="O W"/><use xlink:href="#J" class="P X"/></g><g class="N U V"><use xlink:href="#K" class="O W"/><use xlink:href="#K" class="P X"/></g><g class="N U V"><use xlink:href="#L" class="O W"/><use xlink:href="#L" class="P X"/></g><g opacity=".2"><path fill="#0ff" d="M589.25 85.41h-10.03v-8.78h10.03V85.41zm-30.904-6.595 9.932-1.396 1.223 8.704-9.932 1.396zm-20.37 5.08 9.641-2.765 2.423 8.449-9.641 2.765zm-19.466 7.856 9.163-4.08 3.575 8.03-9.163 4.08zm-18.18 10.483 8.506-5.315 4.658 7.454-8.506 5.315zm-16.547 12.93 7.683-6.447 5.65 6.734-7.683 6.447zm-14.584 15.098 6.711-7.454 6.532 5.882-6.711 7.454zm-12.346 16.973 5.609-8.315 7.287 4.915-5.609 8.315zm-9.856 18.527 4.397-9.015 7.9 3.853-4.397 9.015zm-7.186 19.738 3.099-9.539 8.36 2.716-3.099 9.539zm-4.366 20.527 1.742-9.878 8.656 1.526-1.742 9.878zm-1.478 20.935.35-10.024 8.785.307-.35 10.024zm1.466 20.942-1.048-9.975 8.742-.919 1.048 9.975zm4.361 20.546-2.426-9.732 8.529-2.126 2.426 9.732zm7.169 19.715-3.757-9.3 8.15-3.293 3.757 9.3zm9.851 18.544-5.015-8.686 7.612-4.395 5.015 8.686zm12.329 16.982-6.175-7.904 6.927-5.412 6.175 7.904zm14.579 15.1-7.215-6.967 6.106-6.323 7.215 6.967zm16.546 12.935-8.114-5.895 5.167-7.111 8.114 5.895zm18.17 10.497-8.856-4.709 4.127-7.761 8.856 4.709zm19.475 7.868-9.425-3.43 3.006-8.26 9.425 3.43zm20.361 5.085-9.811-2.085 1.828-8.598 9.811 2.085zm20.871 2.199-10.006-.7.613-8.769 10.006.7zm20.986-.725-10.006.7-.613-8.769 10.006-.7zm20.676-3.636-9.811 2.085-1.828-8.598 9.811-2.085zm19.967-6.485-9.425 3.43-3.006-8.26 9.425-3.43zm18.865-9.192-8.856 4.709-4.127-7.761 8.856-4.709zm17.41-11.742-8.114 5.895-5.167-7.111 8.114-5.895zm15.598-14.036-7.215 6.967-6.106-6.323 7.215-6.967zm13.497-16.092-6.175 7.904-6.927-5.412 6.175-7.904zm11.131-17.791-5.015 8.686-7.612-4.395 5.015-8.686zm8.546-19.176-3.757 9.3-8.15-3.293 3.757-9.3zm5.79-20.181-2.426 9.732-8.529-2.126 2.426-9.732zm2.927-20.782-1.048 9.975-8.742-.919 1.048-9.975zm-.003-20.994.35 10.024-8.785.307-.35-10.024zm-2.906-20.78 1.742 9.878-8.656 1.526-1.742-9.878zm-5.785-20.192 3.099 9.539-8.36 2.716-3.099-9.539zm-12.034-6.311-4.4-9.01 3.89-1.9 4.01-1.95 4.4 9.01-7.9 3.85z"/><path stroke-width="2" d="M588.57 84.75c34.06.92 65.01 13.72 89 34.32" class="N O Q"/><path stroke-width="10" d="m679.67 116.86 5.11 4.59a146.527 146.527 0 0 1 28.51 36.99" class="N O Q"/></g><path d="M129.01 57.49h7.03c5.49 0 9.17 1.68 9.17 6.48s-3.65 6.81-9.04 6.81h-4.05v8.73h-3.11V57.49zm6.76 11.04c4.32 0 6.36-1.41 6.36-4.56s-2.18-4.2-6.49-4.2h-3.51v8.76h3.65zm12.62 17.67.6-2.19c.37.12.9.27 1.37.27 2.07 0 3.38-1.5 4.12-3.51l.4-1.23-7.29-16.32h3.18l3.71 9.06 1.74 4.56h.17l1.54-4.56 3.25-9.06h2.98l-6.86 17.64c-1.24 3.21-3.14 5.67-6.76 5.67-.87 0-1.57-.12-2.14-.33zm20.15-11.73v-9.03h-2.71v-2.07l2.85-.15.37-4.59h2.54v4.59h4.92v2.22h-4.92v9.09c0 2.01.7 3.15 2.81 3.15.64 0 1.47-.21 2.08-.42l.6 2.04c-1.04.3-2.24.6-3.35.6-3.88 0-5.19-2.19-5.19-5.43zm12.41-18.84H184v6.54l-.1 3.36c1.67-1.5 3.55-2.73 6.02-2.73 3.81 0 5.55 2.22 5.55 6.39v10.32h-3.04v-9.96c0-3.06-1.04-4.35-3.45-4.35-1.87 0-3.14.84-4.98 2.49v11.82h-3.05V55.63zm19.28 15.75c0-5.43 3.98-8.58 8.43-8.58s8.43 3.15 8.43 8.58-3.98 8.52-8.43 8.52-8.43-3.12-8.43-8.52zm13.72 0c0-3.75-2.14-6.3-5.29-6.3s-5.25 2.55-5.25 6.3 2.11 6.24 5.25 6.24 5.29-2.49 5.29-6.24zm8.27-8.16h2.51l.27 2.34h.1c1.74-1.53 3.61-2.76 6.09-2.76 3.81 0 5.55 2.22 5.55 6.39v10.32h-3.04v-9.96c0-3.06-1.04-4.35-3.45-4.35-1.87 0-3.14.84-4.98 2.49v11.82h-3.05V63.22z" class="T"/><g class="N Q"><use xlink:href="#M" class="O R"/><use xlink:href="#M" class="P S"/></g><g class="N Q"><use xlink:href="#N" class="O R"/><use xlink:href="#N" class="P S"/></g><path d="M149.04 218.35c0-7.11 4.75-11.43 11.24-11.43 3.41 0 5.66 1.38 7.06 2.73l-1.67 1.8c-1.24-1.17-2.81-2.1-5.32-2.1-4.92 0-8.13 3.42-8.13 8.91s2.91 9.03 8.2 9.03c1.74 0 3.45-.48 4.42-1.29v-5.76h-5.19v-2.31h8.03v9.24c-1.57 1.47-4.28 2.55-7.6 2.55-6.42 0-11.04-4.23-11.04-11.37zm23.16 2.85c0-5.43 3.98-8.58 8.43-8.58s8.43 3.15 8.43 8.58-3.98 8.52-8.43 8.52-8.43-3.12-8.43-8.52zm13.72 0c0-3.75-2.14-6.3-5.29-6.3s-5.25 2.55-5.25 6.3 2.11 6.24 5.25 6.24 5.29-2.49 5.29-6.24z" class="T"/><g class="N Q"><use xlink:href="#O" class="O R"/><use xlink:href="#O" class="P S"/></g><path d="M126.28 359.45h3.21l8.94 13.89 2.61 4.53h.17l-.4-6.96v-11.46h2.95v22.02h-3.18l-8.93-13.89-2.64-4.53h-.13l.37 6.87v11.55h-2.94v-22.02zm22.86 13.89c0-5.43 3.98-8.58 8.43-8.58s8.43 3.15 8.43 8.58-3.98 8.52-8.43 8.52-8.43-3.12-8.43-8.52zm13.72 0c0-3.75-2.14-6.3-5.29-6.3s-5.25 2.55-5.25 6.3 2.11 6.24 5.25 6.24 5.29-2.49 5.29-6.24zm6.96 0c0-5.28 3.71-8.58 7.86-8.58 2.14 0 3.51.72 5.12 1.92l-.13-2.82v-6.27h3.01v23.88h-2.48l-.27-1.92h-.1c-1.44 1.26-3.35 2.31-5.52 2.31-4.55 0-7.5-3.09-7.5-8.52zm12.85 3.99v-8.55c-1.57-1.23-2.94-1.71-4.45-1.71-2.95 0-5.25 2.52-5.25 6.24 0 3.93 1.81 6.27 5.02 6.27 1.67 0 3.14-.75 4.68-2.25zm8.17-3.99c0-5.28 3.98-8.58 8.2-8.58 4.62 0 7.23 3 7.23 7.65a10.49 10.49 0 0 1-.13 1.56h-12.25c.2 3.48 2.58 5.7 6.02 5.7 1.77 0 3.21-.48 4.55-1.29l1.1 1.8c-1.61.93-3.55 1.68-6.02 1.68-4.82 0-8.7-3.15-8.7-8.52zm12.75-1.35c0-3.27-1.67-5.04-4.52-5.04-2.58 0-4.85 1.86-5.22 5.04h9.74zm5.59 6.39 2.21-1.41c1.1 1.74 2.47 2.46 4.25 2.46 2.64 0 3.95-1.35 3.95-4.68v-15.3h3.08v15.57c0 3.78-1.94 6.84-6.72 6.84-3.11 0-5.32-1.2-6.76-3.48zm18.68.21 1.88-1.89c1.74 1.65 4.22 2.73 6.76 2.73 3.21 0 5.15-1.44 5.15-3.6s-1.77-2.97-4.08-3.9l-3.55-1.38c-2.28-.87-4.99-2.43-4.99-5.64 0-3.39 3.28-5.85 7.73-5.85 2.91 0 5.49 1.11 7.23 2.73l-1.64 1.77c-1.51-1.26-3.31-2.07-5.59-2.07-2.78 0-4.58 1.26-4.58 3.24 0 2.13 2.14 2.94 4.05 3.66l3.51 1.35c2.84 1.11 5.05 2.61 5.05 5.88 0 3.48-3.21 6.24-8.33 6.24-3.48 0-6.46-1.26-8.6-3.27z" class="T"/><g class="N Q"><use xlink:href="#P" class="O R"/><use xlink:href="#P" class="P S"/></g><g class="T"><path d="M894.99 54.38h7.03c5.49 0 9.17 1.68 9.17 6.48s-3.65 6.81-9.04 6.81h-4.05v8.73h-3.11V54.38zm6.76 11.04c4.32 0 6.36-1.41 6.36-4.56s-2.18-4.2-6.49-4.2h-3.51v8.76h3.65zm13.08 2.85c0-5.43 3.98-8.58 8.43-8.58s8.43 3.15 8.43 8.58-3.98 8.52-8.43 8.52-8.43-3.12-8.43-8.52zm13.72 0c0-3.75-2.14-6.3-5.29-6.3s-5.25 2.55-5.25 6.3 2.11 6.24 5.25 6.24 5.29-2.49 5.29-6.24zm6.23 6.27 1.51-1.8c1.57 1.14 3.21 1.92 5.39 1.92 2.41 0 3.58-1.14 3.58-2.55 0-1.68-2.14-2.4-4.15-3.09-2.54-.84-5.32-1.95-5.32-4.71 0-2.58 2.34-4.62 6.29-4.62 2.24 0 4.22.84 5.62 1.83l-1.47 1.77c-1.24-.84-2.51-1.44-4.12-1.44-2.31 0-3.38 1.08-3.38 2.34 0 1.56 1.87 2.13 3.92 2.82 2.64.9 5.55 1.86 5.55 4.95 0 2.64-2.34 4.83-6.63 4.83a11.72 11.72 0 0 1-6.79-2.25z"/><use xlink:href="#Q"/><use xlink:href="#R"/><path d="M984.95 60.11h2.51l.27 2.97h.1c1.27-2.07 3.11-3.39 5.15-3.39.8 0 1.37.09 1.94.36l-.57 2.4c-.6-.21-1.04-.27-1.77-.27-1.51 0-3.38.96-4.58 3.75V76.4h-3.05V60.11zm11.95 8.16c0-5.28 3.98-8.58 8.2-8.58 4.62 0 7.23 3 7.23 7.65a10.49 10.49 0 0 1-.13 1.56h-12.25c.2 3.48 2.58 5.7 6.02 5.7 1.77 0 3.21-.48 4.55-1.29l1.1 1.8c-1.61.93-3.55 1.68-6.02 1.68-4.82 0-8.7-3.15-8.7-8.52zm12.75-1.35c0-3.27-1.67-5.04-4.52-5.04-2.58 0-4.85 1.86-5.22 5.04h9.74zm5.99 6.6 1.87-1.89c1.74 1.65 4.22 2.73 6.76 2.73 3.21 0 5.15-1.44 5.15-3.6s-1.77-2.97-4.08-3.9l-3.55-1.38c-2.28-.87-4.99-2.43-4.99-5.64 0-3.39 3.28-5.85 7.73-5.85 2.91 0 5.49 1.11 7.23 2.73l-1.64 1.77c-1.5-1.26-3.31-2.07-5.59-2.07-2.78 0-4.58 1.26-4.58 3.24 0 2.13 2.14 2.94 4.05 3.66l3.51 1.35c2.84 1.11 5.05 2.61 5.05 5.88 0 3.48-3.21 6.24-8.33 6.24-3.48 0-6.46-1.26-8.6-3.27z"/><use xlink:href="#S"/><path d="M1062.89 54.38h3.11v19.65h10.71v2.37h-13.82V54.38z"/></g><use xlink:href="#A" x="833" y="146"/><g class="N Q"><use xlink:href="#T" class="O R"/><use xlink:href="#T" class="P S"/></g><g class="T"><use xlink:href="#U"/><use xlink:href="#V"/><path d="M974.62 206.16h2.51l.27 2.34h.1c1.74-1.53 3.61-2.76 6.09-2.76 3.81 0 5.55 2.22 5.55 6.39v10.32h-3.04v-9.96c0-3.06-1.04-4.35-3.45-4.35-1.87 0-3.15.84-4.99 2.49v11.82h-3.05v-16.29z"/><use xlink:href="#R" x="29.63" y="146.05"/><use xlink:href="#V" x="60.58"/><path d="M1035.46 200.43h6.16c7.53 0 11.58 3.96 11.58 10.95s-4.05 11.07-11.44 11.07h-6.29v-22.02zm5.89 19.74c5.79 0 8.63-3.24 8.63-8.79s-2.84-8.67-8.63-8.67h-2.78v17.46h2.78zm17.44-19.74h7.29c4.99 0 8.43 1.53 8.43 5.4 0 2.19-1.3 4.11-3.58 4.77v.15c2.91.51 4.99 2.25 4.99 5.25 0 4.32-3.82 6.45-9.3 6.45h-7.83v-22.02zm6.76 9.39c4.22 0 5.92-1.41 5.92-3.63 0-2.58-1.97-3.54-5.79-3.54h-3.78v7.17h3.65zm.64 10.41c4.22 0 6.69-1.35 6.69-4.32 0-2.73-2.41-3.99-6.69-3.99h-4.28v8.31h4.28z"/></g><use xlink:href="#A" x="817" y="299"/><g class="N Q"><use xlink:href="#T" x="-16.11" y="153.05" class="O R"/><use xlink:href="#T" x="-16.11" y="153.05" class="P S"/></g><g class="T"><path d="M909.18 353.09h7.7c4.99 0 8.57 1.62 8.57 6.21 0 3.42-2.21 5.46-5.55 6.18l6.29 9.63h-3.51l-5.96-9.33h-4.42v9.33h-3.11v-22.02zm7.23 10.44c3.85 0 5.96-1.38 5.96-4.23s-2.11-3.93-5.96-3.93h-4.12v8.16h4.12zm12.98 7.35c0-3.54 3.45-5.31 11.18-6.09 0-2.1-.77-4.11-3.75-4.11-2.11 0-4.01.87-5.45 1.74l-1.2-1.89c1.67-.96 4.25-2.13 7.16-2.13 4.42 0 6.29 2.67 6.29 6.69v10.02h-2.51l-.27-1.95h-.1c-1.74 1.29-3.78 2.34-6.02 2.34-3.05 0-5.32-1.68-5.32-4.62zm11.18.27v-4.56c-6.12.66-8.2 2.01-8.2 4.11 0 1.86 1.41 2.61 3.21 2.61s3.21-.75 4.99-2.16z"/><use xlink:href="#W"/><use xlink:href="#W" x="21.02"/><path d="M991.27 353.63c0-1.05.84-1.77 2.04-1.77s2.04.72 2.04 1.77c0 1.11-.84 1.83-2.04 1.83s-2.04-.72-2.04-1.83zm.5 5.19h3.05v16.29h-3.05v-16.29z"/><use xlink:href="#Q" x="48.5" y="298.71"/><use xlink:href="#U" x="87.77" y="152.66"/><use xlink:href="#S" x="4.32" y="298.71"/></g></svg>