<svg xmlns="http://www.w3.org/2000/svg" xmlns:xlink="http://www.w3.org/1999/xlink" viewBox="0 0 1046.36 503"><style>.M{fill:none}.N{stroke:#0ff}.O{stroke:#fff}.P{stroke-width:3}.Q{stroke-linejoin:round}.R{stroke-linecap:round}.S{stroke-miterlimit:10}.T{stroke-width:6}.U{stroke-width:2}</style><defs><path id="C" d="M101.65 249.04c0-12.2 7.85-19.35 17.2-19.35 4.7 0 8.45 2.25 10.85 4.75l-3.85 4.7c-1.9-1.8-4.05-3.1-6.85-3.1-5.6 0-9.8 4.8-9.8 12.75s3.8 12.9 9.65 12.9c3.2 0 5.65-1.5 7.65-3.65l3.9 4.6c-3.05 3.55-7 5.45-11.8 5.45-9.35 0-16.95-6.7-16.95-19.05Z"/><path id="D" d="M138.34 230.33h12.9c7.75 0 13.9 2.75 13.9 11.25 0 5.55-2.8 9-7.05 10.65l8.65 15.15h-8.25l-7.6-14h-5.15v14h-7.4v-37.05Zm12.2 17.2c4.75 0 7.4-2 7.4-5.95s-2.65-5.35-7.4-5.35h-4.8v11.3h4.8Z"/><path id="E" d="M174.44 230.33h22.7v6.2h-15.3v8.55h13v6.2h-13v9.9h15.85v6.2h-23.25v-37.05Z"/><path id="F" d="M214.29 230.33h8.7l11.9 37.05h-7.75l-2.6-9.5h-12l-2.6 9.5h-7.5l11.85-37.05zm-.15 21.8h8.8l-1.1-4.05c-1.15-3.85-2.15-8.1-3.2-12.1h-.25a266.5 266.5 0 0 1-3.15 12.1l-1.1 4.05z"/><path id="G" d="M248.59 236.54h-10.4v-6.2h28.3v6.2h-10.5v30.85h-7.4v-30.85Z"/><path id="H" d="M288.19 230.33h7.75l4.9 18.05c1.15 4.1 1.95 7.8 3.1 11.95h.25c1.2-4.15 2-7.85 3.15-11.95l4.8-18.05h7.5l-11.3 37.05h-8.85l-11.3-37.05Z"/><path id="I" d="M901.18 114.49H650.41V65.56l15-15h250.77v48.93l-15 15z"/><path id="J" d="M852.66 301.12h3.87l4.75 13.93 2.83 8.47h.16l2.83-8.47 4.7-13.93h3.75l-9.29 25.69h-4.27l-9.33-25.69z"/><path id="K" d="M881.13 301.12h9.17c5.94 0 10.21 1.89 10.21 7.25 0 3.99-2.63 6.37-6.62 7.21l7.5 11.24h-4.19l-7.1-10.89h-5.26v10.89h-3.71v-25.69Zm8.61 12.18c4.58 0 7.1-1.61 7.1-4.94s-2.51-4.58-7.1-4.58h-4.9v9.52h4.9Z"/><path id="L" d="M997.81 347.58h-254v-48.37l15-15h254v48.37l-15 15z"/><path id="M" d="M793 185.98c0-1.23 1-2.07 2.43-2.07s2.43.84 2.43 2.07c0 1.29-1 2.13-2.43 2.13s-2.43-.84-2.43-2.13zm.6 6.06h3.63v19.01h-3.63v-19.01z"/><path id="N" d="M804.6 201.56c0-6.16 4.43-10.01 9.37-10.01 2.55 0 4.19.84 6.1 2.24l-.16-3.29v-7.32h3.59v27.86h-2.95l-.32-2.24h-.12c-1.71 1.47-3.99 2.7-6.58 2.7-5.42 0-8.93-3.61-8.93-9.94zm15.31 4.66v-9.98c-1.87-1.43-3.51-2-5.3-2-3.51 0-6.26 2.94-6.26 7.28 0 4.58 2.15 7.32 5.98 7.32 1.99 0 3.75-.88 5.58-2.62z"/><path id="O" d="M830.84 201.56c0-6.16 4.75-10.01 9.77-10.01 5.5 0 8.61 3.5 8.61 8.93 0 .7-.08 1.37-.16 1.82h-14.59c.24 4.06 3.07 6.65 7.18 6.65 2.11 0 3.83-.56 5.42-1.5l1.32 2.1c-1.91 1.08-4.23 1.96-7.18 1.96-5.74 0-10.37-3.68-10.37-9.94Zm15.19-1.58c0-3.82-1.99-5.88-5.38-5.88-3.07 0-5.78 2.17-6.22 5.88h11.6Z"/><path id="P" d="M854.52 201.56c0-6.33 4.75-10.01 10.05-10.01s10.05 3.68 10.05 10.01-4.75 9.94-10.05 9.94-10.05-3.64-10.05-9.94Zm16.35 0c0-4.38-2.55-7.35-6.3-7.35s-6.26 2.98-6.26 7.35 2.51 7.28 6.26 7.28 6.3-2.91 6.3-7.28Z"/><path id="Q" d="m879.48 208.87 1.79-2.1c1.87 1.33 3.83 2.24 6.42 2.24 2.87 0 4.27-1.33 4.27-2.98 0-1.96-2.55-2.8-4.94-3.61-3.03-.98-6.34-2.27-6.34-5.5 0-3.01 2.79-5.39 7.5-5.39 2.67 0 5.02.98 6.7 2.13l-1.75 2.07c-1.48-.98-2.99-1.68-4.9-1.68-2.75 0-4.03 1.26-4.03 2.73 0 1.82 2.23 2.49 4.67 3.29 3.15 1.05 6.62 2.17 6.62 5.78 0 3.08-2.79 5.64-7.89 5.64-3.07 0-6.02-1.12-8.09-2.62z"/><path id="R" d="M715.51 414.79h8.69c5.94 0 10.05 1.79 10.05 6.3 0 2.55-1.55 4.79-4.27 5.57v.17c3.47.59 5.94 2.62 5.94 6.13 0 5.04-4.55 7.53-11.08 7.53h-9.33V414.8zm8.05 10.96c5.02 0 7.06-1.65 7.06-4.24 0-3.01-2.35-4.13-6.9-4.13h-4.5v8.37h4.35zm.76 12.15c5.02 0 7.97-1.58 7.97-5.04 0-3.19-2.87-4.66-7.97-4.66h-5.1v9.7h5.1z"/><path id="S" d="M742.98 421.48h2.99l.32 3.46h.12c1.52-2.42 3.71-3.96 6.14-3.96.96 0 1.63.11 2.31.42l-.68 2.8c-.72-.25-1.24-.32-2.11-.32-1.79 0-4.03 1.12-5.46 4.38v12.22h-3.63v-19.01z"/><path id="T" d="M758.69 435.55c0-4.13 4.11-6.2 13.32-7.11 0-2.45-.92-4.8-4.47-4.8-2.51 0-4.78 1.02-6.5 2.03l-1.44-2.21c1.99-1.12 5.06-2.49 8.53-2.49 5.26 0 7.5 3.12 7.5 7.81v11.69h-2.99l-.32-2.28h-.12c-2.07 1.5-4.51 2.73-7.18 2.73-3.63 0-6.34-1.96-6.34-5.39zm13.32.32v-5.32c-7.3.77-9.77 2.35-9.77 4.8 0 2.17 1.67 3.04 3.83 3.04s3.83-.88 5.94-2.52z"/><path id="U" d="M784.13 421.48h2.99l.32 2.73h.12c2.07-1.79 4.31-3.22 7.26-3.22 4.55 0 6.62 2.59 6.62 7.46v12.04h-3.63v-11.62c0-3.57-1.24-5.08-4.11-5.08-2.23 0-3.75.98-5.94 2.91v13.79h-3.63v-19.01z"/><path id="V" d="M808.53 431c0-6.16 4.43-10.01 9.37-10.01 2.55 0 4.19.84 6.1 2.24l-.16-3.29v-7.32h3.59v27.86h-2.95l-.32-2.24h-.12c-1.71 1.47-3.99 2.7-6.58 2.7-5.42 0-8.93-3.61-8.93-9.94zm15.31 4.66v-9.98c-1.87-1.44-3.51-2-5.3-2-3.51 0-6.26 2.94-6.26 7.28 0 4.59 2.15 7.32 5.98 7.32 1.99 0 3.75-.88 5.58-2.62z"/><path id="W" d="M873.28 444.12c0-1.61 1.16-3.15 3.19-4.31v-.14c-1.16-.6-1.99-1.61-1.99-3.12s1.32-2.84 2.43-3.54v-.14c-1.44-1.02-2.83-2.83-2.83-5.11 0-4.17 3.75-6.79 8.13-6.79 1.2 0 2.27.25 3.03.49h7.54v2.45h-4.43c1.04.88 1.75 2.28 1.75 3.92 0 4.06-3.51 6.62-7.89 6.62a8.41 8.41 0 0 1-3.23-.67c-.8.59-1.4 1.22-1.4 2.28 0 1.22.88 2.06 3.79 2.06h4.23c5.02 0 7.58 1.4 7.58 4.52 0 3.54-4.27 6.58-10.96 6.58-5.3 0-8.93-1.82-8.93-5.11zm16.35-.98c0-1.75-1.56-2.34-4.43-2.34h-3.75a13.81 13.81 0 0 1-2.79-.32c-1.55.98-2.19 2.1-2.19 3.22 0 2.03 2.35 3.36 6.26 3.36 4.15 0 6.9-1.93 6.9-3.92zm-2.79-15.37c0-2.77-2.07-4.45-4.62-4.45s-4.62 1.64-4.62 4.45 2.11 4.52 4.62 4.52 4.62-1.75 4.62-4.52z"/><path id="X" d="M51.58 251.6H69.6c0-86.11 69.81-155.92 155.92-155.92"/><path id="Y" d="M225.38 425.41c-95.99 0-173.81-77.82-173.81-173.81S129.39 77.8 225.38 77.8"/><path id="Z" d="M225.38 77.8c95.99 0 173.81 77.82 173.81 173.81s-77.82 173.81-173.81 173.81"/><path id="a" d="M380.92 326.81c23.69-49.46 21.9-104.54-.13-150.41"/><path id="b" d="M224.51 32.41c121.06 0 219.19 98.14 219.19 219.19s-98.14 219.19-219.19 219.19"/></defs><use xlink:href="#C"/><use xlink:href="#D"/><use xlink:href="#E"/><use xlink:href="#F"/><use xlink:href="#G"/><path d="M274.49 230.33h7.4v37.05h-7.4v-37.05Z"/><use xlink:href="#H"/><use xlink:href="#E" x="151.45"/><g fill="#fff"><use xlink:href="#C"/><use xlink:href="#D"/><use xlink:href="#E"/><use xlink:href="#F"/><use xlink:href="#G"/><path d="M274.49 230.33h7.4v37.05h-7.4v-37.05Z"/><use xlink:href="#H"/><use xlink:href="#E" x="151.45"/></g><g class="M S"><path d="M457.61 439.48h212.38" class="N T"/><path d="M457.61 439.48h212.38" class="O P"/></g><g class="M S"><path d="m389.4 396.2 68.21 43.28" class="N T"/><path d="m389.4 396.2 68.21 43.28" class="O P"/></g><g class="M S"><path d="M433.14 322.64h310.67" class="N T"/><path d="M433.14 322.64h310.67" class="O P"/></g><g class="M S"><path d="m407.97 128.77 95.06-40.51" class="N T"/><path d="m407.97 128.77 95.06-40.51" class="O P"/></g><g class="M S"><path d="M502.71 88.27h147.7" class="N T"/><path d="M502.71 88.27h147.7" class="O P"/></g><g class="M S"><path d="M440.97 206.05h255.68" class="N T"/><path d="M440.97 206.05h255.68" class="O P"/></g><path fill="#fff" d="M722.13 68.58h7.19c8.79 0 13.51 4.62 13.51 12.78s-4.72 12.92-13.35 12.92h-7.34V68.59zM729 91.61c6.75 0 10.07-3.78 10.07-10.26S735.75 71.23 729 71.23h-3.24V91.6H729zm19.61-6.82c0-6.16 4.65-10.01 9.57-10.01 5.39 0 8.43 3.5 8.43 8.93 0 .7-.08 1.37-.16 1.82h-14.29c.23 4.06 3.01 6.65 7.03 6.65 2.07 0 3.75-.56 5.31-1.5l1.29 2.1c-1.87 1.08-4.14 1.96-7.03 1.96-5.62 0-10.15-3.68-10.15-9.94zm14.88-1.58c0-3.82-1.95-5.88-5.27-5.88-3.01 0-5.66 2.17-6.09 5.88h11.36zm7.53 8.89 1.76-2.1c1.83 1.33 3.75 2.24 6.29 2.24 2.81 0 4.18-1.33 4.18-2.98 0-1.96-2.5-2.8-4.84-3.61-2.97-.98-6.21-2.27-6.21-5.5 0-3.01 2.73-5.39 7.34-5.39 2.62 0 4.92.98 6.56 2.13l-1.72 2.07c-1.44-.98-2.93-1.68-4.8-1.68-2.69 0-3.94 1.26-3.94 2.73 0 1.82 2.19 2.49 4.57 3.29 3.08 1.05 6.48 2.17 6.48 5.78 0 3.08-2.73 5.64-7.73 5.64-3.01 0-5.9-1.12-7.93-2.62zm21.63-22.89c0-1.23.98-2.07 2.38-2.07s2.38.84 2.38 2.07c0 1.29-.98 2.13-2.38 2.13s-2.38-.84-2.38-2.13zm.59 6.06h3.55v19.01h-3.55V75.27zm10.69 22.64c0-1.61 1.13-3.15 3.12-4.31v-.14c-1.13-.6-1.95-1.61-1.95-3.12s1.29-2.83 2.38-3.54v-.14c-1.41-1.02-2.77-2.83-2.77-5.11 0-4.17 3.67-6.79 7.97-6.79 1.17 0 2.23.25 2.97.49h7.38v2.45h-4.33c1.02.88 1.72 2.28 1.72 3.92 0 4.06-3.44 6.62-7.73 6.62-1.05 0-2.23-.25-3.16-.67-.78.59-1.37 1.22-1.37 2.28 0 1.22.86 2.06 3.71 2.06h4.14c4.92 0 7.42 1.4 7.42 4.52 0 3.54-4.18 6.58-10.74 6.58-5.19 0-8.75-1.82-8.75-5.11zm16.01-.98c0-1.75-1.52-2.34-4.33-2.34h-3.67c-.78 0-1.8-.11-2.73-.32-1.52.98-2.15 2.1-2.15 3.22 0 2.03 2.3 3.36 6.13 3.36 4.06 0 6.75-1.93 6.75-3.92zm-2.73-15.37c0-2.77-2.03-4.45-4.53-4.45s-4.53 1.64-4.53 4.45 2.07 4.52 4.53 4.52 4.53-1.75 4.53-4.52zm11.87-6.3h2.93l.31 2.73h.12c2.03-1.79 4.22-3.22 7.11-3.22 4.45 0 6.48 2.59 6.48 7.46v12.04h-3.55V82.65c0-3.57-1.21-5.08-4.02-5.08-2.19 0-3.67.98-5.82 2.91v13.79h-3.55V75.26z"/><g class="M S"><use xlink:href="#I" class="N T"/><use xlink:href="#I" class="O P"/></g><use xlink:href="#J"/><use xlink:href="#K"/><g fill="#fff"><use xlink:href="#J"/><use xlink:href="#K"/></g><g class="M S"><use xlink:href="#L" class="N T"/><use xlink:href="#L" class="O P"/></g><use xlink:href="#J" x="-87.21" y="-115.77"/><use xlink:href="#M"/><use xlink:href="#N"/><use xlink:href="#O"/><use xlink:href="#P"/><use xlink:href="#Q"/><g fill="#fff"><use xlink:href="#J" x="-87.21" y="-115.77"/><use xlink:href="#M"/><use xlink:href="#N"/><use xlink:href="#O"/><use xlink:href="#P"/><use xlink:href="#Q"/></g><g class="M S"><use xlink:href="#L" x="-47.16" y="-116.35" class="N T"/><use xlink:href="#L" x="-47.16" y="-116.35" class="O P"/></g><use xlink:href="#R"/><use xlink:href="#S"/><use xlink:href="#T"/><use xlink:href="#U"/><use xlink:href="#V"/><use xlink:href="#M" x="42.8" y="229.44"/><use xlink:href="#U" x="64.83"/><use xlink:href="#W"/><g fill="#fff"><use xlink:href="#R"/><use xlink:href="#S"/><use xlink:href="#T"/><use xlink:href="#U"/><use xlink:href="#V"/><use xlink:href="#M" x="42.8" y="229.44"/><use xlink:href="#U" x="64.83"/><use xlink:href="#W"/></g><g class="M S"><use xlink:href="#L" x="-73.82" y="115.75" class="N T"/><use xlink:href="#L" x="-73.82" y="115.75" class="O P"/></g><use xlink:href="#B" transform="rotate(180 128.22 236.27)"/><g class="M Q R"><path d="M224.3 440.11v-16.49" class="N P"/><path d="M224.3 440.11v-16.49" class="O"/></g><use xlink:href="#B" transform="rotate(-174 128.953 231.229)"/><g class="M Q R"><path d="m204.45 439.06 1.73-16.4" class="N P"/><path d="m204.45 439.06 1.73-16.4" class="O"/></g><use xlink:href="#B" transform="rotate(-168 129.693 226.164)"/><g class="M Q R"><path d="m184.83 435.94 3.43-16.13" class="N P"/><path d="m184.83 435.94 3.43-16.13" class="O"/></g><use xlink:href="#B" transform="rotate(-162 130.439 221.035)"/><g class="M Q R"><path d="m165.64 430.79 5.09-15.69" class="N P"/><path d="m165.64 430.79 5.09-15.69" class="O"/></g><use xlink:href="#B" transform="rotate(-156 131.199 215.828)"/><g class="M Q R"><path d="m147.09 423.66 6.71-15.07" class="N P"/><path d="m147.09 423.66 6.71-15.07" class="O"/></g><use xlink:href="#B" transform="rotate(-150 131.97 210.498)"/><g class="M Q R"><path d="m129.39 414.62 8.25-14.28" class="N P"/><path d="m129.39 414.62 8.25-14.28" class="O"/></g><use xlink:href="#B" transform="rotate(-144 132.771 205.017)"/><g class="M Q R"><path d="m112.73 403.79 9.69-13.34" class="N P"/><path d="m112.73 403.79 9.69-13.34" class="O"/></g><use xlink:href="#B" transform="rotate(-138 133.593 199.352)"/><g class="M Q R"><path d="m97.29 391.28 11.04-12.26" class="N P"/><path d="m97.29 391.28 11.04-12.26" class="O"/></g><use xlink:href="#B" transform="rotate(-132 134.454 193.449)"/><g class="M Q R"><path d="m83.25 377.22 12.26-11.04" class="N P"/><path d="m83.25 377.22 12.26-11.04" class="O"/></g><use xlink:href="#B" transform="rotate(-126 135.353 187.266)"/><g class="M Q R"><path d="m70.75 361.77 13.35-9.69" class="N P"/><path d="m70.75 361.77 13.35-9.69" class="O"/></g><use xlink:href="#B" transform="rotate(-120 136.303 180.739)"/><g class="M Q R"><path d="m59.94 345.1 14.28-8.25" class="N P"/><path d="m59.94 345.1 14.28-8.25" class="O"/></g><use xlink:href="#B" transform="rotate(-114 137.314 173.812)"/><g class="M Q R"><path d="M50.93 327.39 66 320.68" class="N P"/><path d="M50.93 327.39 66 320.68" class="O"/></g><use xlink:href="#B" transform="rotate(-108 138.393 166.392)"/><g class="M Q R"><path d="m43.82 308.83 15.68-5.09" class="N P"/><path d="m43.82 308.83 15.68-5.09" class="O"/></g><use xlink:href="#B" transform="rotate(-102 139.557 158.383)"/><g class="M Q R"><path d="m38.69 289.64 16.13-3.43" class="N P"/><path d="m38.69 289.64 16.13-3.43" class="O"/></g><use xlink:href="#B" transform="rotate(-96 140.828 149.669)"/><g class="M Q R"><path d="m35.59 270.01 16.4-1.73" class="N P"/><path d="m35.59 270.01 16.4-1.73" class="O"/></g><use xlink:href="#B" transform="rotate(-90 142.22 140.09)"/><g class="M Q R"><path d="M34.56 250.16h16.49" class="N P"/><path d="M34.56 250.16h16.49" class="O"/></g><use xlink:href="#B" transform="rotate(-84 143.769 129.45)"/><g class="M Q R"><path d="m35.61 230.32 16.4 1.72" class="N P"/><path d="m35.61 230.32 16.4 1.72" class="O"/></g><use xlink:href="#B" transform="rotate(-78 145.512 117.496)"/><g class="M Q R"><path d="m38.73 210.7 16.13 3.43" class="N P"/><path d="m38.73 210.7 16.13 3.43" class="O"/></g><use xlink:href="#B" transform="rotate(-72 147.493 103.89)"/><g class="M Q R"><path d="m43.89 191.51 15.68 5.09" class="N P"/><path d="m43.89 191.51 15.68 5.09" class="O"/></g><use xlink:href="#B" transform="rotate(-66 149.785 88.164)"/><g class="M Q R"><path d="m51.02 172.96 15.06 6.71" class="N P"/><path d="m51.02 172.96 15.06 6.71" class="O"/></g><use xlink:href="#B" transform="rotate(-60 152.467 69.679)"/><g class="M Q R"><path d="m60.05 155.26 14.28 8.24" class="N P"/><path d="m60.05 155.26 14.28 8.24" class="O"/></g><use xlink:href="#B" transform="rotate(-54 155.694 47.501)"/><g class="M Q R"><path d="m70.88 138.6 13.34 9.69" class="N P"/><path d="m70.88 138.6 13.34 9.69" class="O"/></g><use xlink:href="#B" transform="rotate(-48 159.66 20.247)"/><g class="M Q R"><path d="m83.39 123.16 12.26 11.04" class="N P"/><path d="m83.39 123.16 12.26 11.04" class="O"/></g><use xlink:href="#B" transform="rotate(-42 164.69 -14.285)"/><g class="M Q R"><path d="m97.45 109.12 11.04 12.26" class="N P"/><path d="m97.45 109.12 11.04 12.26" class="O"/></g><use xlink:href="#B" transform="rotate(-36 171.303 -59.74)"/><g class="M Q R"><path d="m112.9 96.62 9.7 13.35" class="N P"/><path d="m112.9 96.62 9.7 13.35" class="O"/></g><use xlink:href="#B" transform="rotate(-30 180.473 -122.682)"/><g class="M Q R"><path d="m129.57 85.81 8.25 14.28" class="N P"/><path d="m129.57 85.81 8.25 14.28" class="O"/></g><use xlink:href="#B" transform="rotate(-24 194.092 -216.233)"/><g class="M Q R"><path d="m147.28 76.8 6.71 15.06" class="N P"/><path d="m147.28 76.8 6.71 15.06" class="O"/></g><use xlink:href="#B" transform="rotate(-18 216.612 -370.978)"/><g class="M Q R"><path d="m165.84 69.69 5.1 15.68" class="N P"/><path d="m165.84 69.69 5.1 15.68" class="O"/></g><use xlink:href="#B" transform="rotate(-12 261.427 -678.832)"/><g class="M Q R"><path d="m185.04 64.56 3.43 16.13" class="N P"/><path d="m185.04 64.56 3.43 16.13" class="O"/></g><use xlink:href="#B" transform="rotate(-6 395.387 -1598.94)"/><g class="M Q R"><path d="m204.66 61.46 1.73 16.4" class="N P"/><path d="m204.66 61.46 1.73 16.4" class="O"/></g><use xlink:href="#B" x="192.36" y="28"/><g class="M Q R"><path d="M224.51 60.43v16.49" class="N P"/><path d="M224.51 60.43v16.49" class="O"/></g><g class="M Q"><use xlink:href="#X" class="N P R"/><use xlink:href="#X" class="O"/></g><g class="M S"><use xlink:href="#Y" stroke-width="9" class="N"/><use xlink:href="#Y" class="O T"/></g><g class="M S"><use xlink:href="#Z" class="N P"/><use xlink:href="#Z" class="O U"/></g><use xlink:href="#A" transform="rotate(36 -221.792 727.78)"/><g class="M"><path d="m390.56 315.93 8.13 2.45" class="N Q R U"/><path d="m390.56 315.93 8.13 2.45" class="O S"/></g><use xlink:href="#A" transform="rotate(32 -253.54 801.398)"/><g class="M"><path d="m394.53 302.23 8.28 1.88" class="N Q R U"/><path d="m394.53 302.23 8.28 1.88" class="O S"/></g><use xlink:href="#A" transform="rotate(28 -294.115 895.425)"/><g class="M"><path d="m397.53 288.29 8.39 1.3" class="N Q R U"/><path d="m397.53 288.29 8.39 1.3" class="O S"/></g><use xlink:href="#A" transform="rotate(24 -347.882 1020.11)"/><g class="M"><path d="m399.56 274.17 8.45.71" class="N Q R U"/><path d="m399.56 274.17 8.45.71" class="O S"/></g><use xlink:href="#A" transform="rotate(20 -422.801 1193.784)"/><g class="M"><path d="m400.59 259.94 8.49.13" class="N Q R U"/><path d="m400.59 259.94 8.49.13" class="O S"/></g><use xlink:href="#A" transform="rotate(16 -534.701 1453.264)"/><g class="M"><path d="m400.63 245.68 8.47-.47" class="N Q R U"/><path d="m400.63 245.68 8.47-.47" class="O S"/></g><use xlink:href="#A" transform="rotate(12 -720.662 1884.297)"/><g class="M"><path d="m399.67 231.45 8.42-1.06" class="N Q R U"/><path d="m399.67 231.45 8.42-1.06" class="O S"/></g><use xlink:href="#A" transform="rotate(8 -1091.608 2744.308)"/><g class="M"><path d="m397.72 217.32 8.33-1.64" class="N Q R U"/><path d="m397.72 217.32 8.33-1.64" class="O S"/></g><use xlink:href="#A" transform="rotate(4 -2202.535 5320.193)"/><g class="M"><path d="m394.79 203.37 8.2-2.23" class="N Q R U"/><path d="m394.79 203.37 8.2-2.23" class="O S"/></g><use xlink:href="#A" x="359.36" y="155"/><g class="M"><path d="m390.9 189.65 8.02-2.79" class="N Q R U"/><path d="m390.9 189.65 8.02-2.79" class="O S"/></g><g class="M S"><use xlink:href="#a" stroke-width="9" class="N"/><use xlink:href="#a" class="O T"/></g><g class="M S"><use xlink:href="#b" class="N P"/><use xlink:href="#b" class="O U"/></g></svg>