<svg xmlns="http://www.w3.org/2000/svg" xmlns:xlink="http://www.w3.org/1999/xlink" viewBox="0 0 1055 502"><style>.M{stroke:#0ff}.N{fill:none}.O{stroke:#fff}.P{stroke-width:3}.Q{stroke-miterlimit:10}.R{stroke-width:6}.S{stroke-linejoin:round}.T{stroke-linecap:round}</style><g class="N Q"><path d="m676.85 389.4-63.93 40.57H400.53" class="M R"/><path d="m676.85 389.4-63.93 40.57H400.53" class="O P"/></g><g class="N Q"><path d="M637.38 313.12H326.72" class="M R"/><path d="M637.38 313.12H326.72" class="O P"/></g><g class="N Q"><path d="m420.12 78.76 147.37-.02 102.3 43.59" class="M R"/><path d="m420.12 78.76 147.37-.02 102.3 43.59" class="O P"/></g><g class="N Q"><path d="M634.76 196.53H373.87" class="M R"/><path d="M634.76 196.53H373.87" class="O P"/></g><path fill="#fff" d="M238.83 63.38h14.15v2.37h-11.04v7.44h9.37v2.34h-9.37v9.87h-3.11V63.38zm19.04.54c0-1.05.84-1.77 2.04-1.77s2.04.72 2.04 1.77c0 1.11-.84 1.83-2.04 1.83s-2.04-.72-2.04-1.83zm.5 5.19h3.05V85.4h-3.05V69.11zm9.17 19.41c0-1.38.97-2.7 2.68-3.69v-.12c-.97-.51-1.67-1.38-1.67-2.67s1.1-2.43 2.04-3.03v-.12c-1.21-.87-2.38-2.43-2.38-4.38 0-3.57 3.15-5.82 6.83-5.82 1 0 1.91.21 2.54.42h6.32v2.1h-3.71c.87.75 1.47 1.95 1.47 3.36 0 3.48-2.95 5.67-6.63 5.67-.9 0-1.91-.21-2.71-.57-.67.51-1.17 1.05-1.17 1.95 0 1.05.74 1.77 3.18 1.77h3.55c4.22 0 6.36 1.2 6.36 3.87 0 3.03-3.58 5.64-9.2 5.64-4.45 0-7.5-1.56-7.5-4.38zm13.72-.84c0-1.5-1.3-2.01-3.71-2.01h-3.15a11.29 11.29 0 0 1-2.34-.27c-1.3.84-1.84 1.8-1.84 2.76 0 1.74 1.97 2.88 5.25 2.88 3.48 0 5.79-1.65 5.79-3.36zm-2.34-13.17c0-2.37-1.74-3.81-3.88-3.81s-3.88 1.41-3.88 3.81 1.77 3.87 3.88 3.87 3.88-1.5 3.88-3.87zm10.18-5.4h2.51l.27 2.37h.1c1.57-1.56 3.48-2.79 5.66-2.79 2.78 0 4.28 1.2 5.02 3.12 1.87-1.83 3.78-3.12 5.99-3.12 3.75 0 5.52 2.22 5.52 6.39V85.4h-3.04v-9.96c0-3.06-1.07-4.35-3.38-4.35-1.41 0-2.88.81-4.58 2.49V85.4h-3.04v-9.96c0-3.06-1.07-4.35-3.38-4.35-1.37 0-2.91.81-4.58 2.49V85.4h-3.05V69.11zm31.19 12.06c0-3.54 3.45-5.31 11.18-6.09 0-2.1-.77-4.11-3.75-4.11-2.11 0-4.01.87-5.45 1.74l-1.2-1.89c1.67-.96 4.25-2.13 7.16-2.13 4.42 0 6.29 2.67 6.29 6.69V85.4h-2.51l-.27-1.95h-.1c-1.74 1.29-3.78 2.34-6.02 2.34-3.05 0-5.32-1.68-5.32-4.62zm11.18.27v-4.56c-6.12.66-8.2 2.01-8.2 4.11 0 1.86 1.41 2.61 3.21 2.61s3.21-.75 4.99-2.16z"/><g class="N Q"><use xlink:href="#B" class="M R"/><use xlink:href="#B" class="O P"/></g><use xlink:href="#C"/><use xlink:href="#D"/><use xlink:href="#E"/><use xlink:href="#F"/><g fill="#fff"><use xlink:href="#C"/><use xlink:href="#D"/><use xlink:href="#E"/><use xlink:href="#F"/></g><g class="N Q"><use xlink:href="#G" class="M R"/><use xlink:href="#G" class="O P"/></g><use xlink:href="#H"/><use xlink:href="#I"/><use xlink:href="#J"/><use xlink:href="#K"/><use xlink:href="#D" x="-79.52" y="115.23"/><use xlink:href="#L"/><use xlink:href="#M"/><use xlink:href="#N"/><use xlink:href="#O"/><use xlink:href="#D" x="15.39" y="115.23"/><use xlink:href="#P"/><use xlink:href="#Q"/><g fill="#fff"><use xlink:href="#H"/><use xlink:href="#I"/><use xlink:href="#J"/><use xlink:href="#K"/><use xlink:href="#D" x="-79.52" y="115.23"/><use xlink:href="#L"/><use xlink:href="#M"/><use xlink:href="#N"/><use xlink:href="#O"/><use xlink:href="#D" x="15.39" y="115.23"/><use xlink:href="#P"/><use xlink:href="#Q"/></g><g class="N Q"><use xlink:href="#R" class="M R"/><use xlink:href="#R" class="O P"/></g><use xlink:href="#C" x="-74.9" y="233.63"/><use xlink:href="#S"/><use xlink:href="#I" x="89.48" y="118.4"/><use xlink:href="#N" x="-22.86" y="118.4"/><use xlink:href="#E" x="-34.57" y="233.63"/><use xlink:href="#D" x="-10.2" y="233.63"/><use xlink:href="#S" x="75.46"/><use xlink:href="#T"/><use xlink:href="#U"/><use xlink:href="#V"/><use xlink:href="#O" x="81.28" y="118.4"/><use xlink:href="#D" x="96.66" y="233.63"/><use xlink:href="#P" x="81.28" y="118.4"/><use xlink:href="#Q" x="81.28" y="118.4"/><g fill="#fff"><use xlink:href="#C" x="-74.9" y="233.63"/><use xlink:href="#S"/><use xlink:href="#I" x="89.48" y="118.4"/><use xlink:href="#N" x="-22.86" y="118.4"/><use xlink:href="#E" x="-34.57" y="233.63"/><use xlink:href="#D" x="-10.2" y="233.63"/><use xlink:href="#S" x="75.46"/><use xlink:href="#T"/><use xlink:href="#U"/><use xlink:href="#V"/><use xlink:href="#O" x="81.28" y="118.4"/><use xlink:href="#D" x="96.66" y="233.63"/><use xlink:href="#P" x="81.28" y="118.4"/><use xlink:href="#Q" x="81.28" y="118.4"/></g><g class="N"><g class="Q"><use xlink:href="#W" class="M R"/><use xlink:href="#W" class="O P"/></g><path d="M847.13 64.89v12.9m16.2-12.01-1.13 12.85m17.19-10.56-2.25 12.71m18.05-9.02-3.35 12.47m25.86-26.89-11.51 31.6m19.33-5.75-5.46 11.69m19.77-4.04-6.46 11.18m20.04-2.31L946 110.28m20.17-.55-8.3 9.88m34.54-13.17-23.53 23.51m19.95 2.96-9.89 8.29m19.62 4.69-10.57 7.4m19.14 6.38-11.18 6.45m18.51 8.02-11.7 5.45m34.35 3.57-28.74 10.45m16.83 11.12-12.47 3.33m15.8 12.54-12.71 2.24m14.65 13.87-12.86 1.12m13.39 15.1-12.91-.01m30.3 15.79-31.14-.72m10.56 17.19-12.71-2.24m9.02 18.04-12.46-3.34m7.41 18.76-12.13-4.42m5.75 19.34-11.69-5.46m19.68 28.8-26.81-15.49m2.3 20.04-10.57-7.41m.55 20.17-9.88-8.3m-1.21 20.13-9.13-9.13m-2.96 19.96-8.29-9.89m4.97 33.43-17.06-24.38m-6.38 19.13-6.45-11.18m-8.02 18.51-5.45-11.7m-9.61 17.74-4.41-12.13M891.16 431l-3.34-12.47m-9.88 30.94-4.9-27.85m-13.87 14.65-1.12-12.86m-12.01 13.98.01-12.91" class="M S T P"/></g><g class="N S"><use xlink:href="#X" class="M P T"/><use xlink:href="#X" class="O"/></g><g class="N Q"><use xlink:href="#Y" stroke-width="9" class="M"/><use xlink:href="#Y" class="O R"/></g><g class="N Q"><use xlink:href="#Z" class="M P"/><use xlink:href="#Z" stroke-width="2" class="O"/></g><g class="N S T"><use xlink:href="#a" stroke-width="9" class="M"/><use xlink:href="#a" class="O R"/></g><g class="N Q"><use xlink:href="#b" class="M P"/><use xlink:href="#b" stroke-width="2" class="O"/></g><path fill="#0ff" d="m702.316 180.207 5.28 2.201-3.848 9.23-5.28-2.201zm-10.278 25.89 5.582 1.251-2.187 9.758-5.582-1.251zm-5.608 27.283 5.714.262-.459 9.989-5.714-.262zm-.795 27.856 5.673-.734 1.283 9.917-5.673.734zm4.059 27.544 5.459-1.708 2.985 9.544-5.459 1.708zm8.77 26.444 5.08-2.63 4.597 8.881-5.08 2.63z" opacity=".5"/><use xlink:href="#c"/><use xlink:href="#d"/><use xlink:href="#e"/><path d="M856.53 229.78h7.4v37.05h-7.4v-37.05Z"/><use xlink:href="#f"/><use xlink:href="#g"/><g fill="#fff"><use xlink:href="#c"/><use xlink:href="#d"/><use xlink:href="#e"/><path d="M856.53 229.78h7.4v37.05h-7.4v-37.05Z"/><use xlink:href="#f"/><use xlink:href="#g"/></g><defs><path id="B" d="M404.24 110.72H153.47V61.79l15-15h250.77v48.93l-15 15z"/><path id="C" d="M205.01 186.62h3.83l4.82 11.79 1.78 4.59h.17l1.71-4.59 4.79-11.79h3.83v22.02h-2.97v-12.18c0-1.89.24-4.56.41-6.48h-.14l-1.98 5.01-4.75 11.43h-2.12l-4.75-11.43-1.98-5.01h-.14l.38 6.48v12.18h-2.87v-22.02z"/><path id="D" d="M233.34 187.16c0-1.05.85-1.77 2.08-1.77s2.08.72 2.08 1.77c0 1.11-.85 1.83-2.08 1.83s-2.08-.72-2.08-1.83zm.51 5.19h3.11v16.29h-3.11v-16.29z"/><path id="E" d="M244.62 192.35h2.56l.27 2.97h.1c1.3-2.07 3.18-3.39 5.26-3.39.82 0 1.4.09 1.98.36l-.58 2.4c-.62-.21-1.06-.27-1.81-.27-1.54 0-3.45.96-4.68 3.75v10.47h-3.11v-16.29z"/><path id="F" d="M257.84 200.51c0-5.43 4.07-8.58 8.61-8.58s8.61 3.15 8.61 8.58-4.07 8.52-8.61 8.52-8.61-3.12-8.61-8.52Zm14.01 0c0-3.75-2.19-6.3-5.4-6.3s-5.37 2.55-5.37 6.3 2.15 6.24 5.37 6.24 5.4-2.49 5.4-6.24Z"/><path id="G" d="M358.7 228.22h-254v-48.37l15-15h254v48.37l-15 15z"/><path id="H" d="M72.45 301.85h3.52l8.51 22.02h-3.35l-2.39-6.72h-9.16l-2.43 6.72h-3.21l8.51-22.02zm-2.08 13.08h7.59l-1.2-3.36-2.53-7.44h-.14l-2.5 7.44-1.23 3.36z"/><path id="I" d="M88.61 318.83v-9.03h-2.77v-2.07l2.91-.15.38-4.59h2.6v4.59h5.02v2.22h-5.02v9.09c0 2.01.72 3.15 2.87 3.15.65 0 1.5-.21 2.12-.42l.62 2.04c-1.06.3-2.29.6-3.42.6-3.96 0-5.3-2.19-5.3-5.43z"/><path id="J" d="M99.89 315.74c0-5.43 4.07-8.58 8.61-8.58s8.61 3.15 8.61 8.58-4.07 8.52-8.61 8.52-8.61-3.12-8.61-8.52Zm14.01 0c0-3.75-2.19-6.3-5.4-6.3s-5.37 2.55-5.37 6.3 2.15 6.24 5.37 6.24 5.4-2.49 5.4-6.24Z"/><path id="K" d="M122.34 307.58h2.56l.27 2.37h.1c1.61-1.56 3.55-2.79 5.78-2.79 2.84 0 4.38 1.2 5.13 3.12 1.91-1.83 3.86-3.12 6.12-3.12 3.83 0 5.64 2.22 5.64 6.39v10.32h-3.11v-9.96c0-3.06-1.09-4.35-3.45-4.35-1.44 0-2.94.81-4.68 2.49v11.82h-3.11v-9.96c0-3.06-1.09-4.35-3.45-4.35-1.4 0-2.97.81-4.68 2.49v11.82h-3.11v-16.29z"/><path id="L" d="M162.67 315.74c0-5.43 4.2-8.58 8.96-8.58 2.43 0 4.1.9 5.43 1.92l-1.61 1.8c-1.09-.84-2.22-1.44-3.69-1.44-3.38 0-5.84 2.55-5.84 6.3s2.32 6.24 5.74 6.24c1.71 0 3.21-.69 4.38-1.62l1.37 1.83a9.711 9.711 0 0 1-6.02 2.07c-4.92 0-8.72-3.12-8.72-8.52z"/><path id="M" d="M190.08 301.85h6.29c7.69 0 11.83 3.96 11.83 10.95s-4.14 11.07-11.69 11.07h-6.43v-22.02Zm6.02 19.74c5.91 0 8.82-3.24 8.82-8.79s-2.91-8.67-8.82-8.67h-2.84v17.46h2.84Z"/><path id="N" d="M212.23 315.74c0-5.28 4.07-8.58 8.37-8.58 4.72 0 7.38 3 7.38 7.65a9.17 9.17 0 0 1-.14 1.56h-12.51c.21 3.48 2.63 5.7 6.15 5.7a8.8 8.8 0 0 0 4.65-1.29l1.13 1.8c-1.64.93-3.62 1.68-6.15 1.68-4.92 0-8.89-3.15-8.89-8.52zm13.02-1.35c0-3.27-1.71-5.04-4.61-5.04-2.63 0-4.96 1.86-5.33 5.04h9.95z"/><path id="O" d="m230.82 322.01 1.54-1.8c1.61 1.14 3.28 1.92 5.5 1.92 2.46 0 3.66-1.14 3.66-2.55 0-1.68-2.19-2.4-4.24-3.09-2.6-.84-5.43-1.95-5.43-4.71 0-2.58 2.39-4.62 6.43-4.62 2.29 0 4.31.84 5.74 1.83l-1.5 1.77c-1.26-.84-2.56-1.44-4.2-1.44-2.36 0-3.45 1.08-3.45 2.34 0 1.56 1.91 2.13 4 2.82 2.7.9 5.67 1.86 5.67 4.95 0 2.64-2.39 4.83-6.77 4.83-2.63 0-5.16-.96-6.94-2.25z"/><path id="P" d="M257.58 326.99c0-1.38.99-2.7 2.73-3.69v-.12c-.99-.51-1.71-1.38-1.71-2.67s1.13-2.43 2.08-3.03v-.12c-1.23-.87-2.43-2.43-2.43-4.38 0-3.57 3.21-5.82 6.97-5.82a8.6 8.6 0 0 1 2.6.42h6.46v2.1h-3.79c.89.75 1.5 1.95 1.5 3.36 0 3.48-3.01 5.67-6.77 5.67-.92 0-1.95-.21-2.77-.57-.68.51-1.2 1.05-1.2 1.95 0 1.05.75 1.77 3.25 1.77h3.62c4.31 0 6.49 1.2 6.49 3.87 0 3.03-3.66 5.64-9.4 5.64-4.55 0-7.66-1.56-7.66-4.38zm14.01-.84c0-1.5-1.33-2.01-3.79-2.01h-3.21c-.68 0-1.57-.09-2.39-.27-1.33.84-1.88 1.8-1.88 2.76 0 1.74 2.02 2.88 5.37 2.88 3.55 0 5.91-1.65 5.91-3.36zm-2.39-13.17c0-2.37-1.78-3.81-3.96-3.81s-3.96 1.41-3.96 3.81 1.81 3.87 3.96 3.87 3.96-1.5 3.96-3.87z"/><path id="Q" d="M278.56 307.58h2.56l.27 2.34h.1c1.78-1.53 3.69-2.76 6.22-2.76 3.9 0 5.67 2.22 5.67 6.39v10.32h-3.11v-9.96c0-3.06-1.06-4.35-3.52-4.35-1.91 0-3.21.84-5.09 2.49v11.82h-3.11v-16.29z"/><path id="R" d="M311.72 345.71H33.41v-48.37l15-15h278.31v48.37l-15 15z"/><path id="S" d="M156.77 438.04c0-3.54 3.52-5.31 11.42-6.09 0-2.1-.79-4.11-3.83-4.11-2.15 0-4.1.87-5.57 1.74l-1.23-1.89c1.71-.96 4.34-2.13 7.31-2.13 4.51 0 6.43 2.67 6.43 6.69v10.02h-2.56l-.27-1.95h-.1c-1.78 1.29-3.86 2.34-6.15 2.34-3.11 0-5.43-1.68-5.43-4.62zm11.42.27v-4.56c-6.25.66-8.37 2.01-8.37 4.11 0 1.86 1.44 2.61 3.28 2.61s3.28-.75 5.09-2.16z"/><path id="T" d="M253.01 439.03v-20.64h3.11v20.82c0 .84.41 1.17.89 1.17.17 0 .31 0 .65-.06l.44 2.1c-.44.15-.96.24-1.81.24-2.32 0-3.28-1.32-3.28-3.63z"/><path id="U" d="M271.36 420.25h6.29c7.69 0 11.83 3.96 11.83 10.95s-4.14 11.07-11.69 11.07h-6.43v-22.02Zm6.02 19.74c5.91 0 8.82-3.24 8.82-8.79s-2.91-8.67-8.82-8.67h-2.84v17.46h2.84Z"/><path id="V" d="M293.5 434.14c0-5.28 4.07-8.58 8.37-8.58 4.72 0 7.38 3 7.38 7.65a9.17 9.17 0 0 1-.14 1.56H296.6c.21 3.48 2.63 5.7 6.15 5.7a8.8 8.8 0 0 0 4.65-1.29l1.13 1.8c-1.64.93-3.62 1.68-6.15 1.68-4.92 0-8.89-3.15-8.89-8.52zm13.02-1.35c0-3.27-1.71-5.04-4.61-5.04-2.63 0-4.96 1.86-5.33 5.04h9.95z"/><path id="W" d="M384.57 463.21H104.7v-48.37l15-15h279.87v48.37l-15 15z"/><path id="X" d="M1019.99 251.28h-18.02c0-86.11-69.81-155.92-155.92-155.92"/><path id="Y" d="M846.18 425.09c95.99 0 173.81-77.82 173.81-173.81S942.17 77.47 846.18 77.47"/><path id="Z" d="M846.18 77.48c-95.99 0-173.81 77.82-173.81 173.81S750.19 425.1 846.18 425.1"/><path id="a" d="M690.64 326.49c-23.69-49.46-21.9-104.54.13-150.41"/><path id="b" d="M847.06 32.09c-121.06 0-219.19 98.14-219.19 219.19s98.14 219.19 219.19 219.19"/><path id="c" d="M752.88 229.78h10.15c11.3 0 18.3 5.9 18.3 18.4s-7 18.65-17.9 18.65h-10.55v-37.05Zm9.7 31.1c6.9 0 11.2-3.7 11.2-12.7s-4.3-12.45-11.2-12.45h-2.3v25.15h2.3Z"/><path id="d" d="M790.58 229.78h22.7v6.2h-15.3v8.55h13v6.2h-13v9.9h15.85v6.2h-23.25v-37.05Z"/><path id="e" d="m820.88 262.13 4.25-5.1c2.65 2.45 6.15 4.1 9.4 4.1 3.85 0 5.9-1.65 5.9-4.25 0-2.75-2.25-3.6-5.55-5l-4.95-2.1c-3.75-1.55-7.5-4.55-7.5-9.95 0-6.05 5.3-10.7 12.8-10.7 4.3 0 8.6 1.7 11.6 4.75l-3.75 4.65c-2.35-1.95-4.8-3.05-7.85-3.05-3.25 0-5.3 1.45-5.3 3.9 0 2.65 2.6 3.6 5.75 4.85l4.85 2.05c4.5 1.85 7.45 4.7 7.45 10.05 0 6.05-5.05 11.2-13.6 11.2-4.95 0-9.9-1.95-13.5-5.4Z"/><path id="f" d="M873.18 248.48c0-12.2 7.9-19.35 17.75-19.35 5.35 0 9.05 2.3 11.45 4.75l-3.9 4.7c-1.85-1.75-3.95-3.1-7.3-3.1-6.15 0-10.45 4.8-10.45 12.75s3.7 12.9 11 12.9c1.75 0 3.55-.5 4.6-1.4v-7.3h-6.55v-6.05h13.15v16.7c-2.5 2.45-6.85 4.45-12 4.45-10.05 0-17.75-6.7-17.75-19.05Z"/><path id="g" d="M912.88 229.78h7.55l10.75 19.75 3.7 8h.25c-.35-3.85-.95-8.75-.95-12.95v-14.8h7v37.05h-7.5l-10.7-19.8-3.75-7.95h-.25c.35 4 .9 8.65.9 12.9v14.85h-7v-37.05z"/></defs></svg>