<svg xmlns="http://www.w3.org/2000/svg" xmlns:xlink="http://www.w3.org/1999/xlink" viewBox="0 0 1169 447"><style>.N{fill:none}.O{stroke:#0ff}.P{stroke:#fff}.Q{stroke-miterlimit:10}.R{stroke-width:6}.S{stroke-width:3}.T{fill:#fff}.U{stroke-linecap:round}.V{stroke-linejoin:round}.W{stroke-width:13}.X{stroke-width:8}</style><defs><path id="B" d="M457.24 210.67h21.55v5.86h-14.56v9.12h12.43v5.86h-12.43v14.18h-6.99v-35.02Z"/><path id="C" d="M485.36 210.67h12.19c7.33 0 13.14 2.6 13.14 10.63 0 5.25-2.65 8.51-6.66 10.07l8.17 14.32h-7.8l-7.18-13.23h-4.87v13.23h-6.99v-35.02Zm11.53 16.26c4.49 0 6.99-1.89 6.99-5.62s-2.5-5.06-6.99-5.06h-4.54v10.68h4.54Z"/><path id="D" d="M516.31 228.06c0-11.39 6.38-18 15.64-18s15.64 6.66 15.64 18-6.38 18.29-15.64 18.29-15.64-6.95-15.64-18.29Zm24.15 0c0-7.51-3.31-12-8.51-12s-8.51 4.49-8.51 12 3.31 12.24 8.51 12.24 8.51-4.77 8.51-12.24Z"/><path id="E" d="M554.91 210.67h7.14l10.16 18.67 3.5 7.56h.24c-.33-3.64-.9-8.27-.9-12.24v-13.99h6.62v35.02h-7.09l-10.11-18.71-3.54-7.51h-.24c.33 3.78.85 8.18.85 12.19v14.04h-6.62v-35.02z"/><path id="F" d="M597.72 216.53h-9.83v-5.86h26.75v5.86h-9.92v29.16h-6.99v-29.16Z"/><path id="G" d="M620.78 210.67h21.45v5.86h-14.46v8.08h12.29v5.86h-12.29v9.36h14.98v5.86h-21.97v-35.02Z"/><path id="H" d="M686.18 210.67h9.59c10.68 0 17.3 5.58 17.3 17.39s-6.62 17.63-16.92 17.63h-9.97v-35.02Zm9.17 29.39c6.52 0 10.59-3.5 10.59-12s-4.06-11.77-10.59-11.77h-2.17v23.77h2.17Z"/><path id="I" d="M449.86 351.55c-30.34-32.73-48.89-76.55-48.89-124.7 0-55.8 24.91-105.79 64.22-139.44"/><path id="J" d="M622.03 406.49a184.51 184.51 0 0 1-37.57 3.85c-33.07 0-64.1-8.75-90.9-24.06"/><path id="K" d="M738.84 127.64c18.42 28.6 29.11 62.66 29.11 99.21 0 44.23-15.65 84.81-41.71 116.49"/><path id="L" d="M536.74 49.63c15.22-4.09 31.21-6.27 47.72-6.27 38 0 73.3 11.55 102.59 31.34"/><path id="M" d="M151.2 63.22h2.51l.27 2.97h.1c1.27-2.07 3.11-3.39 5.15-3.39.8 0 1.37.09 1.94.36l-.57 2.4c-.6-.21-1.04-.27-1.77-.27-1.51 0-3.38.96-4.58 3.75v10.47h-3.05V63.22z"/><path id="N" d="m236.84 77.65 1.51-1.8c1.57 1.14 3.21 1.92 5.39 1.92 2.41 0 3.58-1.14 3.58-2.55 0-1.68-2.14-2.4-4.15-3.09-2.54-.84-5.32-1.95-5.32-4.71 0-2.58 2.34-4.62 6.29-4.62 2.24 0 4.22.84 5.62 1.83l-1.47 1.77c-1.24-.84-2.51-1.44-4.12-1.44-2.31 0-3.38 1.08-3.38 2.34 0 1.56 1.87 2.13 3.92 2.82 2.64.9 5.55 1.86 5.55 4.95 0 2.64-2.34 4.83-6.63 4.83-2.58 0-5.05-.96-6.79-2.25Z"/><path id="O" d="M304.1 102.73H46.05v-49.4l15-15H319.1v49.41l-15 15z"/><path id="P" d="M287.99 251.17h-254V202.8l15-15h254v48.37l-15 15z"/><path id="Q" d="M119.14 212.04h2.51l.27 1.86h.1c1.64-1.2 3.68-2.28 5.79-2.28 4.68 0 7.23 3.3 7.23 8.31 0 5.58-3.71 8.79-7.9 8.79-1.64 0-3.38-.69-5.02-1.89l.07 2.85v5.52h-3.05v-23.16zm12.72 7.92c0-3.6-1.34-6.03-4.79-6.03-1.54 0-3.11.78-4.88 2.25v8.55c1.64 1.26 3.25 1.71 4.45 1.71 3.01 0 5.22-2.43 5.22-6.48z"/><path id="R" d="M173.73 220.2c0-5.43 4.12-8.58 8.77-8.58 2.38 0 4.02.9 5.32 1.92l-1.57 1.8c-1.07-.84-2.17-1.44-3.61-1.44-3.31 0-5.72 2.55-5.72 6.3s2.28 6.24 5.62 6.24c1.67 0 3.15-.69 4.28-1.62l1.34 1.83a9.388 9.388 0 0 1-5.89 2.07c-4.82 0-8.53-3.12-8.53-8.52z"/><path id="S" d="M192.47 212.04h2.51l.27 2.97h.1c1.27-2.07 3.11-3.39 5.15-3.39.8 0 1.37.09 1.94.36l-.57 2.4c-.6-.21-1.04-.27-1.77-.27-1.51 0-3.38.96-4.58 3.75v10.47h-3.05v-16.29z"/><path id="T" d="M236.94 223.29v-9.03h-2.71v-2.07l2.84-.15.37-4.59h2.54v4.59h4.92v2.22h-4.92v9.09c0 2.01.7 3.15 2.81 3.15.64 0 1.47-.21 2.08-.42l.6 2.04c-1.04.3-2.24.6-3.35.6-3.88 0-5.19-2.19-5.19-5.43z"/><path id="U" d="M304.1 401.52h-254v-48.37l15-15h254v48.37l-15 15z"/><path id="V" d="M182.19 377.24c0-3.54 3.45-5.31 11.18-6.09 0-2.1-.77-4.11-3.75-4.11-2.11 0-4.02.87-5.45 1.74l-1.2-1.89c1.67-.96 4.25-2.13 7.16-2.13 4.42 0 6.29 2.67 6.29 6.69v10.02h-2.51l-.27-1.95h-.1c-1.74 1.29-3.78 2.34-6.02 2.34-3.05 0-5.32-1.68-5.32-4.62zm11.18.27v-4.56c-6.12.66-8.2 2.01-8.2 4.11 0 1.86 1.41 2.61 3.21 2.61s3.21-.75 4.99-2.16z"/><path id="W" d="M1104.18 97.09h-254V48.72l15-15h254v48.37l-15 15z"/><path id="X" d="M1104.18 395.8h-254v-48.37l15-15h254v48.37l-15 15Z"/><path id="Y" d="M976.93 366.98c0-5.43 3.98-8.58 8.43-8.58s8.43 3.15 8.43 8.58-3.98 8.52-8.43 8.52-8.43-3.12-8.43-8.52Zm13.72 0c0-3.75-2.14-6.3-5.29-6.3s-5.25 2.55-5.25 6.3 2.11 6.24 5.25 6.24 5.29-2.49 5.29-6.24Z"/><path id="Z" d="M998.92 371.87v-20.64h3.05v20.82c0 .84.4 1.17.87 1.17.17 0 .3 0 .64-.06l.43 2.1c-.43.15-.94.24-1.77.24-2.28 0-3.21-1.32-3.21-3.63z"/></defs><g class="N Q"><path d="M762.47 367.02h87.71" class="O R"/><path d="M762.47 367.02h87.71" class="P S"/></g><g class="N Q"><path d="m734.31 336.09 28.16 30.93" class="O R"/><path d="m734.31 336.09 28.16 30.93" class="P S"/></g><g class="N Q"><path d="M773.02 216.47h93.27" class="O R"/><path d="M773.02 216.47h93.27" class="P S"/></g><g class="N U V"><path d="M319.65 67.24h94.56l36.85 25.51" class="O R"/><path d="M319.65 67.24h94.56l36.85 25.51" class="P S"/></g><g class="N Q"><path d="M406.8 366.64h-87.7" class="O R"/><path d="M406.8 366.64h-87.7" class="P S"/></g><g class="N Q"><path d="m434.97 335.71-28.17 30.93" class="O R"/><path d="m434.97 335.71-28.17 30.93" class="P S"/></g><g class="N Q"><path d="M396.25 216.09h-93.26" class="O R"/><path d="M396.25 216.09h-93.26" class="P S"/></g><g class="N U V"><path d="M846.97 68.96h-94.56 0l-36.85 25.51" class="O R"/><path d="M846.97 68.96h-94.56 0l-36.85 25.51" class="P S"/></g><use xlink:href="#B"/><use xlink:href="#C"/><use xlink:href="#D"/><use xlink:href="#E"/><use xlink:href="#F"/><use xlink:href="#G"/><use xlink:href="#E" x="95.41"/><use xlink:href="#H"/><g class="T"><use xlink:href="#B"/><use xlink:href="#C"/><use xlink:href="#D"/><use xlink:href="#E"/><use xlink:href="#F"/><use xlink:href="#G"/><use xlink:href="#E" x="95.41"/><use xlink:href="#H"/></g><g class="N"><circle cx="584.39" cy="227.28" r="161.87" stroke-width="2" class="O"/><circle cx="584.39" cy="227.28" r="161.87" class="P"/></g><g class="N"><circle cx="584.77" cy="227.25" r="183.49" stroke-width="4" class="O"/><circle cx="584.77" cy="227.25" r="183.49" class="P"/></g><g class="N U V"><use xlink:href="#I" class="O W"/><use xlink:href="#I" class="P X"/></g><g class="N U V"><use xlink:href="#J" class="O W"/><use xlink:href="#J" class="P X"/></g><g class="N U V"><use xlink:href="#K" class="O W"/><use xlink:href="#K" class="P X"/></g><g class="N U V"><use xlink:href="#L" class="O W"/><use xlink:href="#L" class="P X"/></g><g opacity=".2"><path fill="#0ff" d="M589.25 85.41h-10.03v-8.78h10.03V85.41zm-30.904-6.595 9.932-1.396 1.223 8.704-9.932 1.396zm-20.37 5.08 9.641-2.765 2.423 8.449-9.641 2.765zm-19.466 7.856 9.163-4.08 3.575 8.03-9.163 4.08zm-18.189 10.488 8.506-5.315 4.658 7.454-8.506 5.315zm-16.538 12.925 7.683-6.447 5.65 6.734-7.683 6.447zm-14.584 15.098 6.711-7.454 6.532 5.882-6.711 7.454zm-12.352 16.971 5.609-8.315 7.287 4.915-5.609 8.315zm-9.865 18.538 4.397-9.015 7.9 3.853-4.397 9.015zm-7.171 19.719 3.099-9.539 8.36 2.716-3.099 9.539zm-4.366 20.537 1.742-9.878 8.656 1.526-1.742 9.878zm-1.478 20.935.35-10.024 8.785.307-.35 10.024zm1.466 20.942-1.048-9.975 8.742-.919 1.048 9.975zm4.351 20.536-2.426-9.732 8.529-2.126 2.426 9.732zm7.173 19.735-3.757-9.3 8.15-3.293 3.757 9.3zm9.847 18.534-5.015-8.686 7.612-4.395 5.015 8.686zm12.339 16.982-6.175-7.904 6.927-5.412 6.175 7.904zm14.579 15.1-7.215-6.967 6.106-6.323 7.215 6.967zm16.536 12.935-8.114-5.895 5.167-7.111 8.114 5.895zm18.189 10.501-8.856-4.709 4.127-7.761 8.856 4.709zm19.456 7.864-9.425-3.43 3.006-8.26 9.425 3.43zm20.361 5.085-9.811-2.085 1.828-8.598 9.811 2.085zm20.881 2.199-10.006-.7.613-8.769 10.006.7zm20.986-.726-10.006.7-.613-8.769 10.006-.7zm20.666-3.635-9.811 2.085-1.828-8.598 9.811-2.085zm19.967-6.485-9.425 3.43-3.006-8.26 9.425-3.43zm18.874-9.197-8.856 4.709-4.127-7.761 8.856-4.709zm17.401-11.737-8.114 5.895-5.167-7.111 8.114-5.895zm15.615-14.043-7.215 6.967-6.106-6.323 7.215-6.967zm13.49-16.075-6.175 7.904-6.927-5.412 6.175-7.904zm11.131-17.801-5.015 8.686-7.612-4.395 5.015-8.686zm8.546-19.176-3.757 9.3-8.15-3.293 3.757-9.3zm5.79-20.171-2.426 9.732-8.529-2.126 2.426-9.732zm2.927-20.792-1.048 9.975-8.742-.919 1.048-9.975zm-.003-20.994.35 10.024-8.785.307-.35-10.024zm-2.908-20.79 1.742 9.878-8.656 1.526-1.742-9.878zm-5.783-20.172 3.099 9.539-8.36 2.716-3.099-9.539zm-12.034-6.321-4.4-9.01 3.88-1.9 4.02-1.95 4.39 9.01-7.89 3.85z"/><path stroke-width="2" d="M588.56 84.75c34.06.92 65.01 13.72 89 34.32" class="N O Q"/><path stroke-width="10" d="m679.67 116.86 5.11 4.59a146.527 146.527 0 0 1 28.51 36.99" class="N O Q"/></g><g class="T"><path d="M98.66 57.49h3.18l2.58 12 1.44 7.11h.13l1.77-7.11 3.38-12h2.84l3.41 12 1.74 7.11h.17l1.41-7.11 2.58-12h2.98l-5.09 22.02h-3.71l-3.71-13.26-1.21-5.01h-.13l-1.24 5.01-3.65 13.26h-3.68l-5.19-22.02zm30.55 13.89c0-5.43 3.98-8.58 8.43-8.58s8.43 3.15 8.43 8.58-3.98 8.52-8.43 8.52-8.43-3.12-8.43-8.52zm13.72 0c0-3.75-2.14-6.3-5.29-6.3s-5.25 2.55-5.25 6.3 2.11 6.24 5.25 6.24 5.29-2.49 5.29-6.24z"/><use xlink:href="#M"/><path d="M163.21 71.38c0-5.28 3.71-8.58 7.86-8.58 2.14 0 3.51.72 5.12 1.92l-.13-2.82v-6.27h3.01v23.88h-2.48l-.27-1.92h-.1c-1.44 1.26-3.35 2.31-5.52 2.31-4.55 0-7.5-3.09-7.5-8.52zm12.85 3.99v-8.55c-1.57-1.23-2.94-1.71-4.45-1.71-2.95 0-5.25 2.52-5.25 6.24 0 3.93 1.81 6.27 5.02 6.27 1.67 0 3.15-.75 4.68-2.25zm9.54-12.15h2.51l.27 1.86h.1c1.64-1.2 3.68-2.28 5.79-2.28 4.68 0 7.23 3.3 7.23 8.31 0 5.58-3.71 8.79-7.9 8.79-1.64 0-3.38-.69-5.02-1.89l.07 2.85v5.52h-3.05V63.22zm12.72 7.92c0-3.6-1.34-6.03-4.79-6.03-1.54 0-3.11.78-4.88 2.25v8.55c1.64 1.26 3.25 1.71 4.45 1.71 3.01 0 5.22-2.43 5.22-6.48z"/><use xlink:href="#M" x="55.49"/><path d="M218.64 71.38c0-5.28 3.98-8.58 8.2-8.58 4.62 0 7.23 3 7.23 7.65 0 .6-.07 1.17-.13 1.56h-12.25c.2 3.48 2.58 5.7 6.02 5.7 1.77 0 3.21-.48 4.55-1.29l1.1 1.8c-1.61.93-3.55 1.68-6.02 1.68-4.82 0-8.7-3.15-8.7-8.52Zm12.75-1.35c0-3.27-1.67-5.04-4.52-5.04-2.58 0-4.85 1.86-5.22 5.04h9.74Z"/><use xlink:href="#N"/><use xlink:href="#N" x="16"/></g><g class="N Q"><use xlink:href="#O" class="O R"/><use xlink:href="#O" class="P S"/></g><g class="N Q"><use xlink:href="#P" class="O R"/><use xlink:href="#P" class="P S"/></g><g class="T"><path d="M86.37 208.68h-7.43v-2.37h17.97v2.37h-7.43v19.65h-3.11v-19.65zm13.16 26.34.6-2.19c.37.12.9.27 1.37.27 2.07 0 3.38-1.5 4.12-3.51l.4-1.23-7.29-16.32h3.18l3.71 9.06 1.74 4.56h.17l1.54-4.56 3.25-9.06h2.98l-6.86 17.64c-1.24 3.21-3.14 5.67-6.76 5.67-.87 0-1.57-.12-2.14-.33z"/><use xlink:href="#Q"/><path d="M138.85 220.2c0-5.28 3.98-8.58 8.2-8.58 4.62 0 7.23 3 7.23 7.65a10.49 10.49 0 0 1-.13 1.56H141.9c.2 3.48 2.58 5.7 6.02 5.7 1.77 0 3.21-.48 4.55-1.29l1.1 1.8c-1.61.93-3.55 1.68-6.02 1.68-4.82 0-8.7-3.15-8.7-8.52zm12.75-1.35c0-3.27-1.67-5.04-4.52-5.04-2.58 0-4.85 1.86-5.22 5.04h9.74zm5.46 7.62 1.51-1.8c1.57 1.14 3.21 1.92 5.39 1.92 2.41 0 3.58-1.14 3.58-2.55 0-1.68-2.14-2.4-4.15-3.09-2.54-.84-5.32-1.95-5.32-4.71 0-2.58 2.34-4.62 6.29-4.62 2.24 0 4.22.84 5.62 1.83l-1.47 1.77c-1.24-.84-2.51-1.44-4.12-1.44-2.31 0-3.38 1.08-3.38 2.34 0 1.56 1.87 2.13 3.92 2.82 2.64.9 5.55 1.86 5.55 4.95 0 2.64-2.34 4.83-6.63 4.83a11.72 11.72 0 0 1-6.79-2.25z"/><use xlink:href="#R"/><use xlink:href="#S"/><path d="M205.28 206.85c0-1.05.84-1.77 2.04-1.77s2.04.72 2.04 1.77c0 1.11-.84 1.83-2.04 1.83s-2.04-.72-2.04-1.83zm.5 5.19h3.05v16.29h-3.05v-16.29z"/><use xlink:href="#Q" x="96.18"/><use xlink:href="#T"/></g><g class="N Q"><use xlink:href="#U" class="O R"/><use xlink:href="#U" class="P S"/></g><g class="T"><path d="M143.1 359.45h7.7c4.99 0 8.57 1.62 8.57 6.21 0 3.42-2.21 5.46-5.55 6.18l6.29 9.63h-3.51l-5.96-9.33h-4.42v9.33h-3.11v-22.02zm7.23 10.44c3.85 0 5.96-1.38 5.96-4.23s-2.11-3.93-5.96-3.93h-4.12v8.16h4.12zm12.75 3.45c0-5.28 3.98-8.58 8.2-8.58 4.62 0 7.23 3 7.23 7.65a10.49 10.49 0 0 1-.13 1.56h-12.25c.2 3.48 2.58 5.7 6.02 5.7 1.77 0 3.21-.48 4.55-1.29l1.1 1.8c-1.61.93-3.55 1.68-6.02 1.68-4.82 0-8.7-3.15-8.7-8.52zm12.75-1.35c0-3.27-1.67-5.04-4.52-5.04-2.58 0-4.85 1.86-5.22 5.04h9.74z"/><use xlink:href="#V"/><use xlink:href="#R" x="27.43" y="153.14"/><use xlink:href="#T" x="-16.5" y="153.14"/></g><g class="N Q"><use xlink:href="#W" class="O R"/><use xlink:href="#W" class="P S"/></g><path d="M936.03 54.38h3.25l3.98 11.94 2.38 7.26h.13l2.38-7.26 3.95-11.94h3.15l-7.8 22.02h-3.58l-7.83-22.02zm22.39 16.05V60.11h3.04v9.99c0 3.03 1 4.32 3.41 4.32 1.87 0 3.18-.81 4.92-2.76V60.11h3.04V76.4h-2.54l-.23-2.55h-.1c-1.71 1.77-3.51 2.94-6.02 2.94-3.81 0-5.52-2.22-5.52-6.36zm19.51-2.16c0-5.28 3.98-8.58 8.2-8.58 4.62 0 7.23 3 7.23 7.65a10.49 10.49 0 0 1-.13 1.56h-12.25c.2 3.48 2.58 5.7 6.02 5.7 1.77 0 3.21-.48 4.55-1.29l1.1 1.8c-1.61.93-3.55 1.68-6.02 1.68-4.82 0-8.7-3.15-8.7-8.52zm12.75-1.35c0-3.27-1.67-5.04-4.52-5.04-2.58 0-4.85 1.86-5.22 5.04h9.74zm5.59 6.39 2.21-1.41c1.1 1.74 2.48 2.46 4.25 2.46 2.64 0 3.95-1.35 3.95-4.68v-15.3h3.08v15.57c0 3.78-1.94 6.84-6.73 6.84-3.11 0-5.32-1.2-6.76-3.48zm18.68.21 1.87-1.89c1.74 1.65 4.22 2.73 6.76 2.73 3.21 0 5.15-1.44 5.15-3.6s-1.77-2.97-4.08-3.9l-3.55-1.38c-2.28-.87-4.99-2.43-4.99-5.64 0-3.39 3.28-5.85 7.73-5.85 2.91 0 5.49 1.11 7.23 2.73l-1.64 1.77c-1.5-1.26-3.31-2.07-5.59-2.07-2.78 0-4.58 1.26-4.58 3.24 0 2.13 2.14 2.94 4.05 3.66l3.51 1.35c2.84 1.11 5.05 2.61 5.05 5.88 0 3.48-3.21 6.24-8.33 6.24-3.48 0-6.46-1.26-8.6-3.27z" class="T"/><use xlink:href="#A" x="833" y="146"/><g class="N Q"><use xlink:href="#U" x="816.19" y="-158.77" class="O R"/><use xlink:href="#U" x="816.19" y="-158.77" class="P S"/></g><g class="T"><path d="M931.86 211.47c0-7.11 4.75-11.43 11.24-11.43 3.41 0 5.66 1.38 7.06 2.73l-1.67 1.8c-1.24-1.17-2.81-2.1-5.32-2.1-4.92 0-8.13 3.42-8.13 8.91s2.91 9.03 8.2 9.03c1.74 0 3.45-.48 4.42-1.29v-5.76h-5.19v-2.31h8.03v9.24c-1.57 1.47-4.28 2.55-7.6 2.55-6.42 0-11.04-4.23-11.04-11.37Z"/><use xlink:href="#S" x="763.92" y="-5.88"/><use xlink:href="#V" x="786.38" y="-159.02"/><use xlink:href="#Q" x="869.78" y="-5.88"/><path d="M1010.01 198.57h3.05v6.54l-.1 3.36c1.67-1.5 3.55-2.73 6.02-2.73 3.81 0 5.55 2.22 5.55 6.39v10.32h-3.04v-9.96c0-3.06-1.04-4.35-3.45-4.35-1.87 0-3.15.84-4.99 2.49v11.82H1010v-23.88zm28.48 24.18c-5.35-.66-8.97-4.92-8.97-11.37 0-7.05 4.32-11.34 10.47-11.34s10.47 4.29 10.47 11.34c0 6.33-3.48 10.53-8.67 11.34 1.1 1.95 3.38 2.94 6.02 2.94 1.1 0 1.94-.15 2.58-.33l.6 2.16c-.74.24-2.04.48-3.51.48-4.52 0-7.63-2.19-9-5.22zm8.8-11.37c0-5.52-2.91-8.91-7.29-8.91s-7.29 3.39-7.29 8.91 2.88 9.18 7.29 9.18 7.29-3.57 7.29-9.18zm8.8-10.95h3.11v19.65h10.71v2.37h-13.82v-22.02z"/></g><use xlink:href="#A" x="817" y="299"/><g class="N Q"><use xlink:href="#X" class="O R"/><use xlink:href="#X" class="P S"/></g><g class="T"><path d="M941.92 353.09h3.45l8.33 22.02h-3.28l-2.34-6.72h-8.97l-2.38 6.72h-3.15l8.33-22.02zm-2.04 13.08h7.43l-1.17-3.36-2.48-7.44h-.13l-2.44 7.44-1.2 3.36z"/><use xlink:href="#Q" x="838.08" y="146.78"/><use xlink:href="#Y"/><use xlink:href="#Z"/><use xlink:href="#Z" x="9.87"/><use xlink:href="#Y" x="40.36"/></g></svg>