<svg xmlns="http://www.w3.org/2000/svg" xmlns:xlink="http://www.w3.org/1999/xlink" viewBox="0 0 1216 503"><style>.N{fill:none}.O{stroke:#0ff}.P{stroke:#fff}.Q{stroke-miterlimit:10}.R{stroke-width:6}.S{stroke-width:3}.T{fill:#fff}.U{stroke-linecap:round}.V{stroke-linejoin:round}.W{stroke-width:13}.X{stroke-width:8}</style><g class="N Q"><path d="M788.16 382.17h87.7" class="O R"/><path d="M788.16 382.17h87.7" class="P S"/></g><g class="N Q"><path d="m760 351.25 28.16 30.92" class="O R"/><path d="m760 351.25 28.16 30.92" class="P S"/></g><g class="N Q"><path d="M798.71 231.63h93.26" class="O R"/><path d="M798.71 231.63h93.26" class="P S"/></g><g class="N U V"><path d="M875.86 85.85h-94.55 0l-36.85 25.51" class="O R"/><path d="M875.86 85.85h-94.55 0l-36.85 25.51" class="P S"/></g><g class="N Q"><path d="M432.49 381.8h-87.71" class="O R"/><path d="M432.49 381.8h-87.71" class="P S"/></g><g class="N Q"><path d="m460.65 350.87-28.16 30.93" class="O R"/><path d="m460.65 350.87-28.16 30.93" class="P S"/></g><g class="N Q"><path d="M421.94 231.25h-93.27" class="O R"/><path d="M421.94 231.25h-93.27" class="P S"/></g><g class="N U V"><path d="M344.78 81.95h94.56l36.85 25.51" class="O R"/><path d="M344.78 81.95h94.56l36.85 25.51" class="P S"/></g><use xlink:href="#B"/><use xlink:href="#C"/><use xlink:href="#D"/><use xlink:href="#E"/><use xlink:href="#F"/><use xlink:href="#G"/><use xlink:href="#H"/><use xlink:href="#I"/><use xlink:href="#J"/><g class="T"><use xlink:href="#B"/><use xlink:href="#C"/><use xlink:href="#D"/><use xlink:href="#E"/><use xlink:href="#F"/><use xlink:href="#G"/><use xlink:href="#H"/><use xlink:href="#I"/><use xlink:href="#J"/></g><g class="N"><circle cx="610.08" cy="242.43" r="161.87" stroke-width="2" class="O"/><circle cx="610.08" cy="242.43" r="161.87" class="P"/></g><g class="N"><circle cx="610.46" cy="242.41" r="183.49" stroke-width="4" class="O"/><circle cx="610.46" cy="242.41" r="183.49" class="P"/></g><g class="N U V"><use xlink:href="#K" class="O W"/><use xlink:href="#K" class="P X"/></g><g class="N U V"><use xlink:href="#L" class="O W"/><use xlink:href="#L" class="P X"/></g><g class="N U V"><use xlink:href="#M" class="O W"/><use xlink:href="#M" class="P X"/></g><g class="N U V"><use xlink:href="#N" class="O W"/><use xlink:href="#N" class="P X"/></g><g opacity=".2"><path fill="#0ff" d="M614.94 100.57h-10.03v-8.79h10.03v8.79zm-30.914-6.597 9.932-1.396 1.223 8.704-9.932 1.396zm-20.359 5.074 9.641-2.765 2.423 8.449-9.641 2.765zm-19.472 7.864 9.163-4.08 3.575 8.03-9.163 4.08zm-18.184 10.481 8.506-5.315 4.658 7.454-8.506 5.315zm-16.534 12.922 7.683-6.447 5.65 6.734-7.683 6.447zm-14.599 15.094 6.711-7.454 6.532 5.882-6.711 7.454zm-12.337 16.985 5.609-8.315 7.287 4.915-5.609 8.315zm-9.861 18.534 4.397-9.015 7.9 3.853-4.397 9.015zm-7.182 19.725 3.099-9.539 8.36 2.716-3.099 9.539zm-4.372 20.526 1.742-9.878 8.656 1.526-1.742 9.878zm-1.472 20.939.35-10.024 8.785.307-.35 10.024zm1.461 20.943-1.048-9.975 8.742-.919 1.048 9.975zm4.364 20.536-2.426-9.732 8.529-2.126 2.426 9.732zm7.171 19.73-3.757-9.3 8.15-3.293 3.757 9.3zm9.843 18.543-5.015-8.686 7.612-4.395 5.015 8.686zm12.346 16.982-6.175-7.904 6.927-5.412 6.175 7.904zm14.581 15.106-7.215-6.967 6.106-6.323 7.215 6.967zm16.534 12.93-8.114-5.895 5.167-7.111 8.114 5.895zm18.177 10.494-8.856-4.709 4.127-7.761 8.856 4.709zm19.456 7.868-9.425-3.43 3.006-8.26 9.425 3.43zm20.368 5.089-9.811-2.085 1.828-8.598 9.811 2.085zm20.88 2.192-10.006-.7.613-8.769 10.006.7zm20.981-.722-10.006.7-.613-8.769 10.006-.7zm20.67-3.642-9.811 2.085-1.828-8.598 9.811-2.085zm19.963-6.476-9.425 3.43-3.006-8.26 9.425-3.43zm18.879-9.203-8.856 4.709-4.127-7.761 8.856-4.709zm17.402-11.728-8.114 5.895-5.167-7.111 8.114-5.895zm15.604-14.046-7.215 6.967-6.106-6.323 7.215-6.967zm13.498-16.085-6.175 7.904-6.927-5.412 6.175-7.904zm11.124-17.803-5.015 8.686-7.612-4.395 5.015-8.686zm8.545-19.165-3.757 9.3-8.15-3.293 3.757-9.3zm5.795-20.172-2.426 9.732-8.529-2.126 2.426-9.732zm2.92-20.796-1.048 9.975-8.742-.919 1.048-9.975zm.015-20.986.35 10.024-8.785.307-.35-10.024zm-2.922-20.791 1.742 9.878-8.656 1.526-1.742-9.878zm-5.784-20.177 3.099 9.539-8.36 2.716-3.099-9.539zm-12.035-6.318-4.39-9.02 3.88-1.89 4.01-1.96 4.4 9.02-7.9 3.85z"/><path stroke-width="2" d="M614.25 99.91c34.06.92 65.01 13.72 89 34.32" class="N O Q"/><path stroke-width="10" d="m705.36 132.02 5.11 4.59a146.527 146.527 0 0 1 28.51 36.99" class="N O Q"/></g><g class="T"><path d="M97.61 51.11h7.03c5.49 0 9.17 1.68 9.17 6.48s-3.65 6.81-9.04 6.81h-4.05v8.73h-3.11V51.11zm6.76 11.04c4.32 0 6.36-1.41 6.36-4.56s-2.18-4.2-6.49-4.2h-3.51v8.76h3.65z"/><use xlink:href="#O"/><use xlink:href="#P"/><path d="M151.52 59.06h-2.48v-2.07l2.48-.15v-2.61c0-3.3 1.67-5.37 5.29-5.37 1.1 0 2.21.21 3.05.54l-.67 2.07c-.67-.27-1.41-.42-2.04-.42-1.74 0-2.58 1.11-2.58 3.21v2.58h3.85v2.22h-3.85v14.07h-3.05V59.06zm9.34 5.94c0-5.43 3.98-8.58 8.43-8.58s8.43 3.15 8.43 8.58-3.98 8.52-8.43 8.52-8.43-3.12-8.43-8.52zm13.72 0c0-3.75-2.14-6.3-5.29-6.3s-5.25 2.55-5.25 6.3 2.11 6.24 5.25 6.24 5.29-2.49 5.29-6.24z"/><use xlink:href="#P" x="45.15"/><path d="M196.17 56.84h2.51l.27 2.37h.1c1.57-1.56 3.48-2.79 5.66-2.79 2.78 0 4.28 1.2 5.02 3.12 1.87-1.83 3.78-3.12 5.99-3.12 3.75 0 5.52 2.22 5.52 6.39v10.32h-3.04v-9.96c0-3.06-1.07-4.35-3.38-4.35-1.41 0-2.88.81-4.58 2.49v11.82h-3.04v-9.96c0-3.06-1.07-4.35-3.38-4.35-1.37 0-2.91.81-4.58 2.49v11.82h-3.05V56.84z"/><use xlink:href="#Q"/><path d="M246.7 56.84h2.51l.27 2.34h.1c1.74-1.53 3.61-2.76 6.09-2.76 3.81 0 5.55 2.22 5.55 6.39v10.32h-3.04v-9.96c0-3.06-1.04-4.35-3.45-4.35-1.87 0-3.15.84-4.99 2.49v11.82h-3.05V56.84z"/><use xlink:href="#R"/><use xlink:href="#O" x="166.03"/><path d="M118.54 94.72h2.51l.27 2.37h.1c1.57-1.56 3.48-2.79 5.66-2.79 2.78 0 4.28 1.2 5.02 3.12 1.87-1.83 3.78-3.12 5.99-3.12 3.75 0 5.52 2.22 5.52 6.39v10.32h-3.04v-9.96c0-3.06-1.07-4.35-3.38-4.35-1.41 0-2.88.81-4.58 2.49v11.82h-3.04v-9.96c0-3.06-1.07-4.35-3.38-4.35-1.37 0-2.91.81-4.58 2.49v11.82h-3.05V94.72z"/><use xlink:href="#S"/><path d="M169.08 94.72h2.51l.27 2.97h.1c1.27-2.07 3.11-3.39 5.15-3.39.8 0 1.37.09 1.94.36l-.57 2.4c-.6-.21-1.04-.27-1.77-.27-1.51 0-3.38.96-4.58 3.75v10.47h-3.05V94.72zm13.32-7.59h3.01v16.2h.1l7.73-8.61h3.41l-6.06 6.57 6.86 9.72h-3.31l-5.32-7.86-3.41 3.57v4.29h-3.01V87.13zm17.43 15.75c0-5.28 3.98-8.58 8.2-8.58 4.62 0 7.23 3 7.23 7.65a10.49 10.49 0 0 1-.13 1.56h-12.25c.2 3.48 2.58 5.7 6.02 5.7 1.77 0 3.21-.48 4.55-1.29l1.1 1.8c-1.61.93-3.55 1.68-6.02 1.68-4.82 0-8.7-3.15-8.7-8.52zm12.75-1.35c0-3.27-1.67-5.04-4.52-5.04-2.58 0-4.85 1.86-5.22 5.04h9.74z"/><use xlink:href="#T"/><path d="M232.53 89.53c0-1.05.84-1.77 2.04-1.77s2.04.72 2.04 1.77c0 1.11-.84 1.83-2.04 1.83s-2.04-.72-2.04-1.83zm.5 5.19h3.05v16.29h-3.05V94.72zm9.54 0h2.51l.27 2.34h.1c1.74-1.53 3.61-2.76 6.09-2.76 3.81 0 5.55 2.22 5.55 6.39v10.32h-3.04v-9.96c0-3.06-1.04-4.35-3.45-4.35-1.87 0-3.15.84-4.99 2.49v11.82h-3.05V94.72z"/><use xlink:href="#U"/></g><g class="N Q"><use xlink:href="#V" class="O R"/><use xlink:href="#V" class="P S"/></g><g class="N Q"><use xlink:href="#W" class="O R"/><use xlink:href="#W" class="P S"/></g><g class="T"><path d="M103.92 199.94h3.11v22.02h-3.11v-22.02Z"/><use xlink:href="#X"/><path d="M135.08 207.89h-2.48v-2.07l2.48-.15v-2.61c0-3.3 1.67-5.37 5.29-5.37 1.1 0 2.21.21 3.05.54l-.67 2.07c-.67-.27-1.41-.42-2.04-.42-1.74 0-2.58 1.11-2.58 3.21v2.58h3.85v2.22h-3.85v14.07h-3.05v-14.07zm10.37 10.83v-20.64h3.08v20.82c0 .84.4 1.17.84 1.17.17 0 .33 0 .67-.06l.4 2.1c-.43.15-.94.24-1.74.24-2.28 0-3.25-1.32-3.25-3.63zm9.64-2.73v-10.32h3.04v9.99c0 3.03 1 4.32 3.41 4.32 1.87 0 3.18-.81 4.92-2.76v-11.55h3.04v16.29h-2.54l-.23-2.55h-.1c-1.71 1.77-3.51 2.94-6.02 2.94-3.81 0-5.52-2.22-5.52-6.36z"/><use xlink:href="#Y"/><use xlink:href="#X" x="81.06"/><use xlink:href="#R" x="-51.86" y="148.83"/><use xlink:href="#Y" x="57.03"/><use xlink:href="#Z"/><use xlink:href="#a"/><use xlink:href="#S" x="-16.11" y="148.82"/><use xlink:href="#Z" x="-98.92" y="37.87"/><path d="M166.29 235.96h3.01v16.2h.1l7.73-8.61h3.41l-6.06 6.57 6.86 9.72h-3.31l-5.32-7.86-3.41 3.57v4.29h-3.01v-23.88zm17.43 15.74c0-5.28 3.98-8.58 8.2-8.58 4.62 0 7.23 3 7.23 7.65a10.49 10.49 0 0 1-.13 1.56h-12.25c.2 3.48 2.58 5.7 6.02 5.7 1.77 0 3.21-.48 4.55-1.29l1.1 1.8c-1.61.93-3.55 1.68-6.02 1.68-4.82 0-8.7-3.15-8.7-8.52zm12.75-1.35c0-3.27-1.67-5.04-4.52-5.04-2.58 0-4.85 1.86-5.22 5.04h9.74z"/><use xlink:href="#T" x="-16.11" y="148.82"/><use xlink:href="#b"/><use xlink:href="#c"/><use xlink:href="#U" x="-16.11" y="148.82"/></g><g class="N Q"><use xlink:href="#d" class="O R"/><use xlink:href="#d" class="P S"/></g><g class="T"><path d="m96.63 372.56 1.87-1.89c1.74 1.65 4.22 2.73 6.76 2.73 3.21 0 5.15-1.44 5.15-3.6s-1.77-2.97-4.08-3.9l-3.55-1.38c-2.28-.87-4.99-2.43-4.99-5.64 0-3.39 3.28-5.85 7.73-5.85 2.91 0 5.49 1.11 7.23 2.73l-1.64 1.77c-1.51-1.26-3.31-2.07-5.59-2.07-2.78 0-4.58 1.26-4.58 3.24 0 2.13 2.14 2.94 4.05 3.66l3.51 1.35c2.84 1.11 5.05 2.61 5.05 5.88 0 3.48-3.21 6.24-8.33 6.24-3.48 0-6.46-1.26-8.6-3.27zm20.45-5.25c0-5.43 3.98-8.58 8.43-8.58s8.43 3.15 8.43 8.58-3.98 8.52-8.43 8.52-8.43-3.12-8.43-8.52zm13.72 0c0-3.75-2.14-6.3-5.29-6.3s-5.25 2.55-5.25 6.3 2.11 6.24 5.25 6.24 5.29-2.49 5.29-6.24z"/><use xlink:href="#R" x="-128.42" y="302.31"/><use xlink:href="#b" x="-60.48" y="115.61"/><use xlink:href="#Q" x="-61.52" y="302.31"/><use xlink:href="#e"/><use xlink:href="#a" x="100.46" y="115.61"/><path d="M232.85 367.31c0-5.28 3.98-8.58 8.2-8.58 4.62 0 7.23 3 7.23 7.65a10.49 10.49 0 0 1-.13 1.56H235.9c.2 3.48 2.58 5.7 6.02 5.7 1.77 0 3.21-.48 4.55-1.29l1.1 1.8c-1.61.93-3.55 1.68-6.02 1.68-4.82 0-8.7-3.15-8.7-8.52zm12.75-1.35c0-3.27-1.67-5.04-4.52-5.04-2.58 0-4.85 1.86-5.22 5.04h9.74zm6.19 1.35c0-5.28 3.71-8.58 7.86-8.58 2.14 0 3.51.72 5.12 1.92l-.13-2.82v-6.27h3.01v23.88h-2.48l-.27-1.92h-.1c-1.44 1.26-3.35 2.31-5.52 2.31-4.55 0-7.5-3.09-7.5-8.52zm12.85 3.99v-8.55c-1.57-1.23-2.94-1.71-4.45-1.71-2.95 0-5.25 2.52-5.25 6.24 0 3.93 1.81 6.27 5.02 6.27 1.67 0 3.15-.75 4.68-2.25z"/><use xlink:href="#b" x="57.26" y="115.61"/><use xlink:href="#S" x="133.85" y="264.43"/><use xlink:href="#a" x="16.11" y="153.49"/><use xlink:href="#S" y="302.31"/><use xlink:href="#Z" x="-82.8" y="191.36"/><path d="M182.4 389.44h3.01v16.2h.1l7.73-8.61h3.41l-6.06 6.57 6.86 9.72h-3.31l-5.32-7.86-3.41 3.57v4.29h-3.01v-23.88zm17.43 15.75c0-5.28 3.98-8.58 8.2-8.58 4.62 0 7.23 3 7.23 7.65a10.49 10.49 0 0 1-.13 1.56h-12.25c.2 3.48 2.58 5.7 6.02 5.7 1.77 0 3.21-.48 4.55-1.29l1.1 1.8c-1.61.93-3.55 1.68-6.02 1.68-4.82 0-8.7-3.15-8.7-8.52zm12.75-1.35c0-3.27-1.67-5.04-4.52-5.04-2.58 0-4.85 1.86-5.22 5.04h9.74z"/><use xlink:href="#T" y="302.31"/><use xlink:href="#b" x="16.11" y="153.49"/><use xlink:href="#c" x="16.11" y="153.49"/><use xlink:href="#U" y="302.31"/></g><g class="N Q"><use xlink:href="#f" class="O R"/><use xlink:href="#f" class="P S"/></g><g class="T"><path d="M911.53 71.46h-7.43v-2.37h17.97v2.37h-7.43v19.65h-3.11V71.46z"/><use xlink:href="#g"/><path d="M945.4 87.86V67.22h3.05v20.82c0 .84.4 1.17.87 1.17.17 0 .3 0 .64-.06l.43 2.1c-.43.15-.94.24-1.77.24-2.28 0-3.21-1.32-3.21-3.63z"/><use xlink:href="#g" x="28.75"/><path d="M974.15 74.82h2.51l.27 2.37h.1c1.57-1.56 3.48-2.79 5.66-2.79 2.78 0 4.28 1.2 5.02 3.12 1.87-1.83 3.78-3.12 5.99-3.12 3.75 0 5.52 2.22 5.52 6.39v10.32h-3.04v-9.96c0-3.06-1.07-4.35-3.38-4.35-1.41 0-2.88.81-4.58 2.49v11.82h-3.04v-9.96c0-3.06-1.07-4.35-3.38-4.35-1.37 0-2.91.81-4.58 2.49v11.82h-3.05V74.82z"/><use xlink:href="#Q" x="777.98" y="17.98"/><path d="M1024.69 74.82h2.51l.27 2.97h.1c1.27-2.07 3.11-3.39 5.15-3.39.8 0 1.37.09 1.94.36l-.57 2.4c-.6-.21-1.04-.27-1.77-.27-1.51 0-3.38.96-4.58 3.75v10.47h-3.05V74.82zm13.32-7.59h3.01v16.2h.1l7.73-8.61h3.41l-6.06 6.57 6.86 9.72h-3.31l-5.32-7.86-3.41 3.57v4.29h-3.01V67.23z"/><use xlink:href="#g" x="130.29"/><use xlink:href="#T" x="855.61" y="-19.91"/><path d="M1088.14 69.62c0-1.05.84-1.77 2.04-1.77s2.04.72 2.04 1.77c0 1.11-.84 1.83-2.04 1.83s-2.04-.72-2.04-1.83zm.5 5.19h3.05V91.1h-3.05V74.81zm9.54.01h2.51l.27 2.34h.1c1.74-1.53 3.61-2.76 6.09-2.76 3.81 0 5.55 2.22 5.55 6.39v10.32h-3.04v-9.96c0-3.06-1.04-4.35-3.45-4.35-1.87 0-3.15.84-4.99 2.49v11.82h-3.05V74.82z"/><use xlink:href="#U" x="855.61" y="-19.91"/></g><g class="N Q"><use xlink:href="#h" class="O R"/><use xlink:href="#h" class="P S"/></g><g class="T"><path d="M919.67 221.07h6.16c7.53 0 11.58 3.96 11.58 10.95s-4.05 11.07-11.44 11.07h-6.29v-22.02Zm5.89 19.74c5.79 0 8.63-3.24 8.63-8.79s-2.84-8.67-8.63-8.67h-2.78v17.46h2.78Z"/><use xlink:href="#i"/><use xlink:href="#U" x="688.92" y="132.08"/><use xlink:href="#i" x="28.71"/><use xlink:href="#T" x="760.9" y="132.08"/><use xlink:href="#S" x="844.07" y="132.08"/><use xlink:href="#e" x="827.96" y="-132.35"/><path d="m1028.81 241.23 1.51-1.8c1.57 1.14 3.21 1.92 5.39 1.92 2.41 0 3.58-1.14 3.58-2.55 0-1.68-2.14-2.4-4.15-3.09-2.54-.84-5.32-1.95-5.32-4.71 0-2.58 2.34-4.62 6.29-4.62 2.24 0 4.22.84 5.62 1.83l-1.47 1.77c-1.24-.84-2.51-1.44-4.12-1.44-2.31 0-3.38 1.08-3.38 2.34 0 1.56 1.87 2.13 3.92 2.82 2.64.9 5.55 1.86 5.55 4.95 0 2.64-2.34 4.83-6.63 4.83-2.58 0-5.05-.96-6.79-2.25Z"/><use xlink:href="#T" x="826.76" y="132.08"/><path d="M1059.8 226.8h2.51l.27 2.97h.1c1.27-2.07 3.11-3.39 5.15-3.39.8 0 1.37.09 1.94.36l-.57 2.4c-.6-.21-1.04-.27-1.77-.27-1.51 0-3.38.96-4.58 3.75v10.47h-3.05V226.8z"/><use xlink:href="#S" x="923.25" y="132.08"/><use xlink:href="#T" x="872.25" y="132.08"/><path d="M1103.91 234.96c0-5.28 3.98-8.58 8.2-8.58 4.62 0 7.23 3 7.23 7.65 0 .6-.07 1.17-.13 1.56h-12.25c.2 3.48 2.58 5.7 6.02 5.7 1.77 0 3.21-.48 4.55-1.29l1.1 1.8c-1.61.93-3.55 1.68-6.02 1.68-4.82 0-8.7-3.15-8.7-8.52Zm12.75-1.35c0-3.27-1.67-5.04-4.52-5.04-2.58 0-4.85 1.86-5.22 5.04h9.74Z"/><use xlink:href="#U" x="860.81" y="132.08"/><path d="m1141.49 249.78.6-2.19c.37.12.9.27 1.37.27 2.07 0 3.38-1.5 4.12-3.51l.4-1.23-7.29-16.32h3.18l3.71 9.06 1.74 4.56h.17l1.54-4.56 3.25-9.06h2.98l-6.86 17.64c-1.24 3.21-3.14 5.67-6.76 5.67-.87 0-1.57-.12-2.14-.33z"/></g><g class="N Q"><use xlink:href="#j" class="O R"/><use xlink:href="#j" class="P S"/></g><g class="T"><path d="M963.45 355.63h6.57c4.49 0 7.59 1.38 7.59 4.86 0 1.97-1.17 3.7-3.22 4.29v.13c2.62.46 4.49 2.02 4.49 4.72 0 3.89-3.43 5.8-8.37 5.8h-7.05v-19.81zm6.08 8.45c3.79 0 5.33-1.27 5.33-3.27 0-2.32-1.78-3.19-5.21-3.19h-3.4v6.45h3.28zm.57 9.37c3.79 0 6.02-1.21 6.02-3.89 0-2.46-2.17-3.59-6.02-3.59h-3.86v7.48h3.86zm12.99-3.38v-9.29h2.74v8.99c0 2.73.9 3.89 3.07 3.89 1.69 0 2.86-.73 4.43-2.48v-10.39h2.74v14.66h-2.29l-.21-2.29h-.09c-1.54 1.59-3.16 2.64-5.42 2.64-3.43 0-4.97-2-4.97-5.72zm16.96 3.7 1.36-1.62c1.42 1.03 2.89 1.73 4.85 1.73 2.17 0 3.22-1.03 3.22-2.29 0-1.51-1.93-2.16-3.73-2.78-2.29-.76-4.79-1.75-4.79-4.24 0-2.32 2.11-4.16 5.66-4.16 2.02 0 3.79.76 5.06 1.65l-1.33 1.59c-1.11-.76-2.26-1.3-3.71-1.3-2.08 0-3.04.97-3.04 2.11 0 1.4 1.69 1.92 3.52 2.54 2.38.81 5 1.67 5 4.45 0 2.38-2.11 4.35-5.96 4.35a10.54 10.54 0 0 1-6.11-2.02zm15.78-17.65c0-.94.75-1.59 1.84-1.59s1.84.65 1.84 1.59c0 1-.75 1.65-1.84 1.65s-1.84-.65-1.84-1.65zm.45 4.67h2.74v14.66h-2.74v-14.66zm8.59 0h2.26l.24 2.11h.09c1.57-1.38 3.25-2.48 5.48-2.48 3.43 0 5 2 5 5.75v9.29h-2.74v-8.96c0-2.75-.93-3.91-3.1-3.91-1.69 0-2.83.76-4.49 2.24v10.63h-2.74V360.8zm17.46 7.34c0-4.75 3.58-7.72 7.38-7.72 4.16 0 6.51 2.7 6.51 6.88a8.59 8.59 0 0 1-.12 1.4h-11.02c.18 3.13 2.32 5.13 5.42 5.13 1.6 0 2.89-.43 4.1-1.16l.99 1.62c-1.45.84-3.19 1.51-5.42 1.51-4.34 0-7.83-2.83-7.83-7.67zm11.48-1.21c0-2.94-1.51-4.54-4.07-4.54-2.32 0-4.37 1.67-4.7 4.54h8.77z"/><use xlink:href="#k"/><use xlink:href="#k" x="14.4"/><path d="M929.65 406.01c0-4.75 3.34-7.72 7.08-7.72 1.93 0 3.16.65 4.61 1.73l-.12-2.54v-5.64h2.71v21.49h-2.23l-.24-1.73h-.09c-1.29 1.13-3.01 2.08-4.97 2.08-4.1 0-6.75-2.78-6.75-7.67zm11.57 3.59v-7.69c-1.42-1.11-2.65-1.54-4.01-1.54-2.65 0-4.73 2.27-4.73 5.61 0 3.54 1.63 5.64 4.52 5.64 1.51 0 2.83-.67 4.22-2.02z"/><use xlink:href="#l"/><path d="M964.41 398.67h2.86l3.07 8.34 1.54 4.32h.12l1.51-4.32 3.1-8.34h2.71l-5.81 14.66h-3.19l-5.9-14.66zm17.14 7.34c0-4.75 3.58-7.72 7.38-7.72 4.16 0 6.51 2.7 6.51 6.88a8.59 8.59 0 0 1-.12 1.4H984.3c.18 3.13 2.32 5.13 5.42 5.13 1.6 0 2.89-.43 4.1-1.16l.99 1.62c-1.45.84-3.19 1.51-5.42 1.51-4.34 0-7.83-2.83-7.83-7.67zm11.48-1.21c0-2.94-1.51-4.54-4.07-4.54-2.32 0-4.37 1.67-4.7 4.54h8.77z"/><use xlink:href="#m"/><path d="M1007.42 406.01c0-4.89 3.58-7.72 7.59-7.72s7.59 2.83 7.59 7.72-3.58 7.67-7.59 7.67-7.59-2.81-7.59-7.67zm12.35 0c0-3.37-1.93-5.67-4.76-5.67s-4.73 2.29-4.73 5.67 1.9 5.62 4.73 5.62 4.76-2.24 4.76-5.62zm7.44-7.34h2.26l.24 1.67h.09c1.48-1.08 3.31-2.05 5.21-2.05 4.22 0 6.51 2.97 6.51 7.48 0 5.02-3.34 7.91-7.11 7.91-1.48 0-3.04-.62-4.52-1.7l.06 2.56v4.97h-2.74v-20.84zm11.45 7.13c0-3.24-1.2-5.42-4.31-5.42-1.39 0-2.8.7-4.4 2.02v7.69c1.48 1.13 2.92 1.54 4.01 1.54 2.71 0 4.7-2.19 4.7-5.83zm7.53-7.13h2.26l.24 2.13h.09c1.42-1.4 3.13-2.51 5.09-2.51 2.5 0 3.86 1.08 4.52 2.81 1.69-1.65 3.4-2.81 5.39-2.81 3.37 0 4.97 2 4.97 5.75v9.29h-2.74v-8.96c0-2.75-.96-3.91-3.04-3.91-1.27 0-2.59.73-4.13 2.24v10.63h-2.74v-8.96c0-2.75-.96-3.91-3.04-3.91-1.24 0-2.62.73-4.13 2.24v10.63h-2.74v-14.66z"/><use xlink:href="#l" x="124.58"/><use xlink:href="#n"/><path d="M1110.56 408.79v-8.12h-2.44v-1.86l2.56-.13.33-4.13h2.29v4.13h4.43v2h-4.43v8.18c0 1.81.63 2.83 2.53 2.83.57 0 1.33-.19 1.87-.38l.54 1.84c-.93.27-2.02.54-3.01.54-3.49 0-4.67-1.97-4.67-4.89z"/><use xlink:href="#o"/><use xlink:href="#n" x="-114.79" y="37.87"/><path d="M994.11 443.89c0-4.75 3.34-7.72 7.08-7.72 1.93 0 3.16.65 4.61 1.73l-.12-2.54v-5.64h2.71v21.49h-2.23l-.24-1.73h-.09c-1.29 1.13-3.01 2.08-4.97 2.08-4.1 0-6.75-2.78-6.75-7.67zm11.57 3.59v-7.69c-1.42-1.11-2.65-1.54-4.01-1.54-2.65 0-4.73 2.27-4.73 5.62 0 3.54 1.63 5.64 4.52 5.64 1.51 0 2.83-.67 4.22-2.02z"/><use xlink:href="#k" x="-39.25" y="75.76"/><use xlink:href="#o" x="76.42"/><use xlink:href="#m" x="53.23" y="37.88"/><path d="M1060.65 443.89c0-4.75 3.58-7.72 7.38-7.72 4.16 0 6.51 2.7 6.51 6.88 0 .54-.06 1.05-.12 1.4h-11.02c.18 3.13 2.32 5.13 5.42 5.13 1.6 0 2.89-.43 4.1-1.16l.99 1.62c-1.45.84-3.19 1.51-5.42 1.51-4.34 0-7.83-2.83-7.83-7.67Zm11.48-1.21c0-2.94-1.51-4.54-4.07-4.54-2.32 0-4.37 1.67-4.7 4.54h8.77Z"/><use xlink:href="#k" x="18.31" y="75.76"/></g><defs><path id="B" d="M485.97 220.4h7.75l5.95 16.4 2.13 6.71h.24l2.13-6.71 5.81-16.4h7.75v35.02h-6.38v-14.6c0-3.31.52-8.17.9-11.48h-.24l-2.84 8.22-5.39 14.7h-4.02l-5.43-14.7-2.79-8.22h-.19c.33 3.31.9 8.18.9 11.48v14.6h-6.28V220.4z"/><path id="C" d="M526.32 248.24c0-5.67 4.58-8.65 15.26-9.78-.14-2.6-1.28-4.58-4.54-4.58-2.46 0-4.82 1.09-7.28 2.5l-2.5-4.58c3.12-1.94 6.9-3.5 11.06-3.5 6.71 0 10.16 4.02 10.16 11.67v15.45h-5.67l-.47-2.83h-.19c-2.32 1.98-4.96 3.5-7.99 3.5-4.73 0-7.84-3.35-7.84-7.84zm15.26-.19v-5.34c-6.47.8-8.65 2.6-8.65 4.96 0 2.08 1.46 2.98 3.5 2.98s3.45-.95 5.15-2.6z"/><path id="D" d="M557.46 228.96h5.67l.52 4.68h.14c1.94-3.45 4.77-5.34 7.51-5.34 1.46 0 2.32.24 3.12.57l-1.18 6c-.94-.28-1.7-.42-2.79-.42-2.08 0-4.58 1.37-6.05 5.2v15.78h-6.95v-26.46z"/><path id="E" d="M579.96 217.71h6.85v22.64h.19l9.03-11.39h7.61l-9.07 10.92 9.92 15.55h-7.51l-6.43-10.96-3.73 4.25v6.71h-6.85v-37.71Z"/><path id="F" d="M608.78 242.19c0-8.55 6.05-13.89 12.33-13.89 7.28 0 11.06 5.34 11.06 12.62 0 1.32-.14 2.6-.33 3.21h-16.3c.57 4.35 3.4 6.62 7.33 6.62 2.17 0 4.06-.66 5.95-1.84l2.36 4.25c-2.6 1.8-5.95 2.93-9.21 2.93-7.42 0-13.18-5.15-13.18-13.89Zm17.44-2.69c0-3.54-1.61-5.81-5.01-5.81-2.79 0-5.25 1.99-5.77 5.81h10.77Z"/><path id="G" d="M640.77 246.16v-11.72h-3.73v-5.15l4.11-.33.8-7.14h5.76v7.14h6.52v5.48h-6.52v11.72c0 3.02 1.23 4.44 3.59 4.44.85 0 1.89-.28 2.6-.57l1.13 5.06c-1.42.47-3.26.99-5.58.99-6.29 0-8.7-4.02-8.7-9.92z"/><path id="H" d="M660.95 220.88c0-2.27 1.65-3.78 4.06-3.78s4.02 1.51 4.02 3.78-1.65 3.83-4.02 3.83-4.06-1.51-4.06-3.83Zm.57 8.08h6.95v26.46h-6.95v-26.46Z"/><path id="I" d="M677.77 228.96h5.67l.52 3.5h.14c2.32-2.27 5.01-4.16 8.6-4.16 5.72 0 8.18 3.97 8.18 10.63v16.49h-6.95v-15.64c0-4.11-1.13-5.53-3.73-5.53-2.17 0-3.54 1.04-5.48 2.98v18.19h-6.95v-26.46Z"/><path id="J" d="M708.2 260.1c0-2.22 1.37-4.11 3.78-5.48v-.24c-1.37-.9-2.41-2.27-2.41-4.44 0-1.99 1.37-3.83 2.98-4.96v-.19c-1.84-1.32-3.54-3.83-3.54-6.95 0-6.19 5.06-9.55 10.68-9.55a12.44 12.44 0 0 1 3.97.66h9.55v5.1h-4.49c.66.9 1.18 2.36 1.18 4.02 0 5.95-4.54 8.98-10.21 8.98-1.04 0-2.27-.24-3.4-.61-.71.61-1.13 1.18-1.13 2.27 0 1.42 1.04 2.17 4.16 2.17h4.49c6.38 0 9.88 1.99 9.88 6.62 0 5.34-5.58 9.4-14.41 9.4-6.24 0-11.06-2.13-11.06-6.8zm18.81-1.42c0-1.89-1.56-2.36-4.39-2.36h-3.21c-1.61 0-2.74-.14-3.69-.38-1.18.95-1.7 1.99-1.7 3.07 0 2.22 2.46 3.5 6.29 3.5s6.71-1.75 6.71-3.83zm-3.17-20.84c0-3.07-1.8-4.82-4.16-4.82s-4.16 1.75-4.16 4.82 1.84 4.91 4.16 4.91 4.16-1.75 4.16-4.91z"/><path id="K" d="M475.55 366.71c-30.34-32.73-48.89-76.55-48.89-124.7 0-55.8 24.91-105.79 64.22-139.44"/><path id="L" d="M647.72 421.64a184.51 184.51 0 0 1-37.57 3.85c-33.07 0-64.1-8.75-90.9-24.06"/><path id="M" d="M764.53 142.8c18.42 28.6 29.11 62.66 29.11 99.21 0 44.23-15.65 84.81-41.71 116.49"/><path id="N" d="M562.43 64.79c15.22-4.09 31.21-6.27 47.72-6.27 38 0 73.3 11.55 102.59 31.34"/><path id="O" d="M117.45 65c0-5.28 3.98-8.58 8.2-8.58 4.62 0 7.23 3 7.23 7.65 0 .6-.07 1.17-.13 1.56H120.5c.2 3.48 2.58 5.7 6.02 5.7 1.77 0 3.21-.48 4.55-1.29l1.1 1.8c-1.61.93-3.55 1.68-6.02 1.68-4.82 0-8.7-3.15-8.7-8.52Zm12.75-1.35c0-3.27-1.67-5.04-4.52-5.04-2.58 0-4.85 1.86-5.22 5.04h9.74Z"/><path id="P" d="M137.7 56.84h2.51l.27 2.97h.1c1.27-2.07 3.11-3.39 5.15-3.39.8 0 1.37.09 1.94.36l-.57 2.4c-.6-.21-1.04-.27-1.77-.27-1.51 0-3.38.96-4.58 3.75v10.47h-3.05V56.84z"/><path id="Q" d="M226.36 68.9c0-3.54 3.45-5.31 11.18-6.09 0-2.1-.77-4.11-3.75-4.11-2.11 0-4.01.87-5.45 1.74l-1.2-1.89c1.67-.96 4.25-2.13 7.16-2.13 4.42 0 6.29 2.67 6.29 6.69v10.02h-2.51l-.27-1.95h-.1c-1.74 1.29-3.78 2.34-6.02 2.34-3.05 0-5.32-1.68-5.32-4.62zm11.18.27v-4.56c-6.12.66-8.2 2.01-8.2 4.11 0 1.86 1.41 2.61 3.21 2.61s3.21-.75 4.99-2.16z"/><path id="R" d="M266.12 65c0-5.43 4.12-8.58 8.77-8.58 2.38 0 4.02.9 5.32 1.92l-1.57 1.8c-1.07-.84-2.17-1.44-3.61-1.44-3.31 0-5.72 2.55-5.72 6.3s2.28 6.24 5.62 6.24c1.67 0 3.15-.69 4.28-1.62l1.34 1.83a9.388 9.388 0 0 1-5.89 2.07c-4.82 0-8.53-3.12-8.53-8.52z"/><path id="S" d="M148.73 106.78c0-3.54 3.45-5.31 11.18-6.09 0-2.1-.77-4.11-3.75-4.11-2.11 0-4.02.87-5.45 1.74l-1.2-1.89c1.67-.96 4.25-2.13 7.16-2.13 4.42 0 6.29 2.67 6.29 6.69v10.02h-2.51l-.27-1.95h-.1c-1.74 1.29-3.78 2.34-6.02 2.34-3.05 0-5.32-1.68-5.32-4.62zm11.18.27v-4.56c-6.12.66-8.2 2.01-8.2 4.11 0 1.86 1.41 2.61 3.21 2.61s3.21-.75 4.99-2.16z"/><path id="T" d="M220.62 105.97v-9.03h-2.71v-2.07l2.84-.15.37-4.59h2.54v4.59h4.92v2.22h-4.92v9.09c0 2.01.7 3.15 2.81 3.15.64 0 1.47-.21 2.08-.42l.6 2.04c-1.04.3-2.24.6-3.35.6-3.88 0-5.19-2.19-5.19-5.43z"/><path id="U" d="M261.98 114.13c0-1.38.97-2.7 2.68-3.69v-.12c-.97-.51-1.67-1.38-1.67-2.67s1.1-2.43 2.04-3.03v-.12c-1.21-.87-2.38-2.43-2.38-4.38 0-3.57 3.15-5.82 6.83-5.82 1 0 1.91.21 2.54.42h6.32v2.1h-3.71c.87.75 1.47 1.95 1.47 3.36 0 3.48-2.95 5.67-6.63 5.67-.9 0-1.91-.21-2.71-.57-.67.51-1.17 1.05-1.17 1.95 0 1.05.74 1.77 3.18 1.77h3.55c4.22 0 6.36 1.2 6.36 3.87 0 3.03-3.58 5.64-9.2 5.64-4.45 0-7.5-1.56-7.5-4.38zm13.72-.84c0-1.5-1.3-2.01-3.71-2.01h-3.15a11.29 11.29 0 0 1-2.34-.27c-1.3.84-1.84 1.8-1.84 2.76 0 1.74 1.97 2.88 5.25 2.88 3.48 0 5.79-1.65 5.79-3.36zm-2.34-13.17c0-2.37-1.74-3.81-3.88-3.81s-3.88 1.41-3.88 3.81 1.77 3.87 3.88 3.87 3.88-1.5 3.88-3.87z"/><path id="V" d="M329.78 130H49.79V48.68l15-15h279.99V115l-15 15z"/><path id="W" d="M313.67 279.69H33.68v-81.88l15-15h279.99v81.88l-15 15z"/><path id="X" d="M113.79 205.67h2.51l.27 2.34h.1c1.74-1.53 3.61-2.76 6.09-2.76 3.81 0 5.55 2.22 5.55 6.39v10.32h-3.04V212c0-3.06-1.04-4.35-3.45-4.35-1.87 0-3.15.84-4.99 2.49v11.82h-3.05v-16.29z"/><path id="Y" d="M174.6 213.83c0-5.28 3.98-8.58 8.2-8.58 4.62 0 7.23 3 7.23 7.65 0 .6-.07 1.17-.13 1.56h-12.25c.2 3.48 2.58 5.7 6.02 5.7 1.77 0 3.21-.48 4.55-1.29l1.1 1.8c-1.61.93-3.55 1.68-6.02 1.68-4.82 0-8.7-3.15-8.7-8.52Zm12.75-1.35c0-3.27-1.67-5.04-4.52-5.04-2.58 0-4.85 1.86-5.22 5.04h9.74Z"/><path id="Z" d="M251.88 205.67h2.51l.27 2.97h.1c1.27-2.07 3.11-3.39 5.15-3.39.8 0 1.37.09 1.94.36l-.57 2.4c-.6-.21-1.04-.27-1.77-.27-1.51 0-3.38.96-4.58 3.75v10.47h-3.05v-16.29z"/><path id="a" d="M102.43 243.54h2.51l.27 2.37h.1c1.57-1.56 3.48-2.79 5.66-2.79 2.78 0 4.28 1.2 5.02 3.12 1.87-1.83 3.78-3.12 5.99-3.12 3.75 0 5.52 2.22 5.52 6.39v10.32h-3.04v-9.96c0-3.06-1.07-4.35-3.38-4.35-1.41 0-2.88.81-4.58 2.49v11.82h-3.04v-9.96c0-3.06-1.07-4.35-3.38-4.35-1.37 0-2.91.81-4.58 2.49v11.82h-3.05v-16.29z"/><path id="b" d="M216.42 238.35c0-1.05.84-1.77 2.04-1.77s2.04.72 2.04 1.77c0 1.11-.84 1.83-2.04 1.83s-2.04-.72-2.04-1.83zm.5 5.19h3.05v16.29h-3.05v-16.29z"/><path id="c" d="M226.46 243.54h2.51l.27 2.34h.1c1.74-1.53 3.61-2.76 6.09-2.76 3.81 0 5.55 2.22 5.55 6.39v10.32h-3.04v-9.96c0-3.06-1.04-4.35-3.45-4.35-1.87 0-3.15.84-4.99 2.49v11.82h-3.05v-16.29z"/><path id="d" d="M329.78 433.67H49.79v-81.88l15-15h279.99v81.88l-15 15z"/><path id="e" d="M185.19 372.2v-20.64h3.05v20.82c0 .84.4 1.17.87 1.17.17 0 .3 0 .64-.06l.43 2.1c-.43.15-.94.24-1.77.24-2.28 0-3.21-1.32-3.21-3.63z"/><path id="f" d="M1150.93 114.73H875.86V61.4l15-15h275.07v53.33l-15 15z"/><path id="g" d="M925.16 82.97c0-5.28 3.98-8.58 8.2-8.58 4.62 0 7.23 3 7.23 7.65 0 .6-.07 1.17-.13 1.56h-12.25c.2 3.48 2.58 5.7 6.02 5.7 1.77 0 3.21-.48 4.55-1.29l1.1 1.8c-1.61.93-3.55 1.68-6.02 1.68-4.82 0-8.7-3.15-8.7-8.52Zm12.75-1.35c0-3.27-1.67-5.04-4.52-5.04-2.58 0-4.85 1.86-5.22 5.04h9.74Z"/><path id="h" d="M1167.04 265.79H891.97v-53.33l15-15h275.07v53.33l-15 15z"/><path id="i" d="M942.23 221.61c0-1.05.84-1.77 2.04-1.77s2.04.72 2.04 1.77c0 1.11-.84 1.83-2.04 1.83s-2.04-.72-2.04-1.83zm.5 5.19h3.05v16.29h-3.05V226.8z"/><path id="j" d="M1155.85 469.74H875.86V348.73l15-15h279.99v121.01l-15 15z"/><path id="k" d="m1058.72 373.77 1.36-1.62c1.42 1.03 2.89 1.73 4.85 1.73 2.17 0 3.22-1.03 3.22-2.29 0-1.51-1.93-2.16-3.73-2.78-2.29-.76-4.79-1.75-4.79-4.24 0-2.32 2.11-4.16 5.66-4.16 2.02 0 3.79.76 5.06 1.65l-1.33 1.59c-1.12-.76-2.26-1.3-3.71-1.3-2.08 0-3.04.97-3.04 2.11 0 1.4 1.69 1.92 3.52 2.54 2.38.81 5 1.67 5 4.45 0 2.38-2.11 4.35-5.96 4.35a10.54 10.54 0 0 1-6.11-2.02z"/><path id="l" d="M948.57 406.01c0-4.75 3.58-7.72 7.38-7.72 4.16 0 6.51 2.7 6.51 6.88 0 .54-.06 1.05-.12 1.4h-11.02c.18 3.13 2.32 5.13 5.42 5.13 1.6 0 2.89-.43 4.1-1.16l.99 1.62c-1.45.84-3.19 1.51-5.42 1.51-4.34 0-7.83-2.83-7.83-7.67Zm11.48-1.21c0-2.94-1.51-4.54-4.07-4.54-2.32 0-4.37 1.67-4.7 4.54h8.76Z"/><path id="m" d="M999.77 410.41v-18.57h2.74v18.73c0 .76.36 1.05.78 1.05.15 0 .27 0 .57-.05l.39 1.89c-.39.13-.84.22-1.6.22-2.05 0-2.89-1.19-2.89-3.27z"/><path id="n" d="M1091.37 398.67h2.26l.24 2.11h.09c1.57-1.38 3.25-2.48 5.48-2.48 3.43 0 5 2 5 5.75v9.29h-2.74v-8.96c0-2.75-.93-3.91-3.1-3.91-1.69 0-2.83.76-4.49 2.24v10.63h-2.74v-14.66z"/><path id="o" d="M958.27 447.4c0-3.19 3.1-4.78 10.06-5.48 0-1.89-.69-3.7-3.37-3.7-1.9 0-3.61.78-4.91 1.57l-1.08-1.7c1.51-.86 3.83-1.92 6.45-1.92 3.98 0 5.66 2.4 5.66 6.02v9.02h-2.26l-.24-1.75h-.09c-1.57 1.16-3.4 2.11-5.42 2.11-2.74 0-4.79-1.51-4.79-4.16zm10.06.24v-4.1c-5.51.59-7.38 1.81-7.38 3.7 0 1.67 1.26 2.35 2.89 2.35s2.89-.67 4.49-1.94z"/></defs></svg>