<svg xmlns="http://www.w3.org/2000/svg" xmlns:xlink="http://www.w3.org/1999/xlink" xml:space="preserve" fill-rule="evenodd" stroke-miterlimit="10" clip-rule="evenodd" viewBox="0 0 20280 7763"><use xlink:href="#a" width="148" height="67" transform="translate(12708.3 5798.63) scale(17.3611)"/><g fill="none"><path stroke="#0ff" stroke-width="104.17" d="M13229.7 6371.88h1522.74"/><path stroke="#fff" stroke-width="52.08" d="M13229.7 6371.88h1522.74"/></g><use xlink:href="#b" width="94" height="96" transform="translate(12170.1 5277.79) scale(17.3611)"/><g fill="none"><path stroke="#0ff" stroke-width="104.17" d="m12740.8 5834.92 488.887 536.979"/><path stroke="#fff" stroke-width="52.08" d="m12740.8 5834.92 488.887 536.979"/></g><use xlink:href="#c" width="154" height="67" transform="translate(12882 3177.08) scale(17.3611)"/><g fill="none"><path stroke="#0ff" stroke-width="104.17" d="M13412.8 3758.16h1619.27"/><path stroke="#fff" stroke-width="52.08" d="M13412.8 3758.16h1619.27"/></g><use xlink:href="#d" width="198" height="92" transform="translate(4965.29 590.279) scale(17.3611)"/><g fill="none" stroke-linecap="round" stroke-linejoin="round" stroke-miterlimit="4"><path stroke="#0ff" stroke-width="104.17" d="m5541.83 1167.36 1641.49-.001 639.929 442.88"/><path stroke="#fff" stroke-width="52.08" d="m5541.83 1167.36 1641.49-.001 639.929 442.88"/></g><use xlink:href="#e" width="149" height="67" transform="translate(5000 5781.25) scale(17.3611)"/><g fill="none"><path stroke="#0ff" stroke-width="104.17" d="M7054.88 6365.29H5532.13"/><path stroke="#fff" stroke-width="52.08" d="M7054.88 6365.29H5532.13"/></g><use xlink:href="#f" width="93" height="96" transform="translate(6493.04 5260.42) scale(17.3611)"/><g fill="none"><path stroke="#0ff" stroke-width="104.17" d="m7543.75 5828.29-488.887 536.979"/><path stroke="#fff" stroke-width="52.08" d="m7543.75 5828.29-488.887 536.979"/></g><use xlink:href="#c" width="154" height="67" transform="translate(4722.21 3177.08) scale(17.3611)"/><g fill="none"><path stroke="#0ff" stroke-width="104.17" d="M6871.71 3751.56H5252.44"/><path stroke="#fff" stroke-width="52.08" d="M6871.71 3751.56H5252.44"/></g><use xlink:href="#g" width="198" height="93" transform="translate(11840.3 607.638) scale(17.3611)"/><g fill="none" stroke-linecap="round" stroke-linejoin="round" stroke-miterlimit="4"><path stroke="#0ff" stroke-width="104.17" d="M14696.5 1197.22H13055l-639.754 442.883"/><path stroke="#fff" stroke-width="52.08" d="M14696.5 1197.22H13055l-639.754 442.883"/></g><path fill-rule="nonzero" d="M8557.62 3657.47h134.725l103.471 284.721 36.804 116.491h4.167l36.979-116.491 100.871-284.721h134.546v607.983H8998.42v-253.471c0-57.466 9.029-141.841 15.625-199.304h-4.167l-49.304 142.708-93.579 255.209h-69.792l-94.27-255.209-48.438-142.708h-3.296c5.729 57.463 15.625 142.013 15.625 199.304v253.471H8557.62V3657.47ZM9260.75 3959.38c0-197.742 110.767-312.5 271.529-312.5 160.763 0 271.529 115.625 271.529 312.5s-110.766 317.533-271.529 317.533c-160.762 0-271.529-120.658-271.529-317.533Zm419.271 0c0-130.383-57.463-208.333-147.742-208.333s-147.742 77.95-147.742 208.333c.001 130.383 57.463 212.5 147.742 212.5s147.742-82.812 147.742-212.5ZM9955.75 3657.47h201.042c124.654 0 219.791 36.979 219.791 150.171 0 55.729-31.075 113.195-82.812 131.25v4.166c65.625 15.625 114.062 61.459 114.062 143.579 0 122.221-101.737 178.817-235.416 178.817H9955.75V3657.47Zm192.013 247.741c77.083 0 110.766-31.25 110.766-79.512 0-53.3-36.112-74.654-109.204-74.654h-72.221v154.166h70.658Zm13.892 266.667c82.813 0 127.95-29.513 127.95-92.708 0-59.03-44.271-84.55-127.95-84.55h-84.55v177.258h84.55Z"/><path d="M10547.2 3657.47h121.354v607.988H10547.2z"/><path fill-rule="nonzero" d="M10850.5 3657.47h121.529v506.25h246.875v101.733H10850.5V3657.47ZM11357.6 3657.47h372.571v101.733h-251.042v140.279h213.367v101.738h-213.367v162.5h260.071v101.733h-381.425V3657.47h-.175Z"/><g fill="#fff"><path fill-rule="nonzero" d="M8557.62 3657.47h134.725l103.471 284.721 36.804 116.491h4.167l36.979-116.491 100.871-284.721h134.546v607.983H8998.42v-253.471c0-57.466 9.029-141.841 15.625-199.304h-4.167l-49.304 142.708-93.579 255.209h-69.792l-94.27-255.209-48.438-142.708h-3.296c5.729 57.463 15.625 142.013 15.625 199.304v253.471H8557.62V3657.47ZM9260.75 3959.38c0-197.742 110.767-312.5 271.529-312.5 160.763 0 271.529 115.625 271.529 312.5s-110.766 317.533-271.529 317.533c-160.762 0-271.529-120.658-271.529-317.533Zm419.271 0c0-130.383-57.463-208.333-147.742-208.333s-147.742 77.95-147.742 208.333c.001 130.383 57.463 212.5 147.742 212.5s147.742-82.812 147.742-212.5ZM9955.75 3657.47h201.042c124.654 0 219.791 36.979 219.791 150.171 0 55.729-31.075 113.195-82.812 131.25v4.166c65.625 15.625 114.062 61.459 114.062 143.579 0 122.221-101.737 178.817-235.416 178.817H9955.75V3657.47Zm192.013 247.741c77.083 0 110.766-31.25 110.766-79.512 0-53.3-36.112-74.654-109.204-74.654h-72.221v154.166h70.658Zm13.892 266.667c82.813 0 127.95-29.513 127.95-92.708 0-59.03-44.271-84.55-127.95-84.55h-84.55v177.258h84.55Z"/><path d="M10547.2 3657.47h121.354v607.988H10547.2z"/><path fill-rule="nonzero" d="M10850.5 3657.47h121.529v506.25h246.875v101.733H10850.5V3657.47ZM11357.6 3657.47h372.571v101.733h-251.042v140.279h213.367v101.738h-213.367v162.5h260.071v101.733h-381.425V3657.47h-.175Z"/></g><use xlink:href="#h" width="386" height="387" transform="translate(6788.21 590.279) scale(17.3611)"/><g fill="none" stroke-miterlimit="4"><circle cx="10138" cy="3945.83" r="2810.24" stroke="#0ff" stroke-width="34.71"/><circle cx="10138" cy="3945.83" r="2810.24" stroke="#fff" stroke-width="17.38"/></g><use xlink:href="#i" width="432" height="432" transform="translate(6388.88 190.972) scale(17.3611)"/><g fill="none" stroke-miterlimit="4"><circle cx="10144.6" cy="3945.31" r="3185.59" stroke="#0ff" stroke-width="69.46"/><circle cx="10144.6" cy="3945.31" r="3185.59" stroke="#fff" stroke-width="17.38"/></g><use xlink:href="#j" width="138" height="339" transform="translate(6319.46 868.054) scale(17.3611)"/><g fill="none" stroke-linecap="round" stroke-linejoin="round" stroke-miterlimit="4"><path stroke="#0ff" stroke-width="225.71" d="M7802.42 6103.29c-526.734-568.23-848.784-1329-848.784-2164.93 0-968.75 432.467-1836.63 1114.93-2420.83"/><path stroke="#fff" stroke-width="138.88" d="M7802.42 6103.29c-526.734-568.23-848.784-1329-848.784-2164.93 0-968.75 432.467-1836.63 1114.93-2420.83"/></g><use xlink:href="#k" width="203" height="98" transform="translate(7916.67 6059.04) scale(17.3611)"/><g fill="none" stroke-linecap="round" stroke-linejoin="round" stroke-miterlimit="4"><path stroke="#0ff" stroke-width="225.71" d="M10791.5 7057.12a3203.277 3203.277 0 0 1-652.254 66.842c-574.133 0-1112.85-151.909-1578.12-417.709"/><path stroke="#fff" stroke-width="138.88" d="M10791.5 7057.12a3203.277 3203.277 0 0 1-652.254 66.842c-574.133 0-1112.85-151.909-1578.12-417.709"/></g><use xlink:href="#l" width="116" height="289" transform="translate(11961.8 1579.86) scale(17.3611)"/><g fill="none" stroke-linecap="round" stroke-linejoin="round" stroke-miterlimit="4"><path stroke="#0ff" stroke-width="225.71" d="M12819.5 2215.97c319.792 496.529 505.38 1087.85 505.38 1722.4 0 767.883-271.7 1472.4-724.13 2022.4"/><path stroke="#fff" stroke-width="138.88" d="M12819.5 2215.97c319.792 496.529 505.38 1087.85 505.38 1722.4 0 767.883-271.7 1472.4-724.13 2022.4"/></g><use xlink:href="#m" width="225" height="106" transform="translate(8663.21 104.167) scale(17.3611)"/><g fill="none" stroke-linecap="round" stroke-linejoin="round" stroke-miterlimit="4"><path stroke="#0ff" stroke-width="225.71" d="M9310.75 861.633c264.237-71.008 541.842-108.854 828.475-108.854 659.721 0 1272.57 200.521 1781.08 544.096"/><path stroke="#fff" stroke-width="138.88" d="M9310.75 861.633c264.237-71.008 541.842-108.854 828.475-108.854 659.721 0 1272.57 200.521 1781.08 544.096"/></g><g opacity=".2"><path fill="#0ff" fill-rule="nonzero" d="m10222.4 1482.81-174.134-.001V1330.38h174.134v152.429Zm-536.459-114.654 172.43-24.233 21.233 151.108-172.429 24.238-21.234-151.113Zm-353.766 88.371 167.379-48.004 42.067 146.683-167.38 48.004-42.066-146.683Zm-337.934 136.354 159.08-70.833 62.066 139.408-159.083 70.834-62.063-139.409Zm-315.8 181.98 147.675-92.275 80.867 129.408-147.675 92.275-80.867-129.408Zm-287.033 224.375 133.388-111.93 98.091 116.909-133.387 111.929-98.092-116.908Zm-253.296 262.204 116.509-129.413 113.404 102.121-116.513 129.408-113.4-102.116Zm-214.308 294.775 97.379-144.359 126.513 85.33-97.38 144.358-126.512-85.329Zm-171.213 321.683 76.338-156.513 137.15 66.892-76.338 156.513-137.15-66.892Zm-124.725 342.379 53.805-165.608 145.137 47.15-53.8 165.608-145.142-47.15Zm-75.812 356.458 30.242-171.495 150.279 26.495-30.246 171.492-150.275-26.492Zm-25.625 363.575 6.075-174.029 152.517 5.329-6.075 174.03-152.517-5.33Zm25.467 363.525-18.196-173.179 151.771-15.954 18.195 173.179-151.77 15.954Zm75.554 356.526-42.117-168.959 148.075-36.908 42.117 168.958-148.075 36.909Zm124.671 342.641-65.225-161.458 141.491-57.171 65.229 161.458-141.495 57.171Zm170.954 321.804-87.063-150.795 132.15-76.305 87.067 150.8-132.154 76.3Zm214.15 294.759-107.204-137.221 120.262-93.958 107.204 137.22-120.262 93.959Zm253.141 262.446-125.258-120.955 106.008-109.775 125.259 120.959-106.009 109.771Zm287.105 224.429L8536.6 6004.094l89.704-123.454 140.871 102.346-89.704 123.454Zm315.691 182.171-153.75-81.755 71.65-134.741 153.75 81.754-71.65 134.742Zm337.675 136.579-163.629-59.55 52.188-143.4 163.629 59.546-52.188 143.404Zm353.784 88.175-170.33-36.196 31.738-149.271 170.329 36.196-31.737 149.271Zm362.329 38.3-173.717-12.154 10.642-152.238 173.716 12.154-10.641 152.238Zm364.337-12.446-173.712 12.15-10.646-152.238 173.717-12.154 10.641 152.242Zm358.804-63.317-170.329 36.196-31.737-149.271 170.329-36.196 31.737 149.271Zm346.717-112.554-163.629 59.55-52.188-143.404 163.63-59.546 52.187 143.4Zm327.588-159.617-153.75 81.755-71.65-134.742 153.75-81.754 71.65 134.741Zm302.033-203.783-140.871 102.342-89.704-123.454 140.867-102.346 89.708 123.458Zm271.125-243.771-125.258 120.959-106.009-109.775 125.263-120.955 106.004 109.771Zm234.271-279.271-107.204 137.225-120.259-93.958 107.204-137.225 120.259 93.958Zm193.058-308.937-87.067 150.796-132.154-76.3 87.067-150.8 132.154 76.304Zm148.437-332.867-65.225 161.459-141.495-57.171 65.225-161.459 141.495 57.171Zm100.555-350.346-42.117 168.959-148.075-36.913 42.121-168.958 148.071 36.912Zm50.816-360.8-18.196 173.175-151.77-15.954 18.195-173.175 151.771 15.954Zm-.071-364.533 6.08 174.029-152.517 5.329-6.079-174.025 152.516-5.333Zm-50.5-360.987 30.242 171.491-150.279 26.496-30.242-171.496 150.279-26.491Zm-100.4-350.138 53.8 165.604-145.137 47.154-53.804-165.608 145.141-47.15Zm-208.82-109.758-76.388-156.425 67.358-32.984 69.792-33.854 76.217 156.421-136.979 66.842Z"/><use xlink:href="#n" width="150" height="97" transform="translate(9687.5 920.138) scale(17.3611)"/><path fill="none" stroke="#0ff" stroke-width="34.71" d="M10210.4 1471.35c591.321 15.971 1128.65 238.196 1545.14 595.834"/><use xlink:href="#o" width="103" height="108" transform="translate(11197.9 1440.97) scale(17.3611)"/><path fill="none" stroke="#0ff" stroke-width="173.63" d="m11792.2 2028.82 88.716 79.687c197.567 185.588 365.104 402.429 494.963 642.188"/></g><g fill="#fff" fill-rule="nonzero"><path d="M1481.77 998.092h133.679c86.633 0 148.787 28.125 148.787 107.812 0 59.375-38.37 94.792-96.354 107.292l109.2 167.187h-60.937l-103.471-161.979h-76.738v161.979h-53.991V998.092h-.175Zm125.521 181.25c66.841 0 103.47-23.959 103.47-73.438s-36.629-68.229-103.47-68.229h-71.53v141.667h71.53ZM1828.65 1239.24c0-91.667 69.096-148.959 142.362-148.959 80.209 0 125.521 52.083 125.521 132.813 0 10.416-1.216 20.312-2.258 27.083H1881.6c3.475 60.417 44.792 98.958 104.517 98.958 30.729 0 55.729-8.333 78.991-22.396l19.096 31.25c-27.95 16.146-61.629 29.167-104.512 29.167-83.68 0-151.042-54.687-151.042-147.917Zm221.354-23.437c0-56.771-28.992-87.5-78.471-87.5-44.792 0-84.204 32.292-90.625 87.5h169.096ZM2160.42 1306.95c0-61.459 59.896-92.188 194.095-105.729.001-36.459-13.366-71.355-65.104-71.355-36.629 0-69.791 15.105-94.616 30.209l-20.834-32.813c28.992-16.666 73.784-36.979 124.304-36.979 76.738 0 109.205 46.354 109.205 116.146v173.958h-43.58l-4.687-33.854h-1.733c-30.209 22.396-65.625 40.625-104.517 40.625-52.95 0-92.358-29.167-92.358-80.208h-.175Zm194.095 4.687.001-79.166c-106.251 11.458-142.359 34.896-142.359 71.354 0 32.292 24.479 45.312 55.729 45.312s55.729-13.02 86.63-37.5ZM2489.76 1239.24c0-94.271 71.525-148.959 152.255-148.959 41.32 0 69.791 15.625 92.362 33.333l-27.258 31.25c-18.575-14.583-37.671-25-62.671-25-57.467 0-99.309 44.271-99.309 109.375.001 65.105 39.584 108.334 97.571 108.334 28.992 0 54.688-11.979 74.305-28.125l23.266 31.771c-28.475 22.916-64.412 35.937-102.258 35.937-83.679 0-148.092-54.167-148.092-147.917h-.171ZM2824.48 1292.88v-156.771h-47.05v-35.937l49.308-2.604 6.421-79.688h44.1v79.688h85.417v38.541h-85.417v157.813c0 34.896 12.15 54.687 48.784 54.687 11.112 0 25.52-3.645 36.112-7.291l10.417 35.416c-18.058 5.209-38.892 10.417-58.163 10.417-67.358 0-90.104-38.021-90.104-94.271h.175ZM3180.73 998.092h55.729l155.034 241.146 45.312 78.645h2.954l-6.946-120.833V998.092h51.042v382.291h-55.208l-155.034-241.145-45.833-78.646h-2.258l6.425 119.271v200.52h-51.042V998.092h-.175ZM3581.6 1306.95c0-61.459 59.896-92.188 194.1-105.729 0-36.459-13.371-71.355-65.104-71.355-36.634 0-69.792 15.105-94.621 30.209l-20.833-32.813c28.995-16.666 73.787-36.979 124.308-36.979 76.733 0 109.2 46.354 109.2 116.146v173.958h-43.575l-4.688-33.854h-1.737c-30.208 22.396-65.625 40.625-104.513 40.625-52.954 0-92.362-29.167-92.362-80.208h-.175Zm194.1 4.687v-79.166c-106.25 11.458-142.363 34.896-142.363 71.354 0 32.292 24.48 45.312 55.73 45.312 31.25 0 55.729-13.02 86.633-37.5ZM3944.1 1292.88v-156.771h-47.046v-35.937l49.304-2.604 6.425-79.688h44.096v79.688h85.417v38.541h-85.417v157.813c0 34.896 12.154 54.687 48.783 54.687 11.113 0 25.521-3.645 36.113-7.291l10.416 35.416c-18.054 5.209-38.887 10.417-58.158 10.417-67.362 0-90.104-38.021-90.104-94.271h.171ZM4150.87 1007.47c0-18.229 14.583-30.729 35.416-30.729 20.834 0 35.417 12.5 35.417 30.729 0 19.271-14.583 31.771-35.417 31.771-20.833 0-35.416-12.5-35.416-31.771Zm8.683 90.104h52.95v282.812h-52.95v-282.812ZM4279.17 1097.57h55.383l59.2 160.937 29.688 83.334h2.258l28.992-83.334 59.895-160.937h52.259l-112.155 282.812h-61.633L4279.17 1097.57ZM4610.08 1239.24c0-91.667 69.096-148.959 142.359-148.959 80.208 0 125.52 52.083 125.52 132.813 0 10.416-1.212 20.312-2.254 27.083H4663.03c3.471 60.417 44.792 98.958 104.513 98.958 30.729 0 55.729-8.333 78.996-22.396l19.096 31.25c-27.95 16.146-61.634 29.167-104.513 29.167-83.683 0-151.042-54.687-151.042-147.917Zm221.355-23.437c0-56.771-28.996-87.5-78.475-87.5-44.792 0-84.2 32.292-90.625 87.5h169.1Z"/></g><use xlink:href="#p" width="340" height="131" transform="translate(208.333 86.805) scale(17.3611)"/><g fill="none"><path stroke="#0ff" stroke-width="104.17" d="M5271.71 1783.51H791.83V925.869l260.417-260.417h4479.88v857.813l-260.417 260.416v-.171Z"/><path stroke="#fff" stroke-width="52.08" d="M5271.71 1783.51H791.83V925.869l260.417-260.417h4479.88v857.813l-260.417 260.416v-.171Z"/></g><use xlink:href="#q" width="336" height="131" transform="translate(0 2673.61) scale(17.3611)"/><g fill="none"><path stroke="#0ff" stroke-width="104.17" d="M4992 4360.58H582.29v-839.758l260.416-260.417h4409.71v839.759l-260.417 260.416Z"/><path stroke="#fff" stroke-width="52.08" d="M4992 4360.58H582.29v-839.758l260.416-260.417h4409.71v839.759l-260.417 260.416Z"/></g><g fill="#fff" fill-rule="nonzero"><path d="M2388.89 3599.13h106.945c130.729 0 201.042 68.75 201.042 190.104 0 121.355-70.313 192.188-198.612 192.188h-109.2l-.001-382.292h-.175Zm102.259 342.709c100.521 0 149.825-56.25 149.825-152.604 0-96.355-49.304-150.521-149.825-150.521h-48.263v303.125h48.263ZM2769.45 3907.99c0-61.459 59.896-92.188 194.096-105.73 0-36.458-13.367-71.354-65.104-71.354-36.634 0-69.617 15.104-94.617 30.208l-20.833-32.812c28.991-16.667 73.783-36.979 124.304-36.979 76.737 0 109.2 46.354 109.2 116.146v173.958h-43.575l-4.688-33.854h-1.737c-30.209 22.396-65.625 40.625-104.513 40.625-52.95 0-92.362-29.167-92.362-80.209h-.171Zm194.096 4.688v-79.167c-106.25 11.459-142.363 34.896-142.363 71.354 0 32.292 24.479 45.313 55.729 45.313s55.73-13.021 86.634-37.5ZM3122.74 3698.61l43.579-.001 4.687 51.563h1.734c22.05-35.938 53.995-58.854 89.412-58.854 13.888 0 23.783 1.562 33.679 6.25l-9.896 41.666c-10.416-3.645-18.054-4.687-30.729-4.687-26.216 0-58.679 16.667-79.512 65.104v181.771h-52.954v-282.813ZM3363.2 3893.93v-156.771h-47.05v-35.937l49.304-2.604 6.425-79.688h44.096v79.688l85.417-.001v38.542h-85.417v157.813c0 34.896 12.154 54.687 48.787 54.687 11.109 0 25.521-3.646 36.109-7.291l10.416 35.416c-18.054 5.209-38.887 10.417-58.158 10.417-67.362 0-90.104-38.021-90.104-94.271h.175Z"/></g><use xlink:href="#r" width="336" height="130" transform="translate(277.778 5295.12) scale(17.3611)"/><g fill="none"><path stroke="#0ff" stroke-width="104.17" d="M5271.71 6970.83H862v-839.758l260.417-260.417h4409.71v839.759L5271.71 6970.83Z"/><path stroke="#fff" stroke-width="52.08" d="M5271.71 6970.83H862v-839.758l260.417-260.417h4409.71v839.759L5271.71 6970.83Z"/></g><g fill="#fff" fill-rule="nonzero"><path d="M2006.95 6432.12c0-123.437 82.462-198.437 195.137-198.437 59.2 0 98.263 23.958 122.571 47.395l-28.996 31.25c-21.525-20.312-48.783-36.458-92.358-36.458-85.417 0-141.146 59.375-141.146 154.688 0 95.312 50.521 156.77 142.359 156.77 30.208 0 59.895-8.333 76.737-22.396v-100h-90.104v-40.104h139.408v160.417c-27.254 25.521-74.304 44.271-131.941 44.271-111.459 0-191.667-73.438-191.667-197.396ZM2432.81 6339.92h43.575l4.687 51.562h1.738c22.05-35.937 53.991-58.854 89.408-58.854 13.892 0 23.787 1.563 33.683 6.25l-9.896 41.667c-10.416-3.646-18.058-4.688-30.729-4.688-26.216 0-58.683 16.667-79.516 65.104v181.771h-52.95V6339.92ZM2644.27 6549.29c0-61.459 59.896-92.188 194.096-105.73 0-36.458-13.367-71.354-65.104-71.354-36.63 0-69.792 15.104-94.617 30.209l-20.834-32.813c28.992-16.667 73.784-36.979 124.305-36.979 76.737 0 109.204 46.354 109.204 116.146v173.958h-43.579l-4.688-33.854h-1.733c-30.209 22.396-65.625 40.625-104.517 40.625-52.95 0-92.358-29.167-92.358-80.208h-.175Zm194.096 4.687v-79.166c-106.25 11.458-142.359 34.895-142.359 71.354 0 32.291 24.479 45.312 55.729 45.312 31.251 0 55.73-13.021 86.63-37.5ZM2997.57 6339.92h43.575l4.687 32.291h1.738c28.471-20.833 63.887-39.583 100.521-39.583 81.25 0 125.521 57.292 125.521 144.271 0 96.875-64.413 152.604-137.155 152.604-28.47 0-58.679-11.979-87.154-32.813l1.217 49.48v95.833h-52.95V6339.92Zm220.833 137.5c0-62.5-23.266-104.688-83.162-104.688-26.734 0-53.992 13.542-84.721 39.063v148.437c28.471 21.875 56.425 29.688 77.258 29.688 52.254 0 90.625-42.188 90.625-112.5Zm144.963-269.271h53.125v113.541l-1.734 58.334c28.992-26.042 61.63-47.396 104.513-47.396 66.146 0 96.354 38.542 96.354 110.937v179.167h-52.779v-172.917c0-53.125-18.054-75.52-59.896-75.52-32.463 0-54.687 14.583-86.629 43.229v205.208h-52.954v-414.583Zm494.621 419.791c-92.884-11.458-155.73-85.416-155.73-197.395 0-122.396 75-196.875 181.771-196.875 106.771 0 181.771 74.479 181.771 196.875 0 109.895-60.417 182.812-150.521 196.875 19.096 33.854 58.679 51.041 104.513 51.041 19.096 0 33.679-2.604 44.791-5.729l10.417 37.5c-12.846 4.167-35.417 8.333-60.937 8.333-78.471.001-132.467-38.02-156.25-90.624l.175-.001Zm152.775-197.395c0-95.834-50.521-154.688-126.563-154.688s-126.562 58.854-126.562 154.688c0 95.833 50 159.375 126.562 159.375 76.563 0 126.563-61.979 126.563-159.375Zm152.954-190.104h53.991v341.145h185.938v41.146h-239.929v-382.291Z"/></g><use xlink:href="#s" width="336" height="131" transform="translate(14166.7) scale(17.3611)"/><g fill="none"><path stroke="#0ff" stroke-width="104.17" d="M19162.2 1685.59h-4409.71V845.831l260.417-260.416h4409.71v839.758l-260.416 260.417Z"/><path stroke="#fff" stroke-width="52.08" d="M19162.2 1685.59h-4409.71V845.831l260.417-260.416h4409.71v839.758l-260.416 260.417Z"/></g><g fill="#fff" fill-rule="nonzero"><path d="m16643.2 1302.3 31.35-38.411c30.655 35.002 70.731 54.644 112.381 55.093 53.337 0 85.918-29.312 85.918-72.795 0-43.47-29.317-60.152-68.006-78.86l-59.034-27.796c-37.868-17.701-83.064-49.039-83.064-113.741 0-68.754 54.558-118.291 128.661-118.291 48.461 0 91.215 22.239 120.121 55.093l-27.284 35.9c-25.242-25.284-54.969-41.966-92.837-41.966-46.007 0-76.135 25.284-76.135 65.212 0 42.973 35.825 59.655 67.184 73.813l58.634 27.298c47.229 22.239 83.875 52.57 83.875 118.789 0 70.271-53.337 126.383-138.444 126.383-57.812 0-107.495-25.272-142.919-66.219l-.401.498ZM16964.5 1031.39h51.705l45.197 190.576 17.922 92.012h2.844l20.766-92.012 46.829-190.576h49.672l47.239 190.576 21.167 92.012h2.042l18.724-92.012 44.386-190.576h48.05l-81.442 329.092h-61.077l-43.975-177.437-20.766-94.535h-2.844l-20.766 95.542-42.353 176.43h-59.445l-83.875-329.092ZM17438.4 926.199c0-21.232 13.838-35.888 33.793-35.888s33.792 14.656 33.792 35.888c0 22.251-13.837 36.907-33.792 36.907-19.955 0-33.793-14.656-33.793-36.907Zm8.551 104.642h50.484v329.092h-50.484v-329.092ZM17608.6 1076.4h-41.533v-41.954l41.132-3.033v-52.569c0-66.729 27.685-108.695 87.95-108.695 18.324 0 36.647 4.053 50.484 11.126l-10.994 41.954c-10.73-5.46-22.193-8.372-33.792-8.59-28.907 0-42.754 22.239-42.754 64.702v52.072h63.93v44.987h-63.93v284.105h-50.493V1076.4ZM17789.8 1258.87v-182.496h-45.196v-41.954l47.229-3.033 6.108-92.51h42.353v92.51h81.843v44.987h-81.843v183.503c0 40.449 11.805 63.695 46.819 63.695 10.593 0 24.43-4.04 34.613-8.59l10.183 41.457c-17.102 6.066-37.467 12.132-55.79 12.132-64.741 0-86.319-44.489-86.319-109.701Z"/></g><use xlink:href="#t" width="336" height="130" transform="translate(14444.5 2534.72) scale(17.3611)"/><g fill="none"><path stroke="#0ff" stroke-width="104.17" d="M19441.8 4214.42h-4409.71v-839.754l260.417-260.417h4409.71v839.754L19441.8 4214.42Z"/><path stroke="#fff" stroke-width="52.08" d="M19441.8 4214.42h-4409.71v-839.754l260.417-260.417h4409.71v839.754L19441.8 4214.42Z"/></g><g fill="#fff" fill-rule="nonzero"><path d="m16737.5 3808.33 38.367-24.479c19.1 30.209 43.058 42.709 73.787 42.709 45.834 0 68.575-23.438 68.575-81.25v-265.625h53.471v270.312c0 65.625-33.679 118.75-116.838 118.75-53.995 0-92.362-20.833-117.362-60.417ZM17068.2 3788.54c0-61.459 59.896-92.188 194.096-105.729 0-36.459-13.367-71.355-65.104-71.355-36.63 0-69.792 15.105-94.617 30.209l-20.833-32.813c28.991-16.666 73.783-36.979 124.304-36.979 76.737 0 109.204 46.354 109.204 116.146v173.958h-43.579l-4.688-33.854h-1.733c-30.208 22.396-65.625 40.625-104.517 40.625-52.95 0-92.358-29.167-92.358-80.208h-.175Zm194.096 4.687v-79.166c-106.25 11.458-142.359 34.895-142.359 71.354 0 32.291 24.48 45.312 55.73 45.312 31.25 0 55.729-13.021 86.629-37.5ZM17375.3 3579.17h55.384l59.2 160.937 29.687 83.334h2.259l28.991-83.334 59.896-160.937h52.258l-112.154 282.812h-61.629L17375.3 3579.17ZM17710.2 3788.54c0-61.459 59.896-92.188 194.1-105.729 0-36.459-13.371-71.355-65.104-71.355-36.633 0-69.621 15.105-94.621 30.209l-20.833-32.813c28.996-16.666 73.787-36.979 124.308-36.979 76.733 0 109.2 46.354 109.2 116.146v173.958h-43.575l-4.688-33.854h-1.737c-30.208 22.396-65.625 40.625-104.513 40.625-52.954 0-92.362-29.167-92.362-80.208h-.175Zm194.1 4.687v-79.166c-106.25 11.458-142.363 34.895-142.363 71.354 0 32.291 24.48 45.312 55.73 45.312 31.25 0 55.729-13.021 86.633-37.5Z"/></g><use xlink:href="#t" width="336" height="130" transform="translate(14166.7 5190.96) scale(17.3611)"/><g fill="none"><path stroke="#0ff" stroke-width="104.17" d="M19162.2 6871.54h-4409.71v-839.759l260.417-260.416h4409.71v839.758l-260.416 260.417Z"/><path stroke="#fff" stroke-width="52.08" d="M19162.2 6871.54h-4409.71v-839.759l260.417-260.416h4409.71v839.758l-260.416 260.417Z"/></g><g fill="#fff" fill-rule="nonzero"><path d="M16317.5 6130.04h53.996v192.187h1.733l177.779-192.187h60.417l-132.988 145.833 153.996 236.458h-59.896l-127.779-198.958-73.262 78.125v120.833h-53.996V6130.04Zm352.779 241.146c0-94.271 69.096-148.959 146.354-148.959 77.258 0 146.354 54.688 146.354 148.959 0 94.27-69.096 147.916-146.354 147.916-77.258 0-146.354-54.166-146.354-147.916Zm238.196 0c0-65.105-37.155-109.375-91.842-109.375-54.688 0-91.146 44.27-91.146 109.375 0 65.104 36.634 108.333 91.146 108.333 54.513 0 91.842-43.229 91.842-108.333ZM17061.3 6424.83v-156.77h-47.046v-35.938l49.304-2.604 6.425-79.688h44.096v79.688h85.416v38.542h-85.416v157.812c0 34.896 12.154 54.688 48.783 54.688 11.113 0 25.521-3.646 36.113-7.292l10.416 35.417c-18.054 5.208-38.887 10.416-58.158 10.416-67.363 0-90.104-38.021-90.104-94.271h.171ZM17276.9 6456.08v-358.333h52.954v361.458c0 14.584 6.941 20.313 15.104 20.313 2.95 0 5.208 0 11.108-1.042l7.467 36.459c-7.467 2.604-16.321 4.166-30.729 4.166-39.584 0-55.729-22.916-55.729-63.021h-.175Zm162.675-316.666c0-18.229 14.583-30.729 35.416-30.729 20.834 0 35.417 12.5 35.417 30.729 0 19.271-14.583 31.771-35.417 31.771-20.833 0-35.416-12.5-35.416-31.771Zm8.679 90.104h52.954v282.812h-52.954v-282.812Zm165.454 0h43.75l4.687 40.625h1.734c30.208-26.563 62.675-47.917 105.729-47.917 66.146 0 96.354 38.542 96.354 110.938v179.166h-52.775v-172.916c0-53.125-18.058-75.521-59.896-75.521-32.466 0-54.687 14.583-86.633 43.229v205.208h-52.95v-282.812Z"/></g></svg>