<svg xmlns="http://www.w3.org/2000/svg" xmlns:xlink="http://www.w3.org/1999/xlink" xml:space="preserve" fill-rule="evenodd" stroke-linecap="round" stroke-linejoin="round" clip-rule="evenodd" viewBox="0 0 4738 1967"><use xlink:href="#a" width="157" height="95" transform="translate(2858.33 1183.33) scale(4.16667)"/><g fill="none"><path stroke="#0ff" stroke-width="25" d="M3374.92 1438.5h-213.75l-164.834-114.083"/><path stroke="#fff" stroke-width="12.5" d="M3374.92 1438.5h-213.75l-164.834-114.083"/></g><use xlink:href="#b" width="149" height="89" transform="translate(2912.5 391.667) scale(4.16667)"/><g fill="none"><path stroke="#0ff" stroke-width="25" d="M3395.79 531.417h-213.75l-130.667 90.458"/><path stroke="#fff" stroke-width="12.5" d="M3395.79 531.417h-213.75l-130.667 90.458"/></g><use xlink:href="#c" width="160" height="108" transform="translate(1275 1320.83) scale(4.16667)"/><g fill="none" stroke-linecap="butt" stroke-linejoin="miter" stroke-miterlimit="10"><path stroke="#0ff" stroke-width="25" d="m1805.71 1458.96-222.791 170.667h-182.75"/><path stroke="#fff" stroke-width="12.5" d="m1805.71 1458.96-222.791 170.667h-182.75"/></g><use xlink:href="#d" width="107" height="67" transform="translate(1241.67 791.667) scale(4.16667)"/><g fill="none" stroke-linecap="butt" stroke-linejoin="miter" stroke-miterlimit="10"><path stroke="#0ff" stroke-width="25" d="M1559.83 931.667h-192.083"/><path stroke="#fff" stroke-width="12.5" d="M1559.83 931.667h-192.083"/></g><use xlink:href="#e" width="155" height="93" transform="translate(1262.5 175) scale(4.16667)"/><g fill="none"><path stroke="#0ff" stroke-width="25" d="M1400.17 315.708h213.75L1767.461 422"/><path stroke="#fff" stroke-width="12.5" d="M1400.17 315.708h213.75L1767.461 422"/></g><path fill-rule="nonzero" d="M2234.38 853.583h43.542c29.375 0 51.958 10.375 51.958 41.75s-22.75 43.917-51.25 43.917h-17.75v47.125h-26.5V853.583Zm42.458 64.667c18.292 0 27.042-7.708 27.042-22.917 0-15.208-9.667-20.583-27.958-20.583h-15.042v43.542h15.958v-.042ZM2355.62 853.583h46.25c27.792 0 49.792 9.875 49.792 40.292 0 19.875-10.042 32.25-25.25 38.167l31 54.291h-29.584l-27.25-50.166h-18.458v50.166h-26.5v-132.75Zm43.75 61.625c17 0 26.5-7.166 26.5-21.333 0-14.167-9.5-19.167-26.5-19.167h-17.208v40.5h17.208Z"/><g fill="#fff" fill-rule="nonzero"><path d="M2234.38 853.583h43.542c29.375 0 51.958 10.375 51.958 41.75s-22.75 43.917-51.25 43.917h-17.75v47.125h-26.5V853.583Zm42.458 64.667c18.292 0 27.042-7.708 27.042-22.917 0-15.208-9.667-20.583-27.958-20.583h-15.042v43.542h15.958v-.042ZM2355.62 853.583h46.25c27.792 0 49.792 9.875 49.792 40.292 0 19.875-10.042 32.25-25.25 38.167l31 54.291h-29.584l-27.25-50.166h-18.458v50.166h-26.5v-132.75Zm43.75 61.625c17 0 26.5-7.166 26.5-21.333 0-14.167-9.5-19.167-26.5-19.167h-17.208v40.5h17.208Z"/></g><use xlink:href="#f" width="386" height="387" transform="translate(1541.67 112.5) scale(4.16667)"/><g fill="none" stroke-linecap="butt" stroke-linejoin="miter"><circle cx="2346.04" cy="919.833" r="674.458" stroke="#0ff" stroke-width="8.33"/><circle cx="2346.04" cy="919.833" r="674.458" stroke="#fff" stroke-width="4.17"/></g><use xlink:href="#g" width="432" height="432" transform="translate(1445.83 20.833) scale(4.16667)"/><g fill="none" stroke-linecap="butt" stroke-linejoin="miter"><circle cx="2347.62" cy="919.708" r="764.542" stroke="#0ff" stroke-width="16.67"/><circle cx="2347.62" cy="919.708" r="764.542" stroke="#fff" stroke-width="4.17"/></g><use xlink:href="#h" width="138" height="338" transform="translate(1429.17 183.333) scale(4.16667)"/><g fill="none"><path stroke="#0ff" stroke-width="54.17" d="M1785.5 1437.62c-126.417-136.375-203.708-318.958-203.708-519.583 0-232.5 103.791-440.792 267.583-581"/><path stroke="#fff" stroke-width="33.33" d="M1785.5 1437.62c-126.417-136.375-203.708-318.958-203.708-519.583 0-232.5 103.791-440.792 267.583-581"/></g><use xlink:href="#i" width="203" height="98" transform="translate(1812.5 1429.17) scale(4.16667)"/><g fill="none"><path stroke="#0ff" stroke-width="54.17" d="M2502.88 1666.5a768.775 768.775 0 0 1-156.542 16.042c-137.791 0-267.083-36.459-378.75-100.25"/><path stroke="#fff" stroke-width="33.33" d="M2502.88 1666.5a768.775 768.775 0 0 1-156.542 16.042c-137.791 0-267.083-36.459-378.75-100.25"/></g><use xlink:href="#j" width="116" height="290" transform="translate(2783.33 350) scale(4.16667)"/><g fill="none"><path stroke="#0ff" stroke-width="54.17" d="M2989.58 504.667c76.75 119.166 121.292 261.083 121.292 413.375 0 184.291-65.208 353.375-173.792 485.375"/><path stroke="#fff" stroke-width="33.33" d="M2989.58 504.667c76.75 119.166 121.292 261.083 121.292 413.375 0 184.291-65.208 353.375-173.792 485.375"/></g><use xlink:href="#k" width="225" height="105" transform="translate(1991.67) scale(4.16667)"/><g fill="none"><path stroke="#0ff" stroke-width="54.17" d="M2147.5 179.625c63.417-17.042 130.042-26.125 198.833-26.125 158.334 0 305.417 48.125 427.459 130.583"/><path stroke="#fff" stroke-width="33.33" d="M2147.5 179.625c63.417-17.042 130.042-26.125 198.833-26.125 158.334 0 305.417 48.125 427.459 130.583"/></g><g opacity=".2"><path fill="#0ff" fill-rule="nonzero" d="M2366.29 328.708h-41.792v-36.625h41.792v36.625ZM2237.523 301.2l41.383-5.817 5.096 36.267-41.383 5.817-5.096-36.267Zm-84.888 21.133 40.171-11.521 10.096 35.205-40.171 11.521-10.096-35.205Zm-81.083 32.767 38.179-17 14.896 33.458-38.179 17-14.896-33.458Zm-75.808 43.725 35.441-22.146 19.409 31.058-35.442 22.146-19.408-31.058Zm-68.896 53.825 32.012-26.863 23.542 28.059-32.012 26.862-23.542-28.058Zm-60.821 62.9 27.963-31.058L1921.206 509l-27.962 31.058-27.217-24.508Zm-51.408 70.779 23.371-34.646 30.362 20.479-23.371 34.646-30.362-20.479Zm-41.092 77.183 18.321-37.562 32.917 16.054-18.321 37.563-32.917-16.054Zm-29.921 82.2 12.913-39.746 34.833 11.316-12.912 39.746-34.834-11.317Zm-18.241 85.53 7.258-41.159 36.067 6.359-7.259 41.158-36.066-6.358Zm-6.092 87.266 1.458-41.766 36.605 1.279-1.459 41.766-36.604-1.279Zm6.1 87.234-4.367-41.563 36.425-3.829 4.367 41.562-36.425 3.83Zm18.171 85.608-10.109-40.55 35.538-8.858 10.108 40.55-35.537 8.858Zm29.854 82.162-15.654-38.75 33.958-13.72 15.654 38.75-33.958 13.72Zm41.071 77.275-20.896-36.191 31.717-18.313 20.896 36.192-31.717 18.312Zm51.375 70.759-25.729-32.934 28.862-22.55 25.729 32.934-28.862 22.55Zm60.75 62.933-30.063-29.029 25.442-26.346 30.063 29.029-25.442 26.346Zm68.904 53.871-33.808-24.563 21.529-29.629 33.808 24.563-21.529 29.629Zm75.742 43.746-36.9-19.621 17.196-32.338 36.899 19.621-17.195 32.338Zm81.116 32.762-39.27-14.291 12.525-34.417 39.27 14.292-12.525 34.416Zm84.85 21.238-40.879-8.688 7.617-35.825 40.879 8.688-7.617 35.825Zm86.95 9.146-41.691-2.917 2.554-36.538 41.692 2.917-2.555 36.538Zm87.442-3.013-41.692 2.917-2.554-36.538 41.692-2.916 2.554 36.537Zm86.133-15.208-40.879 8.687-7.616-35.825 40.879-8.687 7.616 35.825Zm83.213-26.992-39.271 14.292-12.525-34.417 39.271-14.292 12.525 34.417Zm78.642-38.321-36.9 19.621-17.196-32.337 36.9-19.621 17.196 32.337Zm72.5-48.896-33.809 24.563-21.529-29.629 33.808-24.563 21.53 29.629Zm65.012-58.529-30.062 29.029-25.442-26.345 30.062-29.03 25.442 26.346Zm56.238-66.971-25.73 32.934-28.862-22.55 25.729-32.934 28.863 22.55Zm46.379-74.166-20.896 36.191-31.717-18.312 20.896-36.192 31.717 18.313Zm35.575-79.913-15.654 38.75-33.959-13.721 15.654-38.75 33.959 13.721Zm24.166-84.066-10.108 40.55-35.537-8.859 10.108-40.55 35.537 8.859Zm12.175-86.6-4.366 41.562-36.425-3.829 4.366-41.563 36.425 3.83Zm.021-87.45 1.459 41.766-36.605 1.279-1.458-41.766 36.604-1.279Zm-12.141-86.638 7.258 41.158-36.067 6.359-7.258-41.159 36.067-6.358Zm-24.092-84.062 12.912 39.745-34.833 11.317-12.912-39.746 34.833-11.316Zm-50.129-26.334-18.334-37.541 16.167-7.917 16.75-8.167 18.292 37.584-32.875 16.041Z"/><use xlink:href="#l" width="150" height="97" transform="translate(2237.5 195.833) scale(4.16667)"/><path fill="none" stroke="#0ff" stroke-linecap="butt" stroke-linejoin="miter" stroke-miterlimit="10" stroke-width="8.33" d="M2363.42 325.958c141.916 3.834 270.875 57.167 370.833 143"/><use xlink:href="#m" width="102" height="109" transform="translate(2604.17 316.667) scale(4.16667)"/><path fill="none" stroke="#0ff" stroke-linecap="butt" stroke-linejoin="miter" stroke-miterlimit="10" stroke-width="41.67" d="m2743.04 459.75 21.291 19.125c47.417 44.542 87.625 96.583 118.792 154.125"/></g><use xlink:href="#n" width="344" height="131" transform="translate(3254.17 241.667) scale(4.16667)"/><g fill="none" stroke-linecap="butt" stroke-linejoin="miter" stroke-miterlimit="10"><path stroke="#0ff" stroke-width="25" d="M4486.67 649.375H3395.79V444.583l62.5-62.5h1090.88v204.792l-62.5 62.5Z"/><path stroke="#fff" stroke-width="12.5" d="M4486.67 649.375H3395.79V444.583l62.5-62.5h1090.88v204.792l-62.5 62.5Z"/></g><path fill="#fff" fill-rule="nonzero" d="M3690.88 470.417h13.25l10.75 50 6 29.625h.542l7.375-29.625 14.083-50h11.833l14.209 50 7.25 29.625h.708l5.875-29.625 10.75-50h12.417l-21.209 91.75h-15.458l-15.458-55.25-5.042-20.875h-.542l-5.166 20.875-15.209 55.25h-15.333l-21.625-91.75Zm124.5 57.875c0-22 16.583-35.75 34.167-35.75 19.25 0 30.125 12.5 30.125 31.875-.019 2.177-.2 4.35-.542 6.5h-51.042c.834 14.5 10.75 23.75 25.084 23.75 7.375 0 13.375-2 18.958-5.375l4.583 7.5c-6.708 3.875-14.791 7-25.083 7-20.083 0-36.25-13.125-36.25-35.5Zm53.125-5.625c0-13.625-6.958-21-18.833-21-10.75 0-20.209 7.75-21.75 21h40.583Zm40.375 32.5h-.583l-1.125 7h-10.167v-99.5h12.708v27.25l-.416 12.25c6.833-5.375 15.333-9.625 23.708-9.625 19.667 0 30.25 13.75 30.25 34.5 0 23.375-15.458 36.75-32.917 36.75-6.958 0-14.916-3.25-21.458-8.625Zm41.083-27.875c0-15-5.583-25.125-19.958-25.125-6.417 0-13.125 3.25-20.333 9.375v35.625c6.708 5.25 13.541 7.125 18.541 7.125 12.542 0 21.75-10.125 21.75-27Zm29.709-54.625c0-4.375 3.5-7.375 8.5-7.375s8.5 3 8.5 7.375c0 4.625-3.5 7.625-8.5 7.625s-8.5-3-8.5-7.625Zm2.083 21.625h12.708v67.875h-12.708v-67.875Zm36.917 0h10.5l1.125 9.75h.416c7.25-6.375 15.042-11.5 25.375-11.5 15.875 0 23.125 9.25 23.125 26.625v43h-12.666v-41.5c0-12.75-4.334-18.125-14.375-18.125-7.792 0-13.125 3.5-20.792 10.375v49.25h-12.708v-67.875Zm79.083 50.25c0-14.75 14.375-22.125 46.583-25.375 0-8.75-3.208-17.125-15.625-17.125-8.791 0-16.75 3.625-22.708 7.25l-5-7.875c6.958-4 17.708-8.875 29.833-8.875 18.417 0 26.209 11.125 26.209 27.875v41.75h-10.459l-1.125-8.125h-.416c-7.25 5.375-15.75 9.75-25.084 9.75-12.708 0-22.166-7-22.166-19.25h-.042Zm46.583 1.125v-19c-25.5 2.75-34.166 8.375-34.166 17.125 0 7.75 5.875 10.875 13.375 10.875s13.375-3.125 20.791-9Zm35.417-51.375h10.458l1.125 12.375h.417c5.292-8.625 12.958-14.125 21.458-14.125 3.334 0 5.709.375 8.084 1.5l-2.375 10c-2.5-.875-4.334-1.125-7.375-1.125-6.292 0-14.084 4-19.084 15.625v43.625h-12.708v-67.875Zm44.208 60.083 6.292-7.5c6.542 4.75 13.375 8 22.458 8 10.042 0 14.917-4.75 14.917-10.625 0-7-8.917-10-17.292-12.875-10.583-3.5-22.166-8.125-22.166-19.625 0-10.75 9.75-19.25 26.208-19.25 9.333 0 17.583 3.5 23.417 7.625l-6.125 7.375c-5.167-3.5-10.459-6-17.167-6-9.625 0-14.083 4.5-14.083 9.75 0 6.5 7.791 8.875 16.333 11.75 11 3.75 23.125 7.75 23.125 20.625 0 11-9.75 20.125-27.625 20.125a48.837 48.837 0 0 1-28.292-9.375Z"/><use xlink:href="#o" width="344" height="131" transform="translate(108.333 41.667) scale(4.16667)"/><g fill="none" stroke-linecap="butt" stroke-linejoin="miter" stroke-miterlimit="10"><path stroke="#0ff" stroke-width="25" d="M1337.67 449.375H246.84V244.583l62.5-62.5h1090.83v204.792l-62.5 62.5Z"/><path stroke="#fff" stroke-width="12.5" d="M1337.67 449.375H246.84V244.583l62.5-62.5h1090.83v204.792l-62.5 62.5Z"/></g><g fill="#fff" fill-rule="nonzero"><path d="M624.833 265.458h58.959v9.875h-46v28.75h38.75v9.875h-38.75v33.375h47.541v9.875h-60.5v-91.75Zm71.209 23.875h13.291l14.209 38.625 7.125 20h.541l6.959-20 14.375-38.625h12.541l-26.916 67.875h-14.792l-27.333-67.875Zm79.375 34c0-22 16.583-35.75 34.166-35.75 19.25 0 30.125 12.5 30.125 31.875a43.678 43.678 0 0 1-.541 6.5h-51.042c.833 14.5 10.75 23.75 25.083 23.75 7.375 0 13.375-2 18.959-5.375l4.583 7.5c-6.708 3.875-14.792 7-25.083 7-20.084 0-36.25-13.125-36.25-35.5Zm53.125-5.625c0-13.625-6.959-21-18.834-21-10.75 0-20.208 7.75-21.75 21h40.584Zm31.208-28.375h10.5l1.125 9.75h.417c7.25-6.375 15.041-11.5 25.375-11.5 15.875 0 23.125 9.25 23.125 26.625v43h-12.667v-41.5c0-12.75-4.333-18.125-14.375-18.125-7.792 0-13.125 3.5-20.792 10.375v49.25H859.75v-67.875Zm88.875 46.875v-37.625h-11.292v-8.625l11.834-.625 1.541-19.125h10.584v19.125h20.5v9.25h-20.5v37.875c0 8.375 2.916 13.125 11.708 13.125 2.667 0 6.125-.875 8.667-1.75l2.5 8.5c-4.334 1.25-9.334 2.5-13.959 2.5-16.166 0-21.625-9.125-21.625-22.625h.042Zm43.208 13.25 6.292-7.5c6.542 4.75 13.375 8 22.458 8 10.042 0 14.917-4.75 14.917-10.625 0-7-8.917-10-17.292-12.875-10.583-3.5-22.166-8.125-22.166-19.625 0-10.75 9.75-19.25 26.208-19.25 9.333 0 17.583 3.5 23.417 7.625l-6.125 7.375c-5.167-3.5-10.459-6-17.167-6-9.625 0-14.083 4.5-14.083 9.75 0 6.5 7.791 8.875 16.333 11.75 11 3.75 23.125 7.75 23.125 20.625 0 11-9.75 20.125-27.625 20.125a48.837 48.837 0 0 1-28.292-9.375ZM390.25 849.375c0-24.667 16.167-39.667 37.75-39.667 10.333 0 18.5 4.584 23.375 9.5l-5.792 6.25c-4.416-4.25-10.125-7.291-17.416-7.291-16.167 0-26.834 11.875-26.834 30.916 0 19.042 10.25 31.334 26.5 31.334 8.125 0 14.292-3.25 19.75-8.542l5.917 6.042c-6.75 6.958-15.125 10.916-26.167 10.916-21.166 0-37.083-14.666-37.083-39.458ZM464.75 859.25c0-18.333 13.833-29.792 28.458-29.792 16.042 0 25.125 10.417 25.125 26.542 0 2.083-.25 4.042-.458 5.417h-42.542c.709 12.083 8.959 19.791 20.917 19.791 6.167 0 11.167-1.666 15.792-4.458l3.833 6.25c-5.583 3.25-12.333 5.833-20.917 5.833-16.75 0-30.208-10.916-30.208-29.583Zm44.292-4.667c0-11.333-5.792-17.5-15.709-17.5-8.958 0-16.833 6.459-18.125 17.5h33.834ZM535.042 876.292v-71.709h10.583v72.292c0 2.917 1.375 4.083 3.042 4.083.583 0 1.041 0 2.208-.208l1.5 7.292c-1.5.5-3.25.833-6.167.833-7.916 0-11.166-4.583-11.166-12.583ZM564.583 859.25c0-18.333 13.834-29.792 28.459-29.792 16.041 0 25.083 10.417 25.083 26.542 0 2.083-.25 4.042-.458 5.417h-42.542c.708 12.083 8.958 19.791 20.917 19.791 6.166 0 11.166-1.666 15.791-4.458l3.834 6.25c-5.584 3.25-12.334 5.833-20.917 5.833-16.75 0-30.208-10.916-30.208-29.583h.041Zm44.292-4.667c0-11.333-5.792-17.5-15.708-17.5-8.959 0-16.834 6.459-18.125 17.5h33.833ZM644.75 881.667h-.458l-.917 5.833h-8.5v-82.917h10.583v22.709l-.333 10.208c5.708-4.5 12.792-8 19.75-8 16.375 0 25.208 11.458 25.208 28.75 0 19.458-12.916 30.625-27.416 30.625-5.792 0-12.417-2.708-17.875-7.167l-.042-.041Zm34.292-23.209c0-12.5-4.667-20.916-16.625-20.916-5.334 0-10.917 2.708-16.959 7.833v29.667c5.584 4.375 11.292 5.916 15.459 5.916 10.458 0 18.125-8.416 18.125-22.5Zm28.791-27.5h8.709l.916 10.292h.334c4.416-7.167 10.791-11.75 17.916-11.75 2.792 0 4.75.333 6.75 1.25l-1.958 8.333c-2.083-.708-3.625-.916-6.167-.916-5.208 0-11.75 3.333-15.916 13V887.5h-10.584v-56.542ZM752.333 812.917c0-3.667 2.917-6.125 7.084-6.125 4.166 0 7.083 2.5 7.083 6.125 0 3.833-2.917 6.333-7.083 6.333-4.167 0-7.084-2.5-7.084-6.333Zm1.75 18h10.584v56.541h-10.584v-56.541ZM789.083 870.042v-31.375h-9.416V831.5l9.875-.5 1.291-15.917h8.834V831h17.083v7.708h-17.083v31.542c0 6.958 2.458 10.917 9.75 10.917 2.208 0 5.125-.709 7.208-1.459l2.083 7.084c-3.583 1.041-7.791 2.083-11.625 2.083-13.5 0-18-7.625-18-18.833ZM825.792 910.708l2.083-7.583c1.292.417 3.125.917 4.75.917 7.208 0 11.75-5.209 14.292-12.167l1.375-4.25-25.334-56.667H834l12.917 31.459 6.041 15.833h.584l5.333-15.833 11.292-31.459H880.5l-23.833 61.25c-4.292 11.125-10.917 19.667-23.459 19.667-3.041 0-5.458-.417-7.458-1.167h.042Zm91.333-37.916c0-12.292 11.958-18.417 38.833-21.125 0-7.292-2.666-14.25-13-14.25-7.333 0-13.958 3.041-18.958 6.041l-4.167-6.583c5.792-3.333 14.75-7.375 24.875-7.375 15.334 0 21.834 9.25 21.834 23.208V887.5h-8.709l-.916-6.75h-.334c-6.041 4.5-13.125 8.125-20.916 8.125-10.584 0-18.459-5.833-18.459-16.042l-.083-.041Zm38.833.958v-15.833c-21.25 2.291-28.458 6.958-28.458 14.25 0 6.458 4.875 9.041 11.167 9.041 6.291 0 11.166-2.583 17.333-7.5l-.042.042Zm31.792-42.792h8.75l.917 8.125h.333c6.042-5.291 12.542-9.583 21.167-9.583 13.25 0 19.291 7.708 19.291 22.167V887.5h-10.583v-34.583c0-10.625-3.625-15.084-11.958-15.084-6.5 0-10.917 2.917-17.334 8.625V887.5H987.75v-56.542Zm67.667 28.292c0-18.333 12.916-29.792 27.291-29.792 7.459 0 12.209 2.5 17.792 6.667l-.458-9.792v-21.75h10.458V887.5h-8.583l-.917-6.667h-.333c-5 4.375-11.625 8-19.167 8-15.792 0-26.042-10.708-26.042-29.583h-.041Zm44.625 13.833v-29.666c-5.459-4.25-10.25-5.917-15.459-5.917-10.208 0-18.25 8.75-18.25 21.667 0 13.625 6.292 21.75 17.417 21.75 5.792 0 10.917-2.584 16.292-7.834ZM268 968.875h11.292l13.833 41.458 8.25 25.209h.458l8.25-25.209 13.709-41.458h10.916l-27.083 76.458h-12.417L268 968.875Zm79.5 0h10.792v76.458H347.5v-76.458Zm35.208 0h24.417c19.083 0 31.833 5.833 31.833 22.5S426.292 1015 407.583 1015H393.5v30.292h-10.792v-76.459.042Zm23.459 38.333c15 0 22.083-4.875 22.083-15.833s-7.542-14.583-22.542-14.583H393.5v30.416h12.667Zm78.333-38.333h49.167v8.208h-38.334v23.959h32.292v8.208h-32.292v27.792h39.625v8.208H484.5v-76.458.083ZM553 988.792h8.75l.917 8.125H563c6.042-5.292 12.542-9.584 21.167-9.584 13.25 0 19.291 7.709 19.291 22.167v35.833h-10.583v-34.583c0-10.625-3.625-15.083-11.958-15.083-6.5 0-10.917 2.916-17.334 8.625v41.041H553v-56.541ZM620.458 1056.17c0-4.792 3.375-9.375 9.292-12.792v-.417c-3.375-1.75-5.792-4.791-5.792-9.25 0-4.458 3.834-8.416 7.084-10.5v-.416c-4.167-3-8.25-8.417-8.25-15.209 0-12.375 10.916-20.208 23.708-20.208a28.04 28.04 0 0 1 8.833 1.458h21.959v7.292h-12.917c3.042 2.583 5.125 6.75 5.125 11.667 0 12.083-10.208 19.666-23 19.666-3.125 0-6.625-.708-9.417-1.958-2.333 1.75-4.083 3.625-4.083 6.75 0 3.667 2.542 6.125 11.042 6.125h12.333c14.625 0 22.083 4.167 22.083 13.417 0 10.5-12.416 19.583-31.958 19.583-15.458 0-26.042-5.417-26.042-15.208Zm47.667-2.917c0-5.208-4.542-6.958-12.917-6.958h-10.916c-2.334 0-5.334-.292-8.125-.917-4.542 2.917-6.375 6.25-6.375 9.583 0 6.042 6.875 10 18.25 10 12.083 0 20.125-5.75 20.125-11.666l-.042-.042ZM660 1007.545c0-8.209-6.042-13.209-13.5-13.209s-13.5 4.875-13.5 13.209c0 8.333 6.167 13.416 13.5 13.416s13.5-5.208 13.5-13.416ZM687.833 1030.62c0-12.292 11.959-18.417 38.834-21.125 0-7.292-2.667-14.25-13-14.25-7.334 0-13.959 3.042-18.959 6.042l-4.166-6.584c5.791-3.333 14.75-7.375 24.875-7.375 15.333 0 21.833 9.25 21.833 23.209v34.791h-8.708l-.917-6.75h-.333c-6.042 4.5-13.125 8.125-20.917 8.125-10.583 0-18.458-5.833-18.458-16.041l-.084-.042Zm38.834.958v-15.833c-21.25 2.292-28.459 6.958-28.459 14.25 0 6.458 4.875 9.042 11.167 9.042s11.167-2.584 17.333-7.5l-.041.041ZM753.75 1056.17c0-4.792 3.375-9.375 9.292-12.792v-.417c-3.375-1.75-5.792-4.791-5.792-9.25 0-4.458 3.833-8.416 7.083-10.5v-.416c-4.166-3-8.25-8.417-8.25-15.209 0-12.375 10.917-20.208 23.709-20.208 3.003.01 5.986.502 8.833 1.458h21.958v7.292h-12.916c3.041 2.583 5.125 6.75 5.125 11.667 0 12.083-10.209 19.666-23 19.666-3.125 0-6.625-.708-9.417-1.958-2.333 1.75-4.083 3.625-4.083 6.75 0 3.667 2.541 6.125 11.041 6.125h12.334c14.625 0 22.083 4.167 22.083 13.417 0 10.5-12.417 19.583-31.958 19.583-15.459 0-26.042-5.417-26.042-15.208Zm47.667-2.917c0-5.208-4.542-6.958-12.917-6.958h-10.917c-2.333 0-5.333-.292-8.125-.917-4.541 2.917-6.375 6.25-6.375 9.583 0 6.042 6.875 10 18.25 10 12.084 0 20.125-5.75 20.125-11.666l-.041-.042Zm-8.125-45.708c0-8.209-6.042-13.209-13.5-13.209-7.459 0-13.5 4.875-13.5 13.209 0 8.333 6.166 13.416 13.5 13.416 7.333 0 13.5-5.208 13.5-13.416ZM820.333 1017.08c0-18.333 13.834-29.791 28.459-29.791 16.041 0 25.083 10.416 25.083 26.541 0 2.084-.25 4.042-.458 5.417h-42.542c.708 12.083 8.958 19.792 20.917 19.792 6.166 0 11.166-1.667 15.791-4.459l3.834 6.25c-5.584 3.25-12.334 5.834-20.917 5.834-16.75 0-30.208-10.917-30.208-29.584h.041Zm44.292-4.666c0-11.334-5.792-17.5-15.708-17.5-8.959 0-16.834 6.458-18.125 17.5h33.833ZM890.625 988.792h8.708l.917 8.208h.333c5.459-5.417 12.084-9.708 19.625-9.708 9.667 0 14.875 4.166 17.417 10.833 6.5-6.333 13.125-10.833 20.792-10.833 13 0 19.166 7.708 19.166 22.166v35.834H967v-34.584c0-10.625-3.708-15.083-11.75-15.083-4.875 0-10 2.792-15.917 8.625v41.042H928.75v-34.584c0-10.625-3.708-15.083-11.75-15.083-4.75 0-10.125 2.792-15.917 8.625v41.042H890.5V988.75l.125.042ZM994.625 1017.08c0-18.333 13.833-29.791 28.458-29.791 16.042 0 25.125 10.416 25.125 26.541 0 2.084-.25 4.042-.458 5.417h-42.542c.709 12.083 8.959 19.792 20.917 19.792 6.167 0 11.167-1.667 15.792-4.459l3.833 6.25c-5.583 3.25-12.333 5.834-20.917 5.834-16.75 0-30.208-10.917-30.208-29.584Zm44.292-4.666c0-11.334-5.792-17.5-15.709-17.5-8.958 0-16.833 6.458-18.125 17.5h33.834ZM1064.88 988.792h8.75l.917 8.125h.333c6.042-5.292 12.542-9.584 21.167-9.584 13.25 0 19.291 7.709 19.291 22.167v35.833h-10.583v-34.583c0-10.625-3.625-15.083-11.958-15.083-6.5 0-10.917 2.916-17.334 8.625v41.041h-10.583v-56.541ZM1138.96 1027.88v-31.375h-9.416v-7.167l9.875-.5 1.291-15.916h8.834v15.916h17.083v7.709h-17.083v31.541c0 6.959 2.458 10.917 9.75 10.917 2.208 0 5.125-.708 7.208-1.458l2.083 7.083c-3.583 1.042-7.791 2.083-11.625 2.083-13.5 0-18-7.625-18-18.833Z"/></g><use xlink:href="#p" width="361" height="165" transform="translate(0 587.5) scale(4.16667)"/><g fill="none" stroke-linecap="butt" stroke-linejoin="miter" stroke-miterlimit="10"><path stroke="#0ff" stroke-width="25" d="M1301.62 1135.71H140.7V790.169l62.5-62.5h1160.92v345.541l-62.5 62.5Z"/><path stroke="#fff" stroke-width="12.5" d="M1301.62 1135.71H140.7V790.169l62.5-62.5h1160.92v345.541l-62.5 62.5Z"/></g><use xlink:href="#q" width="361" height="165" transform="translate(3233.33 1083.33) scale(4.16667)"/><g fill="none" stroke-linecap="butt" stroke-linejoin="miter" stroke-miterlimit="10"><path stroke="#0ff" stroke-width="25" d="M4535.79 1631.46H3374.87v-345.541l62.5-62.5h1160.92v345.541l-62.5 62.5Z"/><path stroke="#fff" stroke-width="12.5" d="M4535.79 1631.46H3374.87v-345.541l62.5-62.5h1160.92v345.541l-62.5 62.5Z"/></g><g fill="#fff" fill-rule="nonzero"><path d="M3572.17 1305.29h13.083l16.375 40.916 6.042 15.917h.583l5.792-15.917 16.291-40.916h13v76.458h-10.125v-42.292c0-6.541.834-15.833 1.375-22.5h-.458l-6.75 17.375-16.167 39.667h-7.208l-16.167-39.667-6.75-17.375h-.458l1.292 22.5v42.292h-9.75v-76.458ZM3662.08 1353.5c0-18.333 13.834-29.792 28.459-29.792 16.041 0 25.083 10.417 25.083 26.542 0 2.083-.25 4.042-.458 5.417h-42.542c.708 12.083 8.958 19.791 20.917 19.791 6.166 0 11.166-1.666 15.791-4.458l3.834 6.25c-5.584 3.25-12.334 5.833-20.917 5.833-16.75 0-30.208-10.916-30.208-29.583h.041Zm44.292-4.667c0-11.333-5.792-17.5-15.708-17.5-8.959 0-16.834 6.459-18.125 17.5h33.833ZM3727.88 1353.5c0-18.333 12.917-29.792 27.292-29.792 7.458 0 12.208 2.5 17.791 6.667l-.458-9.792v-21.75h10.458v82.917h-8.583l-.917-6.667h-.333c-5 4.375-11.625 8-19.167 8-15.791 0-26.041-10.708-26.041-29.583h-.042Zm44.625 13.833v-29.666c-5.458-4.25-10.25-5.917-15.458-5.917-10.209 0-18.25 8.75-18.25 21.667 0 13.625 6.291 21.75 17.416 21.75 5.792 0 10.917-2.584 16.292-7.834ZM3803.88 1307.17c0-3.667 2.917-6.125 7.083-6.125 4.167 0 7.084 2.5 7.084 6.125 0 3.833-2.917 6.333-7.084 6.333-4.166 0-7.083-2.5-7.083-6.333Zm1.75 18h10.583v56.541h-10.583v-56.541ZM3834.79 1367.04c0-12.292 11.958-18.417 38.833-21.125 0-7.292-2.667-14.25-13-14.25-7.333 0-13.958 3.041-18.958 6.041l-4.167-6.583c5.792-3.333 14.75-7.375 24.875-7.375 15.333 0 21.833 9.25 21.833 23.208v34.792h-8.708l-.917-6.75h-.333c-6.042 4.5-13.125 8.125-20.917 8.125-10.583 0-18.458-5.833-18.458-16.042l-.083-.041Zm38.833.958v-15.833c-21.25 2.291-28.458 6.958-28.458 14.25 0 6.458 4.875 9.041 11.166 9.041 6.292 0 11.167-2.583 17.334-7.5l-.042.042ZM3933.54 1305.29h26.75c17.333 0 29.75 5.625 29.75 21.541 0 11.875-7.667 18.959-19.292 21.459l21.833 33.416h-12.208l-20.667-32.375h-15.333v32.375h-10.792v-76.458l-.041.042Zm25.125 36.25c13.375 0 20.666-4.792 20.666-14.667s-7.333-13.625-20.666-13.625h-14.292v28.333h14.292v-.041ZM4002.92 1353.5c0-18.333 13.833-29.792 28.458-29.792 16.042 0 25.125 10.417 25.125 26.542 0 2.083-.25 4.042-.458 5.417h-42.542c.708 12.083 8.958 19.791 20.917 19.791 6.166 0 11.166-1.666 15.791-4.458l3.834 6.25c-5.584 3.25-12.334 5.833-20.917 5.833-16.75 0-30.208-10.916-30.208-29.583Zm44.291-4.667c0-11.333-5.791-17.5-15.708-17.5-8.958 0-16.833 6.459-18.125 17.5h33.833ZM4073.21 1370.5v-71.708h10.584v72.291c0 2.917 1.375 4.084 3.041 4.084.584 0 1.042 0 2.209-.209l1.5 7.292c-1.5.5-3.25.833-6.167.833-7.917 0-11.167-4.583-11.167-12.583ZM4103.54 1367.04c0-12.292 11.958-18.417 38.833-21.125 0-7.292-2.667-14.25-13-14.25-7.333 0-13.958 3.041-18.958 6.041l-4.167-6.583c5.792-3.333 14.75-7.375 24.875-7.375 15.333 0 21.833 9.25 21.833 23.208v34.792h-8.708l-.917-6.75h-.333c-6.042 4.5-13.125 8.125-20.917 8.125-10.583 0-18.458-5.833-18.458-16.042l-.083-.041Zm38.833.958v-15.833c-21.25 2.291-28.458 6.958-28.458 14.25 0 6.458 4.875 9.041 11.166 9.041 6.292 0 11.167-2.583 17.334-7.5l-.042.042ZM4176.08 1364.25v-31.375h-9.416v-7.167l9.875-.5 1.291-15.916h8.834v15.916h17.083v7.709h-17.083v31.541c0 6.959 2.458 10.917 9.75 10.917 2.208 0 5.125-.708 7.208-1.458l2.083 7.083c-3.583 1.042-7.791 2.083-11.625 2.083-13.5 0-18-7.625-18-18.833ZM4217.42 1307.17c0-3.667 2.916-6.125 7.083-6.125s7.083 2.5 7.083 6.125c0 3.833-2.916 6.333-7.083 6.333s-7.083-2.5-7.083-6.333Zm1.75 18h10.583v56.541h-10.583v-56.541ZM4247.54 1353.5c0-18.833 13.833-29.792 29.291-29.792 15.459 0 29.292 10.917 29.292 29.792s-13.833 29.583-29.292 29.583c-15.458 0-29.291-10.833-29.291-29.583Zm47.666 0c0-13-7.458-21.875-18.375-21.875-10.916 0-18.25 8.833-18.25 21.875s7.334 21.667 18.25 21.667c10.917 0 18.375-8.667 18.375-21.667ZM4323.83 1325.17h8.75l.917 8.125h.333c6.042-5.292 12.542-9.584 21.167-9.584 13.25 0 19.292 7.709 19.292 22.167v35.833h-10.584v-34.583c0-10.625-3.625-15.083-11.958-15.083-6.5 0-10.917 2.916-17.333 8.625v41.041h-10.584v-56.541ZM4388.96 1375.25l5.25-6.25c5.459 3.958 11.167 6.667 18.709 6.667 8.375 0 12.458-3.959 12.458-8.834 0-5.833-7.458-8.333-14.417-10.708-8.833-2.917-18.5-6.75-18.5-16.333 0-8.959 8.125-16.042 21.834-16.042 7.791 0 14.625 2.917 19.541 6.333l-5.125 6.167c-4.291-2.917-8.708-5-14.291-5-8 0-11.75 3.75-11.75 8.125 0 5.417 6.5 7.417 13.583 9.792 9.167 3.125 19.292 6.458 19.292 17.166 0 9.167-8.125 16.75-23 16.75a40.592 40.592 0 0 1-23.584-7.833ZM3658.25 1524.88c0-12.292 11.958-18.417 38.833-21.125 0-7.292-2.666-14.25-13-14.25-7.333 0-13.958 3.042-18.958 6.042l-4.167-6.584c5.792-3.333 14.75-7.375 24.875-7.375 15.334 0 21.834 9.25 21.834 23.209v34.791h-8.709l-.916-6.75h-.334c-6.041 4.5-13.125 8.125-20.916 8.125-10.584 0-18.459-5.833-18.459-16.041l-.083-.042Zm38.833.958v-15.833c-21.25 2.292-28.458 6.958-28.458 14.25 0 6.458 4.875 9.042 11.167 9.042 6.291 0 11.166-2.584 17.333-7.5l-.042.041ZM3728.88 1483h8.75l.917 8.125h.333c6.042-5.292 12.542-9.583 21.167-9.583 13.25 0 19.291 7.708 19.291 22.166v35.834h-10.583v-34.584c0-10.625-3.625-15.083-11.958-15.083-6.5 0-10.917 2.917-17.334 8.625v41.042h-10.583V1483ZM3796.54 1511.33c0-18.333 12.916-29.791 27.291-29.791 7.459 0 12.209 2.5 17.792 6.666l-.458-9.791v-21.75h10.458v82.916h-8.583l-.917-6.666h-.333c-5 4.375-11.625 8-19.167 8-15.792 0-26.042-10.709-26.042-29.584h-.041Zm44.625 13.834v-29.667c-5.459-4.25-10.25-5.917-15.459-5.917-10.25 0-18.25 8.75-18.25 21.667 0 13.625 6.292 21.75 17.417 21.75 5.792 0 10.917-2.583 16.292-7.833Zm61.25-62.042h25.333c17.333 0 29.292 5.292 29.292 18.75 0 7.583-4.542 14.25-12.459 16.542v.5c10.125 1.791 17.334 7.833 17.334 18.208 0 15-13.25 22.375-32.292 22.375h-27.208v-76.458.083Zm23.458 32.583c14.625 0 20.583-4.875 20.583-12.583 0-8.958-6.875-12.292-20.125-12.292h-13.125v24.875h12.667Zm2.208 36.125c14.625 0 23.25-4.666 23.25-15 0-9.458-8.375-13.833-23.25-13.833h-14.875v28.833h14.875ZM3979 1483h8.708l.917 10.292h.333c4.417-7.167 10.792-11.75 17.917-11.75 2.792 0 4.75.333 6.75 1.25l-1.958 8.333c-2.084-.708-3.625-.917-6.167-.917-5.208 0-11.75 3.334-15.917 13v36.334H3979V1483ZM4023.5 1465c0-3.667 2.917-6.125 7.083-6.125 4.167 0 7.084 2.5 7.084 6.125 0 3.833-2.917 6.333-7.084 6.333-4.166 0-7.083-2.5-7.083-6.333Zm1.75 18h10.583v56.542h-10.583V1483ZM4053.58 1511.33c0-18.333 13.834-29.791 28.459-29.791 16.041 0 25.083 10.416 25.083 26.541 0 2.084-.25 4.042-.458 5.417h-42.542c.708 12.083 8.958 19.792 20.917 19.792 6.166 0 11.166-1.667 15.791-4.459l3.834 6.25c-5.584 3.25-12.334 5.834-20.917 5.834-16.75 0-30.208-10.917-30.208-29.584h.041Zm44.292-4.666c0-11.334-5.792-17.5-15.708-17.5-8.959 0-16.834 6.458-18.125 17.5h33.833ZM4125.62 1490.71h-8.583v-7.166l8.583-.5v-9.042c0-11.458 5.792-18.625 18.375-18.625 3.833 0 7.667.708 10.583 1.875l-2.333 7.167c-2.333-.917-4.875-1.459-7.083-1.459-6.042 0-8.959 3.834-8.959 11.125v8.959h13.375v7.708h-13.375v48.833h-10.583v-48.875Zm34.417-25.708c0-3.667 2.916-6.125 6.958-6.125s7.208 2.5 7.208 6.125c0 3.833-3 6.333-7.208 6.333s-6.958-2.5-6.958-6.333Zm1.625 18h10.708v56.542h-10.708v-56.542ZM4194.71 1483h8.75l.917 8.125h.333c6.042-5.292 12.542-9.583 21.167-9.583 13.25 0 19.292 7.708 19.292 22.166v35.834h-10.584v-34.584c0-10.625-3.625-15.083-11.958-15.083-6.5 0-10.917 2.917-17.333 8.625v41.042h-10.584V1483ZM4262.17 1550.38c0-4.792 3.375-9.375 9.291-12.792v-.416c-3.375-1.75-5.791-4.792-5.791-9.25 0-4.459 3.833-8.417 7.083-10.5v-.417c-4.167-3-8.25-8.417-8.25-15.208 0-12.375 10.917-20.209 23.708-20.209 3.004.01 5.986.503 8.834 1.459h21.958v7.291h-12.917c3.042 2.584 5.125 6.75 5.125 11.667 0 12.083-10.208 19.667-23 19.667-3.125 0-6.625-.709-9.416-1.959-2.334 1.75-4.084 3.625-4.084 6.75 0 3.667 2.542 6.125 11.042 6.125h12.333c14.625 0 22.084 4.167 22.084 13.417 0 10.5-12.417 19.583-31.959 19.583-15.458 0-26.041-5.416-26.041-15.208Zm47.666-2.917c0-5.208-4.541-6.958-12.916-6.958h-10.917c-2.333 0-5.333-.292-8.125-.917-4.542 2.917-6.375 6.25-6.375 9.584 0 6.041 6.875 10 18.25 10 12.083 0 20.125-5.75 20.125-11.667l-.042-.042Zm-8.125-45.708c0-8.208-6.041-13.208-13.5-13.208-7.458 0-13.5 4.875-13.5 13.208s6.167 13.417 13.5 13.417c7.334 0 13.5-5.209 13.5-13.417Z"/></g><use xlink:href="#r" width="361" height="165" transform="translate(29.167 1279.17) scale(4.16667)"/><g fill="none" stroke-linecap="butt" stroke-linejoin="miter" stroke-miterlimit="10"><path stroke="#0ff" stroke-width="25" d="M1331.5 1825.62H170.62v-345.542l62.5-62.5H1394v345.542l-62.5 62.5Z"/><path stroke="#fff" stroke-width="12.5" d="M1331.5 1825.62H170.62v-345.542l62.5-62.5H1394v345.542l-62.5 62.5Z"/></g><g fill="#fff" fill-rule="nonzero"><path d="m525.25 1556.25 6.5-6.542c6.042 5.709 14.625 9.459 23.458 9.459 11.167 0 17.875-5 17.875-12.5s-6.166-10.292-14.166-13.542l-12.334-4.792c-7.916-3-17.333-8.416-17.333-19.583 0-11.75 11.375-20.292 26.833-20.292 10.125 0 19.042 3.834 25.125 9.5l-5.708 6.125c-5.208-4.375-11.5-7.166-19.417-7.166-9.666 0-15.916 4.375-15.916 11.25 0 7.375 7.458 10.208 14.083 12.708l12.208 4.667c9.875 3.833 17.542 9.041 17.542 20.416 0 12.084-11.167 21.667-28.958 21.667-12.084 0-22.417-4.375-29.875-11.333l.083-.042ZM602.875 1548.79v-31.375h-9.417v-7.167l9.875-.5 1.292-15.917h8.833v15.917h17.084v7.708h-17.084v31.542c0 6.958 2.459 10.917 9.75 10.917 2.209 0 5.125-.709 7.209-1.459l2.083 7.084c-3.583 1.041-7.792 2.083-11.625 2.083-13.5 0-18-7.625-18-18.833ZM646 1509.71h8.708l.917 10.292h.333c4.417-7.167 10.792-11.75 17.917-11.75 2.792 0 4.75.333 6.75 1.25l-1.958 8.333c-2.084-.708-3.625-.916-6.167-.916-5.208 0-11.75 3.333-15.917 13v36.333H646v-56.542ZM688.292 1551.58c0-12.291 11.958-18.416 38.833-21.125 0-7.291-2.667-14.25-13-14.25-7.333 0-13.958 3.042-18.958 6.042l-4.167-6.583c5.792-3.334 14.75-7.375 24.875-7.375 15.333 0 21.833 9.25 21.833 23.208v34.792H729l-.917-6.75h-.333c-6.042 4.5-13.125 8.125-20.917 8.125-10.583 0-18.458-5.834-18.458-16.042l-.083-.042Zm38.833.959v-15.834c-21.25 2.292-28.458 6.959-28.458 14.25 0 6.459 4.875 9.042 11.166 9.042 6.292 0 11.167-2.583 17.334-7.5l-.042.042ZM760.792 1548.79v-31.375h-9.417v-7.167l9.875-.5 1.292-15.917h8.833v15.917h17.083v7.708h-17.083v31.542c0 6.958 2.458 10.917 9.75 10.917 2.208 0 5.125-.709 7.208-1.459l2.084 7.084c-3.584 1.041-7.792 2.083-11.625 2.083-13.5 0-18-7.625-18-18.833ZM799.167 1538.04c0-18.334 13.833-29.792 28.458-29.792 16.042 0 25.125 10.417 25.125 26.542 0 2.083-.25 4.041-.458 5.416H809.75c.708 12.084 8.958 19.792 20.917 19.792 6.166 0 11.166-1.667 15.791-4.458l3.834 6.25c-5.584 3.25-12.334 5.833-20.917 5.833-16.75 0-30.208-10.917-30.208-29.583Zm44.291-4.667c0-11.333-5.791-17.5-15.708-17.5-8.958 0-16.833 6.458-18.125 17.5h33.833ZM864.708 1577.08c0-4.791 3.375-9.375 9.292-12.791v-.417c-3.375-1.75-5.792-4.792-5.792-9.25s3.834-8.417 7.084-10.5v-.417c-4.167-3-8.25-8.416-8.25-15.208 0-12.375 10.916-20.208 23.708-20.208a28.04 28.04 0 0 1 8.833 1.458h21.959v7.292h-12.917c3.042 2.583 5.125 6.75 5.125 11.666 0 12.084-10.208 19.667-23 19.667-3.125 0-6.625-.708-9.417-1.958-2.333 1.75-4.083 3.625-4.083 6.75 0 3.666 2.542 6.125 11.042 6.125h12.333c14.625 0 22.083 4.166 22.083 13.416 0 10.5-12.416 19.584-31.958 19.584-15.458 0-26.042-5.417-26.042-15.209Zm47.667-2.916c0-5.209-4.542-6.959-12.917-6.959h-10.916c-2.334 0-5.334-.291-8.125-.916-4.542 2.916-6.375 6.25-6.375 9.583 0 6.042 6.875 10 18.25 10 12.083 0 20.125-5.75 20.125-11.667l-.042-.041Zm-8.125-45.709c0-8.208-6.042-13.208-13.5-13.208s-13.5 4.875-13.5 13.208c0 8.334 6.167 13.417 13.5 13.417s13.5-5.208 13.5-13.417ZM934.292 1491.67c0-3.667 2.916-6.125 7.083-6.125s7.083 2.5 7.083 6.125c0 3.833-2.916 6.333-7.083 6.333s-7.083-2.5-7.083-6.333Zm1.75 18h10.583v56.541h-10.583v-56.541ZM964.417 1538.04c0-18.834 14.291-29.792 30.458-29.792 8.25 0 13.958 3.125 18.5 6.667l-5.458 6.25c-3.709-2.917-7.542-5-12.542-5-11.5 0-19.875 8.833-19.875 21.875 0 13.041 7.917 21.666 19.542 21.666 5.791 0 10.916-2.416 14.875-5.625l4.666 6.334c-5.708 4.583-12.916 7.166-20.458 7.166-16.75 0-29.625-10.833-29.625-29.583l-.083.042Zm-647.709 147.916c0-24.666 16.167-39.666 37.75-39.666 10.334 0 18.5 4.583 23.375 9.5l-5.791 6.25c-4.417-4.25-10.125-7.292-17.417-7.292-16.167 0-26.833 11.875-26.833 30.917 0 19.041 10.25 31.333 26.5 31.333 8.125 0 14.291-3.25 19.75-8.542l5.916 6.042c-6.75 6.958-15.125 10.917-26.166 10.917-21.167 0-37.084-14.667-37.084-39.459ZM391.208 1695.83c0-18.833 13.834-29.791 29.292-29.791 15.458 0 29.292 10.916 29.292 29.791s-13.834 29.584-29.292 29.584c-15.458 0-29.292-10.834-29.292-29.584Zm47.667 0c0-13-7.458-21.875-18.375-21.875s-18.25 8.834-18.25 21.875c0 13.042 7.333 21.667 18.25 21.667s18.375-8.667 18.375-21.667ZM467.542 1667.54h8.708l.917 8.208h.333c5.458-5.417 12.083-9.708 19.625-9.708 9.667 0 14.875 4.166 17.417 10.833 6.5-6.333 13.125-10.833 20.791-10.833 13 0 19.167 7.708 19.167 22.166v35.834h-10.583v-34.584c0-10.625-3.709-15.083-11.75-15.083-4.875 0-10 2.792-15.917 8.625v41.042h-10.583v-34.584c0-10.625-3.709-15.083-11.75-15.083-4.75 0-10.125 2.792-15.917 8.625v41.042h-10.583v-56.542l.125.042ZM576.333 1667.54h8.709l.916 8.208h.334c5.458-5.417 12.083-9.708 19.625-9.708 9.666 0 14.875 4.166 17.416 10.833 6.5-6.333 13.125-10.833 20.792-10.833 13 0 19.167 7.708 19.167 22.166v35.834h-10.584v-34.584c0-10.625-3.708-15.083-11.75-15.083-4.875 0-10 2.792-15.916 8.625v41.042h-10.584v-34.584c0-10.625-3.708-15.083-11.75-15.083-4.75 0-10.125 2.792-15.916 8.625v41.042h-10.584v-56.542l.125.042ZM684.292 1703.33v-35.833h10.583v34.667c0 10.5 3.5 15 11.833 15 6.5 0 11.042-2.792 17.084-9.584v-40.083h10.583v56.542h-8.833l-.834-8.834h-.333c-5.917 6.125-12.208 10.209-20.917 10.209-13.25 0-19.166-7.709-19.166-22.084ZM756.75 1667.54h8.75l.917 8.125h.333c6.042-5.292 12.542-9.584 21.167-9.584 13.25 0 19.291 7.709 19.291 22.167v35.833h-10.583v-34.583c0-10.625-3.625-15.083-11.958-15.083-6.5 0-10.917 2.916-17.334 8.625v41.041H756.75v-56.541ZM827.208 1649.5c0-3.667 2.917-6.125 7.084-6.125 4.166 0 7.083 2.5 7.083 6.125 0 3.833-2.917 6.333-7.083 6.333-4.167 0-7.084-2.5-7.084-6.333Zm1.75 18h10.584v56.542h-10.584V1667.5ZM857.333 1695.83c0-18.833 14.292-29.791 30.459-29.791 8.25 0 13.958 3.125 18.458 6.666l-5.458 6.25c-3.709-2.916-7.542-5-12.542-5-11.5 0-19.875 8.834-19.875 21.875 0 13.042 7.917 21.667 19.542 21.667 5.791 0 10.916-2.417 14.875-5.625l4.666 6.333c-5.708 4.584-12.916 7.167-20.458 7.167-16.75 0-29.625-10.833-29.625-29.583l-.042.041ZM918.458 1709.38c0-12.292 11.959-18.417 38.834-21.125 0-7.292-2.667-14.25-13-14.25-7.334 0-13.959 3.042-18.959 6.042l-4.166-6.584c5.791-3.333 14.75-7.375 24.875-7.375 15.333 0 21.833 9.25 21.833 23.209v34.791h-8.708l-.917-6.75h-.333c-6.042 4.5-13.125 8.125-20.917 8.125-10.583 0-18.458-5.833-18.458-16.041l-.084-.042Zm38.834.958v-15.833c-21.25 2.292-28.459 6.958-28.459 14.25 0 6.458 4.875 9.042 11.167 9.042s11.167-2.584 17.333-7.5l-.041.041ZM990.958 1706.62v-31.375h-9.416v-7.167l9.875-.5 1.291-15.916h8.834v15.916h17.083v7.709h-17.083v31.541c0 6.959 2.458 10.917 9.75 10.917 2.208 0 5.125-.708 7.208-1.458l2.083 7.083c-3.583 1.042-7.791 2.083-11.625 2.083-13.5 0-18-7.625-18-18.833ZM1032.33 1649.5c0-3.667 2.917-6.125 7.084-6.125 4.166 0 7.083 2.5 7.083 6.125 0 3.833-2.917 6.333-7.083 6.333-4.167 0-7.084-2.5-7.084-6.333Zm1.75 18h10.584v56.542h-10.584V1667.5ZM1062.42 1695.83c0-18.833 13.833-29.791 29.291-29.791 15.459 0 29.292 10.916 29.292 29.791s-13.833 29.584-29.292 29.584c-15.458 0-29.291-10.834-29.291-29.584Zm47.666 0c0-13-7.458-21.875-18.375-21.875-10.916 0-18.25 8.834-18.25 21.875 0 13.042 7.334 21.667 18.25 21.667 10.917 0 18.375-8.667 18.375-21.667ZM1138.71 1667.54h8.75l.917 8.125h.333c6.042-5.292 12.542-9.584 21.167-9.584 13.25 0 19.292 7.709 19.292 22.167v35.833h-10.584v-34.583c0-10.625-3.625-15.083-11.958-15.083-6.5 0-10.917 2.916-17.333 8.625v41.041h-10.584v-56.541ZM1203.83 1717.62l5.25-6.25c5.459 3.958 11.167 6.667 18.709 6.667 8.375 0 12.458-3.959 12.458-8.834 0-5.833-7.458-8.333-14.417-10.708-8.833-2.917-18.5-6.75-18.5-16.333 0-8.959 8.125-16.042 21.834-16.042 7.791 0 14.625 2.917 19.541 6.333l-5.125 6.167c-4.291-2.917-8.708-5-14.291-5-8 0-11.75 3.75-11.75 8.125 0 5.417 6.5 7.417 13.583 9.792 9.167 3.125 19.292 6.458 19.292 17.166 0 9.167-8.125 16.75-23 16.75a40.592 40.592 0 0 1-23.584-7.833Z"/></g></svg>