<svg xmlns="http://www.w3.org/2000/svg" xmlns:xlink="http://www.w3.org/1999/xlink" viewBox="0 0 1104 457"><style>.N{fill:none}.O{stroke:#0ff}.P{stroke:#fff}.Q{stroke-width:6}.R{stroke-width:3}.S{stroke-miterlimit:10}.T{stroke-linecap:round}.U{stroke-linejoin:round}.V{fill:#fff}.W{stroke-width:13}.X{stroke-width:8}</style><defs><path id="B" d="m454.46 210.26 4.42-5.3c2.76 2.55 6.4 4.26 9.78 4.26 4 0 6.14-1.72 6.14-4.42 0-2.86-2.34-3.74-5.77-5.2l-5.15-2.18c-3.9-1.61-7.8-4.73-7.8-10.35 0-6.29 5.51-11.13 13.31-11.13 4.47 0 8.94 1.77 12.06 4.94l-3.9 4.84c-2.44-2.03-4.99-3.17-8.16-3.17-3.38 0-5.51 1.51-5.51 4.06 0 2.76 2.7 3.74 5.98 5.04l5.04 2.13c4.68 1.92 7.75 4.89 7.75 10.45 0 6.29-5.25 11.65-14.14 11.65-5.15 0-10.3-2.03-14.04-5.62Z"/><path id="C" d="M489.45 176.61h8.53l6.55 18.04 2.34 7.38h.26l2.34-7.38 6.4-18.04h8.53v38.53h-7.02v-16.07c0-3.64.57-9 .99-12.64h-.26l-3.12 9.05-5.93 16.17h-4.42l-5.98-16.17-3.07-9.05h-.21c.36 3.64.99 9 .99 12.64v16.07h-6.92v-38.53z"/><path id="D" d="M541.25 176.61h9.05l12.38 38.53h-8.06l-2.7-9.88h-12.48l-2.71 9.88h-7.8l12.32-38.53Zm-.16 22.67h9.15l-1.14-4.21c-1.2-4-2.24-8.42-3.33-12.58h-.26c-.99 4.21-2.13 8.58-3.28 12.58l-1.14 4.21Z"/><path id="E" d="M567.19 176.61h13.42c8.06 0 14.46 2.86 14.46 11.7 0 5.77-2.91 9.36-7.33 11.08l9 15.76h-8.58l-7.9-14.56h-5.36v14.56h-7.7v-38.53Zm12.69 17.89c4.94 0 7.7-2.08 7.7-6.19s-2.76-5.56-7.7-5.56h-4.99v11.75h4.99Z"/><path id="F" d="M610.3 183.06h-10.82v-6.45h29.43v6.45h-10.92v32.08h-7.7v-32.08Z"/><path id="G" d="M422.91 249.91c0-9.76 6.28-15.48 13.76-15.48 3.76 0 6.76 1.8 8.68 3.8l-3.08 3.76c-1.52-1.44-3.24-2.48-5.48-2.48-4.48 0-7.84 3.84-7.84 10.2s3.04 10.32 7.72 10.32c2.56 0 4.52-1.2 6.12-2.92l3.12 3.68c-2.44 2.84-5.6 4.36-9.44 4.36-7.48 0-13.56-5.36-13.56-15.24Z"/><path id="H" d="M449.19 249.67c0-9.64 5.4-15.24 13.24-15.24s13.24 5.64 13.24 15.24-5.4 15.48-13.24 15.48-13.24-5.88-13.24-15.48Zm20.44 0c0-6.36-2.8-10.16-7.2-10.16s-7.2 3.8-7.2 10.16 2.8 10.36 7.2 10.36 7.2-4.04 7.2-10.36Z"/><path id="I" d="M481.47 234.95h6.04l8.6 15.8 2.96 6.4h.2c-.28-3.08-.76-7-.76-10.36v-11.84h5.6v29.63h-6l-8.56-15.84-3-6.36h-.2c.28 3.2.72 6.92.72 10.32v11.88h-5.6v-29.63z"/><path id="J" d="M517.31 239.91h-8.32v-4.96h22.64v4.96h-8.4v24.68h-5.92v-24.68Z"/><path id="K" d="M536.43 234.95h10.32c6.2 0 11.12 2.2 11.12 9 0 4.44-2.24 7.2-5.64 8.52l6.92 12.12h-6.6l-6.08-11.2h-4.12v11.2h-5.92v-29.63Zm9.76 13.76c3.8 0 5.92-1.6 5.92-4.76s-2.12-4.28-5.92-4.28h-3.84v9.04h3.84Z"/><path id="L" d="M569.39 234.95h6.96l9.52 29.63h-6.2l-2.08-7.6h-9.6l-2.08 7.6h-6l9.48-29.63zm-.12 17.44h7.04l-.88-3.24c-.92-3.08-1.72-6.48-2.56-9.68h-.2a213.2 213.2 0 0 1-2.52 9.68l-.88 3.24z"/><path id="M" d="m638.67 260.82 3.4-4.08c2.12 1.96 4.92 3.28 7.52 3.28 3.08 0 4.72-1.32 4.72-3.4 0-2.2-1.8-2.88-4.44-4l-3.96-1.68c-3-1.24-6-3.64-6-7.96 0-4.84 4.24-8.56 10.24-8.56 3.44 0 6.88 1.36 9.28 3.8l-3 3.72c-1.88-1.56-3.84-2.44-6.28-2.44-2.6 0-4.24 1.16-4.24 3.12 0 2.12 2.08 2.88 4.6 3.88l3.88 1.64c3.6 1.48 5.96 3.76 5.96 8.04 0 4.84-4.04 8.96-10.88 8.96-3.96 0-7.92-1.56-10.8-4.32Z"/><path id="N" d="M407.15 345.07c-30.34-32.73-48.89-76.55-48.89-124.7 0-55.8 24.91-105.79 64.22-139.44"/><path id="O" d="M579.32 400a184.51 184.51 0 0 1-37.57 3.85c-33.07 0-64.1-8.75-90.9-24.06"/><path id="P" d="M696.13 121.16c18.42 28.6 29.11 62.66 29.11 99.21 0 44.23-15.65 84.81-41.71 116.49"/><path id="Q" d="M494.03 43.15c15.22-4.09 31.21-6.27 47.72-6.27 38 0 73.3 11.55 102.59 31.34"/><path id="R" d="M299.67 107.89H37.86V58.74l15-15h261.81v49.15l-15 15z"/><path id="S" d="M170.97 64.29c0-1.05.84-1.77 2.04-1.77s2.04.72 2.04 1.77c0 1.11-.84 1.83-2.04 1.83s-2.04-.72-2.04-1.83zm.5 5.19h3.05v16.29h-3.05V69.48z"/><path id="T" d="M295.71 254.98H33.9v-49.15l15-15h261.81v49.15l-15 15z"/><path id="U" d="M299.67 423.22H37.86v-49.15l15-15h261.81v49.15l-15 15z"/><path id="V" d="M211.51 382.79h2.51l.27 2.97h.1c1.27-2.07 3.11-3.39 5.15-3.39.8 0 1.37.09 1.94.36l-.57 2.4c-.6-.21-1.04-.27-1.77-.27-1.51 0-3.38.96-4.58 3.75v10.47h-3.05v-16.29z"/><path id="W" d="M1055.43 155.89H793.62v-49.15l15-15h261.81v49.15l-15 15z"/><path id="X" d="M951.04 120.89h-7.6v14.07h-3.05v-14.07h-2.48v-2.07l2.48-.15v-2.19c0-3.36 1.87-5.46 5.66-5.46 1.17 0 2.38.21 3.31.57l-.64 2.1a6.07 6.07 0 0 0-2.44-.48c-1.81 0-2.84 1.2-2.84 3.36v2.1h7.6v-2.61c0-3.3 1.67-5.37 5.32-5.37 1.07 0 2.17.21 3.01.54l-.64 2.07c-.7-.27-1.44-.42-2.07-.42-1.74 0-2.58 1.11-2.58 3.21v2.58h3.85v2.22h-3.85v14.07h-3.04v-14.07zm10.41 10.83v-20.64h3.05v20.82c0 .84.4 1.17.84 1.17.17 0 .33 0 .67-.06l.4 2.1c-.44.15-.94.24-1.74.24-2.28 0-3.21-1.32-3.21-3.63z"/></defs><g class="N T U"><path d="M788.6 345.28h-51.29 0l-39.56-27.38" class="O Q"/><path d="M788.6 345.28h-51.29 0l-39.56-27.38" class="P R"/></g><g class="N T U"><path d="M793.62 127.58h-51.3 0l-31.36 21.71" class="O Q"/><path d="M793.62 127.58h-51.3 0l-31.36 21.71" class="P R"/></g><g class="N S"><path d="m412 350.19-53.48 40.96h-43.85" class="O Q"/><path d="m412 350.19-53.48 40.96h-43.85" class="P R"/></g><g class="N S"><path d="M352.98 223.64h-46.09" class="O Q"/><path d="M352.98 223.64h-46.09" class="P R"/></g><g class="N T U"><path d="M314.67 75.81h51.3l36.85 25.51" class="O Q"/><path d="M314.67 75.81h51.3l36.85 25.51" class="P R"/></g><use xlink:href="#B"/><use xlink:href="#C"/><use xlink:href="#D"/><use xlink:href="#E"/><use xlink:href="#F"/><use xlink:href="#G"/><use xlink:href="#H"/><use xlink:href="#I"/><use xlink:href="#J"/><use xlink:href="#K"/><use xlink:href="#L"/><use xlink:href="#G" x="164.96"/><use xlink:href="#J" x="104.2"/><use xlink:href="#M"/><g class="V"><use xlink:href="#B"/><use xlink:href="#C"/><use xlink:href="#D"/><use xlink:href="#E"/><use xlink:href="#F"/><use xlink:href="#G"/><use xlink:href="#H"/><use xlink:href="#I"/><use xlink:href="#J"/><use xlink:href="#K"/><use xlink:href="#L"/><use xlink:href="#G" x="164.96"/><use xlink:href="#J" x="104.2"/><use xlink:href="#M"/></g><g class="N"><circle cx="541.68" cy="220.79" r="161.87" stroke-width="2" class="O"/><circle cx="541.68" cy="220.79" r="161.87" class="P"/></g><g class="N"><circle cx="542.06" cy="220.77" r="183.49" stroke-width="4" class="O"/><circle cx="542.06" cy="220.77" r="183.49" class="P"/></g><g class="N T U"><use xlink:href="#N" class="O W"/><use xlink:href="#N" class="P X"/></g><g class="N T U"><use xlink:href="#O" class="O W"/><use xlink:href="#O" class="P X"/></g><g class="N T U"><use xlink:href="#P" class="O W"/><use xlink:href="#P" class="P X"/></g><g class="N T U"><use xlink:href="#Q" class="O W"/><use xlink:href="#Q" class="P X"/></g><g opacity=".2"><path fill="#0ff" d="M546.54 78.93h-10.03v-8.79h10.03v8.79zm-30.91-6.596 9.932-1.396 1.223 8.704-9.932 1.396zm-20.368 5.064 9.641-2.765 2.423 8.449-9.641 2.765zm-19.466 7.875 9.163-4.08 3.575 8.03-9.163 4.08zm-18.179 10.484 8.506-5.315 4.658 7.454-8.506 5.315zm-16.547 12.926 7.683-6.447 5.65 6.734-7.683 6.447zm-14.592 15.086 6.711-7.454 6.532 5.882-6.711 7.454zm-12.336 16.989 5.609-8.315 7.287 4.915-5.609 8.315zm-9.867 18.53 4.397-9.015 7.9 3.853-4.397 9.015zm-7.175 19.719 3.099-9.539 8.36 2.716-3.099 9.539zm-4.383 20.534 1.742-9.878 8.656 1.526-1.742 9.878zm-1.467 20.939.35-10.024 8.785.307-.35 10.024zm1.464 20.947-1.048-9.975 8.742-.919 1.048 9.975zm4.365 20.532-2.426-9.732 8.529-2.126 2.426 9.732zm7.17 19.723-3.757-9.3 8.15-3.293 3.757 9.3zm9.843 18.543-5.015-8.686 7.612-4.395 5.015 8.686zm12.346 16.989-6.175-7.904 6.927-5.412 6.175 7.904zm14.573 15.104-7.215-6.967 6.106-6.323 7.215 6.967zm16.54 12.921-8.114-5.895 5.167-7.111 8.114 5.895zm18.175 10.501-8.856-4.709 4.127-7.761 8.856 4.709zm19.465 7.868-9.425-3.43 3.006-8.26 9.425 3.43zm20.37 5.088-9.811-2.085 1.828-8.598 9.811 2.085zm20.878 2.203-10.006-.7.613-8.769 10.006.7zm20.97-.725-10.006.7-.613-8.769 10.006-.7zm20.672-3.642-9.811 2.085-1.828-8.598 9.811-2.085zm19.964-6.481-9.425 3.43-3.006-8.26 9.425-3.43zm18.876-9.199-8.856 4.709-4.127-7.761 8.856-4.709zm17.405-11.731-8.114 5.895-5.167-7.111 8.114-5.895zm15.613-14.046-7.215 6.967-6.106-6.323 7.215-6.967zm13.487-16.084-6.175 7.904-6.927-5.412 6.175-7.904zm11.131-17.802-5.015 8.686-7.612-4.395 5.015-8.686zm8.541-19.171-3.757 9.3-8.15-3.293 3.757-9.3zm5.795-20.182-2.426 9.732-8.529-2.126 2.426-9.732zm2.924-20.788-1.048 9.975-8.742-.919 1.048-9.975zm.014-20.986.35 10.024-8.785.307-.35-10.024zm-2.918-20.786 1.742 9.878-8.656 1.526-1.742-9.878zm-5.784-20.177 3.099 9.539-8.36 2.716-3.099-9.539zm-12.039-6.319-4.39-9.02 3.88-1.89 4.01-1.96 4.4 9.02-7.9 3.85z"/><path stroke-width="2" d="M545.85 78.27c34.06.92 65.01 13.72 89 34.32" class="N O S"/><path stroke-width="10" d="m636.95 110.38 5.11 4.59a146.527 146.527 0 0 1 28.51 36.99" class="N O S"/></g><use xlink:href="#A" x="4" y="10"/><g class="N S"><use xlink:href="#R" class="O Q"/><use xlink:href="#R" class="P R"/></g><g class="V"><path d="m119.16 82.89 1.87-1.89c1.74 1.65 4.22 2.73 6.76 2.73 3.21 0 5.15-1.44 5.15-3.6s-1.77-2.97-4.08-3.9l-3.55-1.38c-2.28-.87-4.99-2.43-4.99-5.64 0-3.39 3.28-5.85 7.73-5.85 2.91 0 5.49 1.11 7.23 2.73l-1.64 1.77c-1.5-1.26-3.31-2.07-5.59-2.07-2.78 0-4.58 1.26-4.58 3.24 0 2.13 2.14 2.94 4.05 3.66l3.51 1.35c2.84 1.11 5.05 2.61 5.05 5.88 0 3.48-3.21 6.24-8.33 6.24-3.48 0-6.46-1.26-8.6-3.27zm20.45-5.25c0-5.43 3.98-8.58 8.43-8.58s8.43 3.15 8.43 8.58-3.98 8.52-8.43 8.52-8.43-3.12-8.43-8.52zm13.72 0c0-3.75-2.14-6.3-5.29-6.3s-5.25 2.55-5.25 6.3 2.11 6.24 5.25 6.24 5.29-2.49 5.29-6.24zm8.27 4.89V61.89h3.05v20.82c0 .84.4 1.17.87 1.17.17 0 .3 0 .64-.06l.43 2.1c-.43.15-.94.24-1.77.24-2.28 0-3.21-1.32-3.21-3.63z"/><use xlink:href="#S"/><path d="M179.71 77.64c0-5.28 3.71-8.58 7.86-8.58 2.14 0 3.51.72 5.12 1.92l-.13-2.82v-6.27h3.01v23.88h-2.48l-.27-1.92h-.1c-1.44 1.26-3.35 2.31-5.52 2.31-4.55 0-7.5-3.09-7.5-8.52zm12.85 3.99v-8.55c-1.57-1.23-2.94-1.71-4.45-1.71-2.95 0-5.25 2.52-5.25 6.24 0 3.93 1.81 6.27 5.02 6.27 1.67 0 3.15-.75 4.68-2.25z"/><use xlink:href="#S" x="30.62"/><path d="M212.17 80.73V71.7h-2.71v-2.07l2.84-.15.37-4.59h2.54v4.59h4.92v2.22h-4.92v9.09c0 2.01.7 3.15 2.81 3.15.64 0 1.47-.21 2.08-.42l.6 2.04c-1.04.3-2.24.6-3.35.6-3.88 0-5.19-2.19-5.19-5.43zm10.58 11.73.6-2.19c.37.12.9.27 1.37.27 2.07 0 3.38-1.5 4.12-3.51l.4-1.23-7.29-16.32h3.18l3.71 9.06 1.74 4.56h.17l1.54-4.56 3.25-9.06h2.98l-6.86 17.64c-1.24 3.21-3.14 5.67-6.76 5.67-.87 0-1.57-.12-2.14-.33z"/></g><use xlink:href="#A" y="157"/><g class="N S"><use xlink:href="#T" class="O Q"/><use xlink:href="#T" class="P R"/></g><path d="M140.21 208.03h7.7c4.99 0 8.57 1.62 8.57 6.21 0 3.42-2.21 5.46-5.55 6.18l6.29 9.63h-3.51l-5.96-9.33h-4.42v9.33h-3.11v-22.02zm7.23 10.44c3.85 0 5.96-1.38 5.96-4.23s-2.11-3.93-5.96-3.93h-4.12v8.16h4.12zm13.89 5.61v-10.32h3.04v9.99c0 3.03 1 4.32 3.41 4.32 1.87 0 3.18-.81 4.92-2.76v-11.55h3.04v16.29h-2.54l-.23-2.55h-.1c-1.71 1.77-3.51 2.94-6.02 2.94-3.81 0-5.52-2.22-5.52-6.36zm18.84 4.11 1.51-1.8c1.57 1.14 3.21 1.92 5.39 1.92 2.41 0 3.58-1.14 3.58-2.55 0-1.68-2.14-2.4-4.15-3.09-2.54-.84-5.32-1.95-5.32-4.71 0-2.58 2.34-4.62 6.29-4.62 2.24 0 4.22.84 5.62 1.83l-1.47 1.77c-1.24-.84-2.51-1.44-4.12-1.44-2.31 0-3.38 1.08-3.38 2.34 0 1.56 1.87 2.13 3.92 2.82 2.64.9 5.55 1.86 5.55 4.95 0 2.64-2.34 4.83-6.63 4.83a11.72 11.72 0 0 1-6.79-2.25zm18.57-3.18v-9.03h-2.71v-2.07l2.84-.15.37-4.59h2.54v4.59h4.92v2.22h-4.92v9.09c0 2.01.7 3.15 2.81 3.15.64 0 1.47-.21 2.08-.42l.6 2.04c-1.04.3-2.24.6-3.35.6-3.88 0-5.19-2.19-5.19-5.43z" class="V"/><g class="N S"><use xlink:href="#U" class="O Q"/><use xlink:href="#U" class="P R"/></g><g class="V"><path d="M131.15 377.06h3.25l3.98 11.94 2.38 7.26h.13l2.38-7.26 3.95-11.94h3.15l-7.8 22.02h-3.58l-7.83-22.02zm20.79 28.71.6-2.19c.37.12.9.27 1.37.27 2.08 0 3.38-1.5 4.12-3.51l.4-1.23-7.29-16.32h3.18l3.71 9.06 1.74 4.56h.17l1.54-4.56 3.25-9.06h2.98l-6.86 17.64c-1.24 3.21-3.14 5.67-6.76 5.67-.87 0-1.57-.12-2.14-.33zm19.61-22.98h2.51l.27 1.86h.1c1.64-1.2 3.68-2.28 5.79-2.28 4.68 0 7.23 3.3 7.23 8.31 0 5.58-3.71 8.79-7.9 8.79-1.64 0-3.38-.69-5.02-1.89l.07 2.85v5.52h-3.05v-23.16zm12.72 7.92c0-3.6-1.34-6.03-4.79-6.03-1.54 0-3.11.78-4.88 2.25v8.55c1.64 1.26 3.25 1.71 4.45 1.71 3.01 0 5.22-2.43 5.22-6.48zm6.99.24c0-5.28 3.98-8.58 8.2-8.58 4.62 0 7.23 3 7.23 7.65a10.49 10.49 0 0 1-.13 1.56h-12.25c.2 3.48 2.58 5.7 6.02 5.7 1.77 0 3.21-.48 4.55-1.29l1.1 1.8c-1.61.93-3.55 1.68-6.02 1.68-4.82 0-8.7-3.15-8.7-8.52zm12.75-1.35c0-3.27-1.67-5.04-4.52-5.04-2.58 0-4.85 1.86-5.22 5.04h9.74z"/><use xlink:href="#V"/></g><g class="N S"><use xlink:href="#W" class="O Q"/><use xlink:href="#W" class="P R"/></g><g class="V"><path d="M892.94 115.31h-7.43v-2.37h17.97v2.37h-7.43v19.65h-3.11v-19.65Z"/><use xlink:href="#V" x="695.76" y="-264.12"/><path d="M919.69 128.99v-10.32h3.04v9.99c0 3.03 1 4.32 3.41 4.32 1.87 0 3.18-.81 4.92-2.76v-11.55h3.04v16.29h-2.54l-.23-2.55h-.1c-1.71 1.77-3.51 2.94-6.02 2.94-3.81 0-5.52-2.22-5.52-6.36Z"/><use xlink:href="#X"/><path d="M969.25 126.83c0-5.28 3.98-8.58 8.2-8.58 4.62 0 7.23 3 7.23 7.65 0 .6-.07 1.17-.13 1.56H972.3c.2 3.48 2.58 5.7 6.02 5.7 1.77 0 3.21-.48 4.55-1.29l1.1 1.8c-1.61.93-3.55 1.68-6.02 1.68-4.82 0-8.7-3.15-8.7-8.52Zm12.75-1.35c0-3.27-1.67-5.04-4.52-5.04-2.58 0-4.85 1.86-5.22 5.04H982Z"/></g><g class="N S"><use xlink:href="#W" y="215.75" class="O Q"/><use xlink:href="#W" y="215.75" class="P R"/></g><g class="V"><path d="M886.91 327.5h3.18l2.58 12 1.44 7.11h.13l1.77-7.11 3.38-12h2.84l3.41 12 1.74 7.11h.17l1.41-7.11 2.58-12h2.98l-5.09 22.02h-3.71l-3.71-13.26-1.21-5.01h-.13l-1.24 5.01-3.65 13.26h-3.68l-5.19-22.02zm30.79 17.79c0-3.54 3.45-5.31 11.18-6.09 0-2.1-.77-4.11-3.75-4.11-2.11 0-4.02.87-5.45 1.74l-1.2-1.89c1.67-.96 4.25-2.13 7.16-2.13 4.42 0 6.29 2.67 6.29 6.69v10.02h-2.51l-.27-1.95h-.1c-1.74 1.29-3.78 2.34-6.02 2.34-3.05 0-5.32-1.68-5.32-4.62zm11.18.27V341c-6.12.66-8.2 2.01-8.2 4.11 0 1.86 1.41 2.61 3.21 2.61s3.21-.75 4.99-2.16z"/><use xlink:href="#X" x="-1.85" y="214.56"/><path d="M968.07 341.39c0-5.28 3.98-8.58 8.2-8.58 4.62 0 7.23 3 7.23 7.65 0 .6-.07 1.17-.13 1.56h-12.25c.2 3.48 2.58 5.7 6.02 5.7 1.77 0 3.21-.48 4.55-1.29l1.1 1.8c-1.61.93-3.55 1.68-6.02 1.68-4.82 0-8.7-3.15-8.7-8.52Zm12.75-1.35c0-3.27-1.67-5.04-4.52-5.04-2.58 0-4.85 1.86-5.22 5.04h9.74Z"/></g></svg>