<svg xmlns="http://www.w3.org/2000/svg" xmlns:xlink="http://www.w3.org/1999/xlink" viewBox="0 0 307.27 425"><style>.M{fill:none}.N{stroke:#0ff}.O{stroke:#fff}.P{stroke-linejoin:round}.Q{stroke-linecap:round}.R{stroke-width:3}.S{stroke-miterlimit:10}.T{stroke-width:2}</style><defs><path id="C" d="M287.78 258.87h-110.3v-20.46l8-8h110.3v20.46l-8 8z"/><path id="D" d="M187.48 310.18h1.53l1.93 4.71.71 1.83h.07l.68-1.83 1.91-4.71h1.53v8.8h-1.19v-4.87c0-.76.1-1.82.16-2.59h-.05l-.79 2-1.9 4.57h-.85l-1.9-4.57-.79-2h-.05l.15 2.59v4.87h-1.15v-8.8z"/><path id="E" d="M197.91 315.73c0-2.11 1.63-3.43 3.35-3.43 1.89 0 2.95 1.2 2.95 3.06a4.7 4.7 0 0 1-.05.62h-5c.08 1.39 1.05 2.28 2.46 2.28.72 0 1.31-.19 1.86-.52l.45.72c-.66.37-1.45.67-2.46.67-1.97 0-3.55-1.26-3.55-3.41zm5.21-.54c0-1.31-.68-2.01-1.85-2.01-1.05 0-1.98.74-2.13 2.01h3.98z"/><path id="F" d="M205.51 315.73c0-2.11 1.52-3.43 3.21-3.43.88 0 1.44.29 2.09.77l-.05-1.13v-2.51h1.23v9.55h-1.01l-.11-.77h-.04c-.59.5-1.37.92-2.26.92-1.86 0-3.06-1.24-3.06-3.41zm5.25 1.59v-3.42c-.64-.49-1.2-.68-1.82-.68-1.2 0-2.15 1.01-2.15 2.49 0 1.57.74 2.51 2.05 2.51.68 0 1.29-.3 1.91-.9z"/><path id="G" d="M214.31 310.39c0-.42.34-.71.83-.71s.83.29.83.71c0 .44-.34.73-.83.73s-.83-.29-.83-.73zm.21 2.07h1.24v6.51h-1.24v-6.51z"/><path id="H" d="M217.81 317.29c0-1.42 1.41-2.12 4.57-2.43 0-.84-.31-1.64-1.53-1.64-.86 0-1.64.35-2.23.7l-.49-.76c.68-.38 1.74-.85 2.93-.85 1.8 0 2.57 1.07 2.57 2.67v4.01h-1.03l-.11-.78h-.04c-.71.52-1.54.94-2.46.94-1.24 0-2.17-.67-2.17-1.85zm4.57.11v-1.82c-2.5.26-3.35.8-3.35 1.64 0 .74.57 1.04 1.31 1.04s1.31-.3 2.04-.86z"/><path id="I" d="M229.05 312.47h1.03l.11.74h.04c.67-.48 1.5-.91 2.37-.91 1.91 0 2.95 1.32 2.95 3.32 0 2.23-1.52 3.51-3.23 3.51-.67 0-1.38-.28-2.05-.76l.03 1.14v2.21h-1.24v-9.26zm5.2 3.17c0-1.44-.55-2.41-1.96-2.41-.63 0-1.27.31-2 .9v3.42c.67.5 1.33.68 1.82.68 1.23 0 2.13-.97 2.13-2.59z"/><path id="J" d="M237.53 317.69v-8.25h1.24v8.32c0 .34.16.47.36.47.07 0 .12 0 .26-.02l.18.84c-.18.06-.38.1-.72.1-.93 0-1.31-.53-1.31-1.45z"/><path id="K" d="M249.13 312.47h1.03l.11.94h.04c.71-.61 1.48-1.1 2.49-1.1 1.56 0 2.27.89 2.27 2.55v4.13h-1.24v-3.98c0-1.22-.42-1.74-1.41-1.74-.77 0-1.29.34-2.04 1V319h-1.24v-6.51z"/><path id="L" d="M277.39 320.23c0-.55.4-1.08 1.09-1.47v-.05c-.4-.2-.68-.55-.68-1.07s.45-.97.83-1.21v-.05c-.49-.35-.97-.97-.97-1.75 0-1.43 1.29-2.33 2.79-2.33.41 0 .78.08 1.04.17h2.58v.84h-1.52c.36.3.6.78.6 1.34 0 1.39-1.2 2.27-2.71 2.27-.37 0-.78-.08-1.11-.23-.27.2-.48.42-.48.78 0 .42.3.71 1.3.71h1.45c1.72 0 2.6.48 2.6 1.55 0 1.21-1.46 2.25-3.76 2.25-1.82 0-3.06-.62-3.06-1.75zm5.61-.34c0-.6-.53-.8-1.52-.8h-1.29a4.96 4.96 0 0 1-.96-.11c-.53.34-.75.72-.75 1.1 0 .7.81 1.15 2.15 1.15 1.42 0 2.37-.66 2.37-1.34zm-.96-5.26c0-.95-.71-1.52-1.59-1.52s-1.59.56-1.59 1.52.72 1.55 1.59 1.55 1.59-.6 1.59-1.55z"/><path id="M" d="M210.11 329.18h1.03l.11.94h.04c.71-.61 1.48-1.1 2.49-1.1 1.56 0 2.27.89 2.27 2.55v4.13h-1.24v-3.98c0-1.22-.42-1.74-1.41-1.74-.77 0-1.29.34-2.04 1v4.73h-1.24v-6.51z"/><path id="N" d="M231.16 335.02h-.05l-.11.67h-1v-9.55h1.24v2.61l-.04 1.18c.67-.52 1.5-.92 2.32-.92 1.93 0 2.97 1.32 2.97 3.31 0 2.24-1.52 3.53-3.23 3.53-.68 0-1.46-.31-2.11-.83zm4.03-2.67c0-1.44-.55-2.41-1.96-2.41-.63 0-1.29.31-2 .9v3.42c.66.5 1.33.68 1.82.68 1.23 0 2.13-.97 2.13-2.59z"/><path id="O" d="M238.35 333.31v-4.13h1.24v3.99c0 1.21.41 1.73 1.39 1.73.77 0 1.3-.32 2.01-1.1v-4.62h1.24v6.51h-1.04l-.1-1.02h-.04c-.7.71-1.44 1.18-2.46 1.18-1.56 0-2.26-.89-2.26-2.54z"/><path id="P" d="m246 338.37.25-.88a1.92 1.92 0 0 0 .56.11c.85 0 1.38-.6 1.68-1.4l.16-.49-2.98-6.52h1.3l1.52 3.62.71 1.82h.07l.63-1.82 1.33-3.62h1.22l-2.8 7.05c-.51 1.28-1.29 2.27-2.76 2.27-.36 0-.64-.05-.88-.13z"/><path id="Q" d="M288.44 346.04H176.83v-38.81l8-8h111.61v38.81l-8 8z"/><path id="R" d="M202.28 394.23h3.73c2.91 0 4.86.87 4.86 3.37s-1.93 3.54-4.79 3.54h-2.15v4.53h-1.65v-11.44zm3.58 5.73c2.29 0 3.37-.73 3.37-2.37s-1.15-2.18-3.44-2.18h-1.86v4.55h1.93z"/><path id="S" d="M225.39 399.96c0-3.69 2.47-5.94 5.77-5.94 1.58 0 2.82.69 3.57 1.42l-.89.93c-.67-.64-1.54-1.09-2.66-1.09-2.47 0-4.1 1.78-4.1 4.63s1.56 4.69 4.05 4.69c1.24 0 2.18-.48 3.02-1.28l.9.9c-1.03 1.04-2.31 1.64-3.99 1.64-3.23 0-5.66-2.2-5.66-5.9z"/><path id="T" d="M245.55 394.23h1.83l4.42 11.44h-1.74l-1.24-3.49h-4.76l-1.26 3.49h-1.67l4.42-11.44zm-1.08 6.79h3.94l-.62-1.75-1.31-3.86h-.07l-1.3 3.86-.64 1.75z"/><path id="U" d="M253.5 401.44c0-2.74 1.97-4.46 4.17-4.46 1.14 0 1.86.37 2.72 1l-.07-1.46v-3.26h1.6v12.4h-1.31l-.14-1h-.05c-.76.65-1.77 1.2-2.93 1.2-2.41 0-3.98-1.6-3.98-4.42zm6.81 2.07v-4.44c-.83-.64-1.56-.89-2.36-.89-1.56 0-2.79 1.31-2.79 3.24 0 2.04.96 3.26 2.66 3.26.89 0 1.67-.39 2.48-1.17z"/><path id="V" d="m264.82 404.7.8-.93c.83.59 1.7 1 2.86 1 1.28 0 1.9-.59 1.9-1.32 0-.87-1.14-1.25-2.2-1.6-1.35-.44-2.82-1.01-2.82-2.45 0-1.34 1.24-2.4 3.34-2.4 1.19 0 2.24.44 2.98.95l-.78.92c-.66-.44-1.33-.75-2.18-.75-1.22 0-1.79.56-1.79 1.21 0 .81.99 1.11 2.08 1.46 1.4.47 2.95.97 2.95 2.57 0 1.37-1.24 2.51-3.51 2.51a6.29 6.29 0 0 1-3.6-1.17z"/><path id="W" d="M288.41 414.14H176.67v-20.21l8-8h111.74v20.21l-8 8z"/><path id="X" d="M21.53 107.65h7.99c0-38.15 30.93-69.08 69.08-69.08"/><path id="Y" d="M98.53 184.65c-42.53 0-77.01-34.48-77.01-77.01s34.48-77 77.01-77"/><path id="Z" d="M98.53 29.71c42.53 0 77.01 34.48 77.01 77.01s-34.48 77.01-77.01 77.01"/><path id="a" d="M167.44 139.11c10.49-21.91 9.7-46.32-.06-66.64"/><path id="b" d="M98.14 10.53c53.64 0 97.12 43.48 97.12 97.12s-43.48 97.12-97.12 97.12"/><path id="c" d="M43.98 100.88h3.23l4.41 13.74h-2.87l-.96-3.52h-4.45l-.96 3.52H39.6l4.39-13.74zm-.06 8.08h3.26l-.41-1.5-1.19-4.49h-.09l-1.17 4.49-.41 1.5z"/><path id="d" d="M53.23 100.88h3.76c4.19 0 6.79 2.19 6.79 6.82s-2.6 6.92-6.64 6.92h-3.91v-13.74Zm3.6 11.53c2.56 0 4.15-1.37 4.15-4.71s-1.59-4.62-4.15-4.62h-.85v9.33h.85Z"/><path id="e" d="M64.68 100.88h2.87l1.82 6.69 1.15 4.43h.09l1.17-4.43 1.78-6.69h2.78l-4.19 13.74h-3.28l-4.19-13.74z"/><path id="f" d="M77.92 100.88h8.42v2.3h-5.67v3.17h4.82v2.3h-4.82v3.67h5.88v2.3h-8.62v-13.74Z"/><path id="g" d="M89.32 100.88h4.78c2.87 0 5.15 1.02 5.15 4.17 0 2.06-1.04 3.34-2.61 3.95l3.21 5.62h-3.06l-2.82-5.19h-1.91v5.19h-2.74v-13.74Zm4.52 6.38c1.76 0 2.74-.74 2.74-2.21s-.98-1.98-2.74-1.98h-1.78v4.19h1.78Z"/><path id="h" d="M104.68 103.18h-3.86v-2.3h10.49v2.3h-3.89v11.44h-2.74v-11.44Z"/><path id="i" d="M113.54 100.88h2.74v13.74h-2.74v-13.74Z"/><path id="j" d="m118.75 112.88 1.58-1.89c.98.91 2.28 1.52 3.49 1.52 1.43 0 2.19-.61 2.19-1.58 0-1.02-.83-1.33-2.06-1.85l-1.84-.78c-1.39-.57-2.78-1.69-2.78-3.69 0-2.24 1.97-3.97 4.75-3.97 1.59 0 3.19.63 4.3 1.76l-1.39 1.72c-.87-.72-1.78-1.13-2.91-1.13-1.2 0-1.97.54-1.97 1.45 0 .98.96 1.33 2.13 1.8l1.8.76c1.67.69 2.76 1.74 2.76 3.73 0 2.24-1.87 4.15-5.04 4.15-1.84 0-3.67-.72-5.01-2z"/><path id="k" d="M137.34 100.88h2.8l3.99 7.32 1.37 2.97h.09l-.35-4.8v-5.49h2.6v13.74h-2.78l-3.97-7.34-1.39-2.95h-.09l.33 4.78v5.51h-2.6v-13.74z"/><path id="l" d="M150.53 107.82c0-4.52 2.93-7.17 6.58-7.17 1.98 0 3.36.85 4.25 1.76l-1.45 1.74c-.69-.65-1.46-1.15-2.71-1.15-2.28 0-3.87 1.78-3.87 4.73s1.37 4.78 4.08 4.78c.65 0 1.32-.19 1.71-.52v-2.71h-2.43v-2.24h4.88v6.19c-.93.91-2.54 1.65-4.45 1.65-3.73 0-6.58-2.48-6.58-7.06z"/></defs><g class="M S"><path d="M177.48 244.64h-43.56l-32.03-39.14" class="N T"/><path d="M177.48 244.64h-43.56l-32.03-39.14" class="O"/></g><g class="M S"><path d="M176.55 400.04H151.6v-155.4" class="N T"/><path d="M176.55 400.04H151.6v-155.4" class="O"/></g><g class="M S"><path d="M175.9 325.46h-23.95" class="N T"/><path d="M175.9 325.46h-23.95" class="O"/></g><path fill="#fff" d="m220.01 249.11.97-.98c.9.86 2.19 1.42 3.51 1.42 1.67 0 2.68-.75 2.68-1.87s-.92-1.54-2.12-2.03l-1.84-.72c-1.18-.45-2.59-1.26-2.59-2.93 0-1.76 1.7-3.04 4.01-3.04 1.51 0 2.85.58 3.75 1.42l-.85.92c-.78-.65-1.72-1.08-2.9-1.08-1.44 0-2.38.65-2.38 1.68 0 1.11 1.11 1.53 2.1 1.9l1.82.7c1.48.58 2.62 1.36 2.62 3.05 0 1.81-1.67 3.24-4.33 3.24-1.81 0-3.35-.65-4.47-1.7zm11.99-9.94h7.35v1.23h-5.74v3.58h4.83v1.23h-4.83v4.16h5.93v1.23H232v-11.44zm10.18 5.69c0-3.66 2.24-5.89 5.44-5.89s5.44 2.23 5.44 5.89-2.24 5.95-5.44 5.95-5.44-2.29-5.44-5.95zm9.23 0c0-2.87-1.51-4.63-3.79-4.63s-3.79 1.76-3.79 4.63 1.49 4.69 3.79 4.69 3.79-1.84 3.79-4.69z"/><g class="M S"><use xlink:href="#C" class="N R"/><use xlink:href="#C" class="O T"/></g><use xlink:href="#D"/><use xlink:href="#E"/><use xlink:href="#F"/><use xlink:href="#G"/><use xlink:href="#H"/><use xlink:href="#I"/><use xlink:href="#J"/><use xlink:href="#H" x="23.15"/><use xlink:href="#K"/><use xlink:href="#K" x="8.36"/><use xlink:href="#G" x="51.32"/><use xlink:href="#K" x="20.47"/><use xlink:href="#L"/><use xlink:href="#H" x="-15.87" y="16.71"/><use xlink:href="#M"/><use xlink:href="#F" x="12.42" y="16.71"/><use xlink:href="#N"/><use xlink:href="#O"/><use xlink:href="#P"/><use xlink:href="#G" x="39.35" y="16.72"/><use xlink:href="#M" x="47.52"/><use xlink:href="#L" x="-11.97" y="16.71"/><g fill="#fff"><use xlink:href="#D"/><use xlink:href="#E"/><use xlink:href="#F"/><use xlink:href="#G"/><use xlink:href="#H"/><use xlink:href="#I"/><use xlink:href="#J"/><use xlink:href="#H" x="23.15"/><use xlink:href="#K"/><use xlink:href="#K" x="8.36"/><use xlink:href="#G" x="51.32"/><use xlink:href="#K" x="20.47"/><use xlink:href="#L"/><use xlink:href="#H" x="-15.87" y="16.71"/><use xlink:href="#M"/><use xlink:href="#F" x="12.42" y="16.71"/><use xlink:href="#N"/><use xlink:href="#O"/><use xlink:href="#P"/><use xlink:href="#G" x="39.35" y="16.72"/><use xlink:href="#M" x="47.52"/><use xlink:href="#L" x="-11.97" y="16.71"/></g><g class="M S"><use xlink:href="#Q" class="N R"/><use xlink:href="#Q" class="O T"/></g><use xlink:href="#R"/><use xlink:href="#R" x="11.93"/><use xlink:href="#S"/><use xlink:href="#T"/><use xlink:href="#U"/><use xlink:href="#V"/><g fill="#fff"><use xlink:href="#R"/><use xlink:href="#R" x="11.93"/><use xlink:href="#S"/><use xlink:href="#T"/><use xlink:href="#U"/><use xlink:href="#V"/></g><g class="M S"><use xlink:href="#W" class="N R"/><use xlink:href="#W" class="O T"/></g><use xlink:href="#B" transform="rotate(-174 57.608 100.745)"/><g class="M P Q"><path d="m94.43 194.61.77-7.27" class="N R"/><path d="m94.43 194.61.77-7.27" class="O"/></g><use xlink:href="#B" transform="rotate(-168 57.844 98.523)"/><g class="M P Q"><path d="m85.35 193.6 1.52-7.15" class="N R"/><path d="m85.35 193.6 1.52-7.15" class="O"/></g><use xlink:href="#B" transform="rotate(-162 58.083 96.282)"/><g class="M P Q"><path d="m76.42 191.65 2.26-6.95" class="N R"/><path d="m76.42 191.65 2.26-6.95" class="O"/></g><use xlink:href="#B" transform="rotate(-156 58.327 93.996)"/><g class="M P Q"><path d="m67.75 188.77 2.97-6.67" class="N R"/><path d="m67.75 188.77 2.97-6.67" class="O"/></g><use xlink:href="#B" transform="rotate(-150 58.574 91.662)"/><g class="M P Q"><path d="m59.42 185.01 3.66-6.33" class="N R"/><path d="m59.42 185.01 3.66-6.33" class="O"/></g><use xlink:href="#B" transform="rotate(-144 58.832 89.264)"/><g class="M P Q"><path d="m51.54 180.39 4.29-5.91" class="N R"/><path d="m51.54 180.39 4.29-5.91" class="O"/></g><use xlink:href="#B" transform="rotate(-138 59.098 86.778)"/><g class="M P Q"><path d="m44.18 174.98 4.88-5.43" class="N R"/><path d="m44.18 174.98 4.88-5.43" class="O"/></g><use xlink:href="#B" transform="rotate(-132 59.376 84.19)"/><g class="M P Q"><path d="m37.42 168.83 5.43-4.89" class="N R"/><path d="m37.42 168.83 5.43-4.89" class="O"/></g><use xlink:href="#B" transform="rotate(-126 59.664 81.485)"/><g class="M P Q"><path d="m31.35 162 5.91-4.3" class="N R"/><path d="m31.35 162 5.91-4.3" class="O"/></g><use xlink:href="#B" transform="rotate(-120 59.967 78.625)"/><g class="M P Q"><path d="m26.02 154.58 6.32-3.66" class="N R"/><path d="m26.02 154.58 6.32-3.66" class="O"/></g><use xlink:href="#B" transform="rotate(-114 60.294 75.593)"/><g class="M P Q"><path d="m21.49 146.64 6.68-2.98" class="N R"/><path d="m21.49 146.64 6.68-2.98" class="O"/></g><use xlink:href="#B" transform="rotate(-108 60.642 72.342)"/><g class="M P Q"><path d="m17.83 138.27 6.94-2.26" class="N R"/><path d="m17.83 138.27 6.94-2.26" class="O"/></g><use xlink:href="#B" transform="rotate(-102 61.016 68.836)"/><g class="M P Q"><path d="m15.05 129.56 7.15-1.52" class="N R"/><path d="m15.05 129.56 7.15-1.52" class="O"/></g><use xlink:href="#B" transform="rotate(-96 61.427 65.014)"/><g class="M P Q"><path d="m13.2 120.61 7.27-.76" class="N R"/><path d="m13.2 120.61 7.27-.76" class="O"/></g><use xlink:href="#B" transform="rotate(-90 61.87 60.82)"/><g class="M P Q"><path d="M12.3 111.52h7.31" class="N R"/><path d="M12.3 111.52h7.31" class="O"/></g><use xlink:href="#B" transform="rotate(-84 62.366 56.155)"/><g class="M P Q"><path d="m12.35 102.38 7.27.76" class="N R"/><path d="m12.35 102.38 7.27.76" class="O"/></g><use xlink:href="#B" transform="rotate(-78 62.932 50.92)"/><g class="M P Q"><path d="m13.36 93.3 7.15 1.52" class="N R"/><path d="m13.36 93.3 7.15 1.52" class="O"/></g><use xlink:href="#B" transform="rotate(-72 63.563 44.962)"/><g class="M P Q"><path d="m15.31 84.37 6.95 2.26" class="N R"/><path d="m15.31 84.37 6.95 2.26" class="O"/></g><use xlink:href="#B" transform="rotate(-66 64.304 38.07)"/><g class="M P Q"><path d="m18.19 75.7 6.67 2.97" class="N R"/><path d="m18.19 75.7 6.67 2.97" class="O"/></g><use xlink:href="#B" transform="rotate(-60 65.167 29.968)"/><g class="M P Q"><path d="m21.95 67.37 6.33 3.65" class="N R"/><path d="m21.95 67.37 6.33 3.65" class="O"/></g><use xlink:href="#B" transform="rotate(-54 66.203 20.259)"/><g class="M P Q"><path d="m26.57 59.48 5.91 4.3" class="N R"/><path d="m26.57 59.48 5.91 4.3" class="O"/></g><use xlink:href="#B" transform="rotate(-48 67.483 8.313)"/><g class="M P Q"><path d="m31.98 52.12 5.43 4.89" class="N R"/><path d="m31.98 52.12 5.43 4.89" class="O"/></g><use xlink:href="#B" transform="rotate(-42 69.092 -6.82)"/><g class="M P Q"><path d="m38.13 45.37 4.89 5.43" class="N R"/><path d="m38.13 45.37 4.89 5.43" class="O"/></g><use xlink:href="#B" transform="rotate(-36 71.223 -26.723)"/><g class="M P Q"><path d="m44.96 39.29 4.29 5.91" class="N R"/><path d="m44.96 39.29 4.29 5.91" class="O"/></g><use xlink:href="#B" transform="rotate(-30 74.166 -54.287)"/><g class="M P Q"><path d="m52.38 33.96 3.66 6.33" class="N R"/><path d="m52.38 33.96 3.66 6.33" class="O"/></g><use xlink:href="#B" transform="rotate(-24 78.543 -95.27)"/><g class="M P Q"><path d="m60.32 29.44 2.98 6.68" class="N R"/><path d="m60.32 29.44 2.98 6.68" class="O"/></g><use xlink:href="#B" transform="rotate(-18 85.792 -163.069)"/><g class="M P Q"><path d="m68.69 25.77 2.26 6.95" class="N R"/><path d="m68.69 25.77 2.26 6.95" class="O"/></g><use xlink:href="#B" transform="rotate(-12 100.187 -297.918)"/><g class="M P Q"><path d="m77.4 23 1.52 7.15" class="N R"/><path d="m77.4 23 1.52 7.15" class="O"/></g><use xlink:href="#B" transform="rotate(-6 143.217 -701.013)"/><g class="M P Q"><path d="m86.35 21.15.76 7.27" class="N R"/><path d="m86.35 21.15.76 7.27" class="O"/></g><use xlink:href="#B" x="84.27" y="9"/><g class="M P Q"><path d="M95.44 20.25v7.3" class="N R"/><path d="M95.44 20.25v7.3" class="O"/></g><g class="M P"><use xlink:href="#X" class="N Q T"/><use xlink:href="#X" class="O"/></g><g class="M S"><use xlink:href="#Y" stroke-width="6" class="N"/><use xlink:href="#Y" class="O R"/></g><g class="M S"><use xlink:href="#Z" class="N T"/><use xlink:href="#Z" class="O"/></g><use xlink:href="#A" transform="rotate(42 -63.796 284.722)"/><g class="M"><path d="m173.99 132.03 3.47 1.45" class="N P Q T"/><path d="m173.99 132.03 3.47 1.45" class="O S"/></g><use xlink:href="#A" transform="rotate(36 -78.691 322.837)"/><g class="M"><path d="m176.28 124.03 3.6 1.09" class="N P Q T"/><path d="m176.28 124.03 3.6 1.09" class="O S"/></g><use xlink:href="#A" transform="rotate(30 -99.296 375.606)"/><g class="M"><path d="m177.73 115.85 3.69.7" class="N P Q T"/><path d="m177.73 115.85 3.69.7" class="O S"/></g><use xlink:href="#A" transform="rotate(24 -129.928 454.035)"/><g class="M"><path d="m178.31 107.55 3.74.32" class="N P Q T"/><path d="m178.31 107.55 3.74.32" class="O S"/></g><use xlink:href="#A" transform="rotate(18 -180.63 583.788)"/><g class="M"><path d="m178.02 99.25 3.76-.08" class="N P Q T"/><path d="m178.02 99.25 3.76-.08" class="O S"/></g><use xlink:href="#A" transform="rotate(12 -281.436 841.846)"/><g class="M"><path d="m176.86 91.01 3.73-.47" class="N P Q T"/><path d="m176.86 91.01 3.73-.47" class="O S"/></g><use xlink:href="#A" transform="rotate(6 -582.834 1613.278)"/><g class="M"><path d="m174.85 82.95 3.66-.86" class="N P Q T"/><path d="m174.85 82.95 3.66-.86" class="O S"/></g><use xlink:href="#A" x="161.27" y="63"/><g class="M"><path d="m172.01 75.13 3.55-1.23" class="N P Q T"/><path d="m172.01 75.13 3.55-1.23" class="O S"/></g><g class="M S"><use xlink:href="#a" stroke-width="6" class="N"/><use xlink:href="#a" class="O R"/></g><g class="M S"><use xlink:href="#b" class="N R"/><use xlink:href="#b" class="O T"/></g><use xlink:href="#c"/><use xlink:href="#d"/><use xlink:href="#e"/><use xlink:href="#f"/><use xlink:href="#g"/><use xlink:href="#h"/><use xlink:href="#i"/><use xlink:href="#j"/><use xlink:href="#i" x="17.68"/><use xlink:href="#k"/><use xlink:href="#l"/><g fill="#fff"><use xlink:href="#c"/><use xlink:href="#d"/><use xlink:href="#e"/><use xlink:href="#f"/><use xlink:href="#g"/><use xlink:href="#h"/><use xlink:href="#i"/><use xlink:href="#j"/><use xlink:href="#i" x="17.68"/><use xlink:href="#k"/><use xlink:href="#l"/></g></svg>