<svg xmlns="http://www.w3.org/2000/svg" xmlns:xlink="http://www.w3.org/1999/xlink" viewBox="0 0 308 439"><style>.L{fill:none}.M{stroke:#0ff}.N{stroke:#fff}.O{stroke-width:2}.P{stroke-miterlimit:10}.Q{stroke-width:3}.R{opacity:.8}.S{fill:#fff}.T{stroke-linecap:round}.U{stroke-linejoin:round}.V{stroke-width:6}</style><defs><path id="C" d="M143.1 99.97h5.63c3.5 0 6.16 1.03 6.16 4.21 0 1.56-.87 3.17-2.32 3.68v.12c1.84.44 3.2 1.72 3.2 4.02 0 3.43-2.85 5.01-6.6 5.01h-6.07V99.97zm5.38 6.94c2.16 0 3.1-.87 3.1-2.23 0-1.5-1.01-2.09-3.06-2.09h-2.02v4.32h1.98zm.39 7.47c2.32 0 3.59-.83 3.59-2.6 0-1.66-1.24-2.37-3.59-2.37h-2.37v4.97h2.37z"/><path id="D" d="M162.95 99.97h4l5.47 17.04h-3.56l-1.2-4.37h-5.52l-1.2 4.37h-3.45l5.45-17.04zm-.07 10.03h4.05l-.51-1.86-1.47-5.56h-.12l-1.45 5.56-.51 1.86z"/><path id="E" d="M174.5 108.57c0-5.61 3.61-8.9 7.91-8.9 2.16 0 3.89 1.03 4.99 2.18l-1.77 2.16c-.87-.83-1.86-1.43-3.15-1.43-2.58 0-4.51 2.21-4.51 5.86s1.75 5.93 4.44 5.93c1.47 0 2.6-.69 3.52-1.68l1.79 2.12c-1.4 1.63-3.22 2.51-5.43 2.51-4.3 0-7.8-3.08-7.8-8.76Z"/><path id="F" d="M191.38 99.97h3.4v7.4h.07l5.63-7.4h3.75l-5.2 6.71 6.12 10.33h-3.73l-4.42-7.66-2.23 2.87V117h-3.4V99.96z"/><path id="G" d="M208.08 99.97h10.44v2.85h-7.04v3.93h5.98v2.85h-5.98v4.55h7.29V117h-10.69V99.96z"/><path id="H" d="M223.14 99.97h3.47l4.94 9.08 1.7 3.68h.12l-.44-5.96v-6.81h3.22V117h-3.45l-4.92-9.11-1.72-3.66h-.12l.41 5.93v6.83h-3.22V99.95z"/><path id="I" d="M241.29 99.97h4.67c5.2 0 8.42 2.71 8.42 8.46s-3.22 8.58-8.23 8.58h-4.85V99.97zm4.46 14.3c3.17 0 5.15-1.7 5.15-5.84s-1.98-5.73-5.15-5.73h-1.06v11.57h1.06z"/><path id="J" d="M128.27 173.47c-15.83-17.08-25.51-39.94-25.51-65.07 0-29.12 13-55.2 33.51-72.76"/><path id="K" d="M218.1 202.13a95.964 95.964 0 0 1-19.6 2.01c-17.26 0-33.45-4.57-47.43-12.56"/><path id="L" d="M279.05 56.63c9.61 14.93 15.19 32.69 15.19 51.77 0 23.08-8.17 44.25-21.77 60.78"/><path id="M" d="M173.6 15.93a96 96 0 0 1 24.9-3.27c19.83 0 38.25 6.03 53.53 16.35"/><path id="N" d="M76.84 270.93c0-2.17 1.59-3.43 3.37-3.43s3.37 1.26 3.37 3.43-1.59 3.41-3.37 3.41-3.37-1.25-3.37-3.41zm5.49 0c0-1.5-.86-2.52-2.11-2.52s-2.1 1.02-2.1 2.52.84 2.49 2.1 2.49 2.11-1 2.11-2.49z"/><path id="O" d="M121.15 284.26H10.85V263.8l8-8h110.3v20.46l-8 8z"/><path id="P" d="M288.74 312.71h-110.3v-20.46l8-8h110.3v20.46l-8 8Z"/><path id="Q" d="M121.15 343.34H10.85v-20.46l8-8h110.3v20.46l-8 8z"/><path id="R" d="M201.39 351.47h2.87c2.24 0 3.75.67 3.75 2.59s-1.49 2.72-3.69 2.72h-1.65v3.49h-1.27v-8.8zm2.76 4.41c1.76 0 2.6-.56 2.6-1.82s-.89-1.68-2.65-1.68h-1.44v3.5h1.49z"/><path id="S" d="M209.36 357.02c0-2.17 1.63-3.43 3.45-3.43s3.45 1.26 3.45 3.43-1.63 3.41-3.45 3.41-3.45-1.25-3.45-3.41zm5.61 0c0-1.5-.88-2.52-2.16-2.52s-2.15 1.02-2.15 2.52.86 2.49 2.15 2.49 2.16-1 2.16-2.49z"/><path id="T" d="m217.38 359.53.62-.72c.64.46 1.31.77 2.2.77.98 0 1.46-.46 1.46-1.02 0-.67-.88-.96-1.7-1.24-1.04-.34-2.17-.78-2.17-1.88 0-1.03.96-1.85 2.57-1.85.92 0 1.72.34 2.3.73l-.6.71c-.51-.34-1.03-.58-1.68-.58-.94 0-1.38.43-1.38.94 0 .62.77.85 1.6 1.13 1.08.36 2.27.74 2.27 1.98 0 1.06-.96 1.93-2.71 1.93a4.88 4.88 0 0 1-2.78-.9z"/><path id="U" d="M224.83 358.26v-3.61h-1.11v-.83l1.16-.06.15-1.83h1.04v1.83h2.01v.89h-2.01v3.63c0 .8.29 1.26 1.15 1.26.26 0 .6-.08.85-.17l.25.82c-.42.12-.92.24-1.37.24-1.59 0-2.12-.88-2.12-2.17z"/><path id="V" d="M229.2 361.52c0-.55.4-1.08 1.09-1.47V360c-.4-.2-.68-.55-.68-1.07s.45-.97.83-1.21v-.05c-.49-.35-.97-.97-.97-1.75 0-1.43 1.29-2.33 2.79-2.33.41 0 .78.08 1.04.17h2.58v.84h-1.52c.36.3.6.78.6 1.34 0 1.39-1.2 2.27-2.71 2.27-.37 0-.78-.08-1.11-.23-.27.2-.48.42-.48.78 0 .42.3.71 1.3.71h1.45c1.72 0 2.6.48 2.6 1.55 0 1.21-1.46 2.25-3.76 2.25-1.82 0-3.06-.62-3.06-1.75zm5.61-.34c0-.6-.53-.8-1.52-.8H232a4.96 4.96 0 0 1-.96-.11c-.53.34-.75.72-.75 1.1 0 .7.81 1.15 2.15 1.15 1.42 0 2.37-.66 2.37-1.34zm-.96-5.26c0-.95-.71-1.52-1.59-1.52s-1.59.56-1.59 1.52.72 1.55 1.59 1.55 1.59-.6 1.59-1.55z"/><path id="W" d="M237.46 353.76h1.03l.11 1.19h.04c.52-.83 1.27-1.36 2.11-1.36.33 0 .56.04.79.14l-.23.96c-.25-.08-.42-.11-.72-.11-.62 0-1.38.38-1.87 1.5v4.19h-1.24v-6.51z"/><path id="X" d="M242.2 357.02c0-2.11 1.63-3.43 3.35-3.43 1.89 0 2.95 1.2 2.95 3.06a4.7 4.7 0 0 1-.05.62h-5c.08 1.39 1.05 2.28 2.46 2.28.72 0 1.31-.19 1.86-.52l.45.72c-.66.37-1.45.67-2.46.67-1.97 0-3.55-1.26-3.55-3.41zm5.21-.54c0-1.31-.68-2.01-1.85-2.01-1.05 0-1.98.74-2.13 2.01h3.98z"/><path id="Y" d="m249.72 359.12.77-.76a4.13 4.13 0 0 0 2.76 1.09c1.31 0 2.11-.58 2.11-1.44s-.72-1.19-1.67-1.56l-1.45-.55c-.93-.35-2.04-.97-2.04-2.25 0-1.36 1.34-2.34 3.16-2.34 1.19 0 2.24.44 2.95 1.09l-.67.71c-.62-.5-1.35-.83-2.28-.83-1.13 0-1.87.5-1.87 1.29 0 .85.88 1.18 1.65 1.46l1.44.54c1.16.44 2.06 1.04 2.06 2.35 0 1.39-1.31 2.5-3.4 2.5-1.42 0-2.64-.5-3.51-1.31z"/><path id="Z" d="M261.69 360.39c-2.19-.26-3.66-1.97-3.66-4.55 0-2.82 1.76-4.53 4.28-4.53s4.28 1.71 4.28 4.53c0 2.53-1.42 4.21-3.54 4.53.45.78 1.38 1.17 2.46 1.17.45 0 .79-.06 1.05-.13l.25.86c-.3.1-.83.19-1.44.19-1.85 0-3.12-.88-3.68-2.09zm3.6-4.55c0-2.21-1.19-3.56-2.98-3.56s-2.98 1.35-2.98 3.56 1.18 3.67 2.98 3.67 2.98-1.43 2.98-3.67z"/><path id="a" d="M268.75 351.47h1.27v7.86h4.38v.95h-5.65v-8.8Z"/><path id="b" d="M289.28 370.33H177.54v-20.21l8-8h111.74v20.21l-8 8z"/><path id="c" d="M121.15 396.62H10.85v-20.46l8-8h110.3v20.46l-8 8Z"/><path id="d" d="M207.05 409.09h3.14c2.04 0 3.5.65 3.5 2.48 0 1.37-.9 2.18-2.27 2.47l2.57 3.85h-1.44l-2.43-3.73h-1.8v3.73h-1.27v-8.8zm2.95 4.17c1.57 0 2.43-.55 2.43-1.69S211.57 410 210 410h-1.68v3.26H210z"/><path id="e" d="M215.17 416.2c0-1.42 1.41-2.12 4.57-2.43 0-.84-.31-1.64-1.53-1.64-.86 0-1.64.35-2.23.7l-.49-.76c.68-.38 1.74-.85 2.93-.85 1.8 0 2.57 1.07 2.57 2.67v4.01h-1.03l-.11-.78h-.04c-.71.52-1.54.94-2.46.94-1.24 0-2.17-.67-2.17-1.85zm4.57.11v-1.82c-2.5.26-3.35.8-3.35 1.64 0 .74.57 1.04 1.31 1.04s1.31-.3 2.04-.86z"/><path id="f" d="M224.51 417.22h-.05l-.11.67h-1v-9.55h1.24v2.61l-.04 1.18c.67-.52 1.5-.92 2.32-.92 1.93 0 2.97 1.32 2.97 3.31 0 2.24-1.52 3.53-3.23 3.53-.68 0-1.46-.31-2.11-.83zm4.03-2.67c0-1.44-.55-2.41-1.96-2.41-.63 0-1.29.31-2 .9v3.42c.66.5 1.33.68 1.82.68 1.23 0 2.13-.97 2.13-2.59z"/><path id="g" d="M240.04 409.31c0-.42.34-.71.83-.71s.83.29.83.71c0 .44-.34.73-.83.73s-.83-.29-.83-.73zm.21 2.07h1.24v6.51h-1.24v-6.51z"/><path id="h" d="M249.27 409.09h1.53l1.93 4.71.71 1.83h.07l.68-1.83 1.91-4.71h1.53v8.8h-1.19v-4.87c0-.76.1-1.82.16-2.59h-.05l-.79 2-1.9 4.57h-.85l-1.9-4.57-.79-2h-.05l.15 2.59v4.87h-1.15v-8.8z"/></defs><g class="L P"><path d="m154.38 231.94 23.5-.18 21.51-27.7" class="M O"/><path d="m154.38 231.94 23.5-.18 21.51-27.7" class="N"/></g><g class="L P"><path d="M177.34 358.43H155" class="M O"/><path d="M177.34 358.43H155" class="N"/></g><g class="L P"><path d="M177.34 415.14H155V231.73" class="M O"/><path d="M177.34 415.14H155V231.73" class="N"/></g><g class="L P"><path d="M178.49 301.45h-23.8" class="M O"/><path d="M178.49 301.45h-23.8" class="N"/></g><use xlink:href="#B" x="127" y="266" class="R"/><g class="L P"><path d="M153.93 270.04h-23.8" class="M O"/><path d="M153.93 270.04h-23.8" class="N"/></g><use xlink:href="#B" x="127" y="322" class="R"/><g class="L P"><path d="M153.93 326.01h-23.8" class="M O"/><path d="M153.93 326.01h-23.8" class="N"/></g><use xlink:href="#B" x="127" y="378" class="R"/><g class="L P"><path d="M153.93 382.39h-23.8" class="M O"/><path d="M153.93 382.39h-23.8" class="N"/></g><use xlink:href="#C"/><use xlink:href="#D"/><use xlink:href="#E"/><use xlink:href="#F"/><use xlink:href="#G"/><use xlink:href="#H"/><use xlink:href="#I"/><g class="S"><use xlink:href="#C"/><use xlink:href="#D"/><use xlink:href="#E"/><use xlink:href="#F"/><use xlink:href="#G"/><use xlink:href="#H"/><use xlink:href="#I"/></g><g class="L"><circle cx="198.47" cy="108.62" r="84.46" class="M O"/><circle cx="198.47" cy="108.62" r="84.46" class="N"/></g><g class="L"><circle cx="198.66" cy="108.61" r="95.74" class="M O"/><circle cx="198.66" cy="108.61" r="95.74" class="N"/></g><g class="L T U"><use xlink:href="#J" class="M V"/><use xlink:href="#J" class="N Q"/></g><g class="L T U"><use xlink:href="#K" class="M V"/><use xlink:href="#K" class="N Q"/></g><g class="L T U"><use xlink:href="#L" class="M V"/><use xlink:href="#L" class="N Q"/></g><g class="L T U"><use xlink:href="#M" class="M V"/><use xlink:href="#M" class="N Q"/></g><g opacity=".2"><path fill="#0ff" d="M201 34.6h-5.23v-4.59H201v4.59zm-16.12-3.44 5.179-.728.637 4.535-5.179.728zm-10.637 2.639 5.027-1.442 1.262 4.403-5.027 1.442zm-10.157 4.107 4.778-2.127 1.863 4.184-4.778 2.127zm-9.487 5.467 4.435-2.771 2.427 3.884-4.435 2.771zm-8.631 6.74 4.006-3.362 2.944 3.508-4.006 3.362zm-7.613 7.885 3.5-3.887 3.404 3.065-3.5 3.887zm-6.439 8.861 2.925-4.336 3.797 2.561-2.925 4.336zm-5.142 9.673 2.293-4.701 4.116 2.008-2.293 4.701zM123.02 86.82l1.616-4.974 4.356 1.415-1.616 4.974zm-2.28 10.706.908-5.151 4.51.795-.908 5.151zm-.764 10.934.183-5.227 4.577.16-.183 5.227zm.761 10.926-.547-5.201 4.555-.479.547 5.201zm2.276 10.705-1.265-5.075 4.444-1.108 1.265 5.075zm3.739 10.307-1.959-4.849 4.247-1.716 1.959 4.849zm5.142 9.672-2.615-4.529 3.966-2.29 2.615 4.529zm6.441 8.861-3.22-4.121 3.609-2.82 3.22 4.121zm7.603 7.882-3.762-3.633 3.182-3.295 3.762 3.633zm8.626 6.746-4.231-3.074 2.692-3.705 4.231 3.074zm9.486 5.479-4.618-2.455 2.15-4.044 4.618 2.455zm10.149 4.109-4.915-1.789 1.566-4.304 4.915 1.789zm10.631 2.649-5.116-1.087.952-4.48 5.116 1.087zm10.903 1.148-5.217-.365.319-4.569 5.217.365zm10.94-.379-5.217.365-.319-4.569 5.217-.365zm10.792-1.899-5.116 1.087-.952-4.48 5.116-1.087zm10.417-3.382-4.915 1.789-1.566-4.304 4.915-1.789zm9.85-4.802-4.618 2.455-2.15-4.044 4.618-2.455zm9.072-6.117-4.231 3.074-2.692-3.705 4.231-3.074zm8.144-7.331-3.762 3.633-3.182-3.295 3.762-3.633zm7.042-8.391-3.22 4.121-3.609-2.82 3.22-4.121zm5.811-9.29-2.615 4.529-3.966-2.29 2.615-4.529zm4.455-10.005-1.959 4.849-4.247-1.716 1.959-4.849zm3.03-10.524-1.265 5.075-4.444-1.108 1.265-5.075zm1.515-10.844-.547 5.201-4.555-.479.547-5.201zm.014-10.966.183 5.227-4.577.16-.183-5.227zm-1.528-10.834.908 5.151-4.51.795-.908-5.151zm-3.014-10.541 1.616 4.974-4.356 1.415-1.616-4.974zm-6.283-3.289-2.29-4.7 2.02-.99 2.1-1.02 2.29 4.7-4.12 2.01z"/><path d="M200.84 33.53c17.77.48 33.55 7.89 46.07 18.64" class="L M O P"/><path stroke-width="4.3" d="m247.53 51.08 2.67 2.39c5.94 5.58 12.51 13.48 16.42 20.69" class="L M P"/></g><g class="S"><path d="M48.89 265.38h2.81c2.19 0 3.67.67 3.67 2.59s-1.46 2.72-3.61 2.72h-1.62v3.49H48.9v-8.8zm2.7 4.41c1.73 0 2.54-.56 2.54-1.82s-.87-1.68-2.6-1.68h-1.41v3.5h1.46zm4.91 7.07.24-.88c.15.05.36.11.55.11.83 0 1.35-.6 1.65-1.4l.16-.49-2.92-6.52h1.27l1.49 3.62.7 1.82h.07l.62-1.82 1.3-3.62h1.19l-2.74 7.05c-.5 1.28-1.26 2.27-2.7 2.27-.35 0-.63-.05-.86-.13zm7.93-4.69v-3.61h-1.08v-.83l1.14-.06.15-1.83h1.02v1.83h1.97v.89h-1.97v3.63c0 .8.28 1.26 1.12 1.26a2.67 2.67 0 0 0 .83-.17l.24.82c-.41.12-.9.24-1.34.24-1.55 0-2.07-.88-2.07-2.17zm4.83-7.54h1.22v2.61l-.04 1.34c.67-.6 1.42-1.09 2.41-1.09 1.53 0 2.22.89 2.22 2.55v4.13h-1.22v-3.98c0-1.22-.42-1.74-1.38-1.74-.75 0-1.26.34-1.99 1v4.73h-1.22v-9.55z"/><use xlink:href="#N"/><path d="M85.5 267.67h1l.11.94h.04c.7-.61 1.45-1.1 2.44-1.1 1.53 0 2.22.89 2.22 2.55v4.13h-1.22v-3.98c0-1.22-.42-1.74-1.38-1.74-.75 0-1.26.34-1.99 1v4.73H85.5v-6.51z"/></g><use xlink:href="#A" y="245"/><g class="L P"><use xlink:href="#O" class="M Q"/><use xlink:href="#O" class="N O"/></g><g class="S"><path d="M229.7 298.23c0-2.84 1.9-4.57 4.5-4.57 1.36 0 2.26.55 2.82 1.09l-.67.72c-.5-.47-1.12-.84-2.13-.84-1.97 0-3.25 1.37-3.25 3.56s1.16 3.61 3.28 3.61c.7 0 1.38-.19 1.77-.52v-2.3h-2.07v-.92h3.21v3.69c-.63.59-1.71 1.02-3.04 1.02-2.57 0-4.42-1.69-4.42-4.55z"/><use xlink:href="#N" x="161.99" y="28.44"/></g><g class="L P"><use xlink:href="#P" class="M Q"/><use xlink:href="#P" class="N O"/></g><g class="S"><path d="M47.01 324.46h1.28l3.57 5.55 1.04 1.81h.07l-.16-2.78v-4.58h1.18v8.8h-1.27l-3.57-5.55-1.06-1.81h-.05l.15 2.75v4.62h-1.18v-8.8z"/><use xlink:href="#N" x="-20.82" y="59.08"/><path d="M64.15 330.01c0-2.11 1.49-3.43 3.15-3.43.86 0 1.4.29 2.05.77l-.05-1.13v-2.51h1.2v9.55h-.99l-.11-.77h-.04c-.58.5-1.34.92-2.21.92-1.82 0-3-1.24-3-3.41zm5.14 1.59v-3.42c-.63-.49-1.18-.68-1.78-.68-1.18 0-2.1 1.01-2.1 2.5 0 1.57.72 2.51 2.01 2.51.67 0 1.26-.3 1.87-.9zm3.14-1.59c0-2.11 1.59-3.43 3.28-3.43 1.85 0 2.89 1.2 2.89 3.06a4.7 4.7 0 0 1-.05.62h-4.9c.08 1.39 1.03 2.28 2.41 2.28.71 0 1.28-.19 1.82-.52l.44.72c-.64.37-1.42.67-2.41.67-1.93 0-3.48-1.26-3.48-3.41zm5.1-.54c0-1.31-.67-2.01-1.81-2.01-1.03 0-1.94.74-2.09 2.01h3.89zm2.1 2.56.88-.56c.44.7.99.98 1.7.98 1.06 0 1.58-.54 1.58-1.87v-6.12h1.23v6.22c0 1.51-.78 2.73-2.69 2.73-1.24 0-2.13-.48-2.7-1.39zm7.34.08.75-.76c.7.66 1.69 1.09 2.7 1.09 1.28 0 2.06-.58 2.06-1.44s-.71-1.19-1.63-1.56l-1.42-.55c-.91-.35-1.99-.97-1.99-2.25 0-1.36 1.31-2.34 3.09-2.34 1.16 0 2.2.44 2.89 1.09l-.66.71c-.6-.5-1.33-.83-2.24-.83-1.11 0-1.83.5-1.83 1.29 0 .85.86 1.18 1.62 1.46l1.41.54c1.14.44 2.02 1.04 2.02 2.35 0 1.39-1.28 2.5-3.33 2.5-1.39 0-2.58-.5-3.44-1.31z"/></g><use xlink:href="#A" y="304"/><g class="L P"><use xlink:href="#Q" class="M Q"/><use xlink:href="#Q" class="N O"/></g><use xlink:href="#R"/><use xlink:href="#S"/><use xlink:href="#T"/><use xlink:href="#U"/><use xlink:href="#V"/><use xlink:href="#W"/><use xlink:href="#X"/><use xlink:href="#Y"/><use xlink:href="#Z"/><use xlink:href="#a"/><g class="S"><use xlink:href="#R"/><use xlink:href="#S"/><use xlink:href="#T"/><use xlink:href="#U"/><use xlink:href="#V"/><use xlink:href="#W"/><use xlink:href="#X"/><use xlink:href="#Y"/><use xlink:href="#Z"/><use xlink:href="#a"/></g><g class="L P"><use xlink:href="#b" class="M Q"/><use xlink:href="#b" class="N O"/></g><g class="S"><path d="M40.93 377.74h1.5l1.89 4.71.7 1.83h.07l.67-1.83 1.87-4.71h1.5v8.8h-1.16v-4.87c0-.76.09-1.82.16-2.59h-.05l-.78 2-1.86 4.57h-.83l-1.86-4.57-.78-2h-.05l.15 2.59v4.87h-1.12v-8.8z"/><use xlink:href="#N" x="-25.69" y="112.36"/><path d="M59.81 380.03h1l.11.94h.04c.7-.61 1.44-1.1 2.44-1.1 1.53 0 2.22.89 2.22 2.55v4.13H64.4v-3.98c0-1.22-.42-1.74-1.38-1.74-.75 0-1.26.34-1.99 1v4.73h-1.22v-6.51zm7.63 7.76c0-.55.39-1.08 1.07-1.47v-.05c-.39-.2-.67-.55-.67-1.07s.44-.97.82-1.21v-.05c-.48-.35-.95-.97-.95-1.75 0-1.43 1.26-2.33 2.73-2.33.4 0 .76.08 1.02.17h2.53v.84H72.5c.35.3.59.78.59 1.34 0 1.39-1.18 2.27-2.65 2.27a2.65 2.65 0 0 1-1.08-.23c-.27.2-.47.42-.47.78 0 .42.29.71 1.27.71h1.42c1.69 0 2.54.48 2.54 1.55 0 1.21-1.43 2.25-3.68 2.25-1.78 0-3-.62-3-1.75zm5.49-.34c0-.6-.52-.8-1.49-.8h-1.26a4.69 4.69 0 0 1-.94-.11c-.52.34-.74.72-.74 1.1 0 .7.79 1.15 2.1 1.15 1.39 0 2.31-.66 2.31-1.34zm-.94-5.26c0-.95-.7-1.52-1.55-1.52s-1.55.56-1.55 1.52.71 1.55 1.55 1.55 1.55-.6 1.55-1.55z"/><use xlink:href="#N" x="-1.86" y="112.36"/><path d="M83.75 377.74h2.46c3.01 0 4.63 1.58 4.63 4.38s-1.62 4.43-4.58 4.43h-2.52v-8.8zm2.36 7.89c2.31 0 3.45-1.3 3.45-3.51s-1.14-3.47-3.45-3.47H85v6.98h1.11zm6.83-7.89h2.92c1.99 0 3.37.61 3.37 2.16 0 .88-.52 1.64-1.43 1.91v.06c1.16.2 1.99.9 1.99 2.1 0 1.73-1.53 2.58-3.72 2.58h-3.13v-8.8zm2.7 3.75c1.69 0 2.37-.56 2.37-1.45 0-1.03-.79-1.42-2.31-1.42h-1.51v2.87h1.46zm.25 4.16c1.69 0 2.68-.54 2.68-1.73 0-1.09-.96-1.6-2.68-1.6h-1.71v3.32h1.71z"/></g><g class="L P"><use xlink:href="#c" class="M Q"/><use xlink:href="#c" class="N O"/></g><use xlink:href="#d"/><use xlink:href="#e"/><use xlink:href="#f"/><use xlink:href="#f" x="8.45"/><use xlink:href="#g"/><use xlink:href="#U" x="19.39" y="57.62"/><use xlink:href="#h"/><use xlink:href="#Z" x="1.77" y="57.62"/><g class="S"><use xlink:href="#d"/><use xlink:href="#e"/><use xlink:href="#f"/><use xlink:href="#f" x="8.45"/><use xlink:href="#g"/><use xlink:href="#U" x="19.39" y="57.62"/><use xlink:href="#h"/><use xlink:href="#Z" x="1.77" y="57.62"/></g><g class="L P"><use xlink:href="#b" y="57.62" class="M Q"/><use xlink:href="#b" y="57.62" class="N O"/></g></svg>