<svg xmlns="http://www.w3.org/2000/svg" xmlns:xlink="http://www.w3.org/1999/xlink" viewBox="0 0 306.77 426"><style>.M{fill:none}.N{stroke:#0ff}.O{stroke:#fff}.P{stroke-linejoin:round}.Q{stroke-linecap:round}.R{stroke-width:3}.S{stroke-miterlimit:10}.T{stroke-width:2}</style><defs><path id="C" d="M21.34 108.76h8.03c0-38.35 31.09-69.44 69.44-69.44"/><path id="D" d="M98.74 186.16c-42.75 0-77.41-34.66-77.41-77.41s34.66-77.4 77.41-77.4"/><path id="E" d="M98.74 30.35c42.75 0 77.41 34.66 77.41 77.41s-34.66 77.41-77.41 77.41"/><path id="F" d="M168.01 141.25c10.55-22.03 9.75-46.56-.06-66.99"/><path id="G" d="M98.35 11.14c53.91 0 97.62 43.71 97.62 97.62s-43.71 97.62-97.62 97.62"/><path id="H" d="M43.63 108.62c0-5.43 3.5-8.62 7.66-8.62 2.09 0 3.76 1 4.83 2.12l-1.71 2.09c-.85-.8-1.8-1.38-3.05-1.38-2.49 0-4.36 2.14-4.36 5.68s1.69 5.74 4.3 5.74c1.42 0 2.52-.67 3.41-1.62l1.74 2.05c-1.36 1.58-3.12 2.43-5.25 2.43-4.16 0-7.55-2.98-7.55-8.48Z"/><path id="I" d="M59.98 100.29h5.74c3.45 0 6.19 1.22 6.19 5.01 0 2.47-1.25 4.01-3.14 4.74l3.85 6.75h-3.67l-3.38-6.23h-2.29v6.23h-3.29v-16.5Zm5.43 7.66c2.11 0 3.29-.89 3.29-2.65s-1.18-2.38-3.29-2.38h-2.14v5.03h2.14Z"/><path id="J" d="M76.06 100.29h10.11v2.76h-6.81v3.81h5.79v2.76h-5.79v4.41h7.06v2.76H76.07v-16.5z"/><path id="K" d="M93.8 100.29h3.87l5.3 16.5h-3.45l-1.16-4.23h-5.34l-1.16 4.23h-3.34l5.28-16.5zm-.07 9.71h3.92l-.49-1.8-1.42-5.39h-.11l-1.4 5.39-.49 1.8z"/><path id="L" d="M109.08 103.05h-4.63v-2.76h12.6v2.76h-4.68v13.74h-3.29v-13.74Z"/><path id="M" d="M126.72 100.29h3.45l2.18 8.04 1.38 5.32h.11l1.4-5.32 2.14-8.04h3.34l-5.03 16.5h-3.94l-5.03-16.5z"/><path id="N" d="M143.5 100.29h10.11v2.76h-6.81v3.81h5.79v2.76h-5.79v4.41h7.06v2.76h-10.35v-16.5Z"/><path id="O" d="M287.32 259.87h-110.3v-20.46l8-8h110.3v20.46l-8 8Z"/><path id="P" d="M224.72 342.94h1.72l2.11 6.2 1.26 3.77h.07l1.26-3.77 2.09-6.2h1.67l-4.13 11.44h-1.9l-4.15-11.44z"/><path id="Q" d="M237.39 342.94h4.08c2.64 0 4.54.84 4.54 3.23 0 1.78-1.17 2.83-2.95 3.21l3.34 5h-1.86l-3.16-4.84h-2.34v4.84h-1.65v-11.44zm3.83 5.42c2.04 0 3.16-.72 3.16-2.2s-1.12-2.04-3.16-2.04h-2.18v4.24h2.18z"/><path id="R" d="M288 363.62H176.26v-20.21l8-8H296v20.21l-8 8z"/><path id="S" d="M218.97 291.69c0-.55.44-.92 1.08-.92s1.08.37 1.08.92c0 .58-.44.95-1.08.95s-1.08-.37-1.08-.95zm.27 2.69h1.61v8.46h-1.61v-8.46z"/><path id="T" d="M224.14 298.62c0-2.74 1.97-4.46 4.17-4.46 1.14 0 1.86.37 2.72 1l-.07-1.46v-3.26h1.6v12.4h-1.31l-.14-1h-.05c-.76.65-1.77 1.2-2.93 1.2-2.41 0-3.98-1.6-3.98-4.42zm6.81 2.07v-4.44c-.83-.64-1.56-.89-2.36-.89-1.56 0-2.79 1.31-2.79 3.24 0 2.04.96 3.26 2.66 3.26.89 0 1.67-.39 2.48-1.17z"/><path id="U" d="M235.81 298.62c0-2.74 2.11-4.46 4.35-4.46 2.45 0 3.83 1.56 3.83 3.97a5.55 5.55 0 0 1-.07.81h-6.49c.11 1.81 1.37 2.96 3.19 2.96.94 0 1.7-.25 2.41-.67l.59.93c-.85.48-1.88.87-3.19.87-2.56 0-4.61-1.64-4.61-4.42zm6.76-.7c0-1.7-.89-2.62-2.4-2.62-1.37 0-2.57.97-2.77 2.62h5.16z"/><path id="V" d="M246.36 298.62c0-2.82 2.11-4.46 4.47-4.46s4.47 1.64 4.47 4.46-2.11 4.42-4.47 4.42-4.47-1.62-4.47-4.42Zm7.28 0c0-1.95-1.14-3.27-2.8-3.27s-2.79 1.32-2.79 3.27 1.12 3.24 2.79 3.24 2.8-1.29 2.8-3.24Z"/><path id="W" d="m257.47 301.88.8-.93c.83.59 1.7 1 2.86 1 1.28 0 1.9-.59 1.9-1.32 0-.87-1.14-1.25-2.2-1.6-1.35-.44-2.82-1.01-2.82-2.45 0-1.34 1.24-2.4 3.34-2.4 1.19 0 2.24.44 2.98.95l-.78.92c-.66-.44-1.33-.75-2.18-.75-1.22 0-1.79.56-1.79 1.21 0 .81.99 1.11 2.08 1.46 1.4.47 2.95.97 2.95 2.57 0 1.37-1.24 2.51-3.51 2.51a6.29 6.29 0 0 1-3.6-1.17z"/><path id="X" d="M287.83 311.83H176.09v-20.21l8-8h111.74v20.21l-8 8z"/><path id="Y" d="M196.81 394.21h3.87c2.64 0 4.47.79 4.47 2.8 0 1.14-.69 2.13-1.9 2.48v.08c1.54.26 2.64 1.17 2.64 2.73 0 2.24-2.02 3.35-4.93 3.35h-4.15v-11.44zm3.58 4.88c2.24 0 3.14-.73 3.14-1.89 0-1.34-1.05-1.84-3.07-1.84h-2.01v3.72h1.93zm.34 5.41c2.24 0 3.55-.7 3.55-2.24 0-1.42-1.28-2.07-3.55-2.07h-2.27v4.32h2.27z"/><path id="Z" d="M209.04 397.18h1.33l.14 1.54h.05c.67-1.08 1.65-1.76 2.73-1.76.43 0 .73.05 1.03.19l-.3 1.25c-.32-.11-.55-.14-.94-.14-.8 0-1.79.5-2.43 1.95v5.44h-1.61v-8.46z"/><path id="a" d="M216.03 403.44c0-1.84 1.83-2.76 5.93-3.16 0-1.09-.41-2.13-1.99-2.13-1.12 0-2.13.45-2.89.9l-.64-.98c.89-.5 2.25-1.11 3.8-1.11 2.34 0 3.34 1.39 3.34 3.47v5.2h-1.33l-.14-1.01h-.05c-.92.67-2.01 1.21-3.19 1.21-1.61 0-2.82-.87-2.82-2.4zm5.93.14v-2.37c-3.25.34-4.35 1.04-4.35 2.13 0 .97.75 1.36 1.7 1.36s1.7-.39 2.64-1.12z"/><path id="b" d="M227.36 397.18h1.33l.14 1.22h.05c.92-.79 1.92-1.43 3.23-1.43 2.02 0 2.95 1.15 2.95 3.32v5.36h-1.61v-5.17c0-1.59-.55-2.26-1.83-2.26-.99 0-1.67.44-2.64 1.29v6.14h-1.61v-8.46z"/><path id="c" d="M267.04 407.26c0-.72.51-1.4 1.42-1.92v-.06c-.51-.26-.89-.72-.89-1.39s.59-1.26 1.08-1.57v-.06c-.64-.45-1.26-1.26-1.26-2.27 0-1.85 1.67-3.02 3.62-3.02a4.47 4.47 0 0 1 1.35.22h3.35v1.09h-1.97c.46.39.78 1.01.78 1.75 0 1.81-1.56 2.94-3.51 2.94-.48 0-1.01-.11-1.44-.3-.35.26-.62.54-.62 1.01 0 .54.39.92 1.69.92h1.88c2.24 0 3.37.62 3.37 2.01 0 1.57-1.9 2.93-4.88 2.93-2.36 0-3.98-.81-3.98-2.27zm7.28-.44c0-.78-.69-1.04-1.97-1.04h-1.67c-.35 0-.82-.05-1.24-.14-.69.44-.98.93-.98 1.43 0 .9 1.05 1.5 2.79 1.5 1.85 0 3.07-.86 3.07-1.75zm-1.24-6.84c0-1.23-.92-1.98-2.06-1.98s-2.06.73-2.06 1.98.94 2.01 2.06 2.01 2.06-.78 2.06-2.01z"/><path id="d" d="M287.45 415.14H175.71v-20.21l8-8h111.74v20.21l-8 8z"/></defs><use xlink:href="#B" transform="rotate(-174 57.833 101.686)"/><g class="M P Q"><path d="m95.03 197.02.77-7.3" class="N R"/><path d="m95.03 197.02.77-7.3" class="O"/></g><use xlink:href="#B" transform="rotate(-168 58.093 99.452)"/><g class="M P Q"><path d="m85.85 196.03 1.52-7.19" class="N R"/><path d="m85.85 196.03 1.52-7.19" class="O"/></g><use xlink:href="#B" transform="rotate(-162 58.36 97.196)"/><g class="M P Q"><path d="m76.82 194.07 2.27-6.98" class="N R"/><path d="m76.82 194.07 2.27-6.98" class="O"/></g><use xlink:href="#B" transform="rotate(-156 58.634 94.898)"/><g class="M P Q"><path d="m68.04 191.19 2.99-6.71" class="N R"/><path d="m68.04 191.19 2.99-6.71" class="O"/></g><use xlink:href="#B" transform="rotate(-150 58.91 92.553)"/><g class="M P Q"><path d="m59.62 187.4 3.67-6.36" class="N R"/><path d="m59.62 187.4 3.67-6.36" class="O"/></g><use xlink:href="#B" transform="rotate(-144 59.193 90.136)"/><g class="M P Q"><path d="m51.63 182.76 4.32-5.94" class="N R"/><path d="m51.63 182.76 4.32-5.94" class="O"/></g><use xlink:href="#B" transform="rotate(-138 59.49 87.637)"/><g class="M P Q"><path d="m44.18 177.3 4.91-5.46" class="N R"/><path d="m44.18 177.3 4.91-5.46" class="O"/></g><use xlink:href="#B" transform="rotate(-132 59.794 85.035)"/><g class="M P Q"><path d="m37.33 171.1 5.46-4.92" class="N R"/><path d="m37.33 171.1 5.46-4.92" class="O"/></g><use xlink:href="#B" transform="rotate(-126 60.117 82.313)"/><g class="M P Q"><path d="m31.18 164.21 5.94-4.32" class="N R"/><path d="m31.18 164.21 5.94-4.32" class="O"/></g><use xlink:href="#B" transform="rotate(-120 60.456 79.436)"/><g class="M P Q"><path d="m25.77 156.72 6.36-3.67" class="N R"/><path d="m25.77 156.72 6.36-3.67" class="O"/></g><use xlink:href="#B" transform="rotate(-114 60.815 76.384)"/><g class="M P Q"><path d="m21.18 148.7 6.71-2.98" class="N R"/><path d="m21.18 148.7 6.71-2.98" class="O"/></g><use xlink:href="#B" transform="rotate(-108 61.201 73.112)"/><g class="M P Q"><path d="m17.45 140.25 6.99-2.27" class="N R"/><path d="m17.45 140.25 6.99-2.27" class="O"/></g><use xlink:href="#B" transform="rotate(-102 61.618 69.59)"/><g class="M P Q"><path d="m14.63 131.46 7.18-1.53" class="N R"/><path d="m14.63 131.46 7.18-1.53" class="O"/></g><use xlink:href="#B" transform="rotate(-96 62.07 65.748)"/><g class="M P Q"><path d="m12.74 122.41 7.3-.76" class="N R"/><path d="m12.74 122.41 7.3-.76" class="O"/></g><use xlink:href="#B" transform="rotate(-90 62.57 61.52)"/><g class="M P Q"><path d="M11.8 113.22h7.35" class="N R"/><path d="M11.8 113.22h7.35" class="O"/></g><use xlink:href="#B" transform="rotate(-84 63.122 56.835)"/><g class="M P Q"><path d="m11.84 103.99 7.3.76" class="N R"/><path d="m11.84 103.99 7.3.76" class="O"/></g><use xlink:href="#B" transform="rotate(-78 63.746 51.57)"/><g class="M P Q"><path d="m12.83 94.8 7.19 1.53" class="N R"/><path d="m12.83 94.8 7.19 1.53" class="O"/></g><use xlink:href="#B" transform="rotate(-72 64.452 45.576)"/><g class="M P Q"><path d="m14.78 85.77 6.99 2.27" class="N R"/><path d="m14.78 85.77 6.99 2.27" class="O"/></g><use xlink:href="#B" transform="rotate(-66 65.268 38.642)"/><g class="M P Q"><path d="m17.67 77 6.71 2.98" class="N R"/><path d="m17.67 77 6.71 2.98" class="O"/></g><use xlink:href="#B" transform="rotate(-60 66.232 30.503)"/><g class="M P Q"><path d="m21.46 68.57 6.36 3.67" class="N R"/><path d="m21.46 68.57 6.36 3.67" class="O"/></g><use xlink:href="#B" transform="rotate(-54 67.386 20.726)"/><g class="M P Q"><path d="m26.1 60.59 5.94 4.31" class="N R"/><path d="m26.1 60.59 5.94 4.31" class="O"/></g><use xlink:href="#B" transform="rotate(-48 68.8 8.711)"/><g class="M P Q"><path d="m31.56 53.13 5.46 4.92" class="N R"/><path d="m31.56 53.13 5.46 4.92" class="O"/></g><use xlink:href="#B" transform="rotate(-42 70.602 -6.51)"/><g class="M P Q"><path d="m37.76 46.29 4.92 5.46" class="N R"/><path d="m37.76 46.29 4.92 5.46" class="O"/></g><use xlink:href="#B" transform="rotate(-36 72.964 -26.532)"/><g class="M P Q"><path d="m44.65 40.13 4.32 5.94" class="N R"/><path d="m44.65 40.13 4.32 5.94" class="O"/></g><use xlink:href="#B" transform="rotate(-30 76.223 -54.276)"/><g class="M P Q"><path d="m52.14 34.73 3.67 6.36" class="N R"/><path d="m52.14 34.73 3.67 6.36" class="O"/></g><use xlink:href="#B" transform="rotate(-24 81.098 -95.488)"/><g class="M P Q"><path d="m60.16 30.14 2.98 6.71" class="N R"/><path d="m60.16 30.14 2.98 6.71" class="O"/></g><use xlink:href="#B" transform="rotate(-18 89.129 -163.705)"/><g class="M P Q"><path d="m68.61 26.41 2.27 6.98" class="N R"/><path d="m68.61 26.41 2.27 6.98" class="O"/></g><use xlink:href="#B" transform="rotate(-12 105.144 -299.32)"/><g class="M P Q"><path d="m77.4 23.58 1.53 7.19" class="N R"/><path d="m77.4 23.58 1.53 7.19" class="O"/></g><use xlink:href="#B" transform="rotate(-6 152.982 -704.806)"/><g class="M P Q"><path d="m86.45 21.69.76 7.31" class="N R"/><path d="m86.45 21.69.76 7.31" class="O"/></g><use xlink:href="#B" x="84.77" y="10"/><g class="M P Q"><path d="M95.64 20.76v7.34" class="N R"/><path d="M95.64 20.76v7.34" class="O"/></g><g class="M P"><use xlink:href="#C" class="N Q T"/><use xlink:href="#C" class="O"/></g><g class="M S"><use xlink:href="#D" stroke-width="6" class="N"/><use xlink:href="#D" class="O R"/></g><g class="M S"><use xlink:href="#E" class="N T"/><use xlink:href="#E" class="O"/></g><use xlink:href="#A" transform="rotate(42 -67.462 286.383)"/><g class="M"><path d="m174.4 134.77 3.48 1.46" class="N P Q T"/><path d="m174.4 134.77 3.48 1.46" class="O S"/></g><use xlink:href="#A" transform="rotate(36 -83.054 324.595)"/><g class="M"><path d="m176.72 126.78 3.62 1.1" class="N P Q T"/><path d="m176.72 126.78 3.62 1.1" class="O S"/></g><use xlink:href="#A" transform="rotate(30 -104.644 377.52)"/><g class="M"><path d="m178.19 118.6 3.71.71" class="N P Q T"/><path d="m178.19 118.6 3.71.71" class="O S"/></g><use xlink:href="#A" transform="rotate(24 -136.746 456.197)"/><g class="M"><path d="m178.79 110.31 3.77.32" class="N P Q T"/><path d="m178.79 110.31 3.77.32" class="O S"/></g><use xlink:href="#A" transform="rotate(18 -189.836 586.347)"/><g class="M"><path d="m178.53 102 3.78-.08" class="N P Q T"/><path d="m178.53 102 3.78-.08" class="O S"/></g><use xlink:href="#A" transform="rotate(12 -295.465 845.197)"/><g class="M"><path d="m177.4 93.77 3.75-.48" class="N P Q T"/><path d="m177.4 93.77 3.75-.48" class="O S"/></g><use xlink:href="#A" transform="rotate(6 -611.14 1618.971)"/><g class="M"><path d="m175.42 85.69 3.68-.86" class="N P Q T"/><path d="m175.42 85.69 3.68-.86" class="O S"/></g><use xlink:href="#A" x="161.77" y="66"/><g class="M"><path d="m172.6 77.87 3.57-1.24" class="N P Q T"/><path d="m172.6 77.87 3.57-1.24" class="O S"/></g><g class="M S"><use xlink:href="#F" stroke-width="6" class="N"/><use xlink:href="#F" class="O R"/></g><g class="M S"><use xlink:href="#G" class="N R"/><use xlink:href="#G" class="O T"/></g><use xlink:href="#H"/><use xlink:href="#I"/><use xlink:href="#J"/><use xlink:href="#K"/><use xlink:href="#L"/><path d="M120.61 100.29h3.29v16.5h-3.29v-16.5Z"/><use xlink:href="#M"/><use xlink:href="#N"/><g fill="#fff"><use xlink:href="#H"/><use xlink:href="#I"/><use xlink:href="#J"/><use xlink:href="#K"/><use xlink:href="#L"/><path d="M120.61 100.29h3.29v16.5h-3.29v-16.5Z"/><use xlink:href="#M"/><use xlink:href="#N"/></g><g class="M S"><path d="M176.15 245.64h-43.56l-19.17-40.09" class="N T"/><path d="M176.15 245.64h-43.56l-19.17-40.09" class="O"/></g><g class="M S"><path d="M175.21 401.04h-24.94v-155.4" class="N T"/><path d="M175.21 401.04h-24.94v-155.4" class="O"/></g><g class="M S"><path d="M175.21 349.52h-24.94" class="N T"/><path d="M175.21 349.52h-24.94" class="O"/></g><g class="M S"><path d="M175.21 297.73h-23.94" class="N T"/><path d="M175.21 297.73h-23.94" class="O"/></g><path fill="#fff" d="M208.95 239.43h3.2c3.91 0 6.01 2.06 6.01 5.69s-2.1 5.75-5.94 5.75h-3.27v-11.44zm3.06 10.25c3.01 0 4.48-1.68 4.48-4.57s-1.48-4.5-4.48-4.5h-1.44v9.07h1.44zm8.72-3.04c0-2.74 2.07-4.46 4.26-4.46 2.4 0 3.75 1.56 3.75 3.97 0 .31-.03.61-.07.81h-6.36c.1 1.81 1.34 2.96 3.13 2.96a4.38 4.38 0 0 0 2.36-.67l.57.93c-.83.48-1.84.87-3.13.87-2.5 0-4.52-1.64-4.52-4.42zm6.62-.7c0-1.7-.87-2.62-2.35-2.62-1.34 0-2.52.97-2.71 2.62h5.06zm3.36 3.96.78-.93c.82.59 1.67 1 2.8 1 1.25 0 1.86-.59 1.86-1.32 0-.87-1.11-1.25-2.16-1.6-1.32-.44-2.76-1.01-2.76-2.45 0-1.34 1.22-2.4 3.27-2.4 1.16 0 2.19.44 2.92.95l-.76.92c-.64-.44-1.3-.75-2.14-.75-1.2 0-1.76.56-1.76 1.21 0 .81.97 1.11 2.03 1.46 1.37.47 2.89.97 2.89 2.57 0 1.37-1.22 2.51-3.44 2.51-1.34 0-2.62-.5-3.53-1.17zm9.62-10.19c0-.55.43-.92 1.06-.92s1.06.37 1.06.92c0 .58-.43.95-1.06.95s-1.06-.37-1.06-.95zm.26 2.69h1.58v8.46h-1.58v-8.46zm4.77 10.08c0-.72.5-1.4 1.39-1.92v-.06c-.5-.26-.87-.72-.87-1.39s.57-1.26 1.06-1.57v-.06c-.63-.45-1.23-1.26-1.23-2.27 0-1.85 1.63-3.02 3.55-3.02a4.26 4.26 0 0 1 1.32.22h3.28v1.09h-1.93c.45.39.76 1.01.76 1.75 0 1.81-1.53 2.94-3.44 2.94-.47 0-.99-.11-1.41-.3-.35.26-.61.54-.61 1.01 0 .54.38.92 1.65.92h1.84c2.19 0 3.3.62 3.3 2.01 0 1.57-1.86 2.93-4.78 2.93-2.31 0-3.89-.81-3.89-2.27zm7.13-.44c0-.78-.68-1.04-1.93-1.04h-1.63c-.35 0-.8-.05-1.22-.14-.68.44-.96.93-.96 1.43 0 .9 1.03 1.5 2.73 1.5 1.81 0 3.01-.86 3.01-1.75zm-1.22-6.84c0-1.23-.9-1.98-2.02-1.98s-2.02.73-2.02 1.98.92 2.01 2.02 2.01 2.02-.78 2.02-2.01zm5.28-2.8h1.3l.14 1.22h.05c.9-.79 1.88-1.43 3.16-1.43 1.98 0 2.89 1.15 2.89 3.32v5.36h-1.58v-5.17c0-1.59-.54-2.26-1.79-2.26-.97 0-1.63.44-2.59 1.29v6.14h-1.58v-8.46z"/><g class="M S"><use xlink:href="#O" class="N R"/><use xlink:href="#O" class="O T"/></g><use xlink:href="#P"/><use xlink:href="#Q"/><g fill="#fff"><use xlink:href="#P"/><use xlink:href="#Q"/></g><g class="M S"><use xlink:href="#R" class="N R"/><use xlink:href="#R" class="O T"/></g><use xlink:href="#P" x="-18.01" y="-51.53"/><use xlink:href="#S"/><use xlink:href="#T"/><use xlink:href="#U"/><use xlink:href="#V"/><use xlink:href="#W"/><g fill="#fff"><use xlink:href="#P" x="-18.01" y="-51.53"/><use xlink:href="#S"/><use xlink:href="#T"/><use xlink:href="#U"/><use xlink:href="#V"/><use xlink:href="#W"/></g><g class="M S"><use xlink:href="#X" class="N R"/><use xlink:href="#X" class="O T"/></g><use xlink:href="#Y"/><use xlink:href="#Z"/><use xlink:href="#a"/><use xlink:href="#b"/><use xlink:href="#T" x="14.08" y="102.8"/><use xlink:href="#S" x="31.39" y="102.8"/><use xlink:href="#b" x="28.85"/><use xlink:href="#c"/><g fill="#fff"><use xlink:href="#Y"/><use xlink:href="#Z"/><use xlink:href="#a"/><use xlink:href="#b"/><use xlink:href="#T" x="14.08" y="102.8"/><use xlink:href="#S" x="31.39" y="102.8"/><use xlink:href="#b" x="28.85"/><use xlink:href="#c"/></g><g class="M S"><use xlink:href="#d" class="N R"/><use xlink:href="#d" class="O T"/></g></svg>