<svg xmlns="http://www.w3.org/2000/svg" xmlns:xlink="http://www.w3.org/1999/xlink" viewBox="0 0 306.09 428"><style>.N{fill:none}.O{stroke:#0ff}.P{stroke:#fff}.Q{stroke-width:2}.R{stroke-miterlimit:10}.S{stroke-width:3}.T{stroke-linejoin:round}.U{stroke-linecap:round}</style><path d="M214.18 23.8v5.83m7.32-5.43-.51 5.81m7.76-4.77-1.01 5.74m8.15-4.07-1.52 5.63m11.69-12.15-5.21 14.28m8.74-2.6-2.47 5.28m8.93-1.82-2.92 5.04m9.05-1.04-3.34 4.78m9.11-.25-3.75 4.46m15.6-5.95-10.63 10.62m9.01 1.34-4.46 3.74m8.86 2.12-4.78 3.34m8.65 2.88-5.05 2.92m8.36 3.62-5.29 2.46m15.52 1.62-12.98 4.71m7.6 5.03-5.63 1.5m7.14 5.67-5.75 1.01m6.62 6.26-5.81.51m6.05 6.82-5.83-.01m13.69 7.14-14.07-.33m4.77 7.77-5.74-1.02m4.07 8.15-5.63-1.51m3.35 8.48-5.48-2m2.6 8.73-5.28-2.46m8.89 13.01-12.11-7m1.04 9.05-4.78-3.34m.25 9.1-4.46-3.74m-.55 9.09-4.12-4.12m-1.34 9.01-3.74-4.47m2.24 15.1-7.7-11.01m-2.88 8.64-2.92-5.05m-3.62 8.36-2.46-5.28m-4.34 8.01-1.99-5.48m-5.03 7.61-1.5-5.63m-4.46 13.97-2.22-12.58m-6.26 6.62-.51-5.81m-5.42 6.31v-5.83" class="N O Q T U"/><g class="N T"><path d="M289.04 108.65h-8.02c0-38.3-31.05-69.35-69.35-69.35" class="O Q U"/><path d="M289.04 108.65h-8.02c0-38.3-31.05-69.35-69.35-69.35" class="P"/></g><g class="N R"><use xlink:href="#B" stroke-width="6" class="O"/><use xlink:href="#B" class="P S"/></g><g class="N R"><use xlink:href="#C" class="O Q"/><use xlink:href="#C" class="P"/></g><g class="N T U"><use xlink:href="#D" stroke-width="6" class="O"/><use xlink:href="#D" class="P S"/></g><g class="N R"><use xlink:href="#E" class="O S"/><use xlink:href="#E" class="P"/></g><path fill="#0ff" d="m147.73 77.047 2.344.977-1.712 4.107-2.344-.977zm-4.566 11.513 2.479.555-.973 4.342-2.479-.555zm-2.496 12.134 2.537.117-.204 4.445-2.537-.117zm-.346 12.389 2.519-.326.571 4.413-2.519.326zm1.808 12.252 2.424-.758 1.329 4.247-2.424.758zm3.907 11.76 2.256-1.168 2.046 3.952-2.256 1.168z" opacity=".5"/><use xlink:href="#F"/><use xlink:href="#G"/><use xlink:href="#H"/><path d="M216.34 99.08h3.29v16.49h-3.29V99.08z"/><use xlink:href="#I"/><use xlink:href="#J"/><g fill="#fff"><use xlink:href="#F"/><use xlink:href="#G"/><use xlink:href="#H"/><path d="M216.34 99.08h3.29v16.49h-3.29V99.08z"/><use xlink:href="#I"/><use xlink:href="#J"/></g><g class="N R"><path d="M130.2 244.31h43.56l19.16-40.1" class="O Q"/><path d="M130.2 244.31h43.56l19.16-40.1" class="P"/></g><g class="N R"><path d="M131.13 402.23h24.94V245.97" class="O Q"/><path d="M131.13 402.23h24.94V245.97" class="P"/></g><g class="N R"><path d="M129.92 296.4h23.94" class="O Q"/><path d="M129.92 296.4h23.94" class="P"/></g><g class="N R"><path d="M130.09 347.74h23.94" class="O Q"/><path d="M130.09 347.74h23.94" class="P"/></g><path fill="#fff" d="M46.51 239.43h7.35v1.23h-5.74v3.86h4.87v1.21h-4.87v5.13H46.5v-11.44zm9.89.28c0-.55.43-.92 1.06-.92s1.06.37 1.06.92c0 .58-.43.95-1.06.95s-1.06-.37-1.06-.95zm.26 2.69h1.58v8.46h-1.58v-8.46zm4.76 10.08c0-.72.5-1.4 1.39-1.92v-.06c-.5-.26-.87-.72-.87-1.39s.57-1.26 1.06-1.57v-.06c-.63-.45-1.23-1.26-1.23-2.27 0-1.85 1.63-3.02 3.55-3.02a4.26 4.26 0 0 1 1.32.22h3.28v1.09h-1.93c.45.39.76 1.01.76 1.75 0 1.81-1.53 2.94-3.44 2.94-.47 0-.99-.11-1.41-.3-.35.26-.61.54-.61 1.01 0 .54.38.92 1.65.92h1.84c2.19 0 3.3.62 3.3 2.01 0 1.57-1.86 2.93-4.78 2.93-2.31 0-3.89-.81-3.89-2.27zm7.13-.44c0-.78-.68-1.04-1.93-1.04h-1.63c-.35 0-.8-.05-1.22-.14-.68.44-.96.93-.96 1.43 0 .9 1.03 1.5 2.73 1.5 1.81 0 3.01-.86 3.01-1.75zm-1.22-6.84c0-1.23-.9-1.98-2.02-1.98s-2.02.73-2.02 1.98.92 2.01 2.02 2.01 2.02-.78 2.02-2.01zm5.29-2.8h1.3l.14 1.23h.05c.82-.81 1.81-1.45 2.94-1.45 1.44 0 2.22.62 2.61 1.62.97-.95 1.96-1.62 3.11-1.62 1.95 0 2.87 1.15 2.87 3.32v5.36h-1.58v-5.17c0-1.59-.56-2.26-1.76-2.26-.73 0-1.49.42-2.38 1.29v6.14h-1.58v-5.17c0-1.59-.56-2.26-1.76-2.26-.71 0-1.51.42-2.38 1.29v6.14h-1.58v-8.46zm16.2 6.27c0-1.84 1.79-2.76 5.8-3.16 0-1.09-.4-2.13-1.95-2.13-1.1 0-2.09.45-2.83.9l-.63-.98c.87-.5 2.21-1.11 3.72-1.11 2.29 0 3.27 1.39 3.27 3.47v5.2h-1.3l-.14-1.01h-.05c-.9.67-1.96 1.21-3.13 1.21-1.58 0-2.76-.87-2.76-2.4zm5.8.14v-2.37c-3.18.34-4.26 1.04-4.26 2.13 0 .97.73 1.36 1.67 1.36s1.67-.39 2.59-1.12z"/><g class="N R"><use xlink:href="#K" class="O S"/><use xlink:href="#K" class="P Q"/></g><use xlink:href="#L"/><use xlink:href="#M"/><use xlink:href="#N"/><use xlink:href="#O"/><g fill="#fff"><use xlink:href="#L"/><use xlink:href="#M"/><use xlink:href="#N"/><use xlink:href="#O"/></g><g class="N R"><use xlink:href="#P" class="O S"/><use xlink:href="#P" class="P Q"/></g><use xlink:href="#Q"/><use xlink:href="#R"/><use xlink:href="#S"/><use xlink:href="#T"/><use xlink:href="#U"/><use xlink:href="#V"/><use xlink:href="#W"/><use xlink:href="#X"/><use xlink:href="#Y"/><use xlink:href="#U" x="40.24"/><use xlink:href="#Z"/><use xlink:href="#a"/><g fill="#fff"><use xlink:href="#Q"/><use xlink:href="#R"/><use xlink:href="#S"/><use xlink:href="#T"/><use xlink:href="#U"/><use xlink:href="#V"/><use xlink:href="#W"/><use xlink:href="#X"/><use xlink:href="#Y"/><use xlink:href="#U" x="40.24"/><use xlink:href="#Z"/><use xlink:href="#a"/></g><g class="N R"><use xlink:href="#b" class="O S"/><use xlink:href="#b" class="P Q"/></g><use xlink:href="#c"/><use xlink:href="#d"/><use xlink:href="#e"/><use xlink:href="#X" x="-40.24" y="52.85"/><use xlink:href="#f"/><use xlink:href="#U" x="-1.2" y="52.85"/><use xlink:href="#d" x="31.96"/><use xlink:href="#g"/><use xlink:href="#h"/><use xlink:href="#X" x="3.85" y="52.85"/><use xlink:href="#Y" x="3.85" y="52.85"/><use xlink:href="#U" x="44.08" y="52.85"/><use xlink:href="#Z" x="3.85" y="52.85"/><use xlink:href="#i"/><g fill="#fff"><use xlink:href="#c"/><use xlink:href="#d"/><use xlink:href="#e"/><use xlink:href="#X" x="-40.24" y="52.85"/><use xlink:href="#f"/><use xlink:href="#U" x="-1.2" y="52.85"/><use xlink:href="#d" x="31.96"/><use xlink:href="#g"/><use xlink:href="#h"/><use xlink:href="#X" x="3.85" y="52.85"/><use xlink:href="#Y" x="3.85" y="52.85"/><use xlink:href="#U" x="44.08" y="52.85"/><use xlink:href="#Z" x="3.85" y="52.85"/><use xlink:href="#i"/></g><g class="N R"><use xlink:href="#j" class="O S"/><use xlink:href="#j" class="P Q"/></g><defs><path id="B" d="M211.73 185.95c42.7 0 77.31-34.61 77.31-77.31s-34.61-77.3-77.31-77.3"/><path id="C" d="M211.73 31.34c-42.7 0-77.31 34.61-77.31 77.31s34.61 77.31 77.31 77.31"/><path id="D" d="M142.55 142.1c-10.54-22-9.74-46.5.06-66.9"/><path id="E" d="M212.12 11.15c-53.85 0-97.5 43.65-97.5 97.5s43.65 97.5 97.5 97.5"/><path id="F" d="M170.24 99.08h4.52c5.03 0 8.14 2.62 8.14 8.19s-3.11 8.3-7.96 8.3h-4.69V99.08zm4.32 13.84c3.07 0 4.98-1.65 4.98-5.65s-1.91-5.54-4.98-5.54h-1.02v11.19h1.02z"/><path id="G" d="M187 99.08h10.1v2.76h-6.81v3.8h5.78v2.76h-5.78v4.41h7.05v2.76h-10.35V99.08z"/><path id="H" d="m200.48 113.47 1.89-2.27c1.18 1.09 2.74 1.82 4.18 1.82 1.71 0 2.63-.73 2.63-1.89 0-1.22-1-1.6-2.47-2.23l-2.2-.93c-1.67-.69-3.34-2.02-3.34-4.43 0-2.69 2.36-4.76 5.7-4.76 1.91 0 3.83.76 5.16 2.11l-1.67 2.07c-1.05-.87-2.14-1.36-3.49-1.36-1.45 0-2.36.65-2.36 1.74 0 1.18 1.16 1.6 2.56 2.16l2.16.91c2 .82 3.31 2.09 3.31 4.47 0 2.69-2.25 4.98-6.05 4.98-2.2 0-4.4-.87-6.01-2.4z"/><path id="I" d="M223.74 107.4c0-5.43 3.52-8.61 7.9-8.61 2.38 0 4.03 1.02 5.09 2.11l-1.74 2.09c-.82-.78-1.76-1.38-3.25-1.38-2.74 0-4.65 2.14-4.65 5.67s1.65 5.74 4.89 5.74c.78 0 1.58-.22 2.05-.62v-3.25h-2.91v-2.69h5.85v7.43c-1.11 1.09-3.05 1.98-5.34 1.98-4.47 0-7.9-2.98-7.9-8.48Z"/><path id="J" d="M241.4 99.08h3.36l4.78 8.79 1.65 3.56h.11l-.42-5.76v-6.58h3.11v16.49h-3.34l-4.76-8.81-1.67-3.54h-.11l.4 5.74v6.61h-3.11V99.09z"/><path id="K" d="M122.12 259.87H11.82v-20.46l8-8h110.3v20.46l-8 8Z"/><path id="L" d="M53 291.25h1.99l2.5 6.12.92 2.38h.09l.89-2.38 2.48-6.12h1.99v11.44h-1.54v-6.33c0-.98.12-2.37.21-3.37h-.07l-1.03 2.6-2.47 5.94h-1.1l-2.47-5.94-1.03-2.6h-.07l.2 3.37v6.33H53v-11.44z"/><path id="M" d="M67.72 291.54c0-.55.44-.92 1.08-.92s1.08.37 1.08.92c0 .58-.44.95-1.08.95s-1.08-.37-1.08-.95zm.27 2.69h1.62v8.46h-1.62v-8.46z"/><path id="N" d="M73.57 294.23h1.33l.14 1.54h.05c.67-1.08 1.65-1.76 2.73-1.76.43 0 .73.05 1.03.19l-.3 1.25c-.32-.11-.55-.14-.94-.14-.8 0-1.79.5-2.43 1.95v5.44h-1.61v-8.46z"/><path id="O" d="M80.44 298.47c0-2.82 2.11-4.46 4.47-4.46s4.47 1.64 4.47 4.46-2.11 4.42-4.47 4.42-4.47-1.62-4.47-4.42Zm7.28 0c0-1.95-1.14-3.27-2.8-3.27s-2.79 1.32-2.79 3.27 1.12 3.24 2.79 3.24 2.8-1.29 2.8-3.24Z"/><path id="P" d="M122.63 311.68H10.89v-20.21l8-8h111.74v20.21l-8 8Z"/><path id="Q" d="M24.86 345.53h1.53l3.69 9.54h-1.45l-1.04-2.91h-3.97l-1.05 2.91h-1.39l3.69-9.54zm-.9 5.67h3.29l-.52-1.46-1.1-3.22h-.06l-1.08 3.22-.53 1.46z"/><path id="R" d="M31.71 352.88v-3.91h-1.2v-.9l1.26-.07.16-1.99h1.13V348h2.18v.96h-2.18v3.94c0 .87.31 1.37 1.24 1.37.28 0 .65-.09.92-.18l.27.88c-.46.13-.99.26-1.48.26-1.72 0-2.3-.95-2.3-2.35z"/><path id="S" d="M36.45 351.54c0-2.35 1.76-3.72 3.73-3.72s3.73 1.37 3.73 3.72-1.76 3.69-3.73 3.69-3.73-1.35-3.73-3.69zm6.07 0c0-1.62-.95-2.73-2.34-2.73s-2.33 1.1-2.33 2.73.93 2.7 2.33 2.7 2.34-1.08 2.34-2.7z"/><path id="T" d="M46.04 348.01h1.11l.12 1.03h.04c.7-.68 1.54-1.21 2.5-1.21 1.23 0 1.9.52 2.22 1.35.83-.79 1.67-1.35 2.65-1.35 1.66 0 2.44.96 2.44 2.77v4.47h-1.35v-4.32c0-1.33-.47-1.88-1.5-1.88-.62 0-1.27.35-2.03 1.08v5.12h-1.35v-4.32c0-1.33-.47-1.88-1.5-1.88-.61 0-1.29.35-2.03 1.08v5.12h-1.35v-7.06z"/><path id="U" d="M59.53 345.76c0-.46.37-.77.9-.77s.9.31.9.77c0 .48-.37.79-.9.79s-.9-.31-.9-.79zm.22 2.25h1.35v7.06h-1.35v-7.06z"/><path id="V" d="M63.21 351.54c0-2.35 1.82-3.72 3.88-3.72 1.05 0 1.78.39 2.36.83l-.7.78c-.47-.36-.96-.62-1.6-.62-1.47 0-2.53 1.1-2.53 2.73s1.01 2.7 2.49 2.7c.74 0 1.39-.3 1.9-.7l.59.79c-.73.57-1.64.9-2.61.9-2.13 0-3.78-1.35-3.78-3.69z"/><path id="W" d="M74.8 345.53h2.73c3.33 0 5.13 1.72 5.13 4.75s-1.79 4.8-5.07 4.8H74.8v-9.54zm2.61 8.55c2.56 0 3.82-1.4 3.82-3.81s-1.26-3.76-3.82-3.76h-1.23v7.57h1.23z"/><path id="X" d="M84.24 351.54c0-2.29 1.76-3.72 3.63-3.72 2.04 0 3.2 1.3 3.2 3.32a4.08 4.08 0 0 1-.06.68h-5.42c.09 1.51 1.14 2.47 2.67 2.47.79 0 1.42-.21 2.02-.56l.49.78c-.71.4-1.57.73-2.67.73-2.13 0-3.85-1.37-3.85-3.69zm5.65-.58c0-1.42-.74-2.18-2-2.18-1.14 0-2.15.81-2.31 2.18h4.31z"/><path id="Y" d="m92.15 354.26.67-.78c.7.49 1.42.83 2.39.83 1.07 0 1.58-.49 1.58-1.11 0-.73-.95-1.04-1.84-1.34-1.13-.36-2.36-.84-2.36-2.04 0-1.12 1.04-2 2.79-2 .99 0 1.87.36 2.49.79l-.65.77c-.55-.36-1.11-.62-1.82-.62-1.02 0-1.5.47-1.5 1.01 0 .68.83.92 1.73 1.22 1.17.39 2.46.81 2.46 2.15 0 1.14-1.04 2.09-2.93 2.09-1.14 0-2.24-.42-3.01-.97z"/><path id="Z" d="M103.45 356.42c0-.6.43-1.17 1.19-1.6v-.05c-.43-.22-.74-.6-.74-1.16s.49-1.05.9-1.31v-.05c-.53-.38-1.05-1.05-1.05-1.9 0-1.55 1.39-2.52 3.02-2.52.44 0 .84.09 1.13.18h2.8v.91h-1.64c.39.33.65.84.65 1.46 0 1.51-1.3 2.46-2.93 2.46a3.07 3.07 0 0 1-1.2-.25c-.3.22-.52.46-.52.85 0 .46.33.77 1.41.77h1.57c1.87 0 2.81.52 2.81 1.68 0 1.31-1.58 2.44-4.07 2.44-1.97 0-3.32-.68-3.32-1.9zm6.07-.36c0-.65-.58-.87-1.64-.87h-1.39c-.3 0-.68-.04-1.04-.12-.58.36-.81.78-.81 1.2 0 .75.87 1.25 2.33 1.25 1.54 0 2.56-.71 2.56-1.46zm-1.04-5.71c0-1.03-.77-1.65-1.72-1.65s-1.72.61-1.72 1.65.79 1.68 1.72 1.68 1.72-.65 1.72-1.68z"/><path id="a" d="M112.4 348.01h1.11l.12 1.01h.04c.77-.66 1.6-1.2 2.7-1.2 1.69 0 2.46.96 2.46 2.77v4.47h-1.35v-4.32c0-1.33-.46-1.88-1.53-1.88-.83 0-1.39.36-2.21 1.08v5.12h-1.35V348z"/><path id="b" d="M122.81 364.31H11.07V344.1l8-8h111.74v20.21l-8 8z"/><path id="c" d="M18.76 398.37h1.66l2.09 5.11.77 1.99h.07l.74-1.99 2.07-5.11h1.66v9.54h-1.29v-5.28c0-.82.1-1.98.18-2.81h-.06l-.86 2.17-2.06 4.95h-.92l-2.06-4.95-.86-2.17h-.06l.16 2.81v5.28h-1.25v-9.54z"/><path id="d" d="M30.17 406.08c0-1.53 1.53-2.3 4.95-2.64 0-.91-.34-1.78-1.66-1.78-.93 0-1.78.38-2.42.75l-.53-.82c.74-.42 1.88-.92 3.17-.92 1.96 0 2.79 1.16 2.79 2.9v4.34h-1.11l-.12-.84h-.04c-.77.56-1.67 1.01-2.67 1.01-1.35 0-2.36-.73-2.36-2zm4.95.12v-1.98c-2.71.29-3.63.87-3.63 1.78 0 .81.62 1.13 1.42 1.13s1.42-.33 2.21-.94z"/><path id="e" d="M39.26 405.73v-3.91h-1.2v-.9l1.26-.07.16-1.99h1.13v1.99h2.18v.96h-2.18v3.94c0 .87.31 1.37 1.24 1.37.28 0 .65-.09.92-.18l.27.88c-.46.13-.99.26-1.48.26-1.72 0-2.3-.95-2.3-2.35z"/><path id="f" d="M52.81 400.85h1.11l.12 1.29h.04c.56-.9 1.38-1.47 2.28-1.47.36 0 .61.04.86.16l-.25 1.04c-.27-.09-.46-.12-.79-.12-.67 0-1.5.42-2.03 1.62v4.54H52.8v-7.06z"/><path id="g" d="M70.98 406.51v-8.94h1.35v9.02c0 .36.18.51.38.51.07 0 .13 0 .28-.03l.19.91c-.19.06-.42.1-.79.1-1.01 0-1.42-.57-1.42-1.57z"/><path id="h" d="M78.64 398.37h2.73c3.33 0 5.13 1.72 5.13 4.75s-1.79 4.8-5.07 4.8h-2.79v-9.54Zm2.61 8.55c2.56 0 3.82-1.4 3.82-3.81s-1.26-3.76-3.82-3.76h-1.23v7.57h1.23Z"/><path id="i" d="M116.24 400.85h1.11l.12 1.01h.04c.77-.66 1.6-1.2 2.7-1.2 1.69 0 2.46.96 2.46 2.77v4.47h-1.35v-4.32c0-1.33-.46-1.88-1.53-1.88-.83 0-1.39.36-2.21 1.08v5.12h-1.35v-7.06z"/><path id="j" d="M122.81 417.16H11.07v-20.21l8-8h111.74v20.21l-8 8Z"/></defs></svg>