<svg xmlns="http://www.w3.org/2000/svg" xmlns:xlink="http://www.w3.org/1999/xlink" viewBox="0 0 309 439"><style>.L{fill:none}.M{stroke:#0ff}.N{stroke:#fff}.O{stroke-width:2}.P{stroke-miterlimit:10}.Q{stroke-width:3}.R{opacity:.8}.S{fill:#fff}.T{stroke-linecap:round}.U{stroke-linejoin:round}.V{stroke-width:6}</style><defs><path id="C" d="M134.59 99.97h10.49v2.85H138v4.44h6.05v2.85H138v6.9h-3.4V99.97z"/><path id="D" d="M148.97 99.97h5.93c3.56 0 6.39 1.26 6.39 5.17 0 2.55-1.29 4.14-3.24 4.9l3.98 6.97h-3.79l-3.5-6.44h-2.37v6.44h-3.4V99.97zm5.61 7.91c2.18 0 3.4-.92 3.4-2.74s-1.22-2.46-3.4-2.46h-2.21v5.2h2.21z"/><path id="E" d="M164.72 108.43c0-5.54 3.1-8.76 7.61-8.76s7.61 3.24 7.61 8.76-3.1 8.9-7.61 8.9-7.61-3.38-7.61-8.9Zm11.75 0c0-3.66-1.61-5.84-4.14-5.84s-4.14 2.18-4.14 5.84 1.61 5.96 4.14 5.96 4.14-2.32 4.14-5.96Z"/><path id="F" d="M184.21 99.97h3.47l4.94 9.08 1.7 3.68h.11l-.44-5.96v-6.81h3.22V117h-3.45l-4.92-9.11-1.72-3.66h-.11l.41 5.93v6.83h-3.22V99.95z"/><path id="G" d="M205.73 102.82h-4.78v-2.85h13.01v2.85h-4.83v14.19h-3.4v-14.19Z"/><path id="H" d="M217.65 99.97h10.44v2.85h-7.04v3.93h5.98v2.85h-5.98v4.55h7.29V117h-10.69V99.96z"/><path id="I" d="M232.71 99.97h3.47l4.94 9.08 1.7 3.68h.12l-.44-5.96v-6.81h3.22V117h-3.45l-4.92-9.11-1.72-3.66h-.12l.41 5.93v6.83h-3.22V99.95z"/><path id="J" d="M250.86 99.97h4.67c5.2 0 8.42 2.71 8.42 8.46s-3.22 8.58-8.23 8.58h-4.85V99.97zm4.46 14.3c3.17 0 5.15-1.7 5.15-5.84s-1.98-5.73-5.15-5.73h-1.06v11.57h1.06z"/><path id="K" d="M128.8 173.47c-15.83-17.08-25.51-39.94-25.51-65.07 0-29.12 13-55.2 33.51-72.76"/><path id="L" d="M218.64 202.13a95.964 95.964 0 0 1-19.6 2.01c-17.26 0-33.45-4.57-47.43-12.56"/><path id="M" d="M279.59 56.63c9.61 14.93 15.19 32.69 15.19 51.77 0 23.08-8.17 44.25-21.77 60.78"/><path id="N" d="M174.13 15.93a96 96 0 0 1 24.9-3.27c19.83 0 38.25 6.03 53.53 16.35"/><path id="O" d="M58.23 267.67h1l.11 1.19h.04c.51-.83 1.24-1.36 2.06-1.36.32 0 .55.04.78.14l-.23.96a1.96 1.96 0 0 0-.71-.11c-.6 0-1.35.38-1.83 1.5v4.19h-1.22v-6.51z"/><path id="P" d="M84.67 270.93c0-2.11 1.59-3.43 3.28-3.43 1.85 0 2.89 1.2 2.89 3.06a4.7 4.7 0 0 1-.05.62h-4.9c.08 1.39 1.03 2.28 2.41 2.28.71 0 1.28-.19 1.82-.52l.44.72c-.64.37-1.42.67-2.41.67-1.93 0-3.48-1.26-3.48-3.41zm5.1-.54c0-1.31-.67-2.01-1.81-2.01-1.03 0-1.94.74-2.09 2.01h3.89z"/><path id="Q" d="m91.81 273.44.6-.72c.63.46 1.28.77 2.15.77.96 0 1.43-.46 1.43-1.02 0-.67-.86-.96-1.66-1.24-1.02-.34-2.13-.78-2.13-1.88 0-1.03.94-1.85 2.52-1.85.9 0 1.69.34 2.25.73l-.59.71c-.5-.34-1-.58-1.65-.58-.92 0-1.35.43-1.35.94 0 .62.75.85 1.57 1.13 1.06.36 2.22.74 2.22 1.98 0 1.06-.94 1.93-2.65 1.93-1.03 0-2.02-.38-2.72-.9z"/><path id="R" d="M121.68 284.26H11.38V263.8l8-8h110.3v20.46l-8 8z"/><path id="S" d="M289.27 312.71h-110.3v-20.46l8-8h110.3v20.46l-8 8Z"/><path id="T" d="M69.56 331.57c0-1.42 1.38-2.12 4.47-2.43 0-.84-.31-1.64-1.5-1.64-.84 0-1.61.35-2.18.7l-.48-.76c.67-.38 1.7-.85 2.86-.85 1.77 0 2.52 1.07 2.52 2.67v4.01h-1l-.11-.78h-.04c-.7.52-1.51.94-2.41.94-1.22 0-2.13-.67-2.13-1.85zm4.47.11v-1.82c-2.45.26-3.28.8-3.28 1.64 0 .74.56 1.04 1.28 1.04s1.28-.3 1.99-.86z"/><path id="U" d="M121.68 343.34H11.38v-20.46l8-8h110.3v20.46l-8 8z"/><path id="V" d="M218.35 351.47h1.33l1.63 4.77.97 2.9h.05l.97-2.9 1.61-4.77h1.29l-3.19 8.8h-1.46l-3.2-8.8z"/><path id="W" d="M227.36 357.88v-4.13h1.24v3.99c0 1.21.41 1.73 1.39 1.73.77 0 1.3-.32 2.01-1.1v-4.62h1.24v6.51h-1.04l-.1-1.02h-.04c-.7.71-1.44 1.18-2.46 1.18-1.56 0-2.26-.89-2.26-2.54z"/><path id="X" d="M235.19 357.02c0-2.11 1.63-3.43 3.35-3.43 1.89 0 2.95 1.2 2.95 3.06a4.7 4.7 0 0 1-.05.62h-5c.08 1.39 1.05 2.28 2.46 2.28.72 0 1.31-.19 1.86-.52l.45.72c-.66.37-1.45.67-2.46.67-1.97 0-3.55-1.26-3.55-3.41zm5.21-.54c0-1.31-.68-2.01-1.85-2.01-1.05 0-1.98.74-2.13 2.01h3.98z"/><path id="Y" d="m242.55 359.04.9-.56c.45.7 1.01.98 1.74.98 1.08 0 1.61-.54 1.61-1.87v-6.12h1.26v6.22c0 1.51-.79 2.73-2.75 2.73-1.27 0-2.17-.48-2.76-1.39z"/><path id="Z" d="m250.04 359.12.77-.76a4.13 4.13 0 0 0 2.76 1.09c1.31 0 2.11-.58 2.11-1.44s-.72-1.19-1.67-1.56l-1.45-.55c-.93-.35-2.04-.97-2.04-2.25 0-1.36 1.34-2.34 3.16-2.34 1.19 0 2.24.44 2.95 1.09l-.67.71c-.62-.5-1.35-.83-2.28-.83-1.13 0-1.87.5-1.87 1.29 0 .85.88 1.18 1.65 1.46l1.44.54c1.16.44 2.06 1.04 2.06 2.35 0 1.39-1.31 2.5-3.4 2.5-1.42 0-2.64-.5-3.51-1.31z"/><path id="a" d="M289.82 370.33H178.08v-20.21l8-8h111.74v20.21l-8 8z"/><path id="b" d="M121.68 396.62H11.38v-20.46l8-8h110.3v20.46l-8 8Z"/><path id="c" d="M220.83 409.09h1.41l3.4 8.8h-1.34l-.96-2.69h-3.66l-.97 2.69h-1.29l3.4-8.8zm-.83 5.23h3.04l-.48-1.34-1.01-2.97h-.05l-1 2.97-.49 1.34z"/><path id="d" d="M226.94 411.38h1.03l.11.74h.04c.67-.48 1.5-.91 2.37-.91 1.91 0 2.95 1.32 2.95 3.32 0 2.23-1.52 3.51-3.23 3.51-.67 0-1.38-.28-2.05-.76l.03 1.14v2.21h-1.24v-9.26zm5.2 3.17c0-1.44-.55-2.41-1.96-2.41-.63 0-1.27.31-2 .9v3.42c.67.5 1.33.68 1.82.68 1.23 0 2.13-.97 2.13-2.59z"/><path id="e" d="M234.85 414.64c0-2.17 1.63-3.43 3.45-3.43s3.45 1.26 3.45 3.43-1.63 3.41-3.45 3.41-3.45-1.25-3.45-3.41zm5.61 0c0-1.5-.88-2.52-2.16-2.52s-2.15 1.02-2.15 2.52.86 2.49 2.15 2.49 2.16-1 2.16-2.49z"/><path id="f" d="M243.7 416.6v-8.25h1.24v8.32c0 .34.16.47.36.47.07 0 .12 0 .26-.02l.18.84c-.18.06-.38.1-.72.1-.93 0-1.31-.53-1.31-1.45z"/></defs><g class="L P"><path d="m154.91 231.94 23.5-.18 21.51-27.7" class="M O"/><path d="m154.91 231.94 23.5-.18 21.51-27.7" class="N"/></g><g class="L P"><path d="M177.87 358.43h-22.34" class="M O"/><path d="M177.87 358.43h-22.34" class="N"/></g><g class="L P"><path d="M177.87 415.14h-22.34V231.73" class="M O"/><path d="M177.87 415.14h-22.34V231.73" class="N"/></g><use xlink:href="#A" x="152" y="297" class="R"/><g class="L P"><path d="M179.02 301.45h-23.8" class="M O"/><path d="M179.02 301.45h-23.8" class="N"/></g><use xlink:href="#A" x="127" y="266" class="R"/><g class="L P"><path d="M154.46 270.04h-23.8" class="M O"/><path d="M154.46 270.04h-23.8" class="N"/></g><use xlink:href="#A" x="127" y="322" class="R"/><g class="L P"><path d="M154.46 326.01h-23.8" class="M O"/><path d="M154.46 326.01h-23.8" class="N"/></g><use xlink:href="#A" x="127" y="378" class="R"/><g class="L P"><path d="M154.46 382.39h-23.8" class="M O"/><path d="M154.46 382.39h-23.8" class="N"/></g><use xlink:href="#C"/><use xlink:href="#D"/><use xlink:href="#E"/><use xlink:href="#F"/><use xlink:href="#G"/><use xlink:href="#H"/><use xlink:href="#I"/><use xlink:href="#J"/><g class="S"><use xlink:href="#C"/><use xlink:href="#D"/><use xlink:href="#E"/><use xlink:href="#F"/><use xlink:href="#G"/><use xlink:href="#H"/><use xlink:href="#I"/><use xlink:href="#J"/></g><g class="L"><circle cx="199" cy="108.62" r="84.46" class="M O"/><circle cx="199" cy="108.62" r="84.46" class="N"/></g><g class="L"><circle cx="199.19" cy="108.61" r="95.74" class="M O"/><circle cx="199.19" cy="108.61" r="95.74" class="N"/></g><g class="L T U"><use xlink:href="#K" class="M V"/><use xlink:href="#K" class="N Q"/></g><g class="L T U"><use xlink:href="#L" class="M V"/><use xlink:href="#L" class="N Q"/></g><g class="L T U"><use xlink:href="#M" class="M V"/><use xlink:href="#M" class="N Q"/></g><g class="L T U"><use xlink:href="#N" class="M V"/><use xlink:href="#N" class="N Q"/></g><g opacity=".2"><path fill="#0ff" d="M201.53 34.6h-5.23v-4.59h5.23v4.59zm-16.125-3.444 5.179-.728.637 4.535-5.179.728zm-10.633 2.647 5.027-1.442 1.262 4.403-5.027 1.442zm-10.162 4.098 4.778-2.127 1.863 4.184-4.778 2.127zm-9.481 5.471 4.435-2.771 2.427 3.884-4.435 2.771zm-8.635 6.74 4.006-3.362 2.944 3.508-4.006 3.362zm-7.615 7.882 3.5-3.887 3.404 3.065-3.5 3.887zm-6.437 8.866 2.925-4.336 3.797 2.561-2.925 4.336zm-5.146 9.666 2.293-4.701 4.116 2.008-2.293 4.701zm-3.743 10.3 1.616-4.974 4.356 1.415-1.616 4.974zm-2.281 10.708.908-5.151 4.51.795-.908 5.151zm-.768 10.926.183-5.227 4.577.16-.183 5.227zm.758 10.919-.547-5.201 4.555-.479.547 5.201zm2.283 10.718-1.265-5.075 4.444-1.108 1.265 5.075zm3.739 10.3-1.959-4.849 4.247-1.716 1.959 4.849zm5.13 9.665-2.615-4.529 3.966-2.29 2.615 4.529zm6.455 8.871-3.22-4.121 3.609-2.82 3.22 4.121zm7.597 7.882-3.762-3.633 3.182-3.295 3.762 3.633zm8.63 6.742-4.231-3.074 2.692-3.705 4.231 3.074zm9.486 5.482-4.618-2.455 2.15-4.044 4.618 2.455zm10.149 4.106-4.915-1.789 1.566-4.304 4.915 1.789zm10.631 2.651-5.116-1.087.952-4.48 5.116 1.087zm10.902 1.151-5.217-.365.319-4.569 5.217.365zm10.94-.385-5.217.365-.319-4.569 5.217-.365zm10.793-1.896-5.116 1.087-.952-4.48 5.116-1.087zm10.417-3.381-4.915 1.789-1.566-4.304 4.915-1.789zm9.85-4.805-4.618 2.455-2.15-4.044 4.618-2.455zm9.072-6.124-4.231 3.074-2.692-3.705 4.231-3.074zm8.14-7.324-3.762 3.633-3.182-3.295 3.762-3.633zm7.047-8.391-3.22 4.121-3.609-2.82 3.22-4.121zm5.813-9.289-2.615 4.529-3.966-2.29 2.615-4.529zm4.451-10.002-1.959 4.849-4.247-1.716 1.959-4.849zm3.03-10.522-1.265 5.075-4.444-1.108 1.265-5.075zm1.518-10.85-.547 5.201-4.555-.479.547-5.201zm.009-10.965.183 5.227-4.577.16-.183-5.227zm-1.525-10.841.908 5.151-4.51.795-.908-5.151zm-3.022-10.529 1.616 4.974-4.356 1.415-1.616-4.974zm-6.277-3.293-2.29-4.7 2.02-.99 2.1-1.02 2.29 4.7-4.12 2.01z"/><path d="M201.37 33.53c17.77.48 33.55 7.89 46.07 18.64" class="L M O P"/><path stroke-width="4.3" d="m248.06 51.08 2.67 2.39c5.94 5.58 12.51 13.48 16.42 20.69" class="L M P"/></g><g class="S"><path d="M37.48 265.38h1.27l1.03 4.8.58 2.84h.05l.71-2.84 1.35-4.8h1.14l1.36 4.8.7 2.84h.07l.56-2.84 1.03-4.8h1.19l-2.03 8.8H45l-1.49-5.3-.48-2h-.05l-.5 2-1.46 5.3h-1.47l-2.07-8.8zm12.08 5.55c0-2.17 1.59-3.43 3.37-3.43s3.37 1.26 3.37 3.43-1.59 3.41-3.37 3.41-3.37-1.25-3.37-3.41zm5.49 0c0-1.5-.86-2.52-2.11-2.52s-2.1 1.02-2.1 2.52.84 2.49 2.1 2.49 2.11-1 2.11-2.49z"/><use xlink:href="#O"/><path d="M62.9 270.93c0-2.11 1.49-3.43 3.14-3.43.86 0 1.41.29 2.05.77l-.05-1.13v-2.51h1.2v9.55h-.99l-.11-.77h-.04c-.58.5-1.34.92-2.21.92-1.82 0-3-1.24-3-3.41zm5.14 1.59v-3.42c-.63-.49-1.18-.68-1.78-.68-1.18 0-2.1 1.01-2.1 2.5 0 1.57.72 2.51 2.01 2.51.67 0 1.26-.3 1.87-.9zm3.68-4.85h1l.11.74h.04c.66-.48 1.47-.91 2.31-.91 1.87 0 2.89 1.32 2.89 3.32 0 2.23-1.49 3.51-3.16 3.51-.66 0-1.35-.28-2.01-.76l.03 1.14v2.21h-1.22v-9.26zm5.09 3.17c0-1.44-.54-2.41-1.91-2.41-.62 0-1.24.31-1.95.9v3.42c.66.5 1.3.68 1.78.68 1.2 0 2.09-.97 2.09-2.59z"/><use xlink:href="#O" x="21.79"/><use xlink:href="#P"/><use xlink:href="#Q"/><use xlink:href="#Q" x="6.27"/></g><use xlink:href="#B" y="245"/><g class="L P"><use xlink:href="#R" class="M Q"/><use xlink:href="#R" class="N O"/></g><g class="S"><path d="M208.5 294.77h-2.97v-.95h7.19v.95h-2.97v7.86h-1.24v-7.86zm5.13 10.53.24-.88c.15.05.36.11.55.11.83 0 1.35-.6 1.65-1.4l.16-.49-2.92-6.52h1.27l1.49 3.62.7 1.82h.07l.62-1.82 1.3-3.62h1.19l-2.74 7.05c-.5 1.28-1.26 2.27-2.7 2.27-.35 0-.63-.05-.86-.13zm7.71-9.19h1l.11.74h.04c.66-.48 1.47-.91 2.32-.91 1.87 0 2.89 1.32 2.89 3.32 0 2.23-1.49 3.51-3.16 3.51-.66 0-1.35-.28-2.01-.76l.03 1.14v2.21h-1.22v-9.26zm5.08 3.17c0-1.44-.54-2.41-1.91-2.41-.62 0-1.24.31-1.95.9v3.42c.66.5 1.3.68 1.78.68 1.2 0 2.09-.97 2.09-2.59z"/><use xlink:href="#P" x="144.42" y="28.44"/><use xlink:href="#Q" x="144.43" y="28.44"/><path d="M242.77 299.37c0-2.17 1.65-3.43 3.51-3.43.95 0 1.61.36 2.13.77l-.63.72c-.43-.34-.87-.58-1.44-.58-1.33 0-2.29 1.02-2.29 2.52s.91 2.49 2.25 2.49c.67 0 1.26-.28 1.71-.65l.54.73a3.77 3.77 0 0 1-2.36.83c-1.93 0-3.41-1.25-3.41-3.41z"/><use xlink:href="#O" x="191.91" y="28.44"/><path d="M255.13 294.04c0-.42.33-.71.82-.71s.82.29.82.71c0 .44-.33.73-.82.73s-.82-.29-.82-.73zm.2 2.07h1.22v6.51h-1.22v-6.51zm3.68 0h1l.11.74h.04c.66-.48 1.47-.91 2.31-.91 1.87 0 2.89 1.32 2.89 3.32 0 2.23-1.49 3.51-3.16 3.51-.66 0-1.35-.28-2.01-.76l.03 1.14v2.21H259v-9.26zm5.09 3.17c0-1.44-.54-2.41-1.91-2.41-.62 0-1.24.31-1.95.9v3.42c.66.5 1.3.68 1.78.68 1.2 0 2.09-.97 2.09-2.59zm3.43 1.33V297h-1.08v-.83l1.14-.06.15-1.83h1.02v1.83h1.97v.89h-1.97v3.63c0 .8.28 1.26 1.12 1.26a2.67 2.67 0 0 0 .83-.17l.24.82c-.42.12-.9.24-1.34.24-1.55 0-2.07-.88-2.07-2.17z"/></g><g class="L P"><use xlink:href="#S" class="M Q"/><use xlink:href="#S" class="N O"/></g><g class="S"><path d="M54.2 324.46h3.08c1.99 0 3.43.65 3.43 2.48 0 1.37-.88 2.18-2.22 2.47l2.52 3.85H59.6l-2.38-3.73h-1.77v3.73h-1.24v-8.8zm2.89 4.17c1.54 0 2.38-.55 2.38-1.69s-.84-1.57-2.38-1.57h-1.65v3.26h1.65z"/><use xlink:href="#P" x="-22.62" y="59.08"/><use xlink:href="#T"/><path d="M77.02 330.01c0-2.17 1.65-3.43 3.51-3.43.95 0 1.61.36 2.13.77l-.63.72c-.43-.34-.87-.58-1.45-.58-1.32 0-2.29 1.02-2.29 2.52s.91 2.49 2.25 2.49c.67 0 1.26-.28 1.71-.65l.54.73a3.77 3.77 0 0 1-2.36.83c-1.93 0-3.41-1.25-3.41-3.41zm7.58 1.24v-3.61h-1.08v-.83l1.14-.06.15-1.83h1.02v1.83h1.97v.89h-1.97v3.63c0 .8.28 1.26 1.12 1.26a2.67 2.67 0 0 0 .83-.17l.24.82c-.41.12-.9.24-1.34.24-1.55 0-2.07-.88-2.07-2.17z"/></g><use xlink:href="#B" y="304"/><g class="L P"><use xlink:href="#U" class="M Q"/><use xlink:href="#U" class="N O"/></g><use xlink:href="#V"/><use xlink:href="#W"/><use xlink:href="#X"/><use xlink:href="#Y"/><use xlink:href="#Z"/><g class="S"><use xlink:href="#V"/><use xlink:href="#W"/><use xlink:href="#X"/><use xlink:href="#Y"/><use xlink:href="#Z"/></g><g class="L P"><use xlink:href="#a" class="M Q"/><use xlink:href="#a" class="N O"/></g><g class="S"><path d="M43.51 382.15c0-2.84 1.9-4.57 4.5-4.57 1.36 0 2.26.55 2.82 1.09l-.67.72c-.5-.47-1.12-.84-2.13-.84-1.97 0-3.25 1.37-3.25 3.56s1.16 3.61 3.28 3.61c.7 0 1.38-.19 1.77-.52v-2.3h-2.07v-.92h3.21v3.69c-.63.59-1.71 1.02-3.04 1.02-2.57 0-4.42-1.69-4.42-4.55z"/><use xlink:href="#O" x="-5.04" y="112.36"/><use xlink:href="#T" x="-11.63" y="53.28"/><path d="M65.93 380.03h1l.11.74h.04c.66-.48 1.47-.91 2.31-.91 1.87 0 2.89 1.32 2.89 3.32 0 2.23-1.49 3.51-3.16 3.51-.66 0-1.35-.28-2.01-.76l.03 1.14v2.21h-1.22v-9.26zm5.08 3.17c0-1.44-.54-2.41-1.91-2.41-.62 0-1.24.31-1.95.9v3.42c.66.5 1.3.68 1.78.68 1.2 0 2.09-.97 2.09-2.59zm3.22-6.21h1.22v2.61l-.04 1.34c.67-.6 1.42-1.09 2.41-1.09 1.53 0 2.22.89 2.22 2.55v4.13h-1.22v-3.98c0-1.22-.41-1.74-1.38-1.74-.75 0-1.26.34-1.99 1v4.73h-1.22v-9.55zm11.26 9.67c-2.14-.26-3.59-1.97-3.59-4.55 0-2.82 1.73-4.53 4.19-4.53s4.19 1.71 4.19 4.53c0 2.53-1.39 4.21-3.47 4.53.44.78 1.35 1.17 2.41 1.17.44 0 .78-.06 1.03-.13l.24.86c-.29.1-.82.19-1.41.19-1.81 0-3.05-.88-3.6-2.09zm3.52-4.55c0-2.21-1.16-3.56-2.92-3.56s-2.92 1.35-2.92 3.56 1.15 3.67 2.92 3.67 2.92-1.43 2.92-3.67zm3.39-4.37h1.24v7.86h4.28v.95h-5.53v-8.8z"/></g><g class="L P"><use xlink:href="#b" class="M Q"/><use xlink:href="#b" class="N O"/></g><use xlink:href="#c"/><use xlink:href="#d"/><use xlink:href="#e"/><use xlink:href="#f"/><use xlink:href="#f" x="3.89"/><use xlink:href="#e" x="16.08"/><g class="S"><use xlink:href="#c"/><use xlink:href="#d"/><use xlink:href="#e"/><use xlink:href="#f"/><use xlink:href="#f" x="3.89"/><use xlink:href="#e" x="16.08"/></g><g class="L P"><use xlink:href="#a" y="57.62" class="M Q"/><use xlink:href="#a" y="57.62" class="N O"/></g></svg>