<svg xmlns="http://www.w3.org/2000/svg" xmlns:xlink="http://www.w3.org/1999/xlink" viewBox="0 0 308 432"><style>.L{fill:none}.M{stroke:#0ff}.N{stroke:#fff}.O{stroke-width:2}.P{stroke-miterlimit:10}.Q{stroke-width:3}.R{opacity:.8}.S{fill:#fff}.T{stroke-linecap:round}.U{stroke-linejoin:round}.V{stroke-width:6}</style><defs><path id="E" d="M146.29 99.97h3.77l2.9 7.98 1.03 3.26h.12l1.03-3.26 2.83-7.98h3.77v17.04h-3.1v-7.11c0-1.61.25-3.98.44-5.59h-.12l-1.38 4-2.62 7.15h-1.95l-2.64-7.15-1.36-4h-.09l.44 5.59v7.11h-3.06V99.97z"/><path id="F" d="M166 108.43c0-5.54 3.1-8.76 7.61-8.76s7.61 3.24 7.61 8.76-3.1 8.9-7.61 8.9-7.61-3.38-7.61-8.9Zm11.75 0c0-3.66-1.61-5.84-4.14-5.84s-4.14 2.18-4.14 5.84 1.61 5.96 4.14 5.96 4.14-2.32 4.14-5.96Z"/><path id="G" d="M185.48 99.97h5.63c3.5 0 6.16 1.03 6.16 4.21 0 1.56-.87 3.17-2.32 3.68v.12c1.84.44 3.2 1.72 3.2 4.02 0 3.43-2.85 5.01-6.6 5.01h-6.07V99.97zm5.38 6.94c2.16 0 3.1-.87 3.1-2.23 0-1.5-1.01-2.09-3.06-2.09h-2.02v4.32h1.98zm.39 7.47c2.32 0 3.59-.83 3.59-2.6 0-1.66-1.24-2.37-3.59-2.37h-2.37v4.97h2.37z"/><path id="H" d="M210.57 99.97h3.4v14.19h6.92v2.85h-10.32V99.97z"/><path id="I" d="M224.79 99.97h10.44v2.85h-7.04v3.93h5.98v2.85h-5.98v4.55h7.29V117h-10.69V99.96z"/><path id="J" d="m238.73 114.85 1.95-2.35c1.22 1.13 2.83 1.89 4.32 1.89 1.77 0 2.71-.76 2.71-1.96 0-1.26-1.03-1.66-2.55-2.3l-2.28-.96c-1.72-.71-3.45-2.09-3.45-4.58 0-2.78 2.44-4.92 5.89-4.92 1.98 0 3.96.78 5.33 2.18l-1.72 2.14c-1.08-.9-2.21-1.4-3.61-1.4-1.49 0-2.44.67-2.44 1.79 0 1.22 1.2 1.66 2.64 2.23l2.23.94c2.07.85 3.43 2.16 3.43 4.62 0 2.78-2.32 5.15-6.25 5.15a9.1 9.1 0 0 1-6.21-2.48z"/><path id="K" d="M128.24 173.47c-15.83-17.08-25.51-39.94-25.51-65.07 0-29.12 13-55.2 33.51-72.76"/><path id="L" d="M218.08 202.13a95.964 95.964 0 0 1-19.6 2.01c-17.26 0-33.45-4.57-47.43-12.56"/><path id="M" d="M279.03 56.63c9.61 14.93 15.19 32.69 15.19 51.77 0 23.08-8.17 44.25-21.77 60.78"/><path id="N" d="M173.57 15.93a96 96 0 0 1 24.9-3.27c19.83 0 38.25 6.03 53.53 16.35"/><path id="O" d="M48.32 272.49c0-1.42 1.38-2.12 4.47-2.43 0-.84-.31-1.64-1.5-1.64-.84 0-1.61.35-2.18.7l-.48-.76c.67-.38 1.7-.85 2.86-.85 1.77 0 2.52 1.07 2.52 2.67v4.01h-1l-.11-.78h-.04c-.7.52-1.51.94-2.41.94-1.22 0-2.13-.67-2.13-1.85zm4.47.11v-1.82c-2.45.26-3.28.8-3.28 1.64 0 .74.56 1.04 1.28 1.04s1.29-.3 1.99-.86z"/><path id="P" d="M63.36 272.17v-3.61h-1.08v-.83l1.14-.06.15-1.83h1.02v1.83h1.97v.89h-1.97v3.63c0 .8.28 1.26 1.12 1.26a2.67 2.67 0 0 0 .83-.17l.24.82c-.42.12-.9.24-1.34.24-1.55 0-2.07-.88-2.07-2.17z"/><path id="Q" d="M122.1 284.26H11.8V263.8l8-8h110.3v20.46l-8 8z"/><path id="R" d="M234.81 296.27c0-1.42 1.38-2.12 4.47-2.43 0-.84-.31-1.64-1.5-1.64-.84 0-1.61.35-2.18.7l-.48-.76c.67-.38 1.7-.85 2.86-.85 1.77 0 2.52 1.07 2.52 2.67v4.01h-1l-.11-.78h-.04c-.7.52-1.51.94-2.41.94-1.22 0-2.13-.67-2.13-1.85zm4.47.11v-1.82c-2.45.26-3.28.8-3.28 1.64 0 .74.56 1.04 1.28 1.04s1.28-.3 1.99-.86z"/><path id="S" d="M289.48 308.04h-110.3v-20.46l8-8h110.3v20.46l-8 8z"/><path id="T" d="M121.12 340.23H10.82v-20.46l8-8h110.3v20.46l-8 8Z"/><path id="U" d="m221.79 354.2.77-.76a4.13 4.13 0 0 0 2.76 1.09c1.31 0 2.11-.58 2.11-1.44s-.72-1.19-1.67-1.56l-1.45-.55c-.93-.35-2.04-.97-2.04-2.25 0-1.36 1.34-2.34 3.16-2.34 1.19 0 2.24.44 2.95 1.09l-.67.71c-.62-.5-1.35-.83-2.28-.83-1.13 0-1.87.5-1.87 1.29 0 .85.88 1.18 1.65 1.46l1.44.54c1.16.44 2.06 1.04 2.06 2.35 0 1.39-1.31 2.5-3.4 2.5-1.42 0-2.64-.5-3.51-1.31z"/><path id="V" d="M229.68 348.84h1.27l1.11 3.77.44 1.82h.07l.51-1.82 1.15-3.77h1.22l1.16 3.77.52 1.82h.05l.46-1.82 1.09-3.77h1.18l-2 6.51h-1.5l-1.08-3.51-.51-1.87h-.07l-.51 1.89-1.04 3.49h-1.46l-2.06-6.51z"/><path id="W" d="M241.32 346.76c0-.42.34-.71.83-.71s.83.29.83.71c0 .44-.34.73-.83.73s-.83-.29-.83-.73zm.21 2.07h1.24v6.51h-1.24v-6.51z"/><path id="X" d="M245.49 349.73h-1.01v-.83l1.01-.06v-1.04c0-1.32.68-2.15 2.16-2.15.45 0 .9.08 1.24.22l-.27.83a2.28 2.28 0 0 0-.83-.17c-.71 0-1.05.44-1.05 1.28v1.03h1.57v.89h-1.57v5.62h-1.24v-5.62z"/><path id="Y" d="M249.95 353.34v-3.61h-1.11v-.83l1.16-.06.15-1.83h1.04v1.83h2.01v.89h-2.01v3.63c0 .8.29 1.26 1.15 1.26.26 0 .6-.08.85-.17l.25.82c-.42.12-.92.24-1.37.24-1.59 0-2.12-.88-2.12-2.17z"/><path id="Z" d="M289.26 365.41H179.42V345.2l8-8h109.84v20.21l-8 8z"/><path id="a" d="M121.12 396.82H10.82v-20.46l8-8h110.3v20.46l-8 8Z"/><path id="b" d="M219.62 402.58h1.27V407h.04l4.18-4.42h1.42l-3.13 3.36 3.62 5.45h-1.41l-3.01-4.58-1.72 1.8v2.78h-1.27v-8.8z"/><path id="c" d="M227.78 408.13c0-2.17 1.63-3.43 3.45-3.43s3.45 1.26 3.45 3.43-1.63 3.41-3.45 3.41-3.45-1.25-3.45-3.41zm5.61 0c0-1.5-.88-2.52-2.16-2.52s-2.15 1.02-2.15 2.52.86 2.49 2.15 2.49 2.16-1 2.16-2.49z"/><path id="d" d="M241.78 410.08v-8.25h1.24v8.32c0 .34.16.47.36.47.07 0 .12 0 .26-.02l.18.84c-.18.06-.38.1-.72.1-.93 0-1.31-.53-1.31-1.45z"/><path id="e" d="M249.43 404.87h1.03l.11.94h.04c.71-.61 1.48-1.1 2.49-1.1 1.56 0 2.27.89 2.27 2.55v4.13h-1.24v-3.98c0-1.22-.42-1.74-1.41-1.74-.77 0-1.29.34-2.04 1v4.73h-1.24v-6.51z"/><path id="f" d="M289.26 421.44H179.42v-20.21l8-8h109.84v20.21l-8 8z"/></defs><g class="L P"><path d="m154.35 231.94 23.5-.18 21.51-27.7" class="M O"/><path d="m154.35 231.94 23.5-.18 21.51-27.7" class="N"/></g><use xlink:href="#A" x="151" y="350" class="R"/><g class="L P"><path d="M179.41 354.06h-24.44" class="M O"/><path d="M179.41 354.06h-24.44" class="N"/></g><g class="L P"><path d="m154.61 231.22.36 178.84h24.44" class="M O"/><path d="m154.61 231.22.36 178.84h24.44" class="N"/></g><use xlink:href="#A" x="150" y="294" class="R"/><g class="L P"><path d="M178.71 298.06h-24.75" class="M O"/><path d="M178.71 298.06h-24.75" class="N"/></g><use xlink:href="#B" x="127" y="266" class="R"/><g class="L P"><path d="M153.9 270.04h-23.8" class="M O"/><path d="M153.9 270.04h-23.8" class="N"/></g><use xlink:href="#B" x="127" y="322" class="R"/><g class="L P"><path d="M153.9 326.01h-23.8" class="M O"/><path d="M153.9 326.01h-23.8" class="N"/></g><g class="L P"><path d="M153.42 382.06h-23.8" class="M O"/><path d="M153.42 382.06h-23.8" class="N"/></g><use xlink:href="#E"/><use xlink:href="#F"/><use xlink:href="#G"/><path d="M202.06 99.97h3.4v17.04h-3.4V99.97z"/><use xlink:href="#H"/><use xlink:href="#I"/><use xlink:href="#J"/><g class="S"><use xlink:href="#E"/><use xlink:href="#F"/><use xlink:href="#G"/><path d="M202.06 99.97h3.4v17.04h-3.4V99.97z"/><use xlink:href="#H"/><use xlink:href="#I"/><use xlink:href="#J"/></g><g class="L"><circle cx="198.44" cy="108.62" r="84.46" class="M O"/><circle cx="198.44" cy="108.62" r="84.46" class="N"/></g><g class="L"><circle cx="198.63" cy="108.61" r="95.74" class="M O"/><circle cx="198.63" cy="108.61" r="95.74" class="N"/></g><g class="L T U"><use xlink:href="#K" class="M V"/><use xlink:href="#K" class="N Q"/></g><g class="L T U"><use xlink:href="#L" class="M V"/><use xlink:href="#L" class="N Q"/></g><g class="L T U"><use xlink:href="#M" class="M V"/><use xlink:href="#M" class="N Q"/></g><g class="L T U"><use xlink:href="#N" class="M V"/><use xlink:href="#N" class="N Q"/></g><g opacity=".2"><path fill="#0ff" d="M200.97 34.6h-5.23v-4.59h5.23v4.59zm-16.119-3.446 5.179-.728.637 4.535-5.179.728zm-10.637 2.64 5.027-1.442 1.262 4.403-5.027 1.442zm-10.165 4.114 4.778-2.127 1.863 4.184-4.778 2.127zm-9.475 5.471 4.435-2.771 2.427 3.884-4.435 2.771zm-8.639 6.733 4.006-3.362 2.944 3.508-4.006 3.362zM138.325 58l3.5-3.887 3.404 3.065-3.5 3.887zm-6.436 8.864 2.925-4.336 3.797 2.561-2.925 4.336zm-5.148 9.665 2.293-4.701 4.116 2.008-2.293 4.701zm-3.751 10.3 1.616-4.974 4.356 1.415-1.616 4.974zm-2.275 10.696.908-5.151 4.51.795-.908 5.151zm-.77 10.935.183-5.227 4.577.16-.183 5.227zm.755 10.926-.547-5.201 4.555-.479.547 5.201zm2.28 10.714-1.265-5.075 4.444-1.108 1.265 5.075zm3.743 10.296-1.959-4.849 4.247-1.716 1.959 4.849zm5.141 9.671-2.615-4.529 3.966-2.29 2.615 4.529zm6.44 8.857-3.22-4.121 3.609-2.82 3.22 4.121zm7.605 7.89-3.762-3.633 3.182-3.295 3.762 3.633zm8.63 6.753-4.231-3.074 2.692-3.705 4.231 3.074zm9.488 5.475-4.618-2.455 2.15-4.044 4.618 2.455zm10.15 4.105-4.915-1.789 1.566-4.304 4.915 1.789zm10.623 2.645-5.116-1.087.952-4.48 5.116 1.087zm10.903 1.154-5.217-.365.319-4.569 5.217.365zm10.94-.383-5.217.365-.319-4.569 5.217-.365zm10.791-1.893-5.116 1.087-.952-4.48 5.116-1.087zm10.416-3.387-4.915 1.789-1.566-4.304 4.915-1.789zm9.848-4.795-4.618 2.455-2.15-4.044 4.618-2.455zm9.081-6.131-4.231 3.074-2.692-3.705 4.231-3.074zm8.14-7.324-3.762 3.633-3.182-3.295 3.762-3.633zm7.049-8.394-3.22 4.121-3.609-2.82 3.22-4.121zm5.808-9.282-2.615 4.529-3.966-2.29 2.615-4.529zm4.451-10.007-1.959 4.849-4.247-1.716 1.959-4.849zm3.026-10.525-1.265 5.075-4.444-1.108 1.265-5.075zm1.521-10.844-.547 5.201-4.555-.479.547-5.201zm.01-10.967.183 5.227-4.577.16-.183-5.227zm-1.532-10.834.908 5.151-4.51.795-.908-5.151zm-3.008-10.54 1.616 4.974-4.356 1.415-1.616-4.974zm-6.284-3.29-2.29-4.7 2.02-.99 2.1-1.02 2.29 4.7-4.12 2.01z"/><path d="M200.81 33.53c17.77.48 33.55 7.89 46.07 18.64" class="L M O P"/><path stroke-width="4.3" d="m247.5 51.08 2.67 2.39c5.94 5.58 12.51 13.48 16.42 20.69" class="L M P"/></g><g class="S"><path d="M32.96 265.38h3.08c1.99 0 3.43.65 3.43 2.48 0 1.37-.88 2.18-2.22 2.47l2.52 3.85h-1.4l-2.38-3.73h-1.77v3.73h-1.25v-8.8zm2.89 4.17c1.54 0 2.38-.55 2.38-1.69s-.84-1.57-2.38-1.57H34.2v3.26h1.65zm4.96 1.38c0-2.11 1.59-3.43 3.28-3.43 1.85 0 2.89 1.2 2.89 3.06a4.7 4.7 0 0 1-.05.62h-4.9c.08 1.39 1.03 2.28 2.41 2.28.71 0 1.28-.19 1.82-.52l.44.72c-.64.37-1.42.67-2.41.67-1.93 0-3.48-1.26-3.48-3.41zm5.1-.54c0-1.31-.67-2.01-1.81-2.01-1.03 0-1.94.74-2.09 2.01h3.89z"/><use xlink:href="#O"/><path d="M55.78 270.93c0-2.17 1.65-3.43 3.51-3.43.95 0 1.61.36 2.13.77l-.63.72c-.43-.34-.87-.58-1.45-.58-1.33 0-2.29 1.02-2.29 2.52s.91 2.49 2.25 2.49c.67 0 1.26-.28 1.71-.65l.54.73a3.77 3.77 0 0 1-2.36.83c-1.93 0-3.41-1.25-3.41-3.41z"/><use xlink:href="#P"/><path d="M71.3 265.38h1.28l3.57 5.55 1.04 1.81h.07l-.16-2.78v-4.58h1.18v8.8h-1.27l-3.57-5.55-1.06-1.81h-.05l.15 2.75v4.62H71.3v-8.8z"/><use xlink:href="#O" x="32.08"/><path d="M88.62 272.17v-3.61h-1.08v-.83l1.14-.06.15-1.83h1.02v1.83h1.97v.89h-1.97v3.63c0 .8.28 1.26 1.12 1.26a2.67 2.67 0 0 0 .83-.17l.24.82c-.41.12-.9.24-1.34.24-1.55 0-2.07-.88-2.07-2.17zm4.63-6.58c0-.42.33-.71.82-.71s.82.29.82.71c0 .44-.33.73-.82.73s-.82-.29-.82-.73zm.2 2.07h1.22v6.51h-1.22v-6.51zm2.63.01h1.27l1.36 3.71.68 1.92h.05l.67-1.92 1.38-3.71h1.2l-2.58 6.51h-1.42l-2.62-6.51zm7.48 3.26c0-2.11 1.59-3.43 3.28-3.43 1.85 0 2.89 1.2 2.89 3.06a4.7 4.7 0 0 1-.05.62h-4.9c.08 1.39 1.03 2.28 2.41 2.28a3.32 3.32 0 0 0 1.82-.52l.44.72c-.64.37-1.42.67-2.41.67-1.93 0-3.48-1.26-3.48-3.41zm5.1-.54c0-1.31-.67-2.01-1.81-2.01-1.03 0-1.94.74-2.09 2.01h3.89z"/></g><use xlink:href="#D" x="1" y="245"/><g class="L P"><use xlink:href="#Q" class="M Q"/><use xlink:href="#Q" class="N O"/></g><g class="S"><path d="M226.18 289.16h2.46c3.01 0 4.63 1.58 4.63 4.38s-1.62 4.43-4.58 4.43h-2.52v-8.8Zm2.36 7.89c2.31 0 3.45-1.3 3.45-3.51s-1.14-3.47-3.45-3.47h-1.11v6.98h1.11Z"/><use xlink:href="#R"/><path d="M242.82 291.45h1l.11 1.19h.04c.51-.83 1.24-1.36 2.06-1.36.32 0 .55.04.78.14l-.23.96c-.24-.08-.42-.11-.71-.11-.6 0-1.35.38-1.83 1.5v4.19h-1.22v-6.51z"/><use xlink:href="#P" x="184.87" y="23.78"/></g><g class="L P"><use xlink:href="#S" class="M Q"/><use xlink:href="#S" class="N O"/></g><g class="S"><path d="M42.95 325.76c0-2.84 1.9-4.57 4.5-4.57 1.37 0 2.26.55 2.82 1.09l-.67.72c-.5-.47-1.12-.84-2.13-.84-1.97 0-3.25 1.37-3.25 3.56s1.16 3.61 3.28 3.61c.7 0 1.38-.19 1.77-.52v-2.3H47.2v-.92h3.21v3.69c-.63.59-1.71 1.02-3.04 1.02-2.57 0-4.42-1.69-4.42-4.55zm9.68-2.12h1l.11 1.19h.04c.51-.83 1.24-1.36 2.06-1.36.32 0 .55.04.78.14l-.23.96a1.96 1.96 0 0 0-.71-.11c-.6 0-1.35.38-1.83 1.5v4.19h-1.22v-6.51z"/><use xlink:href="#R" x="-177.45" y="32.19"/><path d="M65.37 323.64h1l.11.74h.04c.66-.48 1.47-.91 2.31-.91 1.87 0 2.89 1.32 2.89 3.32 0 2.23-1.49 3.51-3.16 3.51-.66 0-1.35-.28-2.01-.76l.03 1.14v2.21h-1.22v-9.26zm5.08 3.17c0-1.44-.54-2.41-1.91-2.41-.62 0-1.24.31-1.95.9v3.42c.66.5 1.3.68 1.78.68 1.2 0 2.09-.97 2.09-2.59zm3.22-6.21h1.22v2.61l-.04 1.34c.67-.6 1.42-1.09 2.41-1.09 1.53 0 2.22.89 2.22 2.55v4.13h-1.22v-3.98c0-1.22-.41-1.74-1.38-1.74-.75 0-1.26.34-1.99 1v4.73h-1.22v-9.55zm11.26 9.67c-2.14-.26-3.59-1.97-3.59-4.55 0-2.82 1.73-4.53 4.19-4.53s4.19 1.71 4.19 4.53c0 2.53-1.39 4.21-3.47 4.53.44.78 1.35 1.17 2.41 1.17.44 0 .78-.06 1.03-.13l.24.86c-.29.1-.82.19-1.41.19-1.81 0-3.05-.88-3.6-2.09zm3.52-4.55c0-2.21-1.16-3.56-2.92-3.56s-2.92 1.35-2.92 3.56 1.15 3.67 2.92 3.67 2.92-1.43 2.92-3.67zm3.39-4.37h1.25v7.86h4.28v.95h-5.53v-8.8z"/></g><use xlink:href="#D" y="301"/><g class="L P"><use xlink:href="#T" class="M Q"/><use xlink:href="#T" class="N O"/></g><use xlink:href="#U"/><use xlink:href="#V"/><use xlink:href="#W"/><use xlink:href="#X"/><use xlink:href="#Y"/><g class="S"><use xlink:href="#U"/><use xlink:href="#V"/><use xlink:href="#W"/><use xlink:href="#X"/><use xlink:href="#Y"/></g><use xlink:href="#C" x="168" y="326"/><g class="L P"><use xlink:href="#Z" class="M Q"/><use xlink:href="#Z" class="N O"/></g><g class="S"><path d="m55.81 385.5.88-.56c.44.7.99.98 1.7.98 1.06 0 1.58-.54 1.58-1.87v-6.12h1.23v6.22c0 1.51-.78 2.73-2.69 2.73-1.24 0-2.13-.48-2.7-1.39z"/><use xlink:href="#O" x="14.97" y="112.56"/><path d="M70.24 380.23h1.27l1.37 3.71.68 1.92h.05l.67-1.92 1.38-3.71h1.2l-2.58 6.51h-1.42l-2.62-6.51zm7.58 4.82c0-1.42 1.38-2.12 4.47-2.43 0-.84-.31-1.64-1.5-1.64-.84 0-1.61.35-2.18.7l-.48-.76c.67-.38 1.7-.85 2.86-.85 1.77 0 2.52 1.07 2.52 2.67v4.01h-1l-.11-.78h-.04c-.7.52-1.51.94-2.41.94-1.22 0-2.13-.67-2.13-1.85zm4.47.11v-1.82c-2.45.26-3.28.8-3.28 1.64 0 .74.56 1.04 1.29 1.04s1.28-.3 1.99-.86z"/></g><g class="L P"><use xlink:href="#a" class="M Q"/><use xlink:href="#a" class="N O"/></g><use xlink:href="#b"/><use xlink:href="#c"/><use xlink:href="#Y" x="-13.11" y="56.02"/><use xlink:href="#d"/><use xlink:href="#W" x="4.15" y="56.03"/><use xlink:href="#e"/><g class="S"><use xlink:href="#b"/><use xlink:href="#c"/><use xlink:href="#Y" x="-13.11" y="56.02"/><use xlink:href="#d"/><use xlink:href="#W" x="4.15" y="56.03"/><use xlink:href="#e"/></g><use xlink:href="#C" x="168" y="382"/><g class="L P"><use xlink:href="#f" class="M Q"/><use xlink:href="#f" class="N O"/></g></svg>