<svg xmlns="http://www.w3.org/2000/svg" xmlns:xlink="http://www.w3.org/1999/xlink" viewBox="0 0 308 469"><style>.L{fill:none}.M{stroke:#0ff}.N{stroke:#fff}.O{stroke-width:2}.P{stroke-miterlimit:10}.Q{stroke-width:3}.R{opacity:.8}.S{fill:#fff}.T{stroke-linecap:round}.U{stroke-linejoin:round}.V{stroke-width:6}</style><defs><path id="B" d="M45.36 97.13h4.04l3.11 8.56 1.11 3.5h.12l1.11-3.5 3.03-8.56h4.04v18.27h-3.33v-7.62c0-1.73.27-4.27.47-5.99h-.12l-1.48 4.29-2.81 7.67h-2.1l-2.84-7.67-1.45-4.29h-.1l.47 5.99v7.62h-3.28V97.13z"/><path id="C" d="M66.41 111.65c0-2.96 2.39-4.51 7.96-5.1-.07-1.36-.67-2.39-2.37-2.39-1.28 0-2.52.57-3.8 1.31l-1.31-2.39c1.63-1.01 3.6-1.83 5.77-1.83 3.5 0 5.3 2.1 5.3 6.09v8.06H75l-.25-1.48h-.1c-1.21 1.04-2.59 1.83-4.17 1.83-2.47 0-4.09-1.75-4.09-4.09zm7.96-.1v-2.79c-3.38.42-4.51 1.36-4.51 2.59 0 1.08.76 1.55 1.82 1.55s1.8-.49 2.69-1.36z"/><path id="D" d="M82.66 101.59h2.96l.27 2.44h.07c1.01-1.8 2.49-2.79 3.92-2.79.76 0 1.21.12 1.63.3l-.62 3.13a4.54 4.54 0 0 0-1.45-.22c-1.08 0-2.39.71-3.16 2.71v8.24h-3.62v-13.81z"/><path id="E" d="M94.4 95.72h3.58v11.81h.1l4.71-5.94h3.97l-4.73 5.7 5.18 8.11h-3.92l-3.35-5.72-1.95 2.22v3.5h-3.58V95.72z"/><path id="F" d="M109.44 108.5c0-4.46 3.16-7.25 6.44-7.25 3.8 0 5.77 2.79 5.77 6.58 0 .69-.07 1.36-.17 1.68h-8.51c.3 2.27 1.78 3.45 3.82 3.45 1.13 0 2.12-.34 3.11-.96l1.23 2.22c-1.36.94-3.11 1.53-4.81 1.53-3.87 0-6.88-2.69-6.88-7.25zm9.1-1.41c0-1.85-.84-3.03-2.61-3.03-1.45 0-2.74 1.04-3.01 3.03h5.62z"/><path id="G" d="M126.13 110.57v-6.12h-1.95v-2.69l2.15-.17.42-3.72h3.01v3.72h3.4v2.86h-3.4v6.12c0 1.58.64 2.32 1.87 2.32.44 0 .99-.15 1.36-.29l.59 2.64c-.74.25-1.7.52-2.91.52-3.28 0-4.54-2.1-4.54-5.18z"/><path id="H" d="M136.66 97.38c0-1.18.86-1.97 2.12-1.97s2.1.79 2.1 1.97-.86 2-2.1 2-2.12-.79-2.12-2zm.3 4.22h3.62v13.81h-3.62V101.6z"/><path id="I" d="M145.43 101.59h2.96l.27 1.82h.07c1.21-1.18 2.61-2.17 4.49-2.17 2.98 0 4.27 2.07 4.27 5.55v8.61h-3.62v-8.16c0-2.14-.59-2.88-1.95-2.88-1.13 0-1.85.54-2.86 1.55v9.49h-3.62v-13.81z"/><path id="J" d="M161.31 117.84c0-1.16.72-2.15 1.97-2.86v-.12c-.72-.47-1.26-1.18-1.26-2.32 0-1.04.72-2 1.55-2.59v-.1c-.96-.69-1.85-2-1.85-3.62 0-3.23 2.64-4.98 5.57-4.98.76 0 1.5.15 2.07.35h4.98v2.66H172c.35.47.62 1.23.62 2.1 0 3.11-2.37 4.69-5.33 4.69-.54 0-1.18-.12-1.78-.32-.37.32-.59.62-.59 1.18 0 .74.54 1.13 2.17 1.13h2.34c3.33 0 5.15 1.04 5.15 3.45 0 2.79-2.91 4.91-7.52 4.91-3.25 0-5.77-1.11-5.77-3.55zm9.81-.74c0-.99-.81-1.23-2.29-1.23h-1.68c-.84 0-1.43-.07-1.92-.2-.62.49-.89 1.04-.89 1.6 0 1.16 1.28 1.83 3.28 1.83s3.5-.91 3.5-2zm-1.65-10.87c0-1.6-.94-2.51-2.17-2.51s-2.17.91-2.17 2.51.96 2.56 2.17 2.56 2.17-.91 2.17-2.56z"/><path id="K" d="M39.92 173.47c-15.83-17.08-25.51-39.94-25.51-65.07 0-29.12 13-55.2 33.51-72.76"/><path id="L" d="M129.76 202.13a95.964 95.964 0 0 1-19.6 2.01c-17.26 0-33.45-4.57-47.43-12.56"/><path id="M" d="M190.71 56.63c9.61 14.93 15.19 32.69 15.19 51.77 0 23.08-8.17 44.25-21.77 60.78"/><path id="N" d="M85.25 15.93a96 96 0 0 1 24.9-3.27c19.83 0 38.25 6.03 53.53 16.35"/><path id="O" d="M121.55 289.74H11.25v-31.41l8-8h110.3v31.41l-8 8Z"/><path id="P" d="M36.95 264.03c0-2.11 1.59-3.43 3.28-3.43 1.85 0 2.89 1.2 2.89 3.06a4.7 4.7 0 0 1-.05.62h-4.9c.08 1.39 1.03 2.28 2.41 2.28.71 0 1.28-.19 1.82-.52l.44.72c-.64.37-1.42.67-2.41.67-1.93 0-3.48-1.26-3.48-3.41zm5.1-.54c0-1.31-.67-2.01-1.81-2.01-1.03 0-1.94.74-2.09 2.01h3.89z"/><path id="Q" d="M45.45 260.77h1l.11 1.19h.04c.51-.83 1.24-1.36 2.06-1.36.32 0 .55.04.78.14l-.23.96a1.96 1.96 0 0 0-.71-.11c-.6 0-1.35.38-1.83 1.5v4.19h-1.22v-6.51z"/><path id="R" d="M55.52 264.03c0-2.17 1.59-3.43 3.37-3.43s3.37 1.26 3.37 3.43-1.59 3.41-3.37 3.41-3.37-1.25-3.37-3.41zm5.49 0c0-1.5-.86-2.52-2.11-2.52s-2.1 1.02-2.1 2.52.84 2.49 2.1 2.49 2.11-1 2.11-2.49z"/><path id="S" d="M70.44 260.77h1l.11.95h.04c.63-.62 1.39-1.12 2.26-1.12 1.11 0 1.71.48 2.01 1.25.75-.73 1.51-1.25 2.4-1.25 1.5 0 2.21.89 2.21 2.55v4.13h-1.22v-3.98c0-1.22-.43-1.74-1.35-1.74-.56 0-1.15.32-1.83 1v4.73h-1.22v-3.98c0-1.22-.43-1.74-1.35-1.74-.55 0-1.16.32-1.83 1v4.73h-1.22v-6.51z"/><path id="T" d="M82.92 265.59c0-1.42 1.38-2.12 4.47-2.43 0-.84-.31-1.64-1.5-1.64-.84 0-1.61.35-2.18.7l-.48-.76c.67-.38 1.7-.85 2.86-.85 1.77 0 2.52 1.07 2.52 2.67v4.01h-1l-.11-.78h-.04c-.7.52-1.51.94-2.41.94-1.22 0-2.13-.67-2.13-1.85zm4.47.11v-1.82c-2.45.26-3.28.8-3.28 1.64 0 .74.56 1.04 1.28 1.04s1.28-.3 1.99-.86z"/><path id="U" d="M91.46 260.77h1l.11.94h.04c.7-.61 1.45-1.1 2.44-1.1 1.53 0 2.22.89 2.22 2.55v4.13h-1.22v-3.98c0-1.22-.41-1.74-1.38-1.74-.75 0-1.26.34-1.99 1v4.73h-1.22v-6.51z"/><path id="V" d="M99.63 264.03c0-2.17 1.65-3.43 3.51-3.43.95 0 1.61.36 2.13.77l-.63.72c-.43-.34-.87-.58-1.45-.58-1.32 0-2.29 1.02-2.29 2.52s.91 2.49 2.25 2.49c.67 0 1.26-.28 1.71-.65l.54.73a3.77 3.77 0 0 1-2.36.83c-1.93 0-3.41-1.25-3.41-3.41z"/><path id="W" d="M58.4 274.24h1l.11 1.19h.04c.51-.83 1.24-1.36 2.06-1.36.32 0 .55.04.78.14l-.23.96a1.96 1.96 0 0 0-.71-.11c-.6 0-1.35.38-1.83 1.5v4.19H58.4v-6.51z"/><path id="X" d="M80.22 278.73v-3.61h-1.08v-.83l1.14-.06.15-1.83h1.02v1.83h1.97v.89h-1.97v3.63c0 .8.28 1.26 1.12 1.26a2.67 2.67 0 0 0 .83-.17l.24.82c-.41.12-.9.24-1.34.24-1.55 0-2.07-.88-2.07-2.17z"/><path id="Y" d="M85.39 272.16c0-.42.33-.71.82-.71s.82.29.82.71c0 .44-.33.73-.82.73s-.82-.29-.82-.73zm.2 2.07h1.22v6.51h-1.22v-6.51z"/><path id="Z" d="M89.81 274.24h1l.11.94h.04c.7-.61 1.45-1.1 2.44-1.1 1.53 0 2.22.89 2.22 2.55v4.13H94.4v-3.98c0-1.22-.41-1.74-1.38-1.74-.75 0-1.26.34-1.99 1v4.73h-1.22v-6.51z"/><path id="a" d="M97.97 282c0-.55.39-1.08 1.07-1.47v-.05c-.39-.2-.67-.55-.67-1.07s.44-.97.82-1.21v-.05c-.48-.35-.95-.97-.95-1.75 0-1.43 1.26-2.33 2.73-2.33.4 0 .76.08 1.02.17h2.53v.84h-1.49c.35.3.59.78.59 1.34 0 1.39-1.18 2.27-2.65 2.27a2.65 2.65 0 0 1-1.08-.23c-.27.2-.47.42-.47.78 0 .42.29.71 1.27.71h1.42c1.69 0 2.54.48 2.54 1.55 0 1.21-1.43 2.25-3.68 2.25-1.78 0-3-.62-3-1.75zm5.49-.34c0-.6-.52-.8-1.49-.8h-1.26a4.69 4.69 0 0 1-.94-.11c-.52.34-.74.72-.74 1.1 0 .7.79 1.15 2.1 1.15 1.39 0 2.32-.66 2.32-1.34zm-.94-5.26c0-.95-.7-1.52-1.55-1.52s-1.55.56-1.55 1.52.71 1.55 1.55 1.55 1.55-.6 1.55-1.55z"/><path id="b" d="M121.55 345.71H11.25V314.3l8-8h110.3v31.41l-8 8z"/><path id="c" d="M121.55 402.1H11.25v-31.41l8-8h110.3v31.41l-8 8z"/><path id="d" d="M65.45 378.35v-8.25h1.22v8.32c0 .34.16.47.35.47.07 0 .12 0 .25-.02l.17.84c-.17.06-.37.1-.71.1-.91 0-1.28-.53-1.28-1.45z"/><path id="e" d="M288.16 312.71h-110.3v-20.46l8-8h110.3v20.46l-8 8Z"/><path id="f" d="M189.05 351.47h2.52c3.08 0 4.73 1.58 4.73 4.38s-1.65 4.43-4.68 4.43h-2.57v-8.8Zm2.41 7.89c2.37 0 3.53-1.3 3.53-3.51s-1.16-3.47-3.53-3.47h-1.13v6.98h1.13Z"/><path id="g" d="M198.13 351.68c0-.42.34-.71.83-.71s.83.29.83.71c0 .44-.34.73-.83.73s-.83-.29-.83-.73zm.21 2.07h1.24v6.51h-1.24v-6.51z"/><path id="h" d="M201.53 361.52c0-.55.4-1.08 1.09-1.47V360c-.4-.2-.68-.55-.68-1.07s.45-.97.83-1.21v-.05c-.49-.35-.97-.97-.97-1.75 0-1.43 1.29-2.33 2.79-2.33.41 0 .78.08 1.04.17h2.58v.84h-1.52c.36.3.6.78.6 1.34 0 1.39-1.2 2.27-2.71 2.27-.37 0-.78-.08-1.11-.23-.27.2-.48.42-.48.78 0 .42.3.71 1.3.71h1.45c1.72 0 2.6.48 2.6 1.55 0 1.21-1.46 2.25-3.76 2.25-1.82 0-3.06-.62-3.06-1.75zm5.61-.34c0-.6-.53-.8-1.52-.8h-1.29a4.96 4.96 0 0 1-.96-.11c-.53.34-.75.72-.75 1.1 0 .7.81 1.15 2.15 1.15 1.42 0 2.37-.66 2.37-1.34zm-.96-5.26c0-.95-.71-1.52-1.59-1.52s-1.59.56-1.59 1.52.72 1.55 1.59 1.55 1.59-.6 1.59-1.55z"/><path id="i" d="M213.77 358.26v-3.61h-1.11v-.83l1.16-.06.15-1.83h1.04v1.83h2.01v.89h-2.01v3.63c0 .8.29 1.26 1.15 1.26.26 0 .6-.08.85-.17l.25.82c-.42.12-.92.24-1.37.24-1.59 0-2.12-.88-2.12-2.17z"/><path id="j" d="M218.24 358.58c0-1.42 1.41-2.12 4.57-2.43 0-.84-.31-1.64-1.53-1.64-.86 0-1.64.35-2.23.7l-.49-.76c.68-.38 1.74-.85 2.93-.85 1.8 0 2.57 1.07 2.57 2.67v4.01h-1.03l-.11-.78h-.04c-.71.52-1.54.94-2.46.94-1.24 0-2.17-.67-2.17-1.85zm4.57.11v-1.82c-2.5.26-3.35.8-3.35 1.64 0 .74.57 1.04 1.31 1.04s1.31-.3 2.04-.86z"/><path id="k" d="M226.41 358.98v-8.25h1.24v8.32c0 .34.16.47.36.47.07 0 .12 0 .26-.02l.18.84c-.18.06-.38.1-.72.1-.93 0-1.31-.53-1.31-1.45z"/><path id="l" d="m232.75 359.12.77-.76a4.13 4.13 0 0 0 2.76 1.09c1.31 0 2.11-.58 2.11-1.44s-.72-1.19-1.67-1.56l-1.45-.55c-.93-.35-2.04-.97-2.04-2.25 0-1.36 1.34-2.34 3.16-2.34 1.19 0 2.24.44 2.95 1.09l-.67.71c-.62-.5-1.35-.83-2.28-.83-1.13 0-1.87.5-1.87 1.29 0 .85.88 1.18 1.65 1.46l1.44.54c1.16.44 2.06 1.04 2.06 2.35 0 1.39-1.31 2.5-3.4 2.5-1.42 0-2.64-.5-3.51-1.31z"/><path id="m" d="M241.75 358.26v-3.61h-1.11v-.83l1.16-.06.15-1.83h1.04v1.83H245v.89h-2.01v3.63c0 .8.29 1.26 1.15 1.26.26 0 .6-.08.85-.17l.25.82c-.42.12-.92.24-1.37.24-1.59 0-2.12-.88-2.12-2.17z"/><path id="n" d="M246.68 353.76h1.03l.11 1.19h.04c.52-.83 1.27-1.36 2.11-1.36.33 0 .56.04.79.14l-.23.96c-.25-.08-.42-.11-.72-.11-.62 0-1.38.38-1.87 1.5v4.19h-1.24v-6.51z"/><path id="o" d="M264.29 357.02c0-2.11 1.63-3.43 3.35-3.43 1.89 0 2.95 1.2 2.95 3.06a4.7 4.7 0 0 1-.05.62h-5c.08 1.39 1.05 2.28 2.46 2.28.72 0 1.31-.19 1.86-.52l.45.72c-.66.37-1.45.67-2.46.67-1.97 0-3.55-1.26-3.55-3.41zm5.21-.54c0-1.31-.68-2.01-1.85-2.01-1.05 0-1.98.74-2.13 2.01h3.98z"/><path id="p" d="m279.37 362.95.25-.88a1.92 1.92 0 0 0 .56.11c.85 0 1.38-.6 1.68-1.4l.16-.49-2.98-6.52h1.3l1.52 3.62.71 1.82h.07l.63-1.82 1.33-3.62h1.22l-2.8 7.05c-.51 1.28-1.29 2.27-2.76 2.27-.36 0-.64-.05-.88-.13z"/><path id="q" d="M288.7 370.33H176.96v-20.21l8-8H296.7v20.21l-8 8z"/><path id="r" d="M137.88 424.5h2.98c2.04 0 3.45.61 3.45 2.16 0 .88-.53 1.64-1.46 1.91v.06c1.19.2 2.04.9 2.04 2.1 0 1.73-1.56 2.58-3.8 2.58h-3.2v-8.8zm2.76 3.75c1.72 0 2.42-.56 2.42-1.45 0-1.03-.81-1.42-2.37-1.42h-1.54v2.87h1.49zm.26 4.16c1.72 0 2.73-.54 2.73-1.73 0-1.09-.98-1.6-2.73-1.6h-1.75v3.32h1.75z"/><path id="s" d="M146.65 430.91v-4.13h1.24v3.99c0 1.21.41 1.73 1.39 1.73.77 0 1.3-.32 2.01-1.1v-4.62h1.24v6.51h-1.04l-.1-1.02h-.04c-.7.71-1.44 1.18-2.46 1.18-1.56 0-2.26-.89-2.26-2.54z"/><path id="t" d="m154.21 432.56.62-.72c.64.46 1.31.77 2.2.77.98 0 1.46-.46 1.46-1.02 0-.67-.88-.96-1.7-1.24-1.04-.34-2.17-.78-2.17-1.88 0-1.03.96-1.85 2.57-1.85.92 0 1.72.34 2.3.73l-.6.71c-.51-.34-1.03-.58-1.68-.58-.94 0-1.38.43-1.38.94 0 .62.77.85 1.6 1.13 1.08.36 2.27.74 2.27 1.98 0 1.06-.96 1.93-2.71 1.93a4.88 4.88 0 0 1-2.78-.9z"/><path id="u" d="M165.2 426.79h1.03l.11.94h.04c.71-.61 1.48-1.1 2.49-1.1 1.56 0 2.27.89 2.27 2.55v4.13h-1.24v-3.98c0-1.22-.42-1.74-1.41-1.74-.77 0-1.29.34-2.04 1v4.73h-1.24v-6.51z"/><path id="v" d="M196.45 430.05c0-2.11 1.52-3.43 3.21-3.43.88 0 1.44.29 2.09.77l-.05-1.13v-2.51h1.23v9.55h-1.01l-.11-.77h-.04c-.59.5-1.37.92-2.26.92-1.86 0-3.06-1.24-3.06-3.41zm5.25 1.59v-3.42c-.64-.49-1.2-.68-1.82-.68-1.2 0-2.15 1.01-2.15 2.5 0 1.57.74 2.51 2.05 2.51.68 0 1.29-.3 1.91-.9z"/><path id="w" d="M211.96 426.79h1.3l1.39 3.71.7 1.92h.05l.68-1.92 1.41-3.71h1.23l-2.64 6.51h-1.45l-2.68-6.51z"/><path id="x" d="M231.07 430.05c0-2.17 1.63-3.43 3.45-3.43s3.45 1.26 3.45 3.43-1.63 3.41-3.45 3.41-3.45-1.25-3.45-3.41zm5.61 0c0-1.5-.88-2.52-2.16-2.52s-2.15 1.02-2.15 2.52.86 2.49 2.15 2.49 2.16-1 2.16-2.49z"/><path id="y" d="M239.91 426.79h1.03l.11.74h.04c.67-.48 1.5-.91 2.37-.91 1.91 0 2.95 1.32 2.95 3.32 0 2.23-1.52 3.51-3.23 3.51-.67 0-1.38-.28-2.05-.76l.03 1.14v2.21h-1.24v-9.26zm5.2 3.17c0-1.44-.55-2.41-1.96-2.41-.63 0-1.27.31-2 .9v3.42c.67.5 1.33.68 1.82.68 1.23 0 2.13-.97 2.13-2.59z"/><path id="z" d="M248.39 426.79h1.03l.11.95h.04c.64-.62 1.42-1.12 2.31-1.12 1.13 0 1.75.48 2.05 1.25.77-.73 1.54-1.25 2.45-1.25 1.53 0 2.26.89 2.26 2.55v4.13h-1.24v-3.98c0-1.22-.44-1.74-1.38-1.74-.57 0-1.18.32-1.87 1v4.73h-1.24v-3.98c0-1.22-.44-1.74-1.38-1.74-.56 0-1.19.32-1.87 1v4.73h-1.24v-6.51z"/><path id="AA" d="M288.52 457.71H120.86V423.4l8-8h167.66v34.31l-8 8z"/></defs><g class="L P"><path d="m154.42 232.6-22.6-.18-21.51-27.7" class="M O"/><path d="m154.42 232.6-22.6-.18-21.51-27.7" class="N"/></g><g class="L P"><path d="M154.42 414.4V231.73" class="M O"/><path d="M154.42 414.4V231.73" class="N"/></g><g class="L P"><path d="M176.76 358.43h-22.34" class="M O"/><path d="M176.76 358.43h-22.34" class="N"/></g><g class="L P"><path d="M177.91 301.45h-23.8" class="M O"/><path d="M177.91 301.45h-23.8" class="N"/></g><use xlink:href="#A" x="126" y="266" class="R"/><g class="L P"><path d="M153.35 270.04h-23.8" class="M O"/><path d="M153.35 270.04h-23.8" class="N"/></g><use xlink:href="#A" x="126" y="322" class="R"/><g class="L P"><path d="M153.35 326.01h-23.8" class="M O"/><path d="M153.35 326.01h-23.8" class="N"/></g><use xlink:href="#A" x="126" y="378" class="R"/><g class="L P"><path d="M153.35 382.39h-23.8" class="M O"/><path d="M153.35 382.39h-23.8" class="N"/></g><use xlink:href="#B"/><use xlink:href="#C"/><use xlink:href="#D"/><use xlink:href="#E"/><use xlink:href="#F"/><use xlink:href="#G"/><use xlink:href="#H"/><use xlink:href="#I"/><use xlink:href="#J"/><g class="S"><use xlink:href="#B"/><use xlink:href="#C"/><use xlink:href="#D"/><use xlink:href="#E"/><use xlink:href="#F"/><use xlink:href="#G"/><use xlink:href="#H"/><use xlink:href="#I"/><use xlink:href="#J"/></g><g class="L"><circle cx="110.12" cy="108.62" r="84.46" class="M O"/><circle cx="110.12" cy="108.62" r="84.46" class="N"/></g><g class="L"><circle cx="110.31" cy="108.61" r="95.74" class="M O"/><circle cx="110.31" cy="108.61" r="95.74" class="N"/></g><g class="L T U"><use xlink:href="#K" class="M V"/><use xlink:href="#K" class="N Q"/></g><g class="L T U"><use xlink:href="#L" class="M V"/><use xlink:href="#L" class="N Q"/></g><g class="L T U"><use xlink:href="#M" class="M V"/><use xlink:href="#M" class="N Q"/></g><g class="L T U"><use xlink:href="#N" class="M V"/><use xlink:href="#N" class="N Q"/></g><g opacity=".2"><path fill="#0ff" d="M112.65 34.6h-5.23v-4.59h5.23v4.59zm-16.12-3.444 5.179-.728.637 4.535-5.179.728zm-10.635 2.643 5.027-1.442 1.262 4.403-5.027 1.442zm-10.161 4.102 4.778-2.127 1.863 4.184-4.778 2.127zm-9.48 5.47L70.69 40.6l2.427 3.884-4.435 2.771zm-8.636 6.742 4.006-3.362 2.944 3.508-4.006 3.362zm-7.621 7.882 3.5-3.887 3.404 3.065-3.5 3.887zm-6.426 8.87 2.925-4.336 3.797 2.561-2.925 4.336zm-5.147 9.666 2.293-4.701 4.116 2.008-2.293 4.701zm-3.746 10.295 1.616-4.974 4.356 1.415-1.616 4.974zm-2.29 10.707.908-5.151 4.51.795-.908 5.151zm-.766 10.933.183-5.227 4.577.16-.183 5.227zm.76 10.916-.547-5.201 4.555-.479.547 5.201zm2.285 10.715-1.265-5.075 4.444-1.108 1.265 5.075zm3.742 10.298-1.959-4.849 4.247-1.716 1.959 4.849zm5.135 9.67-2.615-4.529 3.966-2.29 2.615 4.529zm6.445 8.866-3.22-4.121 3.609-2.82 3.22 4.121zm7.602 7.885-3.762-3.633 3.182-3.295 3.762 3.633zm8.63 6.744-4.231-3.074 2.692-3.705 4.231 3.074zm9.488 5.476-4.618-2.455 2.15-4.044 4.618 2.455zm10.141 4.108-4.915-1.789 1.566-4.304 4.915 1.789zm10.63 2.651-5.116-1.087.952-4.48 5.116 1.087zm10.897 1.152-5.217-.365.319-4.569 5.217.365zm10.951-.385-5.217.365-.319-4.569 5.217-.365zm10.786-1.895-5.116 1.087-.952-4.48 5.116-1.087zm10.42-3.391-4.915 1.789-1.566-4.304 4.915-1.789zm9.837-4.787-4.618 2.455-2.15-4.044 4.618-2.455zm9.09-6.125-4.231 3.074-2.692-3.705 4.231-3.074zm8.14-7.333-3.762 3.633-3.182-3.295 3.762-3.633zm7.042-8.389-3.22 4.121-3.609-2.82 3.22-4.121zm5.813-9.282-2.615 4.529-3.966-2.29 2.615-4.529zm4.446-10.008-1.959 4.849-4.247-1.716 1.959-4.849zm3.027-10.524-1.265 5.075-4.444-1.108 1.265-5.075zm1.527-10.854-.547 5.201-4.555-.479.547-5.201zm.006-10.947.183 5.227-4.577.16-.183-5.227zm-1.527-10.855.908 5.151-4.51.795-.908-5.151zm-3.013-10.529 1.616 4.974-4.356 1.415-1.616-4.974zm-6.282-3.293-2.29-4.7 2.03-.99 2.09-1.02 2.29 4.7-4.12 2.01z"/><path d="M112.49 33.53c17.77.48 33.55 7.89 46.07 18.64" class="L M O P"/><path stroke-width="4.3" d="m159.18 51.08 2.67 2.39c5.94 5.58 12.51 13.48 16.42 20.69" class="L M P"/></g><g class="L P"><use xlink:href="#O" class="M Q"/><use xlink:href="#O" class="N O"/></g><g class="S"><path d="M28.61 258.48h2.81c2.19 0 3.67.67 3.67 2.59s-1.46 2.72-3.61 2.72h-1.62v3.49h-1.24v-8.8zm2.7 4.41c1.73 0 2.54-.56 2.54-1.82s-.87-1.68-2.6-1.68h-1.41v3.5h1.46z"/><use xlink:href="#P"/><use xlink:href="#Q"/><path d="M51.38 261.66h-.99v-.83l.99-.06v-1.04c0-1.32.67-2.15 2.11-2.15.44 0 .88.08 1.22.22l-.27.83a2.23 2.23 0 0 0-.82-.17c-.7 0-1.03.44-1.03 1.28v1.03h1.54v.89h-1.54v5.62h-1.22v-5.62z"/><use xlink:href="#R"/><use xlink:href="#Q" x="19.26"/><use xlink:href="#S"/><use xlink:href="#T"/><use xlink:href="#U"/><use xlink:href="#V"/><use xlink:href="#P" x="70.03"/><use xlink:href="#S" x="-33.06" y="13.47"/><use xlink:href="#T" x="-33.06" y="13.47"/><use xlink:href="#W"/><path d="M64.13 271.2h1.2v6.48h.04l3.09-3.44h1.36l-2.42 2.63 2.74 3.89h-1.32l-2.13-3.14-1.36 1.43v1.71h-1.2v-9.55Z"/><use xlink:href="#P" x="34.56" y="13.47"/><use xlink:href="#X"/><use xlink:href="#Y"/><use xlink:href="#Z"/><use xlink:href="#a"/></g><g class="L P"><use xlink:href="#b" class="M Q"/><use xlink:href="#b" class="N O"/></g><g class="S"><path d="M37.98 314.45h1.24v8.8h-1.24v-8.8Z"/><use xlink:href="#U" x="-49.13" y="55.97"/><path d="M51.25 317.63h-.99v-.83l.99-.06v-1.04c0-1.32.67-2.15 2.11-2.15.44 0 .88.08 1.22.22l-.27.83a2.23 2.23 0 0 0-.82-.17c-.7 0-1.03.44-1.03 1.28v1.03H54v.89h-1.54v5.62h-1.22v-5.62zm4.15 4.33v-8.25h1.23v8.32c0 .34.16.47.33.47.07 0 .13 0 .27-.02l.16.84c-.17.06-.37.1-.7.1-.91 0-1.3-.53-1.3-1.45zm4.25-1.09v-4.13h1.22v3.99c0 1.21.4 1.73 1.36 1.73.75 0 1.27-.32 1.97-1.1v-4.62h1.22v6.51H64.4l-.09-1.02h-.04c-.68.71-1.41 1.18-2.41 1.18-1.53 0-2.21-.89-2.21-2.54z"/><use xlink:href="#P" x="30.91" y="55.97"/><use xlink:href="#U" x="-15.1" y="55.97"/><use xlink:href="#V" x="-15.1" y="55.97"/><use xlink:href="#P" x="54.93" y="55.97"/><use xlink:href="#Q" x="54.93" y="55.97"/><use xlink:href="#S" x="-33.06" y="69.44"/><use xlink:href="#T" x="-33.06" y="69.44"/><use xlink:href="#W" y="55.97"/><path d="M64.13 327.17h1.2v6.48h.04l3.09-3.44h1.36l-2.42 2.63 2.74 3.89h-1.32l-2.13-3.14-1.36 1.43v1.71h-1.2v-9.55Z"/><use xlink:href="#P" x="34.56" y="69.44"/><use xlink:href="#X" y="55.97"/><use xlink:href="#Y" y="55.97"/><use xlink:href="#Z" y="55.97"/><use xlink:href="#a" y="55.97"/></g><g class="L P"><use xlink:href="#c" class="M Q"/><use xlink:href="#c" class="N O"/></g><g class="S"><path d="m28.02 378.49.75-.76c.7.66 1.69 1.09 2.7 1.09 1.28 0 2.06-.58 2.06-1.44s-.71-1.19-1.63-1.56l-1.42-.55c-.91-.35-1.99-.97-1.99-2.25 0-1.36 1.31-2.34 3.09-2.34 1.16 0 2.19.44 2.89 1.09l-.66.71c-.6-.5-1.32-.83-2.23-.83-1.11 0-1.83.5-1.83 1.29 0 .85.86 1.18 1.62 1.46l1.41.54c1.14.44 2.02 1.04 2.02 2.35 0 1.39-1.28 2.5-3.33 2.5-1.39 0-2.58-.5-3.44-1.31z"/><use xlink:href="#R" x="-18.92" y="112.36"/><use xlink:href="#V" x="-54.38" y="112.36"/><use xlink:href="#Y" x="-32.44" y="98.89"/><use xlink:href="#T" x="-26.01" y="112.36"/><use xlink:href="#d"/><use xlink:href="#S" x="2.89" y="112.36"/><use xlink:href="#P" x="48.77" y="112.36"/><path d="M93.7 376.39c0-2.11 1.49-3.43 3.14-3.43.86 0 1.41.29 2.05.77l-.05-1.13v-2.51h1.2v9.55h-.99l-.11-.77h-.04c-.58.5-1.34.92-2.21.92-1.82 0-3-1.24-3-3.41zm5.14 1.59v-3.42c-.63-.49-1.18-.68-1.78-.68-1.18 0-2.1 1.01-2.1 2.49 0 1.57.72 2.51 2.01 2.51.67 0 1.26-.3 1.87-.9z"/><use xlink:href="#Y" x="17.46" y="98.89"/><use xlink:href="#T" x="23.9" y="112.36"/><use xlink:href="#S" x="-33.06" y="125.82"/><use xlink:href="#T" x="-33.06" y="125.83"/><use xlink:href="#W" y="112.35"/><path d="M64.13 383.56h1.2v6.48h.04l3.09-3.44h1.36l-2.42 2.63 2.74 3.89h-1.32l-2.13-3.14-1.36 1.43v1.71h-1.2v-9.55Z"/><use xlink:href="#P" x="34.56" y="125.83"/><use xlink:href="#X" y="112.36"/><use xlink:href="#Y" y="112.36"/><use xlink:href="#Z" y="112.35"/><use xlink:href="#a" y="112.35"/><path d="M194.87 294.77h-2.97v-.95h7.19v.95h-2.97v7.86h-1.24v-7.86Z"/><use xlink:href="#P" x="163.23" y="35.34"/><use xlink:href="#d" x="142.7" y="-77.02"/><use xlink:href="#P" x="174.46" y="35.34"/><use xlink:href="#S" x="148.94" y="35.34"/><use xlink:href="#T" x="148.4" y="35.34"/><use xlink:href="#Q" x="193.88" y="35.34"/><path d="M244.52 293.08h1.2v6.48h.04l3.09-3.44h1.36l-2.42 2.63 2.74 3.89h-1.32l-2.13-3.14-1.36 1.43v1.71h-1.2v-9.55Z"/><use xlink:href="#P" x="214.41" y="35.34"/><path d="M259.54 300.61V297h-1.08v-.83l1.14-.06.15-1.83h1.02v1.83h1.97v.89h-1.97v3.63c0 .8.28 1.26 1.12 1.26a2.67 2.67 0 0 0 .83-.17l.24.82c-.41.12-.9.24-1.34.24-1.55 0-2.07-.88-2.07-2.17z"/><use xlink:href="#Y" x="178.78" y="21.88"/><use xlink:href="#U" x="176.59" y="35.34"/><use xlink:href="#a" x="177.71" y="21.87"/></g><g class="L P"><use xlink:href="#e" class="M Q"/><use xlink:href="#e" class="N O"/></g><use xlink:href="#f"/><use xlink:href="#g"/><use xlink:href="#h"/><use xlink:href="#g" x="11.45"/><use xlink:href="#i"/><use xlink:href="#j"/><use xlink:href="#k"/><use xlink:href="#l"/><use xlink:href="#m"/><use xlink:href="#n"/><use xlink:href="#j" x="33.28"/><use xlink:href="#i" x="46.15"/><use xlink:href="#o"/><use xlink:href="#h" x="70.33"/><use xlink:href="#p"/><g class="S"><use xlink:href="#f"/><use xlink:href="#g"/><use xlink:href="#h"/><use xlink:href="#g" x="11.45"/><use xlink:href="#i"/><use xlink:href="#j"/><use xlink:href="#k"/><use xlink:href="#l"/><use xlink:href="#m"/><use xlink:href="#n"/><use xlink:href="#j" x="33.28"/><use xlink:href="#i" x="46.15"/><use xlink:href="#o"/><use xlink:href="#h" x="70.33"/><use xlink:href="#p"/></g><g class="L P"><use xlink:href="#q" class="M Q"/><use xlink:href="#q" class="N O"/></g><use xlink:href="#r"/><use xlink:href="#s"/><use xlink:href="#t"/><use xlink:href="#g" x="-36.89" y="73.03"/><use xlink:href="#u"/><use xlink:href="#o" x="-91.29" y="73.03"/><use xlink:href="#t" x="26.09"/><use xlink:href="#t" x="32.48"/><use xlink:href="#v"/><use xlink:href="#o" x="-59.39" y="73.03"/><use xlink:href="#w"/><use xlink:href="#o" x="-44.69" y="73.03"/><use xlink:href="#k" x="1.32" y="73.02"/><use xlink:href="#x"/><use xlink:href="#y"/><use xlink:href="#z"/><use xlink:href="#o" x="-3.8" y="73.03"/><use xlink:href="#u" x="103.42"/><use xlink:href="#i" x="63.42" y="73.03"/><use xlink:href="#j" x="-38.55" y="89.74"/><use xlink:href="#u" x="22.67" y="16.71"/><use xlink:href="#v" x="-.76" y="16.71"/><use xlink:href="#t" x="52.72" y="16.71"/><use xlink:href="#j" x="-4.55" y="89.74"/><use xlink:href="#k" x="-4.54" y="89.74"/><use xlink:href="#o" x="-39.09" y="89.74"/><use xlink:href="#t" x="78.29" y="16.71"/><g class="S"><use xlink:href="#r"/><use xlink:href="#s"/><use xlink:href="#t"/><use xlink:href="#g" x="-36.89" y="73.03"/><use xlink:href="#u"/><use xlink:href="#o" x="-91.29" y="73.03"/><use xlink:href="#t" x="26.09"/><use xlink:href="#t" x="32.48"/><use xlink:href="#v"/><use xlink:href="#o" x="-59.39" y="73.03"/><use xlink:href="#w"/><use xlink:href="#o" x="-44.69" y="73.03"/><use xlink:href="#k" x="1.32" y="73.02"/><use xlink:href="#x"/><use xlink:href="#y"/><use xlink:href="#z"/><use xlink:href="#o" x="-3.8" y="73.03"/><use xlink:href="#u" x="103.42"/><use xlink:href="#i" x="63.42" y="73.03"/><use xlink:href="#j" x="-38.55" y="89.74"/><use xlink:href="#u" x="22.67" y="16.71"/><use xlink:href="#v" x="-.76" y="16.71"/><use xlink:href="#t" x="52.72" y="16.71"/><use xlink:href="#j" x="-4.55" y="89.74"/><use xlink:href="#k" x="-4.54" y="89.74"/><use xlink:href="#o" x="-39.09" y="89.74"/><use xlink:href="#t" x="78.29" y="16.71"/></g><g class="L P"><use xlink:href="#AA" class="M Q"/><use xlink:href="#AA" class="N O"/></g></svg>