<svg xmlns="http://www.w3.org/2000/svg" xmlns:xlink="http://www.w3.org/1999/xlink" viewBox="0 0 303 498"><style>.L{fill:none}.M{stroke:#0ff}.N{stroke:#fff}.O{stroke-width:2}.P{stroke-miterlimit:10}.Q{stroke-width:3}.R{fill:#fff}.S{stroke-linecap:round}.T{stroke-linejoin:round}.U{stroke-width:6}</style><defs><path id="B" d="M123.19 250.37H97.42l-36.56-58.78 36.56 58.78 1.41 218.83h23.68"/><path id="C" d="M91.92 98.87h6.32c4.26 0 7.54 1.51 7.54 6.06s-3.3 6.37-7.44 6.37h-2.57v6.84h-3.85V98.87zm6.16 9.39c2.65 0 3.93-1.12 3.93-3.33s-1.4-2.99-4.06-2.99h-2.18v6.32h2.31z"/><path id="D" d="M110.31 98.87h6.71c4.03 0 7.23 1.43 7.23 5.85 0 2.89-1.46 4.68-3.67 5.54l4.5 7.88h-4.29l-3.95-7.28h-2.68v7.28h-3.85V98.87zm6.34 8.94c2.47 0 3.85-1.04 3.85-3.09s-1.38-2.78-3.85-2.78h-2.5v5.88h2.5z"/><path id="E" d="M38.06 173.47c-15.83-17.08-25.51-39.94-25.51-65.07 0-29.12 13-55.2 33.51-72.76"/><path id="F" d="M127.9 202.13a95.964 95.964 0 0 1-19.6 2.01c-17.26 0-33.45-4.57-47.43-12.56"/><path id="G" d="M188.85 56.63c9.61 14.93 15.19 32.69 15.19 51.77 0 23.08-8.17 44.25-21.77 60.78"/><path id="H" d="M83.39 15.93a96 96 0 0 1 24.9-3.27c19.83 0 38.25 6.03 53.53 16.35"/><path id="I" d="M233.16 259.87h-110.3v-20.46l8-8h110.3v20.46l-8 8z"/><path id="J" d="M150.87 287.79h1.41l1.14 5.2.64 3.08h.06l.79-3.08 1.5-5.2h1.26l1.51 5.2.77 3.08h.07l.62-3.08 1.14-5.2h1.32l-2.25 9.54h-1.64l-1.64-5.75-.53-2.17h-.06l-.55 2.17-1.62 5.75h-1.63l-2.3-9.54z"/><path id="K" d="M164.24 293.81c0-2.29 1.76-3.72 3.63-3.72 2.04 0 3.2 1.3 3.2 3.32a4.08 4.08 0 0 1-.06.68h-5.42c.09 1.51 1.14 2.47 2.67 2.47.79 0 1.42-.21 2.02-.56l.49.78c-.71.4-1.57.73-2.67.73-2.13 0-3.85-1.37-3.85-3.69zm5.65-.58c0-1.42-.74-2.18-2-2.18-1.14 0-2.15.81-2.31 2.18h4.31z"/><path id="L" d="M174.32 296.61h-.06l-.12.73h-1.08v-10.35h1.35v2.83l-.04 1.27c.73-.56 1.63-1 2.52-1 2.09 0 3.22 1.43 3.22 3.59 0 2.43-1.64 3.82-3.5 3.82-.74 0-1.59-.34-2.28-.9zm4.37-2.9c0-1.56-.59-2.61-2.12-2.61-.68 0-1.39.34-2.16.97v3.71c.71.55 1.44.74 1.97.74 1.33 0 2.31-1.05 2.31-2.81z"/><path id="M" d="M181.99 288.03c0-.46.37-.77.9-.77s.9.31.9.77c0 .48-.37.79-.9.79s-.9-.31-.9-.79zm.22 2.25h1.35v7.06h-1.35v-7.06z"/><path id="N" d="M186.28 290.28h1.11l.12 1.01h.04c.77-.66 1.6-1.2 2.7-1.2 1.69 0 2.46.96 2.46 2.77v4.47h-1.35v-4.32c0-1.33-.46-1.88-1.53-1.88-.83 0-1.39.36-2.21 1.08v5.12h-1.35v-7.06z"/><path id="O" d="M194.83 295.5c0-1.53 1.53-2.3 4.95-2.64 0-.91-.34-1.78-1.66-1.78-.93 0-1.78.38-2.42.75l-.53-.82c.74-.42 1.88-.92 3.17-.92 1.96 0 2.79 1.16 2.79 2.9v4.34h-1.11l-.12-.84h-.04c-.77.56-1.67 1.01-2.67 1.01-1.35 0-2.36-.73-2.36-2zm4.95.12v-1.98c-2.71.29-3.63.87-3.63 1.78 0 .81.62 1.13 1.42 1.13s1.42-.33 2.21-.94z"/><path id="P" d="M203.68 290.28h1.11l.12 1.29h.04c.56-.9 1.38-1.47 2.28-1.47.36 0 .61.04.86.16l-.25 1.04c-.27-.09-.46-.12-.79-.12-.67 0-1.5.42-2.03 1.62v4.54h-1.35v-7.06z"/><path id="Q" d="m208.53 296.53.67-.78c.7.49 1.42.83 2.39.83 1.07 0 1.59-.49 1.59-1.11 0-.73-.95-1.04-1.84-1.34-1.13-.36-2.36-.84-2.36-2.04 0-1.12 1.04-2 2.79-2 .99 0 1.87.36 2.49.79l-.65.77c-.55-.36-1.11-.62-1.82-.62-1.02 0-1.5.47-1.5 1.01 0 .68.83.92 1.73 1.22 1.17.39 2.46.81 2.46 2.15 0 1.14-1.04 2.09-2.93 2.09-1.14 0-2.24-.42-3.01-.97z"/><path id="R" d="M235.15 306.41H123.41V286.2l8-8h111.74v20.21l-8 8z"/><path id="S" d="M166.61 337.26c0-2.84 1.9-4.57 4.44-4.57 1.22 0 2.17.53 2.75 1.09l-.68.72c-.52-.49-1.19-.84-2.05-.84-1.9 0-3.16 1.37-3.16 3.56s1.2 3.61 3.12 3.61c.96 0 1.68-.37 2.32-.98l.7.7c-.79.8-1.78 1.26-3.08 1.26-2.49 0-4.36-1.69-4.36-4.55z"/><path id="T" d="M175.23 338.4c0-2.11 1.63-3.43 3.35-3.43 1.89 0 2.95 1.2 2.95 3.06a4.7 4.7 0 0 1-.05.62h-5c.08 1.39 1.05 2.28 2.46 2.28.72 0 1.31-.19 1.86-.52l.45.72c-.66.37-1.45.67-2.46.67-1.97 0-3.55-1.26-3.55-3.41zm5.21-.54c0-1.31-.68-2.01-1.85-2.01-1.05 0-1.98.74-2.13 2.01h3.98z"/><path id="U" d="M183.37 340.36v-8.25h1.24v8.32c0 .34.16.47.36.47.07 0 .12 0 .26-.02l.18.84c-.18.06-.38.1-.72.1-.93 0-1.31-.53-1.31-1.45z"/><path id="V" d="M196 340.98h-.05l-.11.67h-1v-9.55h1.24v2.61l-.04 1.18c.67-.52 1.5-.92 2.32-.92 1.93 0 2.97 1.32 2.97 3.31 0 2.24-1.52 3.53-3.23 3.53-.68 0-1.46-.31-2.11-.83zm4.03-2.67c0-1.44-.55-2.41-1.96-2.41-.63 0-1.29.31-2 .9v3.42c.66.5 1.33.68 1.82.68 1.23 0 2.13-.97 2.13-2.59z"/><path id="W" d="M203.28 335.14h1.03l.11 1.19h.04c.52-.83 1.27-1.36 2.11-1.36.33 0 .56.04.79.14l-.23.96c-.25-.08-.42-.11-.72-.11-.62 0-1.38.38-1.87 1.5v4.19h-1.24v-6.51z"/><path id="X" d="M208.38 333.06c0-.42.34-.71.83-.71s.83.29.83.71c0 .44-.34.73-.83.73s-.83-.29-.83-.73zm.21 2.07h1.24v6.51h-1.24v-6.51z"/><path id="Y" d="M212.57 339.64v-3.61h-1.11v-.83l1.16-.06.15-1.83h1.04v1.83h2.01v.89h-2.01v3.63c0 .8.29 1.26 1.15 1.26.26 0 .6-.08.85-.17l.25.82c-.42.12-.92.24-1.37.24-1.59 0-2.12-.88-2.12-2.17z"/><path id="Z" d="m216.75 344.33.25-.88a1.92 1.92 0 0 0 .56.11c.85 0 1.38-.6 1.68-1.4l.16-.49-2.98-6.52h1.3l1.52 3.62.71 1.82h.07l.63-1.82 1.33-3.62h1.22l-2.8 7.05c-.51 1.28-1.29 2.27-2.76 2.27-.36 0-.64-.05-.88-.13z"/><path id="a" d="M227.22 339.96c0-1.42 1.41-2.12 4.57-2.43 0-.84-.31-1.64-1.53-1.64-.86 0-1.64.35-2.23.7l-.49-.76c.68-.38 1.74-.85 2.93-.85 1.8 0 2.57 1.07 2.57 2.67v4.01h-1.03l-.11-.78h-.04c-.71.52-1.54.94-2.46.94-1.24 0-2.17-.67-2.17-1.85zm4.57.11v-1.82c-2.5.26-3.35.8-3.35 1.64 0 .74.57 1.04 1.31 1.04s1.31-.3 2.04-.86z"/><path id="b" d="M235.4 335.14h1.03l.11.94h.04c.71-.61 1.48-1.1 2.49-1.1 1.56 0 2.27.89 2.27 2.55v4.13h-1.24v-3.98c0-1.22-.42-1.74-1.41-1.74-.77 0-1.29.34-2.04 1v4.73h-1.24v-6.51z"/><path id="c" d="M243.21 338.4c0-2.11 1.52-3.43 3.21-3.43.88 0 1.44.29 2.09.77l-.05-1.13v-2.51h1.23v9.55h-1.01l-.11-.77h-.04c-.59.5-1.37.92-2.26.92-1.86 0-3.06-1.24-3.06-3.41zm5.25 1.59v-3.42c-.64-.49-1.2-.68-1.82-.68-1.2 0-2.15 1.01-2.15 2.5 0 1.57.74 2.51 2.05 2.51.68 0 1.29-.3 1.91-.9z"/><path id="d" d="M156.22 349.56h1.33l1.63 4.77.97 2.9h.05l.97-2.9 1.61-4.77h1.29l-3.19 8.8h-1.46l-3.2-8.8z"/><path id="e" d="M169.44 349.56h2.87c2.24 0 3.75.67 3.75 2.59s-1.49 2.72-3.69 2.72h-1.65v3.49h-1.27v-8.8zm2.76 4.41c1.76 0 2.6-.56 2.6-1.82s-.89-1.68-2.65-1.68h-1.44v3.5h1.49z"/><path id="f" d="M181.14 349.56h5.78v.95h-4.51v2.76h3.8v.95h-3.8v3.2h4.66v.95h-5.93v-8.8Z"/><path id="g" d="M196.86 359.61c0-.55.4-1.08 1.09-1.47v-.05c-.4-.2-.68-.55-.68-1.07s.45-.97.83-1.21v-.05c-.49-.35-.97-.97-.97-1.75 0-1.43 1.29-2.33 2.79-2.33.41 0 .78.08 1.04.17h2.58v.84h-1.52c.36.3.6.78.6 1.34 0 1.39-1.2 2.27-2.71 2.27-.37 0-.78-.08-1.11-.23-.27.2-.48.42-.48.78 0 .42.3.71 1.3.71h1.45c1.72 0 2.6.48 2.6 1.55 0 1.21-1.46 2.25-3.76 2.25-1.82 0-3.06-.62-3.06-1.75zm5.61-.34c0-.6-.53-.8-1.52-.8h-1.29a4.96 4.96 0 0 1-.96-.11c-.53.34-.75.72-.75 1.1 0 .7.81 1.15 2.15 1.15 1.42 0 2.37-.66 2.37-1.34zm-.96-5.26c0-.95-.71-1.52-1.59-1.52s-1.59.56-1.59 1.52.72 1.55 1.59 1.55 1.59-.6 1.59-1.55z"/><path id="h" d="M228.1 351.85h1.03l.11.95h.04c.64-.62 1.42-1.12 2.31-1.12 1.13 0 1.75.48 2.05 1.25.77-.73 1.54-1.25 2.45-1.25 1.53 0 2.26.89 2.26 2.55v4.13h-1.24v-3.98c0-1.22-.44-1.74-1.38-1.74-.57 0-1.18.32-1.87 1v4.73h-1.24v-3.98c0-1.22-.44-1.74-1.38-1.74-.56 0-1.19.32-1.87 1v4.73h-1.24v-6.51z"/><path id="i" d="M284.21 366.09H122.7v-34.31l8-8h161.51v34.31l-8 8Z"/><path id="j" d="M158.07 453.39h1.53l1.93 4.71.71 1.83h.07l.68-1.83 1.91-4.71h1.53v8.8h-1.19v-4.87c0-.76.1-1.82.16-2.59h-.05l-.79 2-1.9 4.57h-.85l-1.9-4.57-.79-2h-.05l.15 2.59v4.87h-1.15v-8.8z"/><path id="k" d="M199.75 453.39h3.14c2.04 0 3.5.65 3.5 2.48 0 1.37-.9 2.18-2.27 2.47l2.57 3.85h-1.44l-2.43-3.73h-1.8v3.73h-1.27v-8.8zm2.95 4.17c1.57 0 2.43-.55 2.43-1.69s-.86-1.57-2.43-1.57h-1.68v3.26h1.68z"/><path id="l" d="M235.87 458.94c0-2.17 1.63-3.43 3.45-3.43s3.45 1.26 3.45 3.43-1.63 3.41-3.45 3.41-3.45-1.25-3.45-3.41zm5.61 0c0-1.5-.88-2.52-2.16-2.52s-2.15 1.02-2.15 2.52.86 2.49 2.15 2.49 2.16-1 2.16-2.49z"/><path id="m" d="m252.23 461.45.62-.72c.64.46 1.31.77 2.2.77.98 0 1.46-.46 1.46-1.02 0-.67-.88-.96-1.7-1.24-1.04-.34-2.17-.78-2.17-1.88 0-1.03.96-1.85 2.57-1.85.92 0 1.72.34 2.3.73l-.6.71c-.51-.34-1.03-.58-1.68-.58-.94 0-1.38.43-1.38.94 0 .62.77.85 1.6 1.13 1.08.36 2.27.74 2.27 1.98 0 1.06-.96 1.93-2.71 1.93a4.88 4.88 0 0 1-2.78-.9z"/><path id="n" d="M197.69 470.1h2.98c2.04 0 3.45.61 3.45 2.16 0 .88-.53 1.64-1.46 1.91v.06c1.19.2 2.04.9 2.04 2.1 0 1.73-1.56 2.58-3.8 2.58h-3.2v-8.8zm2.76 3.75c1.72 0 2.42-.56 2.42-1.45 0-1.03-.81-1.42-2.37-1.42h-1.54v2.87h1.49zm.26 4.16c1.72 0 2.73-.54 2.73-1.73 0-1.09-.98-1.6-2.73-1.6h-1.75V478h1.75z"/><path id="o" d="M223.4 473.28h-1.01v-.83l1.01-.06v-1.04c0-1.32.68-2.15 2.16-2.15.45 0 .9.08 1.24.22l-.27.83a2.28 2.28 0 0 0-.83-.17c-.71 0-1.05.44-1.05 1.28v1.03h1.57v.89h-1.57v5.62h-1.24v-5.62zm4.05-2.96c0-.42.34-.71.82-.71s.85.29.85.71c0 .44-.36.73-.85.73s-.82-.29-.82-.73zm.19 2.07h1.26v6.51h-1.26v-6.51z"/><path id="p" d="M284.21 487.22H122.7v-34.31l8-8h161.51v34.31l-8 8z"/><path id="q" d="m177.83 400.34.77-.76a4.13 4.13 0 0 0 2.76 1.09c1.31 0 2.11-.58 2.11-1.44s-.72-1.19-1.67-1.56l-1.45-.55c-.93-.35-2.04-.97-2.04-2.25 0-1.36 1.34-2.34 3.16-2.34 1.19 0 2.24.44 2.95 1.09l-.67.71c-.62-.5-1.35-.83-2.28-.83-1.13 0-1.87.5-1.87 1.29 0 .85.88 1.18 1.65 1.46l1.44.54c1.16.44 2.06 1.04 2.06 2.35 0 1.39-1.31 2.5-3.4 2.5-1.42 0-2.64-.5-3.51-1.31z"/><path id="r" d="M228.4 398.24c0-2.17 1.68-3.43 3.58-3.43.97 0 1.64.36 2.17.77l-.64.72c-.44-.34-.89-.58-1.48-.58-1.35 0-2.34 1.02-2.34 2.52s.93 2.49 2.3 2.49c.68 0 1.29-.28 1.75-.65l.55.73a3.89 3.89 0 0 1-2.41.83c-1.97 0-3.49-1.25-3.49-3.41z"/><path id="s" d="M196.27 415.81v-4.13h1.24v3.99c0 1.21.41 1.73 1.39 1.73.77 0 1.3-.32 2.01-1.1v-4.62h1.24v6.51h-1.04l-.1-1.02h-.04c-.7.71-1.44 1.18-2.46 1.18-1.56 0-2.26-.89-2.26-2.54z"/></defs><use xlink:href="#A" x="95" y="343" opacity=".8"/><g class="L P"><path d="M122.52 347.8H98.54" class="M O"/><path d="M122.52 347.8H98.54" class="N"/></g><use xlink:href="#A" x="95" y="403" opacity=".8"/><g class="L P"><path d="M122.31 407.64H98.33" class="M O"/><path d="M122.31 407.64H98.33" class="N"/></g><g class="L P"><path d="M123.57 297.34H97.73" class="M O"/><path d="M123.57 297.34H97.73" class="N"/></g><g class="L P"><use xlink:href="#B" class="M O"/><use xlink:href="#B" class="N"/></g><use xlink:href="#C"/><use xlink:href="#D"/><g class="R"><use xlink:href="#C"/><use xlink:href="#D"/></g><g class="L"><circle cx="108.26" cy="108.62" r="84.46" class="M O"/><circle cx="108.26" cy="108.62" r="84.46" class="N"/></g><g class="L"><circle cx="108.45" cy="108.61" r="95.74" class="M O"/><circle cx="108.45" cy="108.61" r="95.74" class="N"/></g><g class="L S T"><use xlink:href="#E" class="M U"/><use xlink:href="#E" class="N Q"/></g><g class="L S T"><use xlink:href="#F" class="M U"/><use xlink:href="#F" class="N Q"/></g><g class="L S T"><use xlink:href="#G" class="M U"/><use xlink:href="#G" class="N Q"/></g><g class="L S T"><use xlink:href="#H" class="M U"/><use xlink:href="#H" class="N Q"/></g><g opacity=".2"><path fill="#0ff" d="M110.79 34.6h-5.23v-4.59h5.23v4.59zm-16.122-3.445 5.179-.728.637 4.535-5.179.728zm-10.631 2.646 5.027-1.442 1.262 4.403-5.027 1.442zm-10.153 4.103 4.778-2.127 1.863 4.184-4.778 2.127zm-9.497 5.473 4.435-2.771 2.427 3.884-4.435 2.771zm-8.634 6.742 4.006-3.362 2.944 3.508-4.006 3.362zm-7.604 7.871 3.5-3.887 3.404 3.065-3.5 3.887zm-6.433 8.868 2.925-4.336 3.797 2.561-2.925 4.336zm-5.157 9.675 2.293-4.701 4.116 2.008-2.293 4.701zm-3.743 10.283 1.616-4.974 4.356 1.415-1.616 4.974zm-2.281 10.719.908-5.151 4.51.795-.908 5.151zm-.768 10.93.183-5.227 4.577.16-.183 5.227zm.76 10.917-.547-5.201 4.555-.479.547 5.201zm2.28 10.72-1.265-5.075 4.444-1.108 1.265 5.075zm3.745 10.288-1.959-4.849 4.247-1.716 1.959 4.849zm5.132 9.675-2.615-4.529 3.966-2.29 2.615 4.529zm6.44 8.862-3.22-4.121 3.609-2.82 3.22 4.121zm7.605 7.891-3.762-3.633 3.182-3.295 3.762 3.633zm8.637 6.745-4.231-3.074 2.692-3.705 4.231 3.074zm9.485 5.476-4.618-2.455 2.15-4.044 4.618 2.455zm10.147 4.101-4.915-1.789 1.566-4.304 4.915 1.789zm10.631 2.652-5.116-1.087.952-4.48 5.116 1.087zm10.894 1.155-5.217-.365.319-4.569 5.217.365zm10.95-.385-5.217.365-.319-4.569 5.217-.365zm10.781-1.892-5.116 1.087-.952-4.48 5.116-1.087zm10.428-3.39-4.915 1.789-1.566-4.304 4.915-1.789zm9.842-4.795-4.618 2.455-2.15-4.044 4.618-2.455zm9.082-6.124-4.231 3.074-2.692-3.705 4.231-3.074zm8.143-7.332-3.762 3.633-3.182-3.295 3.762-3.633zm7.039-8.382-3.22 4.121-3.609-2.82 3.22-4.121zm5.808-9.298-2.615 4.529-3.966-2.29 2.615-4.529zm4.453-10.002-1.959 4.849-4.247-1.716 1.959-4.849zm3.03-10.524-1.265 5.075-4.444-1.108 1.265-5.075zm1.521-10.848-.547 5.201-4.555-.479.547-5.201zm.007-10.946.183 5.227-4.577.16-.183-5.227zm-1.525-10.859.908 5.151-4.51.795-.908-5.151zm-3.022-10.527 1.616 4.974-4.356 1.415-1.616-4.974zm-6.28-3.293-2.29-4.7 2.03-.99 2.09-1.02 2.3 4.7-4.13 2.01z"/><path d="M110.63 33.53c17.77.48 33.55 7.89 46.07 18.64" class="L M O P"/><path stroke-width="4.3" d="m157.32 51.08 2.67 2.39c5.94 5.58 12.51 13.48 16.42 20.69" class="L M P"/></g><path d="M159.95 240.09h6.61v1.11h-5.16v3.22h4.34v1.11h-4.34v3.74h5.33v1.11h-6.78V240.1zm7.82 2.68h1.48l1.59 4.33.8 2.24h.06l.78-2.24 1.61-4.33h1.41l-3.02 7.61h-1.66l-3.06-7.61zm8.73 3.81c0-2.47 1.86-4.01 3.83-4.01 2.16 0 3.38 1.4 3.38 3.57 0 .28-.03.55-.06.73h-5.72c.09 1.62 1.2 2.66 2.81 2.66a3.9 3.9 0 0 0 2.12-.6l.52.84c-.75.43-1.66.78-2.81.78-2.25 0-4.06-1.47-4.06-3.98zm5.95-.63c0-1.53-.78-2.35-2.11-2.35-1.2 0-2.27.87-2.44 2.35h4.55zm3.35-3.18h1.17l.12 1.09h.05c.81-.71 1.69-1.29 2.84-1.29 1.78 0 2.59 1.04 2.59 2.98v4.82h-1.42v-4.65c0-1.43-.48-2.03-1.61-2.03-.88 0-1.47.39-2.33 1.16v5.52h-1.42v-7.61zm9.79 5.25v-4.22h-1.27v-.97l1.33-.07.17-2.14h1.19v2.14h2.3v1.04h-2.3v4.24c0 .94.33 1.47 1.31 1.47.3 0 .69-.1.97-.2l.28.95c-.48.14-1.05.28-1.56.28-1.81 0-2.42-1.02-2.42-2.54zm4.68 1.48.7-.84c.73.53 1.5.9 2.52.9 1.12 0 1.67-.53 1.67-1.19 0-.78-1-1.12-1.94-1.44-1.19-.39-2.48-.91-2.48-2.2 0-1.2 1.09-2.16 2.94-2.16 1.05 0 1.97.39 2.62.85l-.69.83c-.58-.39-1.17-.67-1.92-.67-1.08 0-1.58.5-1.58 1.09 0 .73.88.99 1.83 1.32 1.23.42 2.59.87 2.59 2.31 0 1.23-1.09 2.25-3.09 2.25-1.2 0-2.36-.45-3.17-1.05z" class="R"/><g class="L P"><use xlink:href="#I" class="M Q"/><use xlink:href="#I" class="N O"/></g><use xlink:href="#J"/><use xlink:href="#K"/><use xlink:href="#L"/><use xlink:href="#M"/><use xlink:href="#N"/><use xlink:href="#O"/><use xlink:href="#P"/><use xlink:href="#Q"/><g class="R"><use xlink:href="#J"/><use xlink:href="#K"/><use xlink:href="#L"/><use xlink:href="#M"/><use xlink:href="#N"/><use xlink:href="#O"/><use xlink:href="#P"/><use xlink:href="#Q"/></g><g class="L P"><use xlink:href="#R" class="M Q"/><use xlink:href="#R" class="N O"/></g><use xlink:href="#S"/><use xlink:href="#T"/><use xlink:href="#U"/><use xlink:href="#T" x="11.47"/><use xlink:href="#V"/><use xlink:href="#W"/><use xlink:href="#X"/><use xlink:href="#Y"/><use xlink:href="#Z"/><use xlink:href="#a"/><use xlink:href="#b"/><use xlink:href="#c"/><use xlink:href="#d"/><path d="M165.43 349.56h1.27v8.8h-1.27v-8.8Z"/><use xlink:href="#e"/><use xlink:href="#f"/><use xlink:href="#b" x="-46.33" y="16.71"/><use xlink:href="#g"/><use xlink:href="#a" x="-22.57" y="16.71"/><use xlink:href="#g" x="15.41"/><use xlink:href="#T" x="44.73" y="16.71"/><use xlink:href="#h"/><use xlink:href="#T" x="64.96" y="16.71"/><use xlink:href="#b" x="12.93" y="16.71"/><use xlink:href="#Y" x="44.33" y="16.71"/><g class="R"><use xlink:href="#S"/><use xlink:href="#T"/><use xlink:href="#U"/><use xlink:href="#T" x="11.47"/><use xlink:href="#V"/><use xlink:href="#W"/><use xlink:href="#X"/><use xlink:href="#Y"/><use xlink:href="#Z"/><use xlink:href="#a"/><use xlink:href="#b"/><use xlink:href="#c"/><use xlink:href="#d"/><path d="M165.43 349.56h1.27v8.8h-1.27v-8.8Z"/><use xlink:href="#e"/><use xlink:href="#f"/><use xlink:href="#b" x="-46.33" y="16.71"/><use xlink:href="#g"/><use xlink:href="#a" x="-22.57" y="16.71"/><use xlink:href="#g" x="15.41"/><use xlink:href="#T" x="44.73" y="16.71"/><use xlink:href="#h"/><use xlink:href="#T" x="64.96" y="16.71"/><use xlink:href="#b" x="12.93" y="16.71"/><use xlink:href="#Y" x="44.33" y="16.71"/></g><g class="L P"><use xlink:href="#i" class="M Q"/><use xlink:href="#i" class="N O"/></g><use xlink:href="#j"/><use xlink:href="#T" x="-6.73" y="120.54"/><use xlink:href="#c" x="-67.11" y="120.54"/><use xlink:href="#X" x="-23.47" y="120.55"/><use xlink:href="#a" x="-38.81" y="120.54"/><use xlink:href="#k"/><use xlink:href="#T" x="32.55" y="120.54"/><use xlink:href="#U" x="32.54" y="120.54"/><use xlink:href="#a" x="-7.88" y="120.54"/><use xlink:href="#Y" x="15.17" y="120.54"/><use xlink:href="#X" x="24.09" y="120.55"/><use xlink:href="#l"/><use xlink:href="#b" x="9.32" y="120.54"/><use xlink:href="#m"/><use xlink:href="#a" x="-57.71" y="137.25"/><use xlink:href="#b" x="-57.71" y="137.25"/><use xlink:href="#c" x="-57.7" y="137.26"/><use xlink:href="#n"/><use xlink:href="#W" x="3.28" y="137.25"/><use xlink:href="#X" x="3.28" y="137.26"/><use xlink:href="#T" x="39.83" y="137.26"/><use xlink:href="#o"/><use xlink:href="#b" x="-4" y="137.25"/><use xlink:href="#g" x="42.33" y="120.54"/><g class="R"><use xlink:href="#j"/><use xlink:href="#T" x="-6.73" y="120.54"/><use xlink:href="#c" x="-67.11" y="120.54"/><use xlink:href="#X" x="-23.47" y="120.55"/><use xlink:href="#a" x="-38.81" y="120.54"/><use xlink:href="#k"/><use xlink:href="#T" x="32.55" y="120.54"/><use xlink:href="#U" x="32.54" y="120.54"/><use xlink:href="#a" x="-7.88" y="120.54"/><use xlink:href="#Y" x="15.17" y="120.54"/><use xlink:href="#X" x="24.09" y="120.55"/><use xlink:href="#l"/><use xlink:href="#b" x="9.32" y="120.54"/><use xlink:href="#m"/><use xlink:href="#a" x="-57.71" y="137.25"/><use xlink:href="#b" x="-57.71" y="137.25"/><use xlink:href="#c" x="-57.7" y="137.26"/><use xlink:href="#n"/><use xlink:href="#W" x="3.28" y="137.25"/><use xlink:href="#X" x="3.28" y="137.26"/><use xlink:href="#T" x="39.83" y="137.26"/><use xlink:href="#o"/><use xlink:href="#b" x="-4" y="137.25"/><use xlink:href="#g" x="42.33" y="120.54"/></g><g class="L P"><use xlink:href="#p" class="M Q"/><use xlink:href="#p" class="N O"/></g><use xlink:href="#q"/><use xlink:href="#Y" x="-25.74" y="59.83"/><use xlink:href="#W" x="-11.52" y="59.83"/><use xlink:href="#a" x="-30.62" y="59.84"/><use xlink:href="#Y" x="-7.57" y="59.83"/><use xlink:href="#T" x="34.14" y="59.84"/><use xlink:href="#g" x="20.08" y="43.12"/><use xlink:href="#X" x="16.62" y="59.84"/><use xlink:href="#r"/><use xlink:href="#S" x="-13.04" y="76.55"/><use xlink:href="#l" x="-73.67" y="-43.99"/><use xlink:href="#h" x="-57.06" y="59.84"/><use xlink:href="#h" x="-44.4" y="59.84"/><use xlink:href="#s"/><use xlink:href="#b" x="-30.74" y="76.55"/><use xlink:href="#X" x="4.43" y="76.55"/><use xlink:href="#r" x="-12.19" y="16.71"/><use xlink:href="#a" x="-3.95" y="76.55"/><use xlink:href="#Y" x="19.09" y="76.55"/><use xlink:href="#X" x="28.01" y="76.55"/><use xlink:href="#l" x="3.92" y="-43.99"/><use xlink:href="#b" x="13.24" y="76.55"/><use xlink:href="#m" x="3.93" y="-43.99"/><g class="R"><use xlink:href="#q"/><use xlink:href="#Y" x="-25.74" y="59.83"/><use xlink:href="#W" x="-11.52" y="59.83"/><use xlink:href="#a" x="-30.62" y="59.84"/><use xlink:href="#Y" x="-7.57" y="59.83"/><use xlink:href="#T" x="34.14" y="59.84"/><use xlink:href="#g" x="20.08" y="43.12"/><use xlink:href="#X" x="16.62" y="59.84"/><use xlink:href="#r"/><use xlink:href="#S" x="-13.04" y="76.55"/><use xlink:href="#l" x="-73.67" y="-43.99"/><use xlink:href="#h" x="-57.06" y="59.84"/><use xlink:href="#h" x="-44.4" y="59.84"/><use xlink:href="#s"/><use xlink:href="#b" x="-30.74" y="76.55"/><use xlink:href="#X" x="4.43" y="76.55"/><use xlink:href="#r" x="-12.19" y="16.71"/><use xlink:href="#a" x="-3.95" y="76.55"/><use xlink:href="#Y" x="19.09" y="76.55"/><use xlink:href="#X" x="28.01" y="76.55"/><use xlink:href="#l" x="3.92" y="-43.99"/><use xlink:href="#b" x="13.24" y="76.55"/><use xlink:href="#m" x="3.93" y="-43.99"/></g><g class="L P"><use xlink:href="#p" y="-60.52" class="M Q"/><use xlink:href="#p" y="-60.52" class="N O"/></g></svg>