<svg xmlns="http://www.w3.org/2000/svg" xmlns:xlink="http://www.w3.org/1999/xlink" viewBox="0 0 309 408"><style>.L{fill:none}.M{stroke:#0ff}.N{stroke:#fff}.O{stroke-width:2}.P{stroke-miterlimit:10}.Q{stroke-width:3}.R{opacity:.8}.S{fill:#fff}.T{stroke-linecap:round}.U{stroke-linejoin:round}.V{stroke-width:6}</style><defs><path id="C" d="m155.34 102.69 2.12-2.55c1.32 1.22 3.07 2.05 4.7 2.05 1.92 0 2.95-.82 2.95-2.12 0-1.38-1.12-1.8-2.77-2.5l-2.47-1.05c-1.87-.78-3.75-2.27-3.75-4.97 0-3.02 2.65-5.35 6.4-5.35 2.15 0 4.3.85 5.8 2.38l-1.87 2.32c-1.17-.97-2.4-1.52-3.92-1.52-1.62 0-2.65.72-2.65 1.95 0 1.33 1.3 1.8 2.87 2.42l2.42 1.02c2.25.92 3.72 2.35 3.72 5.02 0 3.02-2.52 5.6-6.8 5.6-2.47 0-4.95-.97-6.75-2.7z"/><path id="D" d="M173.16 86.51h4.1l3.15 8.67 1.12 3.55h.12l1.12-3.55 3.07-8.67h4.1v18.52h-3.37v-7.72c0-1.75.28-4.32.48-6.07h-.12l-1.5 4.35-2.85 7.77h-2.12l-2.88-7.77-1.47-4.35h-.1l.47 6.07v7.72h-3.32V86.51z"/><path id="E" d="M199.06 86.51h4.35l5.95 18.52h-3.87l-1.3-4.75h-6l-1.3 4.75h-3.75l5.92-18.52zm-.07 10.9h4.4l-.55-2.02-1.6-6.05h-.12l-1.57 6.05-.55 2.02z"/><path id="F" d="M212.54 86.51h6.45c3.87 0 6.95 1.38 6.95 5.62 0 2.77-1.4 4.5-3.52 5.32l4.32 7.57h-4.12l-3.8-7h-2.57v7h-3.7V86.5zm6.1 8.6c2.37 0 3.7-1 3.7-2.97s-1.32-2.67-3.7-2.67h-2.4v5.65h2.4z"/><path id="G" d="M234.26 89.61h-5.2v-3.1h14.15v3.1h-5.25v15.42h-3.7V89.61z"/><path id="H" d="M136.93 122.81c0-5.12 3.3-8.13 7.22-8.13 1.97 0 3.55.94 4.56 2l-1.62 1.97c-.8-.76-1.7-1.3-2.88-1.3-2.35 0-4.12 2.02-4.12 5.35s1.6 5.42 4.05 5.42c1.34 0 2.37-.63 3.21-1.53l1.64 1.93a6.29 6.29 0 0 1-4.96 2.29c-3.93 0-7.12-2.81-7.12-8z"/><path id="I" d="M150.73 122.68c0-5.06 2.83-8 6.95-8s6.95 2.96 6.95 8-2.83 8.13-6.95 8.13-6.95-3.09-6.95-8.13Zm10.73 0c0-3.34-1.47-5.33-3.78-5.33s-3.78 1.99-3.78 5.33 1.47 5.44 3.78 5.44 3.78-2.12 3.78-5.44Z"/><path id="J" d="M167.68 114.96h3.17l4.51 8.29 1.55 3.36h.1l-.4-5.44v-6.21h2.94v15.56h-3.15l-4.49-8.31-1.57-3.34h-.1l.38 5.42v6.24h-2.94v-15.56z"/><path id="K" d="M186.49 117.56h-4.37v-2.6H194v2.6h-4.41v12.96h-3.11v-12.96z"/><path id="L" d="M196.53 114.96h5.42c3.25 0 5.84 1.16 5.84 4.72 0 2.33-1.18 3.78-2.96 4.47l3.63 6.36H205l-3.19-5.88h-2.16v5.88h-3.11v-15.56zm5.12 7.22c1.99 0 3.11-.84 3.11-2.5s-1.11-2.25-3.11-2.25h-2.02v4.74h2.02z"/><path id="M" d="M213.83 114.96h3.65l5 15.56h-3.25l-1.09-3.99h-5.04l-1.09 3.99h-3.15l4.98-15.56zm-.06 9.15h3.7l-.46-1.7-1.34-5.08h-.11l-1.32 5.08-.46 1.7z"/><path id="N" d="M241.2 117.56h-4.37v-2.6h11.88v2.6h-4.41v12.96h-3.11v-12.96Z"/><path id="O" d="m250.21 128.54 1.78-2.14c1.11 1.03 2.58 1.72 3.95 1.72 1.62 0 2.48-.69 2.48-1.78 0-1.16-.94-1.51-2.33-2.1l-2.08-.88c-1.57-.65-3.15-1.91-3.15-4.18 0-2.54 2.23-4.49 5.38-4.49 1.81 0 3.61.71 4.87 2l-1.57 1.95c-.99-.82-2.02-1.28-3.3-1.28-1.36 0-2.23.61-2.23 1.64 0 1.11 1.09 1.51 2.42 2.04l2.04.86c1.89.78 3.13 1.97 3.13 4.22 0 2.54-2.12 4.7-5.71 4.7-2.08 0-4.16-.82-5.67-2.27z"/><path id="P" d="M128.76 173.47c-15.83-17.08-25.51-39.94-25.51-65.07 0-29.12 13-55.2 33.51-72.76"/><path id="Q" d="M218.6 202.13a95.964 95.964 0 0 1-19.6 2.01c-17.26 0-33.45-4.57-47.43-12.56"/><path id="R" d="M279.55 56.63c9.61 14.93 15.19 32.69 15.19 51.77 0 23.08-8.17 44.25-21.77 60.78"/><path id="S" d="M174.09 15.93a96 96 0 0 1 24.9-3.27c19.83 0 38.25 6.03 53.53 16.35"/><path id="T" d="M84.7 272.17v-3.61h-1.08v-.83l1.14-.06.15-1.83h1.02v1.83h1.97v.89h-1.97v3.63c0 .8.28 1.26 1.12 1.26a2.67 2.67 0 0 0 .83-.17l.24.82c-.41.12-.9.24-1.34.24-1.55 0-2.07-.88-2.07-2.17z"/><path id="U" d="m88.8 276.86.24-.88c.15.05.36.11.55.11.83 0 1.35-.6 1.65-1.4l.16-.49-2.92-6.52h1.27l1.49 3.62.7 1.82h.07l.62-1.82 1.3-3.62h1.19l-2.74 7.05c-.5 1.28-1.26 2.27-2.7 2.27-.35 0-.63-.05-.86-.13z"/><path id="V" d="M122.62 284.26H12.32V263.8l8-8h110.3v20.46l-8 8z"/><path id="W" d="M290 308.04H179.7v-20.46l8-8H298v20.46l-8 8z"/><path id="X" d="M76.35 326.9c0-2.11 1.59-3.43 3.28-3.43 1.85 0 2.89 1.2 2.89 3.06a4.7 4.7 0 0 1-.05.62h-4.9c.08 1.39 1.03 2.28 2.41 2.28.71 0 1.28-.19 1.82-.52l.44.72c-.64.37-1.42.67-2.41.67-1.93 0-3.48-1.26-3.48-3.41zm5.1-.54c0-1.31-.67-2.01-1.81-2.01-1.03 0-1.94.74-2.09 2.01h3.89z"/><path id="Y" d="M121.64 340.23H11.34v-20.46l8-8h110.3v20.46l-8 8Z"/><path id="Z" d="M220.34 347.5h-3.04v-.95h7.34v.95h-3.04v7.86h-1.27v-7.86Z"/><path id="a" d="M226.33 348.84h1.03l.11 1.19h.04c.52-.83 1.27-1.36 2.11-1.36.33 0 .56.04.79.14l-.23.96c-.25-.08-.42-.11-.72-.11-.62 0-1.38.38-1.87 1.5v4.19h-1.24v-6.51z"/><path id="b" d="M231.54 352.96v-4.13h1.24v3.99c0 1.21.41 1.73 1.39 1.73.77 0 1.3-.32 2.01-1.1v-4.62h1.24v6.51h-1.04l-.1-1.02h-.04c-.7.71-1.44 1.18-2.46 1.18-1.56 0-2.26-.89-2.26-2.54z"/><path id="c" d="M244.48 349.73h-3.1v5.62h-1.24v-5.62h-1.01v-.83l1.01-.06v-.88c0-1.34.77-2.18 2.31-2.18.48 0 .97.08 1.35.23l-.26.84a2.58 2.58 0 0 0-1-.19c-.74 0-1.16.48-1.16 1.34v.84h3.1v-1.04c0-1.32.68-2.15 2.17-2.15.44 0 .89.08 1.23.22l-.26.83a2.47 2.47 0 0 0-.85-.17c-.71 0-1.05.44-1.05 1.28v1.03h1.57v.89h-1.57v5.62h-1.24v-5.62zm4.25 4.33v-8.25h1.24v8.32c0 .34.16.47.34.47.07 0 .14 0 .27-.02l.16.84c-.18.06-.38.1-.71.1-.93 0-1.31-.53-1.31-1.45z"/><path id="d" d="M252.06 352.1c0-2.11 1.63-3.43 3.35-3.43 1.89 0 2.95 1.2 2.95 3.06a4.7 4.7 0 0 1-.05.62h-5c.08 1.39 1.05 2.28 2.46 2.28.72 0 1.31-.19 1.86-.52l.45.72c-.66.37-1.45.67-2.46.67-1.97 0-3.55-1.26-3.55-3.41zm5.21-.54c0-1.31-.68-2.01-1.85-2.01-1.05 0-1.98.74-2.13 2.01h3.98z"/><path id="e" d="M289.78 365.41H179.94V345.2l8-8h109.84v20.21l-8 8z"/><path id="f" d="M121.64 396.82H11.34v-20.46l8-8h110.3v20.46l-8 8Z"/></defs><g class="L P"><path d="m154.87 231.94 23.5-.18 21.51-27.7" class="M O"/><path d="m154.87 231.94 23.5-.18 21.51-27.7" class="N"/></g><use xlink:href="#A" x="152" y="350" class="R"/><g class="L P"><path d="M179.93 354.06h-24.44" class="M O"/><path d="M179.93 354.06h-24.44" class="N"/></g><g class="L P"><path d="M179.23 298.06h-24.75" class="M O"/><path d="M179.23 298.06h-24.75" class="N"/></g><use xlink:href="#A" x="127" y="266" class="R"/><g class="L P"><path d="M154.42 270.04h-23.8" class="M O"/><path d="M154.42 270.04h-23.8" class="N"/></g><use xlink:href="#A" x="127" y="322" class="R"/><g class="L P"><path d="M154.42 326.01h-23.8" class="M O"/><path d="M154.42 326.01h-23.8" class="N"/></g><g class="L P"><path d="M130.14 382.06h25.35l-.36-151.17" class="M O"/><path d="M130.14 382.06h25.35l-.36-151.17" class="N"/></g><use xlink:href="#C"/><use xlink:href="#D"/><use xlink:href="#E"/><use xlink:href="#F"/><use xlink:href="#G"/><use xlink:href="#H"/><use xlink:href="#I"/><use xlink:href="#J"/><use xlink:href="#K"/><use xlink:href="#L"/><use xlink:href="#M"/><use xlink:href="#H" x="86.61"/><use xlink:href="#N"/><use xlink:href="#O"/><g class="S"><use xlink:href="#C"/><use xlink:href="#D"/><use xlink:href="#E"/><use xlink:href="#F"/><use xlink:href="#G"/><use xlink:href="#H"/><use xlink:href="#I"/><use xlink:href="#J"/><use xlink:href="#K"/><use xlink:href="#L"/><use xlink:href="#M"/><use xlink:href="#H" x="86.61"/><use xlink:href="#N"/><use xlink:href="#O"/></g><g class="L"><circle cx="198.96" cy="108.62" r="84.46" class="M O"/><circle cx="198.96" cy="108.62" r="84.46" class="N"/></g><g class="L"><circle cx="199.15" cy="108.61" r="95.74" class="M O"/><circle cx="199.15" cy="108.61" r="95.74" class="N"/></g><g class="L T U"><use xlink:href="#P" class="M V"/><use xlink:href="#P" class="N Q"/></g><g class="L T U"><use xlink:href="#Q" class="M V"/><use xlink:href="#Q" class="N Q"/></g><g class="L T U"><use xlink:href="#R" class="M V"/><use xlink:href="#R" class="N Q"/></g><g class="L T U"><use xlink:href="#S" class="M V"/><use xlink:href="#S" class="N Q"/></g><g opacity=".2"><path fill="#0ff" d="M201.49 34.6h-5.23v-4.59h5.23v4.59zm-16.124-3.448 5.179-.728.637 4.535-5.179.728zm-10.642 2.652 5.027-1.442 1.262 4.403-5.027 1.442zm-10.15 4.103 4.778-2.127 1.863 4.184-4.778 2.127zm-9.479 5.466 4.435-2.771 2.427 3.884-4.435 2.771zm-8.642 6.745 4.006-3.362 2.944 3.508-4.006 3.362zm-7.61 7.876 3.5-3.887 3.404 3.065-3.5 3.887zm-6.433 8.869 2.925-4.336 3.797 2.561-2.925 4.336zm-5.151 9.669 2.293-4.701 4.116 2.008-2.293 4.701zm-3.748 10.292 1.616-4.974 4.356 1.415-1.616 4.974zm-2.286 10.709.908-5.151 4.51.795-.908 5.151zm-.762 10.927.183-5.227 4.577.16-.183 5.227zm.763 10.918-.547-5.201 4.555-.479.547 5.201zm2.279 10.718-1.265-5.075 4.444-1.108 1.265 5.075zm3.744 10.298-1.959-4.849 4.247-1.716 1.959 4.849zm5.125 9.673-2.615-4.529 3.966-2.29 2.615 4.529zm6.449 8.857-3.22-4.121 3.609-2.82 3.22 4.121zm7.602 7.889-3.762-3.633 3.182-3.295 3.762 3.633zm8.633 6.748-4.231-3.074 2.692-3.705 4.231 3.074zm9.48 5.477-4.618-2.455 2.15-4.044 4.618 2.455zm10.15 4.101-4.915-1.789 1.566-4.304 4.915 1.789zm10.633 2.655-5.116-1.087.952-4.48 5.116 1.087zm10.903 1.146-5.217-.365.319-4.569 5.217.365zm10.94-.381-5.217.365-.319-4.569 5.217-.365zm10.792-1.891-5.116 1.087-.952-4.48 5.116-1.087zm10.416-3.387-4.915 1.789-1.566-4.304 4.915-1.789zm9.847-4.799-4.618 2.455-2.15-4.044 4.618-2.455zm9.079-6.119-4.231 3.074-2.692-3.705 4.231-3.074zm8.137-7.329-3.762 3.633-3.182-3.295 3.762-3.633zm7.053-8.395-3.22 4.121-3.609-2.82 3.22-4.121zm5.808-9.281-2.615 4.529-3.966-2.29 2.615-4.529zm4.446-10.005-1.959 4.849-4.247-1.716 1.959-4.849zm3.035-10.524-1.265 5.075-4.444-1.108 1.265-5.075zm1.512-10.851-.547 5.201-4.555-.479.547-5.201zm.013-10.965.183 5.227-4.577.16-.183-5.227zm-1.53-10.841.908 5.151-4.51.795-.908-5.151zm-3.017-10.527 1.616 4.974-4.356 1.415-1.616-4.974zm-6.275-3.295-2.29-4.7 2.02-.99 2.1-1.02 2.29 4.7-4.12 2.01z"/><path d="M201.33 33.53c17.77.48 33.55 7.89 46.07 18.64" class="L M O P"/><path stroke-width="4.3" d="m248.02 51.08 2.67 2.39c5.94 5.58 12.51 13.48 16.42 20.69" class="L M P"/></g><g class="S"><path d="m48.3 273.03.75-.76c.7.66 1.69 1.09 2.7 1.09 1.29 0 2.06-.58 2.06-1.44s-.71-1.19-1.63-1.56l-1.42-.55c-.91-.35-1.99-.97-1.99-2.25 0-1.36 1.31-2.34 3.09-2.34 1.16 0 2.19.44 2.89 1.09l-.66.71c-.6-.5-1.32-.83-2.23-.83-1.11 0-1.83.5-1.83 1.29 0 .85.86 1.18 1.62 1.46l1.41.54c1.14.44 2.02 1.04 2.02 2.35 0 1.39-1.28 2.5-3.33 2.5-1.39 0-2.58-.5-3.44-1.31zm8.05-2.1c0-2.17 1.59-3.43 3.37-3.43s3.37 1.26 3.37 3.43-1.59 3.41-3.37 3.41-3.37-1.25-3.37-3.41zm5.49 0c0-1.5-.86-2.52-2.11-2.52s-2.1 1.02-2.1 2.52.84 2.49 2.1 2.49 2.11-1 2.11-2.49zm3.17 1.96v-8.25h1.22v8.32c0 .34.16.47.35.47.07 0 .12 0 .25-.02l.17.84c-.17.06-.38.1-.71.1-.91 0-1.29-.53-1.29-1.45zm3.61-7.3c0-.42.33-.71.82-.71s.82.29.82.71c0 .44-.33.73-.82.73s-.82-.29-.82-.73zm.2 2.07h1.22v6.51h-1.22v-6.51zm3.16 3.27c0-2.11 1.49-3.43 3.15-3.43.86 0 1.4.29 2.05.77l-.05-1.13v-2.51h1.2v9.55h-.99l-.11-.77h-.04c-.58.5-1.34.92-2.21.92-1.82 0-3-1.24-3-3.41zm5.14 1.59v-3.42c-.63-.49-1.18-.68-1.78-.68-1.18 0-2.1 1.01-2.1 2.5 0 1.57.72 2.51 2.01 2.51.67 0 1.26-.3 1.87-.9zm3.48-6.93c0-.42.33-.71.82-.71s.82.29.82.71c0 .44-.33.73-.82.73s-.82-.29-.82-.73zm.2 2.07h1.22v6.51H80.8v-6.51z"/><use xlink:href="#T"/><use xlink:href="#U"/></g><use xlink:href="#B" x="1" y="245"/><g class="L P"><use xlink:href="#V" class="M Q"/><use xlink:href="#V" class="N O"/></g><g class="S"><path d="M226.22 289.16h3.08c1.99 0 3.43.65 3.43 2.48 0 1.37-.88 2.18-2.22 2.47l2.52 3.85h-1.41l-2.38-3.73h-1.77v3.73h-1.24v-8.8zm2.89 4.17c1.54 0 2.38-.55 2.38-1.69s-.84-1.57-2.38-1.57h-1.65v3.26h1.65zm5.42 2.24v-4.13h1.22v3.99c0 1.21.4 1.73 1.36 1.73.75 0 1.27-.32 1.97-1.1v-4.62h1.22v6.51h-1.02l-.09-1.02h-.04c-.68.71-1.41 1.18-2.41 1.18-1.53 0-2.21-.89-2.21-2.54zm7.4 1.65.6-.72c.63.46 1.29.77 2.15.77.96 0 1.43-.46 1.43-1.02 0-.67-.86-.96-1.66-1.24-1.02-.34-2.13-.78-2.13-1.88 0-1.03.94-1.85 2.52-1.85.9 0 1.69.34 2.25.73l-.59.71c-.5-.34-1-.58-1.65-.58-.92 0-1.35.43-1.35.94 0 .62.75.85 1.57 1.13 1.06.36 2.22.74 2.22 1.98 0 1.06-.94 1.93-2.65 1.93-1.03 0-2.02-.38-2.72-.9z"/><use xlink:href="#T" x="164.53" y="23.78"/></g><g class="L P"><use xlink:href="#W" class="M Q"/><use xlink:href="#W" class="N O"/></g><g class="S"><path d="M52.71 321.35h1.3l1.59 4.77.95 2.9h.05l.95-2.9 1.58-4.77h1.26l-3.12 8.8h-1.43l-3.13-8.8z"/><use xlink:href="#U" x="-27.91" y="55.97"/><path d="M68.6 323.64h1l.11.74h.04c.66-.48 1.47-.91 2.31-.91 1.87 0 2.89 1.32 2.89 3.32 0 2.23-1.49 3.51-3.16 3.51-.66 0-1.35-.28-2.01-.76l.03 1.14v2.21h-1.22v-9.26zm5.08 3.17c0-1.44-.54-2.41-1.91-2.41-.62 0-1.24.31-1.95.9v3.42c.66.5 1.3.68 1.78.68 1.2 0 2.09-.97 2.09-2.59z"/><use xlink:href="#X"/><path d="M84.32 323.64h1l.11 1.19h.04c.51-.83 1.24-1.36 2.06-1.36.32 0 .55.04.78.14l-.23.96c-.24-.08-.42-.11-.71-.11-.6 0-1.35.38-1.83 1.5v4.19h-1.22v-6.51z"/></g><use xlink:href="#B" y="301"/><g class="L P"><use xlink:href="#Y" class="M Q"/><use xlink:href="#Y" class="N O"/></g><use xlink:href="#Z"/><use xlink:href="#a"/><use xlink:href="#b"/><use xlink:href="#c"/><use xlink:href="#d"/><g class="S"><use xlink:href="#Z"/><use xlink:href="#a"/><use xlink:href="#b"/><use xlink:href="#c"/><use xlink:href="#d"/></g><g class="L P"><use xlink:href="#e" class="M Q"/><use xlink:href="#e" class="N O"/></g><g class="S"><path d="M51.26 377.94h1.27l1.03 4.8.58 2.84h.05l.71-2.84 1.35-4.8h1.14l1.37 4.8.7 2.84h.07l.56-2.84 1.03-4.8h1.19l-2.03 8.8h-1.49l-1.49-5.3-.48-2h-.05l-.5 2-1.46 5.3h-1.47l-2.07-8.8zm12.19 7.11c0-1.42 1.38-2.12 4.47-2.43 0-.84-.31-1.64-1.5-1.64-.84 0-1.61.35-2.18.7l-.48-.76c.67-.38 1.7-.85 2.86-.85 1.77 0 2.52 1.07 2.52 2.67v4.01h-1l-.11-.78h-.04c-.7.52-1.51.94-2.41.94-1.22 0-2.13-.67-2.13-1.85zm4.47.11v-1.82c-2.45.26-3.28.8-3.28 1.64 0 .74.56 1.04 1.28 1.04s1.29-.3 1.99-.86zm7.99-4.05h-3.04v5.62h-1.22v-5.62h-.99v-.83l.99-.06v-.88c0-1.34.75-2.18 2.26-2.18.47 0 .95.08 1.33.23l-.25.84a2.48 2.48 0 0 0-.98-.19c-.72 0-1.14.48-1.14 1.34v.84h3.04v-1.04c0-1.32.67-2.15 2.13-2.15.43 0 .87.08 1.2.22l-.25.83c-.28-.11-.58-.17-.83-.17-.7 0-1.03.44-1.03 1.28v1.03h1.54v.89h-1.54v5.62h-1.22v-5.62zm4.16 4.33v-8.25h1.22v8.32c0 .34.16.47.33.47.07 0 .13 0 .27-.02l.16.84c-.17.06-.37.1-.7.1-.91 0-1.28-.53-1.28-1.45z"/><use xlink:href="#X" x="6.98" y="56.59"/></g><g class="L P"><use xlink:href="#f" class="M Q"/><use xlink:href="#f" class="N O"/></g></svg>