<svg xmlns="http://www.w3.org/2000/svg" xmlns:xlink="http://www.w3.org/1999/xlink" viewBox="0 0 308 463"><style>.L{fill:none}.M{stroke:#0ff}.N{stroke:#fff}.O{stroke-width:2}.P{stroke-miterlimit:10}.Q{stroke-width:3}.R{opacity:.8}.S{fill:#fff}.T{stroke-linecap:round}.U{stroke-linejoin:round}.V{stroke-width:6}</style><defs><path id="E" d="M160.59 90.83h-4.78v-2.85h13.02v2.85H164v14.19h-3.4V90.83z"/><path id="F" d="M171.42 98.58c0-4.28 2.97-6.76 6.19-6.76s6.19 2.48 6.19 6.76-2.97 6.76-6.19 6.76-6.19-2.48-6.19-6.76Zm8.92 0c0-2.42-.99-4-2.74-4s-2.74 1.59-2.74 4 .99 4 2.74 4 2.74-1.56 2.74-4Z"/><path id="G" d="M187.54 86.66h3.33v11.01h.09l4.39-5.54h3.7l-4.42 5.31 4.83 7.57h-3.66l-3.13-5.33-1.82 2.07v3.27h-3.33V86.67z"/><path id="H" d="M201.57 98.58c0-4.16 2.94-6.76 6-6.76 3.54 0 5.38 2.6 5.38 6.14 0 .64-.07 1.26-.16 1.56h-7.93c.28 2.12 1.66 3.22 3.56 3.22 1.06 0 1.98-.32 2.9-.9l1.15 2.07c-1.26.87-2.9 1.43-4.48 1.43-3.61 0-6.42-2.51-6.42-6.76zm8.48-1.31c0-1.72-.78-2.83-2.44-2.83-1.36 0-2.55.97-2.81 2.83h5.24z"/><path id="I" d="M216.66 92.14h2.76l.25 1.7h.07c1.13-1.1 2.44-2.02 4.18-2.02 2.78 0 3.98 1.93 3.98 5.17v8.03h-3.38v-7.61c0-2-.55-2.69-1.82-2.69-1.06 0-1.72.51-2.67 1.45v8.85h-3.38V92.14z"/><path id="J" d="m231.11 103.52 1.54-2.12c1.15.9 2.25 1.4 3.45 1.4 1.29 0 1.86-.55 1.86-1.36 0-.97-1.33-1.4-2.69-1.93-1.63-.62-3.45-1.61-3.45-3.77 0-2.3 1.86-3.93 4.81-3.93 1.86 0 3.31.78 4.37 1.59l-1.52 2.05c-.92-.67-1.82-1.1-2.76-1.1-1.17 0-1.72.51-1.72 1.24 0 .94 1.2 1.29 2.55 1.79 1.7.64 3.59 1.5 3.59 3.89 0 2.25-1.77 4.07-5.13 4.07-1.72 0-3.61-.76-4.9-1.82z"/><path id="K" d="M157.56 125.51c0-2.37 1.49-3.75 3.2-4.83-.69-1.29-1.08-2.55-1.08-3.68 0-2.37 1.75-4.32 4.46-4.32 2.44 0 3.96 1.47 3.96 3.7s-1.84 3.66-3.66 4.92c1.01 1.26 2.32 2.51 3.68 3.54.9-1.2 1.63-2.64 2.09-4.32h3.06c-.62 2.12-1.54 4.07-2.87 5.84 1.1.62 2.14 1.06 3.04 1.22l-.83 2.76c-1.36-.3-2.83-.9-4.25-1.79a8.25 8.25 0 0 1-5.22 1.79c-3.56 0-5.56-2.18-5.56-4.83zm5.98 2.23c.85 0 1.68-.32 2.48-.85a24.01 24.01 0 0 1-3.84-3.98c-.83.71-1.4 1.47-1.4 2.39 0 1.45 1.13 2.44 2.76 2.44zm-.44-8.46c1.33-.81 2.37-1.63 2.37-2.88 0-.85-.39-1.47-1.26-1.47-1.01 0-1.72.8-1.72 2.07 0 .71.23 1.47.62 2.28z"/><path id="L" d="M183.02 112.97h3.47l4.94 9.08 1.7 3.68h.11l-.44-5.96v-6.81h3.22V130h-3.45l-4.92-9.11-1.72-3.66h-.12l.41 5.93v6.83H183v-17.04z"/><path id="M" d="M201.17 112.97h10.49v2.85h-7.08v4.44h6.05v2.85h-6.05v6.9h-3.4v-17.04Z"/><path id="N" d="M218.93 115.83h-4.78v-2.85h13.02v2.85h-4.83v14.19h-3.4v-14.19Z"/><path id="O" d="M128 173.47c-15.83-17.08-25.51-39.94-25.51-65.07 0-29.12 13-55.2 33.51-72.76"/><path id="P" d="M217.84 202.13a95.964 95.964 0 0 1-19.6 2.01c-17.26 0-33.45-4.57-47.43-12.56"/><path id="Q" d="M278.79 56.63c9.61 14.93 15.19 32.69 15.19 51.77 0 23.08-8.17 44.25-21.77 60.78"/><path id="R" d="M173.33 15.93a96 96 0 0 1 24.9-3.27c19.83 0 38.25 6.03 53.53 16.35"/><path id="S" d="M36.73 269.79c0-2.84 1.86-4.57 4.35-4.57 1.19 0 2.13.53 2.69 1.09l-.67.72c-.51-.49-1.16-.84-2.01-.84-1.86 0-3.09 1.37-3.09 3.56s1.18 3.61 3.05 3.61c.94 0 1.65-.37 2.28-.98l.68.7c-.78.8-1.74 1.26-3.01 1.26-2.44 0-4.27-1.69-4.27-4.55z"/><path id="T" d="M80.64 273.27h2.18v-6.31h-1.74v-.71c.87-.13 1.5-.34 2.03-.62h.94v7.64h1.97v.91h-5.38v-.91Z"/><path id="U" d="m107.38 273.17.6-.72c.56.5 1.27.97 2.41.97s2.09-.75 2.09-1.94-.8-1.9-2.03-1.9c-.66 0-1.07.19-1.63.53l-.66-.37.31-4.11h4.78v.94h-3.71l-.24 2.55a3.06 3.06 0 0 1 1.46-.36c1.63 0 2.96.84 2.96 2.69s-1.55 2.89-3.21 2.89c-1.53 0-2.46-.58-3.12-1.16z"/><path id="V" d="M121.86 284.26H11.56V263.8l8-8h110.3v20.46l-8 8z"/><path id="W" d="M289.24 308.04h-110.3v-20.46l8-8h110.3v20.46l-8 8z"/><path id="X" d="M67.74 323.64h1l.11.74h.04c.66-.48 1.47-.91 2.31-.91 1.87 0 2.89 1.32 2.89 3.32 0 2.23-1.49 3.51-3.16 3.51-.66 0-1.35-.28-2.01-.76l.03 1.14v2.21h-1.22v-9.26zm5.09 3.17c0-1.44-.54-2.41-1.91-2.41-.62 0-1.24.31-1.95.9v3.42c.66.5 1.3.68 1.78.68 1.2 0 2.09-.97 2.09-2.59z"/><path id="Y" d="M120.88 340.23H10.58v-20.46l8-8h110.3v20.46l-8 8Z"/><path id="Z" d="M224.6 346.55h2.52c3.08 0 4.73 1.58 4.73 4.38s-1.65 4.43-4.68 4.43h-2.57v-8.8Zm2.41 7.89c2.37 0 3.53-1.3 3.53-3.51s-1.16-3.47-3.53-3.47h-1.13v6.98h1.13Z"/><path id="a" d="M236.07 346.55h1.41l3.4 8.8h-1.34l-.96-2.69h-3.66l-.97 2.69h-1.29l3.4-8.8zm-.83 5.23h3.04l-.48-1.34-1.01-2.97h-.05l-1 2.97-.49 1.34z"/><path id="b" d="M241.71 350.93c0-2.82 1.76-4.53 4.28-4.53s4.28 1.71 4.28 4.53-1.76 4.58-4.28 4.58-4.28-1.76-4.28-4.58Zm7.26 0c0-2.21-1.19-3.56-2.98-3.56s-2.98 1.35-2.98 3.56 1.18 3.61 2.98 3.61 2.98-1.42 2.98-3.61Z"/><path id="c" d="M289.02 365.41H179.18V345.2l8-8h109.84v20.21l-8 8z"/><path id="d" d="m54.26 383.32-2.94-5.38h1.32l1.26 2.49.96 1.92h.05l.98-1.92 1.27-2.49h1.28l-2.94 5.38v3.42h-1.25v-3.42z"/><path id="e" d="M120.88 396.82H10.58v-20.46l8-8h110.3v20.46l-8 8Z"/><path id="f" d="M222.72 406.99c0-2.84 1.94-4.57 4.59-4.57 1.39 0 2.31.55 2.88 1.09l-.68.72c-.51-.47-1.15-.84-2.17-.84-2.01 0-3.32 1.37-3.32 3.56s1.19 3.61 3.35 3.61c.71 0 1.41-.19 1.8-.52v-2.3h-2.12v-.92h3.28v3.69c-.64.59-1.75 1.02-3.1 1.02-2.62 0-4.51-1.69-4.51-4.55z"/><path id="g" d="M232.04 408.13c0-2.11 1.63-3.43 3.35-3.43 1.89 0 2.95 1.2 2.95 3.06a4.7 4.7 0 0 1-.05.62h-5c.08 1.39 1.05 2.28 2.46 2.28.72 0 1.31-.19 1.86-.52l.45.72c-.66.37-1.45.67-2.46.67-1.97 0-3.55-1.26-3.55-3.41zm5.21-.54c0-1.31-.68-2.01-1.85-2.01-1.05 0-1.98.74-2.13 2.01h3.98z"/><path id="h" d="M240.39 409.36v-3.61h-1.11v-.83l1.16-.06.15-1.83h1.04v1.83h2.01v.89h-2.01v3.63c0 .8.29 1.26 1.15 1.26.26 0 .6-.08.85-.17l.25.82c-.42.12-.92.24-1.37.24-1.59 0-2.12-.88-2.12-2.17z"/><path id="i" d="M245.33 401.83h1.24v2.61l-.04 1.34c.68-.6 1.45-1.09 2.46-1.09 1.56 0 2.27.89 2.27 2.55v4.13h-1.24v-3.98c0-1.22-.42-1.74-1.41-1.74-.77 0-1.29.34-2.04 1v4.73h-1.24v-9.55z"/><path id="j" d="M289.02 421.44H179.18v-20.21l8-8h109.84v20.21l-8 8z"/><path id="k" d="M120.88 452.32H10.58v-20.46l8-8h110.3v20.46l-8 8z"/></defs><g class="L P"><path d="m154.11 231.94 23.5-.18 21.51-27.7" class="M O"/><path d="m154.11 231.94 23.5-.18 21.51-27.7" class="N"/></g><use xlink:href="#A" x="151" y="350" class="R"/><g class="L P"><path d="M179.17 354.06h-24.44" class="M O"/><path d="M179.17 354.06h-24.44" class="N"/></g><use xlink:href="#A" x="151" y="406" class="R"/><g class="L P"><path d="M179.17 410.06h-24.44" class="M O"/><path d="M179.17 410.06h-24.44" class="N"/></g><g class="L P"><path d="M129.86 438.09h24.51v-207.2" class="M O"/><path d="M129.86 438.09h24.51v-207.2" class="N"/></g><use xlink:href="#A" x="150" y="294" class="R"/><g class="L P"><path d="M178.47 298.06h-24.75" class="M O"/><path d="M178.47 298.06h-24.75" class="N"/></g><use xlink:href="#B" x="126" y="266" class="R"/><g class="L P"><path d="M153.66 270.04h-23.8" class="M O"/><path d="M153.66 270.04h-23.8" class="N"/></g><use xlink:href="#B" x="126" y="322" class="R"/><g class="L P"><path d="M153.66 326.01h-23.8" class="M O"/><path d="M153.66 326.01h-23.8" class="N"/></g><use xlink:href="#B" x="126" y="378" class="R"/><g class="L P"><path d="M153.18 382.06h-23.8" class="M O"/><path d="M153.18 382.06h-23.8" class="N"/></g><use xlink:href="#E"/><use xlink:href="#F"/><use xlink:href="#G"/><use xlink:href="#H"/><use xlink:href="#I"/><use xlink:href="#J"/><use xlink:href="#K"/><use xlink:href="#L"/><use xlink:href="#M"/><use xlink:href="#N"/><use xlink:href="#J" x="-1.76" y="25"/><g class="S"><use xlink:href="#E"/><use xlink:href="#F"/><use xlink:href="#G"/><use xlink:href="#H"/><use xlink:href="#I"/><use xlink:href="#J"/><use xlink:href="#K"/><use xlink:href="#L"/><use xlink:href="#M"/><use xlink:href="#N"/><use xlink:href="#J" x="-1.76" y="25"/></g><g class="L"><circle cx="198.2" cy="108.62" r="84.46" class="M O"/><circle cx="198.2" cy="108.62" r="84.46" class="N"/></g><g class="L"><circle cx="198.39" cy="108.61" r="95.74" class="M O"/><circle cx="198.39" cy="108.61" r="95.74" class="N"/></g><g class="L T U"><use xlink:href="#O" class="M V"/><use xlink:href="#O" class="N Q"/></g><g class="L T U"><use xlink:href="#P" class="M V"/><use xlink:href="#P" class="N Q"/></g><g class="L T U"><use xlink:href="#Q" class="M V"/><use xlink:href="#Q" class="N Q"/></g><g class="L T U"><use xlink:href="#R" class="M V"/><use xlink:href="#R" class="N Q"/></g><g opacity=".2"><path fill="#0ff" d="M200.73 34.6h-5.23v-4.59h5.23v4.59zm-16.127-3.443 5.179-.728.637 4.535-5.179.728zm-10.62 2.644 5.027-1.442 1.262 4.403-5.027 1.442zm-10.174 4.105 4.778-2.127 1.863 4.184-4.778 2.127zm-9.479 5.47 4.435-2.771 2.427 3.884-4.435 2.771zm-8.629 6.741 4.006-3.362 2.944 3.508-4.006 3.362zm-7.617 7.882 3.5-3.887 3.404 3.065-3.5 3.887zm-6.439 8.864 2.925-4.336 3.797 2.561-2.925 4.336zm-5.139 9.662 2.293-4.701 4.116 2.008-2.293 4.701zm-3.75 10.302 1.616-4.974 4.356 1.415-1.616 4.974zm-2.283 10.704.908-5.151 4.51.795-.908 5.151zm-.767 10.928.183-5.227 4.577.16-.183 5.227zm.759 10.925-.547-5.201 4.555-.479.547 5.201zm2.284 10.709-1.265-5.075 4.444-1.108 1.265 5.075zm3.734 10.305-1.959-4.849 4.247-1.716 1.959 4.849zm5.141 9.667-2.615-4.529 3.966-2.29 2.615 4.529zm6.437 8.868-3.22-4.121 3.609-2.82 3.22 4.121zm7.611 7.888-3.762-3.633 3.182-3.295 3.762 3.633zm8.631 6.737-4.231-3.074 2.692-3.705 4.231 3.074zm9.486 5.487-4.618-2.455 2.15-4.044 4.618 2.455zm10.143 4.094-4.915-1.789 1.566-4.304 4.915 1.789zm10.632 2.653-5.116-1.087.952-4.48 5.116 1.087zm10.898 1.151-5.217-.365.319-4.569 5.217.365zm10.94-.387-5.217.365-.319-4.569 5.217-.365zm10.797-1.886-5.116 1.087-.952-4.48 5.116-1.087zm10.417-3.389-4.915 1.789-1.566-4.304 4.915-1.789zm9.835-4.791-4.618 2.455-2.15-4.044 4.618-2.455zm9.092-6.134-4.231 3.074-2.692-3.705 4.231-3.074zm8.139-7.33-3.762 3.633-3.182-3.295 3.762-3.633zm7.044-8.386-3.22 4.121-3.609-2.82 3.22-4.121zm5.81-9.28-2.615 4.529-3.966-2.29 2.615-4.529zm4.451-10.012-1.959 4.849-4.247-1.716 1.959-4.849zm3.024-10.526-1.265 5.075-4.444-1.108 1.265-5.075zm1.518-10.85-.547 5.201-4.555-.479.547-5.201zm.017-10.958.183 5.227-4.577.16-.183-5.227zm-1.526-10.84.908 5.151-4.51.795-.908-5.151zM272 81.642l1.616 4.974-4.356 1.415-1.616-4.974zm-6.28-3.292-2.29-4.7 2.02-.99 2.1-1.02 2.29 4.7-4.12 2.01z"/><path d="M200.57 33.53c17.77.48 33.55 7.89 46.07 18.64" class="L M O P"/><path stroke-width="4.3" d="m247.26 51.08 2.67 2.39c5.94 5.58 12.51 13.48 16.42 20.69" class="L M P"/></g><g class="S"><path d="M20.91 265.38h5.66v.95h-4.42v2.76h3.72v.95h-3.72v3.2h4.56v.95H20.9v-8.8zm7.87 0h3.08c1.99 0 3.43.65 3.43 2.48 0 1.37-.88 2.18-2.22 2.47l2.52 3.85h-1.4l-2.38-3.73h-1.77v3.73h-1.25v-8.8zm2.89 4.17c1.54 0 2.38-.55 2.38-1.69s-.84-1.57-2.38-1.57h-1.65v3.26h1.65z"/><use xlink:href="#S"/><path d="M45.09 273.53c2.88-2.57 4.5-4.1 4.5-5.5 0-.97-.59-1.67-1.81-1.67-.8 0-1.5.46-2.03 1.02l-.71-.61c.8-.78 1.65-1.29 2.89-1.29 1.75 0 2.85 1 2.85 2.51 0 1.61-1.63 3.2-3.89 5.34l1.61-.08h2.77v.95H45.1v-.65zm7.49-3.65c0-2.87 1.16-4.4 3.06-4.4s3.05 1.55 3.05 4.4-1.15 4.46-3.05 4.46-3.06-1.6-3.06-4.46zm4.92 0c0-2.51-.75-3.53-1.86-3.53s-1.87 1.02-1.87 3.53.75 3.59 1.87 3.59 1.86-1.08 1.86-3.59zm6.02-5.22h.88l-4 11.67h-.9l4.01-11.67zm6.49 1.91h-4.75v-.94h6.14v.67c-2.25 2.59-2.73 4.55-2.88 7.88h-1.27c.16-3.23.88-5.26 2.76-7.62zm2.61 6.96c2.88-2.57 4.5-4.1 4.5-5.5 0-.97-.59-1.67-1.81-1.67-.8 0-1.5.46-2.03 1.02l-.71-.61c.8-.78 1.65-1.29 2.89-1.29 1.75 0 2.85 1 2.85 2.51 0 1.61-1.63 3.2-3.89 5.34l1.61-.08h2.77v.95h-6.17v-.65z"/><use xlink:href="#T"/><path d="M91.06 264.66h.88l-4 11.67h-.9l4.01-11.67Z"/><use xlink:href="#T" x="12.68"/><use xlink:href="#T" x="20.11"/><use xlink:href="#U"/><use xlink:href="#U" x="7.42"/></g><use xlink:href="#C" x="1" y="245"/><g class="L P"><use xlink:href="#V" class="M Q"/><use xlink:href="#V" class="N O"/></g><path d="M227.06 289.16h2.46c3.01 0 4.63 1.58 4.63 4.38s-1.62 4.43-4.58 4.43h-2.52v-8.8zm2.35 7.89c2.31 0 3.45-1.3 3.45-3.51s-1.14-3.47-3.45-3.47h-1.11v6.98h1.11zm6.85-7.89h5.66v.95h-4.42v2.76h3.72v.95h-3.72v3.2h4.56v.95h-5.81v-8.8zm9.63 4.26-2.68-4.26h1.37l1.34 2.25.78 1.28h.05l.7-1.28 1.31-2.25h1.3l-2.68 4.32 2.86 4.49h-1.36l-1.45-2.38-.84-1.42h-.05l-.79 1.42-1.42 2.38h-1.3l2.86-4.55z" class="S"/><g class="L P"><use xlink:href="#W" class="M Q"/><use xlink:href="#W" class="N O"/></g><g class="S"><path d="M50.79 326.9c0-2.11 1.49-3.43 3.14-3.43.86 0 1.41.29 2.05.77l-.05-1.13v-2.51h1.2v9.55h-.99l-.11-.77h-.04c-.58.5-1.34.92-2.21.92-1.82 0-3-1.24-3-3.41zm5.14 1.59v-3.42c-.63-.49-1.18-.68-1.78-.68-1.18 0-2.1 1.01-2.1 2.5 0 1.57.72 2.51 2.01 2.51.67 0 1.26-.3 1.87-.9zm5.83-7.14h1.38l3.33 8.8h-1.31l-.94-2.69h-3.59l-.95 2.69h-1.26l3.33-8.8zm-.82 5.23h2.97l-.47-1.34-.99-2.97h-.05l-.98 2.97-.48 1.34z"/><use xlink:href="#X"/><use xlink:href="#X" x="8.3"/><path d="m83.52 329.41.6-.72c.63.46 1.29.77 2.15.77.96 0 1.43-.46 1.43-1.02 0-.67-.86-.96-1.66-1.24-1.02-.34-2.13-.78-2.13-1.88 0-1.03.94-1.85 2.52-1.85.9 0 1.69.34 2.25.73l-.59.71c-.5-.34-1-.58-1.65-.58-.92 0-1.35.43-1.35.94 0 .62.75.85 1.57 1.13 1.06.36 2.22.74 2.22 1.98 0 1.06-.94 1.93-2.65 1.93-1.03 0-2.02-.38-2.72-.9z"/></g><use xlink:href="#C" y="301"/><g class="L P"><use xlink:href="#Y" class="M Q"/><use xlink:href="#Y" class="N O"/></g><use xlink:href="#Z"/><use xlink:href="#a"/><use xlink:href="#b"/><g class="S"><use xlink:href="#Z"/><use xlink:href="#a"/><use xlink:href="#b"/></g><use xlink:href="#D" x="168" y="326"/><g class="L P"><use xlink:href="#c" class="M Q"/><use xlink:href="#c" class="N O"/></g><g class="S"><path d="M44.02 377.94h1.24v4.42h.04l4.1-4.42h1.39l-3.06 3.36 3.55 5.45H49.9l-2.94-4.58-1.69 1.8v2.78h-1.24v-8.8z"/><use xlink:href="#d"/><use xlink:href="#S" x="22.48" y="112.56"/><path d="M71.14 377.22h.88l-4 11.67h-.9l4.01-11.67zm2.42.72h1.24v4.42h.04l4.1-4.42h1.39l-3.06 3.36 3.55 5.45h-1.38l-2.94-4.58-1.69 1.8v2.78h-1.24v-8.8z"/><use xlink:href="#d" x="29.54"/><path d="M89.32 377.94h2.92c1.99 0 3.37.61 3.37 2.16 0 .88-.52 1.64-1.43 1.91v.06c1.16.2 1.99.9 1.99 2.1 0 1.73-1.53 2.58-3.72 2.58h-3.13v-8.8zm2.7 3.75c1.69 0 2.37-.56 2.37-1.45 0-1.03-.79-1.42-2.31-1.42h-1.51v2.87h1.46zm.25 4.16c1.69 0 2.68-.54 2.68-1.73 0-1.09-.96-1.6-2.68-1.6h-1.71v3.32h1.71z"/></g><g class="L P"><use xlink:href="#e" class="M Q"/><use xlink:href="#e" class="N O"/></g><use xlink:href="#f"/><use xlink:href="#g"/><use xlink:href="#h"/><use xlink:href="#i"/><g class="S"><use xlink:href="#f"/><use xlink:href="#g"/><use xlink:href="#h"/><use xlink:href="#i"/></g><use xlink:href="#D" x="168" y="382"/><g class="L P"><use xlink:href="#j" class="M Q"/><use xlink:href="#j" class="N O"/></g><path d="M52.41 433.43h1.25v8.8h-1.25v-8.8zm3.81 2.29h1l.11.94h.04c.7-.61 1.44-1.1 2.44-1.1 1.53 0 2.22.89 2.22 2.55v4.13h-1.22v-3.98c0-1.22-.41-1.74-1.38-1.74-.75 0-1.26.34-1.99 1v4.73h-1.22v-6.51zm8.38.89h-.99v-.83l.99-.06v-1.04c0-1.32.67-2.15 2.11-2.15.44 0 .88.08 1.22.22l-.27.83a2.23 2.23 0 0 0-.82-.17c-.7 0-1.03.44-1.03 1.28v1.03h1.54v.89h-1.54v5.62h-1.22v-5.62zm4.06 3.24v-4.13h1.22v3.99c0 1.21.4 1.73 1.37 1.73.75 0 1.27-.32 1.97-1.1v-4.62h1.22v6.51h-1.02l-.09-1.02h-.04c-.68.71-1.41 1.18-2.41 1.18-1.53 0-2.21-.89-2.21-2.54zm8.22-4.13h1l.11 1.19h.04c.51-.83 1.24-1.36 2.06-1.36.32 0 .55.04.78.14l-.23.96c-.24-.08-.42-.11-.71-.11-.6 0-1.35.38-1.83 1.5v4.19h-1.22v-6.51zm4.74 4.82c0-1.42 1.38-2.12 4.47-2.43 0-.84-.31-1.64-1.5-1.64-.84 0-1.61.35-2.18.7l-.48-.76c.67-.38 1.7-.85 2.86-.85 1.77 0 2.52 1.07 2.52 2.67v4.01h-1l-.11-.78h-.04c-.7.52-1.51.94-2.41.94-1.22 0-2.13-.67-2.13-1.85zm4.47.11v-1.82c-2.45.26-3.28.8-3.28 1.64 0 .74.56 1.04 1.28 1.04s1.28-.3 1.99-.86z" class="S"/><g class="L P"><use xlink:href="#k" class="M Q"/><use xlink:href="#k" class="N O"/></g></svg>