<svg xmlns="http://www.w3.org/2000/svg" xmlns:xlink="http://www.w3.org/1999/xlink" viewBox="0 0 1168 507"><style>.N{fill:none}.O{stroke:#0ff}.P{stroke:#fff}.Q{stroke-miterlimit:10}.R{stroke-width:6}.S{stroke-width:3}.T{fill:#fff}.U{stroke-linecap:round}.V{stroke-linejoin:round}.W{stroke-width:13}.X{stroke-width:8}</style><defs><path id="C" d="M507.23 227.47h-9.83v-5.86h26.75v5.86h-9.92v29.16h-6.99v-29.16Z"/><path id="D" d="M529.48 243.4c0-8.79 6.1-13.89 12.71-13.89s12.71 5.1 12.71 13.89-6.1 13.89-12.71 13.89-12.71-5.1-12.71-13.89Zm18.34 0c0-4.96-2.03-8.22-5.62-8.22s-5.62 3.26-5.62 8.22 2.03 8.22 5.62 8.22 5.62-3.21 5.62-8.22Z"/><path id="E" d="M562.61 218.92h6.85v22.64h.19l9.03-11.39h7.61l-9.07 10.92 9.92 15.55h-7.51l-6.43-10.96-3.73 4.25v6.71h-6.85v-37.71Z"/><path id="F" d="M591.43 243.4c0-8.55 6.05-13.89 12.33-13.89 7.28 0 11.06 5.34 11.06 12.62 0 1.32-.14 2.6-.33 3.21h-16.3c.57 4.35 3.4 6.62 7.32 6.62 2.17 0 4.06-.66 5.96-1.84l2.36 4.25c-2.6 1.8-5.95 2.93-9.21 2.93-7.42 0-13.18-5.15-13.18-13.89Zm17.44-2.69c0-3.54-1.61-5.81-5.01-5.81-2.79 0-5.24 1.99-5.77 5.81h10.78Z"/><path id="G" d="M622.43 230.17h5.67l.52 3.5h.14c2.31-2.27 5.01-4.16 8.6-4.16 5.72 0 8.18 3.97 8.18 10.63v16.49h-6.95v-15.64c0-4.11-1.13-5.53-3.73-5.53-2.17 0-3.54 1.04-5.48 2.98v18.19h-6.95v-26.46Z"/><path id="H" d="m652.11 253.56 3.17-4.35c2.36 1.84 4.63 2.88 7.09 2.88 2.65 0 3.83-1.13 3.83-2.79 0-1.98-2.74-2.88-5.53-3.97-3.36-1.28-7.09-3.31-7.09-7.75 0-4.73 3.83-8.08 9.88-8.08 3.83 0 6.8 1.61 8.98 3.26l-3.12 4.21c-1.89-1.37-3.73-2.27-5.67-2.27-2.41 0-3.54 1.04-3.54 2.55 0 1.94 2.46 2.65 5.25 3.69 3.5 1.32 7.37 3.07 7.37 7.99 0 4.63-3.64 8.36-10.54 8.36-3.54 0-7.42-1.56-10.07-3.73Z"/><path id="I" d="M505.43 297.37c0-4.87 3.07-7.7 6.57-9.92-1.42-2.65-2.22-5.25-2.22-7.56 0-4.87 3.59-8.88 9.17-8.88 5.01 0 8.13 3.02 8.13 7.61s-3.78 7.51-7.51 10.11c2.08 2.6 4.77 5.15 7.56 7.28 1.84-2.46 3.36-5.43 4.3-8.88h6.29c-1.28 4.35-3.17 8.36-5.91 12 2.27 1.28 4.39 2.17 6.24 2.5l-1.7 5.67c-2.79-.61-5.81-1.84-8.74-3.69-2.88 2.27-6.43 3.69-10.73 3.69-7.32 0-11.44-4.49-11.44-9.92zm12.29 4.58c1.75 0 3.45-.66 5.1-1.75-2.98-2.46-5.67-5.25-7.89-8.18-1.7 1.46-2.88 3.02-2.88 4.92 0 2.98 2.32 5.01 5.67 5.01zm-.9-17.39c2.74-1.65 4.87-3.36 4.87-5.91 0-1.75-.8-3.02-2.6-3.02-2.08 0-3.54 1.65-3.54 4.25 0 1.46.47 3.02 1.28 4.68z"/><path id="J" d="M548.91 271.62h7.13l10.16 18.67 3.5 7.56h.24c-.33-3.64-.9-8.27-.9-12.24v-13.99h6.62v35.02h-7.09l-10.11-18.71-3.54-7.51h-.24c.33 3.78.85 8.18.85 12.19v14.04h-6.62v-35.02z"/><path id="K" d="M586.19 271.62h21.55v5.86h-14.55v9.12h12.43v5.86h-12.43v14.18h-6.99v-35.02Z"/><path id="L" d="M622.67 277.47h-9.83v-5.86h26.75v5.86h-9.92v29.16h-6.99v-29.16Z"/><path id="M" d="m644.07 303.56 3.17-4.35c2.36 1.84 4.63 2.88 7.09 2.88 2.65 0 3.83-1.13 3.83-2.79 0-1.98-2.74-2.88-5.53-3.97-3.36-1.28-7.09-3.31-7.09-7.75 0-4.73 3.83-8.08 9.88-8.08 3.83 0 6.8 1.61 8.98 3.26l-3.12 4.21c-1.89-1.37-3.73-2.27-5.67-2.27-2.41 0-3.54 1.04-3.54 2.55 0 1.94 2.46 2.65 5.25 3.69 3.5 1.32 7.37 3.07 7.37 7.99 0 4.63-3.64 8.36-10.54 8.36-3.54 0-7.42-1.56-10.06-3.73Z"/><path id="N" d="M449.04 382.55c-30.34-32.73-48.89-76.55-48.89-124.7 0-55.8 24.91-105.79 64.22-139.44"/><path id="O" d="M621.21 437.49a184.51 184.51 0 0 1-37.57 3.85c-33.07 0-64.1-8.75-90.9-24.06"/><path id="P" d="M738.02 158.64c18.42 28.6 29.11 62.66 29.11 99.21 0 44.23-15.65 84.81-41.71 116.49"/><path id="Q" d="M535.92 80.63c15.22-4.09 31.21-6.27 47.72-6.27 38 0 73.3 11.55 102.59 31.34"/><path id="R" d="M229.87 108.61h4.55V95.46h-3.63v-1.47c1.81-.28 3.12-.7 4.24-1.3h1.95v15.92h4.1v1.9h-11.21v-1.9z"/><path id="S" d="m259.71 108.41 1.25-1.5c1.17 1.05 2.65 2.02 5.02 2.02s4.35-1.58 4.35-4.05-1.67-3.95-4.24-3.95c-1.37 0-2.23.4-3.4 1.1l-1.37-.78.64-8.57h9.96v1.95h-7.73l-.5 5.32c.92-.45 1.81-.75 3.04-.75 3.4 0 6.17 1.75 6.17 5.6s-3.24 6.02-6.69 6.02c-3.18 0-5.13-1.2-6.5-2.42z"/><path id="T" d="M303.27 133.73H45.23V84.32l15-15h258.04v49.41l-15 15z"/><path id="U" d="M287.16 282.17h-254V233.8l15-15h254v48.37l-15 15z"/><path id="V" d="M303.27 432.52h-254v-48.37l15-15h254v48.37l-15 15z"/><path id="W" d="M178.8 396.18h2.51l.27 1.86h.1c1.64-1.2 3.68-2.28 5.79-2.28 4.68 0 7.23 3.3 7.23 8.31 0 5.58-3.71 8.79-7.9 8.79-1.64 0-3.38-.69-5.02-1.89l.07 2.85v5.52h-3.05v-23.16zm12.72 7.92c0-3.6-1.34-6.03-4.79-6.03-1.54 0-3.11.78-4.88 2.25v8.55c1.64 1.26 3.25 1.71 4.45 1.71 3.01 0 5.22-2.43 5.22-6.48z"/><path id="X" d="M1074.33 96.41h-254V48.04l15-15h254v48.37l-15 15z"/><path id="Y" d="M934.32 179.82h3.11v11.07h.1l10.24-11.07h3.48l-7.66 8.4 8.87 13.62h-3.45l-7.36-11.46-4.22 4.5v6.96h-3.11v-22.02Z"/><path id="Z" d="m960.25 193.29-7.36-13.47h3.31l3.15 6.24 2.41 4.8h.13l2.44-4.8 3.18-6.24h3.21l-7.36 13.47v8.55h-3.11v-8.55z"/></defs><g class="N Q"><path d="m690.72 407.48 41.91 43.59h87.7" class="O R"/><path d="m690.72 407.48 41.91 43.59h87.7" class="P S"/></g><g class="N Q"><path d="M757.2 197.72h108.26" class="O R"/><path d="M757.2 197.72h108.26" class="P S"/></g><g class="N Q"><path d="M755.09 324.48h108.27" class="O R"/><path d="M755.09 324.48h108.27" class="P S"/></g><g class="N U V"><path d="M820.33 69.35h-94.55 0l-45.98 31.82" class="O R"/><path d="M820.33 69.35h-94.55 0l-45.98 31.82" class="P S"/></g><g class="N Q"><path d="M405.98 397.64h-87.71" class="O R"/><path d="M405.98 397.64h-87.71" class="P S"/></g><g class="N Q"><path d="m434.14 366.71-28.16 30.93" class="O R"/><path d="m434.14 366.71-28.16 30.93" class="P S"/></g><g class="N Q"><path d="M395.42 247.09h-93.26" class="O R"/><path d="M395.42 247.09h-93.26" class="P S"/></g><g class="N U V"><path d="M318.82 98.24h94.56l36.85 25.51" class="O R"/><path d="M318.82 98.24h94.56l36.85 25.51" class="P S"/></g><use xlink:href="#C"/><use xlink:href="#D"/><use xlink:href="#E"/><use xlink:href="#F"/><use xlink:href="#G"/><use xlink:href="#H"/><use xlink:href="#I"/><use xlink:href="#J"/><use xlink:href="#K"/><use xlink:href="#L"/><use xlink:href="#M"/><g class="T"><use xlink:href="#C"/><use xlink:href="#D"/><use xlink:href="#E"/><use xlink:href="#F"/><use xlink:href="#G"/><use xlink:href="#H"/><use xlink:href="#I"/><use xlink:href="#J"/><use xlink:href="#K"/><use xlink:href="#L"/><use xlink:href="#M"/></g><g class="N"><circle cx="583.57" cy="258.28" r="161.87" stroke-width="2" class="O"/><circle cx="583.57" cy="258.28" r="161.87" class="P"/></g><g class="N"><circle cx="583.94" cy="258.25" r="183.49" stroke-width="4" class="O"/><circle cx="583.94" cy="258.25" r="183.49" class="P"/></g><g class="N U V"><use xlink:href="#N" class="O W"/><use xlink:href="#N" class="P X"/></g><g class="N U V"><use xlink:href="#O" class="O W"/><use xlink:href="#O" class="P X"/></g><g class="N U V"><use xlink:href="#P" class="O W"/><use xlink:href="#P" class="P X"/></g><g class="N U V"><use xlink:href="#Q" class="O W"/><use xlink:href="#Q" class="P X"/></g><g opacity=".2"><path fill="#0ff" d="M588.42 116.41H578.4v-8.78h10.02V116.41zm-30.902-6.601 9.932-1.396 1.223 8.704-9.932 1.396zm-20.365 5.081 9.641-2.765 2.423 8.449-9.641 2.765zm-19.464 7.854 9.163-4.08 3.575 8.03-9.163 4.08zm-18.186 10.489 8.506-5.315 4.658 7.454-8.506 5.315zm-16.542 12.925 7.683-6.447 5.65 6.734-7.683 6.447zm-14.583 15.097 6.711-7.454 6.532 5.882-6.711 7.454zm-12.349 16.973 5.609-8.315 7.287 4.915-5.609 8.315zm-9.863 18.54 4.397-9.015 7.9 3.853-4.397 9.015zm-7.185 19.721 3.099-9.539 8.36 2.716-3.099 9.539zm-4.36 20.528 1.742-9.878 8.656 1.526-1.742 9.878zm-1.482 20.956.35-10.024 8.785.307-.35 10.024zm1.461 20.936-1.048-9.975 8.742-.919 1.048 9.975zm4.362 20.527-2.426-9.732 8.529-2.126 2.426 9.732zm7.175 19.726-3.757-9.3 8.15-3.293 3.757 9.3zm9.849 18.546-5.015-8.686 7.612-4.395 5.015 8.686zm12.336 16.991-6.175-7.904 6.927-5.412 6.175 7.904zm14.581 15.099-7.215-6.967 6.106-6.323 7.215 6.967zm16.538 12.926-8.114-5.895 5.167-7.111 8.114 5.895zm18.174 10.497-8.856-4.709 4.127-7.761 8.856 4.709zm19.471 7.873-9.425-3.43 3.006-8.26 9.425 3.43zm20.355 5.082-9.811-2.085 1.828-8.598 9.811 2.085zm20.884 2.202-10.006-.7.613-8.769 10.006.7zm20.972-.72-10.006.7-.613-8.769 10.006-.7zm20.686-3.649-9.811 2.085-1.828-8.598 9.811-2.085zm19.959-6.484-9.425 3.43-3.006-8.26 9.425-3.43zm18.867-9.189-8.856 4.709-4.127-7.761 8.856-4.709zm17.402-11.742-8.114 5.895-5.167-7.111 8.114-5.895zm15.609-14.041-7.215 6.967-6.106-6.323 7.215-6.967zm13.501-16.078-6.175 7.904-6.927-5.412 6.175-7.904zm11.122-17.798-5.015 8.686-7.612-4.395 5.015-8.686zm8.542-19.17-3.757 9.3-8.15-3.293 3.757-9.3zm5.798-20.183-2.426 9.732-8.529-2.126 2.426-9.732zm2.931-20.793-1.048 9.975-8.742-.919 1.048-9.975zm-.009-20.996.35 10.024-8.785.307-.35-10.024zm-2.909-20.777 1.742 9.878-8.656 1.526-1.742-9.878zm-5.781-20.187 3.099 9.539-8.36 2.716-3.099-9.539zm-12.035-6.311-4.39-9.01 3.88-1.9 4.01-1.95 4.4 9.01-7.9 3.85z"/><path stroke-width="2" d="M587.74 115.75c34.06.92 65.01 13.72 89 34.32" class="N O Q"/><path stroke-width="10" d="m678.84 147.86 5.11 4.59a146.527 146.527 0 0 1 28.51 36.99" class="N O Q"/></g><g class="T"><path d="M76.22 92.17h11.8v1.97h-9.2v5.75h7.75v1.97h-7.75v6.67h9.51v1.97H76.22V92.15zm16.68 0h6.42c4.16 0 7.14 1.35 7.14 5.17 0 2.85-1.84 4.55-4.63 5.15l5.24 8.02h-2.93l-4.96-7.77H95.5v7.77h-2.59V92.16zm6.03 8.7c3.21 0 4.96-1.15 4.96-3.52s-1.76-3.27-4.96-3.27H95.5v6.8h3.43zm10.82.49c0-5.92 3.88-9.52 9.06-9.52 2.48 0 4.44 1.1 5.61 2.28l-1.4 1.5c-1.06-1.02-2.43-1.75-4.18-1.75-3.88 0-6.44 2.85-6.44 7.42s2.46 7.52 6.36 7.52c1.95 0 3.43-.78 4.74-2.05l1.42 1.45c-1.62 1.67-3.63 2.62-6.28 2.62-5.08 0-8.9-3.52-8.9-9.47zm17.68 7.8c6-5.35 9.37-8.55 9.37-11.47 0-2.02-1.23-3.47-3.77-3.47-1.67 0-3.12.95-4.24 2.12l-1.48-1.27c1.67-1.62 3.43-2.7 6.02-2.7 3.65 0 5.94 2.07 5.94 5.22 0 3.35-3.4 6.67-8.12 11.12 1.06-.08 2.29-.17 3.35-.17h5.77v1.97h-12.86v-1.35zm15.9-7.62c0-5.97 2.43-9.17 6.39-9.17s6.36 3.22 6.36 9.17-2.4 9.3-6.36 9.3-6.39-3.32-6.39-9.3zm10.26 0c0-5.22-1.56-7.35-3.88-7.35s-3.9 2.12-3.9 7.35 1.56 7.47 3.9 7.47 3.88-2.25 3.88-7.47zm12.8-10.87h1.84l-8.34 24.32h-1.87l8.37-24.32zm13.81 3.97h-9.9v-1.95h12.8v1.4c-4.69 5.4-5.69 9.47-6 16.42h-2.65c.33-6.72 1.84-10.97 5.75-15.87zm5.71 14.52c6-5.35 9.37-8.55 9.37-11.47 0-2.02-1.23-3.47-3.77-3.47-1.67 0-3.12.95-4.24 2.12l-1.48-1.27c1.67-1.62 3.43-2.7 6.03-2.7 3.65 0 5.94 2.07 5.94 5.22 0 3.35-3.4 6.67-8.12 11.12 1.06-.08 2.29-.17 3.35-.17h5.77v1.97H185.9v-1.35zm16.99-.55h4.55V95.46h-3.63v-1.47c1.81-.28 3.12-.7 4.24-1.3h1.95v15.92h4.1v1.9H202.9v-1.9zm21.98-17.94h1.84l-8.34 24.32h-1.87l8.37-24.32z"/><use xlink:href="#R"/><use xlink:href="#R" x="15.75"/><use xlink:href="#S"/><use xlink:href="#S" x="15.76"/></g><g class="N Q"><use xlink:href="#T" class="O R"/><use xlink:href="#T" class="P S"/></g><use xlink:href="#B" y="185"/><g class="N Q"><use xlink:href="#U" class="O R"/><use xlink:href="#U" class="P S"/></g><path d="M140.19 238.31h6.16c7.53 0 11.58 3.96 11.58 10.95s-4.05 11.07-11.44 11.07h-6.29v-22.02zm5.89 19.74c5.79 0 8.63-3.24 8.63-8.79s-2.84-8.67-8.63-8.67h-2.78v17.46h2.78zm17.44-19.74h14.15v2.37h-11.04v6.9h9.3v2.37h-9.3v8.01h11.41v2.37h-14.52v-22.02zm24.39 10.65-6.69-10.65h3.41l3.35 5.64 1.94 3.21h.13l1.74-3.21 3.28-5.64h3.25l-6.69 10.8 7.16 11.22h-3.41l-3.61-5.94-2.11-3.54h-.13l-1.97 3.54-3.55 5.94h-3.25l7.16-11.37z" class="T"/><g class="N Q"><use xlink:href="#V" class="O R"/><use xlink:href="#V" class="P S"/></g><g class="T"><path d="M135.76 404.34c0-5.28 3.71-8.58 7.86-8.58 2.14 0 3.51.72 5.12 1.92l-.13-2.82v-6.27h3.01v23.88h-2.48l-.27-1.92h-.1c-1.44 1.26-3.35 2.31-5.52 2.31-4.55 0-7.5-3.09-7.5-8.52zm12.85 3.99v-8.55c-1.57-1.23-2.94-1.71-4.45-1.71-2.95 0-5.25 2.52-5.25 6.24 0 3.93 1.81 6.27 5.02 6.27 1.67 0 3.15-.75 4.68-2.25zm14.9-17.88h3.45l8.33 22.02h-3.28l-2.34-6.72h-8.97l-2.38 6.72h-3.15l8.33-22.02zm-2.04 13.08h7.43l-1.17-3.36-2.48-7.44h-.13l-2.44 7.44-1.2 3.36z"/><use xlink:href="#W"/><use xlink:href="#W" x="21.09"/><path d="m218.93 410.61 1.51-1.8c1.57 1.14 3.21 1.92 5.39 1.92 2.41 0 3.58-1.14 3.58-2.55 0-1.68-2.14-2.4-4.15-3.09-2.54-.84-5.32-1.95-5.32-4.71 0-2.58 2.34-4.62 6.29-4.62 2.24 0 4.22.84 5.62 1.83l-1.47 1.77c-1.24-.84-2.51-1.44-4.12-1.44-2.31 0-3.38 1.08-3.38 2.34 0 1.56 1.87 2.13 3.92 2.82 2.64.9 5.55 1.86 5.55 4.95 0 2.64-2.34 4.83-6.63 4.83-2.58 0-5.05-.96-6.79-2.25Z"/></g><g class="N Q"><use xlink:href="#X" class="O R"/><use xlink:href="#X" class="P S"/></g><path d="M923.78 53.7h6.16c7.53 0 11.58 3.96 11.58 10.95s-4.05 11.07-11.44 11.07h-6.29V53.7zm5.89 19.74c5.79 0 8.63-3.24 8.63-8.79s-2.84-8.67-8.63-8.67h-2.78v17.46h2.78zm22.52-19.74h3.45l8.33 22.02h-3.28L958.35 69h-8.97L947 75.72h-3.15l8.33-22.02zm-2.04 13.08h7.43l-1.17-3.36-2.48-7.44h-.13l-2.44 7.44-1.2 3.36zm16.19-2.13c0-7.05 4.32-11.34 10.47-11.34s10.47 4.29 10.47 11.34-4.32 11.46-10.47 11.46-10.47-4.41-10.47-11.46zm17.77 0c0-5.52-2.91-8.91-7.29-8.91s-7.29 3.39-7.29 8.91 2.88 9.03 7.29 9.03 7.29-3.54 7.29-9.03z" class="T"/><use xlink:href="#A" x="832" y="125"/><g class="N Q"><use xlink:href="#V" x="816.19" y="-210.38" class="O R"/><use xlink:href="#V" x="816.19" y="-210.38" class="P S"/></g><g class="T"><use xlink:href="#Y"/><use xlink:href="#Z"/><path d="M972.97 190.86c0-7.11 4.65-11.43 10.88-11.43 2.98 0 5.32 1.32 6.73 2.73l-1.67 1.8c-1.27-1.23-2.91-2.1-5.02-2.1-4.65 0-7.73 3.42-7.73 8.91s2.94 9.03 7.63 9.03c2.34 0 4.12-.93 5.69-2.46l1.71 1.74c-1.94 2.01-4.35 3.15-7.53 3.15-6.09 0-10.67-4.23-10.67-11.37zm30.15-12.84h2.21l-10 29.19h-2.24l10.04-29.19z"/><use xlink:href="#Y" x="75.2"/><use xlink:href="#Z" x="75.2"/><path d="M1049.58 179.82h7.29c4.99 0 8.43 1.53 8.43 5.4 0 2.19-1.3 4.11-3.58 4.77v.15c2.91.51 4.99 2.25 4.99 5.25 0 4.32-3.82 6.45-9.3 6.45h-7.83v-22.02zm6.76 9.39c4.22 0 5.92-1.41 5.92-3.63 0-2.58-1.97-3.54-5.79-3.54h-3.78v7.17h3.65zm.64 10.41c4.22 0 6.69-1.35 6.69-4.32 0-2.73-2.41-3.99-6.69-3.99h-4.28v8.31h4.28z"/></g><use xlink:href="#A" x="832" y="251"/><g class="N Q"><use xlink:href="#V" x="816.19" y="-84.39" class="O R"/><use xlink:href="#V" x="816.19" y="-84.39" class="P S"/></g><path d="M963.77 316.85c0-7.11 4.75-11.43 11.24-11.43 3.41 0 5.66 1.38 7.06 2.73l-1.67 1.8c-1.24-1.17-2.81-2.1-5.32-2.1-4.92 0-8.13 3.42-8.13 8.91s2.91 9.03 8.2 9.03c1.74 0 3.45-.48 4.42-1.29v-5.76h-5.19v-2.31h8.03v9.24c-1.57 1.47-4.28 2.55-7.6 2.55-6.42 0-11.04-4.23-11.04-11.37zm23.16 2.85c0-5.28 3.98-8.58 8.2-8.58 4.62 0 7.23 3 7.23 7.65a10.49 10.49 0 0 1-.13 1.56h-12.25c.2 3.48 2.58 5.7 6.02 5.7 1.77 0 3.21-.48 4.55-1.29l1.1 1.8c-1.61.93-3.55 1.68-6.02 1.68-4.82 0-8.7-3.15-8.7-8.52zm12.75-1.35c0-3.27-1.67-5.04-4.52-5.04-2.58 0-4.85 1.86-5.22 5.04h9.74zm8.03 4.44v-9.03H1005v-2.07l2.84-.15.37-4.59h2.54v4.59h4.92v2.22h-4.92v9.09c0 2.01.7 3.15 2.81 3.15.64 0 1.47-.21 2.08-.42l.6 2.04c-1.04.3-2.24.6-3.35.6-3.88 0-5.19-2.19-5.19-5.43zm12.42-18.84h3.05v6.54l-.1 3.36c1.67-1.5 3.55-2.73 6.02-2.73 3.81 0 5.55 2.22 5.55 6.39v10.32h-3.04v-9.96c0-3.06-1.04-4.35-3.45-4.35-1.87 0-3.15.84-4.99 2.49v11.82h-3.05v-23.88z" class="T"/><use xlink:href="#B" x="787" y="376"/><g class="N Q"><use xlink:href="#V" x="771.06" y="40.5" class="O R"/><use xlink:href="#V" x="771.06" y="40.5" class="P S"/></g><path d="M910.69 430.31h3.11v22.02h-3.11v-22.02zm9.87 5.73h2.51l.27 2.34h.1c1.74-1.53 3.61-2.76 6.09-2.76 3.81 0 5.55 2.22 5.55 6.39v10.32h-3.04v-9.96c0-3.06-1.04-4.35-3.45-4.35-1.87 0-3.15.84-4.99 2.49v11.82h-3.05v-16.29zm21.29 2.22h-2.48v-2.07l2.48-.15v-2.61c0-3.3 1.67-5.37 5.29-5.37 1.1 0 2.21.21 3.05.54l-.67 2.07c-.67-.27-1.41-.42-2.04-.42-1.74 0-2.58 1.11-2.58 3.21v2.58h3.85v2.22h-3.85v14.07h-3.05v-14.07zm10.47 8.1v-10.32h3.04v9.99c0 3.03 1 4.32 3.41 4.32 1.87 0 3.18-.81 4.92-2.76v-11.55h3.04v16.29h-2.54l-.23-2.55h-.1c-1.71 1.77-3.51 2.94-6.02 2.94-3.81 0-5.52-2.22-5.52-6.36zm20.89-10.32h2.51l.27 2.97h.1c1.27-2.07 3.11-3.39 5.15-3.39.8 0 1.37.09 1.94.36l-.57 2.4c-.6-.21-1.04-.27-1.77-.27-1.51 0-3.38.96-4.58 3.75v10.47h-3.05v-16.29zm12.18 12.06c0-3.54 3.45-5.31 11.18-6.09 0-2.1-.77-4.11-3.75-4.11-2.11 0-4.02.87-5.45 1.74l-1.2-1.89c1.67-.96 4.25-2.13 7.16-2.13 4.42 0 6.29 2.67 6.29 6.69v10.02h-2.51l-.27-1.95h-.1c-1.74 1.29-3.78 2.34-6.02 2.34-3.05 0-5.32-1.68-5.32-4.62zm11.18.27v-4.56c-6.12.66-8.2 2.01-8.2 4.11 0 1.86 1.41 2.61 3.21 2.61s3.21-.75 4.99-2.16z" class="T"/></svg>